G04 MADE WITH FRITZING*
G04 WWW.FRITZING.ORG*
G04 SINGLE SIDED*
G04 HOLES NOT PLATED*
G04 CONTOUR ON CENTER OF CONTOUR VECTOR*
%ASAXBY*%
%FSLAX23Y23*%
%MOIN*%
%OFA0B0*%
%SFA1.0B1.0*%
%ADD10C,0.135984*%
%ADD11C,0.085000*%
%ADD12C,0.088000*%
%ADD13C,0.072992*%
%ADD14R,0.085000X0.085000*%
%ADD15R,0.084803X0.072992*%
%ADD16R,0.072992X0.072992*%
%LNMASK0*%
G90*
G70*
G54D10*
X179Y144D03*
X4179Y144D03*
X179Y2594D03*
X4179Y2594D03*
G54D11*
X1929Y1744D03*
X1929Y2044D03*
X2029Y1744D03*
X2029Y2044D03*
X2129Y1744D03*
X2129Y2044D03*
X2229Y1744D03*
X2229Y2044D03*
X2329Y1744D03*
X2329Y2044D03*
X2429Y1744D03*
X2429Y2044D03*
X2529Y1744D03*
X2529Y2044D03*
X2629Y1744D03*
X2629Y2044D03*
X2929Y1744D03*
X2929Y2044D03*
X3029Y1744D03*
X3029Y2044D03*
X3129Y1744D03*
X3129Y2044D03*
X3229Y1744D03*
X3229Y2044D03*
X3329Y1744D03*
X3329Y2044D03*
X3429Y1744D03*
X3429Y2044D03*
X3529Y1744D03*
X3529Y2044D03*
X3629Y1744D03*
X3629Y2044D03*
X528Y2346D03*
X828Y2346D03*
X528Y2246D03*
X828Y2246D03*
X528Y2146D03*
X828Y2146D03*
X528Y2046D03*
X828Y2046D03*
X528Y1946D03*
X828Y1946D03*
X528Y1846D03*
X828Y1846D03*
X528Y1746D03*
X828Y1746D03*
X528Y1646D03*
X828Y1646D03*
X528Y1546D03*
X828Y1546D03*
X528Y1446D03*
X828Y1446D03*
X2928Y796D03*
X2928Y1096D03*
X3028Y796D03*
X3028Y1096D03*
X3128Y796D03*
X3128Y1096D03*
X3228Y796D03*
X3228Y1096D03*
X3328Y796D03*
X3328Y1096D03*
X3428Y796D03*
X3428Y1096D03*
X3528Y796D03*
X3528Y1096D03*
X2028Y796D03*
X2028Y1096D03*
X2128Y796D03*
X2128Y1096D03*
X2228Y796D03*
X2228Y1096D03*
X2328Y796D03*
X2328Y1096D03*
X2428Y796D03*
X2428Y1096D03*
X2528Y796D03*
X2528Y1096D03*
X2628Y796D03*
X2628Y1096D03*
X2029Y2344D03*
X2329Y2344D03*
G54D12*
X3229Y244D03*
X3129Y244D03*
X2528Y446D03*
X2628Y446D03*
X3629Y2344D03*
X3529Y2244D03*
X3229Y2244D03*
X3429Y2144D03*
X3029Y2144D03*
X2629Y2344D03*
X2529Y2244D03*
X2429Y2144D03*
X2229Y2244D03*
X2029Y2144D03*
X2829Y1744D03*
X2829Y1844D03*
X2929Y2444D03*
X3029Y2444D03*
X3128Y1496D03*
X3228Y1496D03*
X1829Y1744D03*
X1829Y1844D03*
X2128Y1496D03*
X2228Y1496D03*
X2529Y2444D03*
X2629Y2444D03*
X3528Y1496D03*
X2528Y1496D03*
X3178Y1246D03*
X3278Y1246D03*
X3378Y1246D03*
X3478Y1246D03*
X2278Y1246D03*
X2378Y1246D03*
X2478Y1246D03*
X2578Y1246D03*
G54D11*
X2628Y1596D03*
X3628Y1596D03*
X2628Y646D03*
X3528Y646D03*
X1877Y546D03*
X2628Y546D03*
G54D12*
X3428Y1496D03*
X3028Y1496D03*
X2428Y1496D03*
X2029Y1494D03*
X3428Y546D03*
X3128Y546D03*
X2528Y646D03*
X2228Y646D03*
X978Y2146D03*
X978Y2046D03*
X978Y1946D03*
X978Y1846D03*
X978Y1746D03*
X978Y1646D03*
X978Y1546D03*
X978Y1446D03*
X979Y2244D03*
X3729Y794D03*
X3729Y1094D03*
X2329Y244D03*
X2429Y244D03*
X2529Y244D03*
X2629Y244D03*
X2729Y244D03*
X2829Y244D03*
X2929Y244D03*
X3029Y244D03*
X2329Y2544D03*
X2429Y2544D03*
X2529Y2544D03*
X2629Y2544D03*
X2729Y2544D03*
X2829Y2544D03*
X2929Y2544D03*
X3029Y2544D03*
X179Y2244D03*
X179Y2144D03*
X179Y2044D03*
X179Y1944D03*
X179Y1844D03*
X179Y1744D03*
X179Y1644D03*
X179Y1544D03*
X3829Y1294D03*
X3829Y1194D03*
X3829Y1094D03*
X3829Y994D03*
X3829Y894D03*
X3829Y794D03*
X3829Y694D03*
X3829Y594D03*
G54D13*
X1028Y794D03*
X1028Y696D03*
X1228Y794D03*
X1228Y696D03*
X1628Y794D03*
X1628Y696D03*
X228Y794D03*
X228Y696D03*
X428Y794D03*
X428Y696D03*
X628Y794D03*
X628Y696D03*
X828Y794D03*
X828Y696D03*
X1428Y794D03*
X1428Y696D03*
G54D14*
X1929Y1744D03*
X2929Y1744D03*
X528Y2346D03*
X2928Y796D03*
X2028Y796D03*
G54D15*
X1628Y491D03*
X1628Y369D03*
X1428Y491D03*
X1428Y369D03*
X828Y491D03*
X828Y369D03*
X1028Y491D03*
X1028Y369D03*
X1228Y491D03*
X1228Y369D03*
X428Y491D03*
X428Y369D03*
X628Y491D03*
X628Y369D03*
X228Y491D03*
X228Y369D03*
G54D16*
X1028Y794D03*
X1228Y794D03*
X1628Y794D03*
X228Y794D03*
X428Y794D03*
X628Y794D03*
X828Y794D03*
X1428Y794D03*
G04 End of Mask0*
M02*