; NON-PLATED HOLES START AT T1
; THROUGH (PLATED) HOLES START AT T100
M48
INCH,LZ
T1C0.125984
T100C0.031497
T101C0.035000
T102C0.038000
%
T1
X001788Y025937
X041788Y025937
X001788Y001437
X041788Y001437
T100
X016278Y007939
X014278Y006955
X014278Y007939
X004278Y007939
X010278Y007939
X008278Y006955
X006278Y006955
X010278Y006955
X002278Y006955
X006278Y007939
X012278Y007939
X002278Y007939
X008278Y007939
X012278Y006955
X004278Y006955
X016278Y006955
T101
X030288Y020437
X024288Y020437
X034278Y010955
X008279Y017464
X021288Y017437
X029278Y007955
X030278Y007955
X008279Y020464
X025278Y010955
X020278Y007955
X032278Y007955
X005279Y019464
X029288Y020437
X030288Y017437
X021278Y010955
X029288Y017437
X008279Y019464
X023288Y020437
X005279Y018464
X019288Y020437
X005279Y017464
X021288Y020437
X033288Y017437
X024278Y010955
X031288Y020437
X026279Y015964
X035278Y010955
X005279Y023464
X032288Y017437
X005279Y016464
X025288Y020437
X024288Y017437
X026278Y006455
X026288Y017437
X005279Y021464
X035288Y017437
X034288Y017437
X005279Y022464
X030278Y010955
X032278Y010955
X022288Y017437
X020288Y020437
X026278Y007955
X008279Y021464
X020288Y023437
X035278Y006455
X024278Y007955
X023278Y007955
X005279Y015464
X008279Y016464
X019288Y017437
X031278Y010955
X008279Y022464
X025288Y017437
X034288Y020437
X008279Y023464
X020288Y017437
X008279Y014464
X035278Y007955
X021278Y007955
X031278Y007955
X036279Y015964
X008279Y018464
X032288Y020437
X033278Y010955
X018773Y005457
X036288Y017437
X005279Y020464
X022288Y020437
X036288Y020437
X026288Y020437
X020278Y010955
X023288Y023437
X026278Y005455
X022278Y010955
X029278Y010955
X005279Y014464
X034278Y007955
X008279Y015464
X023288Y017437
X031288Y017437
X023278Y010955
X025278Y007955
X026278Y010955
X033278Y007955
X022278Y007955
X035288Y020437
X033288Y020437
T102
X009779Y019464
X009788Y022437
X029288Y025437
X024778Y012455
X033778Y012455
X032778Y012455
X025288Y002437
X036288Y023437
X018288Y017437
X024279Y014964
X001788Y021437
X009779Y015464
X038288Y006937
X035279Y014964
X034279Y014964
X028288Y017437
X025278Y006455
X038288Y005937
X038288Y009937
X001788Y015437
X030288Y021437
X031278Y005455
X034288Y021437
X024288Y025437
X001788Y016437
X028288Y018437
X009779Y018464
X023288Y025437
X009779Y014464
X027288Y002437
X025288Y022437
X001788Y017437
X025778Y012455
X032279Y014964
X030288Y002437
X030279Y014964
X028288Y002437
X025278Y004455
X032288Y022437
X026288Y024437
X023288Y002437
X001788Y020437
X025288Y024437
X009779Y016464
X025279Y014964
X025288Y025437
X026278Y004455
X029288Y024437
X026288Y023437
X020288Y021437
X022288Y022437
X030288Y025437
X029288Y002437
X034778Y012455
X022778Y012455
X038288Y010937
X030288Y024437
X038288Y008937
X001788Y019437
X022278Y006455
X021279Y014964
X038288Y012937
X026288Y025437
X001788Y022437
X028288Y025437
X024288Y021437
X020288Y014937
X031288Y002437
X001788Y018437
X038288Y007937
X037288Y010937
X009779Y021464
X026288Y002437
X037288Y007937
X031778Y012455
X038288Y011937
X024288Y002437
X009779Y020464
X034278Y005455
X018288Y018437
X009779Y017464
X035288Y022437
X023778Y012455
X022279Y014964
X032288Y002437
X031279Y014964
X027288Y025437
T00
M30
