G04 MADE WITH FRITZING*
G04 WWW.FRITZING.ORG*
G04 DOUBLE SIDED*
G04 HOLES PLATED*
G04 CONTOUR ON CENTER OF CONTOUR VECTOR*
%ASAXBY*%
%FSLAX23Y23*%
%MOIN*%
%OFA0B0*%
%SFA1.0B1.0*%
%ADD10C,0.099000*%
%ADD11C,0.075000*%
%ADD12C,0.062992*%
%ADD13C,0.085000*%
%ADD14C,0.078000*%
%ADD15C,0.070000*%
%ADD16R,0.099000X0.099000*%
%ADD17R,0.075000X0.075000*%
%ADD18R,0.062992X0.062992*%
%ADD19R,0.078000X0.078000*%
%ADD20C,0.024000*%
%ADD21R,0.001000X0.001000*%
%LNCOPPER0*%
G90*
G70*
G54D10*
X2091Y2105D03*
X2291Y2105D03*
X2191Y1905D03*
G54D11*
X1091Y705D03*
X1091Y1005D03*
X1191Y705D03*
X1191Y1005D03*
X1291Y705D03*
X1291Y1005D03*
X1391Y705D03*
X1391Y1005D03*
X1491Y705D03*
X1491Y1005D03*
X1591Y705D03*
X1591Y1005D03*
X1691Y705D03*
X1691Y1005D03*
X1091Y1305D03*
X1091Y1605D03*
X1191Y1305D03*
X1191Y1605D03*
X1291Y1305D03*
X1291Y1605D03*
X1391Y1305D03*
X1391Y1605D03*
X1491Y1305D03*
X1491Y1605D03*
X1591Y1305D03*
X1591Y1605D03*
X1691Y1305D03*
X1691Y1605D03*
X1191Y1155D03*
X2341Y1155D03*
X2641Y1205D03*
X3191Y1205D03*
X1941Y1305D03*
X1941Y1805D03*
X1841Y505D03*
X1841Y705D03*
G54D12*
X591Y2055D03*
X591Y1957D03*
G54D11*
X1386Y1705D03*
X1386Y2005D03*
X891Y1005D03*
X891Y1955D03*
G54D13*
X2945Y513D03*
X3141Y513D03*
X3141Y1005D03*
X2945Y1005D03*
G54D14*
X591Y1505D03*
X591Y1405D03*
X591Y1305D03*
X591Y1205D03*
X591Y1105D03*
X591Y1005D03*
X591Y905D03*
X591Y805D03*
G54D11*
X3641Y1305D03*
X3641Y1605D03*
X3741Y1305D03*
X3741Y1605D03*
X3841Y1305D03*
X3841Y1605D03*
X3941Y1305D03*
X3941Y1605D03*
X2891Y1305D03*
X2891Y1605D03*
X2991Y1305D03*
X2991Y1605D03*
X3091Y1305D03*
X3091Y1605D03*
X3191Y1305D03*
X3191Y1605D03*
X2141Y1305D03*
X2141Y1605D03*
X2241Y1305D03*
X2241Y1605D03*
X2341Y1305D03*
X2341Y1605D03*
X2441Y1305D03*
X2441Y1605D03*
G54D15*
X3841Y1755D03*
X3941Y1755D03*
X3442Y1605D03*
X3341Y1605D03*
X2692Y1605D03*
X2591Y1605D03*
G54D11*
X2891Y2155D03*
X2891Y1755D03*
X2441Y1105D03*
X2841Y1105D03*
X2441Y2105D03*
X2441Y1805D03*
X1841Y2105D03*
X1841Y1805D03*
X3191Y1955D03*
X3091Y1955D03*
X2691Y1955D03*
X2591Y1955D03*
X3841Y1010D03*
X4141Y1010D03*
G54D14*
X3741Y655D03*
X3741Y755D03*
X3741Y855D03*
G54D11*
X2141Y1455D03*
X2441Y1455D03*
X791Y905D03*
X791Y1205D03*
G54D16*
X2291Y2105D03*
G54D17*
X1091Y705D03*
X1091Y1305D03*
G54D18*
X591Y2055D03*
G54D17*
X3641Y1305D03*
X2891Y1305D03*
X2141Y1305D03*
X3191Y1955D03*
X2691Y1955D03*
G54D19*
X3741Y655D03*
G54D20*
X1341Y1905D02*
X1093Y1653D01*
D02*
X1093Y1653D02*
X1092Y1634D01*
D02*
X1741Y1905D02*
X1341Y1905D01*
D02*
X2241Y1706D02*
X2241Y1634D01*
D02*
X2091Y1855D02*
X2241Y1706D01*
D02*
X2091Y2073D02*
X2091Y1855D01*
D02*
X2190Y2006D02*
X2191Y1937D01*
D02*
X2269Y2083D02*
X2190Y2006D01*
D02*
X2990Y1855D02*
X3071Y1935D01*
D02*
X2991Y1634D02*
X2990Y1855D01*
D02*
X3063Y1605D02*
X3020Y1605D01*
D02*
X2891Y2104D02*
X2891Y2126D01*
D02*
X3068Y1972D02*
X2891Y2104D01*
D02*
X3643Y1855D02*
X3642Y1634D01*
D02*
X3191Y2255D02*
X3643Y1855D01*
D02*
X2390Y1054D02*
X2192Y1054D01*
D02*
X2192Y1054D02*
X1962Y1285D01*
D02*
X2421Y1085D02*
X2390Y1054D01*
D02*
X1391Y1555D02*
X1242Y1407D01*
D02*
X1391Y1576D02*
X1391Y1555D01*
D02*
X1263Y1605D02*
X1220Y1605D01*
D02*
X1341Y1804D02*
X1543Y1804D01*
D02*
X1543Y1804D02*
X1691Y1656D01*
D02*
X1691Y1656D02*
X1691Y1634D01*
D02*
X1290Y1753D02*
X1341Y1804D01*
D02*
X1291Y1634D02*
X1290Y1753D01*
D02*
X691Y1306D02*
X621Y1305D01*
D02*
X790Y1405D02*
X691Y1306D01*
D02*
X1242Y1407D02*
X790Y1405D01*
D02*
X691Y1405D02*
X621Y1405D01*
D02*
X1190Y1556D02*
X1142Y1505D01*
D02*
X790Y1505D02*
X691Y1405D01*
D02*
X1142Y1505D02*
X790Y1505D01*
D02*
X1191Y1576D02*
X1190Y1556D01*
D02*
X1120Y1305D02*
X1163Y1305D01*
D02*
X763Y1205D02*
X621Y1205D01*
D02*
X891Y1306D02*
X811Y1225D01*
D02*
X1063Y1305D02*
X891Y1306D01*
D02*
X1493Y1556D02*
X1293Y1356D01*
D02*
X1293Y1356D02*
X1292Y1334D01*
D02*
X1493Y1576D02*
X1493Y1556D01*
D02*
X1591Y1334D02*
X1591Y1576D01*
D02*
X1693Y1054D02*
X1492Y1254D01*
D02*
X1492Y1254D02*
X1492Y1276D01*
D02*
X1692Y1034D02*
X1693Y1054D01*
D02*
X1591Y955D02*
X1740Y806D01*
D02*
X3043Y904D02*
X3043Y1104D01*
D02*
X3090Y1155D02*
X3091Y1276D01*
D02*
X1740Y806D02*
X2941Y806D01*
D02*
X3043Y1104D02*
X3090Y1155D01*
D02*
X2941Y806D02*
X3043Y904D01*
D02*
X1591Y976D02*
X1591Y955D01*
D02*
X1591Y806D02*
X1493Y904D01*
D02*
X1493Y904D02*
X1492Y976D01*
D02*
X1591Y734D02*
X1591Y806D01*
D02*
X1463Y705D02*
X1420Y705D01*
D02*
X3592Y606D02*
X1542Y607D01*
D02*
X3690Y555D02*
X3592Y606D01*
D02*
X3993Y1407D02*
X4039Y1356D01*
D02*
X3890Y555D02*
X3690Y555D01*
D02*
X3890Y1407D02*
X3993Y1407D01*
D02*
X3843Y1334D02*
X3844Y1356D01*
D02*
X4039Y704D02*
X3890Y555D01*
D02*
X4039Y1356D02*
X4039Y704D01*
D02*
X3844Y1356D02*
X3890Y1407D01*
D02*
X1493Y653D02*
X1492Y676D01*
D02*
X1542Y607D02*
X1493Y653D01*
D02*
X3711Y655D02*
X3692Y655D01*
D02*
X1391Y734D02*
X1390Y805D01*
D02*
X691Y1505D02*
X790Y1605D01*
D02*
X790Y1605D02*
X1063Y1605D01*
D02*
X621Y1505D02*
X691Y1505D01*
D02*
X1391Y1276D02*
X1391Y1034D01*
D02*
X1290Y903D02*
X1291Y976D01*
D02*
X1390Y805D02*
X1290Y903D01*
D02*
X1191Y1034D02*
X1191Y1126D01*
D02*
X1813Y705D02*
X1720Y705D01*
D02*
X2991Y704D02*
X1870Y705D01*
D02*
X2440Y1204D02*
X2441Y1276D01*
D02*
X2441Y1134D02*
X2440Y1204D01*
D02*
X2341Y1184D02*
X2341Y1276D01*
D02*
X3191Y1234D02*
X3191Y1276D01*
D02*
X3141Y854D02*
X2991Y704D01*
D02*
X3443Y1453D02*
X3443Y1207D01*
D02*
X3443Y1207D02*
X3141Y854D01*
D02*
X2413Y2105D02*
X2323Y2105D01*
D02*
X2571Y1935D02*
X2462Y1825D01*
D02*
X2343Y1706D02*
X2342Y1634D01*
D02*
X2421Y1785D02*
X2343Y1706D01*
D02*
X3990Y1855D02*
X4140Y1705D01*
D02*
X4140Y1705D02*
X4141Y1039D01*
D02*
X3643Y1855D02*
X3990Y1855D01*
D02*
X3141Y854D02*
X3141Y970D01*
D02*
X493Y1155D02*
X542Y1106D01*
D02*
X493Y1455D02*
X493Y1155D01*
D02*
X542Y1106D02*
X561Y1105D01*
D02*
X542Y1505D02*
X493Y1455D01*
D02*
X561Y1505D02*
X542Y1505D01*
D02*
X991Y1105D02*
X621Y1105D01*
D02*
X1071Y1025D02*
X991Y1105D01*
D02*
X1870Y1805D02*
X1913Y1805D01*
D02*
X2121Y1625D02*
X1962Y1785D01*
D02*
X1790Y1455D02*
X1692Y1354D01*
D02*
X1692Y1354D02*
X1692Y1334D01*
D02*
X2113Y1455D02*
X1790Y1455D01*
D02*
X842Y504D02*
X1813Y505D01*
D02*
X611Y782D02*
X842Y504D01*
D02*
X3741Y1006D02*
X3813Y1009D01*
D02*
X591Y835D02*
X591Y875D01*
D02*
X591Y935D02*
X591Y975D01*
D02*
X2440Y1204D02*
X2613Y1205D01*
D02*
X2941Y1106D02*
X2870Y1105D01*
D02*
X1390Y1634D02*
X1387Y1676D01*
D02*
X1289Y2058D02*
X618Y2055D01*
D02*
X1361Y2019D02*
X1289Y2058D01*
D02*
X621Y1005D02*
X863Y1005D01*
D02*
X618Y1956D02*
X863Y1955D01*
D02*
X3241Y1956D02*
X3220Y1955D01*
D02*
X3443Y1757D02*
X3241Y1956D01*
D02*
X3442Y1631D02*
X3443Y1757D01*
D02*
X2941Y1106D02*
X2943Y1040D01*
D02*
X2992Y1155D02*
X2941Y1106D01*
D02*
X2992Y1276D02*
X2992Y1155D01*
D02*
X2565Y1605D02*
X2470Y1605D01*
D02*
X3941Y754D02*
X3941Y1276D01*
D02*
X3841Y655D02*
X3941Y754D01*
D02*
X3771Y655D02*
X3841Y655D01*
D02*
X2692Y1631D02*
X2691Y1926D01*
D02*
X3642Y1334D02*
X3644Y1453D01*
D02*
X3644Y1453D02*
X3443Y1453D01*
D02*
X2890Y1453D02*
X3443Y1453D01*
D02*
X3443Y1453D02*
X3442Y1579D01*
D02*
X2890Y1453D02*
X2891Y1334D01*
D02*
X2689Y1453D02*
X2890Y1453D01*
D02*
X3844Y1556D02*
X3741Y1453D01*
D02*
X3741Y1453D02*
X3644Y1453D01*
D02*
X3843Y1576D02*
X3844Y1556D01*
D02*
X2689Y1453D02*
X2691Y1579D01*
D02*
X2689Y1453D02*
X2470Y1455D01*
D02*
X2891Y1634D02*
X2891Y1726D01*
D02*
X2141Y1334D02*
X2141Y1426D01*
D02*
X3941Y1729D02*
X3941Y1634D01*
D02*
X2060Y2105D02*
X1870Y2105D01*
D02*
X3842Y1729D02*
X3844Y1653D01*
D02*
X3844Y1653D02*
X3843Y1634D01*
D02*
X2241Y1334D02*
X2241Y1404D01*
D02*
X3642Y805D02*
X3693Y755D01*
D02*
X3641Y1276D02*
X3642Y805D01*
D02*
X3693Y755D02*
X3711Y755D01*
D02*
X3741Y1006D02*
X3741Y1276D01*
D02*
X3741Y885D02*
X3741Y1006D01*
D02*
X2792Y2254D02*
X3191Y2255D01*
D02*
X2792Y1853D02*
X2792Y2254D01*
D02*
X1842Y2257D02*
X1742Y2156D01*
D02*
X2792Y2254D02*
X1842Y2257D01*
D02*
X2871Y1775D02*
X2792Y1853D01*
D02*
X1742Y2156D02*
X1741Y1905D01*
D02*
X1741Y1905D02*
X1821Y1825D01*
D02*
X3315Y1605D02*
X3220Y1605D01*
D02*
X763Y905D02*
X621Y905D01*
D02*
X890Y904D02*
X820Y905D01*
D02*
X1071Y725D02*
X890Y904D01*
D02*
X1120Y705D02*
X1163Y705D01*
G54D21*
X2338Y1617D02*
X2343Y1617D01*
X2336Y1616D02*
X2345Y1616D01*
X2334Y1615D02*
X2347Y1615D01*
X2333Y1614D02*
X2348Y1614D01*
X2332Y1613D02*
X2349Y1613D01*
X2331Y1612D02*
X2350Y1612D01*
X2330Y1611D02*
X2350Y1611D01*
X2330Y1610D02*
X2351Y1610D01*
X2330Y1609D02*
X2351Y1609D01*
X2329Y1608D02*
X2352Y1608D01*
X2329Y1607D02*
X2352Y1607D01*
X2329Y1606D02*
X2352Y1606D01*
X2329Y1605D02*
X2352Y1605D01*
X2329Y1604D02*
X2352Y1604D01*
X2329Y1603D02*
X2352Y1603D01*
X2329Y1602D02*
X2352Y1602D01*
X2329Y1601D02*
X2352Y1601D01*
X2329Y1600D02*
X2352Y1600D01*
X2329Y1599D02*
X2352Y1599D01*
X2329Y1598D02*
X2352Y1598D01*
X2329Y1597D02*
X2352Y1597D01*
X2329Y1596D02*
X2352Y1596D01*
X2329Y1595D02*
X2352Y1595D01*
X2329Y1594D02*
X2352Y1594D01*
X2329Y1593D02*
X2352Y1593D01*
X2329Y1592D02*
X2352Y1592D01*
X2329Y1591D02*
X2352Y1591D01*
X2329Y1590D02*
X2352Y1590D01*
X2329Y1589D02*
X2352Y1589D01*
X2329Y1588D02*
X2352Y1588D01*
X2329Y1587D02*
X2352Y1587D01*
X2329Y1586D02*
X2352Y1586D01*
X2329Y1585D02*
X2352Y1585D01*
X2329Y1584D02*
X2352Y1584D01*
X2329Y1583D02*
X2352Y1583D01*
X2329Y1582D02*
X2352Y1582D01*
X2329Y1581D02*
X2352Y1581D01*
X2329Y1580D02*
X2352Y1580D01*
X2329Y1579D02*
X2352Y1579D01*
X2329Y1578D02*
X2352Y1578D01*
X2329Y1577D02*
X2352Y1577D01*
X2329Y1576D02*
X2352Y1576D01*
X2329Y1575D02*
X2352Y1575D01*
X2329Y1574D02*
X2352Y1574D01*
X2329Y1573D02*
X2352Y1573D01*
X2329Y1572D02*
X2352Y1572D01*
X2329Y1571D02*
X2352Y1571D01*
X2329Y1570D02*
X2352Y1570D01*
X2329Y1569D02*
X2352Y1569D01*
X2329Y1568D02*
X2352Y1568D01*
X2329Y1567D02*
X2352Y1567D01*
X2329Y1566D02*
X2352Y1566D01*
X2329Y1565D02*
X2352Y1565D01*
X2329Y1564D02*
X2352Y1564D01*
X2329Y1563D02*
X2352Y1563D01*
X2329Y1562D02*
X2352Y1562D01*
X2329Y1561D02*
X2352Y1561D01*
X2329Y1560D02*
X2352Y1560D01*
X2328Y1559D02*
X2352Y1559D01*
X2328Y1558D02*
X2351Y1558D01*
X2328Y1557D02*
X2351Y1557D01*
X2328Y1556D02*
X2351Y1556D01*
X2328Y1555D02*
X2351Y1555D01*
X2328Y1554D02*
X2351Y1554D01*
X2328Y1553D02*
X2351Y1553D01*
X2328Y1552D02*
X2351Y1552D01*
X2328Y1551D02*
X2351Y1551D01*
X2328Y1550D02*
X2351Y1550D01*
X2328Y1549D02*
X2351Y1549D01*
X2328Y1548D02*
X2351Y1548D01*
X2328Y1547D02*
X2351Y1547D01*
X2328Y1546D02*
X2351Y1546D01*
X2328Y1545D02*
X2351Y1545D01*
X2328Y1544D02*
X2351Y1544D01*
X2328Y1543D02*
X2351Y1543D01*
X2328Y1542D02*
X2351Y1542D01*
X2328Y1541D02*
X2351Y1541D01*
X2328Y1540D02*
X2351Y1540D01*
X2328Y1539D02*
X2351Y1539D01*
X2328Y1538D02*
X2351Y1538D01*
X2328Y1537D02*
X2351Y1537D01*
X2328Y1536D02*
X2351Y1536D01*
X2328Y1535D02*
X2351Y1535D01*
X2328Y1534D02*
X2351Y1534D01*
X2328Y1533D02*
X2351Y1533D01*
X2328Y1532D02*
X2351Y1532D01*
X2328Y1531D02*
X2351Y1531D01*
X2328Y1530D02*
X2351Y1530D01*
X2328Y1529D02*
X2351Y1529D01*
X2328Y1528D02*
X2351Y1528D01*
X2328Y1527D02*
X2351Y1527D01*
X2328Y1526D02*
X2351Y1526D01*
X2328Y1525D02*
X2351Y1525D01*
X2328Y1524D02*
X2351Y1524D01*
X2328Y1523D02*
X2351Y1523D01*
X2328Y1522D02*
X2351Y1522D01*
X2328Y1521D02*
X2351Y1521D01*
X2328Y1520D02*
X2351Y1520D01*
X2328Y1519D02*
X2351Y1519D01*
X2328Y1518D02*
X2351Y1518D01*
X2328Y1517D02*
X2351Y1517D01*
X2328Y1516D02*
X2351Y1516D01*
X2328Y1515D02*
X2351Y1515D01*
X2328Y1514D02*
X2351Y1514D01*
X2328Y1513D02*
X2351Y1513D01*
X2328Y1512D02*
X2351Y1512D01*
X2328Y1511D02*
X2351Y1511D01*
X2327Y1510D02*
X2351Y1510D01*
X2326Y1509D02*
X2351Y1509D01*
X2325Y1508D02*
X2351Y1508D01*
X2324Y1507D02*
X2351Y1507D01*
X2323Y1506D02*
X2351Y1506D01*
X2323Y1505D02*
X2351Y1505D01*
X2322Y1504D02*
X2351Y1504D01*
X2321Y1503D02*
X2351Y1503D01*
X2320Y1502D02*
X2350Y1502D01*
X2319Y1501D02*
X2350Y1501D01*
X2318Y1500D02*
X2349Y1500D01*
X2317Y1499D02*
X2349Y1499D01*
X2316Y1498D02*
X2348Y1498D01*
X2315Y1497D02*
X2347Y1497D01*
X2314Y1496D02*
X2346Y1496D01*
X2313Y1495D02*
X2345Y1495D01*
X2312Y1494D02*
X2344Y1494D01*
X2311Y1493D02*
X2343Y1493D01*
X2310Y1492D02*
X2342Y1492D01*
X2309Y1491D02*
X2341Y1491D01*
X2308Y1490D02*
X2340Y1490D01*
X2307Y1489D02*
X2339Y1489D01*
X2306Y1488D02*
X2338Y1488D01*
X2305Y1487D02*
X2337Y1487D01*
X2304Y1486D02*
X2337Y1486D01*
X2303Y1485D02*
X2336Y1485D01*
X2302Y1484D02*
X2335Y1484D01*
X2301Y1483D02*
X2334Y1483D01*
X2300Y1482D02*
X2333Y1482D01*
X2299Y1481D02*
X2332Y1481D01*
X2298Y1480D02*
X2331Y1480D01*
X2297Y1479D02*
X2330Y1479D01*
X2296Y1478D02*
X2329Y1478D01*
X2295Y1477D02*
X2328Y1477D01*
X2294Y1476D02*
X2327Y1476D01*
X2293Y1475D02*
X2326Y1475D01*
X2292Y1474D02*
X2325Y1474D01*
X2291Y1473D02*
X2324Y1473D01*
X2290Y1472D02*
X2323Y1472D01*
X2289Y1471D02*
X2322Y1471D01*
X2288Y1470D02*
X2321Y1470D01*
X2287Y1469D02*
X2320Y1469D01*
X2286Y1468D02*
X2319Y1468D01*
X2285Y1467D02*
X2318Y1467D01*
X2284Y1466D02*
X2317Y1466D01*
X2283Y1465D02*
X2316Y1465D01*
X2282Y1464D02*
X2315Y1464D01*
X2281Y1463D02*
X2314Y1463D01*
X2280Y1462D02*
X2313Y1462D01*
X2279Y1461D02*
X2312Y1461D01*
X2278Y1460D02*
X2311Y1460D01*
X2277Y1459D02*
X2310Y1459D01*
X2277Y1458D02*
X2309Y1458D01*
X2276Y1457D02*
X2308Y1457D01*
X2275Y1456D02*
X2307Y1456D01*
X2274Y1455D02*
X2306Y1455D01*
X2273Y1454D02*
X2305Y1454D01*
X2272Y1453D02*
X2304Y1453D01*
X2271Y1452D02*
X2303Y1452D01*
X2270Y1451D02*
X2302Y1451D01*
X2269Y1450D02*
X2301Y1450D01*
X2268Y1449D02*
X2300Y1449D01*
X2267Y1448D02*
X2299Y1448D01*
X2266Y1447D02*
X2298Y1447D01*
X2265Y1446D02*
X2297Y1446D01*
X2264Y1445D02*
X2296Y1445D01*
X2263Y1444D02*
X2295Y1444D01*
X2262Y1443D02*
X2294Y1443D01*
X2261Y1442D02*
X2293Y1442D01*
X2260Y1441D02*
X2292Y1441D01*
X2259Y1440D02*
X2291Y1440D01*
X2258Y1439D02*
X2291Y1439D01*
X2257Y1438D02*
X2290Y1438D01*
X2256Y1437D02*
X2289Y1437D01*
X2255Y1436D02*
X2288Y1436D01*
X2254Y1435D02*
X2287Y1435D01*
X2253Y1434D02*
X2286Y1434D01*
X2252Y1433D02*
X2285Y1433D01*
X2251Y1432D02*
X2284Y1432D01*
X2250Y1431D02*
X2283Y1431D01*
X2249Y1430D02*
X2282Y1430D01*
X2248Y1429D02*
X2281Y1429D01*
X2247Y1428D02*
X2280Y1428D01*
X2246Y1427D02*
X2279Y1427D01*
X2245Y1426D02*
X2278Y1426D01*
X2244Y1425D02*
X2277Y1425D01*
X2243Y1424D02*
X2276Y1424D01*
X2242Y1423D02*
X2275Y1423D01*
X2241Y1422D02*
X2274Y1422D01*
X2240Y1421D02*
X2273Y1421D01*
X2239Y1420D02*
X2272Y1420D01*
X2238Y1419D02*
X2271Y1419D01*
X2237Y1418D02*
X2270Y1418D01*
X2236Y1417D02*
X2269Y1417D01*
X2235Y1416D02*
X2268Y1416D01*
X2234Y1415D02*
X2267Y1415D01*
X2233Y1414D02*
X2266Y1414D01*
X2232Y1413D02*
X2265Y1413D01*
X2232Y1412D02*
X2264Y1412D01*
X2231Y1411D02*
X2263Y1411D01*
X2230Y1410D02*
X2262Y1410D01*
X2230Y1409D02*
X2261Y1409D01*
X2230Y1408D02*
X2260Y1408D01*
X2229Y1407D02*
X2259Y1407D01*
X2229Y1406D02*
X2258Y1406D01*
X2229Y1405D02*
X2257Y1405D01*
X2229Y1404D02*
X2256Y1404D01*
X2229Y1403D02*
X2255Y1403D01*
X2229Y1402D02*
X2254Y1402D01*
X2230Y1401D02*
X2253Y1401D01*
X2230Y1400D02*
X2252Y1400D01*
X2230Y1399D02*
X2251Y1399D01*
X2231Y1398D02*
X2250Y1398D01*
X2232Y1397D02*
X2249Y1397D01*
X2233Y1396D02*
X2248Y1396D01*
X2234Y1395D02*
X2247Y1395D01*
X2235Y1394D02*
X2246Y1394D01*
X2238Y1393D02*
X2243Y1393D01*
D02*
G04 End of Copper0*
M02*