; NON-PLATED HOLES START AT T1
; THROUGH (PLATED) HOLES START AT T100
M48
INCH,LZ
T1C0.125984
T100C0.038000
T101C0.047244
T102C0.031497
T103C0.041000
T104C0.030000
T105C0.035000
%
T1
X041413Y022049
X001413Y001549
X041413Y001549
X001413Y022049
T100
X005913Y015049
X005913Y008049
X005913Y009049
X005913Y011049
X005913Y010049
X005913Y012049
X037413Y008549
X037413Y007549
X037413Y006549
X005913Y013049
X005913Y014049
T101
X031413Y010049
X029445Y005128
X031413Y005128
X029445Y010049
T102
X005913Y020549
X005913Y019565
T103
X021913Y019049
X020913Y021049
X022913Y021049
T104
X025913Y016049
X033413Y016049
X026915Y016049
X034415Y016049
X038411Y017549
X039413Y017549
T105
X011913Y011549
X038413Y013049
X014913Y016049
X018413Y005049
X008913Y019549
X011913Y016049
X013913Y013049
X030913Y016049
X010913Y013049
X013858Y017049
X030913Y019549
X024413Y016049
X039413Y013049
X015913Y013049
X028913Y013049
X041413Y010104
X012913Y010049
X014913Y013049
X024413Y021049
X022413Y013049
X007913Y009049
X008913Y010049
X026413Y012049
X026913Y019549
X010913Y007049
X037413Y016049
X013858Y020049
X011913Y013049
X016913Y010049
X031913Y013049
X016913Y007049
X038413Y010104
X018413Y007049
X024413Y011049
X036413Y013049
X029913Y013049
X039413Y016049
X010913Y010049
X036413Y016049
X038413Y016049
X007913Y012049
X028913Y021549
X011913Y007049
X023413Y013049
X021413Y014549
X028413Y011049
X013913Y010049
X022413Y016049
X025913Y019549
X012913Y007049
X029913Y016049
X019413Y013049
X014913Y010049
X013913Y007049
X018413Y018049
X015913Y007049
X024413Y018049
X024413Y013049
X012913Y016049
X019413Y018049
X037413Y013049
X012913Y013049
X023413Y016049
X013913Y016049
X015913Y016049
X031913Y019549
X015913Y010049
X024413Y014549
X028913Y017549
X018413Y021049
X023413Y011549
X010913Y016049
X021413Y013049
X030913Y013049
X016913Y016049
X016913Y013049
X031913Y012049
X028913Y016049
X014913Y007049
X021413Y016049
X011913Y010049
X031913Y016049
T00
M30
