G04 MADE WITH FRITZING*
G04 WWW.FRITZING.ORG*
G04 DOUBLE SIDED*
G04 HOLES PLATED*
G04 CONTOUR ON CENTER OF CONTOUR VECTOR*
%ASAXBY*%
%FSLAX23Y23*%
%MOIN*%
%OFA0B0*%
%SFA1.0B1.0*%
%ADD10C,0.109000*%
%ADD11C,0.085000*%
%ADD12C,0.135984*%
%ADD13C,0.072992*%
%ADD14C,0.095000*%
%ADD15C,0.088000*%
%ADD16C,0.080000*%
%ADD17R,0.109000X0.109000*%
%ADD18R,0.085000X0.085000*%
%ADD19R,0.072992X0.072992*%
%ADD20R,0.088000X0.088000*%
%LNMASK0*%
G90*
G70*
G54D10*
X2091Y2105D03*
X2291Y2105D03*
X2191Y1905D03*
G54D11*
X1091Y705D03*
X1091Y1005D03*
X1191Y705D03*
X1191Y1005D03*
X1291Y705D03*
X1291Y1005D03*
X1391Y705D03*
X1391Y1005D03*
X1491Y705D03*
X1491Y1005D03*
X1591Y705D03*
X1591Y1005D03*
X1691Y705D03*
X1691Y1005D03*
X1091Y1305D03*
X1091Y1605D03*
X1191Y1305D03*
X1191Y1605D03*
X1291Y1305D03*
X1291Y1605D03*
X1391Y1305D03*
X1391Y1605D03*
X1491Y1305D03*
X1491Y1605D03*
X1591Y1305D03*
X1591Y1605D03*
X1691Y1305D03*
X1691Y1605D03*
X1191Y1155D03*
X2341Y1155D03*
X2641Y1205D03*
X3191Y1205D03*
X1941Y1305D03*
X1941Y1805D03*
X1841Y505D03*
X1841Y705D03*
G54D12*
X141Y155D03*
X141Y2205D03*
X4141Y155D03*
X4141Y2205D03*
G54D13*
X591Y2055D03*
X591Y1957D03*
G54D11*
X1386Y1705D03*
X1386Y2005D03*
X891Y1005D03*
X891Y1955D03*
G54D14*
X2945Y513D03*
X3141Y513D03*
X3141Y1005D03*
X2945Y1005D03*
G54D15*
X591Y1505D03*
X591Y1405D03*
X591Y1305D03*
X591Y1205D03*
X591Y1105D03*
X591Y1005D03*
X591Y905D03*
X591Y805D03*
G54D11*
X3641Y1305D03*
X3641Y1605D03*
X3741Y1305D03*
X3741Y1605D03*
X3841Y1305D03*
X3841Y1605D03*
X3941Y1305D03*
X3941Y1605D03*
X2891Y1305D03*
X2891Y1605D03*
X2991Y1305D03*
X2991Y1605D03*
X3091Y1305D03*
X3091Y1605D03*
X3191Y1305D03*
X3191Y1605D03*
X2141Y1305D03*
X2141Y1605D03*
X2241Y1305D03*
X2241Y1605D03*
X2341Y1305D03*
X2341Y1605D03*
X2441Y1305D03*
X2441Y1605D03*
G54D16*
X3841Y1755D03*
X3941Y1755D03*
X3442Y1605D03*
X3341Y1605D03*
X2692Y1605D03*
X2591Y1605D03*
G54D11*
X2891Y2155D03*
X2891Y1755D03*
X2441Y1105D03*
X2841Y1105D03*
X2441Y2105D03*
X2441Y1805D03*
X1841Y2105D03*
X1841Y1805D03*
X3191Y1955D03*
X3091Y1955D03*
X2691Y1955D03*
X2591Y1955D03*
X3841Y1010D03*
X4141Y1010D03*
G54D15*
X3741Y655D03*
X3741Y755D03*
X3741Y855D03*
G54D11*
X2141Y1455D03*
X2441Y1455D03*
X791Y905D03*
X791Y1205D03*
G54D17*
X2291Y2105D03*
G54D18*
X1091Y705D03*
X1091Y1305D03*
G54D19*
X591Y2055D03*
G54D18*
X3641Y1305D03*
X2891Y1305D03*
X2141Y1305D03*
X3191Y1955D03*
X2691Y1955D03*
G54D20*
X3741Y655D03*
G04 End of Mask0*
M02*