G04 MADE WITH FRITZING*
G04 WWW.FRITZING.ORG*
G04 SINGLE SIDED*
G04 HOLES NOT PLATED*
G04 CONTOUR ON CENTER OF CONTOUR VECTOR*
%ASAXBY*%
%FSLAX23Y23*%
%MOIN*%
%OFA0B0*%
%SFA1.0B1.0*%
%ADD10C,0.085000*%
%ADD11C,0.088000*%
%ADD12C,0.135984*%
%ADD13C,0.080000*%
%ADD14R,0.085000X0.085000*%
%ADD15R,0.072992X0.084803*%
%LNMASK0*%
G90*
G70*
G54D10*
X3072Y556D03*
X3072Y906D03*
G54D11*
X1072Y356D03*
X1172Y356D03*
X1272Y356D03*
X1372Y356D03*
X1472Y356D03*
X1572Y356D03*
X1072Y956D03*
X1172Y956D03*
X1272Y956D03*
X1372Y956D03*
X1472Y956D03*
X1572Y956D03*
G54D10*
X2772Y1906D03*
X2972Y1906D03*
G54D11*
X1372Y1106D03*
X1472Y1106D03*
X1272Y256D03*
X1372Y256D03*
G54D12*
X180Y2598D03*
X180Y141D03*
X4187Y141D03*
X4180Y2598D03*
G54D10*
X672Y1256D03*
X672Y1656D03*
G54D11*
X1922Y2506D03*
X1922Y2406D03*
X1922Y2306D03*
X1922Y2206D03*
X1922Y2106D03*
X1922Y2006D03*
X1922Y1906D03*
X1922Y1806D03*
X1922Y1706D03*
X1922Y1606D03*
X1922Y1506D03*
X1922Y1406D03*
X1422Y1406D03*
X1422Y1506D03*
X1072Y1106D03*
X3372Y656D03*
X3172Y656D03*
X972Y2006D03*
X972Y1706D03*
X872Y1506D03*
X472Y1706D03*
X472Y1606D03*
X472Y2106D03*
X472Y2006D03*
X472Y2506D03*
X472Y2406D03*
X1222Y2306D03*
X1222Y2206D03*
X1222Y2106D03*
X1222Y2006D03*
X1222Y1906D03*
X1222Y1806D03*
X2022Y2306D03*
X2022Y2406D03*
X3722Y1106D03*
X3722Y1006D03*
X3722Y906D03*
X3722Y806D03*
X3622Y2206D03*
X3622Y2306D03*
X3222Y2206D03*
X3222Y2306D03*
X2972Y1156D03*
X3072Y1156D03*
X2172Y2056D03*
X2172Y1956D03*
X2172Y1856D03*
G54D10*
X2172Y1706D03*
X2372Y1706D03*
G54D11*
X1322Y2506D03*
X1322Y2406D03*
X1322Y2306D03*
X1322Y2206D03*
X1322Y2106D03*
X1322Y2006D03*
X1322Y1906D03*
X1322Y1806D03*
X1322Y1706D03*
X1322Y1606D03*
X1322Y1506D03*
X1322Y1406D03*
G54D10*
X2872Y1056D03*
X2872Y1356D03*
X2972Y1056D03*
X2972Y1356D03*
X3072Y1056D03*
X3072Y1356D03*
X3172Y1056D03*
X3172Y1356D03*
X3272Y1056D03*
X3272Y1356D03*
X3372Y1056D03*
X3372Y1356D03*
X3472Y1056D03*
X3472Y1356D03*
X3572Y1056D03*
X3572Y1356D03*
X572Y2506D03*
X872Y2506D03*
X572Y2406D03*
X872Y2406D03*
X572Y2306D03*
X872Y2306D03*
X572Y2206D03*
X872Y2206D03*
X572Y2106D03*
X872Y2106D03*
X572Y2006D03*
X872Y2006D03*
X572Y1906D03*
X872Y1906D03*
X572Y1806D03*
X872Y1806D03*
X572Y1706D03*
X872Y1706D03*
X572Y1606D03*
X872Y1606D03*
X3122Y1806D03*
X3122Y2106D03*
X3222Y1806D03*
X3222Y2106D03*
X3322Y1806D03*
X3322Y2106D03*
X3422Y1806D03*
X3422Y2106D03*
X3522Y1806D03*
X3522Y2106D03*
X3622Y1806D03*
X3622Y2106D03*
X3722Y1806D03*
X3722Y2106D03*
X3822Y1806D03*
X3822Y2106D03*
X2372Y1806D03*
X2372Y2106D03*
X2472Y1806D03*
X2472Y2106D03*
X2572Y1806D03*
X2572Y2106D03*
X2672Y1806D03*
X2672Y2106D03*
G54D11*
X3822Y1306D03*
X3822Y1206D03*
X3822Y1106D03*
X3822Y1006D03*
X3822Y906D03*
X3822Y806D03*
X3822Y706D03*
X3822Y606D03*
X172Y2256D03*
X172Y2156D03*
X172Y2056D03*
X172Y1956D03*
X172Y1856D03*
X172Y1756D03*
X172Y1656D03*
X172Y1556D03*
G54D10*
X2572Y2256D03*
X2572Y2556D03*
X2472Y2256D03*
X2472Y2556D03*
G54D13*
X2772Y2506D03*
X2672Y2506D03*
X2772Y2306D03*
X2672Y2306D03*
G54D10*
X3472Y756D03*
X3472Y456D03*
X3372Y756D03*
X3372Y456D03*
X3272Y756D03*
X3272Y456D03*
X3172Y756D03*
X3172Y456D03*
X3072Y756D03*
X3072Y456D03*
X2972Y756D03*
X2972Y456D03*
X2872Y756D03*
X2872Y456D03*
X1472Y1256D03*
X2272Y1256D03*
G54D11*
X1772Y1806D03*
G54D10*
X1122Y2056D03*
X972Y2206D03*
G54D14*
X2872Y1056D03*
X572Y2506D03*
X3122Y1806D03*
X2372Y1806D03*
X3472Y756D03*
G54D15*
X3622Y1206D03*
X3744Y1206D03*
G04 End of Mask0*
M02*