G04 MADE WITH FRITZING*
G04 WWW.FRITZING.ORG*
G04 SINGLE SIDED*
G04 HOLES NOT PLATED*
G04 CONTOUR ON CENTER OF CONTOUR VECTOR*
%ASAXBY*%
%FSLAX23Y23*%
%MOIN*%
%OFA0B0*%
%SFA1.0B1.0*%
%ADD10C,0.075000*%
%ADD11C,0.078000*%
%ADD12C,0.070000*%
%ADD13R,0.075000X0.075000*%
%ADD14R,0.062992X0.074803*%
%ADD15C,0.024000*%
%LNCOPPER0*%
G90*
G70*
G54D10*
X3072Y556D03*
X3072Y906D03*
G54D11*
X1072Y356D03*
X1172Y356D03*
X1272Y356D03*
X1372Y356D03*
X1472Y356D03*
X1572Y356D03*
X1072Y956D03*
X1172Y956D03*
X1272Y956D03*
X1372Y956D03*
X1472Y956D03*
X1572Y956D03*
G54D10*
X2772Y1906D03*
X2972Y1906D03*
G54D11*
X1372Y1106D03*
X1472Y1106D03*
X1272Y256D03*
X1372Y256D03*
G54D10*
X672Y1256D03*
X672Y1656D03*
G54D11*
X1922Y2506D03*
X1922Y2406D03*
X1922Y2306D03*
X1922Y2206D03*
X1922Y2106D03*
X1922Y2006D03*
X1922Y1906D03*
X1922Y1806D03*
X1922Y1706D03*
X1922Y1606D03*
X1922Y1506D03*
X1922Y1406D03*
X1422Y1406D03*
X1422Y1506D03*
X1072Y1106D03*
X3372Y656D03*
X3172Y656D03*
X972Y2006D03*
X972Y1706D03*
X872Y1506D03*
X472Y1706D03*
X472Y1606D03*
X472Y2106D03*
X472Y2006D03*
X472Y2506D03*
X472Y2406D03*
X1222Y2306D03*
X1222Y2206D03*
X1222Y2106D03*
X1222Y2006D03*
X1222Y1906D03*
X1222Y1806D03*
X2022Y2306D03*
X2022Y2406D03*
X3722Y1106D03*
X3722Y1006D03*
X3722Y906D03*
X3722Y806D03*
X3622Y2206D03*
X3622Y2306D03*
X3222Y2206D03*
X3222Y2306D03*
X2972Y1156D03*
X3072Y1156D03*
X2172Y2056D03*
X2172Y1956D03*
X2172Y1856D03*
G54D10*
X2172Y1706D03*
X2372Y1706D03*
G54D11*
X1322Y2506D03*
X1322Y2406D03*
X1322Y2306D03*
X1322Y2206D03*
X1322Y2106D03*
X1322Y2006D03*
X1322Y1906D03*
X1322Y1806D03*
X1322Y1706D03*
X1322Y1606D03*
X1322Y1506D03*
X1322Y1406D03*
G54D10*
X2872Y1056D03*
X2872Y1356D03*
X2972Y1056D03*
X2972Y1356D03*
X3072Y1056D03*
X3072Y1356D03*
X3172Y1056D03*
X3172Y1356D03*
X3272Y1056D03*
X3272Y1356D03*
X3372Y1056D03*
X3372Y1356D03*
X3472Y1056D03*
X3472Y1356D03*
X3572Y1056D03*
X3572Y1356D03*
X572Y2506D03*
X872Y2506D03*
X572Y2406D03*
X872Y2406D03*
X572Y2306D03*
X872Y2306D03*
X572Y2206D03*
X872Y2206D03*
X572Y2106D03*
X872Y2106D03*
X572Y2006D03*
X872Y2006D03*
X572Y1906D03*
X872Y1906D03*
X572Y1806D03*
X872Y1806D03*
X572Y1706D03*
X872Y1706D03*
X572Y1606D03*
X872Y1606D03*
X3122Y1806D03*
X3122Y2106D03*
X3222Y1806D03*
X3222Y2106D03*
X3322Y1806D03*
X3322Y2106D03*
X3422Y1806D03*
X3422Y2106D03*
X3522Y1806D03*
X3522Y2106D03*
X3622Y1806D03*
X3622Y2106D03*
X3722Y1806D03*
X3722Y2106D03*
X3822Y1806D03*
X3822Y2106D03*
X2372Y1806D03*
X2372Y2106D03*
X2472Y1806D03*
X2472Y2106D03*
X2572Y1806D03*
X2572Y2106D03*
X2672Y1806D03*
X2672Y2106D03*
G54D11*
X3822Y1306D03*
X3822Y1206D03*
X3822Y1106D03*
X3822Y1006D03*
X3822Y906D03*
X3822Y806D03*
X3822Y706D03*
X3822Y606D03*
X172Y2256D03*
X172Y2156D03*
X172Y2056D03*
X172Y1956D03*
X172Y1856D03*
X172Y1756D03*
X172Y1656D03*
X172Y1556D03*
G54D10*
X2572Y2256D03*
X2572Y2556D03*
X2472Y2256D03*
X2472Y2556D03*
G54D12*
X2772Y2506D03*
X2672Y2506D03*
X2772Y2306D03*
X2672Y2306D03*
G54D10*
X3472Y756D03*
X3472Y456D03*
X3372Y756D03*
X3372Y456D03*
X3272Y756D03*
X3272Y456D03*
X3172Y756D03*
X3172Y456D03*
X3072Y756D03*
X3072Y456D03*
X2972Y756D03*
X2972Y456D03*
X2872Y756D03*
X2872Y456D03*
X1472Y1256D03*
X2272Y1256D03*
G54D11*
X1772Y1806D03*
G54D10*
X1122Y2056D03*
X972Y2206D03*
G54D13*
X2872Y1056D03*
X572Y2506D03*
X3122Y1806D03*
X2372Y1806D03*
X3472Y756D03*
G54D14*
X3622Y1206D03*
X3744Y1206D03*
G54D15*
X3272Y855D02*
X3372Y955D01*
D02*
X3372Y955D02*
X3372Y1027D01*
D02*
X3272Y785D02*
X3272Y855D01*
D02*
X3071Y805D02*
X3272Y1006D01*
D02*
X3272Y1006D02*
X3272Y1027D01*
D02*
X3072Y785D02*
X3071Y805D01*
D02*
X3371Y1258D02*
X2871Y1257D01*
D02*
X2871Y1257D02*
X2872Y1085D01*
D02*
X3570Y1108D02*
X3371Y1258D01*
D02*
X3571Y1084D02*
X3570Y1108D01*
D02*
X3372Y686D02*
X3372Y727D01*
D02*
X3172Y686D02*
X3172Y727D01*
D02*
X3171Y1006D02*
X3092Y926D01*
D02*
X3172Y1027D02*
X3171Y1006D01*
D02*
X3022Y556D02*
X3044Y556D01*
D02*
X2973Y507D02*
X3022Y556D01*
D02*
X2973Y485D02*
X2973Y507D01*
D02*
X1171Y1605D02*
X1172Y986D01*
D02*
X1273Y1707D02*
X1171Y1605D01*
D02*
X1292Y1707D02*
X1273Y1707D01*
D02*
X1473Y1605D02*
X1352Y1606D01*
D02*
X1572Y1506D02*
X1473Y1605D01*
D02*
X1572Y986D02*
X1572Y1506D01*
D02*
X1223Y455D02*
X1423Y458D01*
D02*
X1171Y405D02*
X1223Y455D01*
D02*
X1423Y458D02*
X1921Y955D01*
D02*
X1921Y955D02*
X1922Y1376D01*
D02*
X1171Y386D02*
X1171Y405D01*
D02*
X1072Y405D02*
X1171Y507D01*
D02*
X1873Y1505D02*
X1892Y1505D01*
D02*
X1171Y507D02*
X1374Y507D01*
D02*
X1822Y1456D02*
X1873Y1505D01*
D02*
X1823Y955D02*
X1822Y1456D01*
D02*
X1374Y507D02*
X1823Y955D01*
D02*
X1072Y386D02*
X1072Y405D01*
D02*
X1873Y1605D02*
X1892Y1605D01*
D02*
X1621Y856D02*
X1721Y954D01*
D02*
X1322Y856D02*
X1621Y856D01*
D02*
X1273Y905D02*
X1322Y856D01*
D02*
X1721Y954D02*
X1722Y1456D01*
D02*
X1722Y1456D02*
X1873Y1605D01*
D02*
X1272Y926D02*
X1273Y905D01*
D02*
X1974Y1706D02*
X1952Y1706D01*
D02*
X1473Y405D02*
X2024Y955D01*
D02*
X2024Y955D02*
X2024Y1657D01*
D02*
X2024Y1657D02*
X1974Y1706D01*
D02*
X1473Y386D02*
X1473Y405D01*
D02*
X3022Y1905D02*
X3001Y1905D01*
D02*
X3102Y1826D02*
X3022Y1905D01*
D02*
X2638Y1905D02*
X2744Y1906D01*
D02*
X1472Y986D02*
X1472Y1076D01*
D02*
X1372Y986D02*
X1372Y1076D01*
D02*
X1072Y986D02*
X1072Y1076D01*
D02*
X3871Y458D02*
X3924Y507D01*
D02*
X3871Y1306D02*
X3852Y1306D01*
D02*
X3924Y1255D02*
X3871Y1306D01*
D02*
X3924Y507D02*
X3924Y1255D01*
D02*
X3501Y456D02*
X3871Y458D01*
D02*
X2820Y356D02*
X1602Y356D01*
D02*
X2871Y406D02*
X2820Y356D01*
D02*
X2872Y427D02*
X2871Y406D01*
D02*
X3822Y636D02*
X3822Y676D01*
D02*
X3822Y1276D02*
X3822Y1236D01*
D02*
X3792Y1106D02*
X3752Y1106D01*
D02*
X3792Y1006D02*
X3752Y1006D01*
D02*
X3792Y906D02*
X3752Y906D01*
D02*
X3792Y806D02*
X3752Y806D01*
D02*
X1372Y286D02*
X1372Y326D01*
D02*
X1272Y286D02*
X1272Y326D01*
D02*
X1352Y1506D02*
X1392Y1506D01*
D02*
X373Y1257D02*
X644Y1256D01*
D02*
X172Y1455D02*
X373Y1257D01*
D02*
X172Y1526D02*
X172Y1455D01*
D02*
X822Y2307D02*
X672Y2155D01*
D02*
X672Y2155D02*
X672Y1685D01*
D02*
X844Y2307D02*
X822Y2307D01*
D02*
X222Y2255D02*
X271Y2304D01*
D02*
X271Y2304D02*
X544Y2306D01*
D02*
X202Y2256D02*
X222Y2255D01*
D02*
X271Y2206D02*
X544Y2206D01*
D02*
X222Y2157D02*
X271Y2206D01*
D02*
X202Y2157D02*
X222Y2157D01*
D02*
X421Y1905D02*
X544Y1906D01*
D02*
X271Y2056D02*
X421Y1905D01*
D02*
X202Y2056D02*
X271Y2056D01*
D02*
X421Y1807D02*
X544Y1806D01*
D02*
X271Y1954D02*
X421Y1807D01*
D02*
X202Y1955D02*
X271Y1954D01*
D02*
X771Y1755D02*
X824Y1807D01*
D02*
X824Y1807D02*
X844Y1807D01*
D02*
X372Y1755D02*
X373Y1556D01*
D02*
X271Y1856D02*
X372Y1755D01*
D02*
X673Y1505D02*
X773Y1605D01*
D02*
X422Y1505D02*
X673Y1505D01*
D02*
X373Y1556D02*
X422Y1505D01*
D02*
X773Y1605D02*
X771Y1755D01*
D02*
X202Y1856D02*
X271Y1856D01*
D02*
X1072Y1856D02*
X1023Y1905D01*
D02*
X322Y1505D02*
X422Y1405D01*
D02*
X323Y1706D02*
X322Y1505D01*
D02*
X271Y1755D02*
X323Y1706D01*
D02*
X924Y1407D02*
X1072Y1554D01*
D02*
X422Y1405D02*
X924Y1407D01*
D02*
X1072Y1554D02*
X1072Y1856D01*
D02*
X1023Y1905D02*
X901Y1906D01*
D02*
X202Y1756D02*
X271Y1755D01*
D02*
X273Y1456D02*
X373Y1355D01*
D02*
X271Y1604D02*
X273Y1456D01*
D02*
X222Y1657D02*
X271Y1604D01*
D02*
X1121Y2007D02*
X1122Y2027D01*
D02*
X1121Y1505D02*
X1121Y2007D01*
D02*
X974Y1357D02*
X1121Y1505D01*
D02*
X373Y1355D02*
X974Y1357D01*
D02*
X202Y1656D02*
X222Y1657D01*
D02*
X872Y1536D02*
X872Y1577D01*
D02*
X901Y1706D02*
X942Y1706D01*
D02*
X901Y2006D02*
X942Y2006D01*
D02*
X1122Y2355D02*
X1171Y2407D01*
D02*
X1171Y2407D02*
X1292Y2406D01*
D02*
X1122Y2207D02*
X1122Y2355D01*
D02*
X1023Y2105D02*
X1122Y2207D01*
D02*
X901Y2106D02*
X1023Y2105D01*
D02*
X1073Y2505D02*
X972Y2406D01*
D02*
X972Y2406D02*
X901Y2406D01*
D02*
X1292Y2506D02*
X1073Y2505D01*
D02*
X544Y2406D02*
X502Y2406D01*
D02*
X544Y2506D02*
X502Y2506D01*
D02*
X544Y2106D02*
X502Y2106D01*
D02*
X544Y2006D02*
X502Y2006D01*
D02*
X544Y1706D02*
X502Y1706D01*
D02*
X544Y1606D02*
X502Y1606D01*
D02*
X1252Y1806D02*
X1292Y1806D01*
D02*
X1292Y1906D02*
X1252Y1906D01*
D02*
X1292Y2006D02*
X1252Y2006D01*
D02*
X1292Y2106D02*
X1252Y2106D01*
D02*
X1292Y2206D02*
X1252Y2206D01*
D02*
X1292Y2306D02*
X1252Y2306D01*
D02*
X1392Y1406D02*
X1352Y1406D01*
D02*
X1923Y2605D02*
X1922Y2536D01*
D02*
X1073Y2606D02*
X1923Y2605D01*
D02*
X972Y2505D02*
X1073Y2606D01*
D02*
X901Y2506D02*
X972Y2505D01*
D02*
X2373Y2557D02*
X2372Y2135D01*
D02*
X2324Y2606D02*
X2373Y2557D01*
D02*
X1923Y2605D02*
X2324Y2606D01*
D02*
X2373Y2557D02*
X2444Y2556D01*
D02*
X2472Y2135D02*
X2472Y2227D01*
D02*
X2472Y2357D02*
X2573Y2455D01*
D02*
X2573Y2455D02*
X2572Y2527D01*
D02*
X2472Y2285D02*
X2472Y2357D01*
D02*
X2572Y2135D02*
X2572Y2227D01*
D02*
X2573Y2006D02*
X2572Y2077D01*
D02*
X2472Y1906D02*
X2573Y2006D01*
D02*
X2472Y1835D02*
X2472Y1906D01*
D02*
X2672Y2135D02*
X2672Y2280D01*
D02*
X2573Y2357D02*
X2671Y2455D01*
D02*
X2671Y2455D02*
X2672Y2480D01*
D02*
X2572Y2285D02*
X2573Y2357D01*
D02*
X2771Y2407D02*
X2772Y2480D01*
D02*
X2772Y2332D02*
X2771Y2407D01*
D02*
X2573Y1856D02*
X2638Y1905D01*
D02*
X2573Y1835D02*
X2573Y1856D01*
D02*
X3294Y1806D02*
X3251Y1806D01*
D02*
X3794Y1806D02*
X3751Y1806D01*
D02*
X3574Y1705D02*
X3724Y1706D01*
D02*
X3724Y1706D02*
X3723Y1777D01*
D02*
X3523Y1756D02*
X3523Y1777D01*
D02*
X3574Y1705D02*
X3523Y1756D01*
D02*
X3622Y1955D02*
X3522Y2056D01*
D02*
X3821Y2056D02*
X3723Y1955D01*
D02*
X3522Y2056D02*
X3522Y2077D01*
D02*
X3723Y1955D02*
X3622Y1955D01*
D02*
X3822Y2077D02*
X3821Y2056D01*
D02*
X3222Y2056D02*
X3222Y2077D01*
D02*
X3323Y1955D02*
X3222Y2056D01*
D02*
X3522Y1955D02*
X3323Y1955D01*
D02*
X3622Y1856D02*
X3522Y1955D01*
D02*
X3622Y1835D02*
X3622Y1856D01*
D02*
X3424Y2257D02*
X3423Y2135D01*
D02*
X3274Y2407D02*
X3424Y2257D01*
D02*
X2771Y2407D02*
X3274Y2407D01*
D02*
X2791Y2288D02*
X2872Y2208D01*
D02*
X2372Y1735D02*
X2372Y1777D01*
D02*
X2721Y1706D02*
X2401Y1706D01*
D02*
X2873Y1856D02*
X2721Y1706D01*
D02*
X2872Y2208D02*
X2873Y1856D01*
D02*
X3222Y2135D02*
X3222Y2176D01*
D02*
X3622Y2176D02*
X3622Y2135D01*
D02*
X3494Y1806D02*
X3451Y1806D01*
D02*
X3394Y1806D02*
X3351Y1806D01*
D02*
X3222Y1906D02*
X3222Y1835D01*
D02*
X3122Y2005D02*
X3222Y1906D01*
D02*
X3122Y2077D02*
X3122Y2005D01*
D02*
X2323Y2105D02*
X2273Y2055D01*
D02*
X2274Y1657D02*
X2474Y1457D01*
D02*
X2273Y2055D02*
X2274Y1657D01*
D02*
X2921Y1457D02*
X3221Y1755D01*
D02*
X3221Y1755D02*
X3222Y1777D01*
D02*
X2872Y1457D02*
X2921Y1457D01*
D02*
X2474Y1457D02*
X2872Y1457D01*
D02*
X2344Y2105D02*
X2323Y2105D01*
D02*
X3723Y1955D02*
X3722Y1835D01*
D02*
X2872Y1457D02*
X2872Y1385D01*
D02*
X3472Y785D02*
X3472Y1027D01*
D02*
X3574Y754D02*
X3572Y1027D01*
D02*
X2872Y785D02*
X2872Y1027D01*
D02*
X3072Y1085D02*
X3072Y1126D01*
D02*
X2972Y1085D02*
X2972Y1126D01*
D02*
X3792Y1306D02*
X3773Y1305D01*
D02*
X3723Y1356D02*
X3773Y1305D01*
D02*
X3724Y1706D02*
X3723Y1356D01*
D02*
X3722Y607D02*
X3792Y606D01*
D02*
X3574Y754D02*
X3722Y607D01*
D02*
X3222Y2236D02*
X3222Y2276D01*
D02*
X3622Y2236D02*
X3622Y2276D01*
D02*
X1992Y2406D02*
X1952Y2406D01*
D02*
X1992Y2306D02*
X1952Y2306D01*
D02*
X2273Y2055D02*
X2202Y2056D01*
D02*
X2073Y1955D02*
X2023Y2005D01*
D02*
X2023Y2005D02*
X1952Y2006D01*
D02*
X2142Y1955D02*
X2073Y1955D01*
D02*
X1873Y1905D02*
X1892Y1905D01*
D02*
X1822Y1956D02*
X1873Y1905D01*
D02*
X1822Y2056D02*
X1822Y1956D01*
D02*
X1873Y2105D02*
X1822Y2056D01*
D02*
X1892Y2105D02*
X1873Y2105D01*
D02*
X2073Y1856D02*
X2022Y1905D01*
D02*
X2022Y1905D02*
X1952Y1906D01*
D02*
X2142Y1856D02*
X2073Y1856D01*
D02*
X2172Y1826D02*
X2172Y1735D01*
D02*
X2023Y2205D02*
X1952Y2206D01*
D02*
X2151Y2077D02*
X2023Y2205D01*
D02*
X2573Y1257D02*
X2174Y1654D01*
D02*
X2174Y1654D02*
X2173Y1677D01*
D02*
X2871Y1257D02*
X2573Y1257D01*
D02*
X2823Y656D02*
X2921Y657D01*
D02*
X2772Y707D02*
X2823Y656D01*
D02*
X2921Y657D02*
X2973Y705D01*
D02*
X2772Y957D02*
X2772Y707D01*
D02*
X2301Y1256D02*
X2471Y1257D01*
D02*
X2973Y705D02*
X2973Y727D01*
D02*
X2471Y1257D02*
X2772Y957D01*
D02*
X1472Y1136D02*
X1472Y1227D01*
D02*
X3792Y1206D02*
X3770Y1206D01*
D02*
X3623Y1155D02*
X3623Y1174D01*
D02*
X3672Y1106D02*
X3623Y1155D01*
D02*
X3692Y1106D02*
X3672Y1106D01*
D02*
X1892Y1806D02*
X1802Y1806D01*
D02*
X901Y2206D02*
X944Y2206D01*
G04 End of Copper0*
M02*