; NON-PLATED HOLES START AT T1
; THROUGH (PLATED) HOLES START AT T100
M48
INCH,LZ
T1C0.125984
T100C0.038000
T101C0.035000
T102C0.030000
%
T1
X001796Y025984
X041796Y025984
X041871Y001409
X001796Y001409
T100
X001722Y019559
X013222Y019059
X036222Y023059
X009722Y017059
X012722Y009559
X032222Y023059
X012222Y019059
X019222Y021059
X013222Y016059
X019222Y016059
X010722Y009559
X019222Y018059
X001722Y021559
X010722Y011059
X037222Y009059
X021722Y019559
X012722Y002559
X038222Y009059
X012722Y003559
X013222Y024059
X004722Y016059
X019222Y019059
X037222Y008059
X037222Y011059
X001722Y020559
X013222Y022059
X009722Y020059
X014222Y014059
X001722Y018559
X038222Y008059
X038222Y012059
X019222Y020059
X013222Y021059
X019222Y014059
X013222Y015059
X017722Y018059
X037222Y010059
X030722Y011559
X032222Y022059
X013222Y017059
X013222Y018059
X015722Y009559
X013222Y025059
X011722Y009559
X038222Y010059
X033722Y006559
X019222Y025059
X014222Y015059
X011722Y003559
X021722Y020559
X012222Y020059
X013222Y023059
X001722Y022559
X012222Y023059
X012222Y018059
X014722Y003559
X010722Y003559
X012222Y022059
X020222Y023059
X012222Y021059
X019222Y024059
X019222Y015059
X038222Y007059
X036222Y022059
X019222Y023059
X029722Y011559
X008722Y015059
X019222Y017059
X014722Y009559
X038222Y006059
X020222Y024059
X001722Y015559
X031722Y006559
X013222Y020059
X004722Y017059
X004722Y024059
X004722Y025059
X001722Y016559
X013722Y003559
X038222Y011059
X019222Y022059
X014722Y011059
X013722Y009559
X001722Y017559
X021722Y018559
X004722Y020059
X015722Y003559
X013222Y014059
X013722Y011059
X004722Y021059
X013722Y002559
X038222Y013059
T101
X024722Y021059
X033222Y021059
X005722Y017059
X008722Y024059
X031722Y010559
X030722Y010559
X036222Y018059
X032722Y004559
X025722Y025559
X028722Y004559
X034722Y010559
X031722Y013559
X038222Y018059
X036222Y021059
X029722Y010559
X008722Y025059
X035222Y018059
X008722Y020059
X033722Y010559
X023722Y017059
X008722Y021059
X029722Y013559
X029722Y004559
X011222Y020559
X032222Y021059
X024722Y025559
X034722Y013559
X023722Y021059
X005722Y023059
X026722Y018059
X034222Y021059
X006722Y016559
X024722Y022559
X028722Y013559
X025722Y018059
X023722Y018059
X005722Y018059
X029722Y007559
X033222Y018059
X032722Y010559
X005722Y025059
X026722Y021059
X006722Y012559
X030722Y009059
X009722Y022059
X005722Y019059
X027722Y019059
X005722Y024059
X038222Y021059
X037222Y021059
X024722Y018059
X008722Y017059
X005722Y022059
X035222Y021059
X008722Y018059
X032722Y013559
X030722Y013559
X028722Y010559
X028722Y007559
X005722Y020059
X021722Y017059
X025722Y021059
X035722Y013559
X034722Y004559
X034222Y018059
X014722Y012559
X030722Y004559
X008722Y016059
X005722Y016059
X031222Y018059
X005722Y021059
X008722Y023059
X029722Y019059
X032222Y018059
X034722Y007559
X025722Y022559
X037222Y018059
X035722Y010559
X031722Y007559
X033722Y004559
X033722Y007559
X030722Y007559
X030722Y005559
X032722Y007559
X008722Y019059
X033722Y013559
X031222Y021059
X031722Y004559
X008722Y022059
X022722Y012559
T102
X026722Y025059
X027722Y023059
X026722Y023059
X027722Y025059
T00
M30
