; NON-PLATED HOLES START AT T1
; THROUGH (PLATED) HOLES START AT T100
M48
INCH,LZ
T1C0.125984
T100C0.035000
T101C0.031497
T102C0.038000
%
T1
X041820Y001514
X041827Y022022
X001820Y022014
X001812Y001507
T100
X033312Y013507
X035812Y013507
X009820Y012514
X017320Y009514
X030812Y017507
X023812Y010007
X012820Y012514
X012820Y016514
X006312Y012007
X018312Y017507
X033312Y017507
X012820Y017514
X025812Y010007
X009820Y014514
X009820Y017514
X009820Y003514
X006312Y003507
X013812Y010007
X012820Y008514
X014812Y018507
X026812Y010007
X012820Y007514
X012820Y013514
X028812Y007007
X012820Y011514
X024812Y007007
X026812Y007007
X013812Y017507
X027812Y007007
X021812Y007007
X007312Y017507
X009820Y005514
X009820Y007514
X019320Y010514
X012820Y002514
X023312Y013507
X009820Y016514
X012820Y003514
X012820Y014514
X030812Y013507
X025812Y007007
X009820Y008514
X015320Y010514
X007319Y008992
X021812Y010007
X023812Y007007
X018312Y013507
X018320Y012014
X020812Y010007
X024812Y010007
X028312Y013507
X025812Y013507
X009820Y002514
X012820Y004514
X023820Y012014
X028812Y010007
X009820Y013514
X009820Y011514
X022812Y007007
X029812Y010007
X009820Y004514
X009820Y006514
X012820Y005514
X012820Y015514
X023312Y017507
X012820Y009514
X020812Y017507
X027812Y010007
X009820Y015514
X028312Y017507
X009820Y018514
X025812Y017507
X022812Y010007
X029812Y007007
X009820Y009514
X035812Y017507
X012820Y006514
X012820Y018514
X020812Y013507
X020812Y007007
X014812Y020507
X017320Y004514
T101
X020812Y019507
X035812Y018522
X033312Y019507
X020812Y018522
X025812Y018522
X028312Y018522
X025812Y019507
X033312Y018522
X030812Y018522
X030812Y019507
X018312Y019507
X028312Y019507
X035812Y019507
X018312Y018522
X023312Y018522
X023312Y019507
T102
X037320Y010014
X001820Y013014
X026312Y002507
X037320Y009014
X037320Y008014
X001820Y014014
X001820Y012014
X028312Y002507
X037320Y012014
X022312Y002507
X023312Y002507
X001820Y008014
X001820Y015014
X037320Y014014
X037320Y011014
X001820Y010014
X027312Y002507
X024312Y002507
X001820Y011014
X021312Y002507
X037320Y015014
X025312Y002507
X001820Y009014
X037320Y013014
T00
M30
