G04 MADE WITH FRITZING*
G04 WWW.FRITZING.ORG*
G04 SINGLE SIDED*
G04 HOLES NOT PLATED*
G04 CONTOUR ON CENTER OF CONTOUR VECTOR*
%ASAXBY*%
%FSLAX23Y23*%
%MOIN*%
%OFA0B0*%
%SFA1.0B1.0*%
%ADD10R,4.330720X2.362200X4.314720X2.346200*%
%ADD11C,0.008000*%
%ADD12C,0.021000*%
%ADD13C,0.010000*%
%ADD14C,0.005000*%
%ADD15C,0.005120*%
%ADD16R,0.001000X0.001000*%
%LNSILK1*%
G90*
G70*
G54D11*
X4Y2358D02*
X4327Y2358D01*
X4327Y4D01*
X4Y4D01*
X4Y2358D01*
D02*
G54D12*
X1870Y1201D02*
X2345Y1201D01*
G54D13*
D02*
X3331Y1388D02*
X3331Y1460D01*
D02*
X3331Y1660D02*
X3331Y1713D01*
D02*
X3298Y1460D02*
X3298Y1660D01*
D02*
X3298Y1660D02*
X3364Y1660D01*
D02*
X3364Y1660D02*
X3364Y1460D01*
D02*
X3364Y1460D02*
X3298Y1460D01*
D02*
X3581Y1388D02*
X3581Y1460D01*
D02*
X3581Y1660D02*
X3581Y1713D01*
D02*
X3548Y1460D02*
X3548Y1660D01*
D02*
X3548Y1660D02*
X3614Y1660D01*
D02*
X3614Y1660D02*
X3614Y1460D01*
D02*
X3614Y1460D02*
X3548Y1460D01*
D02*
X2581Y1388D02*
X2581Y1460D01*
D02*
X2581Y1660D02*
X2581Y1713D01*
D02*
X2548Y1460D02*
X2548Y1660D01*
D02*
X2548Y1660D02*
X2614Y1660D01*
D02*
X2614Y1660D02*
X2614Y1460D01*
D02*
X2614Y1460D02*
X2548Y1460D01*
D02*
X2331Y1388D02*
X2331Y1460D01*
D02*
X2331Y1660D02*
X2331Y1713D01*
D02*
X2298Y1460D02*
X2298Y1660D01*
D02*
X2298Y1660D02*
X2364Y1660D01*
D02*
X2364Y1660D02*
X2364Y1460D01*
D02*
X2364Y1460D02*
X2298Y1460D01*
D02*
X2081Y1388D02*
X2081Y1460D01*
D02*
X2081Y1660D02*
X2081Y1713D01*
D02*
X2048Y1460D02*
X2048Y1660D01*
D02*
X2048Y1660D02*
X2114Y1660D01*
D02*
X2114Y1660D02*
X2114Y1460D01*
D02*
X2114Y1460D02*
X2048Y1460D01*
D02*
X1831Y1388D02*
X1831Y1460D01*
D02*
X1831Y1660D02*
X1831Y1713D01*
D02*
X1798Y1460D02*
X1798Y1660D01*
D02*
X1798Y1660D02*
X1864Y1660D01*
D02*
X1864Y1660D02*
X1864Y1460D01*
D02*
X1864Y1460D02*
X1798Y1460D01*
D02*
X2831Y1388D02*
X2831Y1460D01*
D02*
X2831Y1660D02*
X2831Y1713D01*
D02*
X2798Y1460D02*
X2798Y1660D01*
D02*
X2798Y1660D02*
X2864Y1660D01*
D02*
X2864Y1660D02*
X2864Y1460D01*
D02*
X2864Y1460D02*
X2798Y1460D01*
D02*
X3081Y1388D02*
X3081Y1460D01*
D02*
X3081Y1660D02*
X3081Y1713D01*
D02*
X3048Y1460D02*
X3048Y1660D01*
D02*
X3048Y1660D02*
X3114Y1660D01*
D02*
X3114Y1660D02*
X3114Y1460D01*
D02*
X3114Y1460D02*
X3048Y1460D01*
G54D12*
D02*
X732Y937D02*
X731Y1713D01*
D02*
X1570Y1051D02*
X1895Y1051D01*
D02*
X1481Y1888D02*
X1481Y2013D01*
D02*
X1381Y1038D02*
X1381Y1713D01*
D02*
X631Y388D02*
X631Y1163D01*
G54D13*
D02*
X2881Y301D02*
X2081Y301D01*
D02*
X2081Y301D02*
X2081Y201D01*
D02*
X2081Y201D02*
X2881Y201D01*
D02*
X2881Y201D02*
X2881Y301D01*
G54D14*
D02*
X2846Y301D02*
X2881Y266D01*
G54D13*
D02*
X232Y751D02*
X232Y1551D01*
D02*
X232Y1551D02*
X132Y1551D01*
D02*
X132Y1551D02*
X132Y751D01*
D02*
X132Y751D02*
X232Y751D01*
G54D14*
D02*
X232Y786D02*
X197Y751D01*
G54D13*
D02*
X3782Y751D02*
X3782Y1551D01*
D02*
X3782Y1551D02*
X3682Y1551D01*
D02*
X3682Y1551D02*
X3682Y751D01*
D02*
X3682Y751D02*
X3782Y751D01*
G54D14*
D02*
X3782Y786D02*
X3747Y751D01*
G54D13*
D02*
X1332Y1101D02*
X1332Y1901D01*
D02*
X1332Y1901D02*
X932Y1901D01*
D02*
X932Y1901D02*
X932Y1101D01*
D02*
X1332Y1101D02*
X1182Y1101D01*
D02*
X1082Y1101D02*
X932Y1101D01*
D02*
X1332Y201D02*
X1332Y1001D01*
D02*
X1332Y1001D02*
X932Y1001D01*
D02*
X932Y1001D02*
X932Y201D01*
D02*
X1332Y201D02*
X1182Y201D01*
D02*
X1082Y201D02*
X932Y201D01*
D02*
X3031Y1051D02*
X2031Y1051D01*
D02*
X2031Y1051D02*
X2031Y651D01*
D02*
X2031Y651D02*
X3031Y651D01*
D02*
X3031Y1051D02*
X3031Y901D01*
D02*
X3031Y801D02*
X3031Y651D01*
G54D12*
D02*
X1732Y489D02*
X1732Y914D01*
G54D15*
X2797Y1967D02*
X2785Y1967D01*
D02*
X2877Y1967D02*
X2865Y1967D01*
D02*
X2547Y1967D02*
X2535Y1967D01*
D02*
X2627Y1967D02*
X2615Y1967D01*
D02*
X2047Y1967D02*
X2035Y1967D01*
D02*
X2127Y1967D02*
X2115Y1967D01*
D02*
X2297Y1967D02*
X2285Y1967D01*
D02*
X2377Y1967D02*
X2365Y1967D01*
D02*
X1797Y1967D02*
X1785Y1967D01*
D02*
X1877Y1967D02*
X1865Y1967D01*
D02*
X3047Y1967D02*
X3035Y1967D01*
D02*
X3127Y1967D02*
X3115Y1967D01*
D02*
X3297Y1967D02*
X3285Y1967D01*
D02*
X3377Y1967D02*
X3365Y1967D01*
D02*
X3547Y1967D02*
X3535Y1967D01*
D02*
X3627Y1967D02*
X3615Y1967D01*
D02*
G54D16*
X650Y2249D02*
X656Y2249D01*
X648Y2248D02*
X658Y2248D01*
X647Y2247D02*
X659Y2247D01*
X646Y2246D02*
X660Y2246D01*
X646Y2245D02*
X660Y2245D01*
X415Y2244D02*
X454Y2244D01*
X646Y2244D02*
X660Y2244D01*
X415Y2243D02*
X456Y2243D01*
X646Y2243D02*
X660Y2243D01*
X415Y2242D02*
X458Y2242D01*
X646Y2242D02*
X660Y2242D01*
X415Y2241D02*
X459Y2241D01*
X646Y2241D02*
X660Y2241D01*
X415Y2240D02*
X460Y2240D01*
X646Y2240D02*
X660Y2240D01*
X788Y2240D02*
X791Y2240D01*
X415Y2239D02*
X461Y2239D01*
X646Y2239D02*
X660Y2239D01*
X786Y2239D02*
X793Y2239D01*
X415Y2238D02*
X461Y2238D01*
X646Y2238D02*
X660Y2238D01*
X786Y2238D02*
X793Y2238D01*
X415Y2237D02*
X462Y2237D01*
X647Y2237D02*
X659Y2237D01*
X785Y2237D02*
X794Y2237D01*
X415Y2236D02*
X463Y2236D01*
X648Y2236D02*
X658Y2236D01*
X785Y2236D02*
X794Y2236D01*
X415Y2235D02*
X463Y2235D01*
X650Y2235D02*
X656Y2235D01*
X785Y2235D02*
X794Y2235D01*
X415Y2234D02*
X424Y2234D01*
X452Y2234D02*
X463Y2234D01*
X785Y2234D02*
X794Y2234D01*
X415Y2233D02*
X424Y2233D01*
X453Y2233D02*
X464Y2233D01*
X785Y2233D02*
X794Y2233D01*
X415Y2232D02*
X424Y2232D01*
X454Y2232D02*
X464Y2232D01*
X785Y2232D02*
X794Y2232D01*
X415Y2231D02*
X424Y2231D01*
X455Y2231D02*
X464Y2231D01*
X785Y2231D02*
X794Y2231D01*
X415Y2230D02*
X424Y2230D01*
X455Y2230D02*
X464Y2230D01*
X785Y2230D02*
X794Y2230D01*
X415Y2229D02*
X424Y2229D01*
X455Y2229D02*
X464Y2229D01*
X785Y2229D02*
X794Y2229D01*
X415Y2228D02*
X424Y2228D01*
X455Y2228D02*
X464Y2228D01*
X785Y2228D02*
X794Y2228D01*
X415Y2227D02*
X424Y2227D01*
X455Y2227D02*
X464Y2227D01*
X785Y2227D02*
X794Y2227D01*
X415Y2226D02*
X424Y2226D01*
X455Y2226D02*
X464Y2226D01*
X785Y2226D02*
X794Y2226D01*
X415Y2225D02*
X424Y2225D01*
X455Y2225D02*
X464Y2225D01*
X785Y2225D02*
X794Y2225D01*
X415Y2224D02*
X424Y2224D01*
X455Y2224D02*
X464Y2224D01*
X785Y2224D02*
X794Y2224D01*
X415Y2223D02*
X424Y2223D01*
X455Y2223D02*
X464Y2223D01*
X501Y2223D02*
X522Y2223D01*
X573Y2223D02*
X589Y2223D01*
X601Y2223D02*
X605Y2223D01*
X639Y2223D02*
X657Y2223D01*
X713Y2223D02*
X742Y2223D01*
X778Y2223D02*
X816Y2223D01*
X861Y2223D02*
X882Y2223D01*
X922Y2223D02*
X926Y2223D01*
X941Y2223D02*
X957Y2223D01*
X415Y2222D02*
X424Y2222D01*
X454Y2222D02*
X464Y2222D01*
X499Y2222D02*
X524Y2222D01*
X571Y2222D02*
X591Y2222D01*
X600Y2222D02*
X607Y2222D01*
X637Y2222D02*
X659Y2222D01*
X711Y2222D02*
X744Y2222D01*
X776Y2222D02*
X817Y2222D01*
X859Y2222D02*
X884Y2222D01*
X920Y2222D02*
X927Y2222D01*
X940Y2222D02*
X960Y2222D01*
X415Y2221D02*
X424Y2221D01*
X453Y2221D02*
X464Y2221D01*
X497Y2221D02*
X526Y2221D01*
X569Y2221D02*
X593Y2221D01*
X599Y2221D02*
X607Y2221D01*
X637Y2221D02*
X659Y2221D01*
X709Y2221D02*
X746Y2221D01*
X776Y2221D02*
X818Y2221D01*
X857Y2221D02*
X886Y2221D01*
X920Y2221D02*
X927Y2221D01*
X939Y2221D02*
X961Y2221D01*
X415Y2220D02*
X424Y2220D01*
X452Y2220D02*
X463Y2220D01*
X496Y2220D02*
X527Y2220D01*
X568Y2220D02*
X594Y2220D01*
X599Y2220D02*
X608Y2220D01*
X636Y2220D02*
X660Y2220D01*
X708Y2220D02*
X747Y2220D01*
X775Y2220D02*
X819Y2220D01*
X856Y2220D02*
X887Y2220D01*
X919Y2220D02*
X928Y2220D01*
X938Y2220D02*
X963Y2220D01*
X415Y2219D02*
X463Y2219D01*
X495Y2219D02*
X528Y2219D01*
X567Y2219D02*
X595Y2219D01*
X599Y2219D02*
X608Y2219D01*
X636Y2219D02*
X660Y2219D01*
X707Y2219D02*
X748Y2219D01*
X775Y2219D02*
X819Y2219D01*
X855Y2219D02*
X888Y2219D01*
X919Y2219D02*
X928Y2219D01*
X937Y2219D02*
X964Y2219D01*
X415Y2218D02*
X462Y2218D01*
X494Y2218D02*
X530Y2218D01*
X566Y2218D02*
X596Y2218D01*
X599Y2218D02*
X608Y2218D01*
X636Y2218D02*
X660Y2218D01*
X706Y2218D02*
X749Y2218D01*
X775Y2218D02*
X819Y2218D01*
X854Y2218D02*
X889Y2218D01*
X919Y2218D02*
X928Y2218D01*
X935Y2218D02*
X964Y2218D01*
X415Y2217D02*
X462Y2217D01*
X492Y2217D02*
X531Y2217D01*
X564Y2217D02*
X608Y2217D01*
X636Y2217D02*
X660Y2217D01*
X706Y2217D02*
X750Y2217D01*
X775Y2217D02*
X818Y2217D01*
X852Y2217D02*
X891Y2217D01*
X919Y2217D02*
X928Y2217D01*
X934Y2217D02*
X965Y2217D01*
X415Y2216D02*
X461Y2216D01*
X491Y2216D02*
X532Y2216D01*
X563Y2216D02*
X608Y2216D01*
X637Y2216D02*
X660Y2216D01*
X705Y2216D02*
X751Y2216D01*
X776Y2216D02*
X818Y2216D01*
X851Y2216D02*
X892Y2216D01*
X919Y2216D02*
X928Y2216D01*
X933Y2216D02*
X966Y2216D01*
X415Y2215D02*
X460Y2215D01*
X491Y2215D02*
X533Y2215D01*
X562Y2215D02*
X608Y2215D01*
X638Y2215D02*
X660Y2215D01*
X705Y2215D02*
X751Y2215D01*
X777Y2215D02*
X817Y2215D01*
X850Y2215D02*
X892Y2215D01*
X919Y2215D02*
X928Y2215D01*
X932Y2215D02*
X966Y2215D01*
X415Y2214D02*
X460Y2214D01*
X490Y2214D02*
X533Y2214D01*
X562Y2214D02*
X608Y2214D01*
X639Y2214D02*
X660Y2214D01*
X705Y2214D02*
X751Y2214D01*
X778Y2214D02*
X816Y2214D01*
X850Y2214D02*
X893Y2214D01*
X919Y2214D02*
X928Y2214D01*
X931Y2214D02*
X967Y2214D01*
X415Y2213D02*
X458Y2213D01*
X489Y2213D02*
X502Y2213D01*
X521Y2213D02*
X534Y2213D01*
X561Y2213D02*
X574Y2213D01*
X587Y2213D02*
X608Y2213D01*
X651Y2213D02*
X660Y2213D01*
X704Y2213D02*
X714Y2213D01*
X741Y2213D02*
X751Y2213D01*
X785Y2213D02*
X794Y2213D01*
X849Y2213D02*
X862Y2213D01*
X881Y2213D02*
X894Y2213D01*
X919Y2213D02*
X944Y2213D01*
X956Y2213D02*
X967Y2213D01*
X415Y2212D02*
X457Y2212D01*
X489Y2212D02*
X501Y2212D01*
X522Y2212D02*
X535Y2212D01*
X561Y2212D02*
X573Y2212D01*
X589Y2212D02*
X608Y2212D01*
X651Y2212D02*
X660Y2212D01*
X704Y2212D02*
X714Y2212D01*
X742Y2212D02*
X750Y2212D01*
X785Y2212D02*
X794Y2212D01*
X849Y2212D02*
X861Y2212D01*
X882Y2212D02*
X894Y2212D01*
X919Y2212D02*
X943Y2212D01*
X957Y2212D02*
X967Y2212D01*
X415Y2211D02*
X456Y2211D01*
X488Y2211D02*
X500Y2211D01*
X524Y2211D02*
X535Y2211D01*
X560Y2211D02*
X572Y2211D01*
X590Y2211D02*
X608Y2211D01*
X651Y2211D02*
X660Y2211D01*
X704Y2211D02*
X713Y2211D01*
X743Y2211D02*
X749Y2211D01*
X785Y2211D02*
X794Y2211D01*
X848Y2211D02*
X860Y2211D01*
X884Y2211D02*
X895Y2211D01*
X919Y2211D02*
X942Y2211D01*
X958Y2211D02*
X968Y2211D01*
X415Y2210D02*
X453Y2210D01*
X488Y2210D02*
X499Y2210D01*
X525Y2210D02*
X535Y2210D01*
X560Y2210D02*
X571Y2210D01*
X591Y2210D02*
X608Y2210D01*
X651Y2210D02*
X660Y2210D01*
X704Y2210D02*
X713Y2210D01*
X745Y2210D02*
X748Y2210D01*
X785Y2210D02*
X794Y2210D01*
X848Y2210D02*
X859Y2210D01*
X885Y2210D02*
X895Y2210D01*
X919Y2210D02*
X941Y2210D01*
X959Y2210D02*
X968Y2210D01*
X415Y2209D02*
X424Y2209D01*
X432Y2209D02*
X443Y2209D01*
X488Y2209D02*
X498Y2209D01*
X526Y2209D02*
X536Y2209D01*
X559Y2209D02*
X570Y2209D01*
X592Y2209D02*
X608Y2209D01*
X651Y2209D02*
X660Y2209D01*
X704Y2209D02*
X714Y2209D01*
X785Y2209D02*
X794Y2209D01*
X848Y2209D02*
X858Y2209D01*
X885Y2209D02*
X895Y2209D01*
X919Y2209D02*
X939Y2209D01*
X959Y2209D02*
X968Y2209D01*
X415Y2208D02*
X424Y2208D01*
X433Y2208D02*
X444Y2208D01*
X487Y2208D02*
X497Y2208D01*
X526Y2208D02*
X536Y2208D01*
X559Y2208D02*
X569Y2208D01*
X594Y2208D02*
X608Y2208D01*
X651Y2208D02*
X660Y2208D01*
X705Y2208D02*
X716Y2208D01*
X785Y2208D02*
X794Y2208D01*
X847Y2208D02*
X857Y2208D01*
X886Y2208D02*
X896Y2208D01*
X919Y2208D02*
X938Y2208D01*
X959Y2208D02*
X968Y2208D01*
X415Y2207D02*
X424Y2207D01*
X433Y2207D02*
X444Y2207D01*
X487Y2207D02*
X496Y2207D01*
X527Y2207D02*
X536Y2207D01*
X559Y2207D02*
X568Y2207D01*
X595Y2207D02*
X608Y2207D01*
X651Y2207D02*
X660Y2207D01*
X705Y2207D02*
X718Y2207D01*
X785Y2207D02*
X794Y2207D01*
X847Y2207D02*
X856Y2207D01*
X887Y2207D02*
X896Y2207D01*
X919Y2207D02*
X937Y2207D01*
X959Y2207D02*
X968Y2207D01*
X415Y2206D02*
X424Y2206D01*
X434Y2206D02*
X445Y2206D01*
X487Y2206D02*
X496Y2206D01*
X527Y2206D02*
X536Y2206D01*
X559Y2206D02*
X568Y2206D01*
X596Y2206D02*
X608Y2206D01*
X651Y2206D02*
X660Y2206D01*
X705Y2206D02*
X720Y2206D01*
X785Y2206D02*
X794Y2206D01*
X847Y2206D02*
X856Y2206D01*
X887Y2206D02*
X896Y2206D01*
X919Y2206D02*
X936Y2206D01*
X959Y2206D02*
X968Y2206D01*
X415Y2205D02*
X424Y2205D01*
X435Y2205D02*
X445Y2205D01*
X487Y2205D02*
X496Y2205D01*
X527Y2205D02*
X536Y2205D01*
X559Y2205D02*
X568Y2205D01*
X597Y2205D02*
X608Y2205D01*
X651Y2205D02*
X660Y2205D01*
X706Y2205D02*
X723Y2205D01*
X785Y2205D02*
X794Y2205D01*
X847Y2205D02*
X856Y2205D01*
X887Y2205D02*
X896Y2205D01*
X919Y2205D02*
X935Y2205D01*
X959Y2205D02*
X968Y2205D01*
X415Y2204D02*
X424Y2204D01*
X435Y2204D02*
X446Y2204D01*
X487Y2204D02*
X496Y2204D01*
X527Y2204D02*
X536Y2204D01*
X559Y2204D02*
X568Y2204D01*
X598Y2204D02*
X608Y2204D01*
X651Y2204D02*
X660Y2204D01*
X706Y2204D02*
X725Y2204D01*
X785Y2204D02*
X794Y2204D01*
X847Y2204D02*
X856Y2204D01*
X887Y2204D02*
X896Y2204D01*
X919Y2204D02*
X934Y2204D01*
X959Y2204D02*
X967Y2204D01*
X415Y2203D02*
X424Y2203D01*
X436Y2203D02*
X447Y2203D01*
X487Y2203D02*
X496Y2203D01*
X527Y2203D02*
X536Y2203D01*
X559Y2203D02*
X568Y2203D01*
X598Y2203D02*
X608Y2203D01*
X651Y2203D02*
X660Y2203D01*
X707Y2203D02*
X727Y2203D01*
X785Y2203D02*
X794Y2203D01*
X847Y2203D02*
X856Y2203D01*
X887Y2203D02*
X896Y2203D01*
X919Y2203D02*
X932Y2203D01*
X960Y2203D02*
X967Y2203D01*
X415Y2202D02*
X424Y2202D01*
X436Y2202D02*
X447Y2202D01*
X487Y2202D02*
X496Y2202D01*
X527Y2202D02*
X536Y2202D01*
X559Y2202D02*
X568Y2202D01*
X599Y2202D02*
X608Y2202D01*
X651Y2202D02*
X660Y2202D01*
X708Y2202D02*
X730Y2202D01*
X785Y2202D02*
X794Y2202D01*
X847Y2202D02*
X856Y2202D01*
X887Y2202D02*
X896Y2202D01*
X919Y2202D02*
X931Y2202D01*
X961Y2202D02*
X966Y2202D01*
X415Y2201D02*
X424Y2201D01*
X437Y2201D02*
X448Y2201D01*
X487Y2201D02*
X496Y2201D01*
X527Y2201D02*
X536Y2201D01*
X559Y2201D02*
X568Y2201D01*
X599Y2201D02*
X608Y2201D01*
X651Y2201D02*
X660Y2201D01*
X709Y2201D02*
X732Y2201D01*
X785Y2201D02*
X794Y2201D01*
X847Y2201D02*
X856Y2201D01*
X887Y2201D02*
X896Y2201D01*
X919Y2201D02*
X930Y2201D01*
X963Y2201D02*
X963Y2201D01*
X415Y2200D02*
X424Y2200D01*
X438Y2200D02*
X448Y2200D01*
X487Y2200D02*
X496Y2200D01*
X527Y2200D02*
X536Y2200D01*
X559Y2200D02*
X568Y2200D01*
X599Y2200D02*
X608Y2200D01*
X651Y2200D02*
X660Y2200D01*
X710Y2200D02*
X734Y2200D01*
X785Y2200D02*
X794Y2200D01*
X847Y2200D02*
X856Y2200D01*
X887Y2200D02*
X896Y2200D01*
X919Y2200D02*
X929Y2200D01*
X415Y2199D02*
X424Y2199D01*
X438Y2199D02*
X449Y2199D01*
X487Y2199D02*
X496Y2199D01*
X527Y2199D02*
X536Y2199D01*
X559Y2199D02*
X568Y2199D01*
X599Y2199D02*
X608Y2199D01*
X651Y2199D02*
X660Y2199D01*
X712Y2199D02*
X736Y2199D01*
X785Y2199D02*
X794Y2199D01*
X847Y2199D02*
X856Y2199D01*
X887Y2199D02*
X896Y2199D01*
X919Y2199D02*
X928Y2199D01*
X415Y2198D02*
X424Y2198D01*
X439Y2198D02*
X450Y2198D01*
X487Y2198D02*
X536Y2198D01*
X559Y2198D02*
X568Y2198D01*
X599Y2198D02*
X608Y2198D01*
X651Y2198D02*
X660Y2198D01*
X714Y2198D02*
X739Y2198D01*
X785Y2198D02*
X794Y2198D01*
X847Y2198D02*
X896Y2198D01*
X919Y2198D02*
X928Y2198D01*
X415Y2197D02*
X424Y2197D01*
X439Y2197D02*
X450Y2197D01*
X487Y2197D02*
X536Y2197D01*
X559Y2197D02*
X568Y2197D01*
X599Y2197D02*
X608Y2197D01*
X651Y2197D02*
X660Y2197D01*
X717Y2197D02*
X741Y2197D01*
X785Y2197D02*
X794Y2197D01*
X847Y2197D02*
X896Y2197D01*
X919Y2197D02*
X928Y2197D01*
X415Y2196D02*
X424Y2196D01*
X440Y2196D02*
X451Y2196D01*
X487Y2196D02*
X536Y2196D01*
X559Y2196D02*
X568Y2196D01*
X599Y2196D02*
X608Y2196D01*
X651Y2196D02*
X660Y2196D01*
X719Y2196D02*
X743Y2196D01*
X785Y2196D02*
X794Y2196D01*
X847Y2196D02*
X896Y2196D01*
X919Y2196D02*
X928Y2196D01*
X415Y2195D02*
X424Y2195D01*
X441Y2195D02*
X451Y2195D01*
X487Y2195D02*
X536Y2195D01*
X559Y2195D02*
X568Y2195D01*
X599Y2195D02*
X608Y2195D01*
X651Y2195D02*
X660Y2195D01*
X721Y2195D02*
X745Y2195D01*
X785Y2195D02*
X794Y2195D01*
X847Y2195D02*
X896Y2195D01*
X919Y2195D02*
X928Y2195D01*
X415Y2194D02*
X424Y2194D01*
X441Y2194D02*
X452Y2194D01*
X487Y2194D02*
X536Y2194D01*
X559Y2194D02*
X568Y2194D01*
X599Y2194D02*
X608Y2194D01*
X651Y2194D02*
X660Y2194D01*
X724Y2194D02*
X746Y2194D01*
X785Y2194D02*
X794Y2194D01*
X847Y2194D02*
X896Y2194D01*
X919Y2194D02*
X928Y2194D01*
X415Y2193D02*
X424Y2193D01*
X442Y2193D02*
X452Y2193D01*
X487Y2193D02*
X536Y2193D01*
X559Y2193D02*
X568Y2193D01*
X599Y2193D02*
X608Y2193D01*
X651Y2193D02*
X660Y2193D01*
X726Y2193D02*
X747Y2193D01*
X785Y2193D02*
X794Y2193D01*
X847Y2193D02*
X896Y2193D01*
X919Y2193D02*
X928Y2193D01*
X415Y2192D02*
X424Y2192D01*
X442Y2192D02*
X453Y2192D01*
X487Y2192D02*
X536Y2192D01*
X559Y2192D02*
X568Y2192D01*
X599Y2192D02*
X608Y2192D01*
X651Y2192D02*
X660Y2192D01*
X728Y2192D02*
X748Y2192D01*
X785Y2192D02*
X794Y2192D01*
X847Y2192D02*
X896Y2192D01*
X919Y2192D02*
X928Y2192D01*
X415Y2191D02*
X424Y2191D01*
X443Y2191D02*
X454Y2191D01*
X487Y2191D02*
X535Y2191D01*
X559Y2191D02*
X568Y2191D01*
X598Y2191D02*
X608Y2191D01*
X651Y2191D02*
X660Y2191D01*
X731Y2191D02*
X749Y2191D01*
X785Y2191D02*
X794Y2191D01*
X847Y2191D02*
X895Y2191D01*
X919Y2191D02*
X928Y2191D01*
X415Y2190D02*
X424Y2190D01*
X443Y2190D02*
X454Y2190D01*
X487Y2190D02*
X535Y2190D01*
X559Y2190D02*
X568Y2190D01*
X597Y2190D02*
X608Y2190D01*
X651Y2190D02*
X660Y2190D01*
X733Y2190D02*
X750Y2190D01*
X785Y2190D02*
X794Y2190D01*
X847Y2190D02*
X895Y2190D01*
X919Y2190D02*
X928Y2190D01*
X415Y2189D02*
X424Y2189D01*
X444Y2189D02*
X455Y2189D01*
X487Y2189D02*
X534Y2189D01*
X559Y2189D02*
X568Y2189D01*
X596Y2189D02*
X608Y2189D01*
X651Y2189D02*
X660Y2189D01*
X735Y2189D02*
X750Y2189D01*
X785Y2189D02*
X794Y2189D01*
X847Y2189D02*
X893Y2189D01*
X919Y2189D02*
X928Y2189D01*
X415Y2188D02*
X424Y2188D01*
X445Y2188D02*
X455Y2188D01*
X487Y2188D02*
X497Y2188D01*
X559Y2188D02*
X568Y2188D01*
X595Y2188D02*
X608Y2188D01*
X651Y2188D02*
X660Y2188D01*
X738Y2188D02*
X751Y2188D01*
X785Y2188D02*
X794Y2188D01*
X847Y2188D02*
X857Y2188D01*
X919Y2188D02*
X928Y2188D01*
X415Y2187D02*
X424Y2187D01*
X445Y2187D02*
X456Y2187D01*
X487Y2187D02*
X496Y2187D01*
X559Y2187D02*
X569Y2187D01*
X594Y2187D02*
X608Y2187D01*
X651Y2187D02*
X660Y2187D01*
X740Y2187D02*
X751Y2187D01*
X785Y2187D02*
X794Y2187D01*
X847Y2187D02*
X856Y2187D01*
X919Y2187D02*
X928Y2187D01*
X415Y2186D02*
X424Y2186D01*
X446Y2186D02*
X457Y2186D01*
X487Y2186D02*
X496Y2186D01*
X559Y2186D02*
X569Y2186D01*
X593Y2186D02*
X608Y2186D01*
X651Y2186D02*
X660Y2186D01*
X741Y2186D02*
X751Y2186D01*
X785Y2186D02*
X794Y2186D01*
X847Y2186D02*
X856Y2186D01*
X919Y2186D02*
X928Y2186D01*
X415Y2185D02*
X424Y2185D01*
X446Y2185D02*
X457Y2185D01*
X487Y2185D02*
X496Y2185D01*
X560Y2185D02*
X570Y2185D01*
X591Y2185D02*
X608Y2185D01*
X651Y2185D02*
X660Y2185D01*
X742Y2185D02*
X752Y2185D01*
X785Y2185D02*
X794Y2185D01*
X818Y2185D02*
X821Y2185D01*
X847Y2185D02*
X856Y2185D01*
X919Y2185D02*
X928Y2185D01*
X415Y2184D02*
X424Y2184D01*
X447Y2184D02*
X458Y2184D01*
X487Y2184D02*
X496Y2184D01*
X560Y2184D02*
X571Y2184D01*
X590Y2184D02*
X608Y2184D01*
X651Y2184D02*
X660Y2184D01*
X742Y2184D02*
X752Y2184D01*
X785Y2184D02*
X794Y2184D01*
X816Y2184D02*
X822Y2184D01*
X847Y2184D02*
X856Y2184D01*
X919Y2184D02*
X928Y2184D01*
X415Y2183D02*
X424Y2183D01*
X448Y2183D02*
X458Y2183D01*
X487Y2183D02*
X497Y2183D01*
X560Y2183D02*
X572Y2183D01*
X589Y2183D02*
X608Y2183D01*
X651Y2183D02*
X660Y2183D01*
X742Y2183D02*
X752Y2183D01*
X785Y2183D02*
X794Y2183D01*
X816Y2183D02*
X823Y2183D01*
X847Y2183D02*
X857Y2183D01*
X919Y2183D02*
X928Y2183D01*
X415Y2182D02*
X424Y2182D01*
X448Y2182D02*
X459Y2182D01*
X487Y2182D02*
X497Y2182D01*
X561Y2182D02*
X574Y2182D01*
X588Y2182D02*
X608Y2182D01*
X651Y2182D02*
X660Y2182D01*
X742Y2182D02*
X752Y2182D01*
X785Y2182D02*
X794Y2182D01*
X815Y2182D02*
X824Y2182D01*
X847Y2182D02*
X857Y2182D01*
X919Y2182D02*
X928Y2182D01*
X415Y2181D02*
X424Y2181D01*
X449Y2181D02*
X459Y2181D01*
X488Y2181D02*
X498Y2181D01*
X562Y2181D02*
X608Y2181D01*
X651Y2181D02*
X660Y2181D01*
X707Y2181D02*
X708Y2181D01*
X742Y2181D02*
X752Y2181D01*
X785Y2181D02*
X794Y2181D01*
X815Y2181D02*
X824Y2181D01*
X848Y2181D02*
X858Y2181D01*
X919Y2181D02*
X928Y2181D01*
X415Y2180D02*
X424Y2180D01*
X449Y2180D02*
X460Y2180D01*
X488Y2180D02*
X499Y2180D01*
X562Y2180D02*
X608Y2180D01*
X651Y2180D02*
X660Y2180D01*
X705Y2180D02*
X710Y2180D01*
X742Y2180D02*
X752Y2180D01*
X785Y2180D02*
X795Y2180D01*
X814Y2180D02*
X824Y2180D01*
X848Y2180D02*
X859Y2180D01*
X919Y2180D02*
X928Y2180D01*
X415Y2179D02*
X424Y2179D01*
X450Y2179D02*
X461Y2179D01*
X488Y2179D02*
X501Y2179D01*
X563Y2179D02*
X608Y2179D01*
X651Y2179D02*
X660Y2179D01*
X704Y2179D02*
X712Y2179D01*
X741Y2179D02*
X751Y2179D01*
X785Y2179D02*
X795Y2179D01*
X814Y2179D02*
X824Y2179D01*
X848Y2179D02*
X860Y2179D01*
X919Y2179D02*
X928Y2179D01*
X415Y2178D02*
X424Y2178D01*
X450Y2178D02*
X461Y2178D01*
X489Y2178D02*
X502Y2178D01*
X564Y2178D02*
X608Y2178D01*
X651Y2178D02*
X660Y2178D01*
X703Y2178D02*
X714Y2178D01*
X740Y2178D02*
X751Y2178D01*
X786Y2178D02*
X796Y2178D01*
X813Y2178D02*
X823Y2178D01*
X849Y2178D02*
X862Y2178D01*
X919Y2178D02*
X928Y2178D01*
X415Y2177D02*
X424Y2177D01*
X451Y2177D02*
X462Y2177D01*
X489Y2177D02*
X531Y2177D01*
X565Y2177D02*
X597Y2177D01*
X599Y2177D02*
X608Y2177D01*
X641Y2177D02*
X670Y2177D01*
X703Y2177D02*
X751Y2177D01*
X786Y2177D02*
X823Y2177D01*
X849Y2177D02*
X890Y2177D01*
X919Y2177D02*
X928Y2177D01*
X415Y2176D02*
X424Y2176D01*
X452Y2176D02*
X462Y2176D01*
X490Y2176D02*
X534Y2176D01*
X567Y2176D02*
X596Y2176D01*
X599Y2176D02*
X608Y2176D01*
X638Y2176D02*
X673Y2176D01*
X703Y2176D02*
X750Y2176D01*
X786Y2176D02*
X823Y2176D01*
X850Y2176D02*
X894Y2176D01*
X919Y2176D02*
X928Y2176D01*
X415Y2175D02*
X424Y2175D01*
X452Y2175D02*
X463Y2175D01*
X491Y2175D02*
X535Y2175D01*
X568Y2175D02*
X594Y2175D01*
X599Y2175D02*
X608Y2175D01*
X637Y2175D02*
X674Y2175D01*
X703Y2175D02*
X750Y2175D01*
X787Y2175D02*
X822Y2175D01*
X851Y2175D02*
X895Y2175D01*
X919Y2175D02*
X928Y2175D01*
X415Y2174D02*
X424Y2174D01*
X453Y2174D02*
X463Y2174D01*
X492Y2174D02*
X535Y2174D01*
X569Y2174D02*
X593Y2174D01*
X599Y2174D02*
X608Y2174D01*
X637Y2174D02*
X674Y2174D01*
X704Y2174D02*
X749Y2174D01*
X787Y2174D02*
X822Y2174D01*
X852Y2174D02*
X895Y2174D01*
X919Y2174D02*
X928Y2174D01*
X415Y2173D02*
X424Y2173D01*
X453Y2173D02*
X464Y2173D01*
X493Y2173D02*
X536Y2173D01*
X571Y2173D02*
X591Y2173D01*
X599Y2173D02*
X608Y2173D01*
X636Y2173D02*
X675Y2173D01*
X704Y2173D02*
X749Y2173D01*
X788Y2173D02*
X821Y2173D01*
X853Y2173D02*
X896Y2173D01*
X919Y2173D02*
X928Y2173D01*
X415Y2172D02*
X424Y2172D01*
X454Y2172D02*
X464Y2172D01*
X494Y2172D02*
X536Y2172D01*
X573Y2172D02*
X589Y2172D01*
X599Y2172D02*
X608Y2172D01*
X636Y2172D02*
X675Y2172D01*
X705Y2172D02*
X748Y2172D01*
X789Y2172D02*
X820Y2172D01*
X854Y2172D02*
X896Y2172D01*
X919Y2172D02*
X928Y2172D01*
X415Y2171D02*
X424Y2171D01*
X455Y2171D02*
X464Y2171D01*
X495Y2171D02*
X536Y2171D01*
X599Y2171D02*
X608Y2171D01*
X636Y2171D02*
X675Y2171D01*
X707Y2171D02*
X747Y2171D01*
X790Y2171D02*
X819Y2171D01*
X855Y2171D02*
X896Y2171D01*
X919Y2171D02*
X928Y2171D01*
X416Y2170D02*
X424Y2170D01*
X455Y2170D02*
X463Y2170D01*
X497Y2170D02*
X535Y2170D01*
X599Y2170D02*
X608Y2170D01*
X636Y2170D02*
X674Y2170D01*
X708Y2170D02*
X746Y2170D01*
X791Y2170D02*
X818Y2170D01*
X857Y2170D02*
X895Y2170D01*
X920Y2170D02*
X928Y2170D01*
X416Y2169D02*
X423Y2169D01*
X456Y2169D02*
X463Y2169D01*
X498Y2169D02*
X535Y2169D01*
X599Y2169D02*
X608Y2169D01*
X637Y2169D02*
X674Y2169D01*
X710Y2169D02*
X744Y2169D01*
X792Y2169D02*
X816Y2169D01*
X858Y2169D02*
X895Y2169D01*
X920Y2169D02*
X927Y2169D01*
X417Y2168D02*
X422Y2168D01*
X457Y2168D02*
X462Y2168D01*
X500Y2168D02*
X534Y2168D01*
X599Y2168D02*
X608Y2168D01*
X638Y2168D02*
X673Y2168D01*
X712Y2168D02*
X742Y2168D01*
X794Y2168D02*
X814Y2168D01*
X860Y2168D02*
X894Y2168D01*
X921Y2168D02*
X926Y2168D01*
X420Y2167D02*
X420Y2167D01*
X459Y2167D02*
X459Y2167D01*
X504Y2167D02*
X531Y2167D01*
X599Y2167D02*
X608Y2167D01*
X641Y2167D02*
X670Y2167D01*
X717Y2167D02*
X737Y2167D01*
X799Y2167D02*
X810Y2167D01*
X864Y2167D02*
X891Y2167D01*
X924Y2167D02*
X924Y2167D01*
X599Y2166D02*
X608Y2166D01*
X599Y2165D02*
X608Y2165D01*
X599Y2164D02*
X608Y2164D01*
X599Y2163D02*
X608Y2163D01*
X598Y2162D02*
X608Y2162D01*
X598Y2161D02*
X608Y2161D01*
X597Y2160D02*
X608Y2160D01*
X596Y2159D02*
X607Y2159D01*
X595Y2158D02*
X607Y2158D01*
X593Y2157D02*
X606Y2157D01*
X591Y2156D02*
X606Y2156D01*
X567Y2155D02*
X605Y2155D01*
X565Y2154D02*
X604Y2154D01*
X565Y2153D02*
X603Y2153D01*
X564Y2152D02*
X602Y2152D01*
X564Y2151D02*
X601Y2151D01*
X564Y2150D02*
X600Y2150D01*
X564Y2149D02*
X599Y2149D01*
X565Y2148D02*
X597Y2148D01*
X566Y2147D02*
X595Y2147D01*
X568Y2146D02*
X592Y2146D01*
X2806Y2064D02*
X2809Y2064D01*
X2834Y2064D02*
X2861Y2064D01*
X2804Y2063D02*
X2812Y2063D01*
X2833Y2063D02*
X2863Y2063D01*
X2803Y2062D02*
X2813Y2062D01*
X2833Y2062D02*
X2864Y2062D01*
X3063Y2062D02*
X3068Y2062D01*
X3091Y2062D02*
X3119Y2062D01*
X3313Y2062D02*
X3318Y2062D01*
X3341Y2062D02*
X3360Y2062D01*
X3563Y2062D02*
X3568Y2062D01*
X3594Y2062D02*
X3619Y2062D01*
X2801Y2061D02*
X2814Y2061D01*
X2832Y2061D02*
X2865Y2061D01*
X3061Y2061D02*
X3070Y2061D01*
X3091Y2061D02*
X3121Y2061D01*
X3311Y2061D02*
X3320Y2061D01*
X3340Y2061D02*
X3360Y2061D01*
X3561Y2061D02*
X3570Y2061D01*
X3592Y2061D02*
X3621Y2061D01*
X1814Y2060D02*
X1818Y2060D01*
X1842Y2060D02*
X1874Y2060D01*
X2068Y2060D02*
X2071Y2060D01*
X2096Y2060D02*
X2102Y2060D01*
X2318Y2060D02*
X2321Y2060D01*
X2351Y2060D02*
X2376Y2060D01*
X2560Y2060D02*
X2563Y2060D01*
X2590Y2060D02*
X2592Y2060D01*
X2800Y2060D02*
X2815Y2060D01*
X2832Y2060D02*
X2865Y2060D01*
X3060Y2060D02*
X3071Y2060D01*
X3090Y2060D02*
X3122Y2060D01*
X3310Y2060D02*
X3321Y2060D01*
X3340Y2060D02*
X3360Y2060D01*
X3560Y2060D02*
X3571Y2060D01*
X3591Y2060D02*
X3622Y2060D01*
X1812Y2059D02*
X1820Y2059D01*
X1841Y2059D02*
X1874Y2059D01*
X2066Y2059D02*
X2074Y2059D01*
X2095Y2059D02*
X2103Y2059D01*
X2316Y2059D02*
X2324Y2059D01*
X2351Y2059D02*
X2377Y2059D01*
X2558Y2059D02*
X2566Y2059D01*
X2589Y2059D02*
X2593Y2059D01*
X2799Y2059D02*
X2815Y2059D01*
X2833Y2059D02*
X2866Y2059D01*
X3059Y2059D02*
X3072Y2059D01*
X3090Y2059D02*
X3123Y2059D01*
X3309Y2059D02*
X3322Y2059D01*
X3340Y2059D02*
X3360Y2059D01*
X3558Y2059D02*
X3572Y2059D01*
X3591Y2059D02*
X3622Y2059D01*
X1811Y2058D02*
X1821Y2058D01*
X1841Y2058D02*
X1874Y2058D01*
X2064Y2058D02*
X2075Y2058D01*
X2095Y2058D02*
X2103Y2058D01*
X2314Y2058D02*
X2325Y2058D01*
X2351Y2058D02*
X2378Y2058D01*
X2556Y2058D02*
X2567Y2058D01*
X2588Y2058D02*
X2594Y2058D01*
X2798Y2058D02*
X2816Y2058D01*
X2834Y2058D02*
X2866Y2058D01*
X3057Y2058D02*
X3072Y2058D01*
X3090Y2058D02*
X3123Y2058D01*
X3307Y2058D02*
X3322Y2058D01*
X3340Y2058D02*
X3360Y2058D01*
X3557Y2058D02*
X3572Y2058D01*
X3590Y2058D02*
X3623Y2058D01*
X1809Y2057D02*
X1822Y2057D01*
X1840Y2057D02*
X1874Y2057D01*
X2063Y2057D02*
X2076Y2057D01*
X2094Y2057D02*
X2104Y2057D01*
X2313Y2057D02*
X2326Y2057D01*
X2351Y2057D02*
X2378Y2057D01*
X2555Y2057D02*
X2568Y2057D01*
X2588Y2057D02*
X2594Y2057D01*
X2797Y2057D02*
X2807Y2057D01*
X2809Y2057D02*
X2816Y2057D01*
X2860Y2057D02*
X2866Y2057D01*
X3056Y2057D02*
X3073Y2057D01*
X3091Y2057D02*
X3123Y2057D01*
X3306Y2057D02*
X3323Y2057D01*
X3341Y2057D02*
X3360Y2057D01*
X3556Y2057D02*
X3573Y2057D01*
X3590Y2057D02*
X3623Y2057D01*
X1808Y2056D02*
X1823Y2056D01*
X1840Y2056D02*
X1874Y2056D01*
X2062Y2056D02*
X2077Y2056D01*
X2094Y2056D02*
X2104Y2056D01*
X2312Y2056D02*
X2327Y2056D01*
X2351Y2056D02*
X2378Y2056D01*
X2554Y2056D02*
X2569Y2056D01*
X2588Y2056D02*
X2594Y2056D01*
X2795Y2056D02*
X2805Y2056D01*
X2810Y2056D02*
X2816Y2056D01*
X2860Y2056D02*
X2866Y2056D01*
X3055Y2056D02*
X3073Y2056D01*
X3092Y2056D02*
X3123Y2056D01*
X3305Y2056D02*
X3323Y2056D01*
X3342Y2056D02*
X3360Y2056D01*
X3555Y2056D02*
X3573Y2056D01*
X3590Y2056D02*
X3623Y2056D01*
X1807Y2055D02*
X1823Y2055D01*
X1840Y2055D02*
X1874Y2055D01*
X2061Y2055D02*
X2077Y2055D01*
X2094Y2055D02*
X2103Y2055D01*
X2311Y2055D02*
X2327Y2055D01*
X2351Y2055D02*
X2377Y2055D01*
X2553Y2055D02*
X2569Y2055D01*
X2588Y2055D02*
X2594Y2055D01*
X2794Y2055D02*
X2804Y2055D01*
X2810Y2055D02*
X2816Y2055D01*
X2860Y2055D02*
X2866Y2055D01*
X3054Y2055D02*
X3064Y2055D01*
X3067Y2055D02*
X3073Y2055D01*
X3117Y2055D02*
X3123Y2055D01*
X3304Y2055D02*
X3314Y2055D01*
X3317Y2055D02*
X3323Y2055D01*
X3354Y2055D02*
X3360Y2055D01*
X3554Y2055D02*
X3564Y2055D01*
X3567Y2055D02*
X3573Y2055D01*
X3590Y2055D02*
X3596Y2055D01*
X3617Y2055D02*
X3623Y2055D01*
X1806Y2054D02*
X1824Y2054D01*
X1840Y2054D02*
X1874Y2054D01*
X2060Y2054D02*
X2078Y2054D01*
X2094Y2054D02*
X2102Y2054D01*
X2310Y2054D02*
X2327Y2054D01*
X2351Y2054D02*
X2376Y2054D01*
X2552Y2054D02*
X2570Y2054D01*
X2588Y2054D02*
X2594Y2054D01*
X2611Y2054D02*
X2613Y2054D01*
X2793Y2054D02*
X2803Y2054D01*
X2810Y2054D02*
X2816Y2054D01*
X2860Y2054D02*
X2866Y2054D01*
X3053Y2054D02*
X3063Y2054D01*
X3067Y2054D02*
X3073Y2054D01*
X3117Y2054D02*
X3123Y2054D01*
X3303Y2054D02*
X3313Y2054D01*
X3317Y2054D02*
X3323Y2054D01*
X3354Y2054D02*
X3360Y2054D01*
X3553Y2054D02*
X3562Y2054D01*
X3567Y2054D02*
X3573Y2054D01*
X3590Y2054D02*
X3596Y2054D01*
X3617Y2054D02*
X3623Y2054D01*
X1805Y2053D02*
X1815Y2053D01*
X1817Y2053D02*
X1824Y2053D01*
X1840Y2053D02*
X1846Y2053D01*
X1868Y2053D02*
X1874Y2053D01*
X2059Y2053D02*
X2069Y2053D01*
X2071Y2053D02*
X2078Y2053D01*
X2094Y2053D02*
X2100Y2053D01*
X2309Y2053D02*
X2318Y2053D01*
X2321Y2053D02*
X2328Y2053D01*
X2351Y2053D02*
X2357Y2053D01*
X2551Y2053D02*
X2561Y2053D01*
X2563Y2053D02*
X2570Y2053D01*
X2588Y2053D02*
X2594Y2053D01*
X2609Y2053D02*
X2614Y2053D01*
X2792Y2053D02*
X2802Y2053D01*
X2810Y2053D02*
X2816Y2053D01*
X2860Y2053D02*
X2866Y2053D01*
X3051Y2053D02*
X3061Y2053D01*
X3067Y2053D02*
X3073Y2053D01*
X3117Y2053D02*
X3123Y2053D01*
X3301Y2053D02*
X3311Y2053D01*
X3317Y2053D02*
X3323Y2053D01*
X3354Y2053D02*
X3360Y2053D01*
X3551Y2053D02*
X3561Y2053D01*
X3567Y2053D02*
X3573Y2053D01*
X3590Y2053D02*
X3596Y2053D01*
X3617Y2053D02*
X3623Y2053D01*
X1803Y2052D02*
X1813Y2052D01*
X1818Y2052D02*
X1824Y2052D01*
X1841Y2052D02*
X1846Y2052D01*
X1868Y2052D02*
X1874Y2052D01*
X2057Y2052D02*
X2067Y2052D01*
X2072Y2052D02*
X2078Y2052D01*
X2094Y2052D02*
X2100Y2052D01*
X2307Y2052D02*
X2317Y2052D01*
X2322Y2052D02*
X2328Y2052D01*
X2351Y2052D02*
X2357Y2052D01*
X2549Y2052D02*
X2559Y2052D01*
X2564Y2052D02*
X2570Y2052D01*
X2588Y2052D02*
X2594Y2052D01*
X2609Y2052D02*
X2614Y2052D01*
X2791Y2052D02*
X2801Y2052D01*
X2810Y2052D02*
X2816Y2052D01*
X2860Y2052D02*
X2866Y2052D01*
X3050Y2052D02*
X3060Y2052D01*
X3067Y2052D02*
X3073Y2052D01*
X3117Y2052D02*
X3123Y2052D01*
X3300Y2052D02*
X3310Y2052D01*
X3317Y2052D02*
X3323Y2052D01*
X3354Y2052D02*
X3360Y2052D01*
X3550Y2052D02*
X3560Y2052D01*
X3567Y2052D02*
X3573Y2052D01*
X3590Y2052D02*
X3596Y2052D01*
X3617Y2052D02*
X3623Y2052D01*
X1802Y2051D02*
X1812Y2051D01*
X1818Y2051D02*
X1824Y2051D01*
X1842Y2051D02*
X1845Y2051D01*
X1868Y2051D02*
X1874Y2051D01*
X2056Y2051D02*
X2066Y2051D01*
X2072Y2051D02*
X2078Y2051D01*
X2094Y2051D02*
X2100Y2051D01*
X2306Y2051D02*
X2316Y2051D01*
X2322Y2051D02*
X2328Y2051D01*
X2351Y2051D02*
X2357Y2051D01*
X2548Y2051D02*
X2558Y2051D01*
X2564Y2051D02*
X2570Y2051D01*
X2588Y2051D02*
X2594Y2051D01*
X2609Y2051D02*
X2615Y2051D01*
X2789Y2051D02*
X2799Y2051D01*
X2810Y2051D02*
X2816Y2051D01*
X2860Y2051D02*
X2866Y2051D01*
X3049Y2051D02*
X3059Y2051D01*
X3067Y2051D02*
X3073Y2051D01*
X3117Y2051D02*
X3123Y2051D01*
X3299Y2051D02*
X3309Y2051D01*
X3317Y2051D02*
X3323Y2051D01*
X3354Y2051D02*
X3360Y2051D01*
X3549Y2051D02*
X3559Y2051D01*
X3567Y2051D02*
X3573Y2051D01*
X3590Y2051D02*
X3596Y2051D01*
X3617Y2051D02*
X3623Y2051D01*
X1801Y2050D02*
X1811Y2050D01*
X1818Y2050D02*
X1824Y2050D01*
X1868Y2050D02*
X1874Y2050D01*
X2055Y2050D02*
X2065Y2050D01*
X2072Y2050D02*
X2078Y2050D01*
X2094Y2050D02*
X2100Y2050D01*
X2305Y2050D02*
X2315Y2050D01*
X2322Y2050D02*
X2328Y2050D01*
X2351Y2050D02*
X2357Y2050D01*
X2547Y2050D02*
X2557Y2050D01*
X2564Y2050D02*
X2570Y2050D01*
X2588Y2050D02*
X2594Y2050D01*
X2609Y2050D02*
X2615Y2050D01*
X2788Y2050D02*
X2798Y2050D01*
X2810Y2050D02*
X2816Y2050D01*
X2860Y2050D02*
X2866Y2050D01*
X3048Y2050D02*
X3058Y2050D01*
X3067Y2050D02*
X3073Y2050D01*
X3117Y2050D02*
X3123Y2050D01*
X3298Y2050D02*
X3308Y2050D01*
X3317Y2050D02*
X3323Y2050D01*
X3354Y2050D02*
X3360Y2050D01*
X3548Y2050D02*
X3558Y2050D01*
X3567Y2050D02*
X3573Y2050D01*
X3590Y2050D02*
X3596Y2050D01*
X3617Y2050D02*
X3623Y2050D01*
X1800Y2049D02*
X1810Y2049D01*
X1818Y2049D02*
X1824Y2049D01*
X1868Y2049D02*
X1874Y2049D01*
X2054Y2049D02*
X2064Y2049D01*
X2072Y2049D02*
X2078Y2049D01*
X2094Y2049D02*
X2100Y2049D01*
X2304Y2049D02*
X2314Y2049D01*
X2322Y2049D02*
X2328Y2049D01*
X2351Y2049D02*
X2357Y2049D01*
X2546Y2049D02*
X2556Y2049D01*
X2564Y2049D02*
X2570Y2049D01*
X2588Y2049D02*
X2594Y2049D01*
X2609Y2049D02*
X2615Y2049D01*
X2787Y2049D02*
X2797Y2049D01*
X2810Y2049D02*
X2816Y2049D01*
X2860Y2049D02*
X2866Y2049D01*
X3047Y2049D02*
X3057Y2049D01*
X3067Y2049D02*
X3073Y2049D01*
X3117Y2049D02*
X3123Y2049D01*
X3297Y2049D02*
X3307Y2049D01*
X3317Y2049D02*
X3323Y2049D01*
X3354Y2049D02*
X3360Y2049D01*
X3547Y2049D02*
X3557Y2049D01*
X3567Y2049D02*
X3573Y2049D01*
X3590Y2049D02*
X3596Y2049D01*
X3617Y2049D02*
X3623Y2049D01*
X1799Y2048D02*
X1809Y2048D01*
X1818Y2048D02*
X1824Y2048D01*
X1868Y2048D02*
X1874Y2048D01*
X2053Y2048D02*
X2063Y2048D01*
X2072Y2048D02*
X2078Y2048D01*
X2094Y2048D02*
X2100Y2048D01*
X2303Y2048D02*
X2312Y2048D01*
X2322Y2048D02*
X2328Y2048D01*
X2351Y2048D02*
X2357Y2048D01*
X2545Y2048D02*
X2555Y2048D01*
X2564Y2048D02*
X2570Y2048D01*
X2588Y2048D02*
X2594Y2048D01*
X2609Y2048D02*
X2615Y2048D01*
X2786Y2048D02*
X2796Y2048D01*
X2810Y2048D02*
X2816Y2048D01*
X2860Y2048D02*
X2866Y2048D01*
X3046Y2048D02*
X3055Y2048D01*
X3067Y2048D02*
X3073Y2048D01*
X3117Y2048D02*
X3123Y2048D01*
X3295Y2048D02*
X3305Y2048D01*
X3317Y2048D02*
X3323Y2048D01*
X3354Y2048D02*
X3360Y2048D01*
X3545Y2048D02*
X3555Y2048D01*
X3567Y2048D02*
X3573Y2048D01*
X3590Y2048D02*
X3596Y2048D01*
X3617Y2048D02*
X3623Y2048D01*
X1798Y2047D02*
X1807Y2047D01*
X1818Y2047D02*
X1824Y2047D01*
X1868Y2047D02*
X1874Y2047D01*
X2051Y2047D02*
X2061Y2047D01*
X2072Y2047D02*
X2078Y2047D01*
X2094Y2047D02*
X2100Y2047D01*
X2301Y2047D02*
X2311Y2047D01*
X2322Y2047D02*
X2328Y2047D01*
X2351Y2047D02*
X2357Y2047D01*
X2543Y2047D02*
X2553Y2047D01*
X2564Y2047D02*
X2570Y2047D01*
X2588Y2047D02*
X2594Y2047D01*
X2609Y2047D02*
X2615Y2047D01*
X2785Y2047D02*
X2795Y2047D01*
X2810Y2047D02*
X2816Y2047D01*
X2860Y2047D02*
X2866Y2047D01*
X3044Y2047D02*
X3054Y2047D01*
X3067Y2047D02*
X3073Y2047D01*
X3117Y2047D02*
X3123Y2047D01*
X3294Y2047D02*
X3304Y2047D01*
X3317Y2047D02*
X3323Y2047D01*
X3354Y2047D02*
X3360Y2047D01*
X3544Y2047D02*
X3554Y2047D01*
X3567Y2047D02*
X3573Y2047D01*
X3590Y2047D02*
X3596Y2047D01*
X3617Y2047D02*
X3623Y2047D01*
X1796Y2046D02*
X1806Y2046D01*
X1818Y2046D02*
X1824Y2046D01*
X1868Y2046D02*
X1874Y2046D01*
X2050Y2046D02*
X2060Y2046D01*
X2072Y2046D02*
X2078Y2046D01*
X2094Y2046D02*
X2100Y2046D01*
X2300Y2046D02*
X2310Y2046D01*
X2322Y2046D02*
X2328Y2046D01*
X2351Y2046D02*
X2357Y2046D01*
X2542Y2046D02*
X2552Y2046D01*
X2564Y2046D02*
X2570Y2046D01*
X2588Y2046D02*
X2594Y2046D01*
X2609Y2046D02*
X2615Y2046D01*
X2785Y2046D02*
X2793Y2046D01*
X2810Y2046D02*
X2816Y2046D01*
X2860Y2046D02*
X2866Y2046D01*
X3043Y2046D02*
X3053Y2046D01*
X3067Y2046D02*
X3073Y2046D01*
X3117Y2046D02*
X3123Y2046D01*
X3293Y2046D02*
X3303Y2046D01*
X3317Y2046D02*
X3323Y2046D01*
X3354Y2046D02*
X3360Y2046D01*
X3543Y2046D02*
X3553Y2046D01*
X3567Y2046D02*
X3573Y2046D01*
X3590Y2046D02*
X3596Y2046D01*
X3617Y2046D02*
X3623Y2046D01*
X1795Y2045D02*
X1805Y2045D01*
X1818Y2045D02*
X1824Y2045D01*
X1868Y2045D02*
X1874Y2045D01*
X2049Y2045D02*
X2059Y2045D01*
X2072Y2045D02*
X2078Y2045D01*
X2094Y2045D02*
X2100Y2045D01*
X2299Y2045D02*
X2309Y2045D01*
X2322Y2045D02*
X2328Y2045D01*
X2351Y2045D02*
X2357Y2045D01*
X2541Y2045D02*
X2551Y2045D01*
X2564Y2045D02*
X2570Y2045D01*
X2588Y2045D02*
X2594Y2045D01*
X2609Y2045D02*
X2615Y2045D01*
X2784Y2045D02*
X2792Y2045D01*
X2810Y2045D02*
X2816Y2045D01*
X2860Y2045D02*
X2866Y2045D01*
X3043Y2045D02*
X3052Y2045D01*
X3067Y2045D02*
X3073Y2045D01*
X3117Y2045D02*
X3123Y2045D01*
X3293Y2045D02*
X3302Y2045D01*
X3317Y2045D02*
X3323Y2045D01*
X3354Y2045D02*
X3360Y2045D01*
X3543Y2045D02*
X3552Y2045D01*
X3567Y2045D02*
X3573Y2045D01*
X3590Y2045D02*
X3596Y2045D01*
X3617Y2045D02*
X3623Y2045D01*
X1794Y2044D02*
X1804Y2044D01*
X1818Y2044D02*
X1824Y2044D01*
X1868Y2044D02*
X1874Y2044D01*
X2048Y2044D02*
X2058Y2044D01*
X2072Y2044D02*
X2078Y2044D01*
X2094Y2044D02*
X2100Y2044D01*
X2298Y2044D02*
X2308Y2044D01*
X2322Y2044D02*
X2328Y2044D01*
X2351Y2044D02*
X2357Y2044D01*
X2540Y2044D02*
X2550Y2044D01*
X2564Y2044D02*
X2570Y2044D01*
X2588Y2044D02*
X2594Y2044D01*
X2609Y2044D02*
X2615Y2044D01*
X2783Y2044D02*
X2791Y2044D01*
X2810Y2044D02*
X2816Y2044D01*
X2860Y2044D02*
X2866Y2044D01*
X3042Y2044D02*
X3051Y2044D01*
X3067Y2044D02*
X3073Y2044D01*
X3117Y2044D02*
X3123Y2044D01*
X3292Y2044D02*
X3301Y2044D01*
X3317Y2044D02*
X3323Y2044D01*
X3354Y2044D02*
X3360Y2044D01*
X3542Y2044D02*
X3551Y2044D01*
X3567Y2044D02*
X3573Y2044D01*
X3590Y2044D02*
X3596Y2044D01*
X3617Y2044D02*
X3623Y2044D01*
X1793Y2043D02*
X1803Y2043D01*
X1818Y2043D02*
X1824Y2043D01*
X1868Y2043D02*
X1874Y2043D01*
X2047Y2043D02*
X2057Y2043D01*
X2072Y2043D02*
X2078Y2043D01*
X2094Y2043D02*
X2100Y2043D01*
X2297Y2043D02*
X2307Y2043D01*
X2322Y2043D02*
X2328Y2043D01*
X2351Y2043D02*
X2357Y2043D01*
X2539Y2043D02*
X2549Y2043D01*
X2564Y2043D02*
X2570Y2043D01*
X2588Y2043D02*
X2594Y2043D01*
X2609Y2043D02*
X2615Y2043D01*
X2783Y2043D02*
X2790Y2043D01*
X2810Y2043D02*
X2816Y2043D01*
X2860Y2043D02*
X2866Y2043D01*
X3041Y2043D02*
X3049Y2043D01*
X3067Y2043D02*
X3073Y2043D01*
X3117Y2043D02*
X3123Y2043D01*
X3291Y2043D02*
X3299Y2043D01*
X3317Y2043D02*
X3323Y2043D01*
X3354Y2043D02*
X3360Y2043D01*
X3541Y2043D02*
X3549Y2043D01*
X3567Y2043D02*
X3573Y2043D01*
X3590Y2043D02*
X3596Y2043D01*
X3617Y2043D02*
X3623Y2043D01*
X1793Y2042D02*
X1801Y2042D01*
X1818Y2042D02*
X1824Y2042D01*
X1868Y2042D02*
X1874Y2042D01*
X2047Y2042D02*
X2055Y2042D01*
X2072Y2042D02*
X2078Y2042D01*
X2094Y2042D02*
X2100Y2042D01*
X2296Y2042D02*
X2305Y2042D01*
X2322Y2042D02*
X2328Y2042D01*
X2351Y2042D02*
X2357Y2042D01*
X2539Y2042D02*
X2547Y2042D01*
X2564Y2042D02*
X2570Y2042D01*
X2588Y2042D02*
X2594Y2042D01*
X2609Y2042D02*
X2615Y2042D01*
X2783Y2042D02*
X2789Y2042D01*
X2810Y2042D02*
X2816Y2042D01*
X2859Y2042D02*
X2866Y2042D01*
X3041Y2042D02*
X3048Y2042D01*
X3067Y2042D02*
X3073Y2042D01*
X3117Y2042D02*
X3123Y2042D01*
X3291Y2042D02*
X3298Y2042D01*
X3317Y2042D02*
X3323Y2042D01*
X3354Y2042D02*
X3360Y2042D01*
X3541Y2042D02*
X3548Y2042D01*
X3567Y2042D02*
X3573Y2042D01*
X3590Y2042D02*
X3596Y2042D01*
X3617Y2042D02*
X3623Y2042D01*
X1792Y2041D02*
X1800Y2041D01*
X1818Y2041D02*
X1824Y2041D01*
X1868Y2041D02*
X1874Y2041D01*
X2046Y2041D02*
X2054Y2041D01*
X2072Y2041D02*
X2078Y2041D01*
X2094Y2041D02*
X2100Y2041D01*
X2296Y2041D02*
X2304Y2041D01*
X2322Y2041D02*
X2328Y2041D01*
X2351Y2041D02*
X2357Y2041D01*
X2538Y2041D02*
X2546Y2041D01*
X2564Y2041D02*
X2570Y2041D01*
X2588Y2041D02*
X2594Y2041D01*
X2609Y2041D02*
X2615Y2041D01*
X2783Y2041D02*
X2789Y2041D01*
X2810Y2041D02*
X2816Y2041D01*
X2857Y2041D02*
X2865Y2041D01*
X3041Y2041D02*
X3047Y2041D01*
X3067Y2041D02*
X3073Y2041D01*
X3117Y2041D02*
X3123Y2041D01*
X3291Y2041D02*
X3297Y2041D01*
X3317Y2041D02*
X3323Y2041D01*
X3354Y2041D02*
X3360Y2041D01*
X3541Y2041D02*
X3547Y2041D01*
X3567Y2041D02*
X3573Y2041D01*
X3590Y2041D02*
X3596Y2041D01*
X3617Y2041D02*
X3623Y2041D01*
X1791Y2040D02*
X1799Y2040D01*
X1818Y2040D02*
X1824Y2040D01*
X1867Y2040D02*
X1874Y2040D01*
X2045Y2040D02*
X2053Y2040D01*
X2072Y2040D02*
X2078Y2040D01*
X2094Y2040D02*
X2100Y2040D01*
X2295Y2040D02*
X2303Y2040D01*
X2322Y2040D02*
X2328Y2040D01*
X2351Y2040D02*
X2357Y2040D01*
X2537Y2040D02*
X2545Y2040D01*
X2564Y2040D02*
X2570Y2040D01*
X2588Y2040D02*
X2594Y2040D01*
X2609Y2040D02*
X2615Y2040D01*
X2782Y2040D02*
X2788Y2040D01*
X2810Y2040D02*
X2816Y2040D01*
X2841Y2040D02*
X2865Y2040D01*
X3040Y2040D02*
X3047Y2040D01*
X3067Y2040D02*
X3073Y2040D01*
X3117Y2040D02*
X3123Y2040D01*
X3290Y2040D02*
X3297Y2040D01*
X3317Y2040D02*
X3323Y2040D01*
X3354Y2040D02*
X3360Y2040D01*
X3540Y2040D02*
X3547Y2040D01*
X3567Y2040D02*
X3573Y2040D01*
X3590Y2040D02*
X3596Y2040D01*
X3617Y2040D02*
X3623Y2040D01*
X1791Y2039D02*
X1798Y2039D01*
X1818Y2039D02*
X1824Y2039D01*
X1866Y2039D02*
X1874Y2039D01*
X2045Y2039D02*
X2052Y2039D01*
X2072Y2039D02*
X2078Y2039D01*
X2094Y2039D02*
X2100Y2039D01*
X2295Y2039D02*
X2302Y2039D01*
X2322Y2039D02*
X2328Y2039D01*
X2351Y2039D02*
X2357Y2039D01*
X2537Y2039D02*
X2544Y2039D01*
X2564Y2039D02*
X2570Y2039D01*
X2588Y2039D02*
X2594Y2039D01*
X2609Y2039D02*
X2615Y2039D01*
X2782Y2039D02*
X2788Y2039D01*
X2810Y2039D02*
X2816Y2039D01*
X2840Y2039D02*
X2864Y2039D01*
X3040Y2039D02*
X3046Y2039D01*
X3067Y2039D02*
X3073Y2039D01*
X3097Y2039D02*
X3123Y2039D01*
X3290Y2039D02*
X3296Y2039D01*
X3317Y2039D02*
X3323Y2039D01*
X3354Y2039D02*
X3360Y2039D01*
X3540Y2039D02*
X3546Y2039D01*
X3567Y2039D02*
X3573Y2039D01*
X3590Y2039D02*
X3596Y2039D01*
X3617Y2039D02*
X3623Y2039D01*
X1791Y2038D02*
X1797Y2038D01*
X1818Y2038D02*
X1824Y2038D01*
X1865Y2038D02*
X1874Y2038D01*
X2045Y2038D02*
X2051Y2038D01*
X2072Y2038D02*
X2078Y2038D01*
X2094Y2038D02*
X2100Y2038D01*
X2295Y2038D02*
X2301Y2038D01*
X2322Y2038D02*
X2328Y2038D01*
X2351Y2038D02*
X2357Y2038D01*
X2537Y2038D02*
X2543Y2038D01*
X2564Y2038D02*
X2570Y2038D01*
X2588Y2038D02*
X2594Y2038D01*
X2609Y2038D02*
X2615Y2038D01*
X2782Y2038D02*
X2788Y2038D01*
X2810Y2038D02*
X2816Y2038D01*
X2839Y2038D02*
X2864Y2038D01*
X3040Y2038D02*
X3046Y2038D01*
X3067Y2038D02*
X3073Y2038D01*
X3093Y2038D02*
X3123Y2038D01*
X3290Y2038D02*
X3296Y2038D01*
X3317Y2038D02*
X3323Y2038D01*
X3354Y2038D02*
X3360Y2038D01*
X3540Y2038D02*
X3546Y2038D01*
X3567Y2038D02*
X3573Y2038D01*
X3590Y2038D02*
X3596Y2038D01*
X3617Y2038D02*
X3623Y2038D01*
X1791Y2037D02*
X1797Y2037D01*
X1818Y2037D02*
X1824Y2037D01*
X1864Y2037D02*
X1873Y2037D01*
X2045Y2037D02*
X2051Y2037D01*
X2072Y2037D02*
X2078Y2037D01*
X2094Y2037D02*
X2100Y2037D01*
X2295Y2037D02*
X2301Y2037D01*
X2322Y2037D02*
X2328Y2037D01*
X2351Y2037D02*
X2357Y2037D01*
X2537Y2037D02*
X2543Y2037D01*
X2564Y2037D02*
X2570Y2037D01*
X2588Y2037D02*
X2594Y2037D01*
X2609Y2037D02*
X2615Y2037D01*
X2782Y2037D02*
X2788Y2037D01*
X2810Y2037D02*
X2816Y2037D01*
X2839Y2037D02*
X2863Y2037D01*
X3040Y2037D02*
X3046Y2037D01*
X3067Y2037D02*
X3073Y2037D01*
X3092Y2037D02*
X3123Y2037D01*
X3290Y2037D02*
X3296Y2037D01*
X3317Y2037D02*
X3323Y2037D01*
X3354Y2037D02*
X3360Y2037D01*
X3540Y2037D02*
X3546Y2037D01*
X3567Y2037D02*
X3573Y2037D01*
X3590Y2037D02*
X3596Y2037D01*
X3617Y2037D02*
X3623Y2037D01*
X1791Y2036D02*
X1797Y2036D01*
X1818Y2036D02*
X1824Y2036D01*
X1862Y2036D02*
X1872Y2036D01*
X2044Y2036D02*
X2050Y2036D01*
X2072Y2036D02*
X2078Y2036D01*
X2094Y2036D02*
X2100Y2036D01*
X2294Y2036D02*
X2300Y2036D01*
X2322Y2036D02*
X2328Y2036D01*
X2351Y2036D02*
X2374Y2036D01*
X2536Y2036D02*
X2542Y2036D01*
X2564Y2036D02*
X2570Y2036D01*
X2588Y2036D02*
X2594Y2036D01*
X2609Y2036D02*
X2615Y2036D01*
X2782Y2036D02*
X2788Y2036D01*
X2810Y2036D02*
X2816Y2036D01*
X2839Y2036D02*
X2864Y2036D01*
X3040Y2036D02*
X3046Y2036D01*
X3067Y2036D02*
X3073Y2036D01*
X3091Y2036D02*
X3123Y2036D01*
X3290Y2036D02*
X3296Y2036D01*
X3317Y2036D02*
X3323Y2036D01*
X3354Y2036D02*
X3360Y2036D01*
X3540Y2036D02*
X3546Y2036D01*
X3567Y2036D02*
X3573Y2036D01*
X3590Y2036D02*
X3596Y2036D01*
X3617Y2036D02*
X3623Y2036D01*
X1790Y2035D02*
X1796Y2035D01*
X1818Y2035D02*
X1824Y2035D01*
X1861Y2035D02*
X1871Y2035D01*
X2044Y2035D02*
X2050Y2035D01*
X2072Y2035D02*
X2078Y2035D01*
X2094Y2035D02*
X2100Y2035D01*
X2294Y2035D02*
X2300Y2035D01*
X2322Y2035D02*
X2328Y2035D01*
X2351Y2035D02*
X2375Y2035D01*
X2536Y2035D02*
X2542Y2035D01*
X2564Y2035D02*
X2570Y2035D01*
X2588Y2035D02*
X2594Y2035D01*
X2609Y2035D02*
X2615Y2035D01*
X2782Y2035D02*
X2788Y2035D01*
X2810Y2035D02*
X2816Y2035D01*
X2840Y2035D02*
X2865Y2035D01*
X3040Y2035D02*
X3046Y2035D01*
X3067Y2035D02*
X3073Y2035D01*
X3091Y2035D02*
X3122Y2035D01*
X3290Y2035D02*
X3296Y2035D01*
X3317Y2035D02*
X3323Y2035D01*
X3354Y2035D02*
X3360Y2035D01*
X3540Y2035D02*
X3546Y2035D01*
X3567Y2035D02*
X3573Y2035D01*
X3590Y2035D02*
X3596Y2035D01*
X3617Y2035D02*
X3623Y2035D01*
X1790Y2034D02*
X1796Y2034D01*
X1818Y2034D02*
X1824Y2034D01*
X1860Y2034D02*
X1870Y2034D01*
X2044Y2034D02*
X2050Y2034D01*
X2072Y2034D02*
X2078Y2034D01*
X2094Y2034D02*
X2100Y2034D01*
X2294Y2034D02*
X2300Y2034D01*
X2322Y2034D02*
X2328Y2034D01*
X2351Y2034D02*
X2376Y2034D01*
X2536Y2034D02*
X2542Y2034D01*
X2564Y2034D02*
X2570Y2034D01*
X2588Y2034D02*
X2594Y2034D01*
X2609Y2034D02*
X2615Y2034D01*
X2782Y2034D02*
X2788Y2034D01*
X2797Y2034D02*
X2801Y2034D01*
X2809Y2034D02*
X2816Y2034D01*
X2841Y2034D02*
X2865Y2034D01*
X3040Y2034D02*
X3046Y2034D01*
X3067Y2034D02*
X3073Y2034D01*
X3090Y2034D02*
X3121Y2034D01*
X3290Y2034D02*
X3296Y2034D01*
X3317Y2034D02*
X3323Y2034D01*
X3354Y2034D02*
X3360Y2034D01*
X3540Y2034D02*
X3546Y2034D01*
X3567Y2034D02*
X3573Y2034D01*
X3590Y2034D02*
X3596Y2034D01*
X3617Y2034D02*
X3623Y2034D01*
X1790Y2033D02*
X1796Y2033D01*
X1818Y2033D02*
X1824Y2033D01*
X1859Y2033D02*
X1869Y2033D01*
X2044Y2033D02*
X2050Y2033D01*
X2072Y2033D02*
X2078Y2033D01*
X2094Y2033D02*
X2100Y2033D01*
X2294Y2033D02*
X2300Y2033D01*
X2322Y2033D02*
X2328Y2033D01*
X2351Y2033D02*
X2377Y2033D01*
X2536Y2033D02*
X2542Y2033D01*
X2564Y2033D02*
X2570Y2033D01*
X2588Y2033D02*
X2594Y2033D01*
X2609Y2033D02*
X2615Y2033D01*
X2782Y2033D02*
X2788Y2033D01*
X2797Y2033D02*
X2801Y2033D01*
X2809Y2033D02*
X2815Y2033D01*
X2858Y2033D02*
X2865Y2033D01*
X3040Y2033D02*
X3046Y2033D01*
X3056Y2033D02*
X3057Y2033D01*
X3067Y2033D02*
X3073Y2033D01*
X3090Y2033D02*
X3120Y2033D01*
X3290Y2033D02*
X3296Y2033D01*
X3306Y2033D02*
X3307Y2033D01*
X3317Y2033D02*
X3323Y2033D01*
X3354Y2033D02*
X3360Y2033D01*
X3370Y2033D02*
X3371Y2033D01*
X3540Y2033D02*
X3546Y2033D01*
X3556Y2033D02*
X3557Y2033D01*
X3567Y2033D02*
X3573Y2033D01*
X3590Y2033D02*
X3596Y2033D01*
X3617Y2033D02*
X3623Y2033D01*
X1790Y2032D02*
X1796Y2032D01*
X1818Y2032D02*
X1824Y2032D01*
X1858Y2032D02*
X1867Y2032D01*
X2044Y2032D02*
X2050Y2032D01*
X2072Y2032D02*
X2078Y2032D01*
X2094Y2032D02*
X2100Y2032D01*
X2294Y2032D02*
X2300Y2032D01*
X2322Y2032D02*
X2328Y2032D01*
X2351Y2032D02*
X2377Y2032D01*
X2536Y2032D02*
X2542Y2032D01*
X2564Y2032D02*
X2570Y2032D01*
X2588Y2032D02*
X2594Y2032D01*
X2609Y2032D02*
X2615Y2032D01*
X2782Y2032D02*
X2788Y2032D01*
X2796Y2032D02*
X2802Y2032D01*
X2808Y2032D02*
X2815Y2032D01*
X2859Y2032D02*
X2866Y2032D01*
X3040Y2032D02*
X3046Y2032D01*
X3055Y2032D02*
X3059Y2032D01*
X3067Y2032D02*
X3073Y2032D01*
X3090Y2032D02*
X3096Y2032D01*
X3290Y2032D02*
X3296Y2032D01*
X3305Y2032D02*
X3309Y2032D01*
X3317Y2032D02*
X3323Y2032D01*
X3354Y2032D02*
X3360Y2032D01*
X3368Y2032D02*
X3372Y2032D01*
X3540Y2032D02*
X3546Y2032D01*
X3555Y2032D02*
X3558Y2032D01*
X3567Y2032D02*
X3573Y2032D01*
X3590Y2032D02*
X3596Y2032D01*
X3617Y2032D02*
X3623Y2032D01*
X1790Y2031D02*
X1796Y2031D01*
X1818Y2031D02*
X1824Y2031D01*
X1856Y2031D02*
X1866Y2031D01*
X2044Y2031D02*
X2050Y2031D01*
X2072Y2031D02*
X2078Y2031D01*
X2094Y2031D02*
X2101Y2031D01*
X2294Y2031D02*
X2300Y2031D01*
X2322Y2031D02*
X2328Y2031D01*
X2351Y2031D02*
X2378Y2031D01*
X2536Y2031D02*
X2542Y2031D01*
X2564Y2031D02*
X2570Y2031D01*
X2588Y2031D02*
X2594Y2031D01*
X2608Y2031D02*
X2615Y2031D01*
X2782Y2031D02*
X2788Y2031D01*
X2796Y2031D02*
X2802Y2031D01*
X2807Y2031D02*
X2815Y2031D01*
X2860Y2031D02*
X2866Y2031D01*
X3040Y2031D02*
X3046Y2031D01*
X3054Y2031D02*
X3059Y2031D01*
X3066Y2031D02*
X3073Y2031D01*
X3090Y2031D02*
X3096Y2031D01*
X3290Y2031D02*
X3296Y2031D01*
X3304Y2031D02*
X3309Y2031D01*
X3316Y2031D02*
X3323Y2031D01*
X3354Y2031D02*
X3360Y2031D01*
X3368Y2031D02*
X3373Y2031D01*
X3540Y2031D02*
X3546Y2031D01*
X3554Y2031D02*
X3559Y2031D01*
X3566Y2031D02*
X3573Y2031D01*
X3590Y2031D02*
X3596Y2031D01*
X3617Y2031D02*
X3623Y2031D01*
X1790Y2030D02*
X1796Y2030D01*
X1805Y2030D02*
X1809Y2030D01*
X1818Y2030D02*
X1824Y2030D01*
X1855Y2030D02*
X1865Y2030D01*
X2044Y2030D02*
X2050Y2030D01*
X2059Y2030D02*
X2063Y2030D01*
X2071Y2030D02*
X2078Y2030D01*
X2094Y2030D02*
X2127Y2030D01*
X2294Y2030D02*
X2300Y2030D01*
X2309Y2030D02*
X2313Y2030D01*
X2321Y2030D02*
X2328Y2030D01*
X2351Y2030D02*
X2378Y2030D01*
X2536Y2030D02*
X2542Y2030D01*
X2551Y2030D02*
X2555Y2030D01*
X2563Y2030D02*
X2570Y2030D01*
X2588Y2030D02*
X2617Y2030D01*
X2782Y2030D02*
X2788Y2030D01*
X2796Y2030D02*
X2803Y2030D01*
X2806Y2030D02*
X2814Y2030D01*
X2860Y2030D02*
X2866Y2030D01*
X3040Y2030D02*
X3046Y2030D01*
X3054Y2030D02*
X3060Y2030D01*
X3066Y2030D02*
X3073Y2030D01*
X3090Y2030D02*
X3096Y2030D01*
X3290Y2030D02*
X3296Y2030D01*
X3304Y2030D02*
X3310Y2030D01*
X3316Y2030D02*
X3323Y2030D01*
X3354Y2030D02*
X3360Y2030D01*
X3367Y2030D02*
X3373Y2030D01*
X3540Y2030D02*
X3546Y2030D01*
X3554Y2030D02*
X3560Y2030D01*
X3566Y2030D02*
X3573Y2030D01*
X3590Y2030D02*
X3596Y2030D01*
X3617Y2030D02*
X3623Y2030D01*
X1790Y2029D02*
X1796Y2029D01*
X1805Y2029D02*
X1810Y2029D01*
X1817Y2029D02*
X1824Y2029D01*
X1855Y2029D02*
X1864Y2029D01*
X2044Y2029D02*
X2050Y2029D01*
X2059Y2029D02*
X2063Y2029D01*
X2071Y2029D02*
X2078Y2029D01*
X2094Y2029D02*
X2127Y2029D01*
X2294Y2029D02*
X2300Y2029D01*
X2308Y2029D02*
X2313Y2029D01*
X2321Y2029D02*
X2327Y2029D01*
X2372Y2029D02*
X2378Y2029D01*
X2536Y2029D02*
X2542Y2029D01*
X2550Y2029D02*
X2555Y2029D01*
X2563Y2029D02*
X2569Y2029D01*
X2588Y2029D02*
X2618Y2029D01*
X2782Y2029D02*
X2788Y2029D01*
X2797Y2029D02*
X2803Y2029D01*
X2805Y2029D02*
X2814Y2029D01*
X2860Y2029D02*
X2866Y2029D01*
X3040Y2029D02*
X3046Y2029D01*
X3054Y2029D02*
X3060Y2029D01*
X3065Y2029D02*
X3072Y2029D01*
X3090Y2029D02*
X3096Y2029D01*
X3290Y2029D02*
X3296Y2029D01*
X3304Y2029D02*
X3310Y2029D01*
X3315Y2029D02*
X3322Y2029D01*
X3354Y2029D02*
X3360Y2029D01*
X3367Y2029D02*
X3373Y2029D01*
X3540Y2029D02*
X3546Y2029D01*
X3554Y2029D02*
X3560Y2029D01*
X3565Y2029D02*
X3572Y2029D01*
X3590Y2029D02*
X3596Y2029D01*
X3617Y2029D02*
X3623Y2029D01*
X1790Y2028D02*
X1796Y2028D01*
X1804Y2028D02*
X1810Y2028D01*
X1816Y2028D02*
X1823Y2028D01*
X1854Y2028D02*
X1863Y2028D01*
X2044Y2028D02*
X2050Y2028D01*
X2058Y2028D02*
X2064Y2028D01*
X2070Y2028D02*
X2077Y2028D01*
X2094Y2028D02*
X2128Y2028D01*
X2294Y2028D02*
X2300Y2028D01*
X2308Y2028D02*
X2314Y2028D01*
X2320Y2028D02*
X2327Y2028D01*
X2372Y2028D02*
X2378Y2028D01*
X2536Y2028D02*
X2542Y2028D01*
X2550Y2028D02*
X2556Y2028D01*
X2562Y2028D02*
X2569Y2028D01*
X2588Y2028D02*
X2618Y2028D01*
X2782Y2028D02*
X2788Y2028D01*
X2797Y2028D02*
X2813Y2028D01*
X2860Y2028D02*
X2866Y2028D01*
X3040Y2028D02*
X3046Y2028D01*
X3054Y2028D02*
X3061Y2028D01*
X3064Y2028D02*
X3072Y2028D01*
X3090Y2028D02*
X3096Y2028D01*
X3290Y2028D02*
X3296Y2028D01*
X3304Y2028D02*
X3311Y2028D01*
X3314Y2028D02*
X3322Y2028D01*
X3354Y2028D02*
X3360Y2028D01*
X3367Y2028D02*
X3373Y2028D01*
X3540Y2028D02*
X3546Y2028D01*
X3554Y2028D02*
X3560Y2028D01*
X3564Y2028D02*
X3572Y2028D01*
X3590Y2028D02*
X3596Y2028D01*
X3617Y2028D02*
X3623Y2028D01*
X1790Y2027D02*
X1796Y2027D01*
X1804Y2027D02*
X1811Y2027D01*
X1816Y2027D02*
X1823Y2027D01*
X1854Y2027D02*
X1862Y2027D01*
X2044Y2027D02*
X2050Y2027D01*
X2058Y2027D02*
X2064Y2027D01*
X2069Y2027D02*
X2077Y2027D01*
X2094Y2027D02*
X2128Y2027D01*
X2294Y2027D02*
X2300Y2027D01*
X2308Y2027D02*
X2314Y2027D01*
X2319Y2027D02*
X2327Y2027D01*
X2372Y2027D02*
X2378Y2027D01*
X2536Y2027D02*
X2542Y2027D01*
X2550Y2027D02*
X2556Y2027D01*
X2561Y2027D02*
X2569Y2027D01*
X2588Y2027D02*
X2618Y2027D01*
X2782Y2027D02*
X2788Y2027D01*
X2797Y2027D02*
X2812Y2027D01*
X2860Y2027D02*
X2866Y2027D01*
X3040Y2027D02*
X3046Y2027D01*
X3054Y2027D02*
X3071Y2027D01*
X3090Y2027D02*
X3096Y2027D01*
X3290Y2027D02*
X3296Y2027D01*
X3304Y2027D02*
X3321Y2027D01*
X3354Y2027D02*
X3360Y2027D01*
X3367Y2027D02*
X3373Y2027D01*
X3540Y2027D02*
X3546Y2027D01*
X3554Y2027D02*
X3571Y2027D01*
X3590Y2027D02*
X3596Y2027D01*
X3617Y2027D02*
X3623Y2027D01*
X1790Y2026D02*
X1796Y2026D01*
X1804Y2026D02*
X1811Y2026D01*
X1814Y2026D02*
X1822Y2026D01*
X1854Y2026D02*
X1860Y2026D01*
X2044Y2026D02*
X2050Y2026D01*
X2058Y2026D02*
X2065Y2026D01*
X2068Y2026D02*
X2076Y2026D01*
X2094Y2026D02*
X2128Y2026D01*
X2294Y2026D02*
X2300Y2026D01*
X2308Y2026D02*
X2315Y2026D01*
X2318Y2026D02*
X2326Y2026D01*
X2372Y2026D02*
X2378Y2026D01*
X2536Y2026D02*
X2542Y2026D01*
X2550Y2026D02*
X2557Y2026D01*
X2560Y2026D02*
X2568Y2026D01*
X2588Y2026D02*
X2618Y2026D01*
X2782Y2026D02*
X2788Y2026D01*
X2798Y2026D02*
X2811Y2026D01*
X2860Y2026D02*
X2866Y2026D01*
X3040Y2026D02*
X3046Y2026D01*
X3055Y2026D02*
X3071Y2026D01*
X3090Y2026D02*
X3096Y2026D01*
X3290Y2026D02*
X3296Y2026D01*
X3305Y2026D02*
X3320Y2026D01*
X3354Y2026D02*
X3360Y2026D01*
X3367Y2026D02*
X3373Y2026D01*
X3540Y2026D02*
X3546Y2026D01*
X3555Y2026D02*
X3570Y2026D01*
X3590Y2026D02*
X3596Y2026D01*
X3617Y2026D02*
X3623Y2026D01*
X1790Y2025D02*
X1796Y2025D01*
X1805Y2025D02*
X1811Y2025D01*
X1813Y2025D02*
X1822Y2025D01*
X1854Y2025D02*
X1860Y2025D01*
X2044Y2025D02*
X2050Y2025D01*
X2059Y2025D02*
X2065Y2025D01*
X2067Y2025D02*
X2076Y2025D01*
X2094Y2025D02*
X2128Y2025D01*
X2294Y2025D02*
X2300Y2025D01*
X2309Y2025D02*
X2315Y2025D01*
X2317Y2025D02*
X2326Y2025D01*
X2372Y2025D02*
X2378Y2025D01*
X2536Y2025D02*
X2542Y2025D01*
X2551Y2025D02*
X2557Y2025D01*
X2559Y2025D02*
X2568Y2025D01*
X2588Y2025D02*
X2617Y2025D01*
X2782Y2025D02*
X2788Y2025D01*
X2798Y2025D02*
X2810Y2025D01*
X2860Y2025D02*
X2866Y2025D01*
X3040Y2025D02*
X3046Y2025D01*
X3055Y2025D02*
X3070Y2025D01*
X3090Y2025D02*
X3096Y2025D01*
X3290Y2025D02*
X3296Y2025D01*
X3305Y2025D02*
X3320Y2025D01*
X3354Y2025D02*
X3360Y2025D01*
X3367Y2025D02*
X3373Y2025D01*
X3540Y2025D02*
X3546Y2025D01*
X3555Y2025D02*
X3570Y2025D01*
X3590Y2025D02*
X3596Y2025D01*
X3617Y2025D02*
X3623Y2025D01*
X1790Y2024D02*
X1796Y2024D01*
X1805Y2024D02*
X1821Y2024D01*
X1854Y2024D02*
X1860Y2024D01*
X2044Y2024D02*
X2050Y2024D01*
X2059Y2024D02*
X2075Y2024D01*
X2094Y2024D02*
X2128Y2024D01*
X2294Y2024D02*
X2300Y2024D01*
X2309Y2024D02*
X2325Y2024D01*
X2372Y2024D02*
X2378Y2024D01*
X2536Y2024D02*
X2542Y2024D01*
X2551Y2024D02*
X2567Y2024D01*
X2588Y2024D02*
X2615Y2024D01*
X2782Y2024D02*
X2788Y2024D01*
X2799Y2024D02*
X2809Y2024D01*
X2860Y2024D02*
X2866Y2024D01*
X3040Y2024D02*
X3046Y2024D01*
X3056Y2024D02*
X3069Y2024D01*
X3090Y2024D02*
X3096Y2024D01*
X3290Y2024D02*
X3296Y2024D01*
X3306Y2024D02*
X3319Y2024D01*
X3354Y2024D02*
X3360Y2024D01*
X3367Y2024D02*
X3373Y2024D01*
X3540Y2024D02*
X3546Y2024D01*
X3556Y2024D02*
X3569Y2024D01*
X3590Y2024D02*
X3596Y2024D01*
X3617Y2024D02*
X3623Y2024D01*
X1790Y2023D02*
X1796Y2023D01*
X1806Y2023D02*
X1820Y2023D01*
X1854Y2023D02*
X1860Y2023D01*
X2044Y2023D02*
X2050Y2023D01*
X2059Y2023D02*
X2074Y2023D01*
X2094Y2023D02*
X2100Y2023D01*
X2122Y2023D02*
X2128Y2023D01*
X2294Y2023D02*
X2300Y2023D01*
X2309Y2023D02*
X2324Y2023D01*
X2372Y2023D02*
X2378Y2023D01*
X2536Y2023D02*
X2542Y2023D01*
X2551Y2023D02*
X2566Y2023D01*
X2609Y2023D02*
X2615Y2023D01*
X2782Y2023D02*
X2788Y2023D01*
X2798Y2023D02*
X2808Y2023D01*
X2860Y2023D02*
X2866Y2023D01*
X3040Y2023D02*
X3046Y2023D01*
X3056Y2023D02*
X3068Y2023D01*
X3090Y2023D02*
X3096Y2023D01*
X3290Y2023D02*
X3296Y2023D01*
X3306Y2023D02*
X3318Y2023D01*
X3354Y2023D02*
X3360Y2023D01*
X3367Y2023D02*
X3373Y2023D01*
X3540Y2023D02*
X3546Y2023D01*
X3556Y2023D02*
X3568Y2023D01*
X3590Y2023D02*
X3596Y2023D01*
X3617Y2023D02*
X3623Y2023D01*
X1790Y2022D02*
X1796Y2022D01*
X1806Y2022D02*
X1820Y2022D01*
X1854Y2022D02*
X1860Y2022D01*
X2044Y2022D02*
X2050Y2022D01*
X2060Y2022D02*
X2073Y2022D01*
X2094Y2022D02*
X2100Y2022D01*
X2122Y2022D02*
X2128Y2022D01*
X2294Y2022D02*
X2300Y2022D01*
X2310Y2022D02*
X2323Y2022D01*
X2372Y2022D02*
X2378Y2022D01*
X2536Y2022D02*
X2542Y2022D01*
X2552Y2022D02*
X2565Y2022D01*
X2609Y2022D02*
X2615Y2022D01*
X2782Y2022D02*
X2788Y2022D01*
X2797Y2022D02*
X2807Y2022D01*
X2860Y2022D02*
X2866Y2022D01*
X3040Y2022D02*
X3046Y2022D01*
X3056Y2022D02*
X3067Y2022D01*
X3090Y2022D02*
X3096Y2022D01*
X3290Y2022D02*
X3296Y2022D01*
X3306Y2022D02*
X3316Y2022D01*
X3354Y2022D02*
X3360Y2022D01*
X3367Y2022D02*
X3373Y2022D01*
X3540Y2022D02*
X3546Y2022D01*
X3556Y2022D02*
X3566Y2022D01*
X3590Y2022D02*
X3596Y2022D01*
X3617Y2022D02*
X3623Y2022D01*
X1790Y2021D02*
X1796Y2021D01*
X1806Y2021D02*
X1818Y2021D01*
X1854Y2021D02*
X1860Y2021D01*
X2044Y2021D02*
X2050Y2021D01*
X2060Y2021D02*
X2072Y2021D01*
X2094Y2021D02*
X2100Y2021D01*
X2122Y2021D02*
X2128Y2021D01*
X2294Y2021D02*
X2300Y2021D01*
X2310Y2021D02*
X2322Y2021D01*
X2372Y2021D02*
X2378Y2021D01*
X2536Y2021D02*
X2542Y2021D01*
X2552Y2021D02*
X2564Y2021D01*
X2609Y2021D02*
X2615Y2021D01*
X2782Y2021D02*
X2788Y2021D01*
X2796Y2021D02*
X2806Y2021D01*
X2860Y2021D02*
X2866Y2021D01*
X3040Y2021D02*
X3046Y2021D01*
X3055Y2021D02*
X3065Y2021D01*
X3090Y2021D02*
X3096Y2021D01*
X3290Y2021D02*
X3296Y2021D01*
X3305Y2021D02*
X3315Y2021D01*
X3354Y2021D02*
X3360Y2021D01*
X3367Y2021D02*
X3373Y2021D01*
X3540Y2021D02*
X3546Y2021D01*
X3555Y2021D02*
X3565Y2021D01*
X3590Y2021D02*
X3596Y2021D01*
X3617Y2021D02*
X3623Y2021D01*
X1790Y2020D02*
X1796Y2020D01*
X1807Y2020D02*
X1817Y2020D01*
X1854Y2020D02*
X1860Y2020D01*
X2044Y2020D02*
X2050Y2020D01*
X2061Y2020D02*
X2071Y2020D01*
X2094Y2020D02*
X2100Y2020D01*
X2122Y2020D02*
X2128Y2020D01*
X2294Y2020D02*
X2300Y2020D01*
X2311Y2020D02*
X2321Y2020D01*
X2372Y2020D02*
X2378Y2020D01*
X2536Y2020D02*
X2542Y2020D01*
X2553Y2020D02*
X2563Y2020D01*
X2609Y2020D02*
X2615Y2020D01*
X2782Y2020D02*
X2788Y2020D01*
X2795Y2020D02*
X2807Y2020D01*
X2860Y2020D02*
X2866Y2020D01*
X3040Y2020D02*
X3046Y2020D01*
X3054Y2020D02*
X3064Y2020D01*
X3090Y2020D02*
X3096Y2020D01*
X3290Y2020D02*
X3296Y2020D01*
X3304Y2020D02*
X3314Y2020D01*
X3354Y2020D02*
X3360Y2020D01*
X3367Y2020D02*
X3373Y2020D01*
X3540Y2020D02*
X3546Y2020D01*
X3554Y2020D02*
X3564Y2020D01*
X3590Y2020D02*
X3596Y2020D01*
X3617Y2020D02*
X3623Y2020D01*
X1790Y2019D02*
X1796Y2019D01*
X1806Y2019D02*
X1816Y2019D01*
X1854Y2019D02*
X1860Y2019D01*
X2044Y2019D02*
X2050Y2019D01*
X2060Y2019D02*
X2070Y2019D01*
X2094Y2019D02*
X2100Y2019D01*
X2122Y2019D02*
X2128Y2019D01*
X2294Y2019D02*
X2300Y2019D01*
X2310Y2019D02*
X2320Y2019D01*
X2372Y2019D02*
X2378Y2019D01*
X2536Y2019D02*
X2542Y2019D01*
X2552Y2019D02*
X2562Y2019D01*
X2609Y2019D02*
X2615Y2019D01*
X2782Y2019D02*
X2788Y2019D01*
X2793Y2019D02*
X2807Y2019D01*
X2860Y2019D02*
X2866Y2019D01*
X3040Y2019D02*
X3046Y2019D01*
X3053Y2019D02*
X3064Y2019D01*
X3090Y2019D02*
X3096Y2019D01*
X3290Y2019D02*
X3296Y2019D01*
X3303Y2019D02*
X3314Y2019D01*
X3354Y2019D02*
X3360Y2019D01*
X3367Y2019D02*
X3373Y2019D01*
X3540Y2019D02*
X3546Y2019D01*
X3553Y2019D02*
X3564Y2019D01*
X3590Y2019D02*
X3596Y2019D01*
X3617Y2019D02*
X3623Y2019D01*
X1790Y2018D02*
X1796Y2018D01*
X1805Y2018D02*
X1815Y2018D01*
X1854Y2018D02*
X1860Y2018D01*
X2044Y2018D02*
X2050Y2018D01*
X2059Y2018D02*
X2069Y2018D01*
X2094Y2018D02*
X2100Y2018D01*
X2122Y2018D02*
X2128Y2018D01*
X2294Y2018D02*
X2300Y2018D01*
X2309Y2018D02*
X2319Y2018D01*
X2372Y2018D02*
X2378Y2018D01*
X2536Y2018D02*
X2542Y2018D01*
X2551Y2018D02*
X2561Y2018D01*
X2609Y2018D02*
X2615Y2018D01*
X2782Y2018D02*
X2788Y2018D01*
X2792Y2018D02*
X2807Y2018D01*
X2860Y2018D02*
X2866Y2018D01*
X3040Y2018D02*
X3046Y2018D01*
X3052Y2018D02*
X3064Y2018D01*
X3090Y2018D02*
X3096Y2018D01*
X3290Y2018D02*
X3296Y2018D01*
X3302Y2018D02*
X3314Y2018D01*
X3354Y2018D02*
X3360Y2018D01*
X3367Y2018D02*
X3373Y2018D01*
X3540Y2018D02*
X3546Y2018D01*
X3552Y2018D02*
X3564Y2018D01*
X3590Y2018D02*
X3596Y2018D01*
X3617Y2018D02*
X3623Y2018D01*
X1790Y2017D02*
X1796Y2017D01*
X1804Y2017D02*
X1814Y2017D01*
X1854Y2017D02*
X1860Y2017D01*
X2044Y2017D02*
X2050Y2017D01*
X2058Y2017D02*
X2068Y2017D01*
X2094Y2017D02*
X2100Y2017D01*
X2122Y2017D02*
X2128Y2017D01*
X2294Y2017D02*
X2300Y2017D01*
X2308Y2017D02*
X2318Y2017D01*
X2372Y2017D02*
X2378Y2017D01*
X2536Y2017D02*
X2542Y2017D01*
X2550Y2017D02*
X2560Y2017D01*
X2609Y2017D02*
X2615Y2017D01*
X2782Y2017D02*
X2813Y2017D01*
X2835Y2017D02*
X2866Y2017D01*
X3040Y2017D02*
X3046Y2017D01*
X3051Y2017D02*
X3065Y2017D01*
X3090Y2017D02*
X3096Y2017D01*
X3290Y2017D02*
X3296Y2017D01*
X3301Y2017D02*
X3315Y2017D01*
X3354Y2017D02*
X3360Y2017D01*
X3367Y2017D02*
X3373Y2017D01*
X3540Y2017D02*
X3546Y2017D01*
X3551Y2017D02*
X3565Y2017D01*
X3590Y2017D02*
X3596Y2017D01*
X3617Y2017D02*
X3623Y2017D01*
X1790Y2016D02*
X1796Y2016D01*
X1803Y2016D02*
X1815Y2016D01*
X1854Y2016D02*
X1860Y2016D01*
X2044Y2016D02*
X2050Y2016D01*
X2057Y2016D02*
X2069Y2016D01*
X2094Y2016D02*
X2100Y2016D01*
X2122Y2016D02*
X2128Y2016D01*
X2294Y2016D02*
X2300Y2016D01*
X2307Y2016D02*
X2319Y2016D01*
X2347Y2016D02*
X2347Y2016D01*
X2372Y2016D02*
X2378Y2016D01*
X2536Y2016D02*
X2542Y2016D01*
X2549Y2016D02*
X2561Y2016D01*
X2609Y2016D02*
X2615Y2016D01*
X2783Y2016D02*
X2800Y2016D01*
X2802Y2016D02*
X2815Y2016D01*
X2833Y2016D02*
X2866Y2016D01*
X3040Y2016D02*
X3046Y2016D01*
X3050Y2016D02*
X3065Y2016D01*
X3090Y2016D02*
X3096Y2016D01*
X3290Y2016D02*
X3296Y2016D01*
X3299Y2016D02*
X3315Y2016D01*
X3354Y2016D02*
X3360Y2016D01*
X3367Y2016D02*
X3373Y2016D01*
X3540Y2016D02*
X3546Y2016D01*
X3549Y2016D02*
X3565Y2016D01*
X3590Y2016D02*
X3596Y2016D01*
X3617Y2016D02*
X3623Y2016D01*
X1790Y2015D02*
X1796Y2015D01*
X1802Y2015D02*
X1815Y2015D01*
X1854Y2015D02*
X1860Y2015D01*
X2044Y2015D02*
X2050Y2015D01*
X2055Y2015D02*
X2069Y2015D01*
X2094Y2015D02*
X2100Y2015D01*
X2122Y2015D02*
X2128Y2015D01*
X2294Y2015D02*
X2300Y2015D01*
X2305Y2015D02*
X2319Y2015D01*
X2345Y2015D02*
X2350Y2015D01*
X2372Y2015D02*
X2378Y2015D01*
X2536Y2015D02*
X2542Y2015D01*
X2547Y2015D02*
X2561Y2015D01*
X2609Y2015D02*
X2615Y2015D01*
X2783Y2015D02*
X2798Y2015D01*
X2802Y2015D02*
X2816Y2015D01*
X2833Y2015D02*
X2865Y2015D01*
X3040Y2015D02*
X3072Y2015D01*
X3090Y2015D02*
X3122Y2015D01*
X3290Y2015D02*
X3322Y2015D01*
X3342Y2015D02*
X3373Y2015D01*
X3540Y2015D02*
X3572Y2015D01*
X3590Y2015D02*
X3623Y2015D01*
X1790Y2014D02*
X1797Y2014D01*
X1800Y2014D02*
X1816Y2014D01*
X1854Y2014D02*
X1860Y2014D01*
X2044Y2014D02*
X2051Y2014D01*
X2054Y2014D02*
X2069Y2014D01*
X2094Y2014D02*
X2100Y2014D01*
X2122Y2014D02*
X2128Y2014D01*
X2294Y2014D02*
X2300Y2014D01*
X2304Y2014D02*
X2319Y2014D01*
X2345Y2014D02*
X2352Y2014D01*
X2372Y2014D02*
X2378Y2014D01*
X2536Y2014D02*
X2543Y2014D01*
X2546Y2014D02*
X2561Y2014D01*
X2609Y2014D02*
X2615Y2014D01*
X2784Y2014D02*
X2797Y2014D01*
X2802Y2014D02*
X2816Y2014D01*
X2832Y2014D02*
X2865Y2014D01*
X3040Y2014D02*
X3057Y2014D01*
X3059Y2014D02*
X3073Y2014D01*
X3090Y2014D02*
X3123Y2014D01*
X3290Y2014D02*
X3307Y2014D01*
X3309Y2014D02*
X3323Y2014D01*
X3341Y2014D02*
X3373Y2014D01*
X3540Y2014D02*
X3557Y2014D01*
X3559Y2014D02*
X3573Y2014D01*
X3590Y2014D02*
X3623Y2014D01*
X1791Y2013D02*
X1821Y2013D01*
X1854Y2013D02*
X1860Y2013D01*
X2044Y2013D02*
X2075Y2013D01*
X2094Y2013D02*
X2128Y2013D01*
X2294Y2013D02*
X2325Y2013D01*
X2344Y2013D02*
X2378Y2013D01*
X2536Y2013D02*
X2567Y2013D01*
X2609Y2013D02*
X2615Y2013D01*
X2784Y2013D02*
X2796Y2013D01*
X2803Y2013D02*
X2816Y2013D01*
X2832Y2013D02*
X2864Y2013D01*
X3041Y2013D02*
X3056Y2013D01*
X3060Y2013D02*
X3073Y2013D01*
X3090Y2013D02*
X3123Y2013D01*
X3291Y2013D02*
X3306Y2013D01*
X3310Y2013D02*
X3323Y2013D01*
X3340Y2013D02*
X3373Y2013D01*
X3541Y2013D02*
X3556Y2013D01*
X3560Y2013D02*
X3573Y2013D01*
X3590Y2013D02*
X3623Y2013D01*
X1791Y2012D02*
X1808Y2012D01*
X1810Y2012D02*
X1823Y2012D01*
X1854Y2012D02*
X1860Y2012D01*
X2045Y2012D02*
X2062Y2012D01*
X2064Y2012D02*
X2077Y2012D01*
X2094Y2012D02*
X2128Y2012D01*
X2295Y2012D02*
X2312Y2012D01*
X2314Y2012D02*
X2327Y2012D01*
X2344Y2012D02*
X2378Y2012D01*
X2537Y2012D02*
X2554Y2012D01*
X2556Y2012D02*
X2569Y2012D01*
X2609Y2012D02*
X2615Y2012D01*
X2786Y2012D02*
X2795Y2012D01*
X2803Y2012D02*
X2815Y2012D01*
X2833Y2012D02*
X2863Y2012D01*
X3042Y2012D02*
X3055Y2012D01*
X3060Y2012D02*
X3073Y2012D01*
X3090Y2012D02*
X3123Y2012D01*
X3292Y2012D02*
X3305Y2012D01*
X3310Y2012D02*
X3323Y2012D01*
X3340Y2012D02*
X3373Y2012D01*
X3542Y2012D02*
X3554Y2012D01*
X3560Y2012D02*
X3573Y2012D01*
X3591Y2012D02*
X3622Y2012D01*
X1791Y2011D02*
X1807Y2011D01*
X1810Y2011D02*
X1824Y2011D01*
X1854Y2011D02*
X1860Y2011D01*
X2045Y2011D02*
X2060Y2011D01*
X2064Y2011D02*
X2078Y2011D01*
X2094Y2011D02*
X2128Y2011D01*
X2295Y2011D02*
X2310Y2011D01*
X2314Y2011D02*
X2328Y2011D01*
X2345Y2011D02*
X2377Y2011D01*
X2537Y2011D02*
X2552Y2011D01*
X2556Y2011D02*
X2570Y2011D01*
X2609Y2011D02*
X2615Y2011D01*
X2787Y2011D02*
X2793Y2011D01*
X2804Y2011D02*
X2815Y2011D01*
X2834Y2011D02*
X2862Y2011D01*
X3042Y2011D02*
X3053Y2011D01*
X3061Y2011D02*
X3073Y2011D01*
X3090Y2011D02*
X3123Y2011D01*
X3292Y2011D02*
X3303Y2011D01*
X3311Y2011D02*
X3323Y2011D01*
X3340Y2011D02*
X3373Y2011D01*
X3542Y2011D02*
X3553Y2011D01*
X3561Y2011D02*
X3573Y2011D01*
X3592Y2011D02*
X3622Y2011D01*
X1792Y2010D02*
X1805Y2010D01*
X1811Y2010D02*
X1824Y2010D01*
X1854Y2010D02*
X1860Y2010D01*
X2046Y2010D02*
X2059Y2010D01*
X2065Y2010D02*
X2078Y2010D01*
X2094Y2010D02*
X2128Y2010D01*
X2296Y2010D02*
X2309Y2010D01*
X2314Y2010D02*
X2328Y2010D01*
X2345Y2010D02*
X2377Y2010D01*
X2538Y2010D02*
X2551Y2010D01*
X2556Y2010D02*
X2570Y2010D01*
X2609Y2010D02*
X2615Y2010D01*
X3044Y2010D02*
X3052Y2010D01*
X3061Y2010D02*
X3073Y2010D01*
X3090Y2010D02*
X3123Y2010D01*
X3294Y2010D02*
X3302Y2010D01*
X3311Y2010D02*
X3323Y2010D01*
X3341Y2010D02*
X3373Y2010D01*
X3544Y2010D02*
X3552Y2010D01*
X3561Y2010D02*
X3573Y2010D01*
X3593Y2010D02*
X3621Y2010D01*
X1793Y2009D02*
X1804Y2009D01*
X1811Y2009D02*
X1824Y2009D01*
X1854Y2009D02*
X1860Y2009D01*
X2047Y2009D02*
X2058Y2009D01*
X2065Y2009D02*
X2078Y2009D01*
X2094Y2009D02*
X2128Y2009D01*
X2296Y2009D02*
X2308Y2009D01*
X2315Y2009D02*
X2328Y2009D01*
X2347Y2009D02*
X2376Y2009D01*
X2539Y2009D02*
X2550Y2009D01*
X2557Y2009D02*
X2570Y2009D01*
X2609Y2009D02*
X2614Y2009D01*
X3046Y2009D02*
X3050Y2009D01*
X3061Y2009D02*
X3072Y2009D01*
X3090Y2009D02*
X3122Y2009D01*
X3295Y2009D02*
X3300Y2009D01*
X3311Y2009D02*
X3322Y2009D01*
X3342Y2009D02*
X3372Y2009D01*
X3545Y2009D02*
X3550Y2009D01*
X3561Y2009D02*
X3572Y2009D01*
X3594Y2009D02*
X3619Y2009D01*
X1794Y2008D02*
X1803Y2008D01*
X1811Y2008D02*
X1823Y2008D01*
X1855Y2008D02*
X1860Y2008D01*
X2048Y2008D02*
X2057Y2008D01*
X2065Y2008D02*
X2077Y2008D01*
X2095Y2008D02*
X2127Y2008D01*
X2298Y2008D02*
X2307Y2008D01*
X2315Y2008D02*
X2327Y2008D01*
X2349Y2008D02*
X2375Y2008D01*
X2540Y2008D02*
X2549Y2008D01*
X2557Y2008D02*
X2569Y2008D01*
X2609Y2008D02*
X2614Y2008D01*
X1795Y2007D02*
X1801Y2007D01*
X1812Y2007D02*
X1823Y2007D01*
X1855Y2007D02*
X1859Y2007D01*
X2049Y2007D02*
X2055Y2007D01*
X2066Y2007D02*
X2077Y2007D01*
X2096Y2007D02*
X2127Y2007D01*
X2299Y2007D02*
X2305Y2007D01*
X2316Y2007D02*
X2326Y2007D01*
X2352Y2007D02*
X2374Y2007D01*
X2541Y2007D02*
X2547Y2007D01*
X2558Y2007D02*
X2568Y2007D01*
X2610Y2007D02*
X2613Y2007D01*
X1034Y1982D02*
X1066Y1982D01*
X1086Y1982D02*
X1088Y1982D01*
X1134Y1982D02*
X1152Y1982D01*
X1184Y1982D02*
X1216Y1982D01*
X1234Y1982D02*
X1261Y1982D01*
X1033Y1981D02*
X1066Y1981D01*
X1085Y1981D02*
X1089Y1981D01*
X1133Y1981D02*
X1152Y1981D01*
X1183Y1981D02*
X1216Y1981D01*
X1233Y1981D02*
X1263Y1981D01*
X1032Y1980D02*
X1066Y1980D01*
X1084Y1980D02*
X1090Y1980D01*
X1132Y1980D02*
X1152Y1980D01*
X1182Y1980D02*
X1216Y1980D01*
X1232Y1980D02*
X1264Y1980D01*
X1032Y1979D02*
X1066Y1979D01*
X1084Y1979D02*
X1090Y1979D01*
X1132Y1979D02*
X1152Y1979D01*
X1182Y1979D02*
X1216Y1979D01*
X1232Y1979D02*
X1265Y1979D01*
X1032Y1978D02*
X1066Y1978D01*
X1084Y1978D02*
X1090Y1978D01*
X1132Y1978D02*
X1152Y1978D01*
X1182Y1978D02*
X1216Y1978D01*
X1232Y1978D02*
X1265Y1978D01*
X1032Y1977D02*
X1066Y1977D01*
X1084Y1977D02*
X1090Y1977D01*
X1133Y1977D02*
X1152Y1977D01*
X1182Y1977D02*
X1216Y1977D01*
X1233Y1977D02*
X1266Y1977D01*
X1032Y1976D02*
X1066Y1976D01*
X1084Y1976D02*
X1090Y1976D01*
X1106Y1976D02*
X1109Y1976D01*
X1134Y1976D02*
X1152Y1976D01*
X1182Y1976D02*
X1216Y1976D01*
X1234Y1976D02*
X1266Y1976D01*
X1032Y1975D02*
X1038Y1975D01*
X1060Y1975D02*
X1066Y1975D01*
X1084Y1975D02*
X1090Y1975D01*
X1105Y1975D02*
X1110Y1975D01*
X1146Y1975D02*
X1152Y1975D01*
X1182Y1975D02*
X1188Y1975D01*
X1210Y1975D02*
X1216Y1975D01*
X1260Y1975D02*
X1266Y1975D01*
X1033Y1974D02*
X1038Y1974D01*
X1060Y1974D02*
X1066Y1974D01*
X1084Y1974D02*
X1090Y1974D01*
X1105Y1974D02*
X1110Y1974D01*
X1146Y1974D02*
X1152Y1974D01*
X1183Y1974D02*
X1188Y1974D01*
X1210Y1974D02*
X1216Y1974D01*
X1260Y1974D02*
X1266Y1974D01*
X1034Y1973D02*
X1036Y1973D01*
X1060Y1973D02*
X1066Y1973D01*
X1084Y1973D02*
X1090Y1973D01*
X1105Y1973D02*
X1111Y1973D01*
X1146Y1973D02*
X1152Y1973D01*
X1184Y1973D02*
X1186Y1973D01*
X1210Y1973D02*
X1216Y1973D01*
X1260Y1973D02*
X1266Y1973D01*
X1060Y1972D02*
X1066Y1972D01*
X1084Y1972D02*
X1090Y1972D01*
X1105Y1972D02*
X1111Y1972D01*
X1146Y1972D02*
X1152Y1972D01*
X1210Y1972D02*
X1216Y1972D01*
X1260Y1972D02*
X1266Y1972D01*
X1060Y1971D02*
X1066Y1971D01*
X1084Y1971D02*
X1090Y1971D01*
X1105Y1971D02*
X1111Y1971D01*
X1146Y1971D02*
X1152Y1971D01*
X1210Y1971D02*
X1216Y1971D01*
X1260Y1971D02*
X1266Y1971D01*
X1060Y1970D02*
X1066Y1970D01*
X1084Y1970D02*
X1090Y1970D01*
X1105Y1970D02*
X1111Y1970D01*
X1146Y1970D02*
X1152Y1970D01*
X1210Y1970D02*
X1216Y1970D01*
X1260Y1970D02*
X1266Y1970D01*
X1060Y1969D02*
X1066Y1969D01*
X1084Y1969D02*
X1090Y1969D01*
X1105Y1969D02*
X1111Y1969D01*
X1146Y1969D02*
X1152Y1969D01*
X1210Y1969D02*
X1216Y1969D01*
X1260Y1969D02*
X1266Y1969D01*
X1783Y1969D02*
X1786Y1969D01*
X1876Y1969D02*
X1878Y1969D01*
X2033Y1969D02*
X2036Y1969D01*
X2126Y1969D02*
X2128Y1969D01*
X2283Y1969D02*
X2286Y1969D01*
X2376Y1969D02*
X2378Y1969D01*
X2533Y1969D02*
X2536Y1969D01*
X2626Y1969D02*
X2628Y1969D01*
X2783Y1969D02*
X2785Y1969D01*
X2876Y1969D02*
X2878Y1969D01*
X3033Y1969D02*
X3035Y1969D01*
X3126Y1969D02*
X3128Y1969D01*
X3283Y1969D02*
X3285Y1969D01*
X3376Y1969D02*
X3377Y1969D01*
X3533Y1969D02*
X3535Y1969D01*
X3625Y1969D02*
X3627Y1969D01*
X1060Y1968D02*
X1066Y1968D01*
X1084Y1968D02*
X1090Y1968D01*
X1105Y1968D02*
X1111Y1968D01*
X1146Y1968D02*
X1152Y1968D01*
X1210Y1968D02*
X1216Y1968D01*
X1260Y1968D02*
X1266Y1968D01*
X1782Y1968D02*
X1786Y1968D01*
X1875Y1968D02*
X1879Y1968D01*
X2032Y1968D02*
X2036Y1968D01*
X2125Y1968D02*
X2129Y1968D01*
X2282Y1968D02*
X2286Y1968D01*
X2375Y1968D02*
X2379Y1968D01*
X2532Y1968D02*
X2536Y1968D01*
X2625Y1968D02*
X2629Y1968D01*
X2782Y1968D02*
X2786Y1968D01*
X2875Y1968D02*
X2879Y1968D01*
X3032Y1968D02*
X3036Y1968D01*
X3125Y1968D02*
X3129Y1968D01*
X3282Y1968D02*
X3286Y1968D01*
X3375Y1968D02*
X3379Y1968D01*
X3532Y1968D02*
X3536Y1968D01*
X3625Y1968D02*
X3629Y1968D01*
X1060Y1967D02*
X1066Y1967D01*
X1084Y1967D02*
X1090Y1967D01*
X1105Y1967D02*
X1111Y1967D01*
X1146Y1967D02*
X1152Y1967D01*
X1210Y1967D02*
X1216Y1967D01*
X1260Y1967D02*
X1266Y1967D01*
X1781Y1967D02*
X1786Y1967D01*
X1875Y1967D02*
X1880Y1967D01*
X2031Y1967D02*
X2036Y1967D01*
X2125Y1967D02*
X2130Y1967D01*
X2281Y1967D02*
X2286Y1967D01*
X2375Y1967D02*
X2380Y1967D01*
X2530Y1967D02*
X2536Y1967D01*
X2625Y1967D02*
X2630Y1967D01*
X2780Y1967D02*
X2786Y1967D01*
X2875Y1967D02*
X2880Y1967D01*
X3030Y1967D02*
X3036Y1967D01*
X3125Y1967D02*
X3130Y1967D01*
X3280Y1967D02*
X3286Y1967D01*
X3374Y1967D02*
X3380Y1967D01*
X3530Y1967D02*
X3536Y1967D01*
X3624Y1967D02*
X3630Y1967D01*
X1060Y1966D02*
X1066Y1966D01*
X1084Y1966D02*
X1090Y1966D01*
X1105Y1966D02*
X1111Y1966D01*
X1146Y1966D02*
X1152Y1966D01*
X1210Y1966D02*
X1216Y1966D01*
X1260Y1966D02*
X1266Y1966D01*
X1779Y1966D02*
X1786Y1966D01*
X1875Y1966D02*
X1881Y1966D01*
X2029Y1966D02*
X2036Y1966D01*
X2125Y1966D02*
X2131Y1966D01*
X2279Y1966D02*
X2286Y1966D01*
X2375Y1966D02*
X2381Y1966D01*
X2529Y1966D02*
X2536Y1966D01*
X2625Y1966D02*
X2631Y1966D01*
X2779Y1966D02*
X2786Y1966D01*
X2875Y1966D02*
X2881Y1966D01*
X3029Y1966D02*
X3036Y1966D01*
X3125Y1966D02*
X3131Y1966D01*
X3279Y1966D02*
X3286Y1966D01*
X3375Y1966D02*
X3381Y1966D01*
X3529Y1966D02*
X3536Y1966D01*
X3625Y1966D02*
X3631Y1966D01*
X1060Y1965D02*
X1066Y1965D01*
X1084Y1965D02*
X1090Y1965D01*
X1105Y1965D02*
X1111Y1965D01*
X1146Y1965D02*
X1152Y1965D01*
X1210Y1965D02*
X1216Y1965D01*
X1260Y1965D02*
X1266Y1965D01*
X1778Y1965D02*
X1785Y1965D01*
X1876Y1965D02*
X1883Y1965D01*
X2028Y1965D02*
X2035Y1965D01*
X2126Y1965D02*
X2133Y1965D01*
X2278Y1965D02*
X2285Y1965D01*
X2376Y1965D02*
X2382Y1965D01*
X2528Y1965D02*
X2535Y1965D01*
X2626Y1965D02*
X2632Y1965D01*
X2778Y1965D02*
X2785Y1965D01*
X2875Y1965D02*
X2882Y1965D01*
X3028Y1965D02*
X3035Y1965D01*
X3125Y1965D02*
X3132Y1965D01*
X3278Y1965D02*
X3285Y1965D01*
X3375Y1965D02*
X3382Y1965D01*
X3528Y1965D02*
X3535Y1965D01*
X3625Y1965D02*
X3632Y1965D01*
X1060Y1964D02*
X1066Y1964D01*
X1084Y1964D02*
X1090Y1964D01*
X1105Y1964D02*
X1111Y1964D01*
X1146Y1964D02*
X1152Y1964D01*
X1210Y1964D02*
X1216Y1964D01*
X1260Y1964D02*
X1266Y1964D01*
X1777Y1964D02*
X1784Y1964D01*
X1877Y1964D02*
X1884Y1964D01*
X2027Y1964D02*
X2034Y1964D01*
X2127Y1964D02*
X2134Y1964D01*
X2277Y1964D02*
X2284Y1964D01*
X2377Y1964D02*
X2384Y1964D01*
X2527Y1964D02*
X2534Y1964D01*
X2627Y1964D02*
X2634Y1964D01*
X2777Y1964D02*
X2784Y1964D01*
X2877Y1964D02*
X2884Y1964D01*
X3027Y1964D02*
X3034Y1964D01*
X3127Y1964D02*
X3134Y1964D01*
X3277Y1964D02*
X3284Y1964D01*
X3377Y1964D02*
X3383Y1964D01*
X3527Y1964D02*
X3534Y1964D01*
X3627Y1964D02*
X3633Y1964D01*
X1060Y1963D02*
X1066Y1963D01*
X1084Y1963D02*
X1090Y1963D01*
X1105Y1963D02*
X1111Y1963D01*
X1146Y1963D02*
X1152Y1963D01*
X1210Y1963D02*
X1216Y1963D01*
X1260Y1963D02*
X1266Y1963D01*
X1776Y1963D02*
X1783Y1963D01*
X1878Y1963D02*
X1885Y1963D01*
X2026Y1963D02*
X2033Y1963D01*
X2128Y1963D02*
X2135Y1963D01*
X2276Y1963D02*
X2283Y1963D01*
X2378Y1963D02*
X2385Y1963D01*
X2526Y1963D02*
X2533Y1963D01*
X2628Y1963D02*
X2635Y1963D01*
X2776Y1963D02*
X2783Y1963D01*
X2878Y1963D02*
X2885Y1963D01*
X3026Y1963D02*
X3033Y1963D01*
X3128Y1963D02*
X3135Y1963D01*
X3276Y1963D02*
X3283Y1963D01*
X3378Y1963D02*
X3385Y1963D01*
X3526Y1963D02*
X3533Y1963D01*
X3628Y1963D02*
X3634Y1963D01*
X1059Y1962D02*
X1066Y1962D01*
X1084Y1962D02*
X1090Y1962D01*
X1105Y1962D02*
X1111Y1962D01*
X1146Y1962D02*
X1152Y1962D01*
X1209Y1962D02*
X1216Y1962D01*
X1260Y1962D02*
X1266Y1962D01*
X1775Y1962D02*
X1782Y1962D01*
X1879Y1962D02*
X1886Y1962D01*
X2025Y1962D02*
X2032Y1962D01*
X2129Y1962D02*
X2136Y1962D01*
X2275Y1962D02*
X2282Y1962D01*
X2379Y1962D02*
X2386Y1962D01*
X2525Y1962D02*
X2531Y1962D01*
X2629Y1962D02*
X2636Y1962D01*
X2775Y1962D02*
X2781Y1962D01*
X2879Y1962D02*
X2886Y1962D01*
X3025Y1962D02*
X3031Y1962D01*
X3129Y1962D02*
X3136Y1962D01*
X3275Y1962D02*
X3281Y1962D01*
X3379Y1962D02*
X3385Y1962D01*
X3525Y1962D02*
X3531Y1962D01*
X3629Y1962D02*
X3635Y1962D01*
X1058Y1961D02*
X1066Y1961D01*
X1084Y1961D02*
X1090Y1961D01*
X1105Y1961D02*
X1111Y1961D01*
X1146Y1961D02*
X1152Y1961D01*
X1208Y1961D02*
X1216Y1961D01*
X1259Y1961D02*
X1266Y1961D01*
X1774Y1961D02*
X1780Y1961D01*
X1880Y1961D02*
X1887Y1961D01*
X2024Y1961D02*
X2030Y1961D01*
X2130Y1961D02*
X2137Y1961D01*
X2274Y1961D02*
X2280Y1961D01*
X2380Y1961D02*
X2387Y1961D01*
X2524Y1961D02*
X2530Y1961D01*
X2630Y1961D02*
X2637Y1961D01*
X2774Y1961D02*
X2780Y1961D01*
X2880Y1961D02*
X2887Y1961D01*
X3024Y1961D02*
X3030Y1961D01*
X3130Y1961D02*
X3136Y1961D01*
X3274Y1961D02*
X3280Y1961D01*
X3380Y1961D02*
X3386Y1961D01*
X3524Y1961D02*
X3530Y1961D01*
X3630Y1961D02*
X3636Y1961D01*
X1056Y1960D02*
X1066Y1960D01*
X1084Y1960D02*
X1090Y1960D01*
X1105Y1960D02*
X1111Y1960D01*
X1146Y1960D02*
X1152Y1960D01*
X1206Y1960D02*
X1216Y1960D01*
X1259Y1960D02*
X1266Y1960D01*
X1773Y1960D02*
X1779Y1960D01*
X1882Y1960D02*
X1888Y1960D01*
X2023Y1960D02*
X2029Y1960D01*
X2132Y1960D02*
X2138Y1960D01*
X2273Y1960D02*
X2279Y1960D01*
X2381Y1960D02*
X2388Y1960D01*
X2523Y1960D02*
X2529Y1960D01*
X2631Y1960D02*
X2638Y1960D01*
X2773Y1960D02*
X2779Y1960D01*
X2881Y1960D02*
X2888Y1960D01*
X3023Y1960D02*
X3029Y1960D01*
X3131Y1960D02*
X3137Y1960D01*
X3273Y1960D02*
X3279Y1960D01*
X3381Y1960D02*
X3387Y1960D01*
X3523Y1960D02*
X3529Y1960D01*
X3631Y1960D02*
X3637Y1960D01*
X1055Y1959D02*
X1065Y1959D01*
X1084Y1959D02*
X1090Y1959D01*
X1105Y1959D02*
X1111Y1959D01*
X1146Y1959D02*
X1152Y1959D01*
X1205Y1959D02*
X1215Y1959D01*
X1257Y1959D02*
X1265Y1959D01*
X1772Y1959D02*
X1778Y1959D01*
X1883Y1959D02*
X1889Y1959D01*
X2022Y1959D02*
X2028Y1959D01*
X2133Y1959D02*
X2139Y1959D01*
X2272Y1959D02*
X2278Y1959D01*
X2382Y1959D02*
X2389Y1959D01*
X2522Y1959D02*
X2528Y1959D01*
X2632Y1959D02*
X2639Y1959D01*
X2772Y1959D02*
X2778Y1959D01*
X2882Y1959D02*
X2888Y1959D01*
X3022Y1959D02*
X3028Y1959D01*
X3132Y1959D02*
X3138Y1959D01*
X3272Y1959D02*
X3278Y1959D01*
X3382Y1959D02*
X3388Y1959D01*
X3522Y1959D02*
X3528Y1959D01*
X3632Y1959D02*
X3638Y1959D01*
X1054Y1958D02*
X1064Y1958D01*
X1084Y1958D02*
X1090Y1958D01*
X1105Y1958D02*
X1111Y1958D01*
X1146Y1958D02*
X1152Y1958D01*
X1204Y1958D02*
X1214Y1958D01*
X1240Y1958D02*
X1265Y1958D01*
X1771Y1958D02*
X1777Y1958D01*
X1884Y1958D02*
X1890Y1958D01*
X2021Y1958D02*
X2027Y1958D01*
X2134Y1958D02*
X2140Y1958D01*
X2271Y1958D02*
X2277Y1958D01*
X2383Y1958D02*
X2389Y1958D01*
X2521Y1958D02*
X2527Y1958D01*
X2633Y1958D02*
X2639Y1958D01*
X2771Y1958D02*
X2777Y1958D01*
X2883Y1958D02*
X2889Y1958D01*
X3021Y1958D02*
X3027Y1958D01*
X3133Y1958D02*
X3139Y1958D01*
X3271Y1958D02*
X3277Y1958D01*
X3383Y1958D02*
X3389Y1958D01*
X3521Y1958D02*
X3527Y1958D01*
X3633Y1958D02*
X3639Y1958D01*
X1053Y1957D02*
X1063Y1957D01*
X1084Y1957D02*
X1090Y1957D01*
X1105Y1957D02*
X1111Y1957D01*
X1146Y1957D02*
X1152Y1957D01*
X1203Y1957D02*
X1213Y1957D01*
X1240Y1957D02*
X1264Y1957D01*
X1770Y1957D02*
X1776Y1957D01*
X1885Y1957D02*
X1890Y1957D01*
X2020Y1957D02*
X2026Y1957D01*
X2134Y1957D02*
X2140Y1957D01*
X2270Y1957D02*
X2276Y1957D01*
X2384Y1957D02*
X2390Y1957D01*
X2520Y1957D02*
X2526Y1957D01*
X2634Y1957D02*
X2640Y1957D01*
X2770Y1957D02*
X2776Y1957D01*
X2884Y1957D02*
X2890Y1957D01*
X3020Y1957D02*
X3026Y1957D01*
X3134Y1957D02*
X3140Y1957D01*
X3270Y1957D02*
X3276Y1957D01*
X3384Y1957D02*
X3390Y1957D01*
X3520Y1957D02*
X3526Y1957D01*
X3634Y1957D02*
X3640Y1957D01*
X1052Y1956D02*
X1062Y1956D01*
X1084Y1956D02*
X1090Y1956D01*
X1105Y1956D02*
X1111Y1956D01*
X1146Y1956D02*
X1152Y1956D01*
X1202Y1956D02*
X1212Y1956D01*
X1239Y1956D02*
X1264Y1956D01*
X1770Y1956D02*
X1775Y1956D01*
X1886Y1956D02*
X1891Y1956D01*
X2020Y1956D02*
X2025Y1956D01*
X2135Y1956D02*
X2141Y1956D01*
X2270Y1956D02*
X2275Y1956D01*
X2385Y1956D02*
X2391Y1956D01*
X2520Y1956D02*
X2525Y1956D01*
X2635Y1956D02*
X2641Y1956D01*
X2769Y1956D02*
X2775Y1956D01*
X2885Y1956D02*
X2891Y1956D01*
X3019Y1956D02*
X3025Y1956D01*
X3135Y1956D02*
X3141Y1956D01*
X3269Y1956D02*
X3275Y1956D01*
X3385Y1956D02*
X3391Y1956D01*
X3519Y1956D02*
X3525Y1956D01*
X3635Y1956D02*
X3641Y1956D01*
X1051Y1955D02*
X1060Y1955D01*
X1084Y1955D02*
X1090Y1955D01*
X1105Y1955D02*
X1111Y1955D01*
X1146Y1955D02*
X1152Y1955D01*
X1201Y1955D02*
X1210Y1955D01*
X1239Y1955D02*
X1263Y1955D01*
X1769Y1955D02*
X1774Y1955D01*
X1886Y1955D02*
X1892Y1955D01*
X2019Y1955D02*
X2024Y1955D01*
X2136Y1955D02*
X2142Y1955D01*
X2269Y1955D02*
X2274Y1955D01*
X2386Y1955D02*
X2392Y1955D01*
X2519Y1955D02*
X2524Y1955D01*
X2636Y1955D02*
X2642Y1955D01*
X2769Y1955D02*
X2774Y1955D01*
X2886Y1955D02*
X2892Y1955D01*
X3019Y1955D02*
X3024Y1955D01*
X3136Y1955D02*
X3142Y1955D01*
X3269Y1955D02*
X3274Y1955D01*
X3386Y1955D02*
X3392Y1955D01*
X3519Y1955D02*
X3524Y1955D01*
X3636Y1955D02*
X3642Y1955D01*
X1049Y1954D02*
X1059Y1954D01*
X1084Y1954D02*
X1090Y1954D01*
X1105Y1954D02*
X1111Y1954D01*
X1146Y1954D02*
X1152Y1954D01*
X1199Y1954D02*
X1209Y1954D01*
X1239Y1954D02*
X1264Y1954D01*
X1768Y1954D02*
X1774Y1954D01*
X1887Y1954D02*
X1893Y1954D01*
X2018Y1954D02*
X2024Y1954D01*
X2137Y1954D02*
X2143Y1954D01*
X2268Y1954D02*
X2274Y1954D01*
X2387Y1954D02*
X2393Y1954D01*
X2518Y1954D02*
X2523Y1954D01*
X2637Y1954D02*
X2643Y1954D01*
X2768Y1954D02*
X2773Y1954D01*
X2887Y1954D02*
X2893Y1954D01*
X3018Y1954D02*
X3023Y1954D01*
X3137Y1954D02*
X3143Y1954D01*
X3268Y1954D02*
X3273Y1954D01*
X3387Y1954D02*
X3393Y1954D01*
X3518Y1954D02*
X3523Y1954D01*
X3637Y1954D02*
X3642Y1954D01*
X1048Y1953D02*
X1058Y1953D01*
X1084Y1953D02*
X1111Y1953D01*
X1146Y1953D02*
X1152Y1953D01*
X1198Y1953D02*
X1208Y1953D01*
X1240Y1953D02*
X1265Y1953D01*
X1767Y1953D02*
X1773Y1953D01*
X1888Y1953D02*
X1894Y1953D01*
X2017Y1953D02*
X2023Y1953D01*
X2138Y1953D02*
X2144Y1953D01*
X2267Y1953D02*
X2273Y1953D01*
X2388Y1953D02*
X2393Y1953D01*
X2517Y1953D02*
X2523Y1953D01*
X2638Y1953D02*
X2643Y1953D01*
X2767Y1953D02*
X2773Y1953D01*
X2888Y1953D02*
X2893Y1953D01*
X3017Y1953D02*
X3023Y1953D01*
X3138Y1953D02*
X3143Y1953D01*
X3267Y1953D02*
X3273Y1953D01*
X3388Y1953D02*
X3393Y1953D01*
X3517Y1953D02*
X3523Y1953D01*
X3638Y1953D02*
X3643Y1953D01*
X1047Y1952D02*
X1057Y1952D01*
X1084Y1952D02*
X1113Y1952D01*
X1146Y1952D02*
X1152Y1952D01*
X1161Y1952D02*
X1165Y1952D01*
X1197Y1952D02*
X1207Y1952D01*
X1242Y1952D02*
X1265Y1952D01*
X1767Y1952D02*
X1772Y1952D01*
X1889Y1952D02*
X1894Y1952D01*
X2017Y1952D02*
X2022Y1952D01*
X2139Y1952D02*
X2144Y1952D01*
X2267Y1952D02*
X2272Y1952D01*
X2389Y1952D02*
X2394Y1952D01*
X2516Y1952D02*
X2522Y1952D01*
X2639Y1952D02*
X2644Y1952D01*
X2766Y1952D02*
X2772Y1952D01*
X2889Y1952D02*
X2894Y1952D01*
X3016Y1952D02*
X3022Y1952D01*
X3139Y1952D02*
X3144Y1952D01*
X3266Y1952D02*
X3272Y1952D01*
X3389Y1952D02*
X3394Y1952D01*
X3516Y1952D02*
X3522Y1952D01*
X3639Y1952D02*
X3644Y1952D01*
X1046Y1951D02*
X1056Y1951D01*
X1084Y1951D02*
X1114Y1951D01*
X1146Y1951D02*
X1152Y1951D01*
X1160Y1951D02*
X1165Y1951D01*
X1196Y1951D02*
X1206Y1951D01*
X1258Y1951D02*
X1265Y1951D01*
X1766Y1951D02*
X1771Y1951D01*
X1890Y1951D02*
X1895Y1951D01*
X2016Y1951D02*
X2021Y1951D01*
X2140Y1951D02*
X2145Y1951D01*
X2266Y1951D02*
X2271Y1951D01*
X2390Y1951D02*
X2395Y1951D01*
X2516Y1951D02*
X2521Y1951D01*
X2640Y1951D02*
X2645Y1951D01*
X2766Y1951D02*
X2771Y1951D01*
X2890Y1951D02*
X2895Y1951D01*
X3016Y1951D02*
X3021Y1951D01*
X3140Y1951D02*
X3145Y1951D01*
X3266Y1951D02*
X3271Y1951D01*
X3390Y1951D02*
X3395Y1951D01*
X3516Y1951D02*
X3521Y1951D01*
X3639Y1951D02*
X3645Y1951D01*
X1046Y1950D02*
X1055Y1950D01*
X1084Y1950D02*
X1114Y1950D01*
X1146Y1950D02*
X1152Y1950D01*
X1160Y1950D02*
X1166Y1950D01*
X1196Y1950D02*
X1205Y1950D01*
X1259Y1950D02*
X1266Y1950D01*
X1765Y1950D02*
X1770Y1950D01*
X1891Y1950D02*
X1896Y1950D01*
X2015Y1950D02*
X2020Y1950D01*
X2141Y1950D02*
X2146Y1950D01*
X2265Y1950D02*
X2270Y1950D01*
X2390Y1950D02*
X2396Y1950D01*
X2515Y1950D02*
X2520Y1950D01*
X2640Y1950D02*
X2645Y1950D01*
X2765Y1950D02*
X2770Y1950D01*
X2890Y1950D02*
X2895Y1950D01*
X3015Y1950D02*
X3020Y1950D01*
X3140Y1950D02*
X3145Y1950D01*
X3265Y1950D02*
X3270Y1950D01*
X3390Y1950D02*
X3395Y1950D01*
X3515Y1950D02*
X3520Y1950D01*
X3640Y1950D02*
X3645Y1950D01*
X1046Y1949D02*
X1053Y1949D01*
X1084Y1949D02*
X1114Y1949D01*
X1146Y1949D02*
X1152Y1949D01*
X1160Y1949D02*
X1166Y1949D01*
X1196Y1949D02*
X1203Y1949D01*
X1260Y1949D02*
X1266Y1949D01*
X1765Y1949D02*
X1770Y1949D01*
X1891Y1949D02*
X1896Y1949D01*
X2015Y1949D02*
X2020Y1949D01*
X2141Y1949D02*
X2146Y1949D01*
X2264Y1949D02*
X2270Y1949D01*
X2391Y1949D02*
X2396Y1949D01*
X2514Y1949D02*
X2520Y1949D01*
X2641Y1949D02*
X2646Y1949D01*
X2764Y1949D02*
X2770Y1949D01*
X2891Y1949D02*
X2896Y1949D01*
X3014Y1949D02*
X3020Y1949D01*
X3141Y1949D02*
X3146Y1949D01*
X3264Y1949D02*
X3269Y1949D01*
X3391Y1949D02*
X3396Y1949D01*
X3514Y1949D02*
X3519Y1949D01*
X3641Y1949D02*
X3646Y1949D01*
X1046Y1948D02*
X1052Y1948D01*
X1084Y1948D02*
X1114Y1948D01*
X1146Y1948D02*
X1152Y1948D01*
X1160Y1948D02*
X1166Y1948D01*
X1196Y1948D02*
X1202Y1948D01*
X1260Y1948D02*
X1266Y1948D01*
X1764Y1948D02*
X1769Y1948D01*
X1892Y1948D02*
X1897Y1948D01*
X2014Y1948D02*
X2019Y1948D01*
X2142Y1948D02*
X2147Y1948D01*
X2264Y1948D02*
X2269Y1948D01*
X2392Y1948D02*
X2397Y1948D01*
X2514Y1948D02*
X2519Y1948D01*
X2642Y1948D02*
X2647Y1948D01*
X2764Y1948D02*
X2769Y1948D01*
X2892Y1948D02*
X2897Y1948D01*
X3014Y1948D02*
X3019Y1948D01*
X3142Y1948D02*
X3147Y1948D01*
X3264Y1948D02*
X3269Y1948D01*
X3392Y1948D02*
X3397Y1948D01*
X3514Y1948D02*
X3519Y1948D01*
X3642Y1948D02*
X3647Y1948D01*
X1046Y1947D02*
X1052Y1947D01*
X1084Y1947D02*
X1113Y1947D01*
X1146Y1947D02*
X1152Y1947D01*
X1160Y1947D02*
X1166Y1947D01*
X1196Y1947D02*
X1202Y1947D01*
X1260Y1947D02*
X1266Y1947D01*
X1763Y1947D02*
X1768Y1947D01*
X1893Y1947D02*
X1898Y1947D01*
X2013Y1947D02*
X2018Y1947D01*
X2143Y1947D02*
X2147Y1947D01*
X2263Y1947D02*
X2268Y1947D01*
X2393Y1947D02*
X2397Y1947D01*
X2513Y1947D02*
X2518Y1947D01*
X2643Y1947D02*
X2647Y1947D01*
X2763Y1947D02*
X2768Y1947D01*
X2892Y1947D02*
X2897Y1947D01*
X3013Y1947D02*
X3018Y1947D01*
X3142Y1947D02*
X3147Y1947D01*
X3263Y1947D02*
X3268Y1947D01*
X3392Y1947D02*
X3397Y1947D01*
X3513Y1947D02*
X3518Y1947D01*
X3642Y1947D02*
X3647Y1947D01*
X1046Y1946D02*
X1052Y1946D01*
X1104Y1946D02*
X1111Y1946D01*
X1146Y1946D02*
X1152Y1946D01*
X1160Y1946D02*
X1166Y1946D01*
X1196Y1946D02*
X1202Y1946D01*
X1260Y1946D02*
X1266Y1946D01*
X1763Y1946D02*
X1768Y1946D01*
X1893Y1946D02*
X1898Y1946D01*
X2013Y1946D02*
X2018Y1946D01*
X2143Y1946D02*
X2148Y1946D01*
X2263Y1946D02*
X2268Y1946D01*
X2393Y1946D02*
X2398Y1946D01*
X2513Y1946D02*
X2518Y1946D01*
X2643Y1946D02*
X2648Y1946D01*
X2762Y1946D02*
X2768Y1946D01*
X2893Y1946D02*
X2898Y1946D01*
X3012Y1946D02*
X3017Y1946D01*
X3143Y1946D02*
X3148Y1946D01*
X3262Y1946D02*
X3267Y1946D01*
X3393Y1946D02*
X3398Y1946D01*
X3512Y1946D02*
X3517Y1946D01*
X3643Y1946D02*
X3648Y1946D01*
X1046Y1945D02*
X1052Y1945D01*
X1105Y1945D02*
X1111Y1945D01*
X1146Y1945D02*
X1152Y1945D01*
X1160Y1945D02*
X1166Y1945D01*
X1196Y1945D02*
X1202Y1945D01*
X1260Y1945D02*
X1266Y1945D01*
X1762Y1945D02*
X1767Y1945D01*
X1894Y1945D02*
X1899Y1945D01*
X2012Y1945D02*
X2017Y1945D01*
X2144Y1945D02*
X2149Y1945D01*
X2262Y1945D02*
X2267Y1945D01*
X2394Y1945D02*
X2399Y1945D01*
X2512Y1945D02*
X2517Y1945D01*
X2644Y1945D02*
X2649Y1945D01*
X2762Y1945D02*
X2767Y1945D01*
X2894Y1945D02*
X2899Y1945D01*
X3012Y1945D02*
X3017Y1945D01*
X3144Y1945D02*
X3149Y1945D01*
X3262Y1945D02*
X3267Y1945D01*
X3394Y1945D02*
X3399Y1945D01*
X3512Y1945D02*
X3517Y1945D01*
X3644Y1945D02*
X3648Y1945D01*
X1046Y1944D02*
X1052Y1944D01*
X1105Y1944D02*
X1111Y1944D01*
X1146Y1944D02*
X1152Y1944D01*
X1160Y1944D02*
X1166Y1944D01*
X1196Y1944D02*
X1202Y1944D01*
X1260Y1944D02*
X1266Y1944D01*
X1762Y1944D02*
X1766Y1944D01*
X1895Y1944D02*
X1899Y1944D01*
X2012Y1944D02*
X2016Y1944D01*
X2145Y1944D02*
X2149Y1944D01*
X2261Y1944D02*
X2266Y1944D01*
X2395Y1944D02*
X2399Y1944D01*
X2511Y1944D02*
X2516Y1944D01*
X2644Y1944D02*
X2649Y1944D01*
X2761Y1944D02*
X2766Y1944D01*
X2894Y1944D02*
X2899Y1944D01*
X3011Y1944D02*
X3016Y1944D01*
X3144Y1944D02*
X3149Y1944D01*
X3261Y1944D02*
X3266Y1944D01*
X3394Y1944D02*
X3399Y1944D01*
X3511Y1944D02*
X3516Y1944D01*
X3644Y1944D02*
X3649Y1944D01*
X1046Y1943D02*
X1052Y1943D01*
X1105Y1943D02*
X1111Y1943D01*
X1146Y1943D02*
X1152Y1943D01*
X1160Y1943D02*
X1166Y1943D01*
X1196Y1943D02*
X1202Y1943D01*
X1260Y1943D02*
X1266Y1943D01*
X1761Y1943D02*
X1766Y1943D01*
X1895Y1943D02*
X1900Y1943D01*
X2011Y1943D02*
X2016Y1943D01*
X2145Y1943D02*
X2150Y1943D01*
X2261Y1943D02*
X2266Y1943D01*
X2395Y1943D02*
X2400Y1943D01*
X2511Y1943D02*
X2516Y1943D01*
X2645Y1943D02*
X2650Y1943D01*
X2761Y1943D02*
X2766Y1943D01*
X2895Y1943D02*
X2900Y1943D01*
X3011Y1943D02*
X3016Y1943D01*
X3145Y1943D02*
X3150Y1943D01*
X3261Y1943D02*
X3266Y1943D01*
X3395Y1943D02*
X3400Y1943D01*
X3511Y1943D02*
X3516Y1943D01*
X3645Y1943D02*
X3649Y1943D01*
X1046Y1942D02*
X1052Y1942D01*
X1105Y1942D02*
X1111Y1942D01*
X1146Y1942D02*
X1152Y1942D01*
X1160Y1942D02*
X1166Y1942D01*
X1196Y1942D02*
X1202Y1942D01*
X1260Y1942D02*
X1266Y1942D01*
X1760Y1942D02*
X1765Y1942D01*
X1896Y1942D02*
X1900Y1942D01*
X2010Y1942D02*
X2015Y1942D01*
X2146Y1942D02*
X2150Y1942D01*
X2260Y1942D02*
X2265Y1942D01*
X2396Y1942D02*
X2400Y1942D01*
X2510Y1942D02*
X2515Y1942D01*
X2646Y1942D02*
X2650Y1942D01*
X2760Y1942D02*
X2765Y1942D01*
X2896Y1942D02*
X2900Y1942D01*
X3010Y1942D02*
X3015Y1942D01*
X3146Y1942D02*
X3150Y1942D01*
X3260Y1942D02*
X3265Y1942D01*
X3396Y1942D02*
X3400Y1942D01*
X3510Y1942D02*
X3515Y1942D01*
X3646Y1942D02*
X3650Y1942D01*
X1046Y1941D02*
X1052Y1941D01*
X1105Y1941D02*
X1111Y1941D01*
X1146Y1941D02*
X1152Y1941D01*
X1160Y1941D02*
X1166Y1941D01*
X1196Y1941D02*
X1202Y1941D01*
X1260Y1941D02*
X1266Y1941D01*
X1760Y1941D02*
X1765Y1941D01*
X1896Y1941D02*
X1901Y1941D01*
X2010Y1941D02*
X2015Y1941D01*
X2146Y1941D02*
X2151Y1941D01*
X2260Y1941D02*
X2265Y1941D01*
X2396Y1941D02*
X2401Y1941D01*
X2510Y1941D02*
X2515Y1941D01*
X2646Y1941D02*
X2651Y1941D01*
X2760Y1941D02*
X2765Y1941D01*
X2896Y1941D02*
X2901Y1941D01*
X3010Y1941D02*
X3015Y1941D01*
X3146Y1941D02*
X3151Y1941D01*
X3260Y1941D02*
X3264Y1941D01*
X3396Y1941D02*
X3401Y1941D01*
X3510Y1941D02*
X3514Y1941D01*
X3646Y1941D02*
X3651Y1941D01*
X1046Y1940D02*
X1052Y1940D01*
X1105Y1940D02*
X1111Y1940D01*
X1146Y1940D02*
X1152Y1940D01*
X1160Y1940D02*
X1166Y1940D01*
X1196Y1940D02*
X1202Y1940D01*
X1260Y1940D02*
X1266Y1940D01*
X1759Y1940D02*
X1764Y1940D01*
X1897Y1940D02*
X1901Y1940D01*
X2009Y1940D02*
X2014Y1940D01*
X2147Y1940D02*
X2151Y1940D01*
X2259Y1940D02*
X2264Y1940D01*
X2397Y1940D02*
X2401Y1940D01*
X2509Y1940D02*
X2514Y1940D01*
X2647Y1940D02*
X2651Y1940D01*
X2759Y1940D02*
X2764Y1940D01*
X2897Y1940D02*
X2901Y1940D01*
X3009Y1940D02*
X3014Y1940D01*
X3147Y1940D02*
X3151Y1940D01*
X3259Y1940D02*
X3264Y1940D01*
X3397Y1940D02*
X3401Y1940D01*
X3509Y1940D02*
X3514Y1940D01*
X3647Y1940D02*
X3651Y1940D01*
X1046Y1939D02*
X1052Y1939D01*
X1105Y1939D02*
X1111Y1939D01*
X1146Y1939D02*
X1152Y1939D01*
X1160Y1939D02*
X1166Y1939D01*
X1196Y1939D02*
X1202Y1939D01*
X1260Y1939D02*
X1266Y1939D01*
X1759Y1939D02*
X1764Y1939D01*
X1897Y1939D02*
X1902Y1939D01*
X2009Y1939D02*
X2014Y1939D01*
X2147Y1939D02*
X2152Y1939D01*
X2259Y1939D02*
X2264Y1939D01*
X2397Y1939D02*
X2402Y1939D01*
X2509Y1939D02*
X2514Y1939D01*
X2647Y1939D02*
X2652Y1939D01*
X2759Y1939D02*
X2763Y1939D01*
X2897Y1939D02*
X2902Y1939D01*
X3009Y1939D02*
X3013Y1939D01*
X3147Y1939D02*
X3152Y1939D01*
X3259Y1939D02*
X3263Y1939D01*
X3397Y1939D02*
X3402Y1939D01*
X3509Y1939D02*
X3513Y1939D01*
X3647Y1939D02*
X3652Y1939D01*
X1046Y1938D02*
X1052Y1938D01*
X1105Y1938D02*
X1111Y1938D01*
X1146Y1938D02*
X1152Y1938D01*
X1160Y1938D02*
X1166Y1938D01*
X1196Y1938D02*
X1202Y1938D01*
X1260Y1938D02*
X1266Y1938D01*
X1759Y1938D02*
X1763Y1938D01*
X1898Y1938D02*
X1902Y1938D01*
X2009Y1938D02*
X2013Y1938D01*
X2148Y1938D02*
X2152Y1938D01*
X2258Y1938D02*
X2263Y1938D01*
X2398Y1938D02*
X2402Y1938D01*
X2508Y1938D02*
X2513Y1938D01*
X2648Y1938D02*
X2652Y1938D01*
X2758Y1938D02*
X2763Y1938D01*
X2898Y1938D02*
X2902Y1938D01*
X3008Y1938D02*
X3013Y1938D01*
X3148Y1938D02*
X3152Y1938D01*
X3258Y1938D02*
X3263Y1938D01*
X3398Y1938D02*
X3402Y1938D01*
X3508Y1938D02*
X3513Y1938D01*
X3648Y1938D02*
X3652Y1938D01*
X1046Y1937D02*
X1052Y1937D01*
X1105Y1937D02*
X1111Y1937D01*
X1146Y1937D02*
X1152Y1937D01*
X1160Y1937D02*
X1166Y1937D01*
X1196Y1937D02*
X1202Y1937D01*
X1260Y1937D02*
X1266Y1937D01*
X1758Y1937D02*
X1763Y1937D01*
X1898Y1937D02*
X1903Y1937D01*
X2008Y1937D02*
X2013Y1937D01*
X2148Y1937D02*
X2153Y1937D01*
X2258Y1937D02*
X2263Y1937D01*
X2398Y1937D02*
X2403Y1937D01*
X2508Y1937D02*
X2512Y1937D01*
X2648Y1937D02*
X2653Y1937D01*
X2758Y1937D02*
X2762Y1937D01*
X2898Y1937D02*
X2902Y1937D01*
X3008Y1937D02*
X3012Y1937D01*
X3148Y1937D02*
X3152Y1937D01*
X3258Y1937D02*
X3262Y1937D01*
X3398Y1937D02*
X3402Y1937D01*
X3508Y1937D02*
X3512Y1937D01*
X3648Y1937D02*
X3652Y1937D01*
X1046Y1936D02*
X1052Y1936D01*
X1105Y1936D02*
X1111Y1936D01*
X1146Y1936D02*
X1152Y1936D01*
X1160Y1936D02*
X1166Y1936D01*
X1196Y1936D02*
X1202Y1936D01*
X1260Y1936D02*
X1266Y1936D01*
X1758Y1936D02*
X1762Y1936D01*
X1899Y1936D02*
X1903Y1936D01*
X2008Y1936D02*
X2012Y1936D01*
X2149Y1936D02*
X2153Y1936D01*
X2258Y1936D02*
X2262Y1936D01*
X2399Y1936D02*
X2403Y1936D01*
X2508Y1936D02*
X2512Y1936D01*
X2649Y1936D02*
X2653Y1936D01*
X2758Y1936D02*
X2762Y1936D01*
X2899Y1936D02*
X2903Y1936D01*
X3008Y1936D02*
X3012Y1936D01*
X3149Y1936D02*
X3153Y1936D01*
X3257Y1936D02*
X3262Y1936D01*
X3399Y1936D02*
X3403Y1936D01*
X3507Y1936D02*
X3512Y1936D01*
X3649Y1936D02*
X3653Y1936D01*
X1046Y1935D02*
X1052Y1935D01*
X1105Y1935D02*
X1111Y1935D01*
X1134Y1935D02*
X1166Y1935D01*
X1196Y1935D02*
X1202Y1935D01*
X1234Y1935D02*
X1266Y1935D01*
X1757Y1935D02*
X1762Y1935D01*
X1899Y1935D02*
X1903Y1935D01*
X2007Y1935D02*
X2012Y1935D01*
X2149Y1935D02*
X2153Y1935D01*
X2257Y1935D02*
X2262Y1935D01*
X2399Y1935D02*
X2403Y1935D01*
X2507Y1935D02*
X2512Y1935D01*
X2649Y1935D02*
X2653Y1935D01*
X2757Y1935D02*
X2762Y1935D01*
X2899Y1935D02*
X2903Y1935D01*
X3007Y1935D02*
X3012Y1935D01*
X3149Y1935D02*
X3153Y1935D01*
X3257Y1935D02*
X3262Y1935D01*
X3399Y1935D02*
X3403Y1935D01*
X3507Y1935D02*
X3511Y1935D01*
X3649Y1935D02*
X3653Y1935D01*
X1046Y1934D02*
X1052Y1934D01*
X1105Y1934D02*
X1111Y1934D01*
X1133Y1934D02*
X1166Y1934D01*
X1196Y1934D02*
X1202Y1934D01*
X1233Y1934D02*
X1266Y1934D01*
X1757Y1934D02*
X1761Y1934D01*
X1900Y1934D02*
X1904Y1934D01*
X2007Y1934D02*
X2011Y1934D01*
X2150Y1934D02*
X2154Y1934D01*
X2257Y1934D02*
X2261Y1934D01*
X2400Y1934D02*
X2404Y1934D01*
X2507Y1934D02*
X2511Y1934D01*
X2650Y1934D02*
X2654Y1934D01*
X2757Y1934D02*
X2761Y1934D01*
X2899Y1934D02*
X2904Y1934D01*
X3007Y1934D02*
X3011Y1934D01*
X3149Y1934D02*
X3154Y1934D01*
X3257Y1934D02*
X3261Y1934D01*
X3399Y1934D02*
X3404Y1934D01*
X3507Y1934D02*
X3511Y1934D01*
X3649Y1934D02*
X3654Y1934D01*
X1046Y1933D02*
X1052Y1933D01*
X1105Y1933D02*
X1111Y1933D01*
X1133Y1933D02*
X1166Y1933D01*
X1196Y1933D02*
X1202Y1933D01*
X1232Y1933D02*
X1265Y1933D01*
X1757Y1933D02*
X1761Y1933D01*
X1900Y1933D02*
X1904Y1933D01*
X2006Y1933D02*
X2011Y1933D01*
X2150Y1933D02*
X2154Y1933D01*
X2256Y1933D02*
X2261Y1933D01*
X2400Y1933D02*
X2404Y1933D01*
X2506Y1933D02*
X2511Y1933D01*
X2650Y1933D02*
X2654Y1933D01*
X2756Y1933D02*
X2761Y1933D01*
X2900Y1933D02*
X2904Y1933D01*
X3006Y1933D02*
X3011Y1933D01*
X3150Y1933D02*
X3154Y1933D01*
X3256Y1933D02*
X3261Y1933D01*
X3400Y1933D02*
X3404Y1933D01*
X3506Y1933D02*
X3511Y1933D01*
X3650Y1933D02*
X3654Y1933D01*
X1046Y1932D02*
X1052Y1932D01*
X1105Y1932D02*
X1111Y1932D01*
X1132Y1932D02*
X1166Y1932D01*
X1196Y1932D02*
X1202Y1932D01*
X1232Y1932D02*
X1265Y1932D01*
X1756Y1932D02*
X1761Y1932D01*
X1900Y1932D02*
X1905Y1932D01*
X2006Y1932D02*
X2010Y1932D01*
X2150Y1932D02*
X2155Y1932D01*
X2256Y1932D02*
X2260Y1932D01*
X2400Y1932D02*
X2405Y1932D01*
X2506Y1932D02*
X2510Y1932D01*
X2650Y1932D02*
X2655Y1932D01*
X2756Y1932D02*
X2760Y1932D01*
X2900Y1932D02*
X2904Y1932D01*
X3006Y1932D02*
X3010Y1932D01*
X3150Y1932D02*
X3154Y1932D01*
X3256Y1932D02*
X3260Y1932D01*
X3400Y1932D02*
X3404Y1932D01*
X3506Y1932D02*
X3510Y1932D01*
X3650Y1932D02*
X3654Y1932D01*
X1046Y1931D02*
X1052Y1931D01*
X1105Y1931D02*
X1110Y1931D01*
X1132Y1931D02*
X1166Y1931D01*
X1196Y1931D02*
X1202Y1931D01*
X1232Y1931D02*
X1264Y1931D01*
X1756Y1931D02*
X1760Y1931D01*
X1901Y1931D02*
X1905Y1931D01*
X2006Y1931D02*
X2010Y1931D01*
X2151Y1931D02*
X2155Y1931D01*
X2256Y1931D02*
X2260Y1931D01*
X2401Y1931D02*
X2405Y1931D01*
X2506Y1931D02*
X2510Y1931D01*
X2651Y1931D02*
X2655Y1931D01*
X2756Y1931D02*
X2760Y1931D01*
X2901Y1931D02*
X2905Y1931D01*
X3006Y1931D02*
X3010Y1931D01*
X3151Y1931D02*
X3155Y1931D01*
X3256Y1931D02*
X3260Y1931D01*
X3401Y1931D02*
X3405Y1931D01*
X3506Y1931D02*
X3510Y1931D01*
X3651Y1931D02*
X3655Y1931D01*
X1047Y1930D02*
X1051Y1930D01*
X1105Y1930D02*
X1110Y1930D01*
X1133Y1930D02*
X1165Y1930D01*
X1197Y1930D02*
X1201Y1930D01*
X1233Y1930D02*
X1263Y1930D01*
X1756Y1930D02*
X1760Y1930D01*
X1901Y1930D02*
X1905Y1930D01*
X2006Y1930D02*
X2010Y1930D01*
X2151Y1930D02*
X2155Y1930D01*
X2255Y1930D02*
X2260Y1930D01*
X2401Y1930D02*
X2405Y1930D01*
X2505Y1930D02*
X2510Y1930D01*
X2651Y1930D02*
X2655Y1930D01*
X2755Y1930D02*
X2760Y1930D01*
X2901Y1930D02*
X2905Y1930D01*
X3005Y1930D02*
X3010Y1930D01*
X3151Y1930D02*
X3155Y1930D01*
X3255Y1930D02*
X3259Y1930D01*
X3401Y1930D02*
X3405Y1930D01*
X3505Y1930D02*
X3509Y1930D01*
X3651Y1930D02*
X3655Y1930D01*
X1048Y1929D02*
X1050Y1929D01*
X1106Y1929D02*
X1109Y1929D01*
X1134Y1929D02*
X1164Y1929D01*
X1198Y1929D02*
X1200Y1929D01*
X1234Y1929D02*
X1262Y1929D01*
X1755Y1929D02*
X1759Y1929D01*
X1902Y1929D02*
X1906Y1929D01*
X2005Y1929D02*
X2009Y1929D01*
X2152Y1929D02*
X2155Y1929D01*
X2255Y1929D02*
X2259Y1929D01*
X2401Y1929D02*
X2405Y1929D01*
X2505Y1929D02*
X2509Y1929D01*
X2651Y1929D02*
X2655Y1929D01*
X2755Y1929D02*
X2759Y1929D01*
X2901Y1929D02*
X2905Y1929D01*
X3005Y1929D02*
X3009Y1929D01*
X3151Y1929D02*
X3155Y1929D01*
X3255Y1929D02*
X3259Y1929D01*
X3401Y1929D02*
X3405Y1929D01*
X3505Y1929D02*
X3509Y1929D01*
X3651Y1929D02*
X3655Y1929D01*
X1755Y1928D02*
X1759Y1928D01*
X1902Y1928D02*
X1906Y1928D01*
X2005Y1928D02*
X2009Y1928D01*
X2152Y1928D02*
X2156Y1928D01*
X2255Y1928D02*
X2259Y1928D01*
X2402Y1928D02*
X2406Y1928D01*
X2505Y1928D02*
X2509Y1928D01*
X2652Y1928D02*
X2656Y1928D01*
X2755Y1928D02*
X2759Y1928D01*
X2902Y1928D02*
X2906Y1928D01*
X3005Y1928D02*
X3009Y1928D01*
X3152Y1928D02*
X3156Y1928D01*
X3255Y1928D02*
X3259Y1928D01*
X3402Y1928D02*
X3406Y1928D01*
X3505Y1928D02*
X3509Y1928D01*
X3652Y1928D02*
X3656Y1928D01*
X1755Y1927D02*
X1759Y1927D01*
X1902Y1927D02*
X1906Y1927D01*
X2005Y1927D02*
X2009Y1927D01*
X2152Y1927D02*
X2156Y1927D01*
X2255Y1927D02*
X2259Y1927D01*
X2402Y1927D02*
X2406Y1927D01*
X2505Y1927D02*
X2509Y1927D01*
X2652Y1927D02*
X2656Y1927D01*
X2754Y1927D02*
X2759Y1927D01*
X2902Y1927D02*
X2906Y1927D01*
X3004Y1927D02*
X3009Y1927D01*
X3152Y1927D02*
X3156Y1927D01*
X3254Y1927D02*
X3259Y1927D01*
X3402Y1927D02*
X3406Y1927D01*
X3504Y1927D02*
X3509Y1927D01*
X3652Y1927D02*
X3656Y1927D01*
X1754Y1926D02*
X1759Y1926D01*
X1902Y1926D02*
X1906Y1926D01*
X2004Y1926D02*
X2008Y1926D01*
X2152Y1926D02*
X2156Y1926D01*
X2254Y1926D02*
X2258Y1926D01*
X2402Y1926D02*
X2406Y1926D01*
X2504Y1926D02*
X2508Y1926D01*
X2652Y1926D02*
X2656Y1926D01*
X2754Y1926D02*
X2758Y1926D01*
X2902Y1926D02*
X2906Y1926D01*
X3004Y1926D02*
X3008Y1926D01*
X3152Y1926D02*
X3156Y1926D01*
X3254Y1926D02*
X3258Y1926D01*
X3402Y1926D02*
X3406Y1926D01*
X3504Y1926D02*
X3508Y1926D01*
X3652Y1926D02*
X3656Y1926D01*
X1754Y1925D02*
X1758Y1925D01*
X1903Y1925D02*
X1907Y1925D01*
X2004Y1925D02*
X2008Y1925D01*
X2153Y1925D02*
X2157Y1925D01*
X2254Y1925D02*
X2258Y1925D01*
X2403Y1925D02*
X2407Y1925D01*
X2504Y1925D02*
X2508Y1925D01*
X2653Y1925D02*
X2657Y1925D01*
X2754Y1925D02*
X2758Y1925D01*
X2903Y1925D02*
X2907Y1925D01*
X3004Y1925D02*
X3008Y1925D01*
X3153Y1925D02*
X3156Y1925D01*
X3254Y1925D02*
X3258Y1925D01*
X3402Y1925D02*
X3406Y1925D01*
X3504Y1925D02*
X3508Y1925D01*
X3652Y1925D02*
X3656Y1925D01*
X1754Y1924D02*
X1758Y1924D01*
X1903Y1924D02*
X1907Y1924D01*
X2004Y1924D02*
X2008Y1924D01*
X2153Y1924D02*
X2157Y1924D01*
X2254Y1924D02*
X2258Y1924D01*
X2403Y1924D02*
X2407Y1924D01*
X2504Y1924D02*
X2508Y1924D01*
X2653Y1924D02*
X2657Y1924D01*
X2754Y1924D02*
X2758Y1924D01*
X2903Y1924D02*
X2907Y1924D01*
X3004Y1924D02*
X3008Y1924D01*
X3153Y1924D02*
X3157Y1924D01*
X3254Y1924D02*
X3258Y1924D01*
X3403Y1924D02*
X3407Y1924D01*
X3504Y1924D02*
X3508Y1924D01*
X3653Y1924D02*
X3657Y1924D01*
X1754Y1923D02*
X1758Y1923D01*
X1903Y1923D02*
X1907Y1923D01*
X2004Y1923D02*
X2008Y1923D01*
X2153Y1923D02*
X2157Y1923D01*
X2254Y1923D02*
X2258Y1923D01*
X2403Y1923D02*
X2407Y1923D01*
X2504Y1923D02*
X2508Y1923D01*
X2653Y1923D02*
X2657Y1923D01*
X2754Y1923D02*
X2757Y1923D01*
X2903Y1923D02*
X2907Y1923D01*
X3003Y1923D02*
X3007Y1923D01*
X3153Y1923D02*
X3157Y1923D01*
X3253Y1923D02*
X3257Y1923D01*
X3403Y1923D02*
X3407Y1923D01*
X3503Y1923D02*
X3507Y1923D01*
X3653Y1923D02*
X3657Y1923D01*
X1753Y1922D02*
X1757Y1922D01*
X1904Y1922D02*
X1907Y1922D01*
X2003Y1922D02*
X2007Y1922D01*
X2153Y1922D02*
X2157Y1922D01*
X2253Y1922D02*
X2257Y1922D01*
X2403Y1922D02*
X2407Y1922D01*
X2503Y1922D02*
X2507Y1922D01*
X2653Y1922D02*
X2657Y1922D01*
X2753Y1922D02*
X2757Y1922D01*
X2903Y1922D02*
X2907Y1922D01*
X3003Y1922D02*
X3007Y1922D01*
X3153Y1922D02*
X3157Y1922D01*
X3253Y1922D02*
X3257Y1922D01*
X3403Y1922D02*
X3407Y1922D01*
X3503Y1922D02*
X3507Y1922D01*
X3653Y1922D02*
X3657Y1922D01*
X1753Y1921D02*
X1757Y1921D01*
X1904Y1921D02*
X1908Y1921D01*
X2003Y1921D02*
X2007Y1921D01*
X2154Y1921D02*
X2157Y1921D01*
X2253Y1921D02*
X2257Y1921D01*
X2404Y1921D02*
X2407Y1921D01*
X2503Y1921D02*
X2507Y1921D01*
X2654Y1921D02*
X2657Y1921D01*
X2753Y1921D02*
X2757Y1921D01*
X2904Y1921D02*
X2907Y1921D01*
X3003Y1921D02*
X3007Y1921D01*
X3153Y1921D02*
X3157Y1921D01*
X3253Y1921D02*
X3257Y1921D01*
X3403Y1921D02*
X3407Y1921D01*
X3503Y1921D02*
X3507Y1921D01*
X3653Y1921D02*
X3657Y1921D01*
X1753Y1920D02*
X1757Y1920D01*
X1904Y1920D02*
X1908Y1920D01*
X2003Y1920D02*
X2007Y1920D01*
X2154Y1920D02*
X2158Y1920D01*
X2253Y1920D02*
X2257Y1920D01*
X2404Y1920D02*
X2408Y1920D01*
X2503Y1920D02*
X2507Y1920D01*
X2654Y1920D02*
X2658Y1920D01*
X2753Y1920D02*
X2757Y1920D01*
X2904Y1920D02*
X2908Y1920D01*
X3003Y1920D02*
X3007Y1920D01*
X3154Y1920D02*
X3158Y1920D01*
X3253Y1920D02*
X3257Y1920D01*
X3404Y1920D02*
X3407Y1920D01*
X3503Y1920D02*
X3507Y1920D01*
X3654Y1920D02*
X3657Y1920D01*
X1753Y1919D02*
X1757Y1919D01*
X1904Y1919D02*
X1908Y1919D01*
X2003Y1919D02*
X2007Y1919D01*
X2154Y1919D02*
X2158Y1919D01*
X2253Y1919D02*
X2257Y1919D01*
X2404Y1919D02*
X2408Y1919D01*
X2503Y1919D02*
X2507Y1919D01*
X2654Y1919D02*
X2658Y1919D01*
X2753Y1919D02*
X2757Y1919D01*
X2904Y1919D02*
X2908Y1919D01*
X3003Y1919D02*
X3007Y1919D01*
X3154Y1919D02*
X3158Y1919D01*
X3253Y1919D02*
X3257Y1919D01*
X3404Y1919D02*
X3408Y1919D01*
X3503Y1919D02*
X3507Y1919D01*
X3654Y1919D02*
X3658Y1919D01*
X1753Y1918D02*
X1757Y1918D01*
X1904Y1918D02*
X1908Y1918D01*
X2003Y1918D02*
X2007Y1918D01*
X2154Y1918D02*
X2158Y1918D01*
X2253Y1918D02*
X2257Y1918D01*
X2404Y1918D02*
X2408Y1918D01*
X2503Y1918D02*
X2507Y1918D01*
X2654Y1918D02*
X2658Y1918D01*
X2753Y1918D02*
X2756Y1918D01*
X2904Y1918D02*
X2908Y1918D01*
X3002Y1918D02*
X3006Y1918D01*
X3154Y1918D02*
X3158Y1918D01*
X3252Y1918D02*
X3256Y1918D01*
X3404Y1918D02*
X3408Y1918D01*
X3502Y1918D02*
X3506Y1918D01*
X3654Y1918D02*
X3658Y1918D01*
X1753Y1917D02*
X1756Y1917D01*
X1904Y1917D02*
X1908Y1917D01*
X2003Y1917D02*
X2006Y1917D01*
X2154Y1917D02*
X2158Y1917D01*
X2252Y1917D02*
X2256Y1917D01*
X2404Y1917D02*
X2408Y1917D01*
X2502Y1917D02*
X2506Y1917D01*
X2654Y1917D02*
X2658Y1917D01*
X2752Y1917D02*
X2756Y1917D01*
X2904Y1917D02*
X2908Y1917D01*
X3002Y1917D02*
X3006Y1917D01*
X3154Y1917D02*
X3158Y1917D01*
X3252Y1917D02*
X3256Y1917D01*
X3404Y1917D02*
X3408Y1917D01*
X3502Y1917D02*
X3506Y1917D01*
X3654Y1917D02*
X3658Y1917D01*
X1752Y1916D02*
X1756Y1916D01*
X1905Y1916D02*
X1908Y1916D01*
X2002Y1916D02*
X2006Y1916D01*
X2155Y1916D02*
X2158Y1916D01*
X2252Y1916D02*
X2256Y1916D01*
X2405Y1916D02*
X2408Y1916D01*
X2502Y1916D02*
X2506Y1916D01*
X2655Y1916D02*
X2658Y1916D01*
X2752Y1916D02*
X2756Y1916D01*
X2904Y1916D02*
X2908Y1916D01*
X3002Y1916D02*
X3006Y1916D01*
X3154Y1916D02*
X3158Y1916D01*
X3252Y1916D02*
X3256Y1916D01*
X3404Y1916D02*
X3408Y1916D01*
X3502Y1916D02*
X3506Y1916D01*
X3654Y1916D02*
X3658Y1916D01*
X1752Y1915D02*
X1756Y1915D01*
X1905Y1915D02*
X1908Y1915D01*
X2002Y1915D02*
X2006Y1915D01*
X2155Y1915D02*
X2158Y1915D01*
X2252Y1915D02*
X2256Y1915D01*
X2405Y1915D02*
X2408Y1915D01*
X2502Y1915D02*
X2506Y1915D01*
X2655Y1915D02*
X2658Y1915D01*
X2752Y1915D02*
X2756Y1915D01*
X2905Y1915D02*
X2908Y1915D01*
X3002Y1915D02*
X3006Y1915D01*
X3155Y1915D02*
X3158Y1915D01*
X3252Y1915D02*
X3256Y1915D01*
X3404Y1915D02*
X3408Y1915D01*
X3502Y1915D02*
X3506Y1915D01*
X3654Y1915D02*
X3658Y1915D01*
X1752Y1914D02*
X1756Y1914D01*
X1905Y1914D02*
X1909Y1914D01*
X2002Y1914D02*
X2006Y1914D01*
X2155Y1914D02*
X2159Y1914D01*
X2252Y1914D02*
X2256Y1914D01*
X2405Y1914D02*
X2409Y1914D01*
X2502Y1914D02*
X2506Y1914D01*
X2655Y1914D02*
X2658Y1914D01*
X2752Y1914D02*
X2756Y1914D01*
X2905Y1914D02*
X2908Y1914D01*
X3002Y1914D02*
X3006Y1914D01*
X3155Y1914D02*
X3158Y1914D01*
X3252Y1914D02*
X3256Y1914D01*
X3405Y1914D02*
X3408Y1914D01*
X3502Y1914D02*
X3506Y1914D01*
X3655Y1914D02*
X3658Y1914D01*
X1752Y1913D02*
X1756Y1913D01*
X1905Y1913D02*
X1909Y1913D01*
X2002Y1913D02*
X2006Y1913D01*
X2155Y1913D02*
X2159Y1913D01*
X2252Y1913D02*
X2256Y1913D01*
X2405Y1913D02*
X2409Y1913D01*
X2502Y1913D02*
X2506Y1913D01*
X2655Y1913D02*
X2659Y1913D01*
X2752Y1913D02*
X2756Y1913D01*
X2905Y1913D02*
X2909Y1913D01*
X3002Y1913D02*
X3006Y1913D01*
X3155Y1913D02*
X3158Y1913D01*
X3252Y1913D02*
X3256Y1913D01*
X3405Y1913D02*
X3408Y1913D01*
X3502Y1913D02*
X3506Y1913D01*
X3655Y1913D02*
X3658Y1913D01*
X1752Y1912D02*
X1756Y1912D01*
X1905Y1912D02*
X1909Y1912D01*
X2002Y1912D02*
X2006Y1912D01*
X2155Y1912D02*
X2159Y1912D01*
X2252Y1912D02*
X2256Y1912D01*
X2405Y1912D02*
X2409Y1912D01*
X2502Y1912D02*
X2506Y1912D01*
X2655Y1912D02*
X2659Y1912D01*
X2752Y1912D02*
X2756Y1912D01*
X2905Y1912D02*
X2909Y1912D01*
X3002Y1912D02*
X3006Y1912D01*
X3155Y1912D02*
X3159Y1912D01*
X3252Y1912D02*
X3256Y1912D01*
X3405Y1912D02*
X3409Y1912D01*
X3502Y1912D02*
X3506Y1912D01*
X3655Y1912D02*
X3658Y1912D01*
X1752Y1911D02*
X1756Y1911D01*
X1905Y1911D02*
X1909Y1911D01*
X2002Y1911D02*
X2006Y1911D01*
X2155Y1911D02*
X2159Y1911D01*
X2252Y1911D02*
X2256Y1911D01*
X2405Y1911D02*
X2409Y1911D01*
X2502Y1911D02*
X2506Y1911D01*
X2655Y1911D02*
X2659Y1911D01*
X2752Y1911D02*
X2756Y1911D01*
X2905Y1911D02*
X2909Y1911D01*
X3002Y1911D02*
X3006Y1911D01*
X3155Y1911D02*
X3159Y1911D01*
X3252Y1911D02*
X3256Y1911D01*
X3405Y1911D02*
X3409Y1911D01*
X3502Y1911D02*
X3506Y1911D01*
X3655Y1911D02*
X3659Y1911D01*
X1752Y1910D02*
X1756Y1910D01*
X1905Y1910D02*
X1909Y1910D01*
X2002Y1910D02*
X2006Y1910D01*
X2155Y1910D02*
X2159Y1910D01*
X2252Y1910D02*
X2256Y1910D01*
X2405Y1910D02*
X2409Y1910D01*
X2502Y1910D02*
X2506Y1910D01*
X2655Y1910D02*
X2659Y1910D01*
X2752Y1910D02*
X2756Y1910D01*
X2905Y1910D02*
X2909Y1910D01*
X3002Y1910D02*
X3005Y1910D01*
X3155Y1910D02*
X3159Y1910D01*
X3252Y1910D02*
X3255Y1910D01*
X3405Y1910D02*
X3409Y1910D01*
X3502Y1910D02*
X3505Y1910D01*
X3655Y1910D02*
X3659Y1910D01*
X1752Y1909D02*
X1756Y1909D01*
X1905Y1909D02*
X1909Y1909D01*
X2002Y1909D02*
X2006Y1909D01*
X2155Y1909D02*
X2159Y1909D01*
X2252Y1909D02*
X2256Y1909D01*
X2405Y1909D02*
X2409Y1909D01*
X2502Y1909D02*
X2506Y1909D01*
X2655Y1909D02*
X2659Y1909D01*
X2752Y1909D02*
X2755Y1909D01*
X2905Y1909D02*
X2909Y1909D01*
X3002Y1909D02*
X3005Y1909D01*
X3155Y1909D02*
X3159Y1909D01*
X3252Y1909D02*
X3255Y1909D01*
X3405Y1909D02*
X3409Y1909D01*
X3502Y1909D02*
X3505Y1909D01*
X3655Y1909D02*
X3659Y1909D01*
X1752Y1908D02*
X1756Y1908D01*
X1905Y1908D02*
X1909Y1908D01*
X2002Y1908D02*
X2006Y1908D01*
X2155Y1908D02*
X2159Y1908D01*
X2252Y1908D02*
X2256Y1908D01*
X2405Y1908D02*
X2409Y1908D01*
X2502Y1908D02*
X2506Y1908D01*
X2655Y1908D02*
X2659Y1908D01*
X2752Y1908D02*
X2755Y1908D01*
X2905Y1908D02*
X2909Y1908D01*
X3002Y1908D02*
X3005Y1908D01*
X3155Y1908D02*
X3159Y1908D01*
X3252Y1908D02*
X3255Y1908D01*
X3405Y1908D02*
X3409Y1908D01*
X3502Y1908D02*
X3505Y1908D01*
X3655Y1908D02*
X3659Y1908D01*
X1752Y1907D02*
X1756Y1907D01*
X1905Y1907D02*
X1909Y1907D01*
X2002Y1907D02*
X2006Y1907D01*
X2155Y1907D02*
X2159Y1907D01*
X2252Y1907D02*
X2256Y1907D01*
X2405Y1907D02*
X2409Y1907D01*
X2502Y1907D02*
X2506Y1907D01*
X2655Y1907D02*
X2659Y1907D01*
X2752Y1907D02*
X2755Y1907D01*
X2905Y1907D02*
X2909Y1907D01*
X3002Y1907D02*
X3005Y1907D01*
X3155Y1907D02*
X3159Y1907D01*
X3252Y1907D02*
X3255Y1907D01*
X3405Y1907D02*
X3409Y1907D01*
X3502Y1907D02*
X3505Y1907D01*
X3655Y1907D02*
X3659Y1907D01*
X1752Y1906D02*
X1756Y1906D01*
X1905Y1906D02*
X1909Y1906D01*
X2002Y1906D02*
X2006Y1906D01*
X2155Y1906D02*
X2159Y1906D01*
X2252Y1906D02*
X2256Y1906D01*
X2405Y1906D02*
X2409Y1906D01*
X2502Y1906D02*
X2506Y1906D01*
X2655Y1906D02*
X2659Y1906D01*
X2752Y1906D02*
X2755Y1906D01*
X2905Y1906D02*
X2909Y1906D01*
X3002Y1906D02*
X3005Y1906D01*
X3155Y1906D02*
X3159Y1906D01*
X3252Y1906D02*
X3255Y1906D01*
X3405Y1906D02*
X3409Y1906D01*
X3502Y1906D02*
X3505Y1906D01*
X3655Y1906D02*
X3659Y1906D01*
X1752Y1905D02*
X1756Y1905D01*
X1905Y1905D02*
X1909Y1905D01*
X2002Y1905D02*
X2006Y1905D01*
X2155Y1905D02*
X2159Y1905D01*
X2252Y1905D02*
X2256Y1905D01*
X2405Y1905D02*
X2409Y1905D01*
X2502Y1905D02*
X2506Y1905D01*
X2655Y1905D02*
X2659Y1905D01*
X2752Y1905D02*
X2755Y1905D01*
X2905Y1905D02*
X2909Y1905D01*
X3002Y1905D02*
X3005Y1905D01*
X3155Y1905D02*
X3159Y1905D01*
X3252Y1905D02*
X3255Y1905D01*
X3405Y1905D02*
X3409Y1905D01*
X3502Y1905D02*
X3505Y1905D01*
X3655Y1905D02*
X3659Y1905D01*
X1752Y1904D02*
X1756Y1904D01*
X1905Y1904D02*
X1909Y1904D01*
X2002Y1904D02*
X2006Y1904D01*
X2155Y1904D02*
X2159Y1904D01*
X2252Y1904D02*
X2256Y1904D01*
X2405Y1904D02*
X2409Y1904D01*
X2502Y1904D02*
X2505Y1904D01*
X2655Y1904D02*
X2659Y1904D01*
X2752Y1904D02*
X2755Y1904D01*
X2905Y1904D02*
X2909Y1904D01*
X3002Y1904D02*
X3005Y1904D01*
X3155Y1904D02*
X3159Y1904D01*
X3252Y1904D02*
X3255Y1904D01*
X3405Y1904D02*
X3409Y1904D01*
X3502Y1904D02*
X3505Y1904D01*
X3655Y1904D02*
X3659Y1904D01*
X1752Y1903D02*
X1756Y1903D01*
X1905Y1903D02*
X1909Y1903D01*
X2002Y1903D02*
X2006Y1903D01*
X2155Y1903D02*
X2159Y1903D01*
X2252Y1903D02*
X2256Y1903D01*
X2405Y1903D02*
X2409Y1903D01*
X2502Y1903D02*
X2505Y1903D01*
X2655Y1903D02*
X2659Y1903D01*
X2752Y1903D02*
X2755Y1903D01*
X2905Y1903D02*
X2909Y1903D01*
X3002Y1903D02*
X3005Y1903D01*
X3155Y1903D02*
X3159Y1903D01*
X3252Y1903D02*
X3255Y1903D01*
X3405Y1903D02*
X3409Y1903D01*
X3502Y1903D02*
X3505Y1903D01*
X3655Y1903D02*
X3659Y1903D01*
X1752Y1902D02*
X1756Y1902D01*
X1905Y1902D02*
X1909Y1902D01*
X2002Y1902D02*
X2006Y1902D01*
X2155Y1902D02*
X2159Y1902D01*
X2252Y1902D02*
X2256Y1902D01*
X2405Y1902D02*
X2409Y1902D01*
X2502Y1902D02*
X2506Y1902D01*
X2655Y1902D02*
X2659Y1902D01*
X2752Y1902D02*
X2755Y1902D01*
X2905Y1902D02*
X2909Y1902D01*
X3002Y1902D02*
X3005Y1902D01*
X3155Y1902D02*
X3159Y1902D01*
X3252Y1902D02*
X3255Y1902D01*
X3405Y1902D02*
X3409Y1902D01*
X3502Y1902D02*
X3505Y1902D01*
X3655Y1902D02*
X3659Y1902D01*
X1752Y1901D02*
X1756Y1901D01*
X1905Y1901D02*
X1909Y1901D01*
X2002Y1901D02*
X2006Y1901D01*
X2155Y1901D02*
X2159Y1901D01*
X2252Y1901D02*
X2256Y1901D01*
X2405Y1901D02*
X2409Y1901D01*
X2502Y1901D02*
X2506Y1901D01*
X2655Y1901D02*
X2659Y1901D01*
X2752Y1901D02*
X2756Y1901D01*
X2905Y1901D02*
X2909Y1901D01*
X3002Y1901D02*
X3006Y1901D01*
X3155Y1901D02*
X3159Y1901D01*
X3252Y1901D02*
X3255Y1901D01*
X3405Y1901D02*
X3409Y1901D01*
X3502Y1901D02*
X3505Y1901D01*
X3655Y1901D02*
X3659Y1901D01*
X1752Y1900D02*
X1756Y1900D01*
X1905Y1900D02*
X1909Y1900D01*
X2002Y1900D02*
X2006Y1900D01*
X2155Y1900D02*
X2159Y1900D01*
X2252Y1900D02*
X2256Y1900D01*
X2405Y1900D02*
X2409Y1900D01*
X2502Y1900D02*
X2506Y1900D01*
X2655Y1900D02*
X2659Y1900D01*
X2752Y1900D02*
X2756Y1900D01*
X2905Y1900D02*
X2909Y1900D01*
X3002Y1900D02*
X3006Y1900D01*
X3155Y1900D02*
X3159Y1900D01*
X3252Y1900D02*
X3256Y1900D01*
X3405Y1900D02*
X3409Y1900D01*
X3502Y1900D02*
X3506Y1900D01*
X3655Y1900D02*
X3659Y1900D01*
X1752Y1899D02*
X1756Y1899D01*
X1905Y1899D02*
X1909Y1899D01*
X2002Y1899D02*
X2006Y1899D01*
X2155Y1899D02*
X2159Y1899D01*
X2252Y1899D02*
X2256Y1899D01*
X2405Y1899D02*
X2409Y1899D01*
X2502Y1899D02*
X2506Y1899D01*
X2655Y1899D02*
X2659Y1899D01*
X2752Y1899D02*
X2756Y1899D01*
X2905Y1899D02*
X2909Y1899D01*
X3002Y1899D02*
X3006Y1899D01*
X3155Y1899D02*
X3159Y1899D01*
X3252Y1899D02*
X3256Y1899D01*
X3405Y1899D02*
X3409Y1899D01*
X3502Y1899D02*
X3506Y1899D01*
X3655Y1899D02*
X3659Y1899D01*
X1752Y1898D02*
X1756Y1898D01*
X1905Y1898D02*
X1909Y1898D01*
X2002Y1898D02*
X2006Y1898D01*
X2155Y1898D02*
X2159Y1898D01*
X2252Y1898D02*
X2256Y1898D01*
X2405Y1898D02*
X2409Y1898D01*
X2502Y1898D02*
X2506Y1898D01*
X2655Y1898D02*
X2659Y1898D01*
X2752Y1898D02*
X2756Y1898D01*
X2905Y1898D02*
X2909Y1898D01*
X3002Y1898D02*
X3006Y1898D01*
X3155Y1898D02*
X3158Y1898D01*
X3252Y1898D02*
X3256Y1898D01*
X3405Y1898D02*
X3408Y1898D01*
X3502Y1898D02*
X3506Y1898D01*
X3655Y1898D02*
X3658Y1898D01*
X1752Y1897D02*
X1756Y1897D01*
X1905Y1897D02*
X1909Y1897D01*
X2002Y1897D02*
X2006Y1897D01*
X2155Y1897D02*
X2159Y1897D01*
X2252Y1897D02*
X2256Y1897D01*
X2405Y1897D02*
X2409Y1897D01*
X2502Y1897D02*
X2506Y1897D01*
X2655Y1897D02*
X2658Y1897D01*
X2752Y1897D02*
X2756Y1897D01*
X2905Y1897D02*
X2908Y1897D01*
X3002Y1897D02*
X3006Y1897D01*
X3155Y1897D02*
X3158Y1897D01*
X3252Y1897D02*
X3256Y1897D01*
X3405Y1897D02*
X3408Y1897D01*
X3502Y1897D02*
X3506Y1897D01*
X3654Y1897D02*
X3658Y1897D01*
X1752Y1896D02*
X1756Y1896D01*
X1905Y1896D02*
X1908Y1896D01*
X2002Y1896D02*
X2006Y1896D01*
X2155Y1896D02*
X2158Y1896D01*
X2252Y1896D02*
X2256Y1896D01*
X2405Y1896D02*
X2408Y1896D01*
X2502Y1896D02*
X2506Y1896D01*
X2655Y1896D02*
X2658Y1896D01*
X2752Y1896D02*
X2756Y1896D01*
X2904Y1896D02*
X2908Y1896D01*
X3002Y1896D02*
X3006Y1896D01*
X3154Y1896D02*
X3158Y1896D01*
X3252Y1896D02*
X3256Y1896D01*
X3404Y1896D02*
X3408Y1896D01*
X3502Y1896D02*
X3506Y1896D01*
X3654Y1896D02*
X3658Y1896D01*
X1753Y1895D02*
X1756Y1895D01*
X1905Y1895D02*
X1908Y1895D01*
X2002Y1895D02*
X2006Y1895D01*
X2154Y1895D02*
X2158Y1895D01*
X2252Y1895D02*
X2256Y1895D01*
X2404Y1895D02*
X2408Y1895D01*
X2502Y1895D02*
X2506Y1895D01*
X2654Y1895D02*
X2658Y1895D01*
X2752Y1895D02*
X2756Y1895D01*
X2904Y1895D02*
X2908Y1895D01*
X3002Y1895D02*
X3006Y1895D01*
X3154Y1895D02*
X3158Y1895D01*
X3252Y1895D02*
X3256Y1895D01*
X3404Y1895D02*
X3408Y1895D01*
X3502Y1895D02*
X3506Y1895D01*
X3654Y1895D02*
X3658Y1895D01*
X1753Y1894D02*
X1757Y1894D01*
X1904Y1894D02*
X1908Y1894D01*
X2003Y1894D02*
X2006Y1894D01*
X2154Y1894D02*
X2158Y1894D01*
X2253Y1894D02*
X2256Y1894D01*
X2404Y1894D02*
X2408Y1894D01*
X2503Y1894D02*
X2506Y1894D01*
X2654Y1894D02*
X2658Y1894D01*
X2753Y1894D02*
X2756Y1894D01*
X2904Y1894D02*
X2908Y1894D01*
X3002Y1894D02*
X3006Y1894D01*
X3154Y1894D02*
X3158Y1894D01*
X3252Y1894D02*
X3256Y1894D01*
X3404Y1894D02*
X3408Y1894D01*
X3502Y1894D02*
X3506Y1894D01*
X3654Y1894D02*
X3658Y1894D01*
X1753Y1893D02*
X1757Y1893D01*
X1904Y1893D02*
X1908Y1893D01*
X2003Y1893D02*
X2007Y1893D01*
X2154Y1893D02*
X2158Y1893D01*
X2253Y1893D02*
X2257Y1893D01*
X2404Y1893D02*
X2408Y1893D01*
X2503Y1893D02*
X2507Y1893D01*
X2654Y1893D02*
X2658Y1893D01*
X2753Y1893D02*
X2757Y1893D01*
X2904Y1893D02*
X2908Y1893D01*
X3003Y1893D02*
X3006Y1893D01*
X3154Y1893D02*
X3158Y1893D01*
X3253Y1893D02*
X3256Y1893D01*
X3404Y1893D02*
X3408Y1893D01*
X3503Y1893D02*
X3506Y1893D01*
X3654Y1893D02*
X3658Y1893D01*
X1753Y1892D02*
X1757Y1892D01*
X1904Y1892D02*
X1908Y1892D01*
X2003Y1892D02*
X2007Y1892D01*
X2154Y1892D02*
X2158Y1892D01*
X2253Y1892D02*
X2257Y1892D01*
X2404Y1892D02*
X2408Y1892D01*
X2503Y1892D02*
X2507Y1892D01*
X2654Y1892D02*
X2658Y1892D01*
X2753Y1892D02*
X2757Y1892D01*
X2904Y1892D02*
X2908Y1892D01*
X3003Y1892D02*
X3007Y1892D01*
X3154Y1892D02*
X3158Y1892D01*
X3253Y1892D02*
X3257Y1892D01*
X3404Y1892D02*
X3408Y1892D01*
X3503Y1892D02*
X3507Y1892D01*
X3654Y1892D02*
X3658Y1892D01*
X1753Y1891D02*
X1757Y1891D01*
X1904Y1891D02*
X1908Y1891D01*
X2003Y1891D02*
X2007Y1891D01*
X2154Y1891D02*
X2158Y1891D01*
X2253Y1891D02*
X2257Y1891D01*
X2404Y1891D02*
X2408Y1891D01*
X2503Y1891D02*
X2507Y1891D01*
X2654Y1891D02*
X2658Y1891D01*
X2753Y1891D02*
X2757Y1891D01*
X2904Y1891D02*
X2908Y1891D01*
X3003Y1891D02*
X3007Y1891D01*
X3154Y1891D02*
X3158Y1891D01*
X3253Y1891D02*
X3257Y1891D01*
X3404Y1891D02*
X3407Y1891D01*
X3503Y1891D02*
X3507Y1891D01*
X3653Y1891D02*
X3657Y1891D01*
X1753Y1890D02*
X1757Y1890D01*
X1904Y1890D02*
X1908Y1890D01*
X2003Y1890D02*
X2007Y1890D01*
X2154Y1890D02*
X2157Y1890D01*
X2253Y1890D02*
X2257Y1890D01*
X2403Y1890D02*
X2407Y1890D01*
X2503Y1890D02*
X2507Y1890D01*
X2653Y1890D02*
X2657Y1890D01*
X2753Y1890D02*
X2757Y1890D01*
X2903Y1890D02*
X2907Y1890D01*
X3003Y1890D02*
X3007Y1890D01*
X3153Y1890D02*
X3157Y1890D01*
X3253Y1890D02*
X3257Y1890D01*
X3403Y1890D02*
X3407Y1890D01*
X3503Y1890D02*
X3507Y1890D01*
X3653Y1890D02*
X3657Y1890D01*
X1754Y1889D02*
X1757Y1889D01*
X1903Y1889D02*
X1907Y1889D01*
X2004Y1889D02*
X2007Y1889D01*
X2153Y1889D02*
X2157Y1889D01*
X2254Y1889D02*
X2257Y1889D01*
X2403Y1889D02*
X2407Y1889D01*
X2503Y1889D02*
X2507Y1889D01*
X2653Y1889D02*
X2657Y1889D01*
X2753Y1889D02*
X2757Y1889D01*
X2903Y1889D02*
X2907Y1889D01*
X3003Y1889D02*
X3007Y1889D01*
X3153Y1889D02*
X3157Y1889D01*
X3253Y1889D02*
X3257Y1889D01*
X3403Y1889D02*
X3407Y1889D01*
X3503Y1889D02*
X3507Y1889D01*
X3653Y1889D02*
X3657Y1889D01*
X1754Y1888D02*
X1758Y1888D01*
X1903Y1888D02*
X1907Y1888D01*
X2004Y1888D02*
X2008Y1888D01*
X2153Y1888D02*
X2157Y1888D01*
X2254Y1888D02*
X2258Y1888D01*
X2403Y1888D02*
X2407Y1888D01*
X2504Y1888D02*
X2508Y1888D01*
X2653Y1888D02*
X2657Y1888D01*
X2754Y1888D02*
X2758Y1888D01*
X2903Y1888D02*
X2907Y1888D01*
X3004Y1888D02*
X3007Y1888D01*
X3153Y1888D02*
X3157Y1888D01*
X3254Y1888D02*
X3257Y1888D01*
X3403Y1888D02*
X3407Y1888D01*
X3504Y1888D02*
X3507Y1888D01*
X3653Y1888D02*
X3657Y1888D01*
X1754Y1887D02*
X1758Y1887D01*
X1903Y1887D02*
X1907Y1887D01*
X2004Y1887D02*
X2008Y1887D01*
X2153Y1887D02*
X2157Y1887D01*
X2254Y1887D02*
X2258Y1887D01*
X2403Y1887D02*
X2407Y1887D01*
X2504Y1887D02*
X2508Y1887D01*
X2653Y1887D02*
X2657Y1887D01*
X2754Y1887D02*
X2758Y1887D01*
X2903Y1887D02*
X2907Y1887D01*
X3004Y1887D02*
X3008Y1887D01*
X3153Y1887D02*
X3157Y1887D01*
X3254Y1887D02*
X3258Y1887D01*
X3403Y1887D02*
X3407Y1887D01*
X3504Y1887D02*
X3508Y1887D01*
X3653Y1887D02*
X3657Y1887D01*
X1754Y1886D02*
X1758Y1886D01*
X1903Y1886D02*
X1907Y1886D01*
X2004Y1886D02*
X2008Y1886D01*
X2153Y1886D02*
X2157Y1886D01*
X2254Y1886D02*
X2258Y1886D01*
X2402Y1886D02*
X2407Y1886D01*
X2504Y1886D02*
X2508Y1886D01*
X2652Y1886D02*
X2657Y1886D01*
X2754Y1886D02*
X2758Y1886D01*
X2902Y1886D02*
X2907Y1886D01*
X3004Y1886D02*
X3008Y1886D01*
X3152Y1886D02*
X3157Y1886D01*
X3254Y1886D02*
X3258Y1886D01*
X3402Y1886D02*
X3406Y1886D01*
X3504Y1886D02*
X3508Y1886D01*
X3652Y1886D02*
X3656Y1886D01*
X1755Y1885D02*
X1759Y1885D01*
X1902Y1885D02*
X1906Y1885D01*
X2005Y1885D02*
X2009Y1885D01*
X2152Y1885D02*
X2156Y1885D01*
X2255Y1885D02*
X2258Y1885D01*
X2402Y1885D02*
X2406Y1885D01*
X2504Y1885D02*
X2508Y1885D01*
X2652Y1885D02*
X2656Y1885D01*
X2754Y1885D02*
X2758Y1885D01*
X2902Y1885D02*
X2906Y1885D01*
X3004Y1885D02*
X3008Y1885D01*
X3152Y1885D02*
X3156Y1885D01*
X3254Y1885D02*
X3258Y1885D01*
X3402Y1885D02*
X3406Y1885D01*
X3504Y1885D02*
X3508Y1885D01*
X3652Y1885D02*
X3656Y1885D01*
X1755Y1884D02*
X1759Y1884D01*
X1902Y1884D02*
X1906Y1884D01*
X2005Y1884D02*
X2009Y1884D01*
X2152Y1884D02*
X2156Y1884D01*
X2255Y1884D02*
X2259Y1884D01*
X2402Y1884D02*
X2406Y1884D01*
X2505Y1884D02*
X2509Y1884D01*
X2652Y1884D02*
X2656Y1884D01*
X2755Y1884D02*
X2759Y1884D01*
X2902Y1884D02*
X2906Y1884D01*
X3005Y1884D02*
X3009Y1884D01*
X3152Y1884D02*
X3156Y1884D01*
X3255Y1884D02*
X3259Y1884D01*
X3402Y1884D02*
X3406Y1884D01*
X3505Y1884D02*
X3509Y1884D01*
X3652Y1884D02*
X3656Y1884D01*
X1755Y1883D02*
X1759Y1883D01*
X1902Y1883D02*
X1906Y1883D01*
X2005Y1883D02*
X2009Y1883D01*
X2152Y1883D02*
X2156Y1883D01*
X2255Y1883D02*
X2259Y1883D01*
X2402Y1883D02*
X2406Y1883D01*
X2505Y1883D02*
X2509Y1883D01*
X2652Y1883D02*
X2656Y1883D01*
X2755Y1883D02*
X2759Y1883D01*
X2901Y1883D02*
X2906Y1883D01*
X3005Y1883D02*
X3009Y1883D01*
X3151Y1883D02*
X3156Y1883D01*
X3255Y1883D02*
X3259Y1883D01*
X3401Y1883D02*
X3406Y1883D01*
X3505Y1883D02*
X3509Y1883D01*
X3651Y1883D02*
X3656Y1883D01*
X1755Y1882D02*
X1759Y1882D01*
X1901Y1882D02*
X1906Y1882D01*
X2005Y1882D02*
X2009Y1882D01*
X2151Y1882D02*
X2155Y1882D01*
X2255Y1882D02*
X2259Y1882D01*
X2401Y1882D02*
X2405Y1882D01*
X2505Y1882D02*
X2509Y1882D01*
X2651Y1882D02*
X2655Y1882D01*
X2755Y1882D02*
X2759Y1882D01*
X2901Y1882D02*
X2905Y1882D01*
X3005Y1882D02*
X3009Y1882D01*
X3151Y1882D02*
X3155Y1882D01*
X3255Y1882D02*
X3259Y1882D01*
X3401Y1882D02*
X3405Y1882D01*
X3505Y1882D02*
X3509Y1882D01*
X3651Y1882D02*
X3655Y1882D01*
X1756Y1881D02*
X1760Y1881D01*
X1901Y1881D02*
X1905Y1881D01*
X2006Y1881D02*
X2010Y1881D01*
X2151Y1881D02*
X2155Y1881D01*
X2256Y1881D02*
X2260Y1881D01*
X2401Y1881D02*
X2405Y1881D01*
X2506Y1881D02*
X2510Y1881D01*
X2651Y1881D02*
X2655Y1881D01*
X2756Y1881D02*
X2760Y1881D01*
X2901Y1881D02*
X2905Y1881D01*
X3006Y1881D02*
X3010Y1881D01*
X3151Y1881D02*
X3155Y1881D01*
X3256Y1881D02*
X3260Y1881D01*
X3401Y1881D02*
X3405Y1881D01*
X3505Y1881D02*
X3510Y1881D01*
X3651Y1881D02*
X3655Y1881D01*
X1756Y1880D02*
X1760Y1880D01*
X1901Y1880D02*
X1905Y1880D01*
X2006Y1880D02*
X2010Y1880D01*
X2151Y1880D02*
X2155Y1880D01*
X2256Y1880D02*
X2260Y1880D01*
X2401Y1880D02*
X2405Y1880D01*
X2506Y1880D02*
X2510Y1880D01*
X2651Y1880D02*
X2655Y1880D01*
X2756Y1880D02*
X2760Y1880D01*
X2900Y1880D02*
X2905Y1880D01*
X3006Y1880D02*
X3010Y1880D01*
X3150Y1880D02*
X3155Y1880D01*
X3256Y1880D02*
X3260Y1880D01*
X3400Y1880D02*
X3405Y1880D01*
X3506Y1880D02*
X3510Y1880D01*
X3650Y1880D02*
X3655Y1880D01*
X1756Y1879D02*
X1761Y1879D01*
X1900Y1879D02*
X1905Y1879D01*
X2006Y1879D02*
X2011Y1879D01*
X2150Y1879D02*
X2155Y1879D01*
X2256Y1879D02*
X2261Y1879D01*
X2400Y1879D02*
X2405Y1879D01*
X2506Y1879D02*
X2510Y1879D01*
X2650Y1879D02*
X2654Y1879D01*
X2756Y1879D02*
X2760Y1879D01*
X2900Y1879D02*
X2904Y1879D01*
X3006Y1879D02*
X3010Y1879D01*
X3150Y1879D02*
X3154Y1879D01*
X3256Y1879D02*
X3260Y1879D01*
X3400Y1879D02*
X3404Y1879D01*
X3506Y1879D02*
X3510Y1879D01*
X3650Y1879D02*
X3654Y1879D01*
X1757Y1878D02*
X1761Y1878D01*
X1900Y1878D02*
X1904Y1878D01*
X2007Y1878D02*
X2011Y1878D01*
X2150Y1878D02*
X2154Y1878D01*
X2257Y1878D02*
X2261Y1878D01*
X2400Y1878D02*
X2404Y1878D01*
X2507Y1878D02*
X2511Y1878D01*
X2650Y1878D02*
X2654Y1878D01*
X2757Y1878D02*
X2761Y1878D01*
X2900Y1878D02*
X2904Y1878D01*
X3007Y1878D02*
X3011Y1878D01*
X3150Y1878D02*
X3154Y1878D01*
X3257Y1878D02*
X3261Y1878D01*
X3400Y1878D02*
X3404Y1878D01*
X3507Y1878D02*
X3511Y1878D01*
X3650Y1878D02*
X3654Y1878D01*
X1757Y1877D02*
X1761Y1877D01*
X1899Y1877D02*
X1904Y1877D01*
X2007Y1877D02*
X2011Y1877D01*
X2149Y1877D02*
X2154Y1877D01*
X2257Y1877D02*
X2261Y1877D01*
X2399Y1877D02*
X2404Y1877D01*
X2507Y1877D02*
X2511Y1877D01*
X2649Y1877D02*
X2654Y1877D01*
X2757Y1877D02*
X2761Y1877D01*
X2899Y1877D02*
X2904Y1877D01*
X3007Y1877D02*
X3011Y1877D01*
X3149Y1877D02*
X3154Y1877D01*
X3257Y1877D02*
X3261Y1877D01*
X3399Y1877D02*
X3404Y1877D01*
X3507Y1877D02*
X3511Y1877D01*
X3649Y1877D02*
X3654Y1877D01*
X1758Y1876D02*
X1762Y1876D01*
X1899Y1876D02*
X1903Y1876D01*
X2008Y1876D02*
X2012Y1876D01*
X2149Y1876D02*
X2153Y1876D01*
X2258Y1876D02*
X2262Y1876D01*
X2399Y1876D02*
X2403Y1876D01*
X2507Y1876D02*
X2512Y1876D01*
X2649Y1876D02*
X2653Y1876D01*
X2757Y1876D02*
X2762Y1876D01*
X2899Y1876D02*
X2903Y1876D01*
X3007Y1876D02*
X3012Y1876D01*
X3149Y1876D02*
X3153Y1876D01*
X3257Y1876D02*
X3262Y1876D01*
X3399Y1876D02*
X3403Y1876D01*
X3507Y1876D02*
X3512Y1876D01*
X3649Y1876D02*
X3653Y1876D01*
X1758Y1875D02*
X1762Y1875D01*
X1899Y1875D02*
X1903Y1875D01*
X2008Y1875D02*
X2012Y1875D01*
X2149Y1875D02*
X2153Y1875D01*
X2258Y1875D02*
X2262Y1875D01*
X2398Y1875D02*
X2403Y1875D01*
X2508Y1875D02*
X2512Y1875D01*
X2648Y1875D02*
X2653Y1875D01*
X2758Y1875D02*
X2762Y1875D01*
X2898Y1875D02*
X2903Y1875D01*
X3008Y1875D02*
X3012Y1875D01*
X3148Y1875D02*
X3153Y1875D01*
X3258Y1875D02*
X3262Y1875D01*
X3398Y1875D02*
X3403Y1875D01*
X3508Y1875D02*
X3512Y1875D01*
X3648Y1875D02*
X3653Y1875D01*
X1758Y1874D02*
X1763Y1874D01*
X1898Y1874D02*
X1903Y1874D01*
X2008Y1874D02*
X2013Y1874D01*
X2148Y1874D02*
X2153Y1874D01*
X2258Y1874D02*
X2263Y1874D01*
X2398Y1874D02*
X2402Y1874D01*
X2508Y1874D02*
X2513Y1874D01*
X2648Y1874D02*
X2652Y1874D01*
X2758Y1874D02*
X2763Y1874D01*
X2898Y1874D02*
X2902Y1874D01*
X3008Y1874D02*
X3013Y1874D01*
X3148Y1874D02*
X3152Y1874D01*
X3258Y1874D02*
X3262Y1874D01*
X3398Y1874D02*
X3402Y1874D01*
X3508Y1874D02*
X3512Y1874D01*
X3648Y1874D02*
X3652Y1874D01*
X1759Y1873D02*
X1763Y1873D01*
X1898Y1873D02*
X1902Y1873D01*
X2009Y1873D02*
X2013Y1873D01*
X2148Y1873D02*
X2152Y1873D01*
X2259Y1873D02*
X2263Y1873D01*
X2398Y1873D02*
X2402Y1873D01*
X2509Y1873D02*
X2513Y1873D01*
X2647Y1873D02*
X2652Y1873D01*
X2759Y1873D02*
X2763Y1873D01*
X2897Y1873D02*
X2902Y1873D01*
X3009Y1873D02*
X3013Y1873D01*
X3147Y1873D02*
X3152Y1873D01*
X3259Y1873D02*
X3263Y1873D01*
X3397Y1873D02*
X3402Y1873D01*
X3509Y1873D02*
X3513Y1873D01*
X3647Y1873D02*
X3652Y1873D01*
X1759Y1872D02*
X1764Y1872D01*
X1897Y1872D02*
X1902Y1872D01*
X2009Y1872D02*
X2014Y1872D01*
X2147Y1872D02*
X2152Y1872D01*
X2259Y1872D02*
X2264Y1872D01*
X2397Y1872D02*
X2402Y1872D01*
X2509Y1872D02*
X2514Y1872D01*
X2647Y1872D02*
X2652Y1872D01*
X2759Y1872D02*
X2764Y1872D01*
X2897Y1872D02*
X2902Y1872D01*
X3009Y1872D02*
X3014Y1872D01*
X3147Y1872D02*
X3152Y1872D01*
X3259Y1872D02*
X3263Y1872D01*
X3397Y1872D02*
X3401Y1872D01*
X3509Y1872D02*
X3513Y1872D01*
X3647Y1872D02*
X3651Y1872D01*
X1760Y1871D02*
X1764Y1871D01*
X1897Y1871D02*
X1901Y1871D01*
X2010Y1871D02*
X2014Y1871D01*
X2146Y1871D02*
X2151Y1871D01*
X2260Y1871D02*
X2264Y1871D01*
X2396Y1871D02*
X2401Y1871D01*
X2510Y1871D02*
X2514Y1871D01*
X2646Y1871D02*
X2651Y1871D01*
X2760Y1871D02*
X2764Y1871D01*
X2896Y1871D02*
X2901Y1871D01*
X3010Y1871D02*
X3014Y1871D01*
X3146Y1871D02*
X3151Y1871D01*
X3260Y1871D02*
X3264Y1871D01*
X3396Y1871D02*
X3401Y1871D01*
X3509Y1871D02*
X3514Y1871D01*
X3646Y1871D02*
X3651Y1871D01*
X1760Y1870D02*
X1765Y1870D01*
X1896Y1870D02*
X1901Y1870D01*
X2010Y1870D02*
X2015Y1870D01*
X2146Y1870D02*
X2151Y1870D01*
X2260Y1870D02*
X2265Y1870D01*
X2396Y1870D02*
X2401Y1870D01*
X2510Y1870D02*
X2515Y1870D01*
X2646Y1870D02*
X2651Y1870D01*
X2760Y1870D02*
X2765Y1870D01*
X2896Y1870D02*
X2901Y1870D01*
X3010Y1870D02*
X3015Y1870D01*
X3146Y1870D02*
X3151Y1870D01*
X3260Y1870D02*
X3265Y1870D01*
X3396Y1870D02*
X3400Y1870D01*
X3510Y1870D02*
X3514Y1870D01*
X3646Y1870D02*
X3650Y1870D01*
X1761Y1869D02*
X1765Y1869D01*
X1895Y1869D02*
X1900Y1869D01*
X2011Y1869D02*
X2015Y1869D01*
X2145Y1869D02*
X2150Y1869D01*
X2261Y1869D02*
X2265Y1869D01*
X2395Y1869D02*
X2400Y1869D01*
X2511Y1869D02*
X2515Y1869D01*
X2645Y1869D02*
X2650Y1869D01*
X2761Y1869D02*
X2765Y1869D01*
X2895Y1869D02*
X2900Y1869D01*
X3011Y1869D02*
X3015Y1869D01*
X3145Y1869D02*
X3150Y1869D01*
X3261Y1869D02*
X3265Y1869D01*
X3395Y1869D02*
X3400Y1869D01*
X3511Y1869D02*
X3515Y1869D01*
X3645Y1869D02*
X3650Y1869D01*
X1761Y1868D02*
X1766Y1868D01*
X1895Y1868D02*
X1900Y1868D01*
X2011Y1868D02*
X2016Y1868D01*
X2145Y1868D02*
X2150Y1868D01*
X2261Y1868D02*
X2266Y1868D01*
X2395Y1868D02*
X2400Y1868D01*
X2511Y1868D02*
X2516Y1868D01*
X2645Y1868D02*
X2650Y1868D01*
X2761Y1868D02*
X2766Y1868D01*
X2895Y1868D02*
X2899Y1868D01*
X3011Y1868D02*
X3016Y1868D01*
X3145Y1868D02*
X3149Y1868D01*
X3261Y1868D02*
X3266Y1868D01*
X3395Y1868D02*
X3399Y1868D01*
X3511Y1868D02*
X3516Y1868D01*
X3645Y1868D02*
X3649Y1868D01*
X1762Y1867D02*
X1767Y1867D01*
X1894Y1867D02*
X1899Y1867D01*
X2012Y1867D02*
X2016Y1867D01*
X2144Y1867D02*
X2149Y1867D01*
X2262Y1867D02*
X2266Y1867D01*
X2394Y1867D02*
X2399Y1867D01*
X2512Y1867D02*
X2516Y1867D01*
X2644Y1867D02*
X2649Y1867D01*
X2762Y1867D02*
X2766Y1867D01*
X2894Y1867D02*
X2899Y1867D01*
X3012Y1867D02*
X3016Y1867D01*
X3144Y1867D02*
X3149Y1867D01*
X3262Y1867D02*
X3266Y1867D01*
X3394Y1867D02*
X3399Y1867D01*
X3512Y1867D02*
X3516Y1867D01*
X3644Y1867D02*
X3649Y1867D01*
X1762Y1866D02*
X1767Y1866D01*
X1894Y1866D02*
X1899Y1866D01*
X2012Y1866D02*
X2017Y1866D01*
X2144Y1866D02*
X2149Y1866D01*
X2262Y1866D02*
X2267Y1866D01*
X2394Y1866D02*
X2399Y1866D01*
X2512Y1866D02*
X2517Y1866D01*
X2643Y1866D02*
X2648Y1866D01*
X2762Y1866D02*
X2767Y1866D01*
X2893Y1866D02*
X2898Y1866D01*
X3012Y1866D02*
X3017Y1866D01*
X3143Y1866D02*
X3148Y1866D01*
X3262Y1866D02*
X3267Y1866D01*
X3393Y1866D02*
X3398Y1866D01*
X3512Y1866D02*
X3517Y1866D01*
X3643Y1866D02*
X3648Y1866D01*
X1763Y1865D02*
X1768Y1865D01*
X1893Y1865D02*
X1898Y1865D01*
X2013Y1865D02*
X2018Y1865D01*
X2143Y1865D02*
X2148Y1865D01*
X2263Y1865D02*
X2268Y1865D01*
X2393Y1865D02*
X2398Y1865D01*
X2513Y1865D02*
X2518Y1865D01*
X2643Y1865D02*
X2648Y1865D01*
X2763Y1865D02*
X2768Y1865D01*
X2893Y1865D02*
X2898Y1865D01*
X3013Y1865D02*
X3018Y1865D01*
X3143Y1865D02*
X3148Y1865D01*
X3263Y1865D02*
X3268Y1865D01*
X3393Y1865D02*
X3398Y1865D01*
X3513Y1865D02*
X3518Y1865D01*
X3643Y1865D02*
X3648Y1865D01*
X1764Y1864D02*
X1768Y1864D01*
X1892Y1864D02*
X1897Y1864D01*
X2014Y1864D02*
X2018Y1864D01*
X2142Y1864D02*
X2147Y1864D01*
X2264Y1864D02*
X2268Y1864D01*
X2392Y1864D02*
X2397Y1864D01*
X2513Y1864D02*
X2518Y1864D01*
X2642Y1864D02*
X2647Y1864D01*
X2763Y1864D02*
X2768Y1864D01*
X2892Y1864D02*
X2897Y1864D01*
X3013Y1864D02*
X3018Y1864D01*
X3142Y1864D02*
X3147Y1864D01*
X3263Y1864D02*
X3268Y1864D01*
X3392Y1864D02*
X3397Y1864D01*
X3513Y1864D02*
X3518Y1864D01*
X3642Y1864D02*
X3647Y1864D01*
X1764Y1863D02*
X1769Y1863D01*
X1892Y1863D02*
X1897Y1863D01*
X2014Y1863D02*
X2019Y1863D01*
X2142Y1863D02*
X2147Y1863D01*
X2264Y1863D02*
X2269Y1863D01*
X2391Y1863D02*
X2397Y1863D01*
X2514Y1863D02*
X2519Y1863D01*
X2641Y1863D02*
X2647Y1863D01*
X2764Y1863D02*
X2769Y1863D01*
X2891Y1863D02*
X2897Y1863D01*
X3014Y1863D02*
X3019Y1863D01*
X3141Y1863D02*
X3147Y1863D01*
X3264Y1863D02*
X3269Y1863D01*
X3391Y1863D02*
X3397Y1863D01*
X3514Y1863D02*
X3519Y1863D01*
X3641Y1863D02*
X3646Y1863D01*
X1765Y1862D02*
X1770Y1862D01*
X1891Y1862D02*
X1896Y1862D01*
X2015Y1862D02*
X2020Y1862D01*
X2141Y1862D02*
X2146Y1862D01*
X2265Y1862D02*
X2270Y1862D01*
X2391Y1862D02*
X2396Y1862D01*
X2515Y1862D02*
X2520Y1862D01*
X2641Y1862D02*
X2646Y1862D01*
X2765Y1862D02*
X2770Y1862D01*
X2891Y1862D02*
X2896Y1862D01*
X3015Y1862D02*
X3020Y1862D01*
X3141Y1862D02*
X3146Y1862D01*
X3265Y1862D02*
X3270Y1862D01*
X3391Y1862D02*
X3396Y1862D01*
X3515Y1862D02*
X3520Y1862D01*
X3641Y1862D02*
X3646Y1862D01*
X1766Y1861D02*
X1771Y1861D01*
X1890Y1861D02*
X1895Y1861D01*
X2015Y1861D02*
X2021Y1861D01*
X2140Y1861D02*
X2145Y1861D01*
X2265Y1861D02*
X2271Y1861D01*
X2390Y1861D02*
X2395Y1861D01*
X2515Y1861D02*
X2521Y1861D01*
X2640Y1861D02*
X2645Y1861D01*
X2765Y1861D02*
X2771Y1861D01*
X2890Y1861D02*
X2895Y1861D01*
X3015Y1861D02*
X3020Y1861D01*
X3140Y1861D02*
X3145Y1861D01*
X3265Y1861D02*
X3270Y1861D01*
X3390Y1861D02*
X3395Y1861D01*
X3515Y1861D02*
X3520Y1861D01*
X3640Y1861D02*
X3645Y1861D01*
X1766Y1860D02*
X1771Y1860D01*
X1889Y1860D02*
X1895Y1860D01*
X2016Y1860D02*
X2021Y1860D01*
X2139Y1860D02*
X2145Y1860D01*
X2266Y1860D02*
X2271Y1860D01*
X2389Y1860D02*
X2395Y1860D01*
X2516Y1860D02*
X2521Y1860D01*
X2639Y1860D02*
X2645Y1860D01*
X2766Y1860D02*
X2771Y1860D01*
X2889Y1860D02*
X2895Y1860D01*
X3016Y1860D02*
X3021Y1860D01*
X3139Y1860D02*
X3145Y1860D01*
X3266Y1860D02*
X3271Y1860D01*
X3389Y1860D02*
X3394Y1860D01*
X3516Y1860D02*
X3521Y1860D01*
X3639Y1860D02*
X3644Y1860D01*
X1767Y1859D02*
X1772Y1859D01*
X1889Y1859D02*
X1894Y1859D01*
X2017Y1859D02*
X2022Y1859D01*
X2139Y1859D02*
X2144Y1859D01*
X2267Y1859D02*
X2272Y1859D01*
X2388Y1859D02*
X2394Y1859D01*
X2517Y1859D02*
X2522Y1859D01*
X2638Y1859D02*
X2644Y1859D01*
X2767Y1859D02*
X2772Y1859D01*
X2888Y1859D02*
X2894Y1859D01*
X3017Y1859D02*
X3022Y1859D01*
X3138Y1859D02*
X3144Y1859D01*
X3267Y1859D02*
X3272Y1859D01*
X3388Y1859D02*
X3394Y1859D01*
X3517Y1859D02*
X3522Y1859D01*
X3638Y1859D02*
X3644Y1859D01*
X1768Y1858D02*
X1773Y1858D01*
X1888Y1858D02*
X1893Y1858D01*
X2018Y1858D02*
X2023Y1858D01*
X2138Y1858D02*
X2143Y1858D01*
X2268Y1858D02*
X2273Y1858D01*
X2388Y1858D02*
X2393Y1858D01*
X2518Y1858D02*
X2523Y1858D01*
X2638Y1858D02*
X2643Y1858D01*
X2767Y1858D02*
X2773Y1858D01*
X2888Y1858D02*
X2893Y1858D01*
X3017Y1858D02*
X3023Y1858D01*
X3138Y1858D02*
X3143Y1858D01*
X3267Y1858D02*
X3273Y1858D01*
X3387Y1858D02*
X3393Y1858D01*
X3517Y1858D02*
X3523Y1858D01*
X3637Y1858D02*
X3643Y1858D01*
X1768Y1857D02*
X1774Y1857D01*
X1887Y1857D02*
X1893Y1857D01*
X2018Y1857D02*
X2024Y1857D01*
X2137Y1857D02*
X2143Y1857D01*
X2268Y1857D02*
X2274Y1857D01*
X2387Y1857D02*
X2392Y1857D01*
X2518Y1857D02*
X2524Y1857D01*
X2637Y1857D02*
X2642Y1857D01*
X2768Y1857D02*
X2774Y1857D01*
X2887Y1857D02*
X2892Y1857D01*
X3018Y1857D02*
X3024Y1857D01*
X3137Y1857D02*
X3142Y1857D01*
X3268Y1857D02*
X3274Y1857D01*
X3387Y1857D02*
X3392Y1857D01*
X3518Y1857D02*
X3524Y1857D01*
X3637Y1857D02*
X3642Y1857D01*
X1769Y1856D02*
X1775Y1856D01*
X1886Y1856D02*
X1892Y1856D01*
X2019Y1856D02*
X2025Y1856D01*
X2136Y1856D02*
X2142Y1856D01*
X2269Y1856D02*
X2275Y1856D01*
X2386Y1856D02*
X2392Y1856D01*
X2519Y1856D02*
X2525Y1856D01*
X2636Y1856D02*
X2642Y1856D01*
X2769Y1856D02*
X2775Y1856D01*
X2886Y1856D02*
X2892Y1856D01*
X3019Y1856D02*
X3025Y1856D01*
X3136Y1856D02*
X3142Y1856D01*
X3269Y1856D02*
X3275Y1856D01*
X3386Y1856D02*
X3391Y1856D01*
X3519Y1856D02*
X3525Y1856D01*
X3636Y1856D02*
X3641Y1856D01*
X1770Y1855D02*
X1776Y1855D01*
X1885Y1855D02*
X1891Y1855D01*
X2020Y1855D02*
X2026Y1855D01*
X2135Y1855D02*
X2141Y1855D01*
X2270Y1855D02*
X2276Y1855D01*
X2385Y1855D02*
X2391Y1855D01*
X2520Y1855D02*
X2526Y1855D01*
X2635Y1855D02*
X2641Y1855D01*
X2770Y1855D02*
X2776Y1855D01*
X2885Y1855D02*
X2891Y1855D01*
X3020Y1855D02*
X3026Y1855D01*
X3135Y1855D02*
X3141Y1855D01*
X3270Y1855D02*
X3276Y1855D01*
X3385Y1855D02*
X3391Y1855D01*
X3520Y1855D02*
X3525Y1855D01*
X3635Y1855D02*
X3641Y1855D01*
X1771Y1854D02*
X1777Y1854D01*
X1884Y1854D02*
X1890Y1854D01*
X2021Y1854D02*
X2027Y1854D01*
X2134Y1854D02*
X2140Y1854D01*
X2271Y1854D02*
X2277Y1854D01*
X2384Y1854D02*
X2390Y1854D01*
X2521Y1854D02*
X2527Y1854D01*
X2634Y1854D02*
X2640Y1854D01*
X2771Y1854D02*
X2777Y1854D01*
X2884Y1854D02*
X2890Y1854D01*
X3021Y1854D02*
X3027Y1854D01*
X3134Y1854D02*
X3140Y1854D01*
X3271Y1854D02*
X3277Y1854D01*
X3384Y1854D02*
X3390Y1854D01*
X3521Y1854D02*
X3526Y1854D01*
X3634Y1854D02*
X3640Y1854D01*
X1772Y1853D02*
X1778Y1853D01*
X1883Y1853D02*
X1889Y1853D01*
X2022Y1853D02*
X2028Y1853D01*
X2133Y1853D02*
X2139Y1853D01*
X2272Y1853D02*
X2278Y1853D01*
X2383Y1853D02*
X2389Y1853D01*
X2522Y1853D02*
X2528Y1853D01*
X2633Y1853D02*
X2639Y1853D01*
X2771Y1853D02*
X2778Y1853D01*
X2883Y1853D02*
X2889Y1853D01*
X3021Y1853D02*
X3028Y1853D01*
X3133Y1853D02*
X3139Y1853D01*
X3271Y1853D02*
X3277Y1853D01*
X3383Y1853D02*
X3389Y1853D01*
X3521Y1853D02*
X3527Y1853D01*
X3633Y1853D02*
X3639Y1853D01*
X1773Y1852D02*
X1779Y1852D01*
X1882Y1852D02*
X1888Y1852D01*
X2023Y1852D02*
X2029Y1852D01*
X2132Y1852D02*
X2138Y1852D01*
X2273Y1852D02*
X2279Y1852D01*
X2382Y1852D02*
X2388Y1852D01*
X2523Y1852D02*
X2529Y1852D01*
X2632Y1852D02*
X2638Y1852D01*
X2772Y1852D02*
X2779Y1852D01*
X2882Y1852D02*
X2888Y1852D01*
X3022Y1852D02*
X3029Y1852D01*
X3132Y1852D02*
X3138Y1852D01*
X3272Y1852D02*
X3278Y1852D01*
X3382Y1852D02*
X3388Y1852D01*
X3522Y1852D02*
X3528Y1852D01*
X3632Y1852D02*
X3638Y1852D01*
X1774Y1851D02*
X1780Y1851D01*
X1881Y1851D02*
X1887Y1851D01*
X2024Y1851D02*
X2030Y1851D01*
X2131Y1851D02*
X2137Y1851D01*
X2274Y1851D02*
X2280Y1851D01*
X2381Y1851D02*
X2387Y1851D01*
X2523Y1851D02*
X2530Y1851D01*
X2631Y1851D02*
X2637Y1851D01*
X2773Y1851D02*
X2780Y1851D01*
X2881Y1851D02*
X2887Y1851D01*
X3023Y1851D02*
X3030Y1851D01*
X3131Y1851D02*
X3137Y1851D01*
X3273Y1851D02*
X3280Y1851D01*
X3381Y1851D02*
X3387Y1851D01*
X3523Y1851D02*
X3530Y1851D01*
X3631Y1851D02*
X3637Y1851D01*
X1775Y1850D02*
X1781Y1850D01*
X1880Y1850D02*
X1886Y1850D01*
X2025Y1850D02*
X2031Y1850D01*
X2130Y1850D02*
X2136Y1850D01*
X2274Y1850D02*
X2281Y1850D01*
X2380Y1850D02*
X2386Y1850D01*
X2524Y1850D02*
X2531Y1850D01*
X2630Y1850D02*
X2636Y1850D01*
X2774Y1850D02*
X2781Y1850D01*
X2880Y1850D02*
X2886Y1850D01*
X3024Y1850D02*
X3031Y1850D01*
X3130Y1850D02*
X3136Y1850D01*
X3274Y1850D02*
X3281Y1850D01*
X3380Y1850D02*
X3386Y1850D01*
X3524Y1850D02*
X3531Y1850D01*
X3630Y1850D02*
X3636Y1850D01*
X1776Y1849D02*
X1782Y1849D01*
X1879Y1849D02*
X1885Y1849D01*
X2026Y1849D02*
X2032Y1849D01*
X2129Y1849D02*
X2135Y1849D01*
X2275Y1849D02*
X2282Y1849D01*
X2379Y1849D02*
X2385Y1849D01*
X2525Y1849D02*
X2532Y1849D01*
X2629Y1849D02*
X2635Y1849D01*
X2775Y1849D02*
X2782Y1849D01*
X2879Y1849D02*
X2885Y1849D01*
X3025Y1849D02*
X3032Y1849D01*
X3129Y1849D02*
X3135Y1849D01*
X3275Y1849D02*
X3282Y1849D01*
X3379Y1849D02*
X3385Y1849D01*
X3525Y1849D02*
X3532Y1849D01*
X3629Y1849D02*
X3635Y1849D01*
X1777Y1848D02*
X1783Y1848D01*
X1878Y1848D02*
X1884Y1848D01*
X2026Y1848D02*
X2033Y1848D01*
X2128Y1848D02*
X2134Y1848D01*
X2276Y1848D02*
X2283Y1848D01*
X2377Y1848D02*
X2384Y1848D01*
X2526Y1848D02*
X2533Y1848D01*
X2627Y1848D02*
X2634Y1848D01*
X2776Y1848D02*
X2783Y1848D01*
X2877Y1848D02*
X2884Y1848D01*
X3026Y1848D02*
X3033Y1848D01*
X3127Y1848D02*
X3134Y1848D01*
X3276Y1848D02*
X3283Y1848D01*
X3377Y1848D02*
X3384Y1848D01*
X3526Y1848D02*
X3533Y1848D01*
X3627Y1848D02*
X3634Y1848D01*
X1778Y1847D02*
X1785Y1847D01*
X1876Y1847D02*
X1883Y1847D01*
X2028Y1847D02*
X2035Y1847D01*
X2126Y1847D02*
X2133Y1847D01*
X2278Y1847D02*
X2284Y1847D01*
X2376Y1847D02*
X2383Y1847D01*
X2527Y1847D02*
X2534Y1847D01*
X2626Y1847D02*
X2633Y1847D01*
X2777Y1847D02*
X2784Y1847D01*
X2876Y1847D02*
X2883Y1847D01*
X3027Y1847D02*
X3034Y1847D01*
X3126Y1847D02*
X3133Y1847D01*
X3277Y1847D02*
X3284Y1847D01*
X3376Y1847D02*
X3383Y1847D01*
X3527Y1847D02*
X3534Y1847D01*
X3626Y1847D02*
X3633Y1847D01*
X1779Y1846D02*
X1786Y1846D01*
X1875Y1846D02*
X1882Y1846D01*
X2029Y1846D02*
X2036Y1846D01*
X2125Y1846D02*
X2132Y1846D01*
X2279Y1846D02*
X2286Y1846D01*
X2375Y1846D02*
X2382Y1846D01*
X2529Y1846D02*
X2536Y1846D01*
X2625Y1846D02*
X2632Y1846D01*
X2779Y1846D02*
X2786Y1846D01*
X2875Y1846D02*
X2882Y1846D01*
X3029Y1846D02*
X3036Y1846D01*
X3125Y1846D02*
X3132Y1846D01*
X3279Y1846D02*
X3286Y1846D01*
X3375Y1846D02*
X3382Y1846D01*
X3529Y1846D02*
X3536Y1846D01*
X3625Y1846D02*
X3632Y1846D01*
X1780Y1845D02*
X1787Y1845D01*
X1874Y1845D02*
X1881Y1845D01*
X2030Y1845D02*
X2037Y1845D01*
X2124Y1845D02*
X2131Y1845D01*
X2280Y1845D02*
X2287Y1845D01*
X2374Y1845D02*
X2381Y1845D01*
X2530Y1845D02*
X2537Y1845D01*
X2624Y1845D02*
X2631Y1845D01*
X2780Y1845D02*
X2787Y1845D01*
X2873Y1845D02*
X2881Y1845D01*
X3030Y1845D02*
X3037Y1845D01*
X3123Y1845D02*
X3131Y1845D01*
X3280Y1845D02*
X3287Y1845D01*
X3373Y1845D02*
X3381Y1845D01*
X3530Y1845D02*
X3537Y1845D01*
X3623Y1845D02*
X3631Y1845D01*
X1781Y1844D02*
X1789Y1844D01*
X1872Y1844D02*
X1880Y1844D01*
X2031Y1844D02*
X2039Y1844D01*
X2122Y1844D02*
X2130Y1844D01*
X2281Y1844D02*
X2289Y1844D01*
X2372Y1844D02*
X2380Y1844D01*
X2531Y1844D02*
X2539Y1844D01*
X2622Y1844D02*
X2630Y1844D01*
X2781Y1844D02*
X2789Y1844D01*
X2872Y1844D02*
X2880Y1844D01*
X3031Y1844D02*
X3038Y1844D01*
X3122Y1844D02*
X3130Y1844D01*
X3281Y1844D02*
X3288Y1844D01*
X3372Y1844D02*
X3379Y1844D01*
X3531Y1844D02*
X3538Y1844D01*
X3622Y1844D02*
X3629Y1844D01*
X1782Y1843D02*
X1790Y1843D01*
X1871Y1843D02*
X1879Y1843D01*
X2032Y1843D02*
X2040Y1843D01*
X2121Y1843D02*
X2128Y1843D01*
X2282Y1843D02*
X2290Y1843D01*
X2371Y1843D02*
X2378Y1843D01*
X2532Y1843D02*
X2540Y1843D01*
X2621Y1843D02*
X2628Y1843D01*
X2782Y1843D02*
X2790Y1843D01*
X2870Y1843D02*
X2878Y1843D01*
X3032Y1843D02*
X3040Y1843D01*
X3120Y1843D02*
X3128Y1843D01*
X3282Y1843D02*
X3290Y1843D01*
X3370Y1843D02*
X3378Y1843D01*
X3532Y1843D02*
X3540Y1843D01*
X3620Y1843D02*
X3628Y1843D01*
X1784Y1842D02*
X1792Y1842D01*
X1869Y1842D02*
X1877Y1842D01*
X2034Y1842D02*
X2042Y1842D01*
X2119Y1842D02*
X2127Y1842D01*
X2284Y1842D02*
X2292Y1842D01*
X2369Y1842D02*
X2377Y1842D01*
X2534Y1842D02*
X2542Y1842D01*
X2619Y1842D02*
X2627Y1842D01*
X2783Y1842D02*
X2792Y1842D01*
X2869Y1842D02*
X2877Y1842D01*
X3033Y1842D02*
X3042Y1842D01*
X3119Y1842D02*
X3127Y1842D01*
X3283Y1842D02*
X3292Y1842D01*
X3369Y1842D02*
X3377Y1842D01*
X3533Y1842D02*
X3542Y1842D01*
X3619Y1842D02*
X3627Y1842D01*
X1785Y1841D02*
X1793Y1841D01*
X1868Y1841D02*
X1876Y1841D01*
X2035Y1841D02*
X2043Y1841D01*
X2118Y1841D02*
X2126Y1841D01*
X2285Y1841D02*
X2293Y1841D01*
X2368Y1841D02*
X2376Y1841D01*
X2535Y1841D02*
X2543Y1841D01*
X2618Y1841D02*
X2626Y1841D01*
X2785Y1841D02*
X2793Y1841D01*
X2868Y1841D02*
X2876Y1841D01*
X3035Y1841D02*
X3043Y1841D01*
X3118Y1841D02*
X3126Y1841D01*
X3285Y1841D02*
X3293Y1841D01*
X3368Y1841D02*
X3376Y1841D01*
X3535Y1841D02*
X3543Y1841D01*
X3618Y1841D02*
X3626Y1841D01*
X1786Y1840D02*
X1794Y1840D01*
X1868Y1840D02*
X1874Y1840D01*
X2036Y1840D02*
X2044Y1840D01*
X2118Y1840D02*
X2124Y1840D01*
X2286Y1840D02*
X2294Y1840D01*
X2368Y1840D02*
X2374Y1840D01*
X2536Y1840D02*
X2544Y1840D01*
X2618Y1840D02*
X2624Y1840D01*
X2786Y1840D02*
X2794Y1840D01*
X2868Y1840D02*
X2874Y1840D01*
X3036Y1840D02*
X3044Y1840D01*
X3118Y1840D02*
X3124Y1840D01*
X3286Y1840D02*
X3294Y1840D01*
X3368Y1840D02*
X3374Y1840D01*
X3536Y1840D02*
X3544Y1840D01*
X3618Y1840D02*
X3624Y1840D01*
X1788Y1839D02*
X1794Y1839D01*
X1868Y1839D02*
X1873Y1839D01*
X2038Y1839D02*
X2044Y1839D01*
X2118Y1839D02*
X2123Y1839D01*
X2288Y1839D02*
X2294Y1839D01*
X2368Y1839D02*
X2373Y1839D01*
X2538Y1839D02*
X2544Y1839D01*
X2618Y1839D02*
X2623Y1839D01*
X2788Y1839D02*
X2794Y1839D01*
X2868Y1839D02*
X2873Y1839D01*
X3038Y1839D02*
X3044Y1839D01*
X3118Y1839D02*
X3123Y1839D01*
X3288Y1839D02*
X3294Y1839D01*
X3368Y1839D02*
X3373Y1839D01*
X3538Y1839D02*
X3544Y1839D01*
X3618Y1839D02*
X3623Y1839D01*
X1790Y1838D02*
X1794Y1838D01*
X1869Y1838D02*
X1871Y1838D01*
X2040Y1838D02*
X2044Y1838D01*
X2119Y1838D02*
X2121Y1838D01*
X2290Y1838D02*
X2294Y1838D01*
X2369Y1838D02*
X2371Y1838D01*
X2539Y1838D02*
X2544Y1838D01*
X2618Y1838D02*
X2621Y1838D01*
X2789Y1838D02*
X2794Y1838D01*
X2868Y1838D02*
X2871Y1838D01*
X3039Y1838D02*
X3044Y1838D01*
X3118Y1838D02*
X3121Y1838D01*
X3289Y1838D02*
X3294Y1838D01*
X3368Y1838D02*
X3371Y1838D01*
X3539Y1838D02*
X3544Y1838D01*
X3618Y1838D02*
X3621Y1838D01*
X1791Y1837D02*
X1793Y1837D01*
X2041Y1837D02*
X2043Y1837D01*
X2291Y1837D02*
X2293Y1837D01*
X2541Y1837D02*
X2543Y1837D01*
X2791Y1837D02*
X2793Y1837D01*
X3041Y1837D02*
X3043Y1837D01*
X3291Y1837D02*
X3293Y1837D01*
X3541Y1837D02*
X3543Y1837D01*
X106Y1670D02*
X132Y1670D01*
X182Y1670D02*
X219Y1670D01*
X105Y1669D02*
X134Y1669D01*
X180Y1669D02*
X220Y1669D01*
X105Y1668D02*
X135Y1668D01*
X179Y1668D02*
X222Y1668D01*
X104Y1667D02*
X136Y1667D01*
X178Y1667D02*
X222Y1667D01*
X104Y1666D02*
X138Y1666D01*
X177Y1666D02*
X223Y1666D01*
X104Y1665D02*
X138Y1665D01*
X177Y1665D02*
X224Y1665D01*
X104Y1664D02*
X139Y1664D01*
X177Y1664D02*
X224Y1664D01*
X105Y1663D02*
X140Y1663D01*
X176Y1663D02*
X225Y1663D01*
X106Y1662D02*
X140Y1662D01*
X176Y1662D02*
X225Y1662D01*
X108Y1661D02*
X141Y1661D01*
X176Y1661D02*
X225Y1661D01*
X114Y1660D02*
X123Y1660D01*
X130Y1660D02*
X141Y1660D01*
X176Y1660D02*
X185Y1660D01*
X216Y1660D02*
X225Y1660D01*
X114Y1659D02*
X123Y1659D01*
X131Y1659D02*
X142Y1659D01*
X176Y1659D02*
X185Y1659D01*
X216Y1659D02*
X225Y1659D01*
X114Y1658D02*
X123Y1658D01*
X132Y1658D02*
X142Y1658D01*
X176Y1658D02*
X185Y1658D01*
X216Y1658D02*
X225Y1658D01*
X114Y1657D02*
X123Y1657D01*
X132Y1657D02*
X143Y1657D01*
X176Y1657D02*
X185Y1657D01*
X216Y1657D02*
X225Y1657D01*
X114Y1656D02*
X123Y1656D01*
X133Y1656D02*
X143Y1656D01*
X176Y1656D02*
X185Y1656D01*
X216Y1656D02*
X225Y1656D01*
X114Y1655D02*
X123Y1655D01*
X134Y1655D02*
X144Y1655D01*
X176Y1655D02*
X185Y1655D01*
X216Y1655D02*
X225Y1655D01*
X114Y1654D02*
X123Y1654D01*
X134Y1654D02*
X144Y1654D01*
X176Y1654D02*
X185Y1654D01*
X216Y1654D02*
X225Y1654D01*
X114Y1653D02*
X123Y1653D01*
X135Y1653D02*
X145Y1653D01*
X176Y1653D02*
X185Y1653D01*
X216Y1653D02*
X225Y1653D01*
X114Y1652D02*
X123Y1652D01*
X135Y1652D02*
X145Y1652D01*
X176Y1652D02*
X185Y1652D01*
X216Y1652D02*
X225Y1652D01*
X114Y1651D02*
X123Y1651D01*
X136Y1651D02*
X146Y1651D01*
X176Y1651D02*
X185Y1651D01*
X216Y1651D02*
X225Y1651D01*
X114Y1650D02*
X123Y1650D01*
X136Y1650D02*
X146Y1650D01*
X176Y1650D02*
X185Y1650D01*
X216Y1650D02*
X225Y1650D01*
X114Y1649D02*
X123Y1649D01*
X137Y1649D02*
X147Y1649D01*
X176Y1649D02*
X185Y1649D01*
X216Y1649D02*
X225Y1649D01*
X114Y1648D02*
X123Y1648D01*
X137Y1648D02*
X147Y1648D01*
X176Y1648D02*
X185Y1648D01*
X216Y1648D02*
X225Y1648D01*
X114Y1647D02*
X123Y1647D01*
X138Y1647D02*
X148Y1647D01*
X176Y1647D02*
X185Y1647D01*
X216Y1647D02*
X225Y1647D01*
X114Y1646D02*
X123Y1646D01*
X138Y1646D02*
X148Y1646D01*
X176Y1646D02*
X185Y1646D01*
X216Y1646D02*
X225Y1646D01*
X114Y1645D02*
X123Y1645D01*
X139Y1645D02*
X149Y1645D01*
X176Y1645D02*
X185Y1645D01*
X216Y1645D02*
X225Y1645D01*
X114Y1644D02*
X123Y1644D01*
X139Y1644D02*
X149Y1644D01*
X176Y1644D02*
X185Y1644D01*
X216Y1644D02*
X225Y1644D01*
X114Y1643D02*
X123Y1643D01*
X140Y1643D02*
X150Y1643D01*
X176Y1643D02*
X185Y1643D01*
X216Y1643D02*
X225Y1643D01*
X114Y1642D02*
X123Y1642D01*
X140Y1642D02*
X150Y1642D01*
X176Y1642D02*
X185Y1642D01*
X216Y1642D02*
X225Y1642D01*
X114Y1641D02*
X123Y1641D01*
X141Y1641D02*
X151Y1641D01*
X176Y1641D02*
X185Y1641D01*
X216Y1641D02*
X225Y1641D01*
X114Y1640D02*
X123Y1640D01*
X141Y1640D02*
X151Y1640D01*
X176Y1640D02*
X185Y1640D01*
X216Y1640D02*
X225Y1640D01*
X114Y1639D02*
X123Y1639D01*
X142Y1639D02*
X152Y1639D01*
X176Y1639D02*
X185Y1639D01*
X216Y1639D02*
X225Y1639D01*
X114Y1638D02*
X123Y1638D01*
X142Y1638D02*
X152Y1638D01*
X176Y1638D02*
X185Y1638D01*
X216Y1638D02*
X225Y1638D01*
X114Y1637D02*
X123Y1637D01*
X143Y1637D02*
X152Y1637D01*
X176Y1637D02*
X185Y1637D01*
X216Y1637D02*
X225Y1637D01*
X114Y1636D02*
X123Y1636D01*
X143Y1636D02*
X152Y1636D01*
X176Y1636D02*
X185Y1636D01*
X216Y1636D02*
X225Y1636D01*
X114Y1635D02*
X123Y1635D01*
X143Y1635D02*
X153Y1635D01*
X176Y1635D02*
X185Y1635D01*
X216Y1635D02*
X225Y1635D01*
X114Y1634D02*
X123Y1634D01*
X143Y1634D02*
X153Y1634D01*
X176Y1634D02*
X185Y1634D01*
X216Y1634D02*
X225Y1634D01*
X114Y1633D02*
X123Y1633D01*
X144Y1633D02*
X153Y1633D01*
X176Y1633D02*
X185Y1633D01*
X216Y1633D02*
X225Y1633D01*
X114Y1632D02*
X123Y1632D01*
X144Y1632D02*
X153Y1632D01*
X176Y1632D02*
X185Y1632D01*
X216Y1632D02*
X225Y1632D01*
X114Y1631D02*
X123Y1631D01*
X144Y1631D02*
X153Y1631D01*
X176Y1631D02*
X185Y1631D01*
X216Y1631D02*
X225Y1631D01*
X114Y1630D02*
X123Y1630D01*
X143Y1630D02*
X153Y1630D01*
X176Y1630D02*
X185Y1630D01*
X216Y1630D02*
X225Y1630D01*
X114Y1629D02*
X123Y1629D01*
X143Y1629D02*
X153Y1629D01*
X176Y1629D02*
X185Y1629D01*
X216Y1629D02*
X225Y1629D01*
X114Y1628D02*
X123Y1628D01*
X143Y1628D02*
X152Y1628D01*
X176Y1628D02*
X185Y1628D01*
X216Y1628D02*
X225Y1628D01*
X114Y1627D02*
X123Y1627D01*
X143Y1627D02*
X152Y1627D01*
X176Y1627D02*
X185Y1627D01*
X216Y1627D02*
X225Y1627D01*
X114Y1626D02*
X123Y1626D01*
X142Y1626D02*
X152Y1626D01*
X176Y1626D02*
X185Y1626D01*
X216Y1626D02*
X225Y1626D01*
X114Y1625D02*
X123Y1625D01*
X142Y1625D02*
X152Y1625D01*
X176Y1625D02*
X185Y1625D01*
X216Y1625D02*
X225Y1625D01*
X114Y1624D02*
X123Y1624D01*
X141Y1624D02*
X151Y1624D01*
X176Y1624D02*
X185Y1624D01*
X216Y1624D02*
X225Y1624D01*
X114Y1623D02*
X123Y1623D01*
X141Y1623D02*
X151Y1623D01*
X176Y1623D02*
X185Y1623D01*
X216Y1623D02*
X225Y1623D01*
X114Y1622D02*
X123Y1622D01*
X140Y1622D02*
X150Y1622D01*
X176Y1622D02*
X185Y1622D01*
X216Y1622D02*
X225Y1622D01*
X114Y1621D02*
X123Y1621D01*
X140Y1621D02*
X150Y1621D01*
X176Y1621D02*
X185Y1621D01*
X216Y1621D02*
X225Y1621D01*
X114Y1620D02*
X123Y1620D01*
X139Y1620D02*
X149Y1620D01*
X176Y1620D02*
X185Y1620D01*
X216Y1620D02*
X225Y1620D01*
X114Y1619D02*
X123Y1619D01*
X139Y1619D02*
X149Y1619D01*
X176Y1619D02*
X185Y1619D01*
X216Y1619D02*
X225Y1619D01*
X114Y1618D02*
X123Y1618D01*
X138Y1618D02*
X149Y1618D01*
X176Y1618D02*
X185Y1618D01*
X216Y1618D02*
X225Y1618D01*
X114Y1617D02*
X123Y1617D01*
X138Y1617D02*
X148Y1617D01*
X176Y1617D02*
X185Y1617D01*
X216Y1617D02*
X225Y1617D01*
X114Y1616D02*
X123Y1616D01*
X137Y1616D02*
X148Y1616D01*
X176Y1616D02*
X185Y1616D01*
X216Y1616D02*
X225Y1616D01*
X114Y1615D02*
X123Y1615D01*
X137Y1615D02*
X147Y1615D01*
X176Y1615D02*
X185Y1615D01*
X216Y1615D02*
X225Y1615D01*
X114Y1614D02*
X123Y1614D01*
X136Y1614D02*
X147Y1614D01*
X176Y1614D02*
X185Y1614D01*
X216Y1614D02*
X225Y1614D01*
X114Y1613D02*
X123Y1613D01*
X136Y1613D02*
X146Y1613D01*
X176Y1613D02*
X185Y1613D01*
X216Y1613D02*
X225Y1613D01*
X114Y1612D02*
X123Y1612D01*
X135Y1612D02*
X146Y1612D01*
X176Y1612D02*
X185Y1612D01*
X216Y1612D02*
X225Y1612D01*
X114Y1611D02*
X123Y1611D01*
X135Y1611D02*
X145Y1611D01*
X176Y1611D02*
X185Y1611D01*
X216Y1611D02*
X225Y1611D01*
X114Y1610D02*
X123Y1610D01*
X134Y1610D02*
X145Y1610D01*
X176Y1610D02*
X185Y1610D01*
X216Y1610D02*
X225Y1610D01*
X114Y1609D02*
X123Y1609D01*
X134Y1609D02*
X144Y1609D01*
X176Y1609D02*
X185Y1609D01*
X216Y1609D02*
X225Y1609D01*
X114Y1608D02*
X123Y1608D01*
X133Y1608D02*
X144Y1608D01*
X176Y1608D02*
X185Y1608D01*
X216Y1608D02*
X225Y1608D01*
X114Y1607D02*
X123Y1607D01*
X133Y1607D02*
X143Y1607D01*
X176Y1607D02*
X185Y1607D01*
X216Y1607D02*
X225Y1607D01*
X114Y1606D02*
X123Y1606D01*
X132Y1606D02*
X143Y1606D01*
X176Y1606D02*
X185Y1606D01*
X216Y1606D02*
X225Y1606D01*
X114Y1605D02*
X123Y1605D01*
X131Y1605D02*
X142Y1605D01*
X176Y1605D02*
X185Y1605D01*
X216Y1605D02*
X225Y1605D01*
X114Y1604D02*
X123Y1604D01*
X131Y1604D02*
X142Y1604D01*
X176Y1604D02*
X185Y1604D01*
X216Y1604D02*
X225Y1604D01*
X109Y1603D02*
X141Y1603D01*
X176Y1603D02*
X225Y1603D01*
X106Y1602D02*
X141Y1602D01*
X176Y1602D02*
X225Y1602D01*
X105Y1601D02*
X140Y1601D01*
X176Y1601D02*
X225Y1601D01*
X104Y1600D02*
X140Y1600D01*
X176Y1600D02*
X224Y1600D01*
X104Y1599D02*
X139Y1599D01*
X177Y1599D02*
X224Y1599D01*
X104Y1598D02*
X138Y1598D01*
X177Y1598D02*
X223Y1598D01*
X104Y1597D02*
X137Y1597D01*
X178Y1597D02*
X223Y1597D01*
X104Y1596D02*
X136Y1596D01*
X179Y1596D02*
X222Y1596D01*
X105Y1595D02*
X134Y1595D01*
X180Y1595D02*
X221Y1595D01*
X106Y1594D02*
X132Y1594D01*
X182Y1594D02*
X219Y1594D01*
X109Y1593D02*
X128Y1593D01*
X185Y1593D02*
X216Y1593D01*
X1036Y1083D02*
X1068Y1083D01*
X1087Y1083D02*
X1090Y1083D01*
X1136Y1083D02*
X1154Y1083D01*
X1186Y1083D02*
X1218Y1083D01*
X1236Y1083D02*
X1264Y1083D01*
X1035Y1082D02*
X1068Y1082D01*
X1086Y1082D02*
X1091Y1082D01*
X1135Y1082D02*
X1154Y1082D01*
X1185Y1082D02*
X1218Y1082D01*
X1235Y1082D02*
X1265Y1082D01*
X1034Y1081D02*
X1068Y1081D01*
X1086Y1081D02*
X1092Y1081D01*
X1134Y1081D02*
X1154Y1081D01*
X1184Y1081D02*
X1218Y1081D01*
X1234Y1081D02*
X1266Y1081D01*
X1034Y1080D02*
X1068Y1080D01*
X1086Y1080D02*
X1092Y1080D01*
X1134Y1080D02*
X1154Y1080D01*
X1184Y1080D02*
X1218Y1080D01*
X1234Y1080D02*
X1267Y1080D01*
X1034Y1079D02*
X1068Y1079D01*
X1086Y1079D02*
X1092Y1079D01*
X1134Y1079D02*
X1154Y1079D01*
X1184Y1079D02*
X1218Y1079D01*
X1234Y1079D02*
X1267Y1079D01*
X1034Y1078D02*
X1068Y1078D01*
X1086Y1078D02*
X1092Y1078D01*
X1135Y1078D02*
X1154Y1078D01*
X1184Y1078D02*
X1218Y1078D01*
X1235Y1078D02*
X1268Y1078D01*
X1034Y1077D02*
X1068Y1077D01*
X1086Y1077D02*
X1092Y1077D01*
X1108Y1077D02*
X1111Y1077D01*
X1136Y1077D02*
X1154Y1077D01*
X1184Y1077D02*
X1218Y1077D01*
X1236Y1077D02*
X1268Y1077D01*
X1034Y1076D02*
X1040Y1076D01*
X1062Y1076D02*
X1068Y1076D01*
X1086Y1076D02*
X1092Y1076D01*
X1107Y1076D02*
X1112Y1076D01*
X1148Y1076D02*
X1154Y1076D01*
X1184Y1076D02*
X1190Y1076D01*
X1212Y1076D02*
X1218Y1076D01*
X1262Y1076D02*
X1268Y1076D01*
X1035Y1075D02*
X1039Y1075D01*
X1062Y1075D02*
X1068Y1075D01*
X1086Y1075D02*
X1092Y1075D01*
X1107Y1075D02*
X1112Y1075D01*
X1148Y1075D02*
X1154Y1075D01*
X1185Y1075D02*
X1189Y1075D01*
X1212Y1075D02*
X1218Y1075D01*
X1262Y1075D02*
X1268Y1075D01*
X1036Y1074D02*
X1038Y1074D01*
X1062Y1074D02*
X1068Y1074D01*
X1086Y1074D02*
X1092Y1074D01*
X1106Y1074D02*
X1112Y1074D01*
X1148Y1074D02*
X1154Y1074D01*
X1186Y1074D02*
X1188Y1074D01*
X1212Y1074D02*
X1218Y1074D01*
X1262Y1074D02*
X1268Y1074D01*
X1062Y1073D02*
X1068Y1073D01*
X1086Y1073D02*
X1092Y1073D01*
X1106Y1073D02*
X1112Y1073D01*
X1148Y1073D02*
X1154Y1073D01*
X1212Y1073D02*
X1218Y1073D01*
X1262Y1073D02*
X1268Y1073D01*
X1062Y1072D02*
X1068Y1072D01*
X1086Y1072D02*
X1092Y1072D01*
X1106Y1072D02*
X1112Y1072D01*
X1148Y1072D02*
X1154Y1072D01*
X1212Y1072D02*
X1218Y1072D01*
X1262Y1072D02*
X1268Y1072D01*
X1062Y1071D02*
X1068Y1071D01*
X1086Y1071D02*
X1092Y1071D01*
X1106Y1071D02*
X1112Y1071D01*
X1148Y1071D02*
X1154Y1071D01*
X1212Y1071D02*
X1218Y1071D01*
X1262Y1071D02*
X1268Y1071D01*
X1062Y1070D02*
X1068Y1070D01*
X1086Y1070D02*
X1092Y1070D01*
X1106Y1070D02*
X1112Y1070D01*
X1148Y1070D02*
X1154Y1070D01*
X1212Y1070D02*
X1218Y1070D01*
X1262Y1070D02*
X1268Y1070D01*
X1062Y1069D02*
X1068Y1069D01*
X1086Y1069D02*
X1092Y1069D01*
X1106Y1069D02*
X1112Y1069D01*
X1148Y1069D02*
X1154Y1069D01*
X1212Y1069D02*
X1218Y1069D01*
X1262Y1069D02*
X1268Y1069D01*
X1062Y1068D02*
X1068Y1068D01*
X1086Y1068D02*
X1092Y1068D01*
X1106Y1068D02*
X1112Y1068D01*
X1148Y1068D02*
X1154Y1068D01*
X1212Y1068D02*
X1218Y1068D01*
X1262Y1068D02*
X1268Y1068D01*
X1062Y1067D02*
X1068Y1067D01*
X1086Y1067D02*
X1092Y1067D01*
X1106Y1067D02*
X1112Y1067D01*
X1148Y1067D02*
X1154Y1067D01*
X1212Y1067D02*
X1218Y1067D01*
X1262Y1067D02*
X1268Y1067D01*
X1062Y1066D02*
X1068Y1066D01*
X1086Y1066D02*
X1092Y1066D01*
X1106Y1066D02*
X1112Y1066D01*
X1148Y1066D02*
X1154Y1066D01*
X1212Y1066D02*
X1218Y1066D01*
X1262Y1066D02*
X1268Y1066D01*
X1062Y1065D02*
X1068Y1065D01*
X1086Y1065D02*
X1092Y1065D01*
X1106Y1065D02*
X1112Y1065D01*
X1148Y1065D02*
X1154Y1065D01*
X1212Y1065D02*
X1218Y1065D01*
X1262Y1065D02*
X1268Y1065D01*
X1061Y1064D02*
X1068Y1064D01*
X1086Y1064D02*
X1092Y1064D01*
X1106Y1064D02*
X1112Y1064D01*
X1148Y1064D02*
X1154Y1064D01*
X1211Y1064D02*
X1218Y1064D01*
X1262Y1064D02*
X1268Y1064D01*
X1060Y1063D02*
X1068Y1063D01*
X1086Y1063D02*
X1092Y1063D01*
X1106Y1063D02*
X1112Y1063D01*
X1148Y1063D02*
X1154Y1063D01*
X1210Y1063D02*
X1218Y1063D01*
X1262Y1063D02*
X1268Y1063D01*
X1059Y1062D02*
X1068Y1062D01*
X1086Y1062D02*
X1092Y1062D01*
X1106Y1062D02*
X1112Y1062D01*
X1148Y1062D02*
X1154Y1062D01*
X1209Y1062D02*
X1218Y1062D01*
X1261Y1062D02*
X1268Y1062D01*
X1058Y1061D02*
X1067Y1061D01*
X1086Y1061D02*
X1092Y1061D01*
X1106Y1061D02*
X1112Y1061D01*
X1148Y1061D02*
X1154Y1061D01*
X1208Y1061D02*
X1217Y1061D01*
X1260Y1061D02*
X1267Y1061D01*
X1057Y1060D02*
X1067Y1060D01*
X1086Y1060D02*
X1092Y1060D01*
X1106Y1060D02*
X1112Y1060D01*
X1148Y1060D02*
X1154Y1060D01*
X1207Y1060D02*
X1217Y1060D01*
X1244Y1060D02*
X1267Y1060D01*
X1056Y1059D02*
X1065Y1059D01*
X1086Y1059D02*
X1092Y1059D01*
X1106Y1059D02*
X1112Y1059D01*
X1148Y1059D02*
X1154Y1059D01*
X1206Y1059D02*
X1215Y1059D01*
X1242Y1059D02*
X1267Y1059D01*
X1054Y1058D02*
X1064Y1058D01*
X1086Y1058D02*
X1092Y1058D01*
X1106Y1058D02*
X1112Y1058D01*
X1148Y1058D02*
X1154Y1058D01*
X1204Y1058D02*
X1214Y1058D01*
X1241Y1058D02*
X1266Y1058D01*
X1053Y1057D02*
X1063Y1057D01*
X1086Y1057D02*
X1092Y1057D01*
X1106Y1057D02*
X1112Y1057D01*
X1148Y1057D02*
X1154Y1057D01*
X1203Y1057D02*
X1213Y1057D01*
X1241Y1057D02*
X1265Y1057D01*
X1052Y1056D02*
X1062Y1056D01*
X1086Y1056D02*
X1092Y1056D01*
X1106Y1056D02*
X1112Y1056D01*
X1148Y1056D02*
X1154Y1056D01*
X1202Y1056D02*
X1212Y1056D01*
X1241Y1056D02*
X1265Y1056D01*
X1051Y1055D02*
X1061Y1055D01*
X1086Y1055D02*
X1092Y1055D01*
X1106Y1055D02*
X1112Y1055D01*
X1148Y1055D02*
X1154Y1055D01*
X1201Y1055D02*
X1211Y1055D01*
X1241Y1055D02*
X1266Y1055D01*
X1050Y1054D02*
X1060Y1054D01*
X1086Y1054D02*
X1114Y1054D01*
X1148Y1054D02*
X1154Y1054D01*
X1164Y1054D02*
X1165Y1054D01*
X1200Y1054D02*
X1210Y1054D01*
X1242Y1054D02*
X1267Y1054D01*
X1049Y1053D02*
X1058Y1053D01*
X1086Y1053D02*
X1115Y1053D01*
X1148Y1053D02*
X1154Y1053D01*
X1163Y1053D02*
X1167Y1053D01*
X1199Y1053D02*
X1208Y1053D01*
X1259Y1053D02*
X1267Y1053D01*
X1048Y1052D02*
X1057Y1052D01*
X1086Y1052D02*
X1116Y1052D01*
X1148Y1052D02*
X1154Y1052D01*
X1162Y1052D02*
X1167Y1052D01*
X1198Y1052D02*
X1207Y1052D01*
X1261Y1052D02*
X1267Y1052D01*
X1048Y1051D02*
X1056Y1051D01*
X1086Y1051D02*
X1116Y1051D01*
X1148Y1051D02*
X1154Y1051D01*
X1162Y1051D02*
X1168Y1051D01*
X1198Y1051D02*
X1206Y1051D01*
X1261Y1051D02*
X1268Y1051D01*
X1048Y1050D02*
X1055Y1050D01*
X1086Y1050D02*
X1116Y1050D01*
X1148Y1050D02*
X1154Y1050D01*
X1162Y1050D02*
X1168Y1050D01*
X1198Y1050D02*
X1205Y1050D01*
X1262Y1050D02*
X1268Y1050D01*
X1048Y1049D02*
X1054Y1049D01*
X1086Y1049D02*
X1115Y1049D01*
X1148Y1049D02*
X1154Y1049D01*
X1162Y1049D02*
X1168Y1049D01*
X1198Y1049D02*
X1204Y1049D01*
X1262Y1049D02*
X1268Y1049D01*
X1048Y1048D02*
X1054Y1048D01*
X1086Y1048D02*
X1115Y1048D01*
X1148Y1048D02*
X1154Y1048D01*
X1162Y1048D02*
X1168Y1048D01*
X1198Y1048D02*
X1204Y1048D01*
X1262Y1048D02*
X1268Y1048D01*
X1048Y1047D02*
X1054Y1047D01*
X1106Y1047D02*
X1113Y1047D01*
X1148Y1047D02*
X1154Y1047D01*
X1162Y1047D02*
X1168Y1047D01*
X1198Y1047D02*
X1204Y1047D01*
X1262Y1047D02*
X1268Y1047D01*
X1048Y1046D02*
X1054Y1046D01*
X1106Y1046D02*
X1112Y1046D01*
X1148Y1046D02*
X1154Y1046D01*
X1162Y1046D02*
X1168Y1046D01*
X1198Y1046D02*
X1204Y1046D01*
X1262Y1046D02*
X1268Y1046D01*
X1048Y1045D02*
X1054Y1045D01*
X1106Y1045D02*
X1112Y1045D01*
X1148Y1045D02*
X1154Y1045D01*
X1162Y1045D02*
X1168Y1045D01*
X1198Y1045D02*
X1204Y1045D01*
X1262Y1045D02*
X1268Y1045D01*
X1048Y1044D02*
X1054Y1044D01*
X1106Y1044D02*
X1112Y1044D01*
X1148Y1044D02*
X1154Y1044D01*
X1162Y1044D02*
X1168Y1044D01*
X1198Y1044D02*
X1204Y1044D01*
X1262Y1044D02*
X1268Y1044D01*
X1048Y1043D02*
X1054Y1043D01*
X1106Y1043D02*
X1112Y1043D01*
X1148Y1043D02*
X1154Y1043D01*
X1162Y1043D02*
X1168Y1043D01*
X1198Y1043D02*
X1204Y1043D01*
X1262Y1043D02*
X1268Y1043D01*
X1048Y1042D02*
X1054Y1042D01*
X1106Y1042D02*
X1112Y1042D01*
X1148Y1042D02*
X1154Y1042D01*
X1162Y1042D02*
X1168Y1042D01*
X1198Y1042D02*
X1204Y1042D01*
X1262Y1042D02*
X1268Y1042D01*
X1048Y1041D02*
X1054Y1041D01*
X1106Y1041D02*
X1112Y1041D01*
X1148Y1041D02*
X1154Y1041D01*
X1162Y1041D02*
X1168Y1041D01*
X1198Y1041D02*
X1204Y1041D01*
X1262Y1041D02*
X1268Y1041D01*
X1048Y1040D02*
X1054Y1040D01*
X1106Y1040D02*
X1112Y1040D01*
X1148Y1040D02*
X1154Y1040D01*
X1162Y1040D02*
X1168Y1040D01*
X1198Y1040D02*
X1204Y1040D01*
X1262Y1040D02*
X1268Y1040D01*
X1048Y1039D02*
X1054Y1039D01*
X1106Y1039D02*
X1112Y1039D01*
X1148Y1039D02*
X1154Y1039D01*
X1162Y1039D02*
X1168Y1039D01*
X1198Y1039D02*
X1204Y1039D01*
X1262Y1039D02*
X1268Y1039D01*
X1048Y1038D02*
X1054Y1038D01*
X1106Y1038D02*
X1112Y1038D01*
X1148Y1038D02*
X1154Y1038D01*
X1162Y1038D02*
X1168Y1038D01*
X1198Y1038D02*
X1204Y1038D01*
X1262Y1038D02*
X1268Y1038D01*
X1048Y1037D02*
X1054Y1037D01*
X1106Y1037D02*
X1112Y1037D01*
X1148Y1037D02*
X1154Y1037D01*
X1162Y1037D02*
X1168Y1037D01*
X1198Y1037D02*
X1204Y1037D01*
X1262Y1037D02*
X1268Y1037D01*
X1048Y1036D02*
X1054Y1036D01*
X1106Y1036D02*
X1112Y1036D01*
X1136Y1036D02*
X1168Y1036D01*
X1198Y1036D02*
X1204Y1036D01*
X1236Y1036D02*
X1268Y1036D01*
X1048Y1035D02*
X1054Y1035D01*
X1106Y1035D02*
X1112Y1035D01*
X1135Y1035D02*
X1168Y1035D01*
X1198Y1035D02*
X1204Y1035D01*
X1235Y1035D02*
X1267Y1035D01*
X1048Y1034D02*
X1054Y1034D01*
X1106Y1034D02*
X1112Y1034D01*
X1134Y1034D02*
X1168Y1034D01*
X1198Y1034D02*
X1204Y1034D01*
X1234Y1034D02*
X1267Y1034D01*
X1048Y1033D02*
X1054Y1033D01*
X1106Y1033D02*
X1112Y1033D01*
X1134Y1033D02*
X1168Y1033D01*
X1198Y1033D02*
X1204Y1033D01*
X1234Y1033D02*
X1267Y1033D01*
X1048Y1032D02*
X1054Y1032D01*
X1107Y1032D02*
X1112Y1032D01*
X1134Y1032D02*
X1167Y1032D01*
X1198Y1032D02*
X1204Y1032D01*
X1234Y1032D02*
X1266Y1032D01*
X1049Y1031D02*
X1053Y1031D01*
X1107Y1031D02*
X1112Y1031D01*
X1135Y1031D02*
X1167Y1031D01*
X1199Y1031D02*
X1203Y1031D01*
X1235Y1031D02*
X1265Y1031D01*
X1050Y1030D02*
X1052Y1030D01*
X1108Y1030D02*
X1111Y1030D01*
X1136Y1030D02*
X1166Y1030D01*
X1200Y1030D02*
X1202Y1030D01*
X1236Y1030D02*
X1263Y1030D01*
X3112Y987D02*
X3118Y987D01*
X3111Y986D02*
X3119Y986D01*
X3111Y985D02*
X3120Y985D01*
X3111Y984D02*
X3120Y984D01*
X3111Y983D02*
X3120Y983D01*
X3112Y982D02*
X3120Y982D01*
X3113Y981D02*
X3120Y981D01*
X3114Y980D02*
X3120Y980D01*
X3114Y979D02*
X3120Y979D01*
X3114Y978D02*
X3120Y978D01*
X3114Y977D02*
X3120Y977D01*
X3114Y976D02*
X3120Y976D01*
X3114Y975D02*
X3120Y975D01*
X3069Y974D02*
X3087Y974D01*
X3114Y974D02*
X3120Y974D01*
X3067Y973D02*
X3089Y973D01*
X3114Y973D02*
X3120Y973D01*
X3067Y972D02*
X3090Y972D01*
X3114Y972D02*
X3120Y972D01*
X3067Y971D02*
X3091Y971D01*
X3114Y971D02*
X3120Y971D01*
X3067Y970D02*
X3092Y970D01*
X3114Y970D02*
X3120Y970D01*
X3067Y969D02*
X3093Y969D01*
X3114Y969D02*
X3120Y969D01*
X3068Y968D02*
X3094Y968D01*
X3114Y968D02*
X3120Y968D01*
X3086Y967D02*
X3094Y967D01*
X3114Y967D02*
X3120Y967D01*
X3087Y966D02*
X3095Y966D01*
X3114Y966D02*
X3120Y966D01*
X3088Y965D02*
X3096Y965D01*
X3114Y965D02*
X3120Y965D01*
X3089Y964D02*
X3097Y964D01*
X3114Y964D02*
X3120Y964D01*
X3090Y963D02*
X3098Y963D01*
X3114Y963D02*
X3120Y963D01*
X3090Y962D02*
X3099Y962D01*
X3114Y962D02*
X3120Y962D01*
X3091Y961D02*
X3099Y961D01*
X3114Y961D02*
X3120Y961D01*
X3092Y960D02*
X3120Y960D01*
X3093Y959D02*
X3120Y959D01*
X3094Y958D02*
X3120Y958D01*
X3095Y957D02*
X3120Y957D01*
X3096Y956D02*
X3120Y956D01*
X3096Y955D02*
X3120Y955D01*
X3097Y954D02*
X3120Y954D01*
X3084Y936D02*
X3117Y936D01*
X3084Y935D02*
X3119Y935D01*
X3084Y934D02*
X3119Y934D01*
X3084Y933D02*
X3120Y933D01*
X3084Y932D02*
X3119Y932D01*
X3084Y931D02*
X3119Y931D01*
X3084Y930D02*
X3118Y930D01*
X3084Y929D02*
X3090Y929D01*
X3084Y928D02*
X3090Y928D01*
X3084Y927D02*
X3090Y927D01*
X3084Y926D02*
X3090Y926D01*
X3084Y925D02*
X3090Y925D01*
X3084Y924D02*
X3090Y924D01*
X3084Y923D02*
X3090Y923D01*
X3084Y922D02*
X3090Y922D01*
X3084Y921D02*
X3090Y921D01*
X3084Y920D02*
X3090Y920D01*
X3084Y919D02*
X3090Y919D01*
X3084Y918D02*
X3090Y918D01*
X3084Y917D02*
X3090Y917D01*
X3084Y916D02*
X3090Y916D01*
X3068Y915D02*
X3112Y915D01*
X3067Y914D02*
X3113Y914D01*
X3067Y913D02*
X3114Y913D01*
X3066Y912D02*
X3114Y912D01*
X3067Y911D02*
X3113Y911D01*
X3067Y910D02*
X3113Y910D01*
X3068Y909D02*
X3112Y909D01*
X3084Y908D02*
X3090Y908D01*
X3085Y907D02*
X3090Y907D01*
X3085Y906D02*
X3089Y906D01*
X3066Y887D02*
X3092Y887D01*
X3115Y887D02*
X3118Y887D01*
X3066Y886D02*
X3094Y886D01*
X3114Y886D02*
X3119Y886D01*
X3066Y885D02*
X3095Y885D01*
X3114Y885D02*
X3120Y885D01*
X3066Y884D02*
X3095Y884D01*
X3114Y884D02*
X3120Y884D01*
X3066Y883D02*
X3096Y883D01*
X3114Y883D02*
X3120Y883D01*
X3066Y882D02*
X3096Y882D01*
X3114Y882D02*
X3120Y882D01*
X3066Y881D02*
X3096Y881D01*
X3114Y881D02*
X3120Y881D01*
X3066Y880D02*
X3072Y880D01*
X3090Y880D02*
X3096Y880D01*
X3114Y880D02*
X3120Y880D01*
X3066Y879D02*
X3072Y879D01*
X3090Y879D02*
X3096Y879D01*
X3114Y879D02*
X3120Y879D01*
X3066Y878D02*
X3072Y878D01*
X3090Y878D02*
X3096Y878D01*
X3114Y878D02*
X3120Y878D01*
X3066Y877D02*
X3072Y877D01*
X3090Y877D02*
X3096Y877D01*
X3114Y877D02*
X3120Y877D01*
X3066Y876D02*
X3072Y876D01*
X3090Y876D02*
X3096Y876D01*
X3114Y876D02*
X3120Y876D01*
X3066Y875D02*
X3072Y875D01*
X3090Y875D02*
X3096Y875D01*
X3114Y875D02*
X3120Y875D01*
X3066Y874D02*
X3072Y874D01*
X3090Y874D02*
X3096Y874D01*
X3114Y874D02*
X3120Y874D01*
X3066Y873D02*
X3072Y873D01*
X3090Y873D02*
X3096Y873D01*
X3114Y873D02*
X3120Y873D01*
X3066Y872D02*
X3072Y872D01*
X3090Y872D02*
X3096Y872D01*
X3114Y872D02*
X3120Y872D01*
X3066Y871D02*
X3072Y871D01*
X3090Y871D02*
X3096Y871D01*
X3114Y871D02*
X3120Y871D01*
X3066Y870D02*
X3072Y870D01*
X3090Y870D02*
X3096Y870D01*
X3114Y870D02*
X3120Y870D01*
X3066Y869D02*
X3072Y869D01*
X3090Y869D02*
X3096Y869D01*
X3114Y869D02*
X3120Y869D01*
X3066Y868D02*
X3072Y868D01*
X3090Y868D02*
X3096Y868D01*
X3114Y868D02*
X3120Y868D01*
X3066Y867D02*
X3072Y867D01*
X3090Y867D02*
X3096Y867D01*
X3114Y867D02*
X3120Y867D01*
X3066Y866D02*
X3072Y866D01*
X3090Y866D02*
X3096Y866D01*
X3114Y866D02*
X3120Y866D01*
X3066Y865D02*
X3072Y865D01*
X3090Y865D02*
X3096Y865D01*
X3114Y865D02*
X3120Y865D01*
X3066Y864D02*
X3072Y864D01*
X3090Y864D02*
X3096Y864D01*
X3114Y864D02*
X3120Y864D01*
X3066Y863D02*
X3072Y863D01*
X3090Y863D02*
X3096Y863D01*
X3114Y863D02*
X3120Y863D01*
X3066Y862D02*
X3072Y862D01*
X3090Y862D02*
X3096Y862D01*
X3114Y862D02*
X3120Y862D01*
X3066Y861D02*
X3072Y861D01*
X3090Y861D02*
X3096Y861D01*
X3114Y861D02*
X3120Y861D01*
X3066Y860D02*
X3072Y860D01*
X3090Y860D02*
X3120Y860D01*
X3066Y859D02*
X3072Y859D01*
X3090Y859D02*
X3119Y859D01*
X3066Y858D02*
X3072Y858D01*
X3090Y858D02*
X3119Y858D01*
X3066Y857D02*
X3072Y857D01*
X3091Y857D02*
X3119Y857D01*
X3067Y856D02*
X3072Y856D01*
X3092Y856D02*
X3118Y856D01*
X3067Y855D02*
X3072Y855D01*
X3093Y855D02*
X3117Y855D01*
X3068Y854D02*
X3071Y854D01*
X3094Y854D02*
X3115Y854D01*
X3084Y836D02*
X3117Y836D01*
X3084Y835D02*
X3119Y835D01*
X3084Y834D02*
X3119Y834D01*
X3084Y833D02*
X3120Y833D01*
X3084Y832D02*
X3119Y832D01*
X3084Y831D02*
X3119Y831D01*
X3084Y830D02*
X3118Y830D01*
X3084Y829D02*
X3090Y829D01*
X3084Y828D02*
X3090Y828D01*
X3084Y827D02*
X3090Y827D01*
X3084Y826D02*
X3090Y826D01*
X3084Y825D02*
X3090Y825D01*
X3084Y824D02*
X3090Y824D01*
X3084Y823D02*
X3090Y823D01*
X3084Y822D02*
X3090Y822D01*
X3084Y821D02*
X3090Y821D01*
X3084Y820D02*
X3090Y820D01*
X3084Y819D02*
X3090Y819D01*
X3084Y818D02*
X3090Y818D01*
X3084Y817D02*
X3090Y817D01*
X3084Y816D02*
X3090Y816D01*
X3068Y815D02*
X3112Y815D01*
X3067Y814D02*
X3113Y814D01*
X3067Y813D02*
X3114Y813D01*
X3066Y812D02*
X3114Y812D01*
X3067Y811D02*
X3113Y811D01*
X3067Y810D02*
X3113Y810D01*
X3068Y809D02*
X3112Y809D01*
X3084Y808D02*
X3090Y808D01*
X3085Y807D02*
X3090Y807D01*
X3085Y806D02*
X3089Y806D01*
X3070Y787D02*
X3074Y787D01*
X3070Y786D02*
X3075Y786D01*
X3069Y785D02*
X3075Y785D01*
X3069Y784D02*
X3075Y784D01*
X3068Y783D02*
X3075Y783D01*
X3068Y782D02*
X3075Y782D01*
X3067Y781D02*
X3074Y781D01*
X3090Y781D02*
X3119Y781D01*
X3067Y780D02*
X3074Y780D01*
X3090Y780D02*
X3120Y780D01*
X3067Y779D02*
X3073Y779D01*
X3090Y779D02*
X3120Y779D01*
X3067Y778D02*
X3073Y778D01*
X3090Y778D02*
X3120Y778D01*
X3067Y777D02*
X3073Y777D01*
X3090Y777D02*
X3120Y777D01*
X3066Y776D02*
X3072Y776D01*
X3090Y776D02*
X3120Y776D01*
X3066Y775D02*
X3072Y775D01*
X3090Y775D02*
X3120Y775D01*
X3066Y774D02*
X3072Y774D01*
X3090Y774D02*
X3096Y774D01*
X3113Y774D02*
X3120Y774D01*
X3066Y773D02*
X3072Y773D01*
X3090Y773D02*
X3096Y773D01*
X3114Y773D02*
X3120Y773D01*
X3066Y772D02*
X3072Y772D01*
X3090Y772D02*
X3096Y772D01*
X3114Y772D02*
X3120Y772D01*
X3066Y771D02*
X3072Y771D01*
X3090Y771D02*
X3096Y771D01*
X3114Y771D02*
X3120Y771D01*
X3066Y770D02*
X3072Y770D01*
X3090Y770D02*
X3096Y770D01*
X3114Y770D02*
X3120Y770D01*
X3066Y769D02*
X3072Y769D01*
X3090Y769D02*
X3096Y769D01*
X3114Y769D02*
X3120Y769D01*
X3066Y768D02*
X3072Y768D01*
X3090Y768D02*
X3096Y768D01*
X3114Y768D02*
X3120Y768D01*
X3066Y767D02*
X3072Y767D01*
X3090Y767D02*
X3096Y767D01*
X3114Y767D02*
X3120Y767D01*
X3066Y766D02*
X3072Y766D01*
X3090Y766D02*
X3096Y766D01*
X3114Y766D02*
X3120Y766D01*
X3066Y765D02*
X3072Y765D01*
X3090Y765D02*
X3096Y765D01*
X3114Y765D02*
X3120Y765D01*
X3066Y764D02*
X3072Y764D01*
X3090Y764D02*
X3096Y764D01*
X3114Y764D02*
X3120Y764D01*
X3066Y763D02*
X3072Y763D01*
X3090Y763D02*
X3096Y763D01*
X3114Y763D02*
X3120Y763D01*
X3066Y762D02*
X3072Y762D01*
X3090Y762D02*
X3096Y762D01*
X3114Y762D02*
X3120Y762D01*
X3066Y761D02*
X3072Y761D01*
X3090Y761D02*
X3096Y761D01*
X3114Y761D02*
X3120Y761D01*
X3066Y760D02*
X3096Y760D01*
X3114Y760D02*
X3120Y760D01*
X3067Y759D02*
X3096Y759D01*
X3114Y759D02*
X3120Y759D01*
X3067Y758D02*
X3096Y758D01*
X3114Y758D02*
X3120Y758D01*
X3067Y757D02*
X3095Y757D01*
X3114Y757D02*
X3120Y757D01*
X3068Y756D02*
X3094Y756D01*
X3114Y756D02*
X3119Y756D01*
X3069Y755D02*
X3093Y755D01*
X3114Y755D02*
X3119Y755D01*
X3071Y754D02*
X3092Y754D01*
X3115Y754D02*
X3118Y754D01*
X3075Y292D02*
X3101Y292D01*
X3151Y292D02*
X3188Y292D01*
X3074Y291D02*
X3103Y291D01*
X3149Y291D02*
X3190Y291D01*
X3074Y290D02*
X3104Y290D01*
X3148Y290D02*
X3191Y290D01*
X3073Y289D02*
X3106Y289D01*
X3147Y289D02*
X3192Y289D01*
X3073Y288D02*
X3107Y288D01*
X3147Y288D02*
X3192Y288D01*
X3073Y287D02*
X3108Y287D01*
X3146Y287D02*
X3193Y287D01*
X3074Y286D02*
X3108Y286D01*
X3146Y286D02*
X3193Y286D01*
X3074Y285D02*
X3109Y285D01*
X3145Y285D02*
X3194Y285D01*
X3075Y284D02*
X3110Y284D01*
X3145Y284D02*
X3194Y284D01*
X3077Y283D02*
X3110Y283D01*
X3145Y283D02*
X3194Y283D01*
X3083Y282D02*
X3092Y282D01*
X3100Y282D02*
X3111Y282D01*
X3145Y282D02*
X3154Y282D01*
X3185Y282D02*
X3194Y282D01*
X3083Y281D02*
X3092Y281D01*
X3101Y281D02*
X3111Y281D01*
X3145Y281D02*
X3154Y281D01*
X3185Y281D02*
X3194Y281D01*
X3083Y280D02*
X3092Y280D01*
X3101Y280D02*
X3112Y280D01*
X3145Y280D02*
X3154Y280D01*
X3185Y280D02*
X3194Y280D01*
X3083Y279D02*
X3092Y279D01*
X3102Y279D02*
X3112Y279D01*
X3145Y279D02*
X3154Y279D01*
X3185Y279D02*
X3194Y279D01*
X3083Y278D02*
X3092Y278D01*
X3102Y278D02*
X3113Y278D01*
X3145Y278D02*
X3154Y278D01*
X3185Y278D02*
X3194Y278D01*
X3083Y277D02*
X3092Y277D01*
X3103Y277D02*
X3113Y277D01*
X3145Y277D02*
X3154Y277D01*
X3185Y277D02*
X3194Y277D01*
X3083Y276D02*
X3092Y276D01*
X3103Y276D02*
X3114Y276D01*
X3145Y276D02*
X3154Y276D01*
X3185Y276D02*
X3194Y276D01*
X3083Y275D02*
X3092Y275D01*
X3104Y275D02*
X3114Y275D01*
X3145Y275D02*
X3154Y275D01*
X3185Y275D02*
X3194Y275D01*
X3083Y274D02*
X3092Y274D01*
X3104Y274D02*
X3115Y274D01*
X3145Y274D02*
X3154Y274D01*
X3185Y274D02*
X3194Y274D01*
X3083Y273D02*
X3092Y273D01*
X3105Y273D02*
X3115Y273D01*
X3145Y273D02*
X3154Y273D01*
X3185Y273D02*
X3194Y273D01*
X3083Y272D02*
X3092Y272D01*
X3105Y272D02*
X3116Y272D01*
X3145Y272D02*
X3154Y272D01*
X3185Y272D02*
X3194Y272D01*
X3083Y271D02*
X3092Y271D01*
X3106Y271D02*
X3116Y271D01*
X3145Y271D02*
X3154Y271D01*
X3185Y271D02*
X3194Y271D01*
X3083Y270D02*
X3092Y270D01*
X3106Y270D02*
X3117Y270D01*
X3145Y270D02*
X3154Y270D01*
X3185Y270D02*
X3194Y270D01*
X3083Y269D02*
X3092Y269D01*
X3107Y269D02*
X3117Y269D01*
X3145Y269D02*
X3154Y269D01*
X3185Y269D02*
X3194Y269D01*
X3083Y268D02*
X3092Y268D01*
X3107Y268D02*
X3118Y268D01*
X3145Y268D02*
X3154Y268D01*
X3185Y268D02*
X3194Y268D01*
X3083Y267D02*
X3092Y267D01*
X3108Y267D02*
X3118Y267D01*
X3145Y267D02*
X3154Y267D01*
X3185Y267D02*
X3194Y267D01*
X3083Y266D02*
X3092Y266D01*
X3108Y266D02*
X3119Y266D01*
X3145Y266D02*
X3154Y266D01*
X3185Y266D02*
X3194Y266D01*
X3083Y265D02*
X3092Y265D01*
X3109Y265D02*
X3119Y265D01*
X3145Y265D02*
X3154Y265D01*
X3185Y265D02*
X3194Y265D01*
X3083Y264D02*
X3092Y264D01*
X3109Y264D02*
X3120Y264D01*
X3145Y264D02*
X3154Y264D01*
X3185Y264D02*
X3194Y264D01*
X3083Y263D02*
X3092Y263D01*
X3110Y263D02*
X3120Y263D01*
X3145Y263D02*
X3154Y263D01*
X3185Y263D02*
X3194Y263D01*
X3083Y262D02*
X3092Y262D01*
X3110Y262D02*
X3120Y262D01*
X3145Y262D02*
X3154Y262D01*
X3185Y262D02*
X3194Y262D01*
X3083Y261D02*
X3092Y261D01*
X3111Y261D02*
X3121Y261D01*
X3145Y261D02*
X3154Y261D01*
X3185Y261D02*
X3194Y261D01*
X3083Y260D02*
X3092Y260D01*
X3111Y260D02*
X3121Y260D01*
X3145Y260D02*
X3154Y260D01*
X3185Y260D02*
X3194Y260D01*
X3083Y259D02*
X3092Y259D01*
X3112Y259D02*
X3121Y259D01*
X3145Y259D02*
X3154Y259D01*
X3185Y259D02*
X3194Y259D01*
X3083Y258D02*
X3092Y258D01*
X3112Y258D02*
X3122Y258D01*
X3145Y258D02*
X3154Y258D01*
X3185Y258D02*
X3194Y258D01*
X3083Y257D02*
X3092Y257D01*
X3112Y257D02*
X3122Y257D01*
X3145Y257D02*
X3154Y257D01*
X3185Y257D02*
X3194Y257D01*
X3083Y256D02*
X3092Y256D01*
X3113Y256D02*
X3122Y256D01*
X3145Y256D02*
X3154Y256D01*
X3185Y256D02*
X3194Y256D01*
X3083Y255D02*
X3092Y255D01*
X3113Y255D02*
X3122Y255D01*
X3145Y255D02*
X3154Y255D01*
X3185Y255D02*
X3194Y255D01*
X3083Y254D02*
X3092Y254D01*
X3113Y254D02*
X3122Y254D01*
X3145Y254D02*
X3154Y254D01*
X3185Y254D02*
X3194Y254D01*
X3083Y253D02*
X3092Y253D01*
X3113Y253D02*
X3122Y253D01*
X3145Y253D02*
X3154Y253D01*
X3185Y253D02*
X3194Y253D01*
X3083Y252D02*
X3092Y252D01*
X3113Y252D02*
X3122Y252D01*
X3145Y252D02*
X3154Y252D01*
X3185Y252D02*
X3194Y252D01*
X3083Y251D02*
X3092Y251D01*
X3112Y251D02*
X3122Y251D01*
X3145Y251D02*
X3154Y251D01*
X3185Y251D02*
X3194Y251D01*
X3083Y250D02*
X3092Y250D01*
X3112Y250D02*
X3122Y250D01*
X3145Y250D02*
X3154Y250D01*
X3185Y250D02*
X3194Y250D01*
X3083Y249D02*
X3092Y249D01*
X3112Y249D02*
X3121Y249D01*
X3145Y249D02*
X3154Y249D01*
X3185Y249D02*
X3194Y249D01*
X3083Y248D02*
X3092Y248D01*
X3111Y248D02*
X3121Y248D01*
X3145Y248D02*
X3154Y248D01*
X3185Y248D02*
X3194Y248D01*
X3083Y247D02*
X3092Y247D01*
X3111Y247D02*
X3121Y247D01*
X3145Y247D02*
X3154Y247D01*
X3185Y247D02*
X3194Y247D01*
X3083Y246D02*
X3092Y246D01*
X3110Y246D02*
X3120Y246D01*
X3145Y246D02*
X3154Y246D01*
X3185Y246D02*
X3194Y246D01*
X3083Y245D02*
X3092Y245D01*
X3110Y245D02*
X3120Y245D01*
X3145Y245D02*
X3154Y245D01*
X3185Y245D02*
X3194Y245D01*
X3083Y244D02*
X3092Y244D01*
X3109Y244D02*
X3120Y244D01*
X3145Y244D02*
X3154Y244D01*
X3185Y244D02*
X3194Y244D01*
X3083Y243D02*
X3092Y243D01*
X3109Y243D02*
X3119Y243D01*
X3145Y243D02*
X3154Y243D01*
X3185Y243D02*
X3194Y243D01*
X3083Y242D02*
X3092Y242D01*
X3108Y242D02*
X3119Y242D01*
X3145Y242D02*
X3154Y242D01*
X3185Y242D02*
X3194Y242D01*
X3083Y241D02*
X3092Y241D01*
X3108Y241D02*
X3118Y241D01*
X3145Y241D02*
X3154Y241D01*
X3185Y241D02*
X3194Y241D01*
X3083Y240D02*
X3092Y240D01*
X3107Y240D02*
X3118Y240D01*
X3145Y240D02*
X3154Y240D01*
X3185Y240D02*
X3194Y240D01*
X3083Y239D02*
X3092Y239D01*
X3107Y239D02*
X3117Y239D01*
X3145Y239D02*
X3154Y239D01*
X3185Y239D02*
X3194Y239D01*
X3083Y238D02*
X3092Y238D01*
X3106Y238D02*
X3117Y238D01*
X3145Y238D02*
X3154Y238D01*
X3185Y238D02*
X3194Y238D01*
X3083Y237D02*
X3092Y237D01*
X3106Y237D02*
X3116Y237D01*
X3145Y237D02*
X3154Y237D01*
X3185Y237D02*
X3194Y237D01*
X3083Y236D02*
X3092Y236D01*
X3105Y236D02*
X3116Y236D01*
X3145Y236D02*
X3154Y236D01*
X3185Y236D02*
X3194Y236D01*
X3083Y235D02*
X3092Y235D01*
X3105Y235D02*
X3115Y235D01*
X3145Y235D02*
X3154Y235D01*
X3185Y235D02*
X3194Y235D01*
X3083Y234D02*
X3092Y234D01*
X3104Y234D02*
X3115Y234D01*
X3145Y234D02*
X3154Y234D01*
X3185Y234D02*
X3194Y234D01*
X3083Y233D02*
X3092Y233D01*
X3104Y233D02*
X3114Y233D01*
X3145Y233D02*
X3154Y233D01*
X3185Y233D02*
X3194Y233D01*
X3083Y232D02*
X3092Y232D01*
X3103Y232D02*
X3114Y232D01*
X3145Y232D02*
X3154Y232D01*
X3185Y232D02*
X3194Y232D01*
X3083Y231D02*
X3092Y231D01*
X3103Y231D02*
X3113Y231D01*
X3145Y231D02*
X3154Y231D01*
X3185Y231D02*
X3194Y231D01*
X3083Y230D02*
X3092Y230D01*
X3102Y230D02*
X3113Y230D01*
X3145Y230D02*
X3154Y230D01*
X3185Y230D02*
X3194Y230D01*
X3083Y229D02*
X3092Y229D01*
X3102Y229D02*
X3112Y229D01*
X3145Y229D02*
X3154Y229D01*
X3185Y229D02*
X3194Y229D01*
X3083Y228D02*
X3092Y228D01*
X3101Y228D02*
X3112Y228D01*
X3145Y228D02*
X3154Y228D01*
X3185Y228D02*
X3194Y228D01*
X3083Y227D02*
X3092Y227D01*
X3101Y227D02*
X3111Y227D01*
X3145Y227D02*
X3154Y227D01*
X3185Y227D02*
X3194Y227D01*
X3083Y226D02*
X3092Y226D01*
X3100Y226D02*
X3111Y226D01*
X3145Y226D02*
X3154Y226D01*
X3185Y226D02*
X3194Y226D01*
X3078Y225D02*
X3110Y225D01*
X3145Y225D02*
X3194Y225D01*
X3075Y224D02*
X3110Y224D01*
X3145Y224D02*
X3194Y224D01*
X3074Y223D02*
X3109Y223D01*
X3145Y223D02*
X3194Y223D01*
X3074Y222D02*
X3109Y222D01*
X3146Y222D02*
X3193Y222D01*
X3073Y221D02*
X3108Y221D01*
X3146Y221D02*
X3193Y221D01*
X3073Y220D02*
X3107Y220D01*
X3147Y220D02*
X3193Y220D01*
X3073Y219D02*
X3106Y219D01*
X3147Y219D02*
X3192Y219D01*
X3074Y218D02*
X3105Y218D01*
X3148Y218D02*
X3191Y218D01*
X3074Y217D02*
X3103Y217D01*
X3149Y217D02*
X3190Y217D01*
X3075Y216D02*
X3101Y216D01*
X3151Y216D02*
X3188Y216D01*
X3078Y215D02*
X3097Y215D01*
X3155Y215D02*
X3184Y215D01*
D02*
G04 End of Silk1*
M02*