G04 MADE WITH FRITZING*
G04 WWW.FRITZING.ORG*
G04 SINGLE SIDED*
G04 HOLES NOT PLATED*
G04 CONTOUR ON CENTER OF CONTOUR VECTOR*
%ASAXBY*%
%FSLAX23Y23*%
%MOIN*%
%OFA0B0*%
%SFA1.0B1.0*%
%ADD10C,0.085000*%
%ADD11C,0.135984*%
%ADD12C,0.072992*%
%ADD13C,0.088000*%
%ADD14R,0.072992X0.072992*%
%ADD15R,0.085000X0.085000*%
%LNMASK0*%
G90*
G70*
G54D10*
X1832Y1201D03*
X2382Y1201D03*
G54D11*
X4182Y151D03*
X4183Y2202D03*
X181Y151D03*
X182Y2201D03*
G54D10*
X3331Y1351D03*
X3331Y1751D03*
X3581Y1351D03*
X3581Y1751D03*
X2581Y1351D03*
X2581Y1751D03*
X2331Y1351D03*
X2331Y1751D03*
X2081Y1351D03*
X2081Y1751D03*
X1831Y1351D03*
X1831Y1751D03*
X2831Y1351D03*
X2831Y1751D03*
X3081Y1351D03*
X3081Y1751D03*
X732Y899D03*
X731Y1751D03*
X1532Y1051D03*
X1932Y1051D03*
X1481Y1851D03*
X1481Y2051D03*
X1381Y1001D03*
X1381Y1751D03*
X631Y351D03*
X631Y1201D03*
G54D12*
X2831Y1852D03*
X2831Y1951D03*
X2581Y1852D03*
X2581Y1951D03*
X2081Y1852D03*
X2081Y1951D03*
X2331Y1852D03*
X2331Y1951D03*
X1831Y1852D03*
X1831Y1951D03*
G54D13*
X2831Y251D03*
X2731Y251D03*
X2631Y251D03*
X2531Y251D03*
X2431Y251D03*
X2331Y251D03*
X2231Y251D03*
X2131Y251D03*
X182Y801D03*
X182Y901D03*
X182Y1001D03*
X182Y1101D03*
X182Y1201D03*
X182Y1301D03*
X182Y1401D03*
X182Y1501D03*
X3732Y801D03*
X3732Y901D03*
X3732Y1001D03*
X3732Y1101D03*
X3732Y1201D03*
X3732Y1301D03*
X3732Y1401D03*
X3732Y1501D03*
G54D12*
X3081Y1852D03*
X3081Y1951D03*
X3331Y1852D03*
X3331Y1951D03*
X3581Y1852D03*
X3581Y1951D03*
G54D10*
X1282Y1151D03*
X982Y1151D03*
X1282Y1251D03*
X982Y1251D03*
X1282Y1351D03*
X982Y1351D03*
X1282Y1451D03*
X982Y1451D03*
X1282Y1551D03*
X982Y1551D03*
X1282Y1651D03*
X982Y1651D03*
X1282Y1751D03*
X982Y1751D03*
X1282Y1851D03*
X982Y1851D03*
X1282Y251D03*
X982Y251D03*
X1282Y351D03*
X982Y351D03*
X1282Y451D03*
X982Y451D03*
X1282Y551D03*
X982Y551D03*
X1282Y651D03*
X982Y651D03*
X1282Y751D03*
X982Y751D03*
X1282Y851D03*
X982Y851D03*
X1282Y951D03*
X982Y951D03*
X2981Y1001D03*
X2981Y701D03*
X2881Y1001D03*
X2881Y701D03*
X2781Y1001D03*
X2781Y701D03*
X2681Y1001D03*
X2681Y701D03*
X2581Y1001D03*
X2581Y701D03*
X2481Y1001D03*
X2481Y701D03*
X2381Y1001D03*
X2381Y701D03*
X2281Y1001D03*
X2281Y701D03*
X2181Y1001D03*
X2181Y701D03*
X2081Y1001D03*
X2081Y701D03*
X1732Y451D03*
X1732Y951D03*
G54D14*
X2831Y1852D03*
X2581Y1852D03*
X2081Y1852D03*
X2331Y1852D03*
X1831Y1852D03*
X3081Y1852D03*
X3331Y1852D03*
X3581Y1852D03*
G54D15*
X1282Y1151D03*
X1282Y251D03*
X2981Y1001D03*
G04 End of Mask0*
M02*