G04 MADE WITH FRITZING*
G04 WWW.FRITZING.ORG*
G04 SINGLE SIDED*
G04 HOLES NOT PLATED*
G04 CONTOUR ON CENTER OF CONTOUR VECTOR*
%ASAXBY*%
%FSLAX23Y23*%
%MOIN*%
%OFA0B0*%
%SFA1.0B1.0*%
%ADD10C,0.075000*%
%ADD11C,0.078000*%
%ADD12C,0.062992*%
%ADD13R,0.075000X0.075000*%
%ADD14R,0.062992X0.062992*%
%ADD15R,0.074803X0.062992*%
%ADD16C,0.024000*%
%LNCOPPER0*%
G90*
G70*
G54D10*
X1666Y777D03*
X1666Y1077D03*
X1766Y777D03*
X1766Y1077D03*
X1866Y777D03*
X1866Y1077D03*
X1966Y777D03*
X1966Y1077D03*
X2066Y777D03*
X2066Y1077D03*
X2166Y777D03*
X2166Y1077D03*
X2266Y777D03*
X2266Y1077D03*
X2366Y777D03*
X2366Y1077D03*
X814Y776D03*
X814Y1076D03*
X914Y776D03*
X914Y1076D03*
X1014Y776D03*
X1014Y1076D03*
X1114Y776D03*
X1114Y1076D03*
X1214Y776D03*
X1214Y1076D03*
X1314Y776D03*
X1314Y1076D03*
X1414Y776D03*
X1414Y1076D03*
X1514Y776D03*
X1514Y1076D03*
X2764Y1676D03*
X3064Y1676D03*
X2764Y1576D03*
X3064Y1576D03*
X2764Y1476D03*
X3064Y1476D03*
X2764Y1376D03*
X3064Y1376D03*
X2764Y1276D03*
X3064Y1276D03*
X2764Y1176D03*
X3064Y1176D03*
X2764Y1076D03*
X3064Y1076D03*
X2764Y776D03*
X3064Y776D03*
X2764Y676D03*
X3064Y676D03*
X2764Y576D03*
X3064Y576D03*
X2764Y476D03*
X3064Y476D03*
X2764Y376D03*
X3064Y376D03*
X2764Y276D03*
X3064Y276D03*
X2764Y176D03*
X3064Y176D03*
X1114Y1276D03*
X1966Y1277D03*
X1014Y1226D03*
X1866Y1227D03*
X914Y1176D03*
X1766Y1177D03*
X1014Y676D03*
X1866Y677D03*
X814Y626D03*
X1666Y627D03*
G54D11*
X364Y1176D03*
X364Y1076D03*
X364Y976D03*
X364Y876D03*
X364Y776D03*
X364Y676D03*
X364Y576D03*
X364Y476D03*
X3464Y1276D03*
X2664Y1176D03*
X2664Y1376D03*
X2664Y1576D03*
X2664Y276D03*
X2664Y476D03*
X2664Y676D03*
X3464Y876D03*
X3464Y776D03*
X3464Y676D03*
X4164Y476D03*
X4164Y576D03*
X4164Y676D03*
X4164Y776D03*
X4164Y876D03*
X4164Y976D03*
X4164Y1076D03*
X4164Y1176D03*
X2166Y677D03*
X1966Y677D03*
X1314Y676D03*
X1114Y676D03*
X1964Y1776D03*
X2064Y1776D03*
X1564Y1776D03*
X1664Y1776D03*
X1564Y1876D03*
X1664Y1876D03*
X1764Y1876D03*
X1864Y1876D03*
X1964Y1876D03*
X2064Y1876D03*
X2164Y1876D03*
X2264Y1876D03*
G54D10*
X1414Y1276D03*
X1764Y1626D03*
X2964Y976D03*
X2364Y976D03*
X514Y626D03*
X714Y626D03*
X2964Y426D03*
X2364Y426D03*
X3164Y1176D03*
X2364Y1176D03*
X2164Y1276D03*
X2264Y1726D03*
X2264Y1176D03*
X2263Y1526D03*
X3564Y1376D03*
X3864Y1376D03*
X3564Y1276D03*
X3864Y1276D03*
X3564Y1176D03*
X3864Y1176D03*
X3564Y1076D03*
X3864Y1076D03*
X3564Y976D03*
X3864Y976D03*
X3564Y876D03*
X3864Y876D03*
X3564Y776D03*
X3864Y776D03*
X3564Y676D03*
X3864Y676D03*
X3564Y576D03*
X3864Y576D03*
X3564Y476D03*
X3864Y476D03*
G54D11*
X3464Y1076D03*
X3464Y976D03*
X464Y1176D03*
X3964Y1276D03*
G54D12*
X364Y2078D03*
X364Y2176D03*
X564Y2078D03*
X564Y2176D03*
X764Y2078D03*
X764Y2176D03*
X964Y2078D03*
X964Y2176D03*
X1214Y2078D03*
X1214Y2176D03*
X1414Y2078D03*
X1414Y2176D03*
X2014Y2078D03*
X2014Y2176D03*
X1814Y2078D03*
X1814Y2176D03*
X1614Y2078D03*
X1614Y2176D03*
X2214Y2078D03*
X2214Y2176D03*
X2414Y2078D03*
X2414Y2176D03*
X2614Y2078D03*
X2614Y2176D03*
G54D10*
X564Y776D03*
X564Y1276D03*
G54D13*
X1666Y777D03*
X814Y776D03*
X2764Y1676D03*
X2764Y776D03*
X3564Y1376D03*
G54D14*
X364Y2078D03*
X564Y2078D03*
X764Y2078D03*
X964Y2078D03*
X1214Y2078D03*
X1414Y2078D03*
X2014Y2078D03*
X1814Y2078D03*
X1614Y2078D03*
X2214Y2078D03*
X2414Y2078D03*
X2614Y2078D03*
G54D15*
X2614Y2426D03*
X2614Y2304D03*
X2414Y2426D03*
X2414Y2304D03*
X2214Y2426D03*
X2214Y2304D03*
X2014Y2426D03*
X2014Y2304D03*
X1814Y2426D03*
X1814Y2304D03*
X1614Y2426D03*
X1614Y2304D03*
X1414Y2426D03*
X1414Y2304D03*
X1214Y2426D03*
X1214Y2304D03*
X564Y2426D03*
X564Y2304D03*
X964Y2426D03*
X964Y2304D03*
X364Y2426D03*
X364Y2304D03*
X764Y2426D03*
X764Y2304D03*
G54D16*
X2646Y2426D02*
X2716Y2425D01*
D02*
X2716Y2425D02*
X2864Y2277D01*
D02*
X2864Y2277D02*
X2865Y1079D01*
D02*
X2865Y1079D02*
X2793Y1077D01*
D02*
X2865Y1079D02*
X2865Y177D01*
D02*
X2865Y177D02*
X2793Y177D01*
D02*
X2966Y75D02*
X2865Y177D01*
D02*
X3115Y77D02*
X2966Y75D01*
D02*
X3515Y475D02*
X3115Y77D01*
D02*
X3536Y476D02*
X3515Y475D01*
D02*
X1866Y1198D02*
X1866Y1105D01*
D02*
X2736Y676D02*
X2695Y676D01*
D02*
X1846Y2426D02*
X1983Y2426D01*
D02*
X3093Y1677D02*
X3264Y1677D01*
D02*
X3264Y1677D02*
X3544Y1397D01*
D02*
X914Y1105D02*
X914Y1148D01*
D02*
X2736Y276D02*
X2695Y276D01*
D02*
X2736Y476D02*
X2695Y476D01*
D02*
X1014Y1198D02*
X1014Y1105D01*
D02*
X4134Y1076D02*
X3893Y1076D01*
D02*
X1641Y2077D02*
X1664Y2077D01*
D02*
X1664Y2077D02*
X1764Y1977D01*
D02*
X1764Y1977D02*
X1764Y1907D01*
D02*
X3536Y1176D02*
X3313Y1175D01*
D02*
X3313Y1175D02*
X3215Y1076D01*
D02*
X3215Y1076D02*
X3093Y1076D01*
D02*
X2295Y1876D02*
X2415Y1876D01*
D02*
X2415Y1876D02*
X2596Y2059D01*
D02*
X1864Y1846D02*
X1865Y1577D01*
D02*
X1764Y1476D02*
X1364Y1477D01*
D02*
X1865Y1577D02*
X1764Y1476D01*
D02*
X1364Y1477D02*
X1216Y1326D01*
D02*
X1216Y1326D02*
X1215Y1105D01*
D02*
X1114Y748D02*
X1114Y707D01*
D02*
X3536Y976D02*
X3495Y976D01*
D02*
X3536Y776D02*
X3495Y776D01*
D02*
X1664Y1807D02*
X1664Y1846D01*
D02*
X2446Y2426D02*
X2583Y2426D01*
D02*
X395Y977D02*
X465Y977D01*
D02*
X465Y977D02*
X765Y1327D01*
D02*
X765Y1327D02*
X964Y1327D01*
D02*
X964Y1327D02*
X1065Y1326D01*
D02*
X1065Y1326D02*
X1094Y1297D01*
D02*
X4134Y1176D02*
X3893Y1176D01*
D02*
X4134Y876D02*
X3893Y876D01*
D02*
X1446Y2426D02*
X1583Y2426D01*
D02*
X3093Y1176D02*
X3136Y1176D01*
D02*
X395Y776D02*
X465Y775D01*
D02*
X465Y775D02*
X815Y1177D01*
D02*
X815Y1177D02*
X886Y1177D01*
D02*
X4134Y476D02*
X3893Y476D01*
D02*
X1114Y1105D02*
X1114Y1248D01*
D02*
X1233Y2059D02*
X1414Y1876D01*
D02*
X1414Y1876D02*
X1534Y1876D01*
D02*
X395Y877D02*
X465Y878D01*
D02*
X465Y878D02*
X815Y1277D01*
D02*
X815Y1277D02*
X965Y1276D01*
D02*
X965Y1276D02*
X994Y1247D01*
D02*
X786Y626D02*
X743Y626D01*
D02*
X1433Y2059D02*
X1514Y1977D01*
D02*
X1514Y1977D02*
X1615Y1977D01*
D02*
X1615Y1977D02*
X1664Y1928D01*
D02*
X1664Y1928D02*
X1664Y1907D01*
D02*
X2985Y446D02*
X3015Y476D01*
D02*
X3015Y476D02*
X3036Y476D01*
D02*
X3536Y1276D02*
X3495Y1276D01*
D02*
X2065Y1105D02*
X2063Y1177D01*
D02*
X2063Y1177D02*
X2144Y1256D01*
D02*
X2064Y1807D02*
X2064Y1846D01*
D02*
X3093Y377D02*
X3166Y377D01*
D02*
X3166Y377D02*
X3366Y578D01*
D02*
X3366Y578D02*
X3536Y577D01*
D02*
X1646Y2426D02*
X1783Y2426D01*
D02*
X1766Y1148D02*
X1766Y1105D01*
D02*
X2263Y725D02*
X2264Y748D01*
D02*
X2316Y676D02*
X2263Y725D01*
D02*
X2466Y674D02*
X2316Y676D01*
D02*
X2565Y778D02*
X2466Y674D01*
D02*
X2736Y777D02*
X2565Y778D01*
D02*
X1614Y2203D02*
X1614Y2278D01*
D02*
X2736Y1576D02*
X2695Y1576D01*
D02*
X1814Y2203D02*
X1814Y2278D01*
D02*
X1666Y655D02*
X1666Y748D01*
D02*
X3044Y797D02*
X2965Y876D01*
D02*
X2965Y876D02*
X2965Y948D01*
D02*
X415Y1277D02*
X536Y1277D01*
D02*
X365Y1207D02*
X366Y1227D01*
D02*
X366Y1227D02*
X415Y1277D01*
D02*
X1383Y2426D02*
X1246Y2426D01*
D02*
X2264Y1846D02*
X2264Y1755D01*
D02*
X1964Y1907D02*
X1965Y2026D01*
D02*
X1965Y2026D02*
X1996Y2059D01*
D02*
X1964Y1807D02*
X1964Y1846D01*
D02*
X1413Y1428D02*
X1314Y1326D01*
D02*
X1314Y1326D02*
X1314Y1105D01*
D02*
X2365Y1428D02*
X1413Y1428D01*
D02*
X2565Y1677D02*
X2365Y1428D01*
D02*
X2736Y1677D02*
X2565Y1677D01*
D02*
X2115Y577D02*
X2065Y627D01*
D02*
X2065Y627D02*
X2066Y748D01*
D02*
X2736Y577D02*
X2115Y577D01*
D02*
X2736Y1176D02*
X2695Y1176D01*
D02*
X3536Y676D02*
X3495Y676D01*
D02*
X2166Y1576D02*
X2215Y1528D01*
D02*
X2165Y1846D02*
X2166Y1576D01*
D02*
X2215Y1528D02*
X2235Y1527D01*
D02*
X2265Y1105D02*
X2265Y1148D01*
D02*
X2365Y1148D02*
X2365Y1105D01*
D02*
X1414Y2203D02*
X1414Y2278D01*
D02*
X395Y677D02*
X464Y677D01*
D02*
X464Y677D02*
X494Y647D01*
D02*
X2046Y2426D02*
X2183Y2426D01*
D02*
X2614Y2203D02*
X2614Y2278D01*
D02*
X4134Y676D02*
X3893Y676D01*
D02*
X4134Y976D02*
X3893Y976D01*
D02*
X1764Y1655D02*
X1764Y1846D01*
D02*
X1966Y1248D02*
X1966Y1105D01*
D02*
X1564Y1807D02*
X1564Y1846D01*
D02*
X2165Y1176D02*
X2165Y1105D01*
D02*
X2264Y1277D02*
X2165Y1176D01*
D02*
X2736Y1277D02*
X2264Y1277D01*
D02*
X1564Y525D02*
X1413Y676D01*
D02*
X1413Y676D02*
X1414Y748D01*
D02*
X2414Y525D02*
X1564Y525D01*
D02*
X2565Y377D02*
X2414Y525D01*
D02*
X2736Y377D02*
X2565Y377D01*
D02*
X1214Y2203D02*
X1214Y2279D01*
D02*
X2214Y2203D02*
X2214Y2278D01*
D02*
X1014Y705D02*
X1014Y748D01*
D02*
X914Y875D02*
X765Y877D01*
D02*
X765Y877D02*
X614Y727D01*
D02*
X914Y875D02*
X914Y805D01*
D02*
X614Y727D02*
X615Y578D01*
D02*
X1513Y876D02*
X914Y875D01*
D02*
X615Y578D02*
X513Y476D01*
D02*
X1514Y805D02*
X1513Y876D01*
D02*
X1513Y876D02*
X1766Y875D01*
D02*
X513Y476D02*
X395Y476D01*
D02*
X1766Y875D02*
X2364Y875D01*
D02*
X2364Y875D02*
X2365Y805D01*
D02*
X1766Y805D02*
X1766Y875D01*
D02*
X2364Y875D02*
X2466Y878D01*
D02*
X2466Y878D02*
X2663Y1076D01*
D02*
X2663Y1076D02*
X2736Y1076D01*
D02*
X1666Y1375D02*
X1515Y1227D01*
D02*
X1515Y1227D02*
X1514Y1105D01*
D02*
X2414Y1375D02*
X1666Y1375D01*
D02*
X2516Y1477D02*
X2414Y1375D01*
D02*
X2736Y1477D02*
X2516Y1477D01*
D02*
X2014Y2203D02*
X2014Y2278D01*
D02*
X1966Y748D02*
X1966Y707D01*
D02*
X314Y377D02*
X763Y378D01*
D02*
X763Y378D02*
X996Y655D01*
D02*
X264Y426D02*
X314Y377D01*
D02*
X264Y527D02*
X264Y426D01*
D02*
X314Y576D02*
X264Y527D01*
D02*
X334Y576D02*
X314Y576D01*
D02*
X2414Y2203D02*
X2414Y2278D01*
D02*
X2166Y748D02*
X2166Y707D01*
D02*
X2065Y1907D02*
X2065Y1977D01*
D02*
X2065Y1977D02*
X2166Y2077D01*
D02*
X2166Y2077D02*
X2188Y2077D01*
D02*
X816Y979D02*
X765Y977D01*
D02*
X765Y977D02*
X585Y797D01*
D02*
X816Y979D02*
X1665Y977D01*
D02*
X1665Y977D02*
X1665Y1048D01*
D02*
X815Y1048D02*
X816Y979D01*
D02*
X1665Y977D02*
X2336Y976D01*
D02*
X4134Y776D02*
X3893Y776D01*
D02*
X3934Y1276D02*
X3893Y1276D01*
D02*
X2165Y1907D02*
X2166Y1928D01*
D02*
X2166Y1928D02*
X2215Y1977D01*
D02*
X2215Y1977D02*
X2315Y1977D01*
D02*
X2315Y1977D02*
X2396Y2059D01*
D02*
X3536Y876D02*
X3495Y876D01*
D02*
X415Y1077D02*
X465Y1127D01*
D02*
X465Y1127D02*
X465Y1146D01*
D02*
X395Y1077D02*
X415Y1077D01*
D02*
X1364Y426D02*
X1216Y578D01*
D02*
X1216Y578D02*
X1215Y748D01*
D02*
X2336Y426D02*
X1364Y426D01*
D02*
X3836Y1376D02*
X3593Y1376D01*
D02*
X2246Y2426D02*
X2383Y2426D01*
D02*
X1866Y705D02*
X1866Y748D01*
D02*
X1314Y748D02*
X1314Y707D01*
D02*
X1864Y1907D02*
X1864Y2026D01*
D02*
X1864Y2026D02*
X1833Y2059D01*
D02*
X2736Y1376D02*
X2695Y1376D01*
D02*
X1414Y1105D02*
X1414Y1248D01*
D02*
X3536Y1076D02*
X3495Y1076D01*
D02*
X3015Y1676D02*
X3036Y1676D01*
D02*
X2964Y1627D02*
X3015Y1676D01*
D02*
X2964Y1005D02*
X2964Y1627D01*
D02*
X814Y655D02*
X814Y748D01*
D02*
X4134Y576D02*
X3893Y576D01*
D02*
X164Y825D02*
X314Y676D01*
D02*
X163Y1875D02*
X164Y825D01*
D02*
X314Y676D02*
X334Y676D01*
D02*
X346Y2059D02*
X163Y1875D01*
D02*
X215Y876D02*
X314Y777D01*
D02*
X213Y1726D02*
X215Y876D01*
D02*
X545Y2059D02*
X213Y1726D01*
D02*
X314Y777D02*
X334Y777D01*
D02*
X266Y927D02*
X314Y876D01*
D02*
X263Y1576D02*
X266Y927D01*
D02*
X314Y876D02*
X334Y876D01*
D02*
X745Y2059D02*
X263Y1576D01*
D02*
X964Y1327D02*
X964Y2051D01*
D02*
X364Y2203D02*
X364Y2278D01*
D02*
X564Y2203D02*
X564Y2278D01*
D02*
X764Y2203D02*
X764Y2278D01*
D02*
X964Y2203D02*
X964Y2278D01*
D02*
X1183Y2426D02*
X996Y2426D01*
D02*
X933Y2426D02*
X796Y2426D01*
D02*
X733Y2426D02*
X596Y2426D01*
D02*
X533Y2426D02*
X396Y2426D01*
G04 End of Copper0*
M02*