; NON-PLATED HOLES START AT T1
; THROUGH (PLATED) HOLES START AT T100
M48
INCH,LZ
T100C0.035000
T101C0.031497
T102C0.038000
%
T100
X021644Y012764
X027644Y010764
X022655Y010765
X030644Y006764
X038644Y012764
X038644Y013764
X038644Y011764
X030644Y011764
X016655Y006265
X020655Y007765
X029644Y004264
X005144Y006264
X014144Y012764
X030644Y001764
X019655Y010765
X018655Y012265
X027644Y016764
X038644Y004764
X038644Y010764
X027644Y004764
X030644Y014764
X009144Y010764
X020655Y010765
X023644Y004264
X030644Y007764
X035644Y008764
X027644Y007764
X035644Y010764
X011144Y007764
X008144Y010764
X030644Y013764
X022644Y017264
X023644Y009764
X022632Y015263
X035644Y006764
X017644Y016264
X010144Y006764
X015144Y010764
X038644Y009764
X018655Y006765
X038644Y006764
X022655Y007765
X016655Y010765
X019655Y012765
X038644Y005764
X011144Y012764
X016655Y007765
X027644Y014764
X038644Y008764
X030644Y002764
X015144Y007764
X018655Y007765
X030644Y012764
X027644Y013764
X035644Y012764
X009144Y011764
X031644Y011764
X030644Y005764
X027644Y006764
X021655Y010765
X029644Y009764
X038644Y007764
X030644Y003764
X017655Y007765
X013144Y007764
X011144Y010764
X005644Y007764
X013144Y010764
X008144Y006264
X027644Y003764
X030644Y010764
X014144Y010764
X014144Y007764
X010144Y012264
X009144Y007764
X030644Y004764
X019655Y007765
X017655Y011765
X017655Y010765
X023644Y011764
X035644Y005764
X021655Y007765
X035644Y011764
X007144Y006264
X023655Y007765
X035644Y007764
X012144Y007764
X018655Y010765
X027644Y002764
X010144Y010764
X005644Y012764
X022644Y011764
X027644Y001764
X008144Y007764
X027644Y005764
X035644Y004764
X023655Y010765
X010144Y007764
X030644Y016764
X030644Y015764
X035644Y009764
X027644Y011764
X027644Y012764
X027644Y015764
X035644Y013764
X012144Y010764
T101
X018144Y021764
X014144Y020780
X003644Y021764
X026144Y021764
X009644Y020780
X007644Y020780
X016144Y020780
X022144Y021764
X009644Y021764
X007644Y021764
X016144Y021764
X022144Y020780
X005644Y021764
X014144Y021764
X024144Y020780
X026144Y020780
X012144Y021764
X005644Y020780
X012144Y020780
X020144Y021764
X003644Y020780
X024144Y021764
X020144Y020780
X018144Y020780
T102
X039644Y012764
X022644Y018764
X021655Y006765
X041644Y010764
X034644Y007764
X026644Y006764
X034644Y006764
X026644Y015764
X003644Y007764
X016644Y017764
X003644Y005764
X004644Y011764
X041644Y008764
X003644Y004764
X034644Y009764
X041644Y005764
X019655Y006765
X020644Y018764
X003644Y009764
X026644Y004764
X003644Y010764
X013144Y006764
X026644Y013764
X021644Y018764
X003644Y008764
X041644Y009764
X034644Y010764
X015644Y018764
X015644Y017764
X041644Y006764
X003644Y006764
X034644Y012764
X026644Y011764
X041644Y011764
X018644Y018764
X016644Y018764
X019644Y018764
X034644Y008764
X020644Y017764
X011144Y006764
X026644Y002764
X017644Y018764
X019644Y017764
X041644Y007764
X003644Y011764
X041644Y004764
T00
M30
