G04 MADE WITH FRITZING*
G04 WWW.FRITZING.ORG*
G04 SINGLE SIDED*
G04 HOLES NOT PLATED*
G04 CONTOUR ON CENTER OF CONTOUR VECTOR*
%ASAXBY*%
%FSLAX23Y23*%
%MOIN*%
%OFA0B0*%
%SFA1.0B1.0*%
%ADD10R,4.330720X2.559060X4.314720X2.543060*%
%ADD11C,0.008000*%
%ADD12C,0.010000*%
%ADD13C,0.021000*%
%ADD14C,0.005000*%
%ADD15C,0.005120*%
%ADD16R,0.001000X0.001000*%
%LNSILK1*%
G90*
G70*
G54D11*
X4Y2555D02*
X4327Y2555D01*
X4327Y4D01*
X4Y4D01*
X4Y2555D01*
D02*
G54D12*
X1616Y727D02*
X2416Y727D01*
D02*
X2416Y727D02*
X2416Y1127D01*
D02*
X2416Y1127D02*
X1616Y1127D01*
D02*
X1616Y727D02*
X1616Y877D01*
D02*
X1616Y977D02*
X1616Y1127D01*
D02*
X764Y726D02*
X1564Y726D01*
D02*
X1564Y726D02*
X1564Y1126D01*
D02*
X1564Y1126D02*
X764Y1126D01*
D02*
X764Y726D02*
X764Y876D01*
D02*
X764Y976D02*
X764Y1126D01*
D02*
X2714Y1726D02*
X2714Y1026D01*
D02*
X2714Y1026D02*
X3114Y1026D01*
D02*
X3114Y1026D02*
X3114Y1726D01*
D02*
X2714Y1726D02*
X2864Y1726D01*
D02*
X2964Y1726D02*
X3114Y1726D01*
D02*
X2714Y826D02*
X2714Y126D01*
D02*
X2714Y126D02*
X3114Y126D01*
D02*
X3114Y126D02*
X3114Y826D01*
D02*
X2714Y826D02*
X2864Y826D01*
D02*
X2964Y826D02*
X3114Y826D01*
G54D13*
D02*
X1152Y1276D02*
X1928Y1277D01*
D02*
X1052Y1226D02*
X1828Y1227D01*
D02*
X952Y1176D02*
X1728Y1177D01*
D02*
X1052Y676D02*
X1828Y677D01*
D02*
X852Y626D02*
X1628Y627D01*
G54D12*
D02*
X314Y1226D02*
X314Y426D01*
D02*
X314Y426D02*
X414Y426D01*
D02*
X414Y426D02*
X414Y1226D01*
D02*
X414Y1226D02*
X314Y1226D01*
G54D14*
D02*
X314Y1191D02*
X349Y1226D01*
G54D12*
D02*
X3414Y1226D02*
X3514Y1226D01*
D02*
X3514Y1226D02*
X3514Y1326D01*
D02*
X3514Y1326D02*
X3414Y1326D01*
D02*
X3414Y1326D02*
X3414Y1226D01*
G54D14*
D02*
X3449Y1226D02*
X3414Y1261D01*
G54D12*
D02*
X2614Y1126D02*
X2714Y1126D01*
D02*
X2714Y1126D02*
X2714Y1226D01*
D02*
X2714Y1226D02*
X2614Y1226D01*
D02*
X2614Y1226D02*
X2614Y1126D01*
G54D14*
D02*
X2649Y1126D02*
X2614Y1161D01*
G54D12*
D02*
X2614Y1326D02*
X2714Y1326D01*
D02*
X2714Y1326D02*
X2714Y1426D01*
D02*
X2714Y1426D02*
X2614Y1426D01*
D02*
X2614Y1426D02*
X2614Y1326D01*
G54D14*
D02*
X2649Y1326D02*
X2614Y1361D01*
G54D12*
D02*
X2614Y1526D02*
X2714Y1526D01*
D02*
X2714Y1526D02*
X2714Y1626D01*
D02*
X2714Y1626D02*
X2614Y1626D01*
D02*
X2614Y1626D02*
X2614Y1526D01*
G54D14*
D02*
X2649Y1526D02*
X2614Y1561D01*
G54D12*
D02*
X2614Y226D02*
X2714Y226D01*
D02*
X2714Y226D02*
X2714Y326D01*
D02*
X2714Y326D02*
X2614Y326D01*
D02*
X2614Y326D02*
X2614Y226D01*
G54D14*
D02*
X2649Y226D02*
X2614Y261D01*
G54D12*
D02*
X2614Y426D02*
X2714Y426D01*
D02*
X2714Y426D02*
X2714Y526D01*
D02*
X2714Y526D02*
X2614Y526D01*
D02*
X2614Y526D02*
X2614Y426D01*
G54D14*
D02*
X2649Y426D02*
X2614Y461D01*
G54D12*
D02*
X2614Y626D02*
X2714Y626D01*
D02*
X2714Y626D02*
X2714Y726D01*
D02*
X2714Y726D02*
X2614Y726D01*
D02*
X2614Y726D02*
X2614Y626D01*
G54D14*
D02*
X2649Y626D02*
X2614Y661D01*
G54D12*
D02*
X3414Y926D02*
X3414Y626D01*
D02*
X3414Y626D02*
X3514Y626D01*
D02*
X3514Y626D02*
X3514Y926D01*
D02*
X3514Y926D02*
X3414Y926D01*
G54D14*
D02*
X3414Y891D02*
X3449Y926D01*
G54D12*
D02*
X4214Y426D02*
X4214Y1226D01*
D02*
X4214Y1226D02*
X4114Y1226D01*
D02*
X4114Y1226D02*
X4114Y426D01*
D02*
X4114Y426D02*
X4214Y426D01*
G54D14*
D02*
X4214Y461D02*
X4179Y426D01*
G54D12*
D02*
X2116Y627D02*
X2216Y627D01*
D02*
X2216Y627D02*
X2216Y727D01*
D02*
X2216Y727D02*
X2116Y727D01*
D02*
X2116Y727D02*
X2116Y627D01*
G54D14*
D02*
X2151Y627D02*
X2116Y662D01*
G54D12*
D02*
X1916Y627D02*
X2016Y627D01*
D02*
X2016Y627D02*
X2016Y727D01*
D02*
X2016Y727D02*
X1916Y727D01*
D02*
X1916Y727D02*
X1916Y627D01*
G54D14*
D02*
X1951Y627D02*
X1916Y662D01*
G54D12*
D02*
X1264Y626D02*
X1364Y626D01*
D02*
X1364Y626D02*
X1364Y726D01*
D02*
X1364Y726D02*
X1264Y726D01*
D02*
X1264Y726D02*
X1264Y626D01*
G54D14*
D02*
X1299Y626D02*
X1264Y661D01*
G54D12*
D02*
X1064Y626D02*
X1164Y626D01*
D02*
X1164Y626D02*
X1164Y726D01*
D02*
X1164Y726D02*
X1064Y726D01*
D02*
X1064Y726D02*
X1064Y626D01*
G54D14*
D02*
X1099Y626D02*
X1064Y661D01*
G54D12*
D02*
X1914Y1726D02*
X2114Y1726D01*
D02*
X2114Y1726D02*
X2114Y1826D01*
D02*
X2114Y1826D02*
X1914Y1826D01*
D02*
X1914Y1826D02*
X1914Y1726D01*
G54D14*
D02*
X1949Y1726D02*
X1914Y1761D01*
G54D12*
D02*
X1514Y1726D02*
X1714Y1726D01*
D02*
X1714Y1726D02*
X1714Y1826D01*
D02*
X1714Y1826D02*
X1514Y1826D01*
D02*
X1514Y1826D02*
X1514Y1726D01*
G54D14*
D02*
X1549Y1726D02*
X1514Y1761D01*
G54D12*
D02*
X1514Y1826D02*
X2314Y1826D01*
D02*
X2314Y1826D02*
X2314Y1926D01*
D02*
X2314Y1926D02*
X1514Y1926D01*
D02*
X1514Y1926D02*
X1514Y1826D01*
G54D14*
D02*
X1549Y1826D02*
X1514Y1861D01*
G54D13*
D02*
X1441Y1303D02*
X1738Y1600D01*
D02*
X2927Y976D02*
X2402Y976D01*
D02*
X552Y626D02*
X677Y626D01*
D02*
X2927Y426D02*
X2402Y426D01*
D02*
X3127Y1176D02*
X2402Y1176D01*
D02*
X2173Y1313D02*
X2256Y1690D01*
D02*
X2264Y1214D02*
X2263Y1489D01*
G54D12*
D02*
X3514Y1426D02*
X3514Y426D01*
D02*
X3514Y426D02*
X3914Y426D01*
D02*
X3914Y426D02*
X3914Y1426D01*
D02*
X3514Y1426D02*
X3664Y1426D01*
D02*
X3764Y1426D02*
X3914Y1426D01*
D02*
X3414Y1126D02*
X3414Y926D01*
D02*
X3414Y926D02*
X3514Y926D01*
D02*
X3514Y926D02*
X3514Y1126D01*
D02*
X3514Y1126D02*
X3414Y1126D01*
G54D14*
D02*
X3414Y1091D02*
X3449Y1126D01*
G54D12*
D02*
X414Y1226D02*
X414Y1126D01*
D02*
X414Y1126D02*
X514Y1126D01*
D02*
X514Y1126D02*
X514Y1226D01*
D02*
X514Y1226D02*
X414Y1226D01*
G54D14*
D02*
X414Y1191D02*
X449Y1226D01*
G54D12*
D02*
X3914Y1326D02*
X3914Y1226D01*
D02*
X3914Y1226D02*
X4014Y1226D01*
D02*
X4014Y1226D02*
X4014Y1326D01*
D02*
X4014Y1326D02*
X3914Y1326D01*
G54D14*
D02*
X3914Y1291D02*
X3949Y1326D01*
G54D13*
D02*
X564Y814D02*
X564Y1239D01*
G54D15*
X331Y2193D02*
X318Y2193D01*
D02*
X410Y2193D02*
X398Y2193D01*
D02*
X531Y2193D02*
X518Y2193D01*
D02*
X610Y2193D02*
X598Y2193D01*
D02*
X731Y2193D02*
X718Y2193D01*
D02*
X810Y2193D02*
X798Y2193D01*
D02*
X931Y2193D02*
X918Y2193D01*
D02*
X1010Y2193D02*
X998Y2193D01*
D02*
X1181Y2193D02*
X1168Y2193D01*
D02*
X1260Y2193D02*
X1248Y2193D01*
D02*
X1381Y2193D02*
X1368Y2193D01*
D02*
X1460Y2193D02*
X1448Y2193D01*
D02*
X1981Y2193D02*
X1968Y2193D01*
D02*
X2060Y2193D02*
X2048Y2193D01*
D02*
X1781Y2193D02*
X1768Y2193D01*
D02*
X1860Y2193D02*
X1848Y2193D01*
D02*
X1581Y2193D02*
X1568Y2193D01*
D02*
X1660Y2193D02*
X1648Y2193D01*
D02*
X2181Y2193D02*
X2168Y2193D01*
D02*
X2260Y2193D02*
X2248Y2193D01*
D02*
X2381Y2193D02*
X2368Y2193D01*
D02*
X2460Y2193D02*
X2448Y2193D01*
D02*
X2581Y2193D02*
X2568Y2193D01*
D02*
X2660Y2193D02*
X2648Y2193D01*
D02*
G54D16*
X317Y2195D02*
X319Y2195D01*
X409Y2195D02*
X411Y2195D01*
X517Y2195D02*
X519Y2195D01*
X609Y2195D02*
X611Y2195D01*
X717Y2195D02*
X719Y2195D01*
X809Y2195D02*
X811Y2195D01*
X917Y2195D02*
X919Y2195D01*
X1009Y2195D02*
X1011Y2195D01*
X1167Y2195D02*
X1169Y2195D01*
X1259Y2195D02*
X1261Y2195D01*
X1366Y2195D02*
X1369Y2195D01*
X1459Y2195D02*
X1461Y2195D01*
X1566Y2195D02*
X1569Y2195D01*
X1659Y2195D02*
X1661Y2195D01*
X1766Y2195D02*
X1769Y2195D01*
X1859Y2195D02*
X1861Y2195D01*
X1966Y2195D02*
X1969Y2195D01*
X2059Y2195D02*
X2061Y2195D01*
X2166Y2195D02*
X2169Y2195D01*
X2259Y2195D02*
X2261Y2195D01*
X2366Y2195D02*
X2369Y2195D01*
X2459Y2195D02*
X2461Y2195D01*
X2566Y2195D02*
X2569Y2195D01*
X2659Y2195D02*
X2661Y2195D01*
X315Y2194D02*
X320Y2194D01*
X408Y2194D02*
X412Y2194D01*
X515Y2194D02*
X520Y2194D01*
X608Y2194D02*
X612Y2194D01*
X715Y2194D02*
X720Y2194D01*
X808Y2194D02*
X812Y2194D01*
X915Y2194D02*
X920Y2194D01*
X1008Y2194D02*
X1012Y2194D01*
X1165Y2194D02*
X1170Y2194D01*
X1258Y2194D02*
X1262Y2194D01*
X1365Y2194D02*
X1370Y2194D01*
X1458Y2194D02*
X1462Y2194D01*
X1565Y2194D02*
X1569Y2194D01*
X1658Y2194D02*
X1662Y2194D01*
X1765Y2194D02*
X1769Y2194D01*
X1858Y2194D02*
X1862Y2194D01*
X1965Y2194D02*
X1969Y2194D01*
X2058Y2194D02*
X2062Y2194D01*
X2165Y2194D02*
X2169Y2194D01*
X2258Y2194D02*
X2262Y2194D01*
X2365Y2194D02*
X2369Y2194D01*
X2458Y2194D02*
X2462Y2194D01*
X2565Y2194D02*
X2569Y2194D01*
X2658Y2194D02*
X2662Y2194D01*
X314Y2193D02*
X320Y2193D01*
X408Y2193D02*
X413Y2193D01*
X514Y2193D02*
X520Y2193D01*
X608Y2193D02*
X613Y2193D01*
X714Y2193D02*
X720Y2193D01*
X808Y2193D02*
X813Y2193D01*
X914Y2193D02*
X920Y2193D01*
X1008Y2193D02*
X1013Y2193D01*
X1164Y2193D02*
X1170Y2193D01*
X1258Y2193D02*
X1263Y2193D01*
X1364Y2193D02*
X1370Y2193D01*
X1458Y2193D02*
X1463Y2193D01*
X1564Y2193D02*
X1570Y2193D01*
X1658Y2193D02*
X1663Y2193D01*
X1764Y2193D02*
X1770Y2193D01*
X1858Y2193D02*
X1863Y2193D01*
X1964Y2193D02*
X1970Y2193D01*
X2058Y2193D02*
X2063Y2193D01*
X2164Y2193D02*
X2170Y2193D01*
X2258Y2193D02*
X2263Y2193D01*
X2364Y2193D02*
X2370Y2193D01*
X2458Y2193D02*
X2463Y2193D01*
X2564Y2193D02*
X2569Y2193D01*
X2658Y2193D02*
X2663Y2193D01*
X313Y2192D02*
X320Y2192D01*
X408Y2192D02*
X415Y2192D01*
X513Y2192D02*
X520Y2192D01*
X608Y2192D02*
X615Y2192D01*
X713Y2192D02*
X720Y2192D01*
X808Y2192D02*
X815Y2192D01*
X913Y2192D02*
X920Y2192D01*
X1008Y2192D02*
X1015Y2192D01*
X1163Y2192D02*
X1169Y2192D01*
X1258Y2192D02*
X1265Y2192D01*
X1363Y2192D02*
X1369Y2192D01*
X1458Y2192D02*
X1464Y2192D01*
X1563Y2192D02*
X1569Y2192D01*
X1658Y2192D02*
X1664Y2192D01*
X1763Y2192D02*
X1769Y2192D01*
X1858Y2192D02*
X1864Y2192D01*
X1963Y2192D02*
X1969Y2192D01*
X2058Y2192D02*
X2064Y2192D01*
X2163Y2192D02*
X2169Y2192D01*
X2258Y2192D02*
X2264Y2192D01*
X2363Y2192D02*
X2369Y2192D01*
X2458Y2192D02*
X2464Y2192D01*
X2563Y2192D02*
X2569Y2192D01*
X2658Y2192D02*
X2664Y2192D01*
X312Y2191D02*
X319Y2191D01*
X409Y2191D02*
X416Y2191D01*
X512Y2191D02*
X519Y2191D01*
X609Y2191D02*
X616Y2191D01*
X712Y2191D02*
X719Y2191D01*
X809Y2191D02*
X816Y2191D01*
X912Y2191D02*
X919Y2191D01*
X1009Y2191D02*
X1016Y2191D01*
X1162Y2191D02*
X1169Y2191D01*
X1259Y2191D02*
X1266Y2191D01*
X1362Y2191D02*
X1369Y2191D01*
X1459Y2191D02*
X1466Y2191D01*
X1562Y2191D02*
X1569Y2191D01*
X1659Y2191D02*
X1666Y2191D01*
X1762Y2191D02*
X1769Y2191D01*
X1859Y2191D02*
X1866Y2191D01*
X1962Y2191D02*
X1969Y2191D01*
X2059Y2191D02*
X2066Y2191D01*
X2161Y2191D02*
X2169Y2191D01*
X2259Y2191D02*
X2266Y2191D01*
X2361Y2191D02*
X2368Y2191D01*
X2459Y2191D02*
X2466Y2191D01*
X2561Y2191D02*
X2568Y2191D01*
X2659Y2191D02*
X2665Y2191D01*
X311Y2190D02*
X318Y2190D01*
X410Y2190D02*
X417Y2190D01*
X511Y2190D02*
X518Y2190D01*
X610Y2190D02*
X617Y2190D01*
X711Y2190D02*
X718Y2190D01*
X810Y2190D02*
X817Y2190D01*
X911Y2190D02*
X917Y2190D01*
X1010Y2190D02*
X1017Y2190D01*
X1161Y2190D02*
X1167Y2190D01*
X1260Y2190D02*
X1267Y2190D01*
X1361Y2190D02*
X1367Y2190D01*
X1460Y2190D02*
X1467Y2190D01*
X1561Y2190D02*
X1567Y2190D01*
X1660Y2190D02*
X1667Y2190D01*
X1760Y2190D02*
X1767Y2190D01*
X1860Y2190D02*
X1867Y2190D01*
X1960Y2190D02*
X1967Y2190D01*
X2060Y2190D02*
X2067Y2190D01*
X2160Y2190D02*
X2167Y2190D01*
X2260Y2190D02*
X2267Y2190D01*
X2360Y2190D02*
X2367Y2190D01*
X2460Y2190D02*
X2467Y2190D01*
X2560Y2190D02*
X2567Y2190D01*
X2660Y2190D02*
X2667Y2190D01*
X310Y2189D02*
X316Y2189D01*
X411Y2189D02*
X418Y2189D01*
X510Y2189D02*
X516Y2189D01*
X611Y2189D02*
X618Y2189D01*
X710Y2189D02*
X716Y2189D01*
X811Y2189D02*
X818Y2189D01*
X910Y2189D02*
X916Y2189D01*
X1011Y2189D02*
X1018Y2189D01*
X1159Y2189D02*
X1166Y2189D01*
X1261Y2189D02*
X1268Y2189D01*
X1359Y2189D02*
X1366Y2189D01*
X1461Y2189D02*
X1468Y2189D01*
X1559Y2189D02*
X1566Y2189D01*
X1661Y2189D02*
X1668Y2189D01*
X1759Y2189D02*
X1766Y2189D01*
X1861Y2189D02*
X1868Y2189D01*
X1959Y2189D02*
X1966Y2189D01*
X2061Y2189D02*
X2068Y2189D01*
X2159Y2189D02*
X2166Y2189D01*
X2261Y2189D02*
X2268Y2189D01*
X2359Y2189D02*
X2366Y2189D01*
X2461Y2189D02*
X2468Y2189D01*
X2559Y2189D02*
X2566Y2189D01*
X2661Y2189D02*
X2668Y2189D01*
X309Y2188D02*
X315Y2188D01*
X412Y2188D02*
X419Y2188D01*
X509Y2188D02*
X515Y2188D01*
X612Y2188D02*
X619Y2188D01*
X708Y2188D02*
X715Y2188D01*
X812Y2188D02*
X819Y2188D01*
X908Y2188D02*
X915Y2188D01*
X1012Y2188D02*
X1019Y2188D01*
X1158Y2188D02*
X1165Y2188D01*
X1262Y2188D02*
X1269Y2188D01*
X1358Y2188D02*
X1365Y2188D01*
X1462Y2188D02*
X1469Y2188D01*
X1558Y2188D02*
X1565Y2188D01*
X1662Y2188D02*
X1669Y2188D01*
X1758Y2188D02*
X1765Y2188D01*
X1862Y2188D02*
X1869Y2188D01*
X1958Y2188D02*
X1965Y2188D01*
X2062Y2188D02*
X2069Y2188D01*
X2158Y2188D02*
X2165Y2188D01*
X2262Y2188D02*
X2269Y2188D01*
X2358Y2188D02*
X2365Y2188D01*
X2462Y2188D02*
X2469Y2188D01*
X2558Y2188D02*
X2565Y2188D01*
X2662Y2188D02*
X2669Y2188D01*
X308Y2187D02*
X314Y2187D01*
X414Y2187D02*
X420Y2187D01*
X508Y2187D02*
X514Y2187D01*
X614Y2187D02*
X620Y2187D01*
X708Y2187D02*
X714Y2187D01*
X814Y2187D02*
X820Y2187D01*
X908Y2187D02*
X914Y2187D01*
X1014Y2187D02*
X1020Y2187D01*
X1157Y2187D02*
X1164Y2187D01*
X1264Y2187D02*
X1270Y2187D01*
X1357Y2187D02*
X1364Y2187D01*
X1464Y2187D02*
X1470Y2187D01*
X1557Y2187D02*
X1564Y2187D01*
X1663Y2187D02*
X1670Y2187D01*
X1757Y2187D02*
X1764Y2187D01*
X1863Y2187D02*
X1870Y2187D01*
X1957Y2187D02*
X1964Y2187D01*
X2063Y2187D02*
X2070Y2187D01*
X2157Y2187D02*
X2164Y2187D01*
X2263Y2187D02*
X2270Y2187D01*
X2357Y2187D02*
X2364Y2187D01*
X2463Y2187D02*
X2470Y2187D01*
X2557Y2187D02*
X2564Y2187D01*
X2663Y2187D02*
X2670Y2187D01*
X307Y2186D02*
X313Y2186D01*
X415Y2186D02*
X421Y2186D01*
X507Y2186D02*
X513Y2186D01*
X615Y2186D02*
X621Y2186D01*
X707Y2186D02*
X713Y2186D01*
X815Y2186D02*
X821Y2186D01*
X907Y2186D02*
X913Y2186D01*
X1015Y2186D02*
X1021Y2186D01*
X1157Y2186D02*
X1163Y2186D01*
X1265Y2186D02*
X1271Y2186D01*
X1356Y2186D02*
X1363Y2186D01*
X1465Y2186D02*
X1471Y2186D01*
X1556Y2186D02*
X1563Y2186D01*
X1665Y2186D02*
X1671Y2186D01*
X1756Y2186D02*
X1763Y2186D01*
X1865Y2186D02*
X1871Y2186D01*
X1956Y2186D02*
X1963Y2186D01*
X2065Y2186D02*
X2071Y2186D01*
X2156Y2186D02*
X2163Y2186D01*
X2265Y2186D02*
X2271Y2186D01*
X2356Y2186D02*
X2363Y2186D01*
X2465Y2186D02*
X2471Y2186D01*
X2556Y2186D02*
X2563Y2186D01*
X2664Y2186D02*
X2671Y2186D01*
X306Y2185D02*
X312Y2185D01*
X416Y2185D02*
X422Y2185D01*
X506Y2185D02*
X512Y2185D01*
X616Y2185D02*
X622Y2185D01*
X706Y2185D02*
X712Y2185D01*
X816Y2185D02*
X822Y2185D01*
X906Y2185D02*
X912Y2185D01*
X1016Y2185D02*
X1022Y2185D01*
X1156Y2185D02*
X1162Y2185D01*
X1266Y2185D02*
X1272Y2185D01*
X1356Y2185D02*
X1362Y2185D01*
X1466Y2185D02*
X1472Y2185D01*
X1556Y2185D02*
X1562Y2185D01*
X1666Y2185D02*
X1672Y2185D01*
X1755Y2185D02*
X1762Y2185D01*
X1866Y2185D02*
X1872Y2185D01*
X1955Y2185D02*
X1962Y2185D01*
X2066Y2185D02*
X2072Y2185D01*
X2155Y2185D02*
X2162Y2185D01*
X2266Y2185D02*
X2272Y2185D01*
X2355Y2185D02*
X2362Y2185D01*
X2466Y2185D02*
X2472Y2185D01*
X2555Y2185D02*
X2561Y2185D01*
X2666Y2185D02*
X2672Y2185D01*
X305Y2184D02*
X311Y2184D01*
X417Y2184D02*
X423Y2184D01*
X505Y2184D02*
X511Y2184D01*
X617Y2184D02*
X623Y2184D01*
X705Y2184D02*
X711Y2184D01*
X817Y2184D02*
X823Y2184D01*
X905Y2184D02*
X911Y2184D01*
X1017Y2184D02*
X1023Y2184D01*
X1155Y2184D02*
X1161Y2184D01*
X1267Y2184D02*
X1273Y2184D01*
X1355Y2184D02*
X1361Y2184D01*
X1467Y2184D02*
X1473Y2184D01*
X1555Y2184D02*
X1561Y2184D01*
X1667Y2184D02*
X1673Y2184D01*
X1755Y2184D02*
X1761Y2184D01*
X1867Y2184D02*
X1873Y2184D01*
X1955Y2184D02*
X1961Y2184D01*
X2067Y2184D02*
X2073Y2184D01*
X2154Y2184D02*
X2161Y2184D01*
X2267Y2184D02*
X2273Y2184D01*
X2354Y2184D02*
X2360Y2184D01*
X2467Y2184D02*
X2473Y2184D01*
X2554Y2184D02*
X2560Y2184D01*
X2666Y2184D02*
X2673Y2184D01*
X304Y2183D02*
X310Y2183D01*
X418Y2183D02*
X424Y2183D01*
X504Y2183D02*
X510Y2183D01*
X618Y2183D02*
X624Y2183D01*
X704Y2183D02*
X710Y2183D01*
X818Y2183D02*
X824Y2183D01*
X904Y2183D02*
X910Y2183D01*
X1018Y2183D02*
X1024Y2183D01*
X1154Y2183D02*
X1160Y2183D01*
X1268Y2183D02*
X1274Y2183D01*
X1354Y2183D02*
X1360Y2183D01*
X1468Y2183D02*
X1474Y2183D01*
X1554Y2183D02*
X1560Y2183D01*
X1668Y2183D02*
X1674Y2183D01*
X1754Y2183D02*
X1760Y2183D01*
X1868Y2183D02*
X1873Y2183D01*
X1954Y2183D02*
X1960Y2183D01*
X2068Y2183D02*
X2073Y2183D01*
X2154Y2183D02*
X2160Y2183D01*
X2268Y2183D02*
X2273Y2183D01*
X2354Y2183D02*
X2360Y2183D01*
X2467Y2183D02*
X2473Y2183D01*
X2554Y2183D02*
X2559Y2183D01*
X2667Y2183D02*
X2673Y2183D01*
X303Y2182D02*
X309Y2182D01*
X419Y2182D02*
X425Y2182D01*
X503Y2182D02*
X509Y2182D01*
X619Y2182D02*
X624Y2182D01*
X703Y2182D02*
X709Y2182D01*
X819Y2182D02*
X824Y2182D01*
X903Y2182D02*
X909Y2182D01*
X1019Y2182D02*
X1024Y2182D01*
X1153Y2182D02*
X1159Y2182D01*
X1269Y2182D02*
X1274Y2182D01*
X1353Y2182D02*
X1359Y2182D01*
X1469Y2182D02*
X1474Y2182D01*
X1553Y2182D02*
X1559Y2182D01*
X1669Y2182D02*
X1674Y2182D01*
X1753Y2182D02*
X1759Y2182D01*
X1869Y2182D02*
X1874Y2182D01*
X1953Y2182D02*
X1959Y2182D01*
X2069Y2182D02*
X2074Y2182D01*
X2153Y2182D02*
X2159Y2182D01*
X2268Y2182D02*
X2274Y2182D01*
X2353Y2182D02*
X2359Y2182D01*
X2468Y2182D02*
X2474Y2182D01*
X2553Y2182D02*
X2559Y2182D01*
X2668Y2182D02*
X2674Y2182D01*
X302Y2181D02*
X308Y2181D01*
X420Y2181D02*
X425Y2181D01*
X502Y2181D02*
X508Y2181D01*
X620Y2181D02*
X625Y2181D01*
X702Y2181D02*
X708Y2181D01*
X820Y2181D02*
X825Y2181D01*
X902Y2181D02*
X908Y2181D01*
X1020Y2181D02*
X1025Y2181D01*
X1152Y2181D02*
X1158Y2181D01*
X1270Y2181D02*
X1275Y2181D01*
X1352Y2181D02*
X1358Y2181D01*
X1470Y2181D02*
X1475Y2181D01*
X1552Y2181D02*
X1558Y2181D01*
X1670Y2181D02*
X1675Y2181D01*
X1752Y2181D02*
X1758Y2181D01*
X1870Y2181D02*
X1875Y2181D01*
X1952Y2181D02*
X1958Y2181D01*
X2070Y2181D02*
X2075Y2181D01*
X2152Y2181D02*
X2158Y2181D01*
X2269Y2181D02*
X2275Y2181D01*
X2352Y2181D02*
X2358Y2181D01*
X2469Y2181D02*
X2475Y2181D01*
X2552Y2181D02*
X2558Y2181D01*
X2669Y2181D02*
X2675Y2181D01*
X302Y2180D02*
X307Y2180D01*
X421Y2180D02*
X426Y2180D01*
X501Y2180D02*
X507Y2180D01*
X621Y2180D02*
X626Y2180D01*
X701Y2180D02*
X707Y2180D01*
X821Y2180D02*
X826Y2180D01*
X901Y2180D02*
X907Y2180D01*
X1021Y2180D02*
X1026Y2180D01*
X1151Y2180D02*
X1157Y2180D01*
X1271Y2180D02*
X1276Y2180D01*
X1351Y2180D02*
X1357Y2180D01*
X1470Y2180D02*
X1476Y2180D01*
X1551Y2180D02*
X1557Y2180D01*
X1670Y2180D02*
X1676Y2180D01*
X1751Y2180D02*
X1757Y2180D01*
X1870Y2180D02*
X1876Y2180D01*
X1951Y2180D02*
X1957Y2180D01*
X2070Y2180D02*
X2076Y2180D01*
X2151Y2180D02*
X2157Y2180D01*
X2270Y2180D02*
X2276Y2180D01*
X2351Y2180D02*
X2357Y2180D01*
X2470Y2180D02*
X2476Y2180D01*
X2551Y2180D02*
X2557Y2180D01*
X2670Y2180D02*
X2676Y2180D01*
X301Y2179D02*
X306Y2179D01*
X421Y2179D02*
X427Y2179D01*
X501Y2179D02*
X506Y2179D01*
X621Y2179D02*
X627Y2179D01*
X701Y2179D02*
X706Y2179D01*
X821Y2179D02*
X827Y2179D01*
X901Y2179D02*
X906Y2179D01*
X1021Y2179D02*
X1027Y2179D01*
X1151Y2179D02*
X1156Y2179D01*
X1271Y2179D02*
X1277Y2179D01*
X1351Y2179D02*
X1356Y2179D01*
X1471Y2179D02*
X1477Y2179D01*
X1551Y2179D02*
X1556Y2179D01*
X1671Y2179D02*
X1677Y2179D01*
X1751Y2179D02*
X1756Y2179D01*
X1871Y2179D02*
X1877Y2179D01*
X1950Y2179D02*
X1956Y2179D01*
X2071Y2179D02*
X2077Y2179D01*
X2150Y2179D02*
X2156Y2179D01*
X2271Y2179D02*
X2277Y2179D01*
X2350Y2179D02*
X2356Y2179D01*
X2471Y2179D02*
X2477Y2179D01*
X2550Y2179D02*
X2556Y2179D01*
X2671Y2179D02*
X2677Y2179D01*
X300Y2178D02*
X305Y2178D01*
X422Y2178D02*
X428Y2178D01*
X500Y2178D02*
X505Y2178D01*
X622Y2178D02*
X628Y2178D01*
X700Y2178D02*
X705Y2178D01*
X822Y2178D02*
X828Y2178D01*
X900Y2178D02*
X905Y2178D01*
X1022Y2178D02*
X1028Y2178D01*
X1150Y2178D02*
X1155Y2178D01*
X1272Y2178D02*
X1278Y2178D01*
X1350Y2178D02*
X1355Y2178D01*
X1472Y2178D02*
X1477Y2178D01*
X1550Y2178D02*
X1555Y2178D01*
X1672Y2178D02*
X1677Y2178D01*
X1750Y2178D02*
X1755Y2178D01*
X1872Y2178D02*
X1877Y2178D01*
X1950Y2178D02*
X1955Y2178D01*
X2072Y2178D02*
X2077Y2178D01*
X2150Y2178D02*
X2155Y2178D01*
X2272Y2178D02*
X2277Y2178D01*
X2350Y2178D02*
X2355Y2178D01*
X2472Y2178D02*
X2477Y2178D01*
X2550Y2178D02*
X2555Y2178D01*
X2672Y2178D02*
X2677Y2178D01*
X299Y2177D02*
X305Y2177D01*
X423Y2177D02*
X428Y2177D01*
X499Y2177D02*
X505Y2177D01*
X623Y2177D02*
X628Y2177D01*
X699Y2177D02*
X705Y2177D01*
X823Y2177D02*
X828Y2177D01*
X899Y2177D02*
X905Y2177D01*
X1023Y2177D02*
X1028Y2177D01*
X1149Y2177D02*
X1155Y2177D01*
X1273Y2177D02*
X1278Y2177D01*
X1349Y2177D02*
X1354Y2177D01*
X1473Y2177D02*
X1478Y2177D01*
X1549Y2177D02*
X1554Y2177D01*
X1673Y2177D02*
X1678Y2177D01*
X1749Y2177D02*
X1754Y2177D01*
X1873Y2177D02*
X1878Y2177D01*
X1949Y2177D02*
X1954Y2177D01*
X2073Y2177D02*
X2078Y2177D01*
X2149Y2177D02*
X2154Y2177D01*
X2273Y2177D02*
X2278Y2177D01*
X2349Y2177D02*
X2354Y2177D01*
X2473Y2177D02*
X2478Y2177D01*
X2549Y2177D02*
X2554Y2177D01*
X2673Y2177D02*
X2678Y2177D01*
X299Y2176D02*
X304Y2176D01*
X424Y2176D02*
X429Y2176D01*
X499Y2176D02*
X504Y2176D01*
X624Y2176D02*
X629Y2176D01*
X699Y2176D02*
X704Y2176D01*
X824Y2176D02*
X829Y2176D01*
X899Y2176D02*
X904Y2176D01*
X1024Y2176D02*
X1029Y2176D01*
X1149Y2176D02*
X1154Y2176D01*
X1274Y2176D02*
X1279Y2176D01*
X1349Y2176D02*
X1354Y2176D01*
X1474Y2176D02*
X1479Y2176D01*
X1549Y2176D02*
X1554Y2176D01*
X1674Y2176D02*
X1679Y2176D01*
X1748Y2176D02*
X1754Y2176D01*
X1874Y2176D02*
X1879Y2176D01*
X1948Y2176D02*
X1954Y2176D01*
X2074Y2176D02*
X2079Y2176D01*
X2148Y2176D02*
X2154Y2176D01*
X2274Y2176D02*
X2279Y2176D01*
X2348Y2176D02*
X2354Y2176D01*
X2474Y2176D02*
X2479Y2176D01*
X2548Y2176D02*
X2554Y2176D01*
X2673Y2176D02*
X2679Y2176D01*
X298Y2175D02*
X303Y2175D01*
X425Y2175D02*
X430Y2175D01*
X498Y2175D02*
X503Y2175D01*
X625Y2175D02*
X630Y2175D01*
X698Y2175D02*
X703Y2175D01*
X825Y2175D02*
X830Y2175D01*
X898Y2175D02*
X903Y2175D01*
X1025Y2175D02*
X1030Y2175D01*
X1148Y2175D02*
X1153Y2175D01*
X1275Y2175D02*
X1279Y2175D01*
X1348Y2175D02*
X1353Y2175D01*
X1474Y2175D02*
X1479Y2175D01*
X1548Y2175D02*
X1553Y2175D01*
X1674Y2175D02*
X1679Y2175D01*
X1748Y2175D02*
X1753Y2175D01*
X1874Y2175D02*
X1879Y2175D01*
X1948Y2175D02*
X1953Y2175D01*
X2074Y2175D02*
X2079Y2175D01*
X2148Y2175D02*
X2153Y2175D01*
X2274Y2175D02*
X2279Y2175D01*
X2348Y2175D02*
X2353Y2175D01*
X2474Y2175D02*
X2479Y2175D01*
X2548Y2175D02*
X2553Y2175D01*
X2674Y2175D02*
X2679Y2175D01*
X297Y2174D02*
X303Y2174D01*
X425Y2174D02*
X430Y2174D01*
X497Y2174D02*
X503Y2174D01*
X625Y2174D02*
X630Y2174D01*
X697Y2174D02*
X702Y2174D01*
X825Y2174D02*
X830Y2174D01*
X897Y2174D02*
X902Y2174D01*
X1025Y2174D02*
X1030Y2174D01*
X1147Y2174D02*
X1152Y2174D01*
X1275Y2174D02*
X1280Y2174D01*
X1347Y2174D02*
X1352Y2174D01*
X1475Y2174D02*
X1480Y2174D01*
X1547Y2174D02*
X1552Y2174D01*
X1675Y2174D02*
X1680Y2174D01*
X1747Y2174D02*
X1752Y2174D01*
X1875Y2174D02*
X1880Y2174D01*
X1947Y2174D02*
X1952Y2174D01*
X2075Y2174D02*
X2080Y2174D01*
X2147Y2174D02*
X2152Y2174D01*
X2275Y2174D02*
X2280Y2174D01*
X2347Y2174D02*
X2352Y2174D01*
X2475Y2174D02*
X2480Y2174D01*
X2547Y2174D02*
X2552Y2174D01*
X2675Y2174D02*
X2680Y2174D01*
X297Y2173D02*
X302Y2173D01*
X426Y2173D02*
X431Y2173D01*
X497Y2173D02*
X502Y2173D01*
X626Y2173D02*
X631Y2173D01*
X697Y2173D02*
X702Y2173D01*
X826Y2173D02*
X831Y2173D01*
X897Y2173D02*
X902Y2173D01*
X1026Y2173D02*
X1031Y2173D01*
X1147Y2173D02*
X1152Y2173D01*
X1276Y2173D02*
X1281Y2173D01*
X1347Y2173D02*
X1352Y2173D01*
X1476Y2173D02*
X1481Y2173D01*
X1546Y2173D02*
X1552Y2173D01*
X1676Y2173D02*
X1681Y2173D01*
X1746Y2173D02*
X1752Y2173D01*
X1876Y2173D02*
X1881Y2173D01*
X1946Y2173D02*
X1952Y2173D01*
X2076Y2173D02*
X2081Y2173D01*
X2146Y2173D02*
X2152Y2173D01*
X2276Y2173D02*
X2281Y2173D01*
X2346Y2173D02*
X2352Y2173D01*
X2476Y2173D02*
X2481Y2173D01*
X2546Y2173D02*
X2551Y2173D01*
X2676Y2173D02*
X2681Y2173D01*
X296Y2172D02*
X301Y2172D01*
X427Y2172D02*
X432Y2172D01*
X496Y2172D02*
X501Y2172D01*
X627Y2172D02*
X631Y2172D01*
X696Y2172D02*
X701Y2172D01*
X827Y2172D02*
X831Y2172D01*
X896Y2172D02*
X901Y2172D01*
X1027Y2172D02*
X1031Y2172D01*
X1146Y2172D02*
X1151Y2172D01*
X1277Y2172D02*
X1281Y2172D01*
X1346Y2172D02*
X1351Y2172D01*
X1476Y2172D02*
X1481Y2172D01*
X1546Y2172D02*
X1551Y2172D01*
X1676Y2172D02*
X1681Y2172D01*
X1746Y2172D02*
X1751Y2172D01*
X1876Y2172D02*
X1881Y2172D01*
X1946Y2172D02*
X1951Y2172D01*
X2076Y2172D02*
X2081Y2172D01*
X2146Y2172D02*
X2151Y2172D01*
X2276Y2172D02*
X2281Y2172D01*
X2346Y2172D02*
X2351Y2172D01*
X2476Y2172D02*
X2481Y2172D01*
X2546Y2172D02*
X2551Y2172D01*
X2676Y2172D02*
X2681Y2172D01*
X296Y2171D02*
X301Y2171D01*
X427Y2171D02*
X432Y2171D01*
X496Y2171D02*
X500Y2171D01*
X627Y2171D02*
X632Y2171D01*
X696Y2171D02*
X700Y2171D01*
X827Y2171D02*
X832Y2171D01*
X895Y2171D02*
X900Y2171D01*
X1027Y2171D02*
X1032Y2171D01*
X1145Y2171D02*
X1150Y2171D01*
X1277Y2171D02*
X1282Y2171D01*
X1345Y2171D02*
X1350Y2171D01*
X1477Y2171D02*
X1482Y2171D01*
X1545Y2171D02*
X1550Y2171D01*
X1677Y2171D02*
X1682Y2171D01*
X1745Y2171D02*
X1750Y2171D01*
X1877Y2171D02*
X1882Y2171D01*
X1945Y2171D02*
X1950Y2171D01*
X2077Y2171D02*
X2082Y2171D01*
X2145Y2171D02*
X2150Y2171D01*
X2277Y2171D02*
X2282Y2171D01*
X2345Y2171D02*
X2350Y2171D01*
X2477Y2171D02*
X2482Y2171D01*
X2545Y2171D02*
X2550Y2171D01*
X2677Y2171D02*
X2682Y2171D01*
X295Y2170D02*
X300Y2170D01*
X428Y2170D02*
X433Y2170D01*
X495Y2170D02*
X500Y2170D01*
X628Y2170D02*
X633Y2170D01*
X695Y2170D02*
X700Y2170D01*
X828Y2170D02*
X833Y2170D01*
X895Y2170D02*
X900Y2170D01*
X1028Y2170D02*
X1033Y2170D01*
X1145Y2170D02*
X1150Y2170D01*
X1278Y2170D02*
X1282Y2170D01*
X1345Y2170D02*
X1350Y2170D01*
X1478Y2170D02*
X1482Y2170D01*
X1545Y2170D02*
X1550Y2170D01*
X1678Y2170D02*
X1682Y2170D01*
X1745Y2170D02*
X1750Y2170D01*
X1878Y2170D02*
X1882Y2170D01*
X1945Y2170D02*
X1950Y2170D01*
X2078Y2170D02*
X2082Y2170D01*
X2145Y2170D02*
X2150Y2170D01*
X2278Y2170D02*
X2282Y2170D01*
X2345Y2170D02*
X2350Y2170D01*
X2478Y2170D02*
X2482Y2170D01*
X2545Y2170D02*
X2549Y2170D01*
X2678Y2170D02*
X2682Y2170D01*
X294Y2169D02*
X299Y2169D01*
X429Y2169D02*
X433Y2169D01*
X494Y2169D02*
X499Y2169D01*
X629Y2169D02*
X633Y2169D01*
X694Y2169D02*
X699Y2169D01*
X829Y2169D02*
X833Y2169D01*
X894Y2169D02*
X899Y2169D01*
X1028Y2169D02*
X1033Y2169D01*
X1144Y2169D02*
X1149Y2169D01*
X1278Y2169D02*
X1283Y2169D01*
X1344Y2169D02*
X1349Y2169D01*
X1478Y2169D02*
X1483Y2169D01*
X1544Y2169D02*
X1549Y2169D01*
X1678Y2169D02*
X1683Y2169D01*
X1744Y2169D02*
X1749Y2169D01*
X1878Y2169D02*
X1883Y2169D01*
X1944Y2169D02*
X1949Y2169D01*
X2078Y2169D02*
X2083Y2169D01*
X2144Y2169D02*
X2149Y2169D01*
X2278Y2169D02*
X2283Y2169D01*
X2344Y2169D02*
X2349Y2169D01*
X2478Y2169D02*
X2483Y2169D01*
X2544Y2169D02*
X2549Y2169D01*
X2678Y2169D02*
X2683Y2169D01*
X294Y2168D02*
X299Y2168D01*
X429Y2168D02*
X434Y2168D01*
X494Y2168D02*
X499Y2168D01*
X629Y2168D02*
X634Y2168D01*
X694Y2168D02*
X699Y2168D01*
X829Y2168D02*
X834Y2168D01*
X894Y2168D02*
X899Y2168D01*
X1029Y2168D02*
X1034Y2168D01*
X1144Y2168D02*
X1149Y2168D01*
X1279Y2168D02*
X1284Y2168D01*
X1344Y2168D02*
X1349Y2168D01*
X1479Y2168D02*
X1483Y2168D01*
X1544Y2168D02*
X1549Y2168D01*
X1679Y2168D02*
X1683Y2168D01*
X1744Y2168D02*
X1748Y2168D01*
X1879Y2168D02*
X1883Y2168D01*
X1944Y2168D02*
X1948Y2168D01*
X2079Y2168D02*
X2083Y2168D01*
X2144Y2168D02*
X2148Y2168D01*
X2279Y2168D02*
X2283Y2168D01*
X2344Y2168D02*
X2348Y2168D01*
X2479Y2168D02*
X2483Y2168D01*
X2544Y2168D02*
X2548Y2168D01*
X2679Y2168D02*
X2683Y2168D01*
X293Y2167D02*
X298Y2167D01*
X430Y2167D02*
X434Y2167D01*
X493Y2167D02*
X498Y2167D01*
X630Y2167D02*
X634Y2167D01*
X693Y2167D02*
X698Y2167D01*
X830Y2167D02*
X834Y2167D01*
X893Y2167D02*
X898Y2167D01*
X1030Y2167D02*
X1034Y2167D01*
X1143Y2167D02*
X1148Y2167D01*
X1280Y2167D02*
X1284Y2167D01*
X1343Y2167D02*
X1348Y2167D01*
X1479Y2167D02*
X1484Y2167D01*
X1543Y2167D02*
X1548Y2167D01*
X1679Y2167D02*
X1684Y2167D01*
X1743Y2167D02*
X1748Y2167D01*
X1879Y2167D02*
X1884Y2167D01*
X1943Y2167D02*
X1948Y2167D01*
X2079Y2167D02*
X2084Y2167D01*
X2143Y2167D02*
X2148Y2167D01*
X2279Y2167D02*
X2284Y2167D01*
X2343Y2167D02*
X2348Y2167D01*
X2479Y2167D02*
X2484Y2167D01*
X2543Y2167D02*
X2548Y2167D01*
X2679Y2167D02*
X2684Y2167D01*
X293Y2166D02*
X298Y2166D01*
X430Y2166D02*
X435Y2166D01*
X493Y2166D02*
X498Y2166D01*
X630Y2166D02*
X635Y2166D01*
X693Y2166D02*
X698Y2166D01*
X830Y2166D02*
X835Y2166D01*
X893Y2166D02*
X898Y2166D01*
X1030Y2166D02*
X1035Y2166D01*
X1143Y2166D02*
X1148Y2166D01*
X1280Y2166D02*
X1285Y2166D01*
X1343Y2166D02*
X1347Y2166D01*
X1480Y2166D02*
X1484Y2166D01*
X1543Y2166D02*
X1547Y2166D01*
X1680Y2166D02*
X1684Y2166D01*
X1743Y2166D02*
X1747Y2166D01*
X1880Y2166D02*
X1884Y2166D01*
X1943Y2166D02*
X1947Y2166D01*
X2080Y2166D02*
X2084Y2166D01*
X2143Y2166D02*
X2147Y2166D01*
X2280Y2166D02*
X2284Y2166D01*
X2343Y2166D02*
X2347Y2166D01*
X2480Y2166D02*
X2484Y2166D01*
X2543Y2166D02*
X2547Y2166D01*
X2680Y2166D02*
X2684Y2166D01*
X292Y2165D02*
X297Y2165D01*
X431Y2165D02*
X435Y2165D01*
X492Y2165D02*
X497Y2165D01*
X631Y2165D02*
X635Y2165D01*
X692Y2165D02*
X697Y2165D01*
X831Y2165D02*
X835Y2165D01*
X892Y2165D02*
X897Y2165D01*
X1031Y2165D02*
X1035Y2165D01*
X1142Y2165D02*
X1147Y2165D01*
X1281Y2165D02*
X1285Y2165D01*
X1342Y2165D02*
X1347Y2165D01*
X1481Y2165D02*
X1485Y2165D01*
X1542Y2165D02*
X1547Y2165D01*
X1681Y2165D02*
X1685Y2165D01*
X1742Y2165D02*
X1747Y2165D01*
X1880Y2165D02*
X1885Y2165D01*
X1942Y2165D02*
X1947Y2165D01*
X2080Y2165D02*
X2085Y2165D01*
X2142Y2165D02*
X2147Y2165D01*
X2280Y2165D02*
X2285Y2165D01*
X2342Y2165D02*
X2347Y2165D01*
X2480Y2165D02*
X2485Y2165D01*
X2542Y2165D02*
X2547Y2165D01*
X2680Y2165D02*
X2685Y2165D01*
X292Y2164D02*
X297Y2164D01*
X431Y2164D02*
X436Y2164D01*
X492Y2164D02*
X497Y2164D01*
X631Y2164D02*
X636Y2164D01*
X692Y2164D02*
X696Y2164D01*
X831Y2164D02*
X836Y2164D01*
X892Y2164D02*
X896Y2164D01*
X1031Y2164D02*
X1036Y2164D01*
X1142Y2164D02*
X1146Y2164D01*
X1281Y2164D02*
X1285Y2164D01*
X1342Y2164D02*
X1346Y2164D01*
X1481Y2164D02*
X1485Y2164D01*
X1542Y2164D02*
X1546Y2164D01*
X1681Y2164D02*
X1685Y2164D01*
X1742Y2164D02*
X1746Y2164D01*
X1881Y2164D02*
X1885Y2164D01*
X1942Y2164D02*
X1946Y2164D01*
X2081Y2164D02*
X2085Y2164D01*
X2142Y2164D02*
X2146Y2164D01*
X2281Y2164D02*
X2285Y2164D01*
X2342Y2164D02*
X2346Y2164D01*
X2481Y2164D02*
X2485Y2164D01*
X2542Y2164D02*
X2546Y2164D01*
X2681Y2164D02*
X2685Y2164D01*
X292Y2163D02*
X296Y2163D01*
X432Y2163D02*
X436Y2163D01*
X492Y2163D02*
X496Y2163D01*
X632Y2163D02*
X636Y2163D01*
X692Y2163D02*
X696Y2163D01*
X832Y2163D02*
X836Y2163D01*
X892Y2163D02*
X896Y2163D01*
X1032Y2163D02*
X1036Y2163D01*
X1141Y2163D02*
X1146Y2163D01*
X1282Y2163D02*
X1286Y2163D01*
X1341Y2163D02*
X1346Y2163D01*
X1482Y2163D02*
X1486Y2163D01*
X1541Y2163D02*
X1546Y2163D01*
X1682Y2163D02*
X1686Y2163D01*
X1741Y2163D02*
X1746Y2163D01*
X1882Y2163D02*
X1886Y2163D01*
X1941Y2163D02*
X1946Y2163D01*
X2081Y2163D02*
X2086Y2163D01*
X2141Y2163D02*
X2146Y2163D01*
X2281Y2163D02*
X2286Y2163D01*
X2341Y2163D02*
X2346Y2163D01*
X2481Y2163D02*
X2486Y2163D01*
X2541Y2163D02*
X2546Y2163D01*
X2681Y2163D02*
X2686Y2163D01*
X291Y2162D02*
X296Y2162D01*
X432Y2162D02*
X436Y2162D01*
X491Y2162D02*
X496Y2162D01*
X632Y2162D02*
X636Y2162D01*
X691Y2162D02*
X696Y2162D01*
X832Y2162D02*
X836Y2162D01*
X891Y2162D02*
X896Y2162D01*
X1032Y2162D02*
X1036Y2162D01*
X1141Y2162D02*
X1146Y2162D01*
X1282Y2162D02*
X1286Y2162D01*
X1341Y2162D02*
X1345Y2162D01*
X1482Y2162D02*
X1486Y2162D01*
X1541Y2162D02*
X1545Y2162D01*
X1682Y2162D02*
X1686Y2162D01*
X1741Y2162D02*
X1745Y2162D01*
X1882Y2162D02*
X1886Y2162D01*
X1941Y2162D02*
X1945Y2162D01*
X2082Y2162D02*
X2086Y2162D01*
X2141Y2162D02*
X2145Y2162D01*
X2282Y2162D02*
X2286Y2162D01*
X2341Y2162D02*
X2345Y2162D01*
X2482Y2162D02*
X2486Y2162D01*
X2541Y2162D02*
X2545Y2162D01*
X2682Y2162D02*
X2686Y2162D01*
X291Y2161D02*
X295Y2161D01*
X433Y2161D02*
X437Y2161D01*
X491Y2161D02*
X495Y2161D01*
X633Y2161D02*
X637Y2161D01*
X691Y2161D02*
X695Y2161D01*
X833Y2161D02*
X837Y2161D01*
X891Y2161D02*
X895Y2161D01*
X1033Y2161D02*
X1037Y2161D01*
X1141Y2161D02*
X1145Y2161D01*
X1282Y2161D02*
X1287Y2161D01*
X1341Y2161D02*
X1345Y2161D01*
X1482Y2161D02*
X1487Y2161D01*
X1541Y2161D02*
X1545Y2161D01*
X1682Y2161D02*
X1687Y2161D01*
X1741Y2161D02*
X1745Y2161D01*
X1882Y2161D02*
X1887Y2161D01*
X1941Y2161D02*
X1945Y2161D01*
X2082Y2161D02*
X2087Y2161D01*
X2140Y2161D02*
X2145Y2161D01*
X2282Y2161D02*
X2286Y2161D01*
X2340Y2161D02*
X2345Y2161D01*
X2482Y2161D02*
X2486Y2161D01*
X2540Y2161D02*
X2545Y2161D01*
X2682Y2161D02*
X2686Y2161D01*
X290Y2160D02*
X295Y2160D01*
X433Y2160D02*
X437Y2160D01*
X490Y2160D02*
X495Y2160D01*
X633Y2160D02*
X637Y2160D01*
X690Y2160D02*
X695Y2160D01*
X833Y2160D02*
X837Y2160D01*
X890Y2160D02*
X895Y2160D01*
X1033Y2160D02*
X1037Y2160D01*
X1140Y2160D02*
X1145Y2160D01*
X1283Y2160D02*
X1287Y2160D01*
X1340Y2160D02*
X1345Y2160D01*
X1483Y2160D02*
X1487Y2160D01*
X1540Y2160D02*
X1545Y2160D01*
X1683Y2160D02*
X1687Y2160D01*
X1740Y2160D02*
X1745Y2160D01*
X1883Y2160D02*
X1887Y2160D01*
X1940Y2160D02*
X1945Y2160D01*
X2083Y2160D02*
X2087Y2160D01*
X2140Y2160D02*
X2144Y2160D01*
X2283Y2160D02*
X2287Y2160D01*
X2340Y2160D02*
X2344Y2160D01*
X2483Y2160D02*
X2487Y2160D01*
X2540Y2160D02*
X2544Y2160D01*
X2683Y2160D02*
X2687Y2160D01*
X290Y2159D02*
X294Y2159D01*
X433Y2159D02*
X438Y2159D01*
X490Y2159D02*
X494Y2159D01*
X633Y2159D02*
X638Y2159D01*
X690Y2159D02*
X694Y2159D01*
X833Y2159D02*
X838Y2159D01*
X890Y2159D02*
X894Y2159D01*
X1033Y2159D02*
X1038Y2159D01*
X1140Y2159D02*
X1144Y2159D01*
X1283Y2159D02*
X1287Y2159D01*
X1340Y2159D02*
X1344Y2159D01*
X1483Y2159D02*
X1487Y2159D01*
X1540Y2159D02*
X1544Y2159D01*
X1683Y2159D02*
X1687Y2159D01*
X1740Y2159D02*
X1744Y2159D01*
X1883Y2159D02*
X1887Y2159D01*
X1940Y2159D02*
X1944Y2159D01*
X2083Y2159D02*
X2087Y2159D01*
X2140Y2159D02*
X2144Y2159D01*
X2283Y2159D02*
X2287Y2159D01*
X2340Y2159D02*
X2344Y2159D01*
X2483Y2159D02*
X2487Y2159D01*
X2540Y2159D02*
X2544Y2159D01*
X2683Y2159D02*
X2687Y2159D01*
X290Y2158D02*
X294Y2158D01*
X434Y2158D02*
X438Y2158D01*
X490Y2158D02*
X494Y2158D01*
X634Y2158D02*
X638Y2158D01*
X690Y2158D02*
X694Y2158D01*
X834Y2158D02*
X838Y2158D01*
X890Y2158D02*
X894Y2158D01*
X1034Y2158D02*
X1038Y2158D01*
X1139Y2158D02*
X1144Y2158D01*
X1284Y2158D02*
X1288Y2158D01*
X1339Y2158D02*
X1344Y2158D01*
X1484Y2158D02*
X1488Y2158D01*
X1539Y2158D02*
X1544Y2158D01*
X1684Y2158D02*
X1688Y2158D01*
X1739Y2158D02*
X1744Y2158D01*
X1884Y2158D02*
X1888Y2158D01*
X1939Y2158D02*
X1944Y2158D01*
X2084Y2158D02*
X2088Y2158D01*
X2139Y2158D02*
X2144Y2158D01*
X2284Y2158D02*
X2288Y2158D01*
X2339Y2158D02*
X2344Y2158D01*
X2483Y2158D02*
X2488Y2158D01*
X2539Y2158D02*
X2544Y2158D01*
X2683Y2158D02*
X2688Y2158D01*
X289Y2157D02*
X294Y2157D01*
X434Y2157D02*
X438Y2157D01*
X489Y2157D02*
X494Y2157D01*
X634Y2157D02*
X638Y2157D01*
X689Y2157D02*
X693Y2157D01*
X834Y2157D02*
X838Y2157D01*
X889Y2157D02*
X893Y2157D01*
X1034Y2157D02*
X1038Y2157D01*
X1139Y2157D02*
X1143Y2157D01*
X1284Y2157D02*
X1288Y2157D01*
X1339Y2157D02*
X1343Y2157D01*
X1484Y2157D02*
X1488Y2157D01*
X1539Y2157D02*
X1543Y2157D01*
X1684Y2157D02*
X1688Y2157D01*
X1739Y2157D02*
X1743Y2157D01*
X1884Y2157D02*
X1888Y2157D01*
X1939Y2157D02*
X1943Y2157D01*
X2084Y2157D02*
X2088Y2157D01*
X2139Y2157D02*
X2143Y2157D01*
X2284Y2157D02*
X2288Y2157D01*
X2339Y2157D02*
X2343Y2157D01*
X2484Y2157D02*
X2488Y2157D01*
X2539Y2157D02*
X2543Y2157D01*
X2684Y2157D02*
X2688Y2157D01*
X289Y2156D02*
X293Y2156D01*
X435Y2156D02*
X439Y2156D01*
X489Y2156D02*
X493Y2156D01*
X635Y2156D02*
X639Y2156D01*
X689Y2156D02*
X693Y2156D01*
X835Y2156D02*
X839Y2156D01*
X889Y2156D02*
X893Y2156D01*
X1035Y2156D02*
X1039Y2156D01*
X1139Y2156D02*
X1143Y2156D01*
X1284Y2156D02*
X1288Y2156D01*
X1339Y2156D02*
X1343Y2156D01*
X1484Y2156D02*
X1488Y2156D01*
X1539Y2156D02*
X1543Y2156D01*
X1684Y2156D02*
X1688Y2156D01*
X1739Y2156D02*
X1743Y2156D01*
X1884Y2156D02*
X1888Y2156D01*
X1939Y2156D02*
X1943Y2156D01*
X2084Y2156D02*
X2088Y2156D01*
X2139Y2156D02*
X2143Y2156D01*
X2284Y2156D02*
X2288Y2156D01*
X2339Y2156D02*
X2343Y2156D01*
X2484Y2156D02*
X2488Y2156D01*
X2539Y2156D02*
X2543Y2156D01*
X2684Y2156D02*
X2688Y2156D01*
X289Y2155D02*
X293Y2155D01*
X435Y2155D02*
X439Y2155D01*
X489Y2155D02*
X493Y2155D01*
X635Y2155D02*
X639Y2155D01*
X689Y2155D02*
X693Y2155D01*
X835Y2155D02*
X839Y2155D01*
X889Y2155D02*
X893Y2155D01*
X1035Y2155D02*
X1039Y2155D01*
X1139Y2155D02*
X1143Y2155D01*
X1285Y2155D02*
X1289Y2155D01*
X1339Y2155D02*
X1343Y2155D01*
X1485Y2155D02*
X1489Y2155D01*
X1538Y2155D02*
X1543Y2155D01*
X1685Y2155D02*
X1689Y2155D01*
X1738Y2155D02*
X1743Y2155D01*
X1885Y2155D02*
X1889Y2155D01*
X1938Y2155D02*
X1943Y2155D01*
X2085Y2155D02*
X2089Y2155D01*
X2138Y2155D02*
X2143Y2155D01*
X2285Y2155D02*
X2289Y2155D01*
X2338Y2155D02*
X2343Y2155D01*
X2485Y2155D02*
X2489Y2155D01*
X2538Y2155D02*
X2543Y2155D01*
X2685Y2155D02*
X2689Y2155D01*
X288Y2154D02*
X293Y2154D01*
X435Y2154D02*
X439Y2154D01*
X488Y2154D02*
X493Y2154D01*
X635Y2154D02*
X639Y2154D01*
X688Y2154D02*
X693Y2154D01*
X835Y2154D02*
X839Y2154D01*
X888Y2154D02*
X892Y2154D01*
X1035Y2154D02*
X1039Y2154D01*
X1138Y2154D02*
X1142Y2154D01*
X1285Y2154D02*
X1289Y2154D01*
X1338Y2154D02*
X1342Y2154D01*
X1485Y2154D02*
X1489Y2154D01*
X1538Y2154D02*
X1542Y2154D01*
X1685Y2154D02*
X1689Y2154D01*
X1738Y2154D02*
X1742Y2154D01*
X1885Y2154D02*
X1889Y2154D01*
X1938Y2154D02*
X1942Y2154D01*
X2085Y2154D02*
X2089Y2154D01*
X2138Y2154D02*
X2142Y2154D01*
X2285Y2154D02*
X2289Y2154D01*
X2338Y2154D02*
X2342Y2154D01*
X2485Y2154D02*
X2489Y2154D01*
X2538Y2154D02*
X2542Y2154D01*
X2685Y2154D02*
X2689Y2154D01*
X288Y2153D02*
X292Y2153D01*
X436Y2153D02*
X439Y2153D01*
X488Y2153D02*
X492Y2153D01*
X635Y2153D02*
X639Y2153D01*
X688Y2153D02*
X692Y2153D01*
X835Y2153D02*
X839Y2153D01*
X888Y2153D02*
X892Y2153D01*
X1035Y2153D02*
X1039Y2153D01*
X1138Y2153D02*
X1142Y2153D01*
X1285Y2153D02*
X1289Y2153D01*
X1338Y2153D02*
X1342Y2153D01*
X1485Y2153D02*
X1489Y2153D01*
X1538Y2153D02*
X1542Y2153D01*
X1685Y2153D02*
X1689Y2153D01*
X1738Y2153D02*
X1742Y2153D01*
X1885Y2153D02*
X1889Y2153D01*
X1938Y2153D02*
X1942Y2153D01*
X2085Y2153D02*
X2089Y2153D01*
X2138Y2153D02*
X2142Y2153D01*
X2285Y2153D02*
X2289Y2153D01*
X2338Y2153D02*
X2342Y2153D01*
X2485Y2153D02*
X2489Y2153D01*
X2538Y2153D02*
X2542Y2153D01*
X2685Y2153D02*
X2689Y2153D01*
X288Y2152D02*
X292Y2152D01*
X436Y2152D02*
X440Y2152D01*
X488Y2152D02*
X492Y2152D01*
X636Y2152D02*
X640Y2152D01*
X688Y2152D02*
X692Y2152D01*
X836Y2152D02*
X840Y2152D01*
X888Y2152D02*
X892Y2152D01*
X1036Y2152D02*
X1040Y2152D01*
X1138Y2152D02*
X1142Y2152D01*
X1286Y2152D02*
X1290Y2152D01*
X1338Y2152D02*
X1342Y2152D01*
X1486Y2152D02*
X1490Y2152D01*
X1538Y2152D02*
X1542Y2152D01*
X1686Y2152D02*
X1690Y2152D01*
X1738Y2152D02*
X1742Y2152D01*
X1886Y2152D02*
X1890Y2152D01*
X1938Y2152D02*
X1942Y2152D01*
X2086Y2152D02*
X2090Y2152D01*
X2137Y2152D02*
X2142Y2152D01*
X2286Y2152D02*
X2289Y2152D01*
X2337Y2152D02*
X2342Y2152D01*
X2485Y2152D02*
X2489Y2152D01*
X2537Y2152D02*
X2542Y2152D01*
X2685Y2152D02*
X2689Y2152D01*
X288Y2151D02*
X292Y2151D01*
X436Y2151D02*
X440Y2151D01*
X487Y2151D02*
X492Y2151D01*
X636Y2151D02*
X640Y2151D01*
X687Y2151D02*
X692Y2151D01*
X836Y2151D02*
X840Y2151D01*
X887Y2151D02*
X892Y2151D01*
X1036Y2151D02*
X1040Y2151D01*
X1137Y2151D02*
X1142Y2151D01*
X1286Y2151D02*
X1290Y2151D01*
X1337Y2151D02*
X1341Y2151D01*
X1486Y2151D02*
X1490Y2151D01*
X1537Y2151D02*
X1541Y2151D01*
X1686Y2151D02*
X1690Y2151D01*
X1737Y2151D02*
X1741Y2151D01*
X1886Y2151D02*
X1890Y2151D01*
X1937Y2151D02*
X1941Y2151D01*
X2086Y2151D02*
X2090Y2151D01*
X2137Y2151D02*
X2141Y2151D01*
X2286Y2151D02*
X2290Y2151D01*
X2337Y2151D02*
X2341Y2151D01*
X2486Y2151D02*
X2490Y2151D01*
X2537Y2151D02*
X2541Y2151D01*
X2686Y2151D02*
X2690Y2151D01*
X287Y2150D02*
X291Y2150D01*
X436Y2150D02*
X440Y2150D01*
X487Y2150D02*
X491Y2150D01*
X636Y2150D02*
X640Y2150D01*
X687Y2150D02*
X691Y2150D01*
X836Y2150D02*
X840Y2150D01*
X887Y2150D02*
X891Y2150D01*
X1036Y2150D02*
X1040Y2150D01*
X1137Y2150D02*
X1141Y2150D01*
X1286Y2150D02*
X1290Y2150D01*
X1337Y2150D02*
X1341Y2150D01*
X1486Y2150D02*
X1490Y2150D01*
X1537Y2150D02*
X1541Y2150D01*
X1686Y2150D02*
X1690Y2150D01*
X1737Y2150D02*
X1741Y2150D01*
X1886Y2150D02*
X1890Y2150D01*
X1937Y2150D02*
X1941Y2150D01*
X2086Y2150D02*
X2090Y2150D01*
X2137Y2150D02*
X2141Y2150D01*
X2286Y2150D02*
X2290Y2150D01*
X2337Y2150D02*
X2341Y2150D01*
X2486Y2150D02*
X2490Y2150D01*
X2537Y2150D02*
X2541Y2150D01*
X2686Y2150D02*
X2690Y2150D01*
X287Y2149D02*
X291Y2149D01*
X437Y2149D02*
X441Y2149D01*
X487Y2149D02*
X491Y2149D01*
X637Y2149D02*
X641Y2149D01*
X687Y2149D02*
X691Y2149D01*
X837Y2149D02*
X840Y2149D01*
X887Y2149D02*
X891Y2149D01*
X1037Y2149D02*
X1040Y2149D01*
X1137Y2149D02*
X1141Y2149D01*
X1287Y2149D02*
X1290Y2149D01*
X1337Y2149D02*
X1341Y2149D01*
X1487Y2149D02*
X1490Y2149D01*
X1537Y2149D02*
X1541Y2149D01*
X1686Y2149D02*
X1690Y2149D01*
X1737Y2149D02*
X1741Y2149D01*
X1886Y2149D02*
X1890Y2149D01*
X1937Y2149D02*
X1941Y2149D01*
X2086Y2149D02*
X2090Y2149D01*
X2137Y2149D02*
X2141Y2149D01*
X2286Y2149D02*
X2290Y2149D01*
X2337Y2149D02*
X2341Y2149D01*
X2486Y2149D02*
X2490Y2149D01*
X2537Y2149D02*
X2541Y2149D01*
X2686Y2149D02*
X2690Y2149D01*
X287Y2148D02*
X291Y2148D01*
X437Y2148D02*
X441Y2148D01*
X487Y2148D02*
X491Y2148D01*
X637Y2148D02*
X641Y2148D01*
X687Y2148D02*
X691Y2148D01*
X837Y2148D02*
X841Y2148D01*
X887Y2148D02*
X891Y2148D01*
X1037Y2148D02*
X1041Y2148D01*
X1137Y2148D02*
X1141Y2148D01*
X1287Y2148D02*
X1291Y2148D01*
X1337Y2148D02*
X1341Y2148D01*
X1487Y2148D02*
X1491Y2148D01*
X1537Y2148D02*
X1541Y2148D01*
X1687Y2148D02*
X1691Y2148D01*
X1737Y2148D02*
X1741Y2148D01*
X1887Y2148D02*
X1890Y2148D01*
X1937Y2148D02*
X1941Y2148D01*
X2087Y2148D02*
X2090Y2148D01*
X2137Y2148D02*
X2141Y2148D01*
X2287Y2148D02*
X2290Y2148D01*
X2337Y2148D02*
X2341Y2148D01*
X2487Y2148D02*
X2490Y2148D01*
X2537Y2148D02*
X2541Y2148D01*
X2687Y2148D02*
X2690Y2148D01*
X287Y2147D02*
X291Y2147D01*
X437Y2147D02*
X441Y2147D01*
X487Y2147D02*
X491Y2147D01*
X637Y2147D02*
X641Y2147D01*
X687Y2147D02*
X691Y2147D01*
X837Y2147D02*
X841Y2147D01*
X887Y2147D02*
X891Y2147D01*
X1037Y2147D02*
X1041Y2147D01*
X1137Y2147D02*
X1141Y2147D01*
X1287Y2147D02*
X1291Y2147D01*
X1337Y2147D02*
X1341Y2147D01*
X1487Y2147D02*
X1491Y2147D01*
X1537Y2147D02*
X1540Y2147D01*
X1687Y2147D02*
X1691Y2147D01*
X1736Y2147D02*
X1740Y2147D01*
X1887Y2147D02*
X1891Y2147D01*
X1936Y2147D02*
X1940Y2147D01*
X2087Y2147D02*
X2091Y2147D01*
X2136Y2147D02*
X2140Y2147D01*
X2287Y2147D02*
X2291Y2147D01*
X2336Y2147D02*
X2340Y2147D01*
X2487Y2147D02*
X2491Y2147D01*
X2536Y2147D02*
X2540Y2147D01*
X2687Y2147D02*
X2691Y2147D01*
X287Y2146D02*
X290Y2146D01*
X437Y2146D02*
X441Y2146D01*
X486Y2146D02*
X490Y2146D01*
X637Y2146D02*
X641Y2146D01*
X686Y2146D02*
X690Y2146D01*
X837Y2146D02*
X841Y2146D01*
X886Y2146D02*
X890Y2146D01*
X1037Y2146D02*
X1041Y2146D01*
X1136Y2146D02*
X1140Y2146D01*
X1287Y2146D02*
X1291Y2146D01*
X1336Y2146D02*
X1340Y2146D01*
X1487Y2146D02*
X1491Y2146D01*
X1536Y2146D02*
X1540Y2146D01*
X1687Y2146D02*
X1691Y2146D01*
X1736Y2146D02*
X1740Y2146D01*
X1887Y2146D02*
X1891Y2146D01*
X1936Y2146D02*
X1940Y2146D01*
X2087Y2146D02*
X2091Y2146D01*
X2136Y2146D02*
X2140Y2146D01*
X2287Y2146D02*
X2291Y2146D01*
X2336Y2146D02*
X2340Y2146D01*
X2487Y2146D02*
X2491Y2146D01*
X2536Y2146D02*
X2540Y2146D01*
X2687Y2146D02*
X2691Y2146D01*
X286Y2145D02*
X290Y2145D01*
X437Y2145D02*
X441Y2145D01*
X486Y2145D02*
X490Y2145D01*
X637Y2145D02*
X641Y2145D01*
X686Y2145D02*
X690Y2145D01*
X837Y2145D02*
X841Y2145D01*
X886Y2145D02*
X890Y2145D01*
X1037Y2145D02*
X1041Y2145D01*
X1136Y2145D02*
X1140Y2145D01*
X1287Y2145D02*
X1291Y2145D01*
X1336Y2145D02*
X1340Y2145D01*
X1487Y2145D02*
X1491Y2145D01*
X1536Y2145D02*
X1540Y2145D01*
X1687Y2145D02*
X1691Y2145D01*
X1736Y2145D02*
X1740Y2145D01*
X1887Y2145D02*
X1891Y2145D01*
X1936Y2145D02*
X1940Y2145D01*
X2087Y2145D02*
X2091Y2145D01*
X2136Y2145D02*
X2140Y2145D01*
X2287Y2145D02*
X2291Y2145D01*
X2336Y2145D02*
X2340Y2145D01*
X2487Y2145D02*
X2491Y2145D01*
X2536Y2145D02*
X2540Y2145D01*
X2687Y2145D02*
X2691Y2145D01*
X286Y2144D02*
X290Y2144D01*
X438Y2144D02*
X441Y2144D01*
X486Y2144D02*
X490Y2144D01*
X638Y2144D02*
X641Y2144D01*
X686Y2144D02*
X690Y2144D01*
X838Y2144D02*
X841Y2144D01*
X886Y2144D02*
X890Y2144D01*
X1038Y2144D02*
X1041Y2144D01*
X1136Y2144D02*
X1140Y2144D01*
X1288Y2144D02*
X1291Y2144D01*
X1336Y2144D02*
X1340Y2144D01*
X1487Y2144D02*
X1491Y2144D01*
X1536Y2144D02*
X1540Y2144D01*
X1687Y2144D02*
X1691Y2144D01*
X1736Y2144D02*
X1740Y2144D01*
X1887Y2144D02*
X1891Y2144D01*
X1936Y2144D02*
X1940Y2144D01*
X2087Y2144D02*
X2091Y2144D01*
X2136Y2144D02*
X2140Y2144D01*
X2287Y2144D02*
X2291Y2144D01*
X2336Y2144D02*
X2340Y2144D01*
X2487Y2144D02*
X2491Y2144D01*
X2536Y2144D02*
X2540Y2144D01*
X2687Y2144D02*
X2691Y2144D01*
X286Y2143D02*
X290Y2143D01*
X438Y2143D02*
X442Y2143D01*
X486Y2143D02*
X490Y2143D01*
X638Y2143D02*
X642Y2143D01*
X686Y2143D02*
X690Y2143D01*
X838Y2143D02*
X842Y2143D01*
X886Y2143D02*
X890Y2143D01*
X1038Y2143D02*
X1042Y2143D01*
X1136Y2143D02*
X1140Y2143D01*
X1288Y2143D02*
X1292Y2143D01*
X1336Y2143D02*
X1340Y2143D01*
X1488Y2143D02*
X1491Y2143D01*
X1536Y2143D02*
X1540Y2143D01*
X1688Y2143D02*
X1691Y2143D01*
X1736Y2143D02*
X1740Y2143D01*
X1888Y2143D02*
X1891Y2143D01*
X1936Y2143D02*
X1940Y2143D01*
X2088Y2143D02*
X2091Y2143D01*
X2136Y2143D02*
X2140Y2143D01*
X2288Y2143D02*
X2291Y2143D01*
X2336Y2143D02*
X2340Y2143D01*
X2488Y2143D02*
X2491Y2143D01*
X2536Y2143D02*
X2540Y2143D01*
X2687Y2143D02*
X2691Y2143D01*
X286Y2142D02*
X290Y2142D01*
X438Y2142D02*
X442Y2142D01*
X486Y2142D02*
X490Y2142D01*
X638Y2142D02*
X642Y2142D01*
X686Y2142D02*
X690Y2142D01*
X838Y2142D02*
X842Y2142D01*
X886Y2142D02*
X890Y2142D01*
X1038Y2142D02*
X1042Y2142D01*
X1136Y2142D02*
X1140Y2142D01*
X1288Y2142D02*
X1292Y2142D01*
X1336Y2142D02*
X1340Y2142D01*
X1488Y2142D02*
X1492Y2142D01*
X1536Y2142D02*
X1540Y2142D01*
X1688Y2142D02*
X1692Y2142D01*
X1736Y2142D02*
X1740Y2142D01*
X1888Y2142D02*
X1892Y2142D01*
X1936Y2142D02*
X1939Y2142D01*
X2088Y2142D02*
X2092Y2142D01*
X2136Y2142D02*
X2139Y2142D01*
X2288Y2142D02*
X2292Y2142D01*
X2336Y2142D02*
X2339Y2142D01*
X2488Y2142D02*
X2491Y2142D01*
X2536Y2142D02*
X2539Y2142D01*
X2688Y2142D02*
X2691Y2142D01*
X286Y2141D02*
X290Y2141D01*
X438Y2141D02*
X442Y2141D01*
X486Y2141D02*
X490Y2141D01*
X638Y2141D02*
X642Y2141D01*
X686Y2141D02*
X690Y2141D01*
X838Y2141D02*
X842Y2141D01*
X886Y2141D02*
X890Y2141D01*
X1038Y2141D02*
X1042Y2141D01*
X1136Y2141D02*
X1139Y2141D01*
X1288Y2141D02*
X1292Y2141D01*
X1336Y2141D02*
X1339Y2141D01*
X1488Y2141D02*
X1492Y2141D01*
X1536Y2141D02*
X1539Y2141D01*
X1688Y2141D02*
X1692Y2141D01*
X1736Y2141D02*
X1739Y2141D01*
X1888Y2141D02*
X1892Y2141D01*
X1936Y2141D02*
X1939Y2141D01*
X2088Y2141D02*
X2092Y2141D01*
X2135Y2141D02*
X2139Y2141D01*
X2288Y2141D02*
X2292Y2141D01*
X2335Y2141D02*
X2339Y2141D01*
X2488Y2141D02*
X2492Y2141D01*
X2535Y2141D02*
X2539Y2141D01*
X2688Y2141D02*
X2692Y2141D01*
X286Y2140D02*
X290Y2140D01*
X438Y2140D02*
X442Y2140D01*
X486Y2140D02*
X489Y2140D01*
X638Y2140D02*
X642Y2140D01*
X686Y2140D02*
X689Y2140D01*
X838Y2140D02*
X842Y2140D01*
X886Y2140D02*
X889Y2140D01*
X1038Y2140D02*
X1042Y2140D01*
X1136Y2140D02*
X1139Y2140D01*
X1288Y2140D02*
X1292Y2140D01*
X1336Y2140D02*
X1339Y2140D01*
X1488Y2140D02*
X1492Y2140D01*
X1535Y2140D02*
X1539Y2140D01*
X1688Y2140D02*
X1692Y2140D01*
X1735Y2140D02*
X1739Y2140D01*
X1888Y2140D02*
X1892Y2140D01*
X1935Y2140D02*
X1939Y2140D01*
X2088Y2140D02*
X2092Y2140D01*
X2135Y2140D02*
X2139Y2140D01*
X2288Y2140D02*
X2292Y2140D01*
X2335Y2140D02*
X2339Y2140D01*
X2488Y2140D02*
X2492Y2140D01*
X2535Y2140D02*
X2539Y2140D01*
X2688Y2140D02*
X2692Y2140D01*
X286Y2139D02*
X289Y2139D01*
X438Y2139D02*
X442Y2139D01*
X486Y2139D02*
X489Y2139D01*
X638Y2139D02*
X642Y2139D01*
X686Y2139D02*
X689Y2139D01*
X838Y2139D02*
X842Y2139D01*
X885Y2139D02*
X889Y2139D01*
X1038Y2139D02*
X1042Y2139D01*
X1135Y2139D02*
X1139Y2139D01*
X1288Y2139D02*
X1292Y2139D01*
X1335Y2139D02*
X1339Y2139D01*
X1488Y2139D02*
X1492Y2139D01*
X1535Y2139D02*
X1539Y2139D01*
X1688Y2139D02*
X1692Y2139D01*
X1735Y2139D02*
X1739Y2139D01*
X1888Y2139D02*
X1892Y2139D01*
X1935Y2139D02*
X1939Y2139D01*
X2088Y2139D02*
X2092Y2139D01*
X2135Y2139D02*
X2139Y2139D01*
X2288Y2139D02*
X2292Y2139D01*
X2335Y2139D02*
X2339Y2139D01*
X2488Y2139D02*
X2492Y2139D01*
X2535Y2139D02*
X2539Y2139D01*
X2688Y2139D02*
X2692Y2139D01*
X285Y2138D02*
X289Y2138D01*
X438Y2138D02*
X442Y2138D01*
X485Y2138D02*
X489Y2138D01*
X638Y2138D02*
X642Y2138D01*
X685Y2138D02*
X689Y2138D01*
X838Y2138D02*
X842Y2138D01*
X885Y2138D02*
X889Y2138D01*
X1038Y2138D02*
X1042Y2138D01*
X1135Y2138D02*
X1139Y2138D01*
X1288Y2138D02*
X1292Y2138D01*
X1335Y2138D02*
X1339Y2138D01*
X1488Y2138D02*
X1492Y2138D01*
X1535Y2138D02*
X1539Y2138D01*
X1688Y2138D02*
X1692Y2138D01*
X1735Y2138D02*
X1739Y2138D01*
X1888Y2138D02*
X1892Y2138D01*
X1935Y2138D02*
X1939Y2138D01*
X2088Y2138D02*
X2092Y2138D01*
X2135Y2138D02*
X2139Y2138D01*
X2288Y2138D02*
X2292Y2138D01*
X2335Y2138D02*
X2339Y2138D01*
X2488Y2138D02*
X2492Y2138D01*
X2535Y2138D02*
X2539Y2138D01*
X2688Y2138D02*
X2692Y2138D01*
X285Y2137D02*
X289Y2137D01*
X438Y2137D02*
X442Y2137D01*
X485Y2137D02*
X489Y2137D01*
X638Y2137D02*
X642Y2137D01*
X685Y2137D02*
X689Y2137D01*
X838Y2137D02*
X842Y2137D01*
X885Y2137D02*
X889Y2137D01*
X1038Y2137D02*
X1042Y2137D01*
X1135Y2137D02*
X1139Y2137D01*
X1288Y2137D02*
X1292Y2137D01*
X1335Y2137D02*
X1339Y2137D01*
X1488Y2137D02*
X1492Y2137D01*
X1535Y2137D02*
X1539Y2137D01*
X1688Y2137D02*
X1692Y2137D01*
X1735Y2137D02*
X1739Y2137D01*
X1888Y2137D02*
X1892Y2137D01*
X1935Y2137D02*
X1939Y2137D01*
X2088Y2137D02*
X2092Y2137D01*
X2135Y2137D02*
X2139Y2137D01*
X2288Y2137D02*
X2292Y2137D01*
X2335Y2137D02*
X2339Y2137D01*
X2488Y2137D02*
X2492Y2137D01*
X2535Y2137D02*
X2539Y2137D01*
X2688Y2137D02*
X2692Y2137D01*
X285Y2136D02*
X289Y2136D01*
X439Y2136D02*
X442Y2136D01*
X485Y2136D02*
X489Y2136D01*
X639Y2136D02*
X642Y2136D01*
X685Y2136D02*
X689Y2136D01*
X839Y2136D02*
X842Y2136D01*
X885Y2136D02*
X889Y2136D01*
X1038Y2136D02*
X1042Y2136D01*
X1135Y2136D02*
X1139Y2136D01*
X1288Y2136D02*
X1292Y2136D01*
X1335Y2136D02*
X1339Y2136D01*
X1488Y2136D02*
X1492Y2136D01*
X1535Y2136D02*
X1539Y2136D01*
X1688Y2136D02*
X1692Y2136D01*
X1735Y2136D02*
X1739Y2136D01*
X1888Y2136D02*
X1892Y2136D01*
X1935Y2136D02*
X1939Y2136D01*
X2088Y2136D02*
X2092Y2136D01*
X2135Y2136D02*
X2139Y2136D01*
X2288Y2136D02*
X2292Y2136D01*
X2335Y2136D02*
X2339Y2136D01*
X2488Y2136D02*
X2492Y2136D01*
X2535Y2136D02*
X2539Y2136D01*
X2688Y2136D02*
X2692Y2136D01*
X285Y2135D02*
X289Y2135D01*
X439Y2135D02*
X442Y2135D01*
X485Y2135D02*
X489Y2135D01*
X639Y2135D02*
X642Y2135D01*
X685Y2135D02*
X689Y2135D01*
X839Y2135D02*
X842Y2135D01*
X885Y2135D02*
X889Y2135D01*
X1039Y2135D02*
X1042Y2135D01*
X1135Y2135D02*
X1139Y2135D01*
X1289Y2135D02*
X1292Y2135D01*
X1335Y2135D02*
X1339Y2135D01*
X1489Y2135D02*
X1492Y2135D01*
X1535Y2135D02*
X1539Y2135D01*
X1688Y2135D02*
X1692Y2135D01*
X1735Y2135D02*
X1739Y2135D01*
X1888Y2135D02*
X1892Y2135D01*
X1935Y2135D02*
X1939Y2135D01*
X2088Y2135D02*
X2092Y2135D01*
X2135Y2135D02*
X2139Y2135D01*
X2288Y2135D02*
X2292Y2135D01*
X2335Y2135D02*
X2339Y2135D01*
X2488Y2135D02*
X2492Y2135D01*
X2535Y2135D02*
X2539Y2135D01*
X2688Y2135D02*
X2692Y2135D01*
X285Y2134D02*
X289Y2134D01*
X439Y2134D02*
X442Y2134D01*
X485Y2134D02*
X489Y2134D01*
X639Y2134D02*
X642Y2134D01*
X685Y2134D02*
X689Y2134D01*
X839Y2134D02*
X842Y2134D01*
X885Y2134D02*
X889Y2134D01*
X1039Y2134D02*
X1042Y2134D01*
X1135Y2134D02*
X1139Y2134D01*
X1289Y2134D02*
X1292Y2134D01*
X1335Y2134D02*
X1339Y2134D01*
X1489Y2134D02*
X1492Y2134D01*
X1535Y2134D02*
X1539Y2134D01*
X1688Y2134D02*
X1692Y2134D01*
X1735Y2134D02*
X1739Y2134D01*
X1888Y2134D02*
X1892Y2134D01*
X1935Y2134D02*
X1939Y2134D01*
X2088Y2134D02*
X2092Y2134D01*
X2135Y2134D02*
X2139Y2134D01*
X2288Y2134D02*
X2292Y2134D01*
X2335Y2134D02*
X2339Y2134D01*
X2488Y2134D02*
X2492Y2134D01*
X2535Y2134D02*
X2539Y2134D01*
X2688Y2134D02*
X2692Y2134D01*
X285Y2133D02*
X289Y2133D01*
X439Y2133D02*
X442Y2133D01*
X485Y2133D02*
X489Y2133D01*
X639Y2133D02*
X642Y2133D01*
X685Y2133D02*
X689Y2133D01*
X839Y2133D02*
X842Y2133D01*
X885Y2133D02*
X889Y2133D01*
X1039Y2133D02*
X1042Y2133D01*
X1135Y2133D02*
X1139Y2133D01*
X1289Y2133D02*
X1292Y2133D01*
X1335Y2133D02*
X1339Y2133D01*
X1489Y2133D02*
X1492Y2133D01*
X1535Y2133D02*
X1539Y2133D01*
X1688Y2133D02*
X1692Y2133D01*
X1735Y2133D02*
X1739Y2133D01*
X1888Y2133D02*
X1892Y2133D01*
X1935Y2133D02*
X1939Y2133D01*
X2088Y2133D02*
X2092Y2133D01*
X2135Y2133D02*
X2139Y2133D01*
X2288Y2133D02*
X2292Y2133D01*
X2335Y2133D02*
X2339Y2133D01*
X2488Y2133D02*
X2492Y2133D01*
X2535Y2133D02*
X2539Y2133D01*
X2688Y2133D02*
X2692Y2133D01*
X285Y2132D02*
X289Y2132D01*
X439Y2132D02*
X442Y2132D01*
X485Y2132D02*
X489Y2132D01*
X639Y2132D02*
X642Y2132D01*
X685Y2132D02*
X689Y2132D01*
X839Y2132D02*
X842Y2132D01*
X885Y2132D02*
X889Y2132D01*
X1039Y2132D02*
X1042Y2132D01*
X1135Y2132D02*
X1139Y2132D01*
X1289Y2132D02*
X1292Y2132D01*
X1335Y2132D02*
X1339Y2132D01*
X1489Y2132D02*
X1492Y2132D01*
X1535Y2132D02*
X1539Y2132D01*
X1688Y2132D02*
X1692Y2132D01*
X1735Y2132D02*
X1739Y2132D01*
X1888Y2132D02*
X1892Y2132D01*
X1935Y2132D02*
X1939Y2132D01*
X2088Y2132D02*
X2092Y2132D01*
X2135Y2132D02*
X2139Y2132D01*
X2288Y2132D02*
X2292Y2132D01*
X2335Y2132D02*
X2339Y2132D01*
X2488Y2132D02*
X2492Y2132D01*
X2535Y2132D02*
X2539Y2132D01*
X2688Y2132D02*
X2692Y2132D01*
X285Y2131D02*
X289Y2131D01*
X439Y2131D02*
X442Y2131D01*
X485Y2131D02*
X489Y2131D01*
X639Y2131D02*
X642Y2131D01*
X685Y2131D02*
X689Y2131D01*
X839Y2131D02*
X842Y2131D01*
X885Y2131D02*
X889Y2131D01*
X1039Y2131D02*
X1042Y2131D01*
X1135Y2131D02*
X1139Y2131D01*
X1289Y2131D02*
X1292Y2131D01*
X1335Y2131D02*
X1339Y2131D01*
X1489Y2131D02*
X1492Y2131D01*
X1535Y2131D02*
X1539Y2131D01*
X1688Y2131D02*
X1692Y2131D01*
X1735Y2131D02*
X1739Y2131D01*
X1888Y2131D02*
X1892Y2131D01*
X1935Y2131D02*
X1939Y2131D01*
X2088Y2131D02*
X2092Y2131D01*
X2135Y2131D02*
X2139Y2131D01*
X2288Y2131D02*
X2292Y2131D01*
X2335Y2131D02*
X2339Y2131D01*
X2488Y2131D02*
X2492Y2131D01*
X2535Y2131D02*
X2539Y2131D01*
X2688Y2131D02*
X2692Y2131D01*
X285Y2130D02*
X289Y2130D01*
X439Y2130D02*
X442Y2130D01*
X485Y2130D02*
X489Y2130D01*
X639Y2130D02*
X642Y2130D01*
X685Y2130D02*
X689Y2130D01*
X839Y2130D02*
X842Y2130D01*
X885Y2130D02*
X889Y2130D01*
X1039Y2130D02*
X1042Y2130D01*
X1135Y2130D02*
X1139Y2130D01*
X1289Y2130D02*
X1292Y2130D01*
X1335Y2130D02*
X1339Y2130D01*
X1488Y2130D02*
X1492Y2130D01*
X1535Y2130D02*
X1539Y2130D01*
X1688Y2130D02*
X1692Y2130D01*
X1735Y2130D02*
X1739Y2130D01*
X1888Y2130D02*
X1892Y2130D01*
X1935Y2130D02*
X1939Y2130D01*
X2088Y2130D02*
X2092Y2130D01*
X2135Y2130D02*
X2139Y2130D01*
X2288Y2130D02*
X2292Y2130D01*
X2335Y2130D02*
X2339Y2130D01*
X2488Y2130D02*
X2492Y2130D01*
X2535Y2130D02*
X2539Y2130D01*
X2688Y2130D02*
X2692Y2130D01*
X285Y2129D02*
X289Y2129D01*
X439Y2129D02*
X442Y2129D01*
X485Y2129D02*
X489Y2129D01*
X639Y2129D02*
X642Y2129D01*
X685Y2129D02*
X689Y2129D01*
X839Y2129D02*
X842Y2129D01*
X885Y2129D02*
X889Y2129D01*
X1039Y2129D02*
X1042Y2129D01*
X1135Y2129D02*
X1139Y2129D01*
X1289Y2129D02*
X1292Y2129D01*
X1335Y2129D02*
X1339Y2129D01*
X1488Y2129D02*
X1492Y2129D01*
X1535Y2129D02*
X1539Y2129D01*
X1688Y2129D02*
X1692Y2129D01*
X1735Y2129D02*
X1739Y2129D01*
X1888Y2129D02*
X1892Y2129D01*
X1935Y2129D02*
X1939Y2129D01*
X2088Y2129D02*
X2092Y2129D01*
X2135Y2129D02*
X2139Y2129D01*
X2288Y2129D02*
X2292Y2129D01*
X2335Y2129D02*
X2339Y2129D01*
X2488Y2129D02*
X2492Y2129D01*
X2535Y2129D02*
X2539Y2129D01*
X2688Y2129D02*
X2692Y2129D01*
X285Y2128D02*
X289Y2128D01*
X439Y2128D02*
X442Y2128D01*
X485Y2128D02*
X489Y2128D01*
X639Y2128D02*
X642Y2128D01*
X685Y2128D02*
X689Y2128D01*
X839Y2128D02*
X842Y2128D01*
X885Y2128D02*
X889Y2128D01*
X1039Y2128D02*
X1042Y2128D01*
X1135Y2128D02*
X1139Y2128D01*
X1289Y2128D02*
X1292Y2128D01*
X1335Y2128D02*
X1339Y2128D01*
X1488Y2128D02*
X1492Y2128D01*
X1535Y2128D02*
X1539Y2128D01*
X1688Y2128D02*
X1692Y2128D01*
X1735Y2128D02*
X1739Y2128D01*
X1888Y2128D02*
X1892Y2128D01*
X1935Y2128D02*
X1939Y2128D01*
X2088Y2128D02*
X2092Y2128D01*
X2135Y2128D02*
X2139Y2128D01*
X2288Y2128D02*
X2292Y2128D01*
X2335Y2128D02*
X2339Y2128D01*
X2488Y2128D02*
X2492Y2128D01*
X2535Y2128D02*
X2539Y2128D01*
X2688Y2128D02*
X2692Y2128D01*
X285Y2127D02*
X289Y2127D01*
X439Y2127D02*
X442Y2127D01*
X485Y2127D02*
X489Y2127D01*
X639Y2127D02*
X642Y2127D01*
X685Y2127D02*
X689Y2127D01*
X839Y2127D02*
X842Y2127D01*
X885Y2127D02*
X889Y2127D01*
X1038Y2127D02*
X1042Y2127D01*
X1135Y2127D02*
X1139Y2127D01*
X1288Y2127D02*
X1292Y2127D01*
X1335Y2127D02*
X1339Y2127D01*
X1488Y2127D02*
X1492Y2127D01*
X1535Y2127D02*
X1539Y2127D01*
X1688Y2127D02*
X1692Y2127D01*
X1735Y2127D02*
X1739Y2127D01*
X1888Y2127D02*
X1892Y2127D01*
X1935Y2127D02*
X1939Y2127D01*
X2088Y2127D02*
X2092Y2127D01*
X2135Y2127D02*
X2139Y2127D01*
X2288Y2127D02*
X2292Y2127D01*
X2335Y2127D02*
X2339Y2127D01*
X2488Y2127D02*
X2492Y2127D01*
X2535Y2127D02*
X2539Y2127D01*
X2688Y2127D02*
X2692Y2127D01*
X285Y2126D02*
X289Y2126D01*
X438Y2126D02*
X442Y2126D01*
X485Y2126D02*
X489Y2126D01*
X638Y2126D02*
X642Y2126D01*
X685Y2126D02*
X689Y2126D01*
X838Y2126D02*
X842Y2126D01*
X885Y2126D02*
X889Y2126D01*
X1038Y2126D02*
X1042Y2126D01*
X1135Y2126D02*
X1139Y2126D01*
X1288Y2126D02*
X1292Y2126D01*
X1335Y2126D02*
X1339Y2126D01*
X1488Y2126D02*
X1492Y2126D01*
X1535Y2126D02*
X1539Y2126D01*
X1688Y2126D02*
X1692Y2126D01*
X1735Y2126D02*
X1739Y2126D01*
X1888Y2126D02*
X1892Y2126D01*
X1935Y2126D02*
X1939Y2126D01*
X2088Y2126D02*
X2092Y2126D01*
X2135Y2126D02*
X2139Y2126D01*
X2288Y2126D02*
X2292Y2126D01*
X2335Y2126D02*
X2339Y2126D01*
X2488Y2126D02*
X2492Y2126D01*
X2535Y2126D02*
X2539Y2126D01*
X2688Y2126D02*
X2692Y2126D01*
X286Y2125D02*
X289Y2125D01*
X438Y2125D02*
X442Y2125D01*
X486Y2125D02*
X489Y2125D01*
X638Y2125D02*
X642Y2125D01*
X685Y2125D02*
X689Y2125D01*
X838Y2125D02*
X842Y2125D01*
X885Y2125D02*
X889Y2125D01*
X1038Y2125D02*
X1042Y2125D01*
X1135Y2125D02*
X1139Y2125D01*
X1288Y2125D02*
X1292Y2125D01*
X1335Y2125D02*
X1339Y2125D01*
X1488Y2125D02*
X1492Y2125D01*
X1535Y2125D02*
X1539Y2125D01*
X1688Y2125D02*
X1692Y2125D01*
X1735Y2125D02*
X1739Y2125D01*
X1888Y2125D02*
X1892Y2125D01*
X1935Y2125D02*
X1939Y2125D01*
X2088Y2125D02*
X2092Y2125D01*
X2135Y2125D02*
X2139Y2125D01*
X2288Y2125D02*
X2292Y2125D01*
X2335Y2125D02*
X2339Y2125D01*
X2488Y2125D02*
X2492Y2125D01*
X2535Y2125D02*
X2539Y2125D01*
X2688Y2125D02*
X2692Y2125D01*
X286Y2124D02*
X289Y2124D01*
X438Y2124D02*
X442Y2124D01*
X486Y2124D02*
X489Y2124D01*
X638Y2124D02*
X642Y2124D01*
X686Y2124D02*
X689Y2124D01*
X838Y2124D02*
X842Y2124D01*
X886Y2124D02*
X889Y2124D01*
X1038Y2124D02*
X1042Y2124D01*
X1136Y2124D02*
X1139Y2124D01*
X1288Y2124D02*
X1292Y2124D01*
X1335Y2124D02*
X1339Y2124D01*
X1488Y2124D02*
X1492Y2124D01*
X1535Y2124D02*
X1539Y2124D01*
X1688Y2124D02*
X1692Y2124D01*
X1735Y2124D02*
X1739Y2124D01*
X1888Y2124D02*
X1892Y2124D01*
X1935Y2124D02*
X1939Y2124D01*
X2088Y2124D02*
X2092Y2124D01*
X2135Y2124D02*
X2139Y2124D01*
X2288Y2124D02*
X2292Y2124D01*
X2335Y2124D02*
X2339Y2124D01*
X2488Y2124D02*
X2492Y2124D01*
X2535Y2124D02*
X2539Y2124D01*
X2688Y2124D02*
X2692Y2124D01*
X286Y2123D02*
X290Y2123D01*
X438Y2123D02*
X442Y2123D01*
X486Y2123D02*
X489Y2123D01*
X638Y2123D02*
X642Y2123D01*
X686Y2123D02*
X689Y2123D01*
X838Y2123D02*
X842Y2123D01*
X886Y2123D02*
X889Y2123D01*
X1038Y2123D02*
X1042Y2123D01*
X1136Y2123D02*
X1139Y2123D01*
X1288Y2123D02*
X1292Y2123D01*
X1336Y2123D02*
X1339Y2123D01*
X1488Y2123D02*
X1492Y2123D01*
X1536Y2123D02*
X1539Y2123D01*
X1688Y2123D02*
X1692Y2123D01*
X1735Y2123D02*
X1739Y2123D01*
X1888Y2123D02*
X1892Y2123D01*
X1935Y2123D02*
X1939Y2123D01*
X2088Y2123D02*
X2092Y2123D01*
X2135Y2123D02*
X2139Y2123D01*
X2288Y2123D02*
X2292Y2123D01*
X2335Y2123D02*
X2339Y2123D01*
X2488Y2123D02*
X2492Y2123D01*
X2535Y2123D02*
X2539Y2123D01*
X2688Y2123D02*
X2692Y2123D01*
X286Y2122D02*
X290Y2122D01*
X438Y2122D02*
X442Y2122D01*
X486Y2122D02*
X490Y2122D01*
X638Y2122D02*
X642Y2122D01*
X686Y2122D02*
X690Y2122D01*
X838Y2122D02*
X842Y2122D01*
X886Y2122D02*
X890Y2122D01*
X1038Y2122D02*
X1042Y2122D01*
X1136Y2122D02*
X1139Y2122D01*
X1288Y2122D02*
X1292Y2122D01*
X1336Y2122D02*
X1339Y2122D01*
X1488Y2122D02*
X1492Y2122D01*
X1536Y2122D02*
X1539Y2122D01*
X1688Y2122D02*
X1692Y2122D01*
X1736Y2122D02*
X1739Y2122D01*
X1888Y2122D02*
X1892Y2122D01*
X1936Y2122D02*
X1939Y2122D01*
X2088Y2122D02*
X2092Y2122D01*
X2136Y2122D02*
X2139Y2122D01*
X2288Y2122D02*
X2292Y2122D01*
X2335Y2122D02*
X2339Y2122D01*
X2488Y2122D02*
X2492Y2122D01*
X2535Y2122D02*
X2539Y2122D01*
X2688Y2122D02*
X2692Y2122D01*
X286Y2121D02*
X290Y2121D01*
X438Y2121D02*
X442Y2121D01*
X486Y2121D02*
X490Y2121D01*
X638Y2121D02*
X642Y2121D01*
X686Y2121D02*
X690Y2121D01*
X838Y2121D02*
X842Y2121D01*
X886Y2121D02*
X890Y2121D01*
X1038Y2121D02*
X1042Y2121D01*
X1136Y2121D02*
X1140Y2121D01*
X1288Y2121D02*
X1292Y2121D01*
X1336Y2121D02*
X1340Y2121D01*
X1488Y2121D02*
X1492Y2121D01*
X1536Y2121D02*
X1540Y2121D01*
X1688Y2121D02*
X1692Y2121D01*
X1736Y2121D02*
X1739Y2121D01*
X1888Y2121D02*
X1892Y2121D01*
X1936Y2121D02*
X1939Y2121D01*
X2088Y2121D02*
X2092Y2121D01*
X2136Y2121D02*
X2139Y2121D01*
X2288Y2121D02*
X2292Y2121D01*
X2336Y2121D02*
X2339Y2121D01*
X2488Y2121D02*
X2491Y2121D01*
X2536Y2121D02*
X2539Y2121D01*
X2688Y2121D02*
X2691Y2121D01*
X286Y2120D02*
X290Y2120D01*
X438Y2120D02*
X442Y2120D01*
X486Y2120D02*
X490Y2120D01*
X638Y2120D02*
X642Y2120D01*
X686Y2120D02*
X690Y2120D01*
X838Y2120D02*
X842Y2120D01*
X886Y2120D02*
X890Y2120D01*
X1038Y2120D02*
X1042Y2120D01*
X1136Y2120D02*
X1140Y2120D01*
X1288Y2120D02*
X1292Y2120D01*
X1336Y2120D02*
X1340Y2120D01*
X1488Y2120D02*
X1492Y2120D01*
X1536Y2120D02*
X1540Y2120D01*
X1688Y2120D02*
X1692Y2120D01*
X1736Y2120D02*
X1740Y2120D01*
X1888Y2120D02*
X1891Y2120D01*
X1936Y2120D02*
X1940Y2120D01*
X2088Y2120D02*
X2091Y2120D01*
X2136Y2120D02*
X2140Y2120D01*
X2287Y2120D02*
X2291Y2120D01*
X2336Y2120D02*
X2340Y2120D01*
X2487Y2120D02*
X2491Y2120D01*
X2536Y2120D02*
X2540Y2120D01*
X2687Y2120D02*
X2691Y2120D01*
X286Y2119D02*
X290Y2119D01*
X438Y2119D02*
X442Y2119D01*
X486Y2119D02*
X490Y2119D01*
X638Y2119D02*
X642Y2119D01*
X686Y2119D02*
X690Y2119D01*
X838Y2119D02*
X841Y2119D01*
X886Y2119D02*
X890Y2119D01*
X1037Y2119D02*
X1041Y2119D01*
X1136Y2119D02*
X1140Y2119D01*
X1287Y2119D02*
X1291Y2119D01*
X1336Y2119D02*
X1340Y2119D01*
X1487Y2119D02*
X1491Y2119D01*
X1536Y2119D02*
X1540Y2119D01*
X1687Y2119D02*
X1691Y2119D01*
X1736Y2119D02*
X1740Y2119D01*
X1887Y2119D02*
X1891Y2119D01*
X1936Y2119D02*
X1940Y2119D01*
X2087Y2119D02*
X2091Y2119D01*
X2136Y2119D02*
X2140Y2119D01*
X2287Y2119D02*
X2291Y2119D01*
X2336Y2119D02*
X2340Y2119D01*
X2487Y2119D02*
X2491Y2119D01*
X2536Y2119D02*
X2540Y2119D01*
X2687Y2119D02*
X2691Y2119D01*
X286Y2118D02*
X290Y2118D01*
X437Y2118D02*
X441Y2118D01*
X486Y2118D02*
X490Y2118D01*
X637Y2118D02*
X641Y2118D01*
X686Y2118D02*
X690Y2118D01*
X837Y2118D02*
X841Y2118D01*
X886Y2118D02*
X890Y2118D01*
X1037Y2118D02*
X1041Y2118D01*
X1136Y2118D02*
X1140Y2118D01*
X1287Y2118D02*
X1291Y2118D01*
X1336Y2118D02*
X1340Y2118D01*
X1487Y2118D02*
X1491Y2118D01*
X1536Y2118D02*
X1540Y2118D01*
X1687Y2118D02*
X1691Y2118D01*
X1736Y2118D02*
X1740Y2118D01*
X1887Y2118D02*
X1891Y2118D01*
X1936Y2118D02*
X1940Y2118D01*
X2087Y2118D02*
X2091Y2118D01*
X2136Y2118D02*
X2140Y2118D01*
X2287Y2118D02*
X2291Y2118D01*
X2336Y2118D02*
X2340Y2118D01*
X2487Y2118D02*
X2491Y2118D01*
X2536Y2118D02*
X2540Y2118D01*
X2687Y2118D02*
X2691Y2118D01*
X287Y2117D02*
X290Y2117D01*
X437Y2117D02*
X441Y2117D01*
X487Y2117D02*
X490Y2117D01*
X637Y2117D02*
X641Y2117D01*
X687Y2117D02*
X690Y2117D01*
X837Y2117D02*
X841Y2117D01*
X887Y2117D02*
X890Y2117D01*
X1037Y2117D02*
X1041Y2117D01*
X1136Y2117D02*
X1140Y2117D01*
X1287Y2117D02*
X1291Y2117D01*
X1336Y2117D02*
X1340Y2117D01*
X1487Y2117D02*
X1491Y2117D01*
X1536Y2117D02*
X1540Y2117D01*
X1687Y2117D02*
X1691Y2117D01*
X1736Y2117D02*
X1740Y2117D01*
X1887Y2117D02*
X1891Y2117D01*
X1936Y2117D02*
X1940Y2117D01*
X2087Y2117D02*
X2091Y2117D01*
X2136Y2117D02*
X2140Y2117D01*
X2287Y2117D02*
X2291Y2117D01*
X2336Y2117D02*
X2340Y2117D01*
X2487Y2117D02*
X2491Y2117D01*
X2536Y2117D02*
X2540Y2117D01*
X2687Y2117D02*
X2691Y2117D01*
X287Y2116D02*
X291Y2116D01*
X437Y2116D02*
X441Y2116D01*
X487Y2116D02*
X491Y2116D01*
X637Y2116D02*
X641Y2116D01*
X687Y2116D02*
X691Y2116D01*
X837Y2116D02*
X841Y2116D01*
X887Y2116D02*
X891Y2116D01*
X1037Y2116D02*
X1041Y2116D01*
X1137Y2116D02*
X1141Y2116D01*
X1287Y2116D02*
X1291Y2116D01*
X1337Y2116D02*
X1340Y2116D01*
X1487Y2116D02*
X1491Y2116D01*
X1537Y2116D02*
X1540Y2116D01*
X1687Y2116D02*
X1691Y2116D01*
X1737Y2116D02*
X1740Y2116D01*
X1887Y2116D02*
X1891Y2116D01*
X1937Y2116D02*
X1940Y2116D01*
X2087Y2116D02*
X2091Y2116D01*
X2137Y2116D02*
X2140Y2116D01*
X2287Y2116D02*
X2291Y2116D01*
X2336Y2116D02*
X2340Y2116D01*
X2487Y2116D02*
X2491Y2116D01*
X2536Y2116D02*
X2540Y2116D01*
X2687Y2116D02*
X2691Y2116D01*
X287Y2115D02*
X291Y2115D01*
X437Y2115D02*
X441Y2115D01*
X487Y2115D02*
X491Y2115D01*
X637Y2115D02*
X641Y2115D01*
X687Y2115D02*
X691Y2115D01*
X837Y2115D02*
X841Y2115D01*
X887Y2115D02*
X891Y2115D01*
X1037Y2115D02*
X1041Y2115D01*
X1137Y2115D02*
X1141Y2115D01*
X1287Y2115D02*
X1291Y2115D01*
X1337Y2115D02*
X1341Y2115D01*
X1487Y2115D02*
X1491Y2115D01*
X1537Y2115D02*
X1541Y2115D01*
X1687Y2115D02*
X1691Y2115D01*
X1737Y2115D02*
X1741Y2115D01*
X1887Y2115D02*
X1891Y2115D01*
X1937Y2115D02*
X1941Y2115D01*
X2087Y2115D02*
X2090Y2115D01*
X2137Y2115D02*
X2141Y2115D01*
X2286Y2115D02*
X2290Y2115D01*
X2337Y2115D02*
X2341Y2115D01*
X2486Y2115D02*
X2490Y2115D01*
X2537Y2115D02*
X2540Y2115D01*
X2686Y2115D02*
X2690Y2115D01*
X287Y2114D02*
X291Y2114D01*
X437Y2114D02*
X441Y2114D01*
X487Y2114D02*
X491Y2114D01*
X637Y2114D02*
X641Y2114D01*
X687Y2114D02*
X691Y2114D01*
X837Y2114D02*
X841Y2114D01*
X887Y2114D02*
X891Y2114D01*
X1036Y2114D02*
X1040Y2114D01*
X1137Y2114D02*
X1141Y2114D01*
X1286Y2114D02*
X1290Y2114D01*
X1337Y2114D02*
X1341Y2114D01*
X1486Y2114D02*
X1490Y2114D01*
X1537Y2114D02*
X1541Y2114D01*
X1686Y2114D02*
X1690Y2114D01*
X1737Y2114D02*
X1741Y2114D01*
X1886Y2114D02*
X1890Y2114D01*
X1937Y2114D02*
X1941Y2114D01*
X2086Y2114D02*
X2090Y2114D01*
X2137Y2114D02*
X2141Y2114D01*
X2286Y2114D02*
X2290Y2114D01*
X2337Y2114D02*
X2341Y2114D01*
X2486Y2114D02*
X2490Y2114D01*
X2537Y2114D02*
X2541Y2114D01*
X2686Y2114D02*
X2690Y2114D01*
X287Y2113D02*
X291Y2113D01*
X436Y2113D02*
X440Y2113D01*
X487Y2113D02*
X491Y2113D01*
X636Y2113D02*
X640Y2113D01*
X687Y2113D02*
X691Y2113D01*
X836Y2113D02*
X840Y2113D01*
X887Y2113D02*
X891Y2113D01*
X1036Y2113D02*
X1040Y2113D01*
X1137Y2113D02*
X1141Y2113D01*
X1286Y2113D02*
X1290Y2113D01*
X1337Y2113D02*
X1341Y2113D01*
X1486Y2113D02*
X1490Y2113D01*
X1537Y2113D02*
X1541Y2113D01*
X1686Y2113D02*
X1690Y2113D01*
X1737Y2113D02*
X1741Y2113D01*
X1886Y2113D02*
X1890Y2113D01*
X1937Y2113D02*
X1941Y2113D01*
X2086Y2113D02*
X2090Y2113D01*
X2137Y2113D02*
X2141Y2113D01*
X2286Y2113D02*
X2290Y2113D01*
X2337Y2113D02*
X2341Y2113D01*
X2486Y2113D02*
X2490Y2113D01*
X2537Y2113D02*
X2541Y2113D01*
X2686Y2113D02*
X2690Y2113D01*
X288Y2112D02*
X292Y2112D01*
X436Y2112D02*
X440Y2112D01*
X488Y2112D02*
X492Y2112D01*
X636Y2112D02*
X640Y2112D01*
X688Y2112D02*
X692Y2112D01*
X836Y2112D02*
X840Y2112D01*
X888Y2112D02*
X892Y2112D01*
X1036Y2112D02*
X1040Y2112D01*
X1138Y2112D02*
X1142Y2112D01*
X1286Y2112D02*
X1290Y2112D01*
X1338Y2112D02*
X1341Y2112D01*
X1486Y2112D02*
X1490Y2112D01*
X1537Y2112D02*
X1541Y2112D01*
X1686Y2112D02*
X1690Y2112D01*
X1737Y2112D02*
X1741Y2112D01*
X1886Y2112D02*
X1890Y2112D01*
X1937Y2112D02*
X1941Y2112D01*
X2086Y2112D02*
X2090Y2112D01*
X2137Y2112D02*
X2141Y2112D01*
X2286Y2112D02*
X2290Y2112D01*
X2337Y2112D02*
X2341Y2112D01*
X2486Y2112D02*
X2490Y2112D01*
X2537Y2112D02*
X2541Y2112D01*
X2686Y2112D02*
X2690Y2112D01*
X288Y2111D02*
X292Y2111D01*
X436Y2111D02*
X440Y2111D01*
X488Y2111D02*
X492Y2111D01*
X636Y2111D02*
X640Y2111D01*
X688Y2111D02*
X692Y2111D01*
X836Y2111D02*
X840Y2111D01*
X888Y2111D02*
X892Y2111D01*
X1036Y2111D02*
X1040Y2111D01*
X1138Y2111D02*
X1142Y2111D01*
X1286Y2111D02*
X1290Y2111D01*
X1338Y2111D02*
X1342Y2111D01*
X1486Y2111D02*
X1490Y2111D01*
X1538Y2111D02*
X1542Y2111D01*
X1685Y2111D02*
X1690Y2111D01*
X1738Y2111D02*
X1742Y2111D01*
X1885Y2111D02*
X1890Y2111D01*
X1938Y2111D02*
X1942Y2111D01*
X2085Y2111D02*
X2090Y2111D01*
X2138Y2111D02*
X2142Y2111D01*
X2285Y2111D02*
X2290Y2111D01*
X2338Y2111D02*
X2342Y2111D01*
X2485Y2111D02*
X2490Y2111D01*
X2538Y2111D02*
X2542Y2111D01*
X2685Y2111D02*
X2689Y2111D01*
X288Y2110D02*
X292Y2110D01*
X435Y2110D02*
X440Y2110D01*
X488Y2110D02*
X492Y2110D01*
X635Y2110D02*
X640Y2110D01*
X688Y2110D02*
X692Y2110D01*
X835Y2110D02*
X840Y2110D01*
X888Y2110D02*
X892Y2110D01*
X1035Y2110D02*
X1039Y2110D01*
X1138Y2110D02*
X1142Y2110D01*
X1285Y2110D02*
X1289Y2110D01*
X1338Y2110D02*
X1342Y2110D01*
X1485Y2110D02*
X1489Y2110D01*
X1538Y2110D02*
X1542Y2110D01*
X1685Y2110D02*
X1689Y2110D01*
X1738Y2110D02*
X1742Y2110D01*
X1885Y2110D02*
X1889Y2110D01*
X1938Y2110D02*
X1942Y2110D01*
X2085Y2110D02*
X2089Y2110D01*
X2138Y2110D02*
X2142Y2110D01*
X2285Y2110D02*
X2289Y2110D01*
X2338Y2110D02*
X2342Y2110D01*
X2485Y2110D02*
X2489Y2110D01*
X2538Y2110D02*
X2542Y2110D01*
X2685Y2110D02*
X2689Y2110D01*
X289Y2109D02*
X293Y2109D01*
X435Y2109D02*
X439Y2109D01*
X489Y2109D02*
X493Y2109D01*
X635Y2109D02*
X639Y2109D01*
X688Y2109D02*
X692Y2109D01*
X835Y2109D02*
X839Y2109D01*
X888Y2109D02*
X892Y2109D01*
X1035Y2109D02*
X1039Y2109D01*
X1138Y2109D02*
X1142Y2109D01*
X1285Y2109D02*
X1289Y2109D01*
X1338Y2109D02*
X1342Y2109D01*
X1485Y2109D02*
X1489Y2109D01*
X1538Y2109D02*
X1542Y2109D01*
X1685Y2109D02*
X1689Y2109D01*
X1738Y2109D02*
X1742Y2109D01*
X1885Y2109D02*
X1889Y2109D01*
X1938Y2109D02*
X1942Y2109D01*
X2085Y2109D02*
X2089Y2109D01*
X2138Y2109D02*
X2142Y2109D01*
X2285Y2109D02*
X2289Y2109D01*
X2338Y2109D02*
X2342Y2109D01*
X2485Y2109D02*
X2489Y2109D01*
X2538Y2109D02*
X2542Y2109D01*
X2685Y2109D02*
X2689Y2109D01*
X289Y2108D02*
X293Y2108D01*
X435Y2108D02*
X439Y2108D01*
X489Y2108D02*
X493Y2108D01*
X635Y2108D02*
X639Y2108D01*
X689Y2108D02*
X693Y2108D01*
X835Y2108D02*
X839Y2108D01*
X889Y2108D02*
X893Y2108D01*
X1035Y2108D02*
X1039Y2108D01*
X1139Y2108D02*
X1143Y2108D01*
X1285Y2108D02*
X1289Y2108D01*
X1339Y2108D02*
X1343Y2108D01*
X1485Y2108D02*
X1489Y2108D01*
X1539Y2108D02*
X1543Y2108D01*
X1685Y2108D02*
X1689Y2108D01*
X1739Y2108D02*
X1743Y2108D01*
X1885Y2108D02*
X1889Y2108D01*
X1939Y2108D02*
X1943Y2108D01*
X2084Y2108D02*
X2089Y2108D01*
X2139Y2108D02*
X2143Y2108D01*
X2284Y2108D02*
X2289Y2108D01*
X2339Y2108D02*
X2342Y2108D01*
X2484Y2108D02*
X2489Y2108D01*
X2538Y2108D02*
X2542Y2108D01*
X2684Y2108D02*
X2689Y2108D01*
X289Y2107D02*
X293Y2107D01*
X434Y2107D02*
X439Y2107D01*
X489Y2107D02*
X493Y2107D01*
X634Y2107D02*
X639Y2107D01*
X689Y2107D02*
X693Y2107D01*
X834Y2107D02*
X839Y2107D01*
X889Y2107D02*
X893Y2107D01*
X1034Y2107D02*
X1039Y2107D01*
X1139Y2107D02*
X1143Y2107D01*
X1284Y2107D02*
X1289Y2107D01*
X1339Y2107D02*
X1343Y2107D01*
X1484Y2107D02*
X1488Y2107D01*
X1539Y2107D02*
X1543Y2107D01*
X1684Y2107D02*
X1688Y2107D01*
X1739Y2107D02*
X1743Y2107D01*
X1884Y2107D02*
X1888Y2107D01*
X1939Y2107D02*
X1943Y2107D01*
X2084Y2107D02*
X2088Y2107D01*
X2139Y2107D02*
X2143Y2107D01*
X2284Y2107D02*
X2288Y2107D01*
X2339Y2107D02*
X2343Y2107D01*
X2484Y2107D02*
X2488Y2107D01*
X2539Y2107D02*
X2543Y2107D01*
X2684Y2107D02*
X2688Y2107D01*
X289Y2106D02*
X294Y2106D01*
X434Y2106D02*
X438Y2106D01*
X489Y2106D02*
X494Y2106D01*
X634Y2106D02*
X638Y2106D01*
X689Y2106D02*
X693Y2106D01*
X834Y2106D02*
X838Y2106D01*
X889Y2106D02*
X893Y2106D01*
X1034Y2106D02*
X1038Y2106D01*
X1139Y2106D02*
X1143Y2106D01*
X1284Y2106D02*
X1288Y2106D01*
X1339Y2106D02*
X1343Y2106D01*
X1484Y2106D02*
X1488Y2106D01*
X1539Y2106D02*
X1543Y2106D01*
X1684Y2106D02*
X1688Y2106D01*
X1739Y2106D02*
X1743Y2106D01*
X1884Y2106D02*
X1888Y2106D01*
X1939Y2106D02*
X1943Y2106D01*
X2084Y2106D02*
X2088Y2106D01*
X2139Y2106D02*
X2143Y2106D01*
X2284Y2106D02*
X2288Y2106D01*
X2339Y2106D02*
X2343Y2106D01*
X2484Y2106D02*
X2488Y2106D01*
X2539Y2106D02*
X2543Y2106D01*
X2684Y2106D02*
X2688Y2106D01*
X290Y2105D02*
X294Y2105D01*
X434Y2105D02*
X438Y2105D01*
X490Y2105D02*
X494Y2105D01*
X634Y2105D02*
X638Y2105D01*
X690Y2105D02*
X694Y2105D01*
X834Y2105D02*
X838Y2105D01*
X890Y2105D02*
X894Y2105D01*
X1034Y2105D02*
X1038Y2105D01*
X1140Y2105D02*
X1144Y2105D01*
X1284Y2105D02*
X1288Y2105D01*
X1340Y2105D02*
X1344Y2105D01*
X1483Y2105D02*
X1488Y2105D01*
X1540Y2105D02*
X1544Y2105D01*
X1683Y2105D02*
X1688Y2105D01*
X1740Y2105D02*
X1744Y2105D01*
X1883Y2105D02*
X1888Y2105D01*
X1940Y2105D02*
X1944Y2105D01*
X2083Y2105D02*
X2088Y2105D01*
X2139Y2105D02*
X2144Y2105D01*
X2283Y2105D02*
X2288Y2105D01*
X2339Y2105D02*
X2344Y2105D01*
X2483Y2105D02*
X2488Y2105D01*
X2539Y2105D02*
X2544Y2105D01*
X2683Y2105D02*
X2688Y2105D01*
X290Y2104D02*
X294Y2104D01*
X433Y2104D02*
X438Y2104D01*
X490Y2104D02*
X494Y2104D01*
X633Y2104D02*
X638Y2104D01*
X690Y2104D02*
X694Y2104D01*
X833Y2104D02*
X838Y2104D01*
X890Y2104D02*
X894Y2104D01*
X1033Y2104D02*
X1038Y2104D01*
X1140Y2104D02*
X1144Y2104D01*
X1283Y2104D02*
X1288Y2104D01*
X1340Y2104D02*
X1344Y2104D01*
X1483Y2104D02*
X1488Y2104D01*
X1540Y2104D02*
X1544Y2104D01*
X1683Y2104D02*
X1687Y2104D01*
X1740Y2104D02*
X1744Y2104D01*
X1883Y2104D02*
X1887Y2104D01*
X1940Y2104D02*
X1944Y2104D01*
X2083Y2104D02*
X2087Y2104D01*
X2140Y2104D02*
X2144Y2104D01*
X2283Y2104D02*
X2287Y2104D01*
X2340Y2104D02*
X2344Y2104D01*
X2483Y2104D02*
X2487Y2104D01*
X2540Y2104D02*
X2544Y2104D01*
X2683Y2104D02*
X2687Y2104D01*
X291Y2103D02*
X295Y2103D01*
X433Y2103D02*
X437Y2103D01*
X491Y2103D02*
X495Y2103D01*
X633Y2103D02*
X637Y2103D01*
X691Y2103D02*
X695Y2103D01*
X833Y2103D02*
X837Y2103D01*
X890Y2103D02*
X895Y2103D01*
X1033Y2103D02*
X1037Y2103D01*
X1140Y2103D02*
X1145Y2103D01*
X1283Y2103D02*
X1287Y2103D01*
X1340Y2103D02*
X1345Y2103D01*
X1483Y2103D02*
X1487Y2103D01*
X1540Y2103D02*
X1545Y2103D01*
X1683Y2103D02*
X1687Y2103D01*
X1740Y2103D02*
X1745Y2103D01*
X1883Y2103D02*
X1887Y2103D01*
X1940Y2103D02*
X1944Y2103D01*
X2083Y2103D02*
X2087Y2103D01*
X2140Y2103D02*
X2144Y2103D01*
X2283Y2103D02*
X2287Y2103D01*
X2340Y2103D02*
X2344Y2103D01*
X2482Y2103D02*
X2487Y2103D01*
X2540Y2103D02*
X2544Y2103D01*
X2682Y2103D02*
X2687Y2103D01*
X291Y2102D02*
X295Y2102D01*
X432Y2102D02*
X437Y2102D01*
X491Y2102D02*
X495Y2102D01*
X632Y2102D02*
X637Y2102D01*
X691Y2102D02*
X695Y2102D01*
X832Y2102D02*
X837Y2102D01*
X891Y2102D02*
X895Y2102D01*
X1032Y2102D02*
X1037Y2102D01*
X1141Y2102D02*
X1145Y2102D01*
X1282Y2102D02*
X1287Y2102D01*
X1341Y2102D02*
X1345Y2102D01*
X1482Y2102D02*
X1487Y2102D01*
X1541Y2102D02*
X1545Y2102D01*
X1682Y2102D02*
X1687Y2102D01*
X1741Y2102D02*
X1745Y2102D01*
X1882Y2102D02*
X1887Y2102D01*
X1941Y2102D02*
X1945Y2102D01*
X2082Y2102D02*
X2087Y2102D01*
X2141Y2102D02*
X2145Y2102D01*
X2282Y2102D02*
X2287Y2102D01*
X2341Y2102D02*
X2345Y2102D01*
X2482Y2102D02*
X2487Y2102D01*
X2541Y2102D02*
X2545Y2102D01*
X2682Y2102D02*
X2686Y2102D01*
X291Y2101D02*
X296Y2101D01*
X432Y2101D02*
X436Y2101D01*
X491Y2101D02*
X496Y2101D01*
X632Y2101D02*
X636Y2101D01*
X691Y2101D02*
X696Y2101D01*
X832Y2101D02*
X836Y2101D01*
X891Y2101D02*
X895Y2101D01*
X1032Y2101D02*
X1036Y2101D01*
X1141Y2101D02*
X1145Y2101D01*
X1282Y2101D02*
X1286Y2101D01*
X1341Y2101D02*
X1345Y2101D01*
X1482Y2101D02*
X1486Y2101D01*
X1541Y2101D02*
X1545Y2101D01*
X1682Y2101D02*
X1686Y2101D01*
X1741Y2101D02*
X1745Y2101D01*
X1882Y2101D02*
X1886Y2101D01*
X1941Y2101D02*
X1945Y2101D01*
X2082Y2101D02*
X2086Y2101D01*
X2141Y2101D02*
X2145Y2101D01*
X2282Y2101D02*
X2286Y2101D01*
X2341Y2101D02*
X2345Y2101D01*
X2482Y2101D02*
X2486Y2101D01*
X2541Y2101D02*
X2545Y2101D01*
X2682Y2101D02*
X2686Y2101D01*
X292Y2100D02*
X296Y2100D01*
X432Y2100D02*
X436Y2100D01*
X492Y2100D02*
X496Y2100D01*
X632Y2100D02*
X636Y2100D01*
X692Y2100D02*
X696Y2100D01*
X832Y2100D02*
X836Y2100D01*
X892Y2100D02*
X896Y2100D01*
X1031Y2100D02*
X1036Y2100D01*
X1142Y2100D02*
X1146Y2100D01*
X1281Y2100D02*
X1286Y2100D01*
X1342Y2100D02*
X1346Y2100D01*
X1481Y2100D02*
X1486Y2100D01*
X1542Y2100D02*
X1546Y2100D01*
X1681Y2100D02*
X1686Y2100D01*
X1742Y2100D02*
X1746Y2100D01*
X1881Y2100D02*
X1886Y2100D01*
X1941Y2100D02*
X1946Y2100D01*
X2081Y2100D02*
X2086Y2100D01*
X2141Y2100D02*
X2146Y2100D01*
X2281Y2100D02*
X2286Y2100D01*
X2341Y2100D02*
X2346Y2100D01*
X2481Y2100D02*
X2486Y2100D01*
X2541Y2100D02*
X2546Y2100D01*
X2681Y2100D02*
X2686Y2100D01*
X292Y2099D02*
X297Y2099D01*
X431Y2099D02*
X436Y2099D01*
X492Y2099D02*
X497Y2099D01*
X631Y2099D02*
X636Y2099D01*
X692Y2099D02*
X697Y2099D01*
X831Y2099D02*
X836Y2099D01*
X892Y2099D02*
X896Y2099D01*
X1031Y2099D02*
X1036Y2099D01*
X1142Y2099D02*
X1146Y2099D01*
X1281Y2099D02*
X1285Y2099D01*
X1342Y2099D02*
X1346Y2099D01*
X1481Y2099D02*
X1485Y2099D01*
X1542Y2099D02*
X1546Y2099D01*
X1681Y2099D02*
X1685Y2099D01*
X1742Y2099D02*
X1746Y2099D01*
X1881Y2099D02*
X1885Y2099D01*
X1942Y2099D02*
X1946Y2099D01*
X2081Y2099D02*
X2085Y2099D01*
X2142Y2099D02*
X2146Y2099D01*
X2281Y2099D02*
X2285Y2099D01*
X2342Y2099D02*
X2346Y2099D01*
X2481Y2099D02*
X2485Y2099D01*
X2542Y2099D02*
X2546Y2099D01*
X2681Y2099D02*
X2685Y2099D01*
X293Y2098D02*
X297Y2098D01*
X431Y2098D02*
X435Y2098D01*
X493Y2098D02*
X497Y2098D01*
X630Y2098D02*
X635Y2098D01*
X693Y2098D02*
X697Y2098D01*
X830Y2098D02*
X835Y2098D01*
X893Y2098D02*
X897Y2098D01*
X1030Y2098D02*
X1035Y2098D01*
X1142Y2098D02*
X1147Y2098D01*
X1280Y2098D02*
X1285Y2098D01*
X1342Y2098D02*
X1347Y2098D01*
X1480Y2098D02*
X1485Y2098D01*
X1542Y2098D02*
X1547Y2098D01*
X1680Y2098D02*
X1685Y2098D01*
X1742Y2098D02*
X1747Y2098D01*
X1880Y2098D02*
X1885Y2098D01*
X1942Y2098D02*
X1947Y2098D01*
X2080Y2098D02*
X2085Y2098D01*
X2142Y2098D02*
X2147Y2098D01*
X2280Y2098D02*
X2285Y2098D01*
X2342Y2098D02*
X2347Y2098D01*
X2480Y2098D02*
X2485Y2098D01*
X2542Y2098D02*
X2547Y2098D01*
X2680Y2098D02*
X2685Y2098D01*
X293Y2097D02*
X298Y2097D01*
X430Y2097D02*
X435Y2097D01*
X493Y2097D02*
X498Y2097D01*
X630Y2097D02*
X635Y2097D01*
X693Y2097D02*
X698Y2097D01*
X830Y2097D02*
X835Y2097D01*
X893Y2097D02*
X898Y2097D01*
X1030Y2097D02*
X1035Y2097D01*
X1143Y2097D02*
X1147Y2097D01*
X1280Y2097D02*
X1285Y2097D01*
X1343Y2097D02*
X1347Y2097D01*
X1480Y2097D02*
X1485Y2097D01*
X1543Y2097D02*
X1547Y2097D01*
X1680Y2097D02*
X1685Y2097D01*
X1743Y2097D02*
X1747Y2097D01*
X1880Y2097D02*
X1884Y2097D01*
X1943Y2097D02*
X1947Y2097D01*
X2080Y2097D02*
X2084Y2097D01*
X2143Y2097D02*
X2147Y2097D01*
X2280Y2097D02*
X2284Y2097D01*
X2343Y2097D02*
X2347Y2097D01*
X2480Y2097D02*
X2484Y2097D01*
X2543Y2097D02*
X2547Y2097D01*
X2680Y2097D02*
X2684Y2097D01*
X294Y2096D02*
X298Y2096D01*
X429Y2096D02*
X434Y2096D01*
X494Y2096D02*
X498Y2096D01*
X629Y2096D02*
X634Y2096D01*
X694Y2096D02*
X698Y2096D01*
X829Y2096D02*
X834Y2096D01*
X894Y2096D02*
X898Y2096D01*
X1029Y2096D02*
X1034Y2096D01*
X1144Y2096D02*
X1148Y2096D01*
X1279Y2096D02*
X1284Y2096D01*
X1343Y2096D02*
X1348Y2096D01*
X1479Y2096D02*
X1484Y2096D01*
X1543Y2096D02*
X1548Y2096D01*
X1679Y2096D02*
X1684Y2096D01*
X1743Y2096D02*
X1748Y2096D01*
X1879Y2096D02*
X1884Y2096D01*
X1943Y2096D02*
X1948Y2096D01*
X2079Y2096D02*
X2084Y2096D01*
X2143Y2096D02*
X2148Y2096D01*
X2279Y2096D02*
X2284Y2096D01*
X2343Y2096D02*
X2348Y2096D01*
X2479Y2096D02*
X2484Y2096D01*
X2543Y2096D02*
X2548Y2096D01*
X2679Y2096D02*
X2684Y2096D01*
X294Y2095D02*
X299Y2095D01*
X429Y2095D02*
X434Y2095D01*
X494Y2095D02*
X499Y2095D01*
X629Y2095D02*
X634Y2095D01*
X694Y2095D02*
X699Y2095D01*
X829Y2095D02*
X834Y2095D01*
X894Y2095D02*
X899Y2095D01*
X1029Y2095D02*
X1034Y2095D01*
X1144Y2095D02*
X1149Y2095D01*
X1279Y2095D02*
X1284Y2095D01*
X1344Y2095D02*
X1348Y2095D01*
X1479Y2095D02*
X1483Y2095D01*
X1544Y2095D02*
X1548Y2095D01*
X1679Y2095D02*
X1683Y2095D01*
X1744Y2095D02*
X1748Y2095D01*
X1879Y2095D02*
X1883Y2095D01*
X1944Y2095D02*
X1948Y2095D01*
X2079Y2095D02*
X2083Y2095D01*
X2144Y2095D02*
X2148Y2095D01*
X2279Y2095D02*
X2283Y2095D01*
X2344Y2095D02*
X2348Y2095D01*
X2479Y2095D02*
X2483Y2095D01*
X2544Y2095D02*
X2548Y2095D01*
X2679Y2095D02*
X2683Y2095D01*
X295Y2094D02*
X299Y2094D01*
X428Y2094D02*
X433Y2094D01*
X495Y2094D02*
X499Y2094D01*
X628Y2094D02*
X633Y2094D01*
X695Y2094D02*
X699Y2094D01*
X828Y2094D02*
X833Y2094D01*
X895Y2094D02*
X899Y2094D01*
X1028Y2094D02*
X1033Y2094D01*
X1145Y2094D02*
X1149Y2094D01*
X1278Y2094D02*
X1283Y2094D01*
X1344Y2094D02*
X1349Y2094D01*
X1478Y2094D02*
X1483Y2094D01*
X1544Y2094D02*
X1549Y2094D01*
X1678Y2094D02*
X1683Y2094D01*
X1744Y2094D02*
X1749Y2094D01*
X1878Y2094D02*
X1883Y2094D01*
X1944Y2094D02*
X1949Y2094D01*
X2078Y2094D02*
X2083Y2094D01*
X2144Y2094D02*
X2149Y2094D01*
X2278Y2094D02*
X2283Y2094D01*
X2344Y2094D02*
X2349Y2094D01*
X2478Y2094D02*
X2483Y2094D01*
X2544Y2094D02*
X2549Y2094D01*
X2678Y2094D02*
X2683Y2094D01*
X295Y2093D02*
X300Y2093D01*
X428Y2093D02*
X433Y2093D01*
X495Y2093D02*
X500Y2093D01*
X628Y2093D02*
X633Y2093D01*
X695Y2093D02*
X700Y2093D01*
X828Y2093D02*
X833Y2093D01*
X895Y2093D02*
X900Y2093D01*
X1028Y2093D02*
X1032Y2093D01*
X1145Y2093D02*
X1150Y2093D01*
X1278Y2093D02*
X1282Y2093D01*
X1345Y2093D02*
X1350Y2093D01*
X1478Y2093D02*
X1482Y2093D01*
X1545Y2093D02*
X1550Y2093D01*
X1678Y2093D02*
X1682Y2093D01*
X1745Y2093D02*
X1750Y2093D01*
X1878Y2093D02*
X1882Y2093D01*
X1945Y2093D02*
X1950Y2093D01*
X2077Y2093D02*
X2082Y2093D01*
X2145Y2093D02*
X2150Y2093D01*
X2277Y2093D02*
X2282Y2093D01*
X2345Y2093D02*
X2350Y2093D01*
X2477Y2093D02*
X2482Y2093D01*
X2545Y2093D02*
X2550Y2093D01*
X2677Y2093D02*
X2682Y2093D01*
X296Y2092D02*
X301Y2092D01*
X427Y2092D02*
X432Y2092D01*
X496Y2092D02*
X500Y2092D01*
X627Y2092D02*
X632Y2092D01*
X696Y2092D02*
X700Y2092D01*
X827Y2092D02*
X832Y2092D01*
X896Y2092D02*
X900Y2092D01*
X1027Y2092D02*
X1032Y2092D01*
X1146Y2092D02*
X1150Y2092D01*
X1277Y2092D02*
X1282Y2092D01*
X1346Y2092D02*
X1350Y2092D01*
X1477Y2092D02*
X1482Y2092D01*
X1545Y2092D02*
X1550Y2092D01*
X1677Y2092D02*
X1682Y2092D01*
X1745Y2092D02*
X1750Y2092D01*
X1877Y2092D02*
X1882Y2092D01*
X1945Y2092D02*
X1950Y2092D01*
X2077Y2092D02*
X2082Y2092D01*
X2145Y2092D02*
X2150Y2092D01*
X2277Y2092D02*
X2282Y2092D01*
X2345Y2092D02*
X2350Y2092D01*
X2477Y2092D02*
X2482Y2092D01*
X2545Y2092D02*
X2550Y2092D01*
X2677Y2092D02*
X2682Y2092D01*
X296Y2091D02*
X301Y2091D01*
X426Y2091D02*
X432Y2091D01*
X496Y2091D02*
X501Y2091D01*
X626Y2091D02*
X631Y2091D01*
X696Y2091D02*
X701Y2091D01*
X826Y2091D02*
X831Y2091D01*
X896Y2091D02*
X901Y2091D01*
X1026Y2091D02*
X1031Y2091D01*
X1146Y2091D02*
X1151Y2091D01*
X1276Y2091D02*
X1281Y2091D01*
X1346Y2091D02*
X1351Y2091D01*
X1476Y2091D02*
X1481Y2091D01*
X1546Y2091D02*
X1551Y2091D01*
X1676Y2091D02*
X1681Y2091D01*
X1746Y2091D02*
X1751Y2091D01*
X1876Y2091D02*
X1881Y2091D01*
X1946Y2091D02*
X1951Y2091D01*
X2076Y2091D02*
X2081Y2091D01*
X2146Y2091D02*
X2151Y2091D01*
X2276Y2091D02*
X2281Y2091D01*
X2346Y2091D02*
X2351Y2091D01*
X2476Y2091D02*
X2481Y2091D01*
X2546Y2091D02*
X2551Y2091D01*
X2676Y2091D02*
X2681Y2091D01*
X297Y2090D02*
X302Y2090D01*
X426Y2090D02*
X431Y2090D01*
X497Y2090D02*
X502Y2090D01*
X626Y2090D02*
X631Y2090D01*
X697Y2090D02*
X702Y2090D01*
X826Y2090D02*
X831Y2090D01*
X897Y2090D02*
X902Y2090D01*
X1026Y2090D02*
X1031Y2090D01*
X1147Y2090D02*
X1152Y2090D01*
X1276Y2090D02*
X1281Y2090D01*
X1347Y2090D02*
X1352Y2090D01*
X1476Y2090D02*
X1481Y2090D01*
X1547Y2090D02*
X1552Y2090D01*
X1676Y2090D02*
X1681Y2090D01*
X1747Y2090D02*
X1752Y2090D01*
X1876Y2090D02*
X1881Y2090D01*
X1947Y2090D02*
X1952Y2090D01*
X2075Y2090D02*
X2081Y2090D01*
X2147Y2090D02*
X2152Y2090D01*
X2275Y2090D02*
X2281Y2090D01*
X2347Y2090D02*
X2351Y2090D01*
X2475Y2090D02*
X2481Y2090D01*
X2547Y2090D02*
X2551Y2090D01*
X2675Y2090D02*
X2681Y2090D01*
X298Y2089D02*
X302Y2089D01*
X425Y2089D02*
X430Y2089D01*
X498Y2089D02*
X502Y2089D01*
X625Y2089D02*
X630Y2089D01*
X698Y2089D02*
X702Y2089D01*
X825Y2089D02*
X830Y2089D01*
X897Y2089D02*
X902Y2089D01*
X1025Y2089D02*
X1030Y2089D01*
X1147Y2089D02*
X1152Y2089D01*
X1275Y2089D02*
X1280Y2089D01*
X1347Y2089D02*
X1352Y2089D01*
X1475Y2089D02*
X1480Y2089D01*
X1547Y2089D02*
X1552Y2089D01*
X1675Y2089D02*
X1680Y2089D01*
X1747Y2089D02*
X1752Y2089D01*
X1875Y2089D02*
X1880Y2089D01*
X1947Y2089D02*
X1952Y2089D01*
X2075Y2089D02*
X2080Y2089D01*
X2147Y2089D02*
X2152Y2089D01*
X2275Y2089D02*
X2280Y2089D01*
X2347Y2089D02*
X2352Y2089D01*
X2475Y2089D02*
X2480Y2089D01*
X2547Y2089D02*
X2552Y2089D01*
X2675Y2089D02*
X2680Y2089D01*
X298Y2088D02*
X303Y2088D01*
X424Y2088D02*
X430Y2088D01*
X498Y2088D02*
X503Y2088D01*
X624Y2088D02*
X630Y2088D01*
X698Y2088D02*
X703Y2088D01*
X824Y2088D02*
X829Y2088D01*
X898Y2088D02*
X903Y2088D01*
X1024Y2088D02*
X1029Y2088D01*
X1148Y2088D02*
X1153Y2088D01*
X1274Y2088D02*
X1279Y2088D01*
X1348Y2088D02*
X1353Y2088D01*
X1474Y2088D02*
X1479Y2088D01*
X1548Y2088D02*
X1553Y2088D01*
X1674Y2088D02*
X1679Y2088D01*
X1748Y2088D02*
X1753Y2088D01*
X1874Y2088D02*
X1879Y2088D01*
X1948Y2088D02*
X1953Y2088D01*
X2074Y2088D02*
X2079Y2088D01*
X2148Y2088D02*
X2153Y2088D01*
X2274Y2088D02*
X2279Y2088D01*
X2348Y2088D02*
X2353Y2088D01*
X2474Y2088D02*
X2479Y2088D01*
X2548Y2088D02*
X2553Y2088D01*
X2674Y2088D02*
X2679Y2088D01*
X299Y2087D02*
X304Y2087D01*
X424Y2087D02*
X429Y2087D01*
X499Y2087D02*
X504Y2087D01*
X624Y2087D02*
X629Y2087D01*
X699Y2087D02*
X704Y2087D01*
X824Y2087D02*
X829Y2087D01*
X899Y2087D02*
X904Y2087D01*
X1024Y2087D02*
X1029Y2087D01*
X1149Y2087D02*
X1154Y2087D01*
X1274Y2087D02*
X1279Y2087D01*
X1349Y2087D02*
X1354Y2087D01*
X1474Y2087D02*
X1479Y2087D01*
X1549Y2087D02*
X1554Y2087D01*
X1673Y2087D02*
X1679Y2087D01*
X1749Y2087D02*
X1754Y2087D01*
X1873Y2087D02*
X1879Y2087D01*
X1949Y2087D02*
X1954Y2087D01*
X2073Y2087D02*
X2079Y2087D01*
X2149Y2087D02*
X2154Y2087D01*
X2273Y2087D02*
X2279Y2087D01*
X2349Y2087D02*
X2354Y2087D01*
X2473Y2087D02*
X2479Y2087D01*
X2548Y2087D02*
X2554Y2087D01*
X2673Y2087D02*
X2679Y2087D01*
X300Y2086D02*
X305Y2086D01*
X423Y2086D02*
X428Y2086D01*
X499Y2086D02*
X505Y2086D01*
X623Y2086D02*
X628Y2086D01*
X699Y2086D02*
X705Y2086D01*
X823Y2086D02*
X828Y2086D01*
X899Y2086D02*
X905Y2086D01*
X1023Y2086D02*
X1028Y2086D01*
X1149Y2086D02*
X1155Y2086D01*
X1273Y2086D02*
X1278Y2086D01*
X1349Y2086D02*
X1355Y2086D01*
X1473Y2086D02*
X1478Y2086D01*
X1549Y2086D02*
X1555Y2086D01*
X1673Y2086D02*
X1678Y2086D01*
X1749Y2086D02*
X1755Y2086D01*
X1873Y2086D02*
X1878Y2086D01*
X1949Y2086D02*
X1955Y2086D01*
X2073Y2086D02*
X2078Y2086D01*
X2149Y2086D02*
X2154Y2086D01*
X2273Y2086D02*
X2278Y2086D01*
X2349Y2086D02*
X2354Y2086D01*
X2473Y2086D02*
X2478Y2086D01*
X2549Y2086D02*
X2554Y2086D01*
X2673Y2086D02*
X2678Y2086D01*
X300Y2085D02*
X306Y2085D01*
X422Y2085D02*
X428Y2085D01*
X500Y2085D02*
X506Y2085D01*
X622Y2085D02*
X628Y2085D01*
X700Y2085D02*
X706Y2085D01*
X822Y2085D02*
X827Y2085D01*
X900Y2085D02*
X905Y2085D01*
X1022Y2085D02*
X1027Y2085D01*
X1150Y2085D02*
X1155Y2085D01*
X1272Y2085D02*
X1277Y2085D01*
X1350Y2085D02*
X1355Y2085D01*
X1472Y2085D02*
X1477Y2085D01*
X1550Y2085D02*
X1555Y2085D01*
X1672Y2085D02*
X1677Y2085D01*
X1750Y2085D02*
X1755Y2085D01*
X1872Y2085D02*
X1877Y2085D01*
X1950Y2085D02*
X1955Y2085D01*
X2072Y2085D02*
X2077Y2085D01*
X2150Y2085D02*
X2155Y2085D01*
X2272Y2085D02*
X2277Y2085D01*
X2350Y2085D02*
X2355Y2085D01*
X2472Y2085D02*
X2477Y2085D01*
X2550Y2085D02*
X2555Y2085D01*
X2672Y2085D02*
X2677Y2085D01*
X301Y2084D02*
X306Y2084D01*
X421Y2084D02*
X427Y2084D01*
X501Y2084D02*
X506Y2084D01*
X621Y2084D02*
X627Y2084D01*
X701Y2084D02*
X706Y2084D01*
X821Y2084D02*
X827Y2084D01*
X901Y2084D02*
X906Y2084D01*
X1021Y2084D02*
X1027Y2084D01*
X1151Y2084D02*
X1156Y2084D01*
X1271Y2084D02*
X1277Y2084D01*
X1351Y2084D02*
X1356Y2084D01*
X1471Y2084D02*
X1477Y2084D01*
X1551Y2084D02*
X1556Y2084D01*
X1671Y2084D02*
X1677Y2084D01*
X1751Y2084D02*
X1756Y2084D01*
X1871Y2084D02*
X1877Y2084D01*
X1951Y2084D02*
X1956Y2084D01*
X2071Y2084D02*
X2077Y2084D01*
X2151Y2084D02*
X2156Y2084D01*
X2271Y2084D02*
X2277Y2084D01*
X2351Y2084D02*
X2356Y2084D01*
X2471Y2084D02*
X2477Y2084D01*
X2551Y2084D02*
X2556Y2084D01*
X2671Y2084D02*
X2676Y2084D01*
X302Y2083D02*
X307Y2083D01*
X420Y2083D02*
X426Y2083D01*
X502Y2083D02*
X507Y2083D01*
X620Y2083D02*
X626Y2083D01*
X702Y2083D02*
X707Y2083D01*
X820Y2083D02*
X826Y2083D01*
X902Y2083D02*
X907Y2083D01*
X1020Y2083D02*
X1026Y2083D01*
X1152Y2083D02*
X1157Y2083D01*
X1270Y2083D02*
X1276Y2083D01*
X1352Y2083D02*
X1357Y2083D01*
X1470Y2083D02*
X1476Y2083D01*
X1552Y2083D02*
X1557Y2083D01*
X1670Y2083D02*
X1676Y2083D01*
X1752Y2083D02*
X1757Y2083D01*
X1870Y2083D02*
X1876Y2083D01*
X1952Y2083D02*
X1957Y2083D01*
X2070Y2083D02*
X2076Y2083D01*
X2151Y2083D02*
X2157Y2083D01*
X2270Y2083D02*
X2276Y2083D01*
X2351Y2083D02*
X2357Y2083D01*
X2470Y2083D02*
X2476Y2083D01*
X2551Y2083D02*
X2557Y2083D01*
X2670Y2083D02*
X2676Y2083D01*
X303Y2082D02*
X308Y2082D01*
X420Y2082D02*
X425Y2082D01*
X503Y2082D02*
X508Y2082D01*
X620Y2082D02*
X625Y2082D01*
X702Y2082D02*
X708Y2082D01*
X820Y2082D02*
X825Y2082D01*
X902Y2082D02*
X908Y2082D01*
X1019Y2082D02*
X1025Y2082D01*
X1152Y2082D02*
X1158Y2082D01*
X1269Y2082D02*
X1275Y2082D01*
X1352Y2082D02*
X1358Y2082D01*
X1469Y2082D02*
X1475Y2082D01*
X1552Y2082D02*
X1558Y2082D01*
X1669Y2082D02*
X1675Y2082D01*
X1752Y2082D02*
X1758Y2082D01*
X1869Y2082D02*
X1875Y2082D01*
X1952Y2082D02*
X1958Y2082D01*
X2069Y2082D02*
X2075Y2082D01*
X2152Y2082D02*
X2158Y2082D01*
X2269Y2082D02*
X2275Y2082D01*
X2352Y2082D02*
X2358Y2082D01*
X2469Y2082D02*
X2475Y2082D01*
X2552Y2082D02*
X2558Y2082D01*
X2669Y2082D02*
X2675Y2082D01*
X303Y2081D02*
X309Y2081D01*
X419Y2081D02*
X424Y2081D01*
X503Y2081D02*
X509Y2081D01*
X619Y2081D02*
X624Y2081D01*
X703Y2081D02*
X709Y2081D01*
X819Y2081D02*
X824Y2081D01*
X903Y2081D02*
X909Y2081D01*
X1019Y2081D02*
X1024Y2081D01*
X1153Y2081D02*
X1159Y2081D01*
X1269Y2081D02*
X1274Y2081D01*
X1353Y2081D02*
X1359Y2081D01*
X1469Y2081D02*
X1474Y2081D01*
X1553Y2081D02*
X1559Y2081D01*
X1668Y2081D02*
X1674Y2081D01*
X1753Y2081D02*
X1759Y2081D01*
X1868Y2081D02*
X1874Y2081D01*
X1953Y2081D02*
X1959Y2081D01*
X2068Y2081D02*
X2074Y2081D01*
X2153Y2081D02*
X2159Y2081D01*
X2268Y2081D02*
X2274Y2081D01*
X2353Y2081D02*
X2359Y2081D01*
X2468Y2081D02*
X2474Y2081D01*
X2553Y2081D02*
X2559Y2081D01*
X2668Y2081D02*
X2674Y2081D01*
X304Y2080D02*
X310Y2080D01*
X418Y2080D02*
X424Y2080D01*
X504Y2080D02*
X510Y2080D01*
X618Y2080D02*
X624Y2080D01*
X704Y2080D02*
X710Y2080D01*
X818Y2080D02*
X823Y2080D01*
X904Y2080D02*
X910Y2080D01*
X1018Y2080D02*
X1023Y2080D01*
X1154Y2080D02*
X1160Y2080D01*
X1268Y2080D02*
X1273Y2080D01*
X1354Y2080D02*
X1360Y2080D01*
X1468Y2080D02*
X1473Y2080D01*
X1554Y2080D02*
X1560Y2080D01*
X1667Y2080D02*
X1673Y2080D01*
X1754Y2080D02*
X1760Y2080D01*
X1867Y2080D02*
X1873Y2080D01*
X1954Y2080D02*
X1960Y2080D01*
X2067Y2080D02*
X2073Y2080D01*
X2154Y2080D02*
X2160Y2080D01*
X2267Y2080D02*
X2273Y2080D01*
X2354Y2080D02*
X2360Y2080D01*
X2467Y2080D02*
X2473Y2080D01*
X2554Y2080D02*
X2560Y2080D01*
X2667Y2080D02*
X2673Y2080D01*
X305Y2079D02*
X311Y2079D01*
X417Y2079D02*
X423Y2079D01*
X505Y2079D02*
X511Y2079D01*
X617Y2079D02*
X623Y2079D01*
X705Y2079D02*
X711Y2079D01*
X817Y2079D02*
X823Y2079D01*
X905Y2079D02*
X911Y2079D01*
X1017Y2079D02*
X1023Y2079D01*
X1155Y2079D02*
X1161Y2079D01*
X1267Y2079D02*
X1273Y2079D01*
X1355Y2079D02*
X1361Y2079D01*
X1466Y2079D02*
X1473Y2079D01*
X1555Y2079D02*
X1561Y2079D01*
X1666Y2079D02*
X1673Y2079D01*
X1755Y2079D02*
X1761Y2079D01*
X1866Y2079D02*
X1872Y2079D01*
X1955Y2079D02*
X1961Y2079D01*
X2066Y2079D02*
X2072Y2079D01*
X2155Y2079D02*
X2161Y2079D01*
X2266Y2079D02*
X2272Y2079D01*
X2355Y2079D02*
X2361Y2079D01*
X2466Y2079D02*
X2472Y2079D01*
X2555Y2079D02*
X2561Y2079D01*
X2666Y2079D02*
X2672Y2079D01*
X306Y2078D02*
X312Y2078D01*
X416Y2078D02*
X422Y2078D01*
X506Y2078D02*
X512Y2078D01*
X616Y2078D02*
X622Y2078D01*
X706Y2078D02*
X712Y2078D01*
X816Y2078D02*
X822Y2078D01*
X906Y2078D02*
X912Y2078D01*
X1016Y2078D02*
X1022Y2078D01*
X1156Y2078D02*
X1162Y2078D01*
X1266Y2078D02*
X1272Y2078D01*
X1356Y2078D02*
X1362Y2078D01*
X1465Y2078D02*
X1472Y2078D01*
X1556Y2078D02*
X1562Y2078D01*
X1665Y2078D02*
X1672Y2078D01*
X1756Y2078D02*
X1762Y2078D01*
X1865Y2078D02*
X1872Y2078D01*
X1956Y2078D02*
X1962Y2078D01*
X2065Y2078D02*
X2072Y2078D01*
X2156Y2078D02*
X2162Y2078D01*
X2265Y2078D02*
X2272Y2078D01*
X2356Y2078D02*
X2362Y2078D01*
X2465Y2078D02*
X2472Y2078D01*
X2556Y2078D02*
X2562Y2078D01*
X2665Y2078D02*
X2672Y2078D01*
X307Y2077D02*
X313Y2077D01*
X415Y2077D02*
X421Y2077D01*
X507Y2077D02*
X513Y2077D01*
X615Y2077D02*
X621Y2077D01*
X707Y2077D02*
X713Y2077D01*
X815Y2077D02*
X821Y2077D01*
X907Y2077D02*
X913Y2077D01*
X1015Y2077D02*
X1021Y2077D01*
X1157Y2077D02*
X1163Y2077D01*
X1264Y2077D02*
X1271Y2077D01*
X1357Y2077D02*
X1363Y2077D01*
X1464Y2077D02*
X1471Y2077D01*
X1557Y2077D02*
X1563Y2077D01*
X1664Y2077D02*
X1671Y2077D01*
X1757Y2077D02*
X1763Y2077D01*
X1864Y2077D02*
X1871Y2077D01*
X1957Y2077D02*
X1963Y2077D01*
X2064Y2077D02*
X2071Y2077D01*
X2157Y2077D02*
X2163Y2077D01*
X2264Y2077D02*
X2271Y2077D01*
X2357Y2077D02*
X2363Y2077D01*
X2464Y2077D02*
X2471Y2077D01*
X2557Y2077D02*
X2563Y2077D01*
X2664Y2077D02*
X2671Y2077D01*
X308Y2076D02*
X314Y2076D01*
X414Y2076D02*
X420Y2076D01*
X508Y2076D02*
X514Y2076D01*
X614Y2076D02*
X620Y2076D01*
X708Y2076D02*
X714Y2076D01*
X814Y2076D02*
X820Y2076D01*
X908Y2076D02*
X914Y2076D01*
X1013Y2076D02*
X1020Y2076D01*
X1158Y2076D02*
X1164Y2076D01*
X1263Y2076D02*
X1270Y2076D01*
X1358Y2076D02*
X1364Y2076D01*
X1463Y2076D02*
X1470Y2076D01*
X1558Y2076D02*
X1564Y2076D01*
X1663Y2076D02*
X1670Y2076D01*
X1758Y2076D02*
X1764Y2076D01*
X1863Y2076D02*
X1870Y2076D01*
X1958Y2076D02*
X1964Y2076D01*
X2063Y2076D02*
X2070Y2076D01*
X2158Y2076D02*
X2164Y2076D01*
X2263Y2076D02*
X2270Y2076D01*
X2358Y2076D02*
X2364Y2076D01*
X2463Y2076D02*
X2470Y2076D01*
X2558Y2076D02*
X2564Y2076D01*
X2663Y2076D02*
X2670Y2076D01*
X309Y2075D02*
X315Y2075D01*
X412Y2075D02*
X419Y2075D01*
X509Y2075D02*
X515Y2075D01*
X612Y2075D02*
X619Y2075D01*
X709Y2075D02*
X715Y2075D01*
X812Y2075D02*
X819Y2075D01*
X909Y2075D02*
X915Y2075D01*
X1012Y2075D02*
X1019Y2075D01*
X1159Y2075D02*
X1165Y2075D01*
X1262Y2075D02*
X1269Y2075D01*
X1359Y2075D02*
X1365Y2075D01*
X1462Y2075D02*
X1469Y2075D01*
X1559Y2075D02*
X1565Y2075D01*
X1662Y2075D02*
X1669Y2075D01*
X1759Y2075D02*
X1765Y2075D01*
X1862Y2075D02*
X1869Y2075D01*
X1959Y2075D02*
X1965Y2075D01*
X2062Y2075D02*
X2069Y2075D01*
X2159Y2075D02*
X2165Y2075D01*
X2262Y2075D02*
X2269Y2075D01*
X2359Y2075D02*
X2365Y2075D01*
X2462Y2075D02*
X2469Y2075D01*
X2558Y2075D02*
X2565Y2075D01*
X2662Y2075D02*
X2669Y2075D01*
X310Y2074D02*
X317Y2074D01*
X411Y2074D02*
X418Y2074D01*
X510Y2074D02*
X517Y2074D01*
X611Y2074D02*
X618Y2074D01*
X710Y2074D02*
X717Y2074D01*
X811Y2074D02*
X818Y2074D01*
X910Y2074D02*
X917Y2074D01*
X1011Y2074D02*
X1018Y2074D01*
X1160Y2074D02*
X1167Y2074D01*
X1261Y2074D02*
X1268Y2074D01*
X1360Y2074D02*
X1366Y2074D01*
X1461Y2074D02*
X1468Y2074D01*
X1560Y2074D02*
X1566Y2074D01*
X1661Y2074D02*
X1668Y2074D01*
X1760Y2074D02*
X1766Y2074D01*
X1861Y2074D02*
X1868Y2074D01*
X1960Y2074D02*
X1966Y2074D01*
X2061Y2074D02*
X2068Y2074D01*
X2160Y2074D02*
X2166Y2074D01*
X2261Y2074D02*
X2268Y2074D01*
X2359Y2074D02*
X2366Y2074D01*
X2461Y2074D02*
X2468Y2074D01*
X2559Y2074D02*
X2566Y2074D01*
X2661Y2074D02*
X2667Y2074D01*
X311Y2073D02*
X318Y2073D01*
X410Y2073D02*
X417Y2073D01*
X511Y2073D02*
X518Y2073D01*
X610Y2073D02*
X617Y2073D01*
X711Y2073D02*
X718Y2073D01*
X810Y2073D02*
X817Y2073D01*
X911Y2073D02*
X918Y2073D01*
X1010Y2073D02*
X1017Y2073D01*
X1161Y2073D02*
X1168Y2073D01*
X1260Y2073D02*
X1267Y2073D01*
X1361Y2073D02*
X1368Y2073D01*
X1460Y2073D02*
X1467Y2073D01*
X1561Y2073D02*
X1568Y2073D01*
X1660Y2073D02*
X1667Y2073D01*
X1761Y2073D02*
X1768Y2073D01*
X1860Y2073D02*
X1867Y2073D01*
X1961Y2073D02*
X1968Y2073D01*
X2060Y2073D02*
X2067Y2073D01*
X2161Y2073D02*
X2168Y2073D01*
X2260Y2073D02*
X2267Y2073D01*
X2361Y2073D02*
X2368Y2073D01*
X2460Y2073D02*
X2467Y2073D01*
X2561Y2073D02*
X2567Y2073D01*
X2660Y2073D02*
X2666Y2073D01*
X312Y2072D02*
X319Y2072D01*
X409Y2072D02*
X416Y2072D01*
X512Y2072D02*
X519Y2072D01*
X609Y2072D02*
X616Y2072D01*
X712Y2072D02*
X719Y2072D01*
X809Y2072D02*
X816Y2072D01*
X912Y2072D02*
X919Y2072D01*
X1009Y2072D02*
X1016Y2072D01*
X1162Y2072D02*
X1169Y2072D01*
X1259Y2072D02*
X1266Y2072D01*
X1362Y2072D02*
X1369Y2072D01*
X1458Y2072D02*
X1466Y2072D01*
X1562Y2072D02*
X1569Y2072D01*
X1658Y2072D02*
X1666Y2072D01*
X1762Y2072D02*
X1769Y2072D01*
X1858Y2072D02*
X1866Y2072D01*
X1962Y2072D02*
X1969Y2072D01*
X2058Y2072D02*
X2065Y2072D01*
X2162Y2072D02*
X2169Y2072D01*
X2258Y2072D02*
X2265Y2072D01*
X2362Y2072D02*
X2369Y2072D01*
X2458Y2072D02*
X2465Y2072D01*
X2562Y2072D02*
X2569Y2072D01*
X2658Y2072D02*
X2665Y2072D01*
X313Y2071D02*
X321Y2071D01*
X407Y2071D02*
X415Y2071D01*
X513Y2071D02*
X520Y2071D01*
X607Y2071D02*
X614Y2071D01*
X713Y2071D02*
X720Y2071D01*
X807Y2071D02*
X814Y2071D01*
X913Y2071D02*
X920Y2071D01*
X1007Y2071D02*
X1014Y2071D01*
X1163Y2071D02*
X1170Y2071D01*
X1257Y2071D02*
X1264Y2071D01*
X1363Y2071D02*
X1370Y2071D01*
X1457Y2071D02*
X1464Y2071D01*
X1563Y2071D02*
X1570Y2071D01*
X1657Y2071D02*
X1664Y2071D01*
X1763Y2071D02*
X1770Y2071D01*
X1857Y2071D02*
X1864Y2071D01*
X1963Y2071D02*
X1970Y2071D01*
X2057Y2071D02*
X2064Y2071D01*
X2163Y2071D02*
X2170Y2071D01*
X2257Y2071D02*
X2264Y2071D01*
X2363Y2071D02*
X2370Y2071D01*
X2457Y2071D02*
X2464Y2071D01*
X2563Y2071D02*
X2570Y2071D01*
X2657Y2071D02*
X2664Y2071D01*
X314Y2070D02*
X322Y2070D01*
X406Y2070D02*
X413Y2070D01*
X514Y2070D02*
X522Y2070D01*
X606Y2070D02*
X613Y2070D01*
X714Y2070D02*
X722Y2070D01*
X806Y2070D02*
X813Y2070D01*
X914Y2070D02*
X922Y2070D01*
X1006Y2070D02*
X1013Y2070D01*
X1164Y2070D02*
X1172Y2070D01*
X1256Y2070D02*
X1263Y2070D01*
X1364Y2070D02*
X1372Y2070D01*
X1456Y2070D02*
X1463Y2070D01*
X1564Y2070D02*
X1572Y2070D01*
X1656Y2070D02*
X1663Y2070D01*
X1764Y2070D02*
X1772Y2070D01*
X1855Y2070D02*
X1863Y2070D01*
X1964Y2070D02*
X1972Y2070D01*
X2055Y2070D02*
X2063Y2070D01*
X2164Y2070D02*
X2172Y2070D01*
X2255Y2070D02*
X2263Y2070D01*
X2364Y2070D02*
X2372Y2070D01*
X2455Y2070D02*
X2463Y2070D01*
X2564Y2070D02*
X2572Y2070D01*
X2655Y2070D02*
X2663Y2070D01*
X316Y2069D02*
X323Y2069D01*
X404Y2069D02*
X412Y2069D01*
X516Y2069D02*
X523Y2069D01*
X604Y2069D02*
X612Y2069D01*
X716Y2069D02*
X723Y2069D01*
X804Y2069D02*
X812Y2069D01*
X916Y2069D02*
X923Y2069D01*
X1004Y2069D02*
X1012Y2069D01*
X1166Y2069D02*
X1173Y2069D01*
X1254Y2069D02*
X1262Y2069D01*
X1365Y2069D02*
X1373Y2069D01*
X1454Y2069D02*
X1462Y2069D01*
X1565Y2069D02*
X1573Y2069D01*
X1654Y2069D02*
X1662Y2069D01*
X1765Y2069D02*
X1773Y2069D01*
X1854Y2069D02*
X1862Y2069D01*
X1965Y2069D02*
X1973Y2069D01*
X2054Y2069D02*
X2062Y2069D01*
X2165Y2069D02*
X2173Y2069D01*
X2254Y2069D02*
X2262Y2069D01*
X2365Y2069D02*
X2373Y2069D01*
X2454Y2069D02*
X2462Y2069D01*
X2565Y2069D02*
X2573Y2069D01*
X2654Y2069D02*
X2662Y2069D01*
X317Y2068D02*
X325Y2068D01*
X403Y2068D02*
X411Y2068D01*
X517Y2068D02*
X525Y2068D01*
X603Y2068D02*
X611Y2068D01*
X717Y2068D02*
X725Y2068D01*
X803Y2068D02*
X811Y2068D01*
X917Y2068D02*
X925Y2068D01*
X1003Y2068D02*
X1011Y2068D01*
X1167Y2068D02*
X1175Y2068D01*
X1253Y2068D02*
X1261Y2068D01*
X1367Y2068D02*
X1375Y2068D01*
X1453Y2068D02*
X1461Y2068D01*
X1567Y2068D02*
X1575Y2068D01*
X1652Y2068D02*
X1661Y2068D01*
X1767Y2068D02*
X1775Y2068D01*
X1852Y2068D02*
X1861Y2068D01*
X1967Y2068D02*
X1975Y2068D01*
X2052Y2068D02*
X2061Y2068D01*
X2167Y2068D02*
X2175Y2068D01*
X2252Y2068D02*
X2261Y2068D01*
X2367Y2068D02*
X2375Y2068D01*
X2452Y2068D02*
X2460Y2068D01*
X2567Y2068D02*
X2575Y2068D01*
X2652Y2068D02*
X2660Y2068D01*
X318Y2067D02*
X327Y2067D01*
X402Y2067D02*
X409Y2067D01*
X518Y2067D02*
X527Y2067D01*
X602Y2067D02*
X609Y2067D01*
X718Y2067D02*
X727Y2067D01*
X802Y2067D02*
X809Y2067D01*
X918Y2067D02*
X926Y2067D01*
X1002Y2067D02*
X1009Y2067D01*
X1168Y2067D02*
X1176Y2067D01*
X1252Y2067D02*
X1259Y2067D01*
X1368Y2067D02*
X1376Y2067D01*
X1452Y2067D02*
X1459Y2067D01*
X1568Y2067D02*
X1576Y2067D01*
X1651Y2067D02*
X1659Y2067D01*
X1768Y2067D02*
X1776Y2067D01*
X1851Y2067D02*
X1859Y2067D01*
X1968Y2067D02*
X1976Y2067D01*
X2051Y2067D02*
X2059Y2067D01*
X2168Y2067D02*
X2176Y2067D01*
X2251Y2067D02*
X2259Y2067D01*
X2368Y2067D02*
X2376Y2067D01*
X2451Y2067D02*
X2459Y2067D01*
X2568Y2067D02*
X2576Y2067D01*
X2651Y2067D02*
X2659Y2067D01*
X320Y2066D02*
X327Y2066D01*
X401Y2066D02*
X408Y2066D01*
X520Y2066D02*
X527Y2066D01*
X601Y2066D02*
X608Y2066D01*
X720Y2066D02*
X727Y2066D01*
X801Y2066D02*
X808Y2066D01*
X920Y2066D02*
X927Y2066D01*
X1001Y2066D02*
X1008Y2066D01*
X1170Y2066D02*
X1177Y2066D01*
X1251Y2066D02*
X1258Y2066D01*
X1370Y2066D02*
X1377Y2066D01*
X1451Y2066D02*
X1458Y2066D01*
X1570Y2066D02*
X1577Y2066D01*
X1651Y2066D02*
X1658Y2066D01*
X1769Y2066D02*
X1777Y2066D01*
X1851Y2066D02*
X1858Y2066D01*
X1969Y2066D02*
X1977Y2066D01*
X2051Y2066D02*
X2058Y2066D01*
X2169Y2066D02*
X2177Y2066D01*
X2251Y2066D02*
X2258Y2066D01*
X2369Y2066D02*
X2377Y2066D01*
X2451Y2066D02*
X2458Y2066D01*
X2569Y2066D02*
X2577Y2066D01*
X2651Y2066D02*
X2658Y2066D01*
X321Y2065D02*
X328Y2065D01*
X401Y2065D02*
X406Y2065D01*
X521Y2065D02*
X528Y2065D01*
X601Y2065D02*
X606Y2065D01*
X721Y2065D02*
X727Y2065D01*
X801Y2065D02*
X806Y2065D01*
X921Y2065D02*
X927Y2065D01*
X1001Y2065D02*
X1006Y2065D01*
X1171Y2065D02*
X1177Y2065D01*
X1251Y2065D02*
X1256Y2065D01*
X1371Y2065D02*
X1377Y2065D01*
X1451Y2065D02*
X1456Y2065D01*
X1571Y2065D02*
X1577Y2065D01*
X1651Y2065D02*
X1656Y2065D01*
X1771Y2065D02*
X1777Y2065D01*
X1851Y2065D02*
X1856Y2065D01*
X1971Y2065D02*
X1977Y2065D01*
X2051Y2065D02*
X2056Y2065D01*
X2171Y2065D02*
X2177Y2065D01*
X2251Y2065D02*
X2256Y2065D01*
X2371Y2065D02*
X2377Y2065D01*
X2451Y2065D02*
X2456Y2065D01*
X2571Y2065D02*
X2577Y2065D01*
X2651Y2065D02*
X2656Y2065D01*
X323Y2064D02*
X327Y2064D01*
X402Y2064D02*
X405Y2064D01*
X523Y2064D02*
X527Y2064D01*
X602Y2064D02*
X605Y2064D01*
X723Y2064D02*
X727Y2064D01*
X802Y2064D02*
X805Y2064D01*
X923Y2064D02*
X927Y2064D01*
X1002Y2064D02*
X1005Y2064D01*
X1173Y2064D02*
X1177Y2064D01*
X1252Y2064D02*
X1255Y2064D01*
X1373Y2064D02*
X1377Y2064D01*
X1452Y2064D02*
X1455Y2064D01*
X1573Y2064D02*
X1577Y2064D01*
X1652Y2064D02*
X1655Y2064D01*
X1773Y2064D02*
X1777Y2064D01*
X1852Y2064D02*
X1855Y2064D01*
X1973Y2064D02*
X1977Y2064D01*
X2052Y2064D02*
X2055Y2064D01*
X2173Y2064D02*
X2177Y2064D01*
X2252Y2064D02*
X2255Y2064D01*
X2372Y2064D02*
X2377Y2064D01*
X2452Y2064D02*
X2455Y2064D01*
X2572Y2064D02*
X2577Y2064D01*
X2652Y2064D02*
X2655Y2064D01*
X324Y2063D02*
X327Y2063D01*
X524Y2063D02*
X526Y2063D01*
X724Y2063D02*
X726Y2063D01*
X924Y2063D02*
X926Y2063D01*
X1174Y2063D02*
X1176Y2063D01*
X1374Y2063D02*
X1376Y2063D01*
X1574Y2063D02*
X1576Y2063D01*
X1774Y2063D02*
X1776Y2063D01*
X1974Y2063D02*
X1976Y2063D01*
X2174Y2063D02*
X2176Y2063D01*
X2374Y2063D02*
X2376Y2063D01*
X2574Y2063D02*
X2576Y2063D01*
X2832Y1812D02*
X2863Y1812D01*
X2883Y1812D02*
X2885Y1812D01*
X2934Y1812D02*
X2959Y1812D01*
X2983Y1812D02*
X2985Y1812D01*
X2830Y1811D02*
X2863Y1811D01*
X2882Y1811D02*
X2887Y1811D01*
X2933Y1811D02*
X2960Y1811D01*
X2982Y1811D02*
X2987Y1811D01*
X2830Y1810D02*
X2863Y1810D01*
X2882Y1810D02*
X2887Y1810D01*
X2931Y1810D02*
X2961Y1810D01*
X2982Y1810D02*
X2987Y1810D01*
X2830Y1809D02*
X2863Y1809D01*
X2881Y1809D02*
X2887Y1809D01*
X2931Y1809D02*
X2962Y1809D01*
X2981Y1809D02*
X2987Y1809D01*
X2830Y1808D02*
X2863Y1808D01*
X2881Y1808D02*
X2887Y1808D01*
X2930Y1808D02*
X2963Y1808D01*
X2981Y1808D02*
X2987Y1808D01*
X2830Y1807D02*
X2863Y1807D01*
X2881Y1807D02*
X2887Y1807D01*
X2930Y1807D02*
X2963Y1807D01*
X2981Y1807D02*
X2987Y1807D01*
X2830Y1806D02*
X2863Y1806D01*
X2881Y1806D02*
X2887Y1806D01*
X2904Y1806D02*
X2906Y1806D01*
X2930Y1806D02*
X2963Y1806D01*
X2981Y1806D02*
X2987Y1806D01*
X3004Y1806D02*
X3006Y1806D01*
X2830Y1805D02*
X2836Y1805D01*
X2857Y1805D02*
X2863Y1805D01*
X2881Y1805D02*
X2887Y1805D01*
X2903Y1805D02*
X2907Y1805D01*
X2930Y1805D02*
X2936Y1805D01*
X2957Y1805D02*
X2963Y1805D01*
X2981Y1805D02*
X2987Y1805D01*
X3003Y1805D02*
X3007Y1805D01*
X2830Y1804D02*
X2835Y1804D01*
X2857Y1804D02*
X2863Y1804D01*
X2881Y1804D02*
X2887Y1804D01*
X2902Y1804D02*
X2908Y1804D01*
X2930Y1804D02*
X2936Y1804D01*
X2957Y1804D02*
X2963Y1804D01*
X2981Y1804D02*
X2987Y1804D01*
X3002Y1804D02*
X3008Y1804D01*
X2831Y1803D02*
X2834Y1803D01*
X2857Y1803D02*
X2863Y1803D01*
X2881Y1803D02*
X2887Y1803D01*
X2902Y1803D02*
X2908Y1803D01*
X2930Y1803D02*
X2936Y1803D01*
X2957Y1803D02*
X2963Y1803D01*
X2981Y1803D02*
X2987Y1803D01*
X3002Y1803D02*
X3008Y1803D01*
X2857Y1802D02*
X2863Y1802D01*
X2881Y1802D02*
X2887Y1802D01*
X2902Y1802D02*
X2908Y1802D01*
X2930Y1802D02*
X2936Y1802D01*
X2957Y1802D02*
X2963Y1802D01*
X2981Y1802D02*
X2987Y1802D01*
X3002Y1802D02*
X3008Y1802D01*
X2857Y1801D02*
X2863Y1801D01*
X2881Y1801D02*
X2887Y1801D01*
X2902Y1801D02*
X2908Y1801D01*
X2930Y1801D02*
X2936Y1801D01*
X2957Y1801D02*
X2963Y1801D01*
X2981Y1801D02*
X2987Y1801D01*
X3002Y1801D02*
X3008Y1801D01*
X2857Y1800D02*
X2863Y1800D01*
X2881Y1800D02*
X2887Y1800D01*
X2902Y1800D02*
X2908Y1800D01*
X2930Y1800D02*
X2936Y1800D01*
X2957Y1800D02*
X2963Y1800D01*
X2981Y1800D02*
X2987Y1800D01*
X3002Y1800D02*
X3008Y1800D01*
X2857Y1799D02*
X2863Y1799D01*
X2881Y1799D02*
X2887Y1799D01*
X2902Y1799D02*
X2908Y1799D01*
X2930Y1799D02*
X2936Y1799D01*
X2957Y1799D02*
X2963Y1799D01*
X2981Y1799D02*
X2987Y1799D01*
X3002Y1799D02*
X3008Y1799D01*
X2857Y1798D02*
X2863Y1798D01*
X2881Y1798D02*
X2887Y1798D01*
X2902Y1798D02*
X2908Y1798D01*
X2930Y1798D02*
X2936Y1798D01*
X2957Y1798D02*
X2963Y1798D01*
X2981Y1798D02*
X2987Y1798D01*
X3002Y1798D02*
X3008Y1798D01*
X2857Y1797D02*
X2863Y1797D01*
X2881Y1797D02*
X2887Y1797D01*
X2902Y1797D02*
X2908Y1797D01*
X2930Y1797D02*
X2936Y1797D01*
X2957Y1797D02*
X2963Y1797D01*
X2981Y1797D02*
X2987Y1797D01*
X3002Y1797D02*
X3008Y1797D01*
X2857Y1796D02*
X2863Y1796D01*
X2881Y1796D02*
X2887Y1796D01*
X2902Y1796D02*
X2908Y1796D01*
X2930Y1796D02*
X2936Y1796D01*
X2957Y1796D02*
X2963Y1796D01*
X2981Y1796D02*
X2987Y1796D01*
X3002Y1796D02*
X3008Y1796D01*
X2857Y1795D02*
X2863Y1795D01*
X2881Y1795D02*
X2887Y1795D01*
X2902Y1795D02*
X2908Y1795D01*
X2930Y1795D02*
X2936Y1795D01*
X2957Y1795D02*
X2963Y1795D01*
X2981Y1795D02*
X2987Y1795D01*
X3002Y1795D02*
X3008Y1795D01*
X2857Y1794D02*
X2863Y1794D01*
X2881Y1794D02*
X2887Y1794D01*
X2902Y1794D02*
X2908Y1794D01*
X2930Y1794D02*
X2936Y1794D01*
X2957Y1794D02*
X2963Y1794D01*
X2981Y1794D02*
X2987Y1794D01*
X3002Y1794D02*
X3008Y1794D01*
X2857Y1793D02*
X2863Y1793D01*
X2881Y1793D02*
X2887Y1793D01*
X2902Y1793D02*
X2908Y1793D01*
X2930Y1793D02*
X2936Y1793D01*
X2957Y1793D02*
X2963Y1793D01*
X2981Y1793D02*
X2987Y1793D01*
X3002Y1793D02*
X3008Y1793D01*
X2856Y1792D02*
X2863Y1792D01*
X2881Y1792D02*
X2887Y1792D01*
X2902Y1792D02*
X2908Y1792D01*
X2930Y1792D02*
X2936Y1792D01*
X2957Y1792D02*
X2963Y1792D01*
X2981Y1792D02*
X2987Y1792D01*
X3002Y1792D02*
X3008Y1792D01*
X2855Y1791D02*
X2863Y1791D01*
X2881Y1791D02*
X2887Y1791D01*
X2902Y1791D02*
X2908Y1791D01*
X2930Y1791D02*
X2936Y1791D01*
X2957Y1791D02*
X2963Y1791D01*
X2981Y1791D02*
X2987Y1791D01*
X3002Y1791D02*
X3008Y1791D01*
X2854Y1790D02*
X2863Y1790D01*
X2881Y1790D02*
X2887Y1790D01*
X2902Y1790D02*
X2908Y1790D01*
X2930Y1790D02*
X2936Y1790D01*
X2957Y1790D02*
X2963Y1790D01*
X2981Y1790D02*
X2987Y1790D01*
X3002Y1790D02*
X3008Y1790D01*
X2853Y1789D02*
X2862Y1789D01*
X2881Y1789D02*
X2887Y1789D01*
X2902Y1789D02*
X2908Y1789D01*
X2930Y1789D02*
X2936Y1789D01*
X2957Y1789D02*
X2963Y1789D01*
X2981Y1789D02*
X2987Y1789D01*
X3002Y1789D02*
X3008Y1789D01*
X2852Y1788D02*
X2861Y1788D01*
X2881Y1788D02*
X2887Y1788D01*
X2902Y1788D02*
X2908Y1788D01*
X2930Y1788D02*
X2936Y1788D01*
X2957Y1788D02*
X2963Y1788D01*
X2981Y1788D02*
X2987Y1788D01*
X3002Y1788D02*
X3008Y1788D01*
X2850Y1787D02*
X2860Y1787D01*
X2881Y1787D02*
X2887Y1787D01*
X2902Y1787D02*
X2908Y1787D01*
X2930Y1787D02*
X2936Y1787D01*
X2957Y1787D02*
X2963Y1787D01*
X2981Y1787D02*
X2987Y1787D01*
X3002Y1787D02*
X3008Y1787D01*
X2849Y1786D02*
X2859Y1786D01*
X2881Y1786D02*
X2887Y1786D01*
X2902Y1786D02*
X2908Y1786D01*
X2930Y1786D02*
X2936Y1786D01*
X2957Y1786D02*
X2963Y1786D01*
X2981Y1786D02*
X2987Y1786D01*
X3002Y1786D02*
X3008Y1786D01*
X2848Y1785D02*
X2858Y1785D01*
X2881Y1785D02*
X2887Y1785D01*
X2902Y1785D02*
X2908Y1785D01*
X2930Y1785D02*
X2936Y1785D01*
X2957Y1785D02*
X2963Y1785D01*
X2981Y1785D02*
X2987Y1785D01*
X3002Y1785D02*
X3008Y1785D01*
X2847Y1784D02*
X2857Y1784D01*
X2881Y1784D02*
X2887Y1784D01*
X2902Y1784D02*
X2908Y1784D01*
X2930Y1784D02*
X2936Y1784D01*
X2957Y1784D02*
X2963Y1784D01*
X2981Y1784D02*
X2987Y1784D01*
X3002Y1784D02*
X3008Y1784D01*
X2846Y1783D02*
X2856Y1783D01*
X2881Y1783D02*
X2888Y1783D01*
X2902Y1783D02*
X2908Y1783D01*
X2930Y1783D02*
X2936Y1783D01*
X2957Y1783D02*
X2963Y1783D01*
X2981Y1783D02*
X2988Y1783D01*
X3002Y1783D02*
X3008Y1783D01*
X2845Y1782D02*
X2854Y1782D01*
X2881Y1782D02*
X2910Y1782D01*
X2930Y1782D02*
X2936Y1782D01*
X2957Y1782D02*
X2963Y1782D01*
X2981Y1782D02*
X3010Y1782D01*
X2844Y1781D02*
X2853Y1781D01*
X2881Y1781D02*
X2911Y1781D01*
X2930Y1781D02*
X2936Y1781D01*
X2957Y1781D02*
X2963Y1781D01*
X2981Y1781D02*
X3011Y1781D01*
X2844Y1780D02*
X2852Y1780D01*
X2881Y1780D02*
X2911Y1780D01*
X2930Y1780D02*
X2936Y1780D01*
X2957Y1780D02*
X2963Y1780D01*
X2981Y1780D02*
X3011Y1780D01*
X2843Y1779D02*
X2851Y1779D01*
X2881Y1779D02*
X2911Y1779D01*
X2930Y1779D02*
X2936Y1779D01*
X2957Y1779D02*
X2963Y1779D01*
X2981Y1779D02*
X3011Y1779D01*
X2843Y1778D02*
X2850Y1778D01*
X2881Y1778D02*
X2911Y1778D01*
X2930Y1778D02*
X2936Y1778D01*
X2957Y1778D02*
X2963Y1778D01*
X2981Y1778D02*
X3011Y1778D01*
X2843Y1777D02*
X2849Y1777D01*
X2881Y1777D02*
X2910Y1777D01*
X2930Y1777D02*
X2936Y1777D01*
X2957Y1777D02*
X2963Y1777D01*
X2981Y1777D02*
X3010Y1777D01*
X2843Y1776D02*
X2849Y1776D01*
X2882Y1776D02*
X2908Y1776D01*
X2930Y1776D02*
X2936Y1776D01*
X2957Y1776D02*
X2963Y1776D01*
X2982Y1776D02*
X3008Y1776D01*
X2843Y1775D02*
X2849Y1775D01*
X2902Y1775D02*
X2908Y1775D01*
X2930Y1775D02*
X2936Y1775D01*
X2957Y1775D02*
X2963Y1775D01*
X3002Y1775D02*
X3008Y1775D01*
X2843Y1774D02*
X2849Y1774D01*
X2902Y1774D02*
X2908Y1774D01*
X2930Y1774D02*
X2936Y1774D01*
X2957Y1774D02*
X2963Y1774D01*
X3002Y1774D02*
X3008Y1774D01*
X2843Y1773D02*
X2849Y1773D01*
X2902Y1773D02*
X2908Y1773D01*
X2930Y1773D02*
X2936Y1773D01*
X2957Y1773D02*
X2963Y1773D01*
X3002Y1773D02*
X3008Y1773D01*
X2843Y1772D02*
X2849Y1772D01*
X2902Y1772D02*
X2908Y1772D01*
X2930Y1772D02*
X2936Y1772D01*
X2957Y1772D02*
X2963Y1772D01*
X3002Y1772D02*
X3008Y1772D01*
X2843Y1771D02*
X2849Y1771D01*
X2902Y1771D02*
X2908Y1771D01*
X2930Y1771D02*
X2936Y1771D01*
X2957Y1771D02*
X2963Y1771D01*
X3002Y1771D02*
X3008Y1771D01*
X2843Y1770D02*
X2849Y1770D01*
X2902Y1770D02*
X2908Y1770D01*
X2930Y1770D02*
X2936Y1770D01*
X2957Y1770D02*
X2963Y1770D01*
X3002Y1770D02*
X3008Y1770D01*
X2843Y1769D02*
X2849Y1769D01*
X2902Y1769D02*
X2908Y1769D01*
X2930Y1769D02*
X2936Y1769D01*
X2957Y1769D02*
X2963Y1769D01*
X3002Y1769D02*
X3008Y1769D01*
X2843Y1768D02*
X2849Y1768D01*
X2902Y1768D02*
X2908Y1768D01*
X2930Y1768D02*
X2936Y1768D01*
X2957Y1768D02*
X2963Y1768D01*
X3002Y1768D02*
X3008Y1768D01*
X2843Y1767D02*
X2849Y1767D01*
X2902Y1767D02*
X2908Y1767D01*
X2930Y1767D02*
X2936Y1767D01*
X2957Y1767D02*
X2963Y1767D01*
X3002Y1767D02*
X3008Y1767D01*
X2843Y1766D02*
X2849Y1766D01*
X2902Y1766D02*
X2908Y1766D01*
X2930Y1766D02*
X2936Y1766D01*
X2957Y1766D02*
X2963Y1766D01*
X3002Y1766D02*
X3008Y1766D01*
X2843Y1765D02*
X2849Y1765D01*
X2902Y1765D02*
X2908Y1765D01*
X2930Y1765D02*
X2963Y1765D01*
X3002Y1765D02*
X3008Y1765D01*
X2843Y1764D02*
X2849Y1764D01*
X2902Y1764D02*
X2908Y1764D01*
X2930Y1764D02*
X2963Y1764D01*
X3002Y1764D02*
X3008Y1764D01*
X2843Y1763D02*
X2849Y1763D01*
X2902Y1763D02*
X2908Y1763D01*
X2930Y1763D02*
X2963Y1763D01*
X3002Y1763D02*
X3008Y1763D01*
X2843Y1762D02*
X2849Y1762D01*
X2902Y1762D02*
X2908Y1762D01*
X2931Y1762D02*
X2962Y1762D01*
X3002Y1762D02*
X3008Y1762D01*
X2844Y1761D02*
X2849Y1761D01*
X2902Y1761D02*
X2908Y1761D01*
X2931Y1761D02*
X2962Y1761D01*
X3002Y1761D02*
X3008Y1761D01*
X2844Y1760D02*
X2849Y1760D01*
X2903Y1760D02*
X2908Y1760D01*
X2932Y1760D02*
X2961Y1760D01*
X3003Y1760D02*
X3007Y1760D01*
X2845Y1759D02*
X2848Y1759D01*
X2904Y1759D02*
X2907Y1759D01*
X2934Y1759D02*
X2959Y1759D01*
X3004Y1759D02*
X3007Y1759D01*
X3574Y1526D02*
X3606Y1526D01*
X3626Y1526D02*
X3628Y1526D01*
X3674Y1526D02*
X3701Y1526D01*
X3726Y1526D02*
X3728Y1526D01*
X3779Y1526D02*
X3804Y1526D01*
X3573Y1525D02*
X3606Y1525D01*
X3625Y1525D02*
X3629Y1525D01*
X3673Y1525D02*
X3703Y1525D01*
X3725Y1525D02*
X3729Y1525D01*
X3779Y1525D02*
X3805Y1525D01*
X3572Y1524D02*
X3606Y1524D01*
X3624Y1524D02*
X3630Y1524D01*
X3672Y1524D02*
X3704Y1524D01*
X3724Y1524D02*
X3730Y1524D01*
X3779Y1524D02*
X3806Y1524D01*
X3572Y1523D02*
X3606Y1523D01*
X3624Y1523D02*
X3630Y1523D01*
X3672Y1523D02*
X3705Y1523D01*
X3724Y1523D02*
X3730Y1523D01*
X3779Y1523D02*
X3806Y1523D01*
X3572Y1522D02*
X3606Y1522D01*
X3624Y1522D02*
X3630Y1522D01*
X3672Y1522D02*
X3705Y1522D01*
X3724Y1522D02*
X3730Y1522D01*
X3779Y1522D02*
X3806Y1522D01*
X3572Y1521D02*
X3606Y1521D01*
X3624Y1521D02*
X3630Y1521D01*
X3673Y1521D02*
X3706Y1521D01*
X3724Y1521D02*
X3730Y1521D01*
X3779Y1521D02*
X3805Y1521D01*
X3572Y1520D02*
X3606Y1520D01*
X3624Y1520D02*
X3630Y1520D01*
X3646Y1520D02*
X3649Y1520D01*
X3674Y1520D02*
X3706Y1520D01*
X3724Y1520D02*
X3730Y1520D01*
X3746Y1520D02*
X3749Y1520D01*
X3779Y1520D02*
X3804Y1520D01*
X3573Y1519D02*
X3578Y1519D01*
X3600Y1519D02*
X3606Y1519D01*
X3624Y1519D02*
X3630Y1519D01*
X3645Y1519D02*
X3650Y1519D01*
X3700Y1519D02*
X3706Y1519D01*
X3724Y1519D02*
X3730Y1519D01*
X3745Y1519D02*
X3750Y1519D01*
X3779Y1519D02*
X3785Y1519D01*
X3573Y1518D02*
X3578Y1518D01*
X3600Y1518D02*
X3606Y1518D01*
X3624Y1518D02*
X3630Y1518D01*
X3645Y1518D02*
X3650Y1518D01*
X3700Y1518D02*
X3706Y1518D01*
X3724Y1518D02*
X3730Y1518D01*
X3745Y1518D02*
X3750Y1518D01*
X3779Y1518D02*
X3785Y1518D01*
X3574Y1517D02*
X3576Y1517D01*
X3600Y1517D02*
X3606Y1517D01*
X3624Y1517D02*
X3630Y1517D01*
X3645Y1517D02*
X3651Y1517D01*
X3700Y1517D02*
X3706Y1517D01*
X3724Y1517D02*
X3730Y1517D01*
X3745Y1517D02*
X3751Y1517D01*
X3779Y1517D02*
X3785Y1517D01*
X3600Y1516D02*
X3606Y1516D01*
X3624Y1516D02*
X3630Y1516D01*
X3645Y1516D02*
X3651Y1516D01*
X3700Y1516D02*
X3706Y1516D01*
X3724Y1516D02*
X3730Y1516D01*
X3745Y1516D02*
X3751Y1516D01*
X3779Y1516D02*
X3785Y1516D01*
X3600Y1515D02*
X3606Y1515D01*
X3624Y1515D02*
X3630Y1515D01*
X3645Y1515D02*
X3651Y1515D01*
X3700Y1515D02*
X3706Y1515D01*
X3724Y1515D02*
X3730Y1515D01*
X3745Y1515D02*
X3751Y1515D01*
X3779Y1515D02*
X3785Y1515D01*
X3600Y1514D02*
X3606Y1514D01*
X3624Y1514D02*
X3630Y1514D01*
X3645Y1514D02*
X3651Y1514D01*
X3700Y1514D02*
X3706Y1514D01*
X3724Y1514D02*
X3730Y1514D01*
X3745Y1514D02*
X3751Y1514D01*
X3779Y1514D02*
X3785Y1514D01*
X3600Y1513D02*
X3606Y1513D01*
X3624Y1513D02*
X3630Y1513D01*
X3645Y1513D02*
X3651Y1513D01*
X3700Y1513D02*
X3706Y1513D01*
X3724Y1513D02*
X3730Y1513D01*
X3745Y1513D02*
X3751Y1513D01*
X3779Y1513D02*
X3785Y1513D01*
X3600Y1512D02*
X3606Y1512D01*
X3624Y1512D02*
X3630Y1512D01*
X3645Y1512D02*
X3651Y1512D01*
X3700Y1512D02*
X3706Y1512D01*
X3724Y1512D02*
X3730Y1512D01*
X3745Y1512D02*
X3751Y1512D01*
X3779Y1512D02*
X3785Y1512D01*
X3600Y1511D02*
X3606Y1511D01*
X3624Y1511D02*
X3630Y1511D01*
X3645Y1511D02*
X3651Y1511D01*
X3700Y1511D02*
X3706Y1511D01*
X3724Y1511D02*
X3730Y1511D01*
X3745Y1511D02*
X3751Y1511D01*
X3779Y1511D02*
X3785Y1511D01*
X3600Y1510D02*
X3606Y1510D01*
X3624Y1510D02*
X3630Y1510D01*
X3645Y1510D02*
X3651Y1510D01*
X3700Y1510D02*
X3706Y1510D01*
X3724Y1510D02*
X3730Y1510D01*
X3745Y1510D02*
X3751Y1510D01*
X3779Y1510D02*
X3785Y1510D01*
X3600Y1509D02*
X3606Y1509D01*
X3624Y1509D02*
X3630Y1509D01*
X3645Y1509D02*
X3651Y1509D01*
X3700Y1509D02*
X3706Y1509D01*
X3724Y1509D02*
X3730Y1509D01*
X3745Y1509D02*
X3751Y1509D01*
X3779Y1509D02*
X3785Y1509D01*
X3600Y1508D02*
X3606Y1508D01*
X3624Y1508D02*
X3630Y1508D01*
X3645Y1508D02*
X3651Y1508D01*
X3700Y1508D02*
X3706Y1508D01*
X3724Y1508D02*
X3730Y1508D01*
X3745Y1508D02*
X3751Y1508D01*
X3779Y1508D02*
X3785Y1508D01*
X3600Y1507D02*
X3606Y1507D01*
X3624Y1507D02*
X3630Y1507D01*
X3645Y1507D02*
X3651Y1507D01*
X3700Y1507D02*
X3706Y1507D01*
X3724Y1507D02*
X3730Y1507D01*
X3745Y1507D02*
X3751Y1507D01*
X3779Y1507D02*
X3785Y1507D01*
X3599Y1506D02*
X3606Y1506D01*
X3624Y1506D02*
X3630Y1506D01*
X3645Y1506D02*
X3651Y1506D01*
X3700Y1506D02*
X3706Y1506D01*
X3724Y1506D02*
X3730Y1506D01*
X3745Y1506D02*
X3751Y1506D01*
X3779Y1506D02*
X3785Y1506D01*
X3598Y1505D02*
X3606Y1505D01*
X3624Y1505D02*
X3630Y1505D01*
X3645Y1505D02*
X3651Y1505D01*
X3700Y1505D02*
X3706Y1505D01*
X3724Y1505D02*
X3730Y1505D01*
X3745Y1505D02*
X3751Y1505D01*
X3779Y1505D02*
X3785Y1505D01*
X3596Y1504D02*
X3606Y1504D01*
X3624Y1504D02*
X3630Y1504D01*
X3645Y1504D02*
X3651Y1504D01*
X3700Y1504D02*
X3706Y1504D01*
X3724Y1504D02*
X3730Y1504D01*
X3745Y1504D02*
X3751Y1504D01*
X3779Y1504D02*
X3785Y1504D01*
X3595Y1503D02*
X3605Y1503D01*
X3624Y1503D02*
X3630Y1503D01*
X3645Y1503D02*
X3651Y1503D01*
X3699Y1503D02*
X3706Y1503D01*
X3724Y1503D02*
X3730Y1503D01*
X3745Y1503D02*
X3751Y1503D01*
X3779Y1503D02*
X3786Y1503D01*
X3594Y1502D02*
X3604Y1502D01*
X3624Y1502D02*
X3630Y1502D01*
X3645Y1502D02*
X3651Y1502D01*
X3676Y1502D02*
X3706Y1502D01*
X3724Y1502D02*
X3730Y1502D01*
X3745Y1502D02*
X3751Y1502D01*
X3779Y1502D02*
X3802Y1502D01*
X3593Y1501D02*
X3603Y1501D01*
X3624Y1501D02*
X3630Y1501D01*
X3645Y1501D02*
X3651Y1501D01*
X3675Y1501D02*
X3706Y1501D01*
X3724Y1501D02*
X3730Y1501D01*
X3745Y1501D02*
X3751Y1501D01*
X3779Y1501D02*
X3804Y1501D01*
X3592Y1500D02*
X3602Y1500D01*
X3624Y1500D02*
X3630Y1500D01*
X3645Y1500D02*
X3651Y1500D01*
X3674Y1500D02*
X3705Y1500D01*
X3724Y1500D02*
X3730Y1500D01*
X3745Y1500D02*
X3751Y1500D01*
X3779Y1500D02*
X3804Y1500D01*
X3591Y1499D02*
X3600Y1499D01*
X3624Y1499D02*
X3630Y1499D01*
X3645Y1499D02*
X3651Y1499D01*
X3673Y1499D02*
X3705Y1499D01*
X3724Y1499D02*
X3730Y1499D01*
X3745Y1499D02*
X3751Y1499D01*
X3779Y1499D02*
X3805Y1499D01*
X3589Y1498D02*
X3599Y1498D01*
X3624Y1498D02*
X3630Y1498D01*
X3645Y1498D02*
X3651Y1498D01*
X3673Y1498D02*
X3704Y1498D01*
X3724Y1498D02*
X3730Y1498D01*
X3745Y1498D02*
X3751Y1498D01*
X3779Y1498D02*
X3805Y1498D01*
X3588Y1497D02*
X3598Y1497D01*
X3624Y1497D02*
X3651Y1497D01*
X3672Y1497D02*
X3702Y1497D01*
X3724Y1497D02*
X3751Y1497D01*
X3779Y1497D02*
X3806Y1497D01*
X3587Y1496D02*
X3597Y1496D01*
X3624Y1496D02*
X3653Y1496D01*
X3672Y1496D02*
X3699Y1496D01*
X3724Y1496D02*
X3753Y1496D01*
X3780Y1496D02*
X3806Y1496D01*
X3586Y1495D02*
X3596Y1495D01*
X3624Y1495D02*
X3654Y1495D01*
X3672Y1495D02*
X3678Y1495D01*
X3724Y1495D02*
X3754Y1495D01*
X3800Y1495D02*
X3806Y1495D01*
X3586Y1494D02*
X3594Y1494D01*
X3624Y1494D02*
X3654Y1494D01*
X3672Y1494D02*
X3678Y1494D01*
X3724Y1494D02*
X3754Y1494D01*
X3800Y1494D02*
X3806Y1494D01*
X3586Y1493D02*
X3593Y1493D01*
X3624Y1493D02*
X3654Y1493D01*
X3672Y1493D02*
X3678Y1493D01*
X3724Y1493D02*
X3754Y1493D01*
X3800Y1493D02*
X3806Y1493D01*
X3586Y1492D02*
X3592Y1492D01*
X3624Y1492D02*
X3654Y1492D01*
X3672Y1492D02*
X3678Y1492D01*
X3724Y1492D02*
X3754Y1492D01*
X3800Y1492D02*
X3806Y1492D01*
X3586Y1491D02*
X3592Y1491D01*
X3624Y1491D02*
X3653Y1491D01*
X3672Y1491D02*
X3678Y1491D01*
X3724Y1491D02*
X3753Y1491D01*
X3800Y1491D02*
X3806Y1491D01*
X3586Y1490D02*
X3592Y1490D01*
X3644Y1490D02*
X3651Y1490D01*
X3672Y1490D02*
X3678Y1490D01*
X3744Y1490D02*
X3751Y1490D01*
X3800Y1490D02*
X3806Y1490D01*
X3586Y1489D02*
X3592Y1489D01*
X3645Y1489D02*
X3651Y1489D01*
X3672Y1489D02*
X3678Y1489D01*
X3745Y1489D02*
X3751Y1489D01*
X3800Y1489D02*
X3806Y1489D01*
X3586Y1488D02*
X3592Y1488D01*
X3645Y1488D02*
X3651Y1488D01*
X3672Y1488D02*
X3678Y1488D01*
X3745Y1488D02*
X3751Y1488D01*
X3800Y1488D02*
X3806Y1488D01*
X3586Y1487D02*
X3592Y1487D01*
X3645Y1487D02*
X3651Y1487D01*
X3672Y1487D02*
X3678Y1487D01*
X3745Y1487D02*
X3751Y1487D01*
X3800Y1487D02*
X3806Y1487D01*
X3586Y1486D02*
X3592Y1486D01*
X3645Y1486D02*
X3651Y1486D01*
X3672Y1486D02*
X3678Y1486D01*
X3745Y1486D02*
X3751Y1486D01*
X3800Y1486D02*
X3806Y1486D01*
X3586Y1485D02*
X3592Y1485D01*
X3645Y1485D02*
X3651Y1485D01*
X3672Y1485D02*
X3678Y1485D01*
X3745Y1485D02*
X3751Y1485D01*
X3800Y1485D02*
X3806Y1485D01*
X3586Y1484D02*
X3592Y1484D01*
X3645Y1484D02*
X3651Y1484D01*
X3672Y1484D02*
X3678Y1484D01*
X3745Y1484D02*
X3751Y1484D01*
X3800Y1484D02*
X3806Y1484D01*
X3586Y1483D02*
X3592Y1483D01*
X3645Y1483D02*
X3651Y1483D01*
X3672Y1483D02*
X3678Y1483D01*
X3745Y1483D02*
X3751Y1483D01*
X3800Y1483D02*
X3806Y1483D01*
X3586Y1482D02*
X3592Y1482D01*
X3645Y1482D02*
X3651Y1482D01*
X3672Y1482D02*
X3678Y1482D01*
X3745Y1482D02*
X3751Y1482D01*
X3774Y1482D02*
X3776Y1482D01*
X3800Y1482D02*
X3806Y1482D01*
X3586Y1481D02*
X3592Y1481D01*
X3645Y1481D02*
X3651Y1481D01*
X3672Y1481D02*
X3678Y1481D01*
X3745Y1481D02*
X3751Y1481D01*
X3773Y1481D02*
X3779Y1481D01*
X3800Y1481D02*
X3806Y1481D01*
X3586Y1480D02*
X3592Y1480D01*
X3645Y1480D02*
X3651Y1480D01*
X3672Y1480D02*
X3678Y1480D01*
X3745Y1480D02*
X3751Y1480D01*
X3773Y1480D02*
X3781Y1480D01*
X3800Y1480D02*
X3806Y1480D01*
X3586Y1479D02*
X3592Y1479D01*
X3645Y1479D02*
X3651Y1479D01*
X3672Y1479D02*
X3704Y1479D01*
X3745Y1479D02*
X3751Y1479D01*
X3772Y1479D02*
X3806Y1479D01*
X3586Y1478D02*
X3592Y1478D01*
X3645Y1478D02*
X3651Y1478D01*
X3672Y1478D02*
X3705Y1478D01*
X3745Y1478D02*
X3751Y1478D01*
X3772Y1478D02*
X3806Y1478D01*
X3586Y1477D02*
X3592Y1477D01*
X3645Y1477D02*
X3651Y1477D01*
X3672Y1477D02*
X3706Y1477D01*
X3745Y1477D02*
X3751Y1477D01*
X3773Y1477D02*
X3805Y1477D01*
X3586Y1476D02*
X3592Y1476D01*
X3645Y1476D02*
X3651Y1476D01*
X3672Y1476D02*
X3706Y1476D01*
X3745Y1476D02*
X3751Y1476D01*
X3774Y1476D02*
X3805Y1476D01*
X3586Y1475D02*
X3592Y1475D01*
X3645Y1475D02*
X3650Y1475D01*
X3672Y1475D02*
X3706Y1475D01*
X3745Y1475D02*
X3750Y1475D01*
X3776Y1475D02*
X3804Y1475D01*
X3587Y1474D02*
X3591Y1474D01*
X3645Y1474D02*
X3650Y1474D01*
X3672Y1474D02*
X3705Y1474D01*
X3745Y1474D02*
X3750Y1474D01*
X3778Y1474D02*
X3803Y1474D01*
X3588Y1473D02*
X3590Y1473D01*
X3646Y1473D02*
X3649Y1473D01*
X3672Y1473D02*
X3704Y1473D01*
X3746Y1473D02*
X3749Y1473D01*
X3780Y1473D02*
X3802Y1473D01*
X4042Y1310D02*
X4067Y1310D01*
X4108Y1310D02*
X4109Y1310D01*
X4142Y1310D02*
X4149Y1310D01*
X4167Y1310D02*
X4175Y1310D01*
X4257Y1310D02*
X4260Y1310D01*
X4042Y1309D02*
X4070Y1309D01*
X4106Y1309D02*
X4111Y1309D01*
X4142Y1309D02*
X4150Y1309D01*
X4166Y1309D02*
X4175Y1309D01*
X4254Y1309D02*
X4262Y1309D01*
X4042Y1308D02*
X4071Y1308D01*
X4106Y1308D02*
X4111Y1308D01*
X4142Y1308D02*
X4151Y1308D01*
X4166Y1308D02*
X4175Y1308D01*
X4253Y1308D02*
X4264Y1308D01*
X4042Y1307D02*
X4072Y1307D01*
X4105Y1307D02*
X4111Y1307D01*
X4142Y1307D02*
X4152Y1307D01*
X4165Y1307D02*
X4175Y1307D01*
X4252Y1307D02*
X4265Y1307D01*
X4042Y1306D02*
X4073Y1306D01*
X4105Y1306D02*
X4112Y1306D01*
X4142Y1306D02*
X4152Y1306D01*
X4164Y1306D02*
X4175Y1306D01*
X4251Y1306D02*
X4265Y1306D01*
X4042Y1305D02*
X4074Y1305D01*
X4105Y1305D02*
X4112Y1305D01*
X4142Y1305D02*
X4153Y1305D01*
X4164Y1305D02*
X4175Y1305D01*
X4251Y1305D02*
X4266Y1305D01*
X4042Y1304D02*
X4074Y1304D01*
X4104Y1304D02*
X4112Y1304D01*
X4142Y1304D02*
X4154Y1304D01*
X4163Y1304D02*
X4175Y1304D01*
X4250Y1304D02*
X4267Y1304D01*
X4042Y1303D02*
X4048Y1303D01*
X4067Y1303D02*
X4075Y1303D01*
X4104Y1303D02*
X4113Y1303D01*
X4142Y1303D02*
X4154Y1303D01*
X4162Y1303D02*
X4175Y1303D01*
X4250Y1303D02*
X4257Y1303D01*
X4260Y1303D02*
X4267Y1303D01*
X4042Y1302D02*
X4048Y1302D01*
X4068Y1302D02*
X4075Y1302D01*
X4104Y1302D02*
X4113Y1302D01*
X4142Y1302D02*
X4155Y1302D01*
X4162Y1302D02*
X4175Y1302D01*
X4249Y1302D02*
X4256Y1302D01*
X4261Y1302D02*
X4268Y1302D01*
X4042Y1301D02*
X4048Y1301D01*
X4069Y1301D02*
X4075Y1301D01*
X4104Y1301D02*
X4113Y1301D01*
X4142Y1301D02*
X4156Y1301D01*
X4161Y1301D02*
X4175Y1301D01*
X4249Y1301D02*
X4256Y1301D01*
X4261Y1301D02*
X4268Y1301D01*
X4042Y1300D02*
X4048Y1300D01*
X4069Y1300D02*
X4075Y1300D01*
X4103Y1300D02*
X4113Y1300D01*
X4142Y1300D02*
X4157Y1300D01*
X4160Y1300D02*
X4175Y1300D01*
X4248Y1300D02*
X4255Y1300D01*
X4262Y1300D02*
X4269Y1300D01*
X4042Y1299D02*
X4048Y1299D01*
X4069Y1299D02*
X4075Y1299D01*
X4103Y1299D02*
X4114Y1299D01*
X4142Y1299D02*
X4148Y1299D01*
X4150Y1299D02*
X4157Y1299D01*
X4160Y1299D02*
X4167Y1299D01*
X4169Y1299D02*
X4175Y1299D01*
X4248Y1299D02*
X4254Y1299D01*
X4262Y1299D02*
X4269Y1299D01*
X4042Y1298D02*
X4048Y1298D01*
X4069Y1298D02*
X4075Y1298D01*
X4103Y1298D02*
X4114Y1298D01*
X4142Y1298D02*
X4148Y1298D01*
X4150Y1298D02*
X4166Y1298D01*
X4169Y1298D02*
X4175Y1298D01*
X4247Y1298D02*
X4254Y1298D01*
X4263Y1298D02*
X4270Y1298D01*
X4042Y1297D02*
X4048Y1297D01*
X4069Y1297D02*
X4075Y1297D01*
X4102Y1297D02*
X4114Y1297D01*
X4142Y1297D02*
X4148Y1297D01*
X4151Y1297D02*
X4166Y1297D01*
X4169Y1297D02*
X4175Y1297D01*
X4247Y1297D02*
X4253Y1297D01*
X4263Y1297D02*
X4270Y1297D01*
X4042Y1296D02*
X4048Y1296D01*
X4069Y1296D02*
X4075Y1296D01*
X4102Y1296D02*
X4115Y1296D01*
X4142Y1296D02*
X4148Y1296D01*
X4152Y1296D02*
X4165Y1296D01*
X4169Y1296D02*
X4175Y1296D01*
X4246Y1296D02*
X4253Y1296D01*
X4264Y1296D02*
X4271Y1296D01*
X4042Y1295D02*
X4048Y1295D01*
X4069Y1295D02*
X4075Y1295D01*
X4102Y1295D02*
X4115Y1295D01*
X4142Y1295D02*
X4148Y1295D01*
X4152Y1295D02*
X4164Y1295D01*
X4169Y1295D02*
X4175Y1295D01*
X4246Y1295D02*
X4252Y1295D01*
X4264Y1295D02*
X4271Y1295D01*
X4293Y1295D02*
X4296Y1295D01*
X4321Y1295D02*
X4323Y1295D01*
X4042Y1294D02*
X4048Y1294D01*
X4068Y1294D02*
X4075Y1294D01*
X4101Y1294D02*
X4115Y1294D01*
X4142Y1294D02*
X4148Y1294D01*
X4153Y1294D02*
X4164Y1294D01*
X4169Y1294D02*
X4175Y1294D01*
X4245Y1294D02*
X4252Y1294D01*
X4265Y1294D02*
X4272Y1294D01*
X4292Y1294D02*
X4297Y1294D01*
X4320Y1294D02*
X4324Y1294D01*
X4042Y1293D02*
X4048Y1293D01*
X4067Y1293D02*
X4075Y1293D01*
X4101Y1293D02*
X4107Y1293D01*
X4109Y1293D02*
X4116Y1293D01*
X4142Y1293D02*
X4148Y1293D01*
X4154Y1293D02*
X4163Y1293D01*
X4169Y1293D02*
X4175Y1293D01*
X4245Y1293D02*
X4251Y1293D01*
X4265Y1293D02*
X4272Y1293D01*
X4292Y1293D02*
X4297Y1293D01*
X4319Y1293D02*
X4325Y1293D01*
X4042Y1292D02*
X4074Y1292D01*
X4101Y1292D02*
X4107Y1292D01*
X4109Y1292D02*
X4116Y1292D01*
X4142Y1292D02*
X4148Y1292D01*
X4155Y1292D02*
X4162Y1292D01*
X4169Y1292D02*
X4175Y1292D01*
X4244Y1292D02*
X4251Y1292D01*
X4266Y1292D02*
X4273Y1292D01*
X4292Y1292D02*
X4298Y1292D01*
X4319Y1292D02*
X4325Y1292D01*
X4042Y1291D02*
X4074Y1291D01*
X4101Y1291D02*
X4107Y1291D01*
X4110Y1291D02*
X4116Y1291D01*
X4142Y1291D02*
X4148Y1291D01*
X4155Y1291D02*
X4161Y1291D01*
X4169Y1291D02*
X4175Y1291D01*
X4244Y1291D02*
X4250Y1291D01*
X4266Y1291D02*
X4273Y1291D01*
X4292Y1291D02*
X4298Y1291D01*
X4319Y1291D02*
X4325Y1291D01*
X4042Y1290D02*
X4073Y1290D01*
X4100Y1290D02*
X4107Y1290D01*
X4110Y1290D02*
X4116Y1290D01*
X4142Y1290D02*
X4148Y1290D01*
X4155Y1290D02*
X4161Y1290D01*
X4169Y1290D02*
X4175Y1290D01*
X4243Y1290D02*
X4250Y1290D01*
X4267Y1290D02*
X4274Y1290D01*
X4292Y1290D02*
X4298Y1290D01*
X4319Y1290D02*
X4325Y1290D01*
X4042Y1289D02*
X4072Y1289D01*
X4100Y1289D02*
X4106Y1289D01*
X4110Y1289D02*
X4117Y1289D01*
X4142Y1289D02*
X4148Y1289D01*
X4155Y1289D02*
X4161Y1289D01*
X4169Y1289D02*
X4175Y1289D01*
X4243Y1289D02*
X4249Y1289D01*
X4267Y1289D02*
X4274Y1289D01*
X4292Y1289D02*
X4298Y1289D01*
X4319Y1289D02*
X4325Y1289D01*
X4042Y1288D02*
X4071Y1288D01*
X4100Y1288D02*
X4106Y1288D01*
X4111Y1288D02*
X4117Y1288D01*
X4142Y1288D02*
X4148Y1288D01*
X4156Y1288D02*
X4161Y1288D01*
X4169Y1288D02*
X4175Y1288D01*
X4242Y1288D02*
X4249Y1288D01*
X4268Y1288D02*
X4274Y1288D01*
X4292Y1288D02*
X4298Y1288D01*
X4319Y1288D02*
X4325Y1288D01*
X4042Y1287D02*
X4070Y1287D01*
X4099Y1287D02*
X4106Y1287D01*
X4111Y1287D02*
X4117Y1287D01*
X4142Y1287D02*
X4148Y1287D01*
X4156Y1287D02*
X4161Y1287D01*
X4169Y1287D02*
X4175Y1287D01*
X4242Y1287D02*
X4248Y1287D01*
X4268Y1287D02*
X4275Y1287D01*
X4292Y1287D02*
X4298Y1287D01*
X4319Y1287D02*
X4325Y1287D01*
X4042Y1286D02*
X4068Y1286D01*
X4099Y1286D02*
X4105Y1286D01*
X4111Y1286D02*
X4118Y1286D01*
X4142Y1286D02*
X4148Y1286D01*
X4157Y1286D02*
X4159Y1286D01*
X4169Y1286D02*
X4175Y1286D01*
X4242Y1286D02*
X4248Y1286D01*
X4269Y1286D02*
X4275Y1286D01*
X4292Y1286D02*
X4298Y1286D01*
X4319Y1286D02*
X4325Y1286D01*
X4042Y1285D02*
X4048Y1285D01*
X4054Y1285D02*
X4061Y1285D01*
X4099Y1285D02*
X4105Y1285D01*
X4112Y1285D02*
X4118Y1285D01*
X4142Y1285D02*
X4148Y1285D01*
X4169Y1285D02*
X4175Y1285D01*
X4242Y1285D02*
X4248Y1285D01*
X4269Y1285D02*
X4275Y1285D01*
X4292Y1285D02*
X4298Y1285D01*
X4319Y1285D02*
X4325Y1285D01*
X4042Y1284D02*
X4048Y1284D01*
X4054Y1284D02*
X4062Y1284D01*
X4099Y1284D02*
X4105Y1284D01*
X4112Y1284D02*
X4118Y1284D01*
X4142Y1284D02*
X4148Y1284D01*
X4169Y1284D02*
X4175Y1284D01*
X4242Y1284D02*
X4248Y1284D01*
X4269Y1284D02*
X4275Y1284D01*
X4292Y1284D02*
X4298Y1284D01*
X4319Y1284D02*
X4325Y1284D01*
X4042Y1283D02*
X4048Y1283D01*
X4055Y1283D02*
X4062Y1283D01*
X4098Y1283D02*
X4105Y1283D01*
X4112Y1283D02*
X4118Y1283D01*
X4142Y1283D02*
X4148Y1283D01*
X4169Y1283D02*
X4175Y1283D01*
X4242Y1283D02*
X4248Y1283D01*
X4269Y1283D02*
X4275Y1283D01*
X4292Y1283D02*
X4298Y1283D01*
X4319Y1283D02*
X4325Y1283D01*
X4042Y1282D02*
X4048Y1282D01*
X4055Y1282D02*
X4063Y1282D01*
X4098Y1282D02*
X4104Y1282D01*
X4112Y1282D02*
X4119Y1282D01*
X4142Y1282D02*
X4148Y1282D01*
X4169Y1282D02*
X4175Y1282D01*
X4242Y1282D02*
X4248Y1282D01*
X4269Y1282D02*
X4275Y1282D01*
X4292Y1282D02*
X4298Y1282D01*
X4319Y1282D02*
X4325Y1282D01*
X4042Y1281D02*
X4048Y1281D01*
X4056Y1281D02*
X4063Y1281D01*
X4098Y1281D02*
X4104Y1281D01*
X4113Y1281D02*
X4119Y1281D01*
X4142Y1281D02*
X4148Y1281D01*
X4169Y1281D02*
X4175Y1281D01*
X4242Y1281D02*
X4248Y1281D01*
X4269Y1281D02*
X4275Y1281D01*
X4292Y1281D02*
X4298Y1281D01*
X4319Y1281D02*
X4325Y1281D01*
X4042Y1280D02*
X4048Y1280D01*
X4057Y1280D02*
X4064Y1280D01*
X4097Y1280D02*
X4104Y1280D01*
X4113Y1280D02*
X4119Y1280D01*
X4142Y1280D02*
X4148Y1280D01*
X4169Y1280D02*
X4175Y1280D01*
X4242Y1280D02*
X4248Y1280D01*
X4268Y1280D02*
X4275Y1280D01*
X4292Y1280D02*
X4298Y1280D01*
X4319Y1280D02*
X4325Y1280D01*
X4042Y1279D02*
X4048Y1279D01*
X4057Y1279D02*
X4064Y1279D01*
X4097Y1279D02*
X4103Y1279D01*
X4113Y1279D02*
X4120Y1279D01*
X4142Y1279D02*
X4148Y1279D01*
X4169Y1279D02*
X4175Y1279D01*
X4242Y1279D02*
X4249Y1279D01*
X4268Y1279D02*
X4274Y1279D01*
X4292Y1279D02*
X4298Y1279D01*
X4319Y1279D02*
X4325Y1279D01*
X4042Y1278D02*
X4048Y1278D01*
X4058Y1278D02*
X4065Y1278D01*
X4097Y1278D02*
X4103Y1278D01*
X4114Y1278D02*
X4120Y1278D01*
X4142Y1278D02*
X4148Y1278D01*
X4169Y1278D02*
X4175Y1278D01*
X4243Y1278D02*
X4249Y1278D01*
X4268Y1278D02*
X4274Y1278D01*
X4292Y1278D02*
X4298Y1278D01*
X4319Y1278D02*
X4325Y1278D01*
X4042Y1277D02*
X4048Y1277D01*
X4058Y1277D02*
X4066Y1277D01*
X4096Y1277D02*
X4103Y1277D01*
X4114Y1277D02*
X4120Y1277D01*
X4142Y1277D02*
X4148Y1277D01*
X4169Y1277D02*
X4175Y1277D01*
X4243Y1277D02*
X4250Y1277D01*
X4267Y1277D02*
X4274Y1277D01*
X4292Y1277D02*
X4298Y1277D01*
X4319Y1277D02*
X4325Y1277D01*
X4042Y1276D02*
X4048Y1276D01*
X4059Y1276D02*
X4066Y1276D01*
X4096Y1276D02*
X4103Y1276D01*
X4114Y1276D02*
X4120Y1276D01*
X4142Y1276D02*
X4148Y1276D01*
X4169Y1276D02*
X4175Y1276D01*
X4243Y1276D02*
X4250Y1276D01*
X4267Y1276D02*
X4273Y1276D01*
X4292Y1276D02*
X4298Y1276D01*
X4319Y1276D02*
X4325Y1276D01*
X4042Y1275D02*
X4048Y1275D01*
X4060Y1275D02*
X4067Y1275D01*
X4096Y1275D02*
X4103Y1275D01*
X4114Y1275D02*
X4121Y1275D01*
X4142Y1275D02*
X4148Y1275D01*
X4169Y1275D02*
X4175Y1275D01*
X4244Y1275D02*
X4251Y1275D01*
X4266Y1275D02*
X4273Y1275D01*
X4292Y1275D02*
X4298Y1275D01*
X4319Y1275D02*
X4325Y1275D01*
X4042Y1274D02*
X4048Y1274D01*
X4060Y1274D02*
X4067Y1274D01*
X4096Y1274D02*
X4121Y1274D01*
X4142Y1274D02*
X4148Y1274D01*
X4169Y1274D02*
X4175Y1274D01*
X4244Y1274D02*
X4251Y1274D01*
X4266Y1274D02*
X4272Y1274D01*
X4292Y1274D02*
X4298Y1274D01*
X4319Y1274D02*
X4325Y1274D01*
X4042Y1273D02*
X4048Y1273D01*
X4061Y1273D02*
X4068Y1273D01*
X4095Y1273D02*
X4121Y1273D01*
X4142Y1273D02*
X4148Y1273D01*
X4169Y1273D02*
X4175Y1273D01*
X4245Y1273D02*
X4252Y1273D01*
X4265Y1273D02*
X4272Y1273D01*
X4292Y1273D02*
X4298Y1273D01*
X4319Y1273D02*
X4325Y1273D01*
X4042Y1272D02*
X4048Y1272D01*
X4061Y1272D02*
X4069Y1272D01*
X4095Y1272D02*
X4122Y1272D01*
X4142Y1272D02*
X4148Y1272D01*
X4169Y1272D02*
X4175Y1272D01*
X4245Y1272D02*
X4252Y1272D01*
X4265Y1272D02*
X4271Y1272D01*
X4292Y1272D02*
X4298Y1272D01*
X4319Y1272D02*
X4325Y1272D01*
X4042Y1271D02*
X4048Y1271D01*
X4062Y1271D02*
X4069Y1271D01*
X4095Y1271D02*
X4122Y1271D01*
X4142Y1271D02*
X4148Y1271D01*
X4169Y1271D02*
X4175Y1271D01*
X4246Y1271D02*
X4253Y1271D01*
X4264Y1271D02*
X4271Y1271D01*
X4292Y1271D02*
X4298Y1271D01*
X4319Y1271D02*
X4325Y1271D01*
X4042Y1270D02*
X4048Y1270D01*
X4062Y1270D02*
X4070Y1270D01*
X4094Y1270D02*
X4122Y1270D01*
X4142Y1270D02*
X4148Y1270D01*
X4169Y1270D02*
X4175Y1270D01*
X4246Y1270D02*
X4253Y1270D01*
X4264Y1270D02*
X4270Y1270D01*
X4292Y1270D02*
X4298Y1270D01*
X4319Y1270D02*
X4325Y1270D01*
X4042Y1269D02*
X4048Y1269D01*
X4063Y1269D02*
X4070Y1269D01*
X4094Y1269D02*
X4123Y1269D01*
X4142Y1269D02*
X4148Y1269D01*
X4169Y1269D02*
X4175Y1269D01*
X4247Y1269D02*
X4254Y1269D01*
X4263Y1269D02*
X4270Y1269D01*
X4292Y1269D02*
X4298Y1269D01*
X4317Y1269D02*
X4325Y1269D01*
X4042Y1268D02*
X4048Y1268D01*
X4064Y1268D02*
X4071Y1268D01*
X4094Y1268D02*
X4123Y1268D01*
X4142Y1268D02*
X4148Y1268D01*
X4169Y1268D02*
X4175Y1268D01*
X4247Y1268D02*
X4254Y1268D01*
X4263Y1268D02*
X4269Y1268D01*
X4292Y1268D02*
X4298Y1268D01*
X4315Y1268D02*
X4325Y1268D01*
X4042Y1267D02*
X4048Y1267D01*
X4064Y1267D02*
X4071Y1267D01*
X4094Y1267D02*
X4100Y1267D01*
X4117Y1267D02*
X4123Y1267D01*
X4142Y1267D02*
X4148Y1267D01*
X4169Y1267D02*
X4175Y1267D01*
X4248Y1267D02*
X4255Y1267D01*
X4262Y1267D02*
X4269Y1267D01*
X4292Y1267D02*
X4298Y1267D01*
X4314Y1267D02*
X4325Y1267D01*
X4042Y1266D02*
X4048Y1266D01*
X4065Y1266D02*
X4072Y1266D01*
X4093Y1266D02*
X4100Y1266D01*
X4117Y1266D02*
X4123Y1266D01*
X4142Y1266D02*
X4148Y1266D01*
X4169Y1266D02*
X4175Y1266D01*
X4248Y1266D02*
X4255Y1266D01*
X4262Y1266D02*
X4268Y1266D01*
X4292Y1266D02*
X4299Y1266D01*
X4312Y1266D02*
X4325Y1266D01*
X4042Y1265D02*
X4048Y1265D01*
X4065Y1265D02*
X4073Y1265D01*
X4093Y1265D02*
X4099Y1265D01*
X4117Y1265D02*
X4124Y1265D01*
X4142Y1265D02*
X4148Y1265D01*
X4169Y1265D02*
X4175Y1265D01*
X4249Y1265D02*
X4256Y1265D01*
X4261Y1265D02*
X4268Y1265D01*
X4293Y1265D02*
X4299Y1265D01*
X4311Y1265D02*
X4325Y1265D01*
X4042Y1264D02*
X4048Y1264D01*
X4066Y1264D02*
X4073Y1264D01*
X4093Y1264D02*
X4099Y1264D01*
X4118Y1264D02*
X4124Y1264D01*
X4142Y1264D02*
X4148Y1264D01*
X4169Y1264D02*
X4175Y1264D01*
X4249Y1264D02*
X4256Y1264D01*
X4261Y1264D02*
X4267Y1264D01*
X4293Y1264D02*
X4300Y1264D01*
X4309Y1264D02*
X4325Y1264D01*
X4042Y1263D02*
X4048Y1263D01*
X4067Y1263D02*
X4074Y1263D01*
X4092Y1263D02*
X4099Y1263D01*
X4118Y1263D02*
X4124Y1263D01*
X4142Y1263D02*
X4148Y1263D01*
X4169Y1263D02*
X4175Y1263D01*
X4250Y1263D02*
X4267Y1263D01*
X4293Y1263D02*
X4325Y1263D01*
X4042Y1262D02*
X4048Y1262D01*
X4067Y1262D02*
X4074Y1262D01*
X4092Y1262D02*
X4098Y1262D01*
X4118Y1262D02*
X4125Y1262D01*
X4142Y1262D02*
X4148Y1262D01*
X4169Y1262D02*
X4175Y1262D01*
X4250Y1262D02*
X4266Y1262D01*
X4293Y1262D02*
X4325Y1262D01*
X4042Y1261D02*
X4048Y1261D01*
X4068Y1261D02*
X4075Y1261D01*
X4092Y1261D02*
X4098Y1261D01*
X4119Y1261D02*
X4125Y1261D01*
X4142Y1261D02*
X4148Y1261D01*
X4169Y1261D02*
X4175Y1261D01*
X4251Y1261D02*
X4266Y1261D01*
X4294Y1261D02*
X4316Y1261D01*
X4319Y1261D02*
X4325Y1261D01*
X4042Y1260D02*
X4048Y1260D01*
X4068Y1260D02*
X4075Y1260D01*
X4091Y1260D02*
X4098Y1260D01*
X4119Y1260D02*
X4125Y1260D01*
X4142Y1260D02*
X4148Y1260D01*
X4169Y1260D02*
X4175Y1260D01*
X4251Y1260D02*
X4265Y1260D01*
X4295Y1260D02*
X4315Y1260D01*
X4319Y1260D02*
X4325Y1260D01*
X4042Y1259D02*
X4048Y1259D01*
X4069Y1259D02*
X4075Y1259D01*
X4092Y1259D02*
X4098Y1259D01*
X4119Y1259D02*
X4125Y1259D01*
X4142Y1259D02*
X4147Y1259D01*
X4169Y1259D02*
X4175Y1259D01*
X4252Y1259D02*
X4264Y1259D01*
X4296Y1259D02*
X4313Y1259D01*
X4319Y1259D02*
X4325Y1259D01*
X4042Y1258D02*
X4047Y1258D01*
X4070Y1258D02*
X4075Y1258D01*
X4092Y1258D02*
X4097Y1258D01*
X4120Y1258D02*
X4125Y1258D01*
X4142Y1258D02*
X4147Y1258D01*
X4170Y1258D02*
X4175Y1258D01*
X4253Y1258D02*
X4263Y1258D01*
X4297Y1258D02*
X4312Y1258D01*
X4320Y1258D02*
X4325Y1258D01*
X4043Y1257D02*
X4046Y1257D01*
X4070Y1257D02*
X4074Y1257D01*
X4093Y1257D02*
X4096Y1257D01*
X4120Y1257D02*
X4124Y1257D01*
X4143Y1257D02*
X4146Y1257D01*
X4170Y1257D02*
X4174Y1257D01*
X4255Y1257D02*
X4262Y1257D01*
X4299Y1257D02*
X4310Y1257D01*
X4320Y1257D02*
X4324Y1257D01*
X66Y1114D02*
X66Y1114D01*
X64Y1113D02*
X68Y1113D01*
X64Y1112D02*
X69Y1112D01*
X63Y1111D02*
X69Y1111D01*
X63Y1110D02*
X69Y1110D01*
X63Y1109D02*
X69Y1109D01*
X63Y1108D02*
X69Y1108D01*
X63Y1107D02*
X69Y1107D01*
X63Y1106D02*
X69Y1106D01*
X63Y1105D02*
X69Y1105D01*
X63Y1104D02*
X69Y1104D01*
X63Y1103D02*
X69Y1103D01*
X9Y1102D02*
X10Y1102D01*
X36Y1102D02*
X38Y1102D01*
X59Y1102D02*
X84Y1102D01*
X7Y1101D02*
X12Y1101D01*
X35Y1101D02*
X39Y1101D01*
X57Y1101D02*
X86Y1101D01*
X7Y1100D02*
X12Y1100D01*
X34Y1100D02*
X40Y1100D01*
X57Y1100D02*
X86Y1100D01*
X7Y1099D02*
X12Y1099D01*
X34Y1099D02*
X40Y1099D01*
X57Y1099D02*
X87Y1099D01*
X7Y1098D02*
X13Y1098D01*
X34Y1098D02*
X40Y1098D01*
X57Y1098D02*
X86Y1098D01*
X7Y1097D02*
X13Y1097D01*
X34Y1097D02*
X40Y1097D01*
X57Y1097D02*
X86Y1097D01*
X7Y1096D02*
X13Y1096D01*
X34Y1096D02*
X40Y1096D01*
X58Y1096D02*
X85Y1096D01*
X7Y1095D02*
X13Y1095D01*
X34Y1095D02*
X40Y1095D01*
X63Y1095D02*
X70Y1095D01*
X7Y1094D02*
X13Y1094D01*
X34Y1094D02*
X40Y1094D01*
X63Y1094D02*
X69Y1094D01*
X7Y1093D02*
X13Y1093D01*
X34Y1093D02*
X40Y1093D01*
X63Y1093D02*
X69Y1093D01*
X7Y1092D02*
X13Y1092D01*
X34Y1092D02*
X40Y1092D01*
X63Y1092D02*
X69Y1092D01*
X7Y1091D02*
X13Y1091D01*
X34Y1091D02*
X40Y1091D01*
X63Y1091D02*
X69Y1091D01*
X7Y1090D02*
X13Y1090D01*
X34Y1090D02*
X40Y1090D01*
X63Y1090D02*
X69Y1090D01*
X7Y1089D02*
X13Y1089D01*
X34Y1089D02*
X40Y1089D01*
X63Y1089D02*
X69Y1089D01*
X7Y1088D02*
X13Y1088D01*
X34Y1088D02*
X40Y1088D01*
X63Y1088D02*
X69Y1088D01*
X7Y1087D02*
X13Y1087D01*
X34Y1087D02*
X40Y1087D01*
X63Y1087D02*
X69Y1087D01*
X7Y1086D02*
X13Y1086D01*
X34Y1086D02*
X40Y1086D01*
X63Y1086D02*
X69Y1086D01*
X7Y1085D02*
X13Y1085D01*
X34Y1085D02*
X40Y1085D01*
X63Y1085D02*
X69Y1085D01*
X7Y1084D02*
X13Y1084D01*
X34Y1084D02*
X40Y1084D01*
X63Y1084D02*
X69Y1084D01*
X7Y1083D02*
X13Y1083D01*
X34Y1083D02*
X40Y1083D01*
X63Y1083D02*
X69Y1083D01*
X7Y1082D02*
X13Y1082D01*
X34Y1082D02*
X40Y1082D01*
X63Y1082D02*
X69Y1082D01*
X7Y1081D02*
X13Y1081D01*
X34Y1081D02*
X40Y1081D01*
X63Y1081D02*
X69Y1081D01*
X7Y1080D02*
X13Y1080D01*
X34Y1080D02*
X40Y1080D01*
X63Y1080D02*
X69Y1080D01*
X7Y1079D02*
X13Y1079D01*
X34Y1079D02*
X40Y1079D01*
X63Y1079D02*
X69Y1079D01*
X7Y1078D02*
X13Y1078D01*
X34Y1078D02*
X40Y1078D01*
X63Y1078D02*
X69Y1078D01*
X7Y1077D02*
X13Y1077D01*
X34Y1077D02*
X40Y1077D01*
X63Y1077D02*
X69Y1077D01*
X7Y1076D02*
X13Y1076D01*
X32Y1076D02*
X40Y1076D01*
X63Y1076D02*
X69Y1076D01*
X7Y1075D02*
X13Y1075D01*
X31Y1075D02*
X40Y1075D01*
X63Y1075D02*
X69Y1075D01*
X86Y1075D02*
X89Y1075D01*
X7Y1074D02*
X13Y1074D01*
X29Y1074D02*
X40Y1074D01*
X63Y1074D02*
X69Y1074D01*
X85Y1074D02*
X90Y1074D01*
X7Y1073D02*
X13Y1073D01*
X28Y1073D02*
X40Y1073D01*
X63Y1073D02*
X69Y1073D01*
X84Y1073D02*
X90Y1073D01*
X7Y1072D02*
X14Y1072D01*
X26Y1072D02*
X40Y1072D01*
X64Y1072D02*
X70Y1072D01*
X84Y1072D02*
X90Y1072D01*
X8Y1071D02*
X14Y1071D01*
X25Y1071D02*
X40Y1071D01*
X64Y1071D02*
X70Y1071D01*
X83Y1071D02*
X90Y1071D01*
X8Y1070D02*
X16Y1070D01*
X23Y1070D02*
X40Y1070D01*
X64Y1070D02*
X72Y1070D01*
X81Y1070D02*
X90Y1070D01*
X8Y1069D02*
X40Y1069D01*
X64Y1069D02*
X89Y1069D01*
X9Y1068D02*
X32Y1068D01*
X34Y1068D02*
X40Y1068D01*
X65Y1068D02*
X89Y1068D01*
X10Y1067D02*
X30Y1067D01*
X34Y1067D02*
X40Y1067D01*
X66Y1067D02*
X88Y1067D01*
X10Y1066D02*
X29Y1066D01*
X34Y1066D02*
X40Y1066D01*
X66Y1066D02*
X87Y1066D01*
X12Y1065D02*
X27Y1065D01*
X34Y1065D02*
X40Y1065D01*
X68Y1065D02*
X86Y1065D01*
X13Y1064D02*
X25Y1064D01*
X35Y1064D02*
X39Y1064D01*
X69Y1064D02*
X84Y1064D01*
X16Y1063D02*
X22Y1063D01*
X37Y1063D02*
X37Y1063D01*
X72Y1063D02*
X81Y1063D01*
X679Y1030D02*
X727Y1030D01*
X678Y1029D02*
X729Y1029D01*
X677Y1028D02*
X730Y1028D01*
X677Y1027D02*
X730Y1027D01*
X677Y1026D02*
X730Y1026D01*
X677Y1025D02*
X730Y1025D01*
X677Y1024D02*
X730Y1024D01*
X677Y1023D02*
X683Y1023D01*
X694Y1023D02*
X701Y1023D01*
X724Y1023D02*
X730Y1023D01*
X677Y1022D02*
X683Y1022D01*
X694Y1022D02*
X701Y1022D01*
X724Y1022D02*
X730Y1022D01*
X677Y1021D02*
X683Y1021D01*
X694Y1021D02*
X701Y1021D01*
X725Y1021D02*
X729Y1021D01*
X1548Y1021D02*
X1598Y1021D01*
X677Y1020D02*
X683Y1020D01*
X694Y1020D02*
X701Y1020D01*
X726Y1020D02*
X728Y1020D01*
X1547Y1020D02*
X1599Y1020D01*
X677Y1019D02*
X683Y1019D01*
X694Y1019D02*
X701Y1019D01*
X1547Y1019D02*
X1599Y1019D01*
X677Y1018D02*
X683Y1018D01*
X694Y1018D02*
X701Y1018D01*
X1546Y1018D02*
X1599Y1018D01*
X677Y1017D02*
X683Y1017D01*
X694Y1017D02*
X701Y1017D01*
X1546Y1017D02*
X1599Y1017D01*
X677Y1016D02*
X683Y1016D01*
X694Y1016D02*
X701Y1016D01*
X1546Y1016D02*
X1599Y1016D01*
X677Y1015D02*
X683Y1015D01*
X694Y1015D02*
X701Y1015D01*
X1546Y1015D02*
X1599Y1015D01*
X677Y1014D02*
X683Y1014D01*
X694Y1014D02*
X701Y1014D01*
X1546Y1014D02*
X1552Y1014D01*
X1564Y1014D02*
X1570Y1014D01*
X1594Y1014D02*
X1599Y1014D01*
X677Y1013D02*
X683Y1013D01*
X694Y1013D02*
X701Y1013D01*
X1546Y1013D02*
X1552Y1013D01*
X1564Y1013D02*
X1570Y1013D01*
X1594Y1013D02*
X1599Y1013D01*
X677Y1012D02*
X683Y1012D01*
X694Y1012D02*
X701Y1012D01*
X1546Y1012D02*
X1552Y1012D01*
X1564Y1012D02*
X1570Y1012D01*
X1595Y1012D02*
X1598Y1012D01*
X677Y1011D02*
X683Y1011D01*
X694Y1011D02*
X701Y1011D01*
X1546Y1011D02*
X1552Y1011D01*
X1564Y1011D02*
X1570Y1011D01*
X677Y1010D02*
X683Y1010D01*
X694Y1010D02*
X701Y1010D01*
X1546Y1010D02*
X1552Y1010D01*
X1564Y1010D02*
X1570Y1010D01*
X677Y1009D02*
X683Y1009D01*
X694Y1009D02*
X701Y1009D01*
X1546Y1009D02*
X1552Y1009D01*
X1564Y1009D02*
X1570Y1009D01*
X677Y1008D02*
X683Y1008D01*
X694Y1008D02*
X701Y1008D01*
X1546Y1008D02*
X1552Y1008D01*
X1564Y1008D02*
X1570Y1008D01*
X677Y1007D02*
X683Y1007D01*
X694Y1007D02*
X701Y1007D01*
X1546Y1007D02*
X1552Y1007D01*
X1564Y1007D02*
X1570Y1007D01*
X677Y1006D02*
X683Y1006D01*
X694Y1006D02*
X701Y1006D01*
X1546Y1006D02*
X1552Y1006D01*
X1564Y1006D02*
X1570Y1006D01*
X677Y1005D02*
X683Y1005D01*
X694Y1005D02*
X701Y1005D01*
X1546Y1005D02*
X1552Y1005D01*
X1564Y1005D02*
X1570Y1005D01*
X677Y1004D02*
X683Y1004D01*
X694Y1004D02*
X701Y1004D01*
X1546Y1004D02*
X1552Y1004D01*
X1564Y1004D02*
X1570Y1004D01*
X677Y1003D02*
X683Y1003D01*
X694Y1003D02*
X701Y1003D01*
X1546Y1003D02*
X1552Y1003D01*
X1564Y1003D02*
X1570Y1003D01*
X677Y1002D02*
X701Y1002D01*
X1546Y1002D02*
X1552Y1002D01*
X1564Y1002D02*
X1570Y1002D01*
X677Y1001D02*
X701Y1001D01*
X1546Y1001D02*
X1552Y1001D01*
X1564Y1001D02*
X1570Y1001D01*
X677Y1000D02*
X701Y1000D01*
X1546Y1000D02*
X1552Y1000D01*
X1564Y1000D02*
X1570Y1000D01*
X677Y999D02*
X700Y999D01*
X1546Y999D02*
X1552Y999D01*
X1564Y999D02*
X1570Y999D01*
X677Y998D02*
X700Y998D01*
X1546Y998D02*
X1552Y998D01*
X1564Y998D02*
X1570Y998D01*
X678Y997D02*
X700Y997D01*
X1546Y997D02*
X1552Y997D01*
X1564Y997D02*
X1570Y997D01*
X679Y996D02*
X698Y996D01*
X1546Y996D02*
X1552Y996D01*
X1564Y996D02*
X1570Y996D01*
X1546Y995D02*
X1552Y995D01*
X1564Y995D02*
X1570Y995D01*
X1546Y994D02*
X1553Y994D01*
X1564Y994D02*
X1570Y994D01*
X1546Y993D02*
X1570Y993D01*
X1546Y992D02*
X1570Y992D01*
X1546Y991D02*
X1570Y991D01*
X1546Y990D02*
X1570Y990D01*
X1547Y989D02*
X1570Y989D01*
X1547Y988D02*
X1569Y988D01*
X1549Y987D02*
X1567Y987D01*
X706Y980D02*
X725Y980D01*
X704Y979D02*
X727Y979D01*
X702Y978D02*
X728Y978D01*
X702Y977D02*
X729Y977D01*
X701Y976D02*
X729Y976D01*
X701Y975D02*
X730Y975D01*
X700Y974D02*
X730Y974D01*
X679Y973D02*
X707Y973D01*
X724Y973D02*
X730Y973D01*
X678Y972D02*
X706Y972D01*
X724Y972D02*
X730Y972D01*
X677Y971D02*
X706Y971D01*
X724Y971D02*
X730Y971D01*
X1574Y971D02*
X1595Y971D01*
X677Y970D02*
X706Y970D01*
X724Y970D02*
X730Y970D01*
X1573Y970D02*
X1597Y970D01*
X677Y969D02*
X706Y969D01*
X724Y969D02*
X730Y969D01*
X1572Y969D02*
X1598Y969D01*
X677Y968D02*
X706Y968D01*
X724Y968D02*
X730Y968D01*
X1571Y968D02*
X1598Y968D01*
X677Y967D02*
X706Y967D01*
X724Y967D02*
X730Y967D01*
X1570Y967D02*
X1599Y967D01*
X677Y966D02*
X683Y966D01*
X700Y966D02*
X706Y966D01*
X724Y966D02*
X730Y966D01*
X1570Y966D02*
X1599Y966D01*
X677Y965D02*
X683Y965D01*
X700Y965D02*
X706Y965D01*
X724Y965D02*
X730Y965D01*
X1570Y965D02*
X1599Y965D01*
X677Y964D02*
X683Y964D01*
X700Y964D02*
X706Y964D01*
X724Y964D02*
X730Y964D01*
X1548Y964D02*
X1576Y964D01*
X1593Y964D02*
X1599Y964D01*
X677Y963D02*
X683Y963D01*
X700Y963D02*
X706Y963D01*
X724Y963D02*
X730Y963D01*
X1547Y963D02*
X1576Y963D01*
X1593Y963D02*
X1599Y963D01*
X677Y962D02*
X683Y962D01*
X700Y962D02*
X706Y962D01*
X724Y962D02*
X730Y962D01*
X1546Y962D02*
X1576Y962D01*
X1593Y962D02*
X1599Y962D01*
X677Y961D02*
X683Y961D01*
X700Y961D02*
X706Y961D01*
X724Y961D02*
X730Y961D01*
X1546Y961D02*
X1576Y961D01*
X1593Y961D02*
X1599Y961D01*
X677Y960D02*
X683Y960D01*
X700Y960D02*
X706Y960D01*
X724Y960D02*
X730Y960D01*
X1546Y960D02*
X1576Y960D01*
X1593Y960D02*
X1599Y960D01*
X677Y959D02*
X706Y959D01*
X724Y959D02*
X730Y959D01*
X1546Y959D02*
X1576Y959D01*
X1593Y959D02*
X1599Y959D01*
X677Y958D02*
X706Y958D01*
X724Y958D02*
X730Y958D01*
X1546Y958D02*
X1576Y958D01*
X1593Y958D02*
X1599Y958D01*
X677Y957D02*
X706Y957D01*
X724Y957D02*
X730Y957D01*
X1546Y957D02*
X1552Y957D01*
X1570Y957D02*
X1576Y957D01*
X1593Y957D02*
X1599Y957D01*
X677Y956D02*
X706Y956D01*
X724Y956D02*
X730Y956D01*
X1546Y956D02*
X1552Y956D01*
X1570Y956D02*
X1576Y956D01*
X1593Y956D02*
X1599Y956D01*
X677Y955D02*
X706Y955D01*
X724Y955D02*
X730Y955D01*
X1546Y955D02*
X1552Y955D01*
X1570Y955D02*
X1576Y955D01*
X1593Y955D02*
X1599Y955D01*
X677Y954D02*
X706Y954D01*
X724Y954D02*
X730Y954D01*
X1546Y954D02*
X1552Y954D01*
X1570Y954D02*
X1576Y954D01*
X1593Y954D02*
X1599Y954D01*
X679Y953D02*
X706Y953D01*
X724Y953D02*
X730Y953D01*
X1546Y953D02*
X1552Y953D01*
X1570Y953D02*
X1576Y953D01*
X1593Y953D02*
X1599Y953D01*
X700Y952D02*
X730Y952D01*
X1546Y952D02*
X1552Y952D01*
X1570Y952D02*
X1576Y952D01*
X1593Y952D02*
X1599Y952D01*
X701Y951D02*
X730Y951D01*
X1546Y951D02*
X1553Y951D01*
X1570Y951D02*
X1576Y951D01*
X1593Y951D02*
X1599Y951D01*
X701Y950D02*
X729Y950D01*
X1546Y950D02*
X1576Y950D01*
X1593Y950D02*
X1599Y950D01*
X701Y949D02*
X729Y949D01*
X1546Y949D02*
X1576Y949D01*
X1593Y949D02*
X1599Y949D01*
X702Y948D02*
X728Y948D01*
X1546Y948D02*
X1576Y948D01*
X1593Y948D02*
X1599Y948D01*
X703Y947D02*
X727Y947D01*
X1546Y947D02*
X1576Y947D01*
X1593Y947D02*
X1599Y947D01*
X705Y946D02*
X725Y946D01*
X1547Y946D02*
X1576Y946D01*
X1593Y946D02*
X1599Y946D01*
X1547Y945D02*
X1576Y945D01*
X1593Y945D02*
X1599Y945D01*
X1549Y944D02*
X1576Y944D01*
X1593Y944D02*
X1599Y944D01*
X1570Y943D02*
X1599Y943D01*
X1570Y942D02*
X1599Y942D01*
X1571Y941D02*
X1599Y941D01*
X1571Y940D02*
X1598Y940D01*
X1572Y939D02*
X1597Y939D01*
X1573Y938D02*
X1596Y938D01*
X1576Y937D02*
X1593Y937D01*
X709Y930D02*
X727Y930D01*
X707Y929D02*
X729Y929D01*
X707Y928D02*
X730Y928D01*
X706Y927D02*
X730Y927D01*
X706Y926D02*
X730Y926D01*
X707Y925D02*
X730Y925D01*
X708Y924D02*
X730Y924D01*
X724Y923D02*
X730Y923D01*
X724Y922D02*
X730Y922D01*
X724Y921D02*
X730Y921D01*
X1578Y921D02*
X1598Y921D01*
X724Y920D02*
X730Y920D01*
X1576Y920D02*
X1599Y920D01*
X724Y919D02*
X730Y919D01*
X1576Y919D02*
X1599Y919D01*
X724Y918D02*
X730Y918D01*
X1576Y918D02*
X1599Y918D01*
X724Y917D02*
X730Y917D01*
X1576Y917D02*
X1599Y917D01*
X677Y916D02*
X730Y916D01*
X1576Y916D02*
X1599Y916D01*
X677Y915D02*
X730Y915D01*
X1578Y915D02*
X1599Y915D01*
X677Y914D02*
X730Y914D01*
X1593Y914D02*
X1599Y914D01*
X677Y913D02*
X730Y913D01*
X1593Y913D02*
X1599Y913D01*
X677Y912D02*
X730Y912D01*
X1593Y912D02*
X1599Y912D01*
X677Y911D02*
X730Y911D01*
X1593Y911D02*
X1599Y911D01*
X677Y910D02*
X730Y910D01*
X1593Y910D02*
X1599Y910D01*
X677Y909D02*
X683Y909D01*
X724Y909D02*
X730Y909D01*
X1593Y909D02*
X1599Y909D01*
X677Y908D02*
X683Y908D01*
X724Y908D02*
X730Y908D01*
X1593Y908D02*
X1599Y908D01*
X677Y907D02*
X683Y907D01*
X724Y907D02*
X730Y907D01*
X1546Y907D02*
X1599Y907D01*
X2831Y907D02*
X2863Y907D01*
X2883Y907D02*
X2886Y907D01*
X2934Y907D02*
X2959Y907D01*
X2983Y907D02*
X2986Y907D01*
X677Y906D02*
X683Y906D01*
X724Y906D02*
X730Y906D01*
X1546Y906D02*
X1599Y906D01*
X2830Y906D02*
X2863Y906D01*
X2882Y906D02*
X2887Y906D01*
X2932Y906D02*
X2961Y906D01*
X2982Y906D02*
X2987Y906D01*
X677Y905D02*
X683Y905D01*
X724Y905D02*
X730Y905D01*
X1546Y905D02*
X1599Y905D01*
X2830Y905D02*
X2863Y905D01*
X2882Y905D02*
X2887Y905D01*
X2931Y905D02*
X2962Y905D01*
X2982Y905D02*
X2987Y905D01*
X677Y904D02*
X683Y904D01*
X724Y904D02*
X730Y904D01*
X1546Y904D02*
X1599Y904D01*
X2830Y904D02*
X2863Y904D01*
X2881Y904D02*
X2887Y904D01*
X2931Y904D02*
X2962Y904D01*
X2981Y904D02*
X2987Y904D01*
X677Y903D02*
X683Y903D01*
X724Y903D02*
X730Y903D01*
X1546Y903D02*
X1599Y903D01*
X2830Y903D02*
X2863Y903D01*
X2881Y903D02*
X2887Y903D01*
X2930Y903D02*
X2963Y903D01*
X2981Y903D02*
X2987Y903D01*
X677Y902D02*
X683Y902D01*
X724Y902D02*
X730Y902D01*
X1546Y902D02*
X1599Y902D01*
X2830Y902D02*
X2863Y902D01*
X2881Y902D02*
X2887Y902D01*
X2930Y902D02*
X2963Y902D01*
X2981Y902D02*
X2987Y902D01*
X677Y901D02*
X683Y901D01*
X724Y901D02*
X730Y901D01*
X1546Y901D02*
X1599Y901D01*
X2830Y901D02*
X2863Y901D01*
X2881Y901D02*
X2887Y901D01*
X2904Y901D02*
X2907Y901D01*
X2930Y901D02*
X2963Y901D01*
X2981Y901D02*
X2987Y901D01*
X3004Y901D02*
X3007Y901D01*
X677Y900D02*
X683Y900D01*
X724Y900D02*
X730Y900D01*
X1546Y900D02*
X1552Y900D01*
X1593Y900D02*
X1599Y900D01*
X2830Y900D02*
X2835Y900D01*
X2857Y900D02*
X2863Y900D01*
X2881Y900D02*
X2887Y900D01*
X2903Y900D02*
X2908Y900D01*
X2930Y900D02*
X2936Y900D01*
X2957Y900D02*
X2963Y900D01*
X2981Y900D02*
X2987Y900D01*
X3003Y900D02*
X3007Y900D01*
X677Y899D02*
X683Y899D01*
X724Y899D02*
X730Y899D01*
X1546Y899D02*
X1552Y899D01*
X1593Y899D02*
X1599Y899D01*
X2830Y899D02*
X2835Y899D01*
X2857Y899D02*
X2863Y899D01*
X2881Y899D02*
X2887Y899D01*
X2902Y899D02*
X2908Y899D01*
X2930Y899D02*
X2936Y899D01*
X2957Y899D02*
X2963Y899D01*
X2981Y899D02*
X2987Y899D01*
X3002Y899D02*
X3008Y899D01*
X677Y898D02*
X683Y898D01*
X724Y898D02*
X730Y898D01*
X1546Y898D02*
X1552Y898D01*
X1593Y898D02*
X1599Y898D01*
X2832Y898D02*
X2834Y898D01*
X2857Y898D02*
X2863Y898D01*
X2881Y898D02*
X2887Y898D01*
X2902Y898D02*
X2908Y898D01*
X2930Y898D02*
X2936Y898D01*
X2957Y898D02*
X2963Y898D01*
X2981Y898D02*
X2987Y898D01*
X3002Y898D02*
X3008Y898D01*
X678Y897D02*
X682Y897D01*
X725Y897D02*
X729Y897D01*
X1546Y897D02*
X1552Y897D01*
X1593Y897D02*
X1599Y897D01*
X2857Y897D02*
X2863Y897D01*
X2881Y897D02*
X2887Y897D01*
X2902Y897D02*
X2908Y897D01*
X2930Y897D02*
X2936Y897D01*
X2957Y897D02*
X2963Y897D01*
X2981Y897D02*
X2987Y897D01*
X3002Y897D02*
X3008Y897D01*
X679Y896D02*
X681Y896D01*
X726Y896D02*
X728Y896D01*
X1546Y896D02*
X1552Y896D01*
X1593Y896D02*
X1599Y896D01*
X2857Y896D02*
X2863Y896D01*
X2881Y896D02*
X2887Y896D01*
X2902Y896D02*
X2908Y896D01*
X2930Y896D02*
X2936Y896D01*
X2957Y896D02*
X2963Y896D01*
X2981Y896D02*
X2987Y896D01*
X3002Y896D02*
X3008Y896D01*
X1546Y895D02*
X1552Y895D01*
X1593Y895D02*
X1599Y895D01*
X2857Y895D02*
X2863Y895D01*
X2881Y895D02*
X2887Y895D01*
X2902Y895D02*
X2908Y895D01*
X2930Y895D02*
X2936Y895D01*
X2957Y895D02*
X2963Y895D01*
X2981Y895D02*
X2987Y895D01*
X3002Y895D02*
X3008Y895D01*
X1546Y894D02*
X1552Y894D01*
X1593Y894D02*
X1599Y894D01*
X2857Y894D02*
X2863Y894D01*
X2881Y894D02*
X2887Y894D01*
X2902Y894D02*
X2908Y894D01*
X2930Y894D02*
X2936Y894D01*
X2957Y894D02*
X2963Y894D01*
X2981Y894D02*
X2987Y894D01*
X3002Y894D02*
X3008Y894D01*
X1546Y893D02*
X1552Y893D01*
X1593Y893D02*
X1599Y893D01*
X2857Y893D02*
X2863Y893D01*
X2881Y893D02*
X2887Y893D01*
X2902Y893D02*
X2908Y893D01*
X2930Y893D02*
X2936Y893D01*
X2957Y893D02*
X2963Y893D01*
X2981Y893D02*
X2987Y893D01*
X3002Y893D02*
X3008Y893D01*
X1546Y892D02*
X1552Y892D01*
X1593Y892D02*
X1599Y892D01*
X2857Y892D02*
X2863Y892D01*
X2881Y892D02*
X2887Y892D01*
X2902Y892D02*
X2908Y892D01*
X2930Y892D02*
X2936Y892D01*
X2957Y892D02*
X2963Y892D01*
X2981Y892D02*
X2987Y892D01*
X3002Y892D02*
X3008Y892D01*
X1546Y891D02*
X1552Y891D01*
X1593Y891D02*
X1599Y891D01*
X2857Y891D02*
X2863Y891D01*
X2881Y891D02*
X2887Y891D01*
X2902Y891D02*
X2908Y891D01*
X2930Y891D02*
X2936Y891D01*
X2957Y891D02*
X2963Y891D01*
X2981Y891D02*
X2987Y891D01*
X3002Y891D02*
X3008Y891D01*
X1546Y890D02*
X1552Y890D01*
X1594Y890D02*
X1599Y890D01*
X2857Y890D02*
X2863Y890D01*
X2881Y890D02*
X2887Y890D01*
X2902Y890D02*
X2908Y890D01*
X2930Y890D02*
X2936Y890D01*
X2957Y890D02*
X2963Y890D01*
X2981Y890D02*
X2987Y890D01*
X3002Y890D02*
X3008Y890D01*
X1547Y889D02*
X1552Y889D01*
X1594Y889D02*
X1599Y889D01*
X2857Y889D02*
X2863Y889D01*
X2881Y889D02*
X2887Y889D01*
X2902Y889D02*
X2908Y889D01*
X2930Y889D02*
X2936Y889D01*
X2957Y889D02*
X2963Y889D01*
X2981Y889D02*
X2987Y889D01*
X3002Y889D02*
X3008Y889D01*
X1547Y888D02*
X1551Y888D01*
X1595Y888D02*
X1598Y888D01*
X2857Y888D02*
X2863Y888D01*
X2881Y888D02*
X2887Y888D01*
X2902Y888D02*
X2908Y888D01*
X2930Y888D02*
X2936Y888D01*
X2957Y888D02*
X2963Y888D01*
X2981Y888D02*
X2987Y888D01*
X3002Y888D02*
X3008Y888D01*
X1549Y887D02*
X1549Y887D01*
X2856Y887D02*
X2863Y887D01*
X2881Y887D02*
X2887Y887D01*
X2902Y887D02*
X2908Y887D01*
X2930Y887D02*
X2936Y887D01*
X2957Y887D02*
X2963Y887D01*
X2981Y887D02*
X2987Y887D01*
X3002Y887D02*
X3008Y887D01*
X2855Y886D02*
X2863Y886D01*
X2881Y886D02*
X2887Y886D01*
X2902Y886D02*
X2908Y886D01*
X2930Y886D02*
X2936Y886D01*
X2957Y886D02*
X2963Y886D01*
X2981Y886D02*
X2987Y886D01*
X3002Y886D02*
X3008Y886D01*
X2854Y885D02*
X2863Y885D01*
X2881Y885D02*
X2887Y885D01*
X2902Y885D02*
X2908Y885D01*
X2930Y885D02*
X2936Y885D01*
X2957Y885D02*
X2963Y885D01*
X2981Y885D02*
X2987Y885D01*
X3002Y885D02*
X3008Y885D01*
X2853Y884D02*
X2862Y884D01*
X2881Y884D02*
X2887Y884D01*
X2902Y884D02*
X2908Y884D01*
X2930Y884D02*
X2936Y884D01*
X2957Y884D02*
X2963Y884D01*
X2981Y884D02*
X2987Y884D01*
X3002Y884D02*
X3008Y884D01*
X2851Y883D02*
X2861Y883D01*
X2881Y883D02*
X2887Y883D01*
X2902Y883D02*
X2908Y883D01*
X2930Y883D02*
X2936Y883D01*
X2957Y883D02*
X2963Y883D01*
X2981Y883D02*
X2987Y883D01*
X3002Y883D02*
X3008Y883D01*
X2850Y882D02*
X2860Y882D01*
X2881Y882D02*
X2887Y882D01*
X2902Y882D02*
X2908Y882D01*
X2930Y882D02*
X2936Y882D01*
X2957Y882D02*
X2963Y882D01*
X2981Y882D02*
X2987Y882D01*
X3002Y882D02*
X3008Y882D01*
X2849Y881D02*
X2859Y881D01*
X2881Y881D02*
X2887Y881D01*
X2902Y881D02*
X2908Y881D01*
X2930Y881D02*
X2936Y881D01*
X2957Y881D02*
X2963Y881D01*
X2981Y881D02*
X2987Y881D01*
X3002Y881D02*
X3008Y881D01*
X2848Y880D02*
X2858Y880D01*
X2881Y880D02*
X2887Y880D01*
X2902Y880D02*
X2908Y880D01*
X2930Y880D02*
X2936Y880D01*
X2957Y880D02*
X2963Y880D01*
X2981Y880D02*
X2987Y880D01*
X3002Y880D02*
X3008Y880D01*
X2847Y879D02*
X2857Y879D01*
X2881Y879D02*
X2887Y879D01*
X2902Y879D02*
X2908Y879D01*
X2930Y879D02*
X2936Y879D01*
X2957Y879D02*
X2963Y879D01*
X2981Y879D02*
X2987Y879D01*
X3002Y879D02*
X3008Y879D01*
X708Y878D02*
X710Y878D01*
X2846Y878D02*
X2855Y878D01*
X2881Y878D02*
X2909Y878D01*
X2930Y878D02*
X2936Y878D01*
X2957Y878D02*
X2963Y878D01*
X2981Y878D02*
X3009Y878D01*
X707Y877D02*
X712Y877D01*
X2844Y877D02*
X2854Y877D01*
X2881Y877D02*
X2911Y877D01*
X2930Y877D02*
X2936Y877D01*
X2957Y877D02*
X2963Y877D01*
X2981Y877D02*
X3011Y877D01*
X706Y876D02*
X712Y876D01*
X2844Y876D02*
X2853Y876D01*
X2881Y876D02*
X2911Y876D01*
X2930Y876D02*
X2936Y876D01*
X2957Y876D02*
X2963Y876D01*
X2981Y876D02*
X3011Y876D01*
X686Y875D02*
X726Y875D01*
X2844Y875D02*
X2852Y875D01*
X2881Y875D02*
X2911Y875D01*
X2930Y875D02*
X2936Y875D01*
X2957Y875D02*
X2963Y875D01*
X2981Y875D02*
X3011Y875D01*
X684Y874D02*
X729Y874D01*
X2843Y874D02*
X2851Y874D01*
X2881Y874D02*
X2911Y874D01*
X2930Y874D02*
X2936Y874D01*
X2957Y874D02*
X2963Y874D01*
X2981Y874D02*
X3011Y874D01*
X683Y873D02*
X730Y873D01*
X2843Y873D02*
X2850Y873D01*
X2881Y873D02*
X2911Y873D01*
X2930Y873D02*
X2936Y873D01*
X2957Y873D02*
X2963Y873D01*
X2981Y873D02*
X3011Y873D01*
X683Y872D02*
X730Y872D01*
X2843Y872D02*
X2849Y872D01*
X2881Y872D02*
X2910Y872D01*
X2930Y872D02*
X2936Y872D01*
X2957Y872D02*
X2963Y872D01*
X2981Y872D02*
X3010Y872D01*
X683Y871D02*
X730Y871D01*
X2843Y871D02*
X2849Y871D01*
X2902Y871D02*
X2908Y871D01*
X2930Y871D02*
X2936Y871D01*
X2957Y871D02*
X2963Y871D01*
X3002Y871D02*
X3008Y871D01*
X683Y870D02*
X730Y870D01*
X2843Y870D02*
X2849Y870D01*
X2902Y870D02*
X2908Y870D01*
X2930Y870D02*
X2936Y870D01*
X2957Y870D02*
X2963Y870D01*
X3002Y870D02*
X3008Y870D01*
X684Y869D02*
X729Y869D01*
X1577Y869D02*
X1580Y869D01*
X2843Y869D02*
X2849Y869D01*
X2902Y869D02*
X2908Y869D01*
X2930Y869D02*
X2936Y869D01*
X2957Y869D02*
X2963Y869D01*
X3002Y869D02*
X3008Y869D01*
X686Y868D02*
X726Y868D01*
X1576Y868D02*
X1581Y868D01*
X2843Y868D02*
X2849Y868D01*
X2902Y868D02*
X2908Y868D01*
X2930Y868D02*
X2936Y868D01*
X2957Y868D02*
X2963Y868D01*
X3002Y868D02*
X3008Y868D01*
X706Y867D02*
X712Y867D01*
X1576Y867D02*
X1582Y867D01*
X2843Y867D02*
X2849Y867D01*
X2902Y867D02*
X2908Y867D01*
X2930Y867D02*
X2936Y867D01*
X2957Y867D02*
X2963Y867D01*
X3002Y867D02*
X3008Y867D01*
X706Y866D02*
X712Y866D01*
X1554Y866D02*
X1597Y866D01*
X2843Y866D02*
X2849Y866D01*
X2902Y866D02*
X2908Y866D01*
X2930Y866D02*
X2936Y866D01*
X2957Y866D02*
X2963Y866D01*
X3002Y866D02*
X3008Y866D01*
X706Y865D02*
X712Y865D01*
X1553Y865D02*
X1599Y865D01*
X2843Y865D02*
X2849Y865D01*
X2902Y865D02*
X2908Y865D01*
X2930Y865D02*
X2936Y865D01*
X2957Y865D02*
X2963Y865D01*
X3002Y865D02*
X3008Y865D01*
X706Y864D02*
X712Y864D01*
X1552Y864D02*
X1599Y864D01*
X2843Y864D02*
X2849Y864D01*
X2902Y864D02*
X2908Y864D01*
X2930Y864D02*
X2936Y864D01*
X2957Y864D02*
X2963Y864D01*
X3002Y864D02*
X3008Y864D01*
X706Y863D02*
X712Y863D01*
X1552Y863D02*
X1599Y863D01*
X2843Y863D02*
X2849Y863D01*
X2902Y863D02*
X2908Y863D01*
X2930Y863D02*
X2936Y863D01*
X2957Y863D02*
X2963Y863D01*
X3002Y863D02*
X3008Y863D01*
X706Y862D02*
X712Y862D01*
X1552Y862D02*
X1599Y862D01*
X2843Y862D02*
X2849Y862D01*
X2902Y862D02*
X2908Y862D01*
X2930Y862D02*
X2936Y862D01*
X2957Y862D02*
X2963Y862D01*
X3002Y862D02*
X3008Y862D01*
X706Y861D02*
X712Y861D01*
X1553Y861D02*
X1599Y861D01*
X2843Y861D02*
X2849Y861D01*
X2902Y861D02*
X2908Y861D01*
X2930Y861D02*
X2936Y861D01*
X2957Y861D02*
X2963Y861D01*
X3002Y861D02*
X3008Y861D01*
X706Y860D02*
X712Y860D01*
X1554Y860D02*
X1598Y860D01*
X2843Y860D02*
X2849Y860D01*
X2902Y860D02*
X2908Y860D01*
X2930Y860D02*
X2963Y860D01*
X3002Y860D02*
X3008Y860D01*
X706Y859D02*
X712Y859D01*
X1576Y859D02*
X1582Y859D01*
X2843Y859D02*
X2849Y859D01*
X2902Y859D02*
X2908Y859D01*
X2930Y859D02*
X2963Y859D01*
X3002Y859D02*
X3008Y859D01*
X706Y858D02*
X712Y858D01*
X1576Y858D02*
X1582Y858D01*
X2843Y858D02*
X2849Y858D01*
X2902Y858D02*
X2908Y858D01*
X2930Y858D02*
X2963Y858D01*
X3002Y858D02*
X3008Y858D01*
X706Y857D02*
X712Y857D01*
X1576Y857D02*
X1582Y857D01*
X2843Y857D02*
X2849Y857D01*
X2902Y857D02*
X2908Y857D01*
X2931Y857D02*
X2962Y857D01*
X3002Y857D02*
X3008Y857D01*
X706Y856D02*
X712Y856D01*
X1576Y856D02*
X1582Y856D01*
X2844Y856D02*
X2849Y856D01*
X2902Y856D02*
X2908Y856D01*
X2931Y856D02*
X2962Y856D01*
X3002Y856D02*
X3008Y856D01*
X706Y855D02*
X712Y855D01*
X1576Y855D02*
X1582Y855D01*
X2844Y855D02*
X2849Y855D01*
X2903Y855D02*
X2907Y855D01*
X2932Y855D02*
X2961Y855D01*
X3003Y855D02*
X3007Y855D01*
X679Y854D02*
X712Y854D01*
X1576Y854D02*
X1582Y854D01*
X2845Y854D02*
X2848Y854D01*
X2904Y854D02*
X2906Y854D01*
X2934Y854D02*
X2959Y854D01*
X3004Y854D02*
X3006Y854D01*
X678Y853D02*
X712Y853D01*
X1576Y853D02*
X1582Y853D01*
X677Y852D02*
X712Y852D01*
X1576Y852D02*
X1582Y852D01*
X677Y851D02*
X712Y851D01*
X1576Y851D02*
X1582Y851D01*
X677Y850D02*
X712Y850D01*
X1576Y850D02*
X1582Y850D01*
X677Y849D02*
X712Y849D01*
X1576Y849D02*
X1582Y849D01*
X678Y848D02*
X712Y848D01*
X1576Y848D02*
X1582Y848D01*
X1576Y847D02*
X1582Y847D01*
X1576Y846D02*
X1582Y846D01*
X1548Y845D02*
X1582Y845D01*
X1547Y844D02*
X1582Y844D01*
X1546Y843D02*
X1582Y843D01*
X1546Y842D02*
X1582Y842D01*
X1547Y841D02*
X1582Y841D01*
X1547Y840D02*
X1582Y840D01*
X1548Y839D02*
X1582Y839D01*
X677Y830D02*
X698Y830D01*
X677Y829D02*
X700Y829D01*
X677Y828D02*
X700Y828D01*
X677Y827D02*
X701Y827D01*
X677Y826D02*
X702Y826D01*
X677Y825D02*
X703Y825D01*
X677Y824D02*
X704Y824D01*
X677Y823D02*
X683Y823D01*
X696Y823D02*
X705Y823D01*
X677Y822D02*
X683Y822D01*
X697Y822D02*
X706Y822D01*
X677Y821D02*
X683Y821D01*
X698Y821D02*
X706Y821D01*
X1546Y821D02*
X1568Y821D01*
X677Y820D02*
X683Y820D01*
X699Y820D02*
X707Y820D01*
X1546Y820D02*
X1569Y820D01*
X677Y819D02*
X683Y819D01*
X700Y819D02*
X708Y819D01*
X1546Y819D02*
X1570Y819D01*
X677Y818D02*
X683Y818D01*
X701Y818D02*
X709Y818D01*
X1546Y818D02*
X1571Y818D01*
X677Y817D02*
X683Y817D01*
X702Y817D02*
X710Y817D01*
X1546Y817D02*
X1572Y817D01*
X677Y816D02*
X683Y816D01*
X702Y816D02*
X728Y816D01*
X1546Y816D02*
X1573Y816D01*
X677Y815D02*
X683Y815D01*
X703Y815D02*
X729Y815D01*
X1546Y815D02*
X1574Y815D01*
X677Y814D02*
X683Y814D01*
X704Y814D02*
X730Y814D01*
X1546Y814D02*
X1552Y814D01*
X1566Y814D02*
X1575Y814D01*
X677Y813D02*
X683Y813D01*
X705Y813D02*
X730Y813D01*
X1546Y813D02*
X1552Y813D01*
X1567Y813D02*
X1575Y813D01*
X677Y812D02*
X683Y812D01*
X706Y812D02*
X730Y812D01*
X1546Y812D02*
X1552Y812D01*
X1568Y812D02*
X1576Y812D01*
X677Y811D02*
X683Y811D01*
X707Y811D02*
X729Y811D01*
X1546Y811D02*
X1552Y811D01*
X1569Y811D02*
X1577Y811D01*
X677Y810D02*
X683Y810D01*
X708Y810D02*
X728Y810D01*
X1546Y810D02*
X1552Y810D01*
X1570Y810D02*
X1578Y810D01*
X677Y809D02*
X683Y809D01*
X1546Y809D02*
X1552Y809D01*
X1571Y809D02*
X1579Y809D01*
X677Y808D02*
X683Y808D01*
X1546Y808D02*
X1552Y808D01*
X1571Y808D02*
X1580Y808D01*
X677Y807D02*
X683Y807D01*
X1546Y807D02*
X1552Y807D01*
X1572Y807D02*
X1598Y807D01*
X677Y806D02*
X683Y806D01*
X1546Y806D02*
X1552Y806D01*
X1573Y806D02*
X1599Y806D01*
X677Y805D02*
X683Y805D01*
X1546Y805D02*
X1552Y805D01*
X1574Y805D02*
X1599Y805D01*
X677Y804D02*
X683Y804D01*
X1546Y804D02*
X1552Y804D01*
X1575Y804D02*
X1599Y804D01*
X677Y803D02*
X683Y803D01*
X1546Y803D02*
X1552Y803D01*
X1576Y803D02*
X1599Y803D01*
X677Y802D02*
X684Y802D01*
X1546Y802D02*
X1552Y802D01*
X1577Y802D02*
X1599Y802D01*
X677Y801D02*
X685Y801D01*
X1546Y801D02*
X1552Y801D01*
X1578Y801D02*
X1597Y801D01*
X677Y800D02*
X686Y800D01*
X1546Y800D02*
X1552Y800D01*
X677Y799D02*
X686Y799D01*
X1546Y799D02*
X1552Y799D01*
X677Y798D02*
X685Y798D01*
X1546Y798D02*
X1552Y798D01*
X678Y797D02*
X685Y797D01*
X1546Y797D02*
X1552Y797D01*
X679Y796D02*
X684Y796D01*
X1546Y796D02*
X1552Y796D01*
X1546Y795D02*
X1552Y795D01*
X1546Y794D02*
X1553Y794D01*
X1546Y793D02*
X1554Y793D01*
X1546Y792D02*
X1555Y792D01*
X1546Y791D02*
X1555Y791D01*
X1546Y790D02*
X1555Y790D01*
X1547Y789D02*
X1555Y789D01*
X1547Y788D02*
X1554Y788D01*
X1549Y787D02*
X1552Y787D01*
D02*
G04 End of Silk1*
M02*