G04 MADE WITH FRITZING*
G04 WWW.FRITZING.ORG*
G04 SINGLE SIDED*
G04 HOLES NOT PLATED*
G04 CONTOUR ON CENTER OF CONTOUR VECTOR*
%ASAXBY*%
%FSLAX23Y23*%
%MOIN*%
%OFA0B0*%
%SFA1.0B1.0*%
%ADD10C,0.085000*%
%ADD11C,0.088000*%
%ADD12C,0.072992*%
%ADD13R,0.085000X0.085000*%
%ADD14R,0.072992X0.072992*%
%ADD15R,0.084803X0.072992*%
%LNMASK0*%
G90*
G70*
G54D10*
X1666Y777D03*
X1666Y1077D03*
X1766Y777D03*
X1766Y1077D03*
X1866Y777D03*
X1866Y1077D03*
X1966Y777D03*
X1966Y1077D03*
X2066Y777D03*
X2066Y1077D03*
X2166Y777D03*
X2166Y1077D03*
X2266Y777D03*
X2266Y1077D03*
X2366Y777D03*
X2366Y1077D03*
X814Y776D03*
X814Y1076D03*
X914Y776D03*
X914Y1076D03*
X1014Y776D03*
X1014Y1076D03*
X1114Y776D03*
X1114Y1076D03*
X1214Y776D03*
X1214Y1076D03*
X1314Y776D03*
X1314Y1076D03*
X1414Y776D03*
X1414Y1076D03*
X1514Y776D03*
X1514Y1076D03*
X2764Y1676D03*
X3064Y1676D03*
X2764Y1576D03*
X3064Y1576D03*
X2764Y1476D03*
X3064Y1476D03*
X2764Y1376D03*
X3064Y1376D03*
X2764Y1276D03*
X3064Y1276D03*
X2764Y1176D03*
X3064Y1176D03*
X2764Y1076D03*
X3064Y1076D03*
X2764Y776D03*
X3064Y776D03*
X2764Y676D03*
X3064Y676D03*
X2764Y576D03*
X3064Y576D03*
X2764Y476D03*
X3064Y476D03*
X2764Y376D03*
X3064Y376D03*
X2764Y276D03*
X3064Y276D03*
X2764Y176D03*
X3064Y176D03*
X1114Y1276D03*
X1966Y1277D03*
X1014Y1226D03*
X1866Y1227D03*
X914Y1176D03*
X1766Y1177D03*
X1014Y676D03*
X1866Y677D03*
X814Y626D03*
X1666Y627D03*
G54D11*
X364Y1176D03*
X364Y1076D03*
X364Y976D03*
X364Y876D03*
X364Y776D03*
X364Y676D03*
X364Y576D03*
X364Y476D03*
X3464Y1276D03*
X2664Y1176D03*
X2664Y1376D03*
X2664Y1576D03*
X2664Y276D03*
X2664Y476D03*
X2664Y676D03*
X3464Y876D03*
X3464Y776D03*
X3464Y676D03*
X4164Y476D03*
X4164Y576D03*
X4164Y676D03*
X4164Y776D03*
X4164Y876D03*
X4164Y976D03*
X4164Y1076D03*
X4164Y1176D03*
X2166Y677D03*
X1966Y677D03*
X1314Y676D03*
X1114Y676D03*
X1964Y1776D03*
X2064Y1776D03*
X1564Y1776D03*
X1664Y1776D03*
X1564Y1876D03*
X1664Y1876D03*
X1764Y1876D03*
X1864Y1876D03*
X1964Y1876D03*
X2064Y1876D03*
X2164Y1876D03*
X2264Y1876D03*
G54D10*
X1414Y1276D03*
X1764Y1626D03*
X2964Y976D03*
X2364Y976D03*
X514Y626D03*
X714Y626D03*
X2964Y426D03*
X2364Y426D03*
X3164Y1176D03*
X2364Y1176D03*
X2164Y1276D03*
X2264Y1726D03*
X2264Y1176D03*
X2263Y1526D03*
X3564Y1376D03*
X3864Y1376D03*
X3564Y1276D03*
X3864Y1276D03*
X3564Y1176D03*
X3864Y1176D03*
X3564Y1076D03*
X3864Y1076D03*
X3564Y976D03*
X3864Y976D03*
X3564Y876D03*
X3864Y876D03*
X3564Y776D03*
X3864Y776D03*
X3564Y676D03*
X3864Y676D03*
X3564Y576D03*
X3864Y576D03*
X3564Y476D03*
X3864Y476D03*
G54D11*
X3464Y1076D03*
X3464Y976D03*
X464Y1176D03*
X3964Y1276D03*
G54D12*
X364Y2078D03*
X364Y2176D03*
X564Y2078D03*
X564Y2176D03*
X764Y2078D03*
X764Y2176D03*
X964Y2078D03*
X964Y2176D03*
X1214Y2078D03*
X1214Y2176D03*
X1414Y2078D03*
X1414Y2176D03*
X2014Y2078D03*
X2014Y2176D03*
X1814Y2078D03*
X1814Y2176D03*
X1614Y2078D03*
X1614Y2176D03*
X2214Y2078D03*
X2214Y2176D03*
X2414Y2078D03*
X2414Y2176D03*
X2614Y2078D03*
X2614Y2176D03*
G54D10*
X564Y776D03*
X564Y1276D03*
G54D13*
X1666Y777D03*
X814Y776D03*
X2764Y1676D03*
X2764Y776D03*
X3564Y1376D03*
G54D14*
X364Y2078D03*
X564Y2078D03*
X764Y2078D03*
X964Y2078D03*
X1214Y2078D03*
X1414Y2078D03*
X2014Y2078D03*
X1814Y2078D03*
X1614Y2078D03*
X2214Y2078D03*
X2414Y2078D03*
X2614Y2078D03*
G54D15*
X2614Y2426D03*
X2614Y2304D03*
X2414Y2426D03*
X2414Y2304D03*
X2214Y2426D03*
X2214Y2304D03*
X2014Y2426D03*
X2014Y2304D03*
X1814Y2426D03*
X1814Y2304D03*
X1614Y2426D03*
X1614Y2304D03*
X1414Y2426D03*
X1414Y2304D03*
X1214Y2426D03*
X1214Y2304D03*
X364Y2426D03*
X364Y2304D03*
X564Y2426D03*
X564Y2304D03*
X764Y2426D03*
X764Y2304D03*
X964Y2426D03*
X964Y2304D03*
G04 End of Mask0*
M02*