G04 MADE WITH FRITZING*
G04 WWW.FRITZING.ORG*
G04 SINGLE SIDED*
G04 HOLES NOT PLATED*
G04 CONTOUR ON CENTER OF CONTOUR VECTOR*
%ASAXBY*%
%FSLAX23Y23*%
%MOIN*%
%OFA0B0*%
%SFA1.0B1.0*%
%ADD10R,0.040000X0.015000*%
%ADD11C,0.021000*%
%ADD12C,0.010000*%
%ADD13C,0.005000*%
%ADD14C,0.008000*%
%ADD15R,0.001000X0.001000*%
%LNSILK1*%
G90*
G70*
G54D10*
X1224Y2844D03*
X1224Y2819D03*
X1224Y2794D03*
X1124Y2844D03*
X1124Y2819D03*
X1124Y2794D03*
X1474Y2844D03*
X1474Y2819D03*
X1474Y2794D03*
X1374Y2844D03*
X1374Y2819D03*
X1374Y2794D03*
X2724Y2844D03*
X2724Y2819D03*
X2724Y2794D03*
X2624Y2844D03*
X2624Y2819D03*
X2624Y2794D03*
X2524Y2844D03*
X2524Y2819D03*
X2524Y2794D03*
X2424Y2844D03*
X2424Y2819D03*
X2424Y2794D03*
X2324Y2844D03*
X2324Y2819D03*
X2324Y2794D03*
X2224Y2844D03*
X2224Y2819D03*
X2224Y2794D03*
X2124Y2844D03*
X2124Y2819D03*
X2124Y2794D03*
X2024Y2844D03*
X2024Y2819D03*
X2024Y2794D03*
G54D11*
X2224Y1339D02*
X2224Y1614D01*
D02*
X2524Y1339D02*
X2524Y1614D01*
D02*
X3174Y1339D02*
X3174Y1614D01*
D02*
X3474Y1339D02*
X3474Y1614D01*
D02*
X1424Y1914D02*
X1424Y1439D01*
D02*
X1887Y2201D02*
X962Y2201D01*
D02*
X3374Y2189D02*
X3374Y2514D01*
D02*
X3074Y2189D02*
X3074Y2514D01*
D02*
X2424Y2189D02*
X2424Y2514D01*
D02*
X2124Y2189D02*
X2124Y2464D01*
D02*
X2124Y1439D02*
X2124Y1614D01*
G54D12*
D02*
X1324Y2651D02*
X1324Y2551D01*
D02*
X1324Y2551D02*
X1424Y2551D01*
D02*
X1424Y2551D02*
X1424Y2651D01*
D02*
X1424Y2651D02*
X1324Y2651D01*
G54D13*
D02*
X1324Y2616D02*
X1359Y2651D01*
G54D12*
D02*
X1274Y1701D02*
X1274Y1601D01*
D02*
X1274Y1601D02*
X1374Y1601D01*
D02*
X1374Y1601D02*
X1374Y1701D01*
D02*
X1374Y1701D02*
X1274Y1701D01*
G54D13*
D02*
X1274Y1666D02*
X1309Y1701D01*
G54D12*
D02*
X874Y1701D02*
X874Y1601D01*
D02*
X874Y1601D02*
X974Y1601D01*
D02*
X974Y1601D02*
X974Y1701D01*
D02*
X974Y1701D02*
X874Y1701D01*
G54D13*
D02*
X874Y1666D02*
X909Y1701D01*
G54D12*
D02*
X2174Y2551D02*
X2374Y2551D01*
D02*
X2374Y2551D02*
X2374Y2651D01*
D02*
X2374Y2651D02*
X2174Y2651D01*
D02*
X2174Y2651D02*
X2174Y2551D01*
G54D13*
D02*
X2209Y2551D02*
X2174Y2586D01*
G54D12*
D02*
X3224Y1701D02*
X3224Y1601D01*
D02*
X3224Y1601D02*
X3324Y1601D01*
D02*
X3324Y1601D02*
X3324Y1701D01*
D02*
X3324Y1701D02*
X3224Y1701D01*
G54D13*
D02*
X3224Y1666D02*
X3259Y1701D01*
G54D12*
D02*
X2924Y1701D02*
X2924Y1601D01*
D02*
X2924Y1601D02*
X3024Y1601D01*
D02*
X3024Y1601D02*
X3024Y1701D01*
D02*
X3024Y1701D02*
X2924Y1701D01*
G54D13*
D02*
X2924Y1666D02*
X2959Y1701D01*
G54D12*
D02*
X2824Y1701D02*
X2824Y1601D01*
D02*
X2824Y1601D02*
X2924Y1601D01*
D02*
X2924Y1601D02*
X2924Y1701D01*
D02*
X2924Y1701D02*
X2824Y1701D01*
G54D13*
D02*
X2824Y1666D02*
X2859Y1701D01*
G54D12*
D02*
X1474Y2201D02*
X1474Y2101D01*
D02*
X1474Y2101D02*
X1574Y2101D01*
D02*
X1574Y2101D02*
X1574Y2201D01*
D02*
X1574Y2201D02*
X1474Y2201D01*
G54D13*
D02*
X1474Y2166D02*
X1509Y2201D01*
G54D12*
D02*
X1174Y2201D02*
X1174Y2101D01*
D02*
X1174Y2101D02*
X1274Y2101D01*
D02*
X1274Y2101D02*
X1274Y2201D01*
D02*
X1274Y2201D02*
X1174Y2201D01*
G54D13*
D02*
X1174Y2166D02*
X1209Y2201D01*
G54D12*
D02*
X1974Y1701D02*
X1974Y1601D01*
D02*
X1974Y1601D02*
X2074Y1601D01*
D02*
X2074Y1601D02*
X2074Y1701D01*
D02*
X2074Y1701D02*
X1974Y1701D01*
G54D13*
D02*
X1974Y1666D02*
X2009Y1701D01*
G54D12*
D02*
X1874Y1701D02*
X1874Y1601D01*
D02*
X1874Y1601D02*
X1974Y1601D01*
D02*
X1974Y1601D02*
X1974Y1701D01*
D02*
X1974Y1701D02*
X1874Y1701D01*
G54D13*
D02*
X1874Y1666D02*
X1909Y1701D01*
G54D12*
D02*
X3224Y2001D02*
X3224Y1901D01*
D02*
X3224Y1901D02*
X3324Y1901D01*
D02*
X3324Y1901D02*
X3324Y2001D01*
D02*
X3324Y2001D02*
X3224Y2001D01*
G54D13*
D02*
X3224Y1966D02*
X3259Y2001D01*
G54D12*
D02*
X3624Y2101D02*
X3624Y2001D01*
D02*
X3624Y2001D02*
X3724Y2001D01*
D02*
X3724Y2001D02*
X3724Y2101D01*
D02*
X3724Y2101D02*
X3624Y2101D01*
G54D13*
D02*
X3624Y2066D02*
X3659Y2101D01*
G54D12*
D02*
X2574Y2001D02*
X2574Y1901D01*
D02*
X2574Y1901D02*
X2674Y1901D01*
D02*
X2674Y1901D02*
X2674Y2001D01*
D02*
X2674Y2001D02*
X2574Y2001D01*
G54D13*
D02*
X2574Y1966D02*
X2609Y2001D01*
G54D12*
D02*
X2274Y2001D02*
X2274Y1901D01*
D02*
X2274Y1901D02*
X2374Y1901D01*
D02*
X2374Y1901D02*
X2374Y2001D01*
D02*
X2374Y2001D02*
X2274Y2001D01*
G54D13*
D02*
X2274Y1966D02*
X2309Y2001D01*
G54D12*
D02*
X474Y2951D02*
X474Y2651D01*
D02*
X474Y2651D02*
X574Y2651D01*
D02*
X574Y2651D02*
X574Y2951D01*
D02*
X574Y2951D02*
X474Y2951D01*
G54D13*
D02*
X474Y2916D02*
X509Y2951D01*
G54D12*
D02*
X674Y2951D02*
X674Y2651D01*
D02*
X674Y2651D02*
X774Y2651D01*
D02*
X774Y2651D02*
X774Y2951D01*
D02*
X774Y2951D02*
X674Y2951D01*
G54D13*
D02*
X674Y2916D02*
X709Y2951D01*
G54D12*
D02*
X3524Y1251D02*
X2724Y1251D01*
D02*
X2724Y1251D02*
X2724Y1151D01*
D02*
X2724Y1151D02*
X3524Y1151D01*
D02*
X3524Y1151D02*
X3524Y1251D01*
G54D13*
D02*
X3489Y1251D02*
X3524Y1216D01*
G54D12*
D02*
X3974Y1901D02*
X3974Y2701D01*
D02*
X3974Y2701D02*
X3874Y2701D01*
D02*
X3874Y2701D02*
X3874Y1901D01*
D02*
X3874Y1901D02*
X3974Y1901D01*
G54D13*
D02*
X3974Y1936D02*
X3939Y1901D01*
G54D12*
D02*
X3974Y451D02*
X3974Y851D01*
D02*
X3974Y851D02*
X3874Y851D01*
D02*
X3874Y851D02*
X3874Y451D01*
D02*
X3874Y451D02*
X3974Y451D01*
G54D13*
D02*
X3974Y486D02*
X3939Y451D01*
G54D12*
D02*
X2074Y1051D02*
X2074Y251D01*
D02*
X2074Y251D02*
X2474Y251D01*
D02*
X2474Y251D02*
X2474Y1051D01*
D02*
X2074Y1051D02*
X2224Y1051D01*
D02*
X2324Y1051D02*
X2474Y1051D01*
D02*
X874Y1701D02*
X1674Y1701D01*
D02*
X1674Y1701D02*
X1674Y2101D01*
D02*
X1674Y2101D02*
X874Y2101D01*
D02*
X874Y1701D02*
X874Y1851D01*
D02*
X874Y1951D02*
X874Y2101D01*
D02*
X1874Y1701D02*
X2674Y1701D01*
D02*
X2674Y1701D02*
X2674Y2101D01*
D02*
X2674Y2101D02*
X1874Y2101D01*
D02*
X1874Y1701D02*
X1874Y1851D01*
D02*
X1874Y1951D02*
X1874Y2101D01*
D02*
X2824Y1701D02*
X3624Y1701D01*
D02*
X3624Y1701D02*
X3624Y2101D01*
D02*
X3624Y2101D02*
X2824Y2101D01*
D02*
X2824Y1701D02*
X2824Y1851D01*
D02*
X2824Y1951D02*
X2824Y2101D01*
G54D14*
D02*
X1044Y2656D02*
X1304Y2656D01*
D02*
X1304Y3046D02*
X1044Y3046D01*
D02*
X1044Y3046D02*
X1044Y2916D01*
D02*
X1044Y2786D02*
X1064Y2786D01*
D02*
X1064Y2786D02*
X1064Y2916D01*
D02*
X1064Y2916D02*
X1044Y2916D01*
D02*
X1044Y2786D02*
X1044Y2656D01*
D02*
X1044Y2916D02*
X1044Y2786D01*
D02*
X1304Y2656D02*
X1304Y2786D01*
D02*
X1304Y2916D02*
X1284Y2916D01*
D02*
X1284Y2916D02*
X1284Y2786D01*
D02*
X1284Y2786D02*
X1304Y2786D01*
D02*
X1304Y2916D02*
X1304Y3046D01*
D02*
X1304Y2786D02*
X1304Y2916D01*
D02*
X1194Y2926D02*
X1194Y2776D01*
D02*
X1194Y2926D02*
X1254Y2926D01*
D02*
X1254Y2776D02*
X1254Y2926D01*
D02*
X1254Y2776D02*
X1194Y2776D01*
D02*
X1094Y2926D02*
X1094Y2776D01*
D02*
X1094Y2926D02*
X1154Y2926D01*
D02*
X1154Y2776D02*
X1154Y2926D01*
D02*
X1154Y2776D02*
X1094Y2776D01*
D02*
X1294Y2656D02*
X1554Y2656D01*
D02*
X1554Y3046D02*
X1294Y3046D01*
D02*
X1294Y3046D02*
X1294Y2916D01*
D02*
X1294Y2786D02*
X1314Y2786D01*
D02*
X1314Y2786D02*
X1314Y2916D01*
D02*
X1314Y2916D02*
X1294Y2916D01*
D02*
X1294Y2786D02*
X1294Y2656D01*
D02*
X1294Y2916D02*
X1294Y2786D01*
D02*
X1554Y2656D02*
X1554Y2786D01*
D02*
X1554Y2916D02*
X1534Y2916D01*
D02*
X1534Y2916D02*
X1534Y2786D01*
D02*
X1534Y2786D02*
X1554Y2786D01*
D02*
X1554Y2916D02*
X1554Y3046D01*
D02*
X1554Y2786D02*
X1554Y2916D01*
D02*
X1444Y2926D02*
X1444Y2776D01*
D02*
X1444Y2926D02*
X1504Y2926D01*
D02*
X1504Y2776D02*
X1504Y2926D01*
D02*
X1504Y2776D02*
X1444Y2776D01*
D02*
X1344Y2926D02*
X1344Y2776D01*
D02*
X1344Y2926D02*
X1404Y2926D01*
D02*
X1404Y2776D02*
X1404Y2926D01*
D02*
X1404Y2776D02*
X1344Y2776D01*
D02*
X1944Y2656D02*
X2804Y2656D01*
D02*
X2804Y3046D02*
X1944Y3046D01*
D02*
X1944Y3046D02*
X1944Y2916D01*
D02*
X1944Y2786D02*
X1964Y2786D01*
D02*
X1964Y2786D02*
X1964Y2916D01*
D02*
X1964Y2916D02*
X1944Y2916D01*
D02*
X1944Y2786D02*
X1944Y2656D01*
D02*
X1944Y2916D02*
X1944Y2786D01*
D02*
X2804Y2656D02*
X2804Y2786D01*
D02*
X2804Y2916D02*
X2784Y2916D01*
D02*
X2784Y2916D02*
X2784Y2786D01*
D02*
X2784Y2786D02*
X2804Y2786D01*
D02*
X2804Y2916D02*
X2804Y3046D01*
D02*
X2804Y2786D02*
X2804Y2916D01*
D02*
X2694Y2926D02*
X2694Y2776D01*
D02*
X2694Y2926D02*
X2754Y2926D01*
D02*
X2754Y2776D02*
X2754Y2926D01*
D02*
X2754Y2776D02*
X2694Y2776D01*
D02*
X2594Y2926D02*
X2594Y2776D01*
D02*
X2594Y2926D02*
X2654Y2926D01*
D02*
X2654Y2776D02*
X2654Y2926D01*
D02*
X2654Y2776D02*
X2594Y2776D01*
D02*
X2494Y2926D02*
X2494Y2776D01*
D02*
X2494Y2926D02*
X2554Y2926D01*
D02*
X2554Y2776D02*
X2554Y2926D01*
D02*
X2554Y2776D02*
X2494Y2776D01*
D02*
X2394Y2926D02*
X2394Y2776D01*
D02*
X2394Y2926D02*
X2454Y2926D01*
D02*
X2454Y2776D02*
X2454Y2926D01*
D02*
X2454Y2776D02*
X2394Y2776D01*
D02*
X2294Y2926D02*
X2294Y2776D01*
D02*
X2294Y2926D02*
X2354Y2926D01*
D02*
X2354Y2776D02*
X2354Y2926D01*
D02*
X2354Y2776D02*
X2294Y2776D01*
D02*
X2194Y2926D02*
X2194Y2776D01*
D02*
X2194Y2926D02*
X2254Y2926D01*
D02*
X2254Y2776D02*
X2254Y2926D01*
D02*
X2254Y2776D02*
X2194Y2776D01*
D02*
X2094Y2926D02*
X2094Y2776D01*
D02*
X2094Y2926D02*
X2154Y2926D01*
D02*
X2154Y2776D02*
X2154Y2926D01*
D02*
X2154Y2776D02*
X2094Y2776D01*
D02*
X1994Y2926D02*
X1994Y2776D01*
D02*
X1994Y2926D02*
X2054Y2926D01*
D02*
X2054Y2776D02*
X2054Y2926D01*
D02*
X2054Y2776D02*
X1994Y2776D01*
G54D12*
D02*
X3224Y1051D02*
X3224Y251D01*
D02*
X3224Y251D02*
X3624Y251D01*
D02*
X3624Y251D02*
X3624Y1051D01*
D02*
X3224Y1051D02*
X3374Y1051D01*
D02*
X3474Y1051D02*
X3624Y1051D01*
G54D11*
D02*
X1274Y1889D02*
X1274Y2364D01*
G54D12*
D02*
X3324Y1051D02*
X3524Y1051D01*
D02*
X3524Y1051D02*
X3524Y1151D01*
D02*
X3524Y1151D02*
X3324Y1151D01*
D02*
X3324Y1151D02*
X3324Y1051D01*
G54D13*
D02*
X3359Y1051D02*
X3324Y1086D01*
G54D12*
D02*
X2924Y1251D02*
X3124Y1251D01*
D02*
X3124Y1251D02*
X3124Y1351D01*
D02*
X3124Y1351D02*
X2924Y1351D01*
D02*
X2924Y1351D02*
X2924Y1251D01*
G54D13*
D02*
X2959Y1251D02*
X2924Y1286D01*
G54D12*
D02*
X874Y1051D02*
X874Y351D01*
D02*
X874Y351D02*
X1274Y351D01*
D02*
X1274Y351D02*
X1274Y1051D01*
D02*
X874Y1051D02*
X1024Y1051D01*
D02*
X1124Y1051D02*
X1274Y1051D01*
D02*
X1578Y773D02*
X1578Y852D01*
D02*
X1775Y694D02*
X1608Y694D01*
D02*
X1775Y931D02*
X1608Y931D01*
D02*
X1814Y773D02*
X1814Y852D01*
D02*
X1696Y793D02*
X1696Y832D01*
D02*
X1676Y812D02*
X1716Y812D01*
D02*
X1174Y1251D02*
X1574Y1251D01*
D02*
X1574Y1251D02*
X1574Y1351D01*
D02*
X1574Y1351D02*
X1174Y1351D01*
D02*
X1174Y1351D02*
X1174Y1251D01*
G54D13*
D02*
X1209Y1251D02*
X1174Y1286D01*
G54D12*
D02*
X474Y1601D02*
X474Y2401D01*
D02*
X474Y2401D02*
X374Y2401D01*
D02*
X374Y2401D02*
X374Y1601D01*
D02*
X374Y1601D02*
X474Y1601D01*
G54D13*
D02*
X474Y1636D02*
X439Y1601D01*
G54D11*
D02*
X1574Y1914D02*
X1574Y1439D01*
G54D12*
D02*
X1374Y1701D02*
X1374Y1601D01*
D02*
X1374Y1601D02*
X1474Y1601D01*
D02*
X1474Y1601D02*
X1474Y1701D01*
D02*
X1474Y1701D02*
X1374Y1701D01*
G54D13*
D02*
X1374Y1666D02*
X1409Y1701D01*
G54D12*
D02*
X3124Y851D02*
X3124Y551D01*
D02*
X3124Y551D02*
X3224Y551D01*
D02*
X3224Y551D02*
X3224Y851D01*
D02*
X3224Y851D02*
X3124Y851D01*
G54D13*
D02*
X3124Y816D02*
X3159Y851D01*
G54D11*
D02*
X562Y1751D02*
X787Y1751D01*
D02*
X612Y2351D02*
X787Y2351D01*
G54D12*
D02*
X1187Y302D02*
X1150Y302D01*
D02*
X1000Y302D02*
X962Y302D01*
D02*
X1150Y277D02*
X1000Y277D01*
D02*
X1000Y277D02*
X1000Y327D01*
D02*
X1000Y327D02*
X1150Y327D01*
D02*
X1150Y327D02*
X1150Y277D01*
D02*
X2274Y1051D02*
X2274Y951D01*
D02*
X2274Y951D02*
X2374Y951D01*
D02*
X2374Y951D02*
X2374Y1051D01*
D02*
X2374Y1051D02*
X2274Y1051D01*
G54D13*
D02*
X2274Y1016D02*
X2309Y1051D01*
G54D12*
D02*
X1074Y1051D02*
X1074Y951D01*
D02*
X1074Y951D02*
X1174Y951D01*
D02*
X1174Y951D02*
X1174Y1051D01*
D02*
X1174Y1051D02*
X1074Y1051D01*
G54D13*
D02*
X1074Y1016D02*
X1109Y1051D01*
G54D12*
D02*
X3424Y1051D02*
X3424Y951D01*
D02*
X3424Y951D02*
X3524Y951D01*
D02*
X3524Y951D02*
X3524Y1051D01*
D02*
X3524Y1051D02*
X3424Y1051D01*
G54D13*
D02*
X3424Y1016D02*
X3459Y1051D01*
G54D12*
D02*
X2474Y1051D02*
X2474Y951D01*
D02*
X2474Y951D02*
X2574Y951D01*
D02*
X2574Y951D02*
X2574Y1051D01*
D02*
X2574Y1051D02*
X2474Y1051D01*
G54D13*
D02*
X2474Y1016D02*
X2509Y1051D01*
G54D12*
D02*
X1274Y1051D02*
X1274Y951D01*
D02*
X1274Y951D02*
X1374Y951D01*
D02*
X1374Y951D02*
X1374Y1051D01*
D02*
X1374Y1051D02*
X1274Y1051D01*
G54D13*
D02*
X1274Y1016D02*
X1309Y1051D01*
G54D12*
D02*
X874Y1451D02*
X874Y1351D01*
D02*
X874Y1351D02*
X974Y1351D01*
D02*
X974Y1351D02*
X974Y1451D01*
D02*
X974Y1451D02*
X874Y1451D01*
G54D13*
D02*
X874Y1416D02*
X909Y1451D01*
G54D11*
D02*
X1987Y2251D02*
X1712Y2251D01*
D02*
X1537Y551D02*
X1062Y551D01*
D02*
X3037Y901D02*
X2862Y901D01*
D02*
X2624Y939D02*
X2624Y1614D01*
G54D12*
D02*
X1974Y751D02*
X1974Y651D01*
D02*
X1974Y651D02*
X2074Y651D01*
D02*
X2074Y651D02*
X2074Y751D01*
D02*
X2074Y751D02*
X1974Y751D01*
G54D13*
D02*
X1974Y716D02*
X2009Y751D01*
G54D12*
D02*
X474Y2201D02*
X474Y2101D01*
D02*
X474Y2101D02*
X574Y2101D01*
D02*
X574Y2101D02*
X574Y2201D01*
D02*
X574Y2201D02*
X474Y2201D01*
G54D13*
D02*
X474Y2166D02*
X509Y2201D01*
G54D14*
X1449Y367D02*
X1449Y342D01*
D02*
X1449Y237D02*
X1449Y262D01*
D02*
G54D15*
X223Y2981D02*
X231Y2981D01*
X214Y2980D02*
X240Y2980D01*
X209Y2979D02*
X245Y2979D01*
X205Y2978D02*
X248Y2978D01*
X202Y2977D02*
X252Y2977D01*
X199Y2976D02*
X219Y2976D01*
X234Y2976D02*
X255Y2976D01*
X197Y2975D02*
X212Y2975D01*
X241Y2975D02*
X257Y2975D01*
X194Y2974D02*
X208Y2974D01*
X246Y2974D02*
X259Y2974D01*
X192Y2973D02*
X204Y2973D01*
X249Y2973D02*
X261Y2973D01*
X190Y2972D02*
X201Y2972D01*
X252Y2972D02*
X263Y2972D01*
X188Y2971D02*
X199Y2971D01*
X255Y2971D02*
X265Y2971D01*
X186Y2970D02*
X196Y2970D01*
X257Y2970D02*
X267Y2970D01*
X185Y2969D02*
X194Y2969D01*
X259Y2969D02*
X269Y2969D01*
X183Y2968D02*
X192Y2968D01*
X261Y2968D02*
X270Y2968D01*
X182Y2967D02*
X190Y2967D01*
X263Y2967D02*
X272Y2967D01*
X180Y2966D02*
X188Y2966D01*
X265Y2966D02*
X273Y2966D01*
X179Y2965D02*
X187Y2965D01*
X266Y2965D02*
X274Y2965D01*
X178Y2964D02*
X185Y2964D01*
X268Y2964D02*
X276Y2964D01*
X177Y2963D02*
X184Y2963D01*
X269Y2963D02*
X277Y2963D01*
X175Y2962D02*
X182Y2962D01*
X271Y2962D02*
X278Y2962D01*
X174Y2961D02*
X181Y2961D01*
X272Y2961D02*
X279Y2961D01*
X173Y2960D02*
X180Y2960D01*
X273Y2960D02*
X280Y2960D01*
X172Y2959D02*
X179Y2959D01*
X275Y2959D02*
X281Y2959D01*
X171Y2958D02*
X177Y2958D01*
X276Y2958D02*
X282Y2958D01*
X170Y2957D02*
X176Y2957D01*
X277Y2957D02*
X283Y2957D01*
X169Y2956D02*
X175Y2956D01*
X278Y2956D02*
X284Y2956D01*
X168Y2955D02*
X174Y2955D01*
X279Y2955D02*
X285Y2955D01*
X167Y2954D02*
X173Y2954D01*
X280Y2954D02*
X286Y2954D01*
X167Y2953D02*
X172Y2953D01*
X281Y2953D02*
X287Y2953D01*
X166Y2952D02*
X171Y2952D01*
X282Y2952D02*
X288Y2952D01*
X165Y2951D02*
X171Y2951D01*
X283Y2951D02*
X289Y2951D01*
X164Y2950D02*
X170Y2950D01*
X284Y2950D02*
X289Y2950D01*
X163Y2949D02*
X169Y2949D01*
X285Y2949D02*
X290Y2949D01*
X163Y2948D02*
X168Y2948D01*
X285Y2948D02*
X290Y2948D01*
X162Y2947D02*
X167Y2947D01*
X286Y2947D02*
X290Y2947D01*
X161Y2946D02*
X166Y2946D01*
X286Y2946D02*
X290Y2946D01*
X160Y2945D02*
X166Y2945D01*
X286Y2945D02*
X290Y2945D01*
X160Y2944D02*
X165Y2944D01*
X286Y2944D02*
X290Y2944D01*
X159Y2943D02*
X164Y2943D01*
X286Y2943D02*
X290Y2943D01*
X159Y2942D02*
X164Y2942D01*
X286Y2942D02*
X290Y2942D01*
X158Y2941D02*
X163Y2941D01*
X286Y2941D02*
X290Y2941D01*
X158Y2940D02*
X162Y2940D01*
X286Y2940D02*
X290Y2940D01*
X158Y2939D02*
X162Y2939D01*
X286Y2939D02*
X290Y2939D01*
X160Y2938D02*
X161Y2938D01*
X286Y2938D02*
X290Y2938D01*
X286Y2937D02*
X290Y2937D01*
X286Y2936D02*
X290Y2936D01*
X286Y2935D02*
X290Y2935D01*
X286Y2934D02*
X290Y2934D01*
X288Y2933D02*
X289Y2933D01*
X288Y2871D02*
X289Y2871D01*
X287Y2870D02*
X290Y2870D01*
X286Y2869D02*
X290Y2869D01*
X286Y2868D02*
X290Y2868D01*
X286Y2867D02*
X290Y2867D01*
X286Y2866D02*
X290Y2866D01*
X161Y2865D02*
X161Y2865D01*
X286Y2865D02*
X290Y2865D01*
X159Y2864D02*
X162Y2864D01*
X286Y2864D02*
X290Y2864D01*
X159Y2863D02*
X163Y2863D01*
X286Y2863D02*
X290Y2863D01*
X159Y2862D02*
X164Y2862D01*
X286Y2862D02*
X290Y2862D01*
X159Y2861D02*
X164Y2861D01*
X286Y2861D02*
X290Y2861D01*
X160Y2860D02*
X165Y2860D01*
X286Y2860D02*
X290Y2860D01*
X161Y2859D02*
X166Y2859D01*
X286Y2859D02*
X290Y2859D01*
X161Y2858D02*
X166Y2858D01*
X286Y2858D02*
X290Y2858D01*
X162Y2857D02*
X167Y2857D01*
X286Y2857D02*
X290Y2857D01*
X163Y2856D02*
X168Y2856D01*
X285Y2856D02*
X290Y2856D01*
X163Y2855D02*
X169Y2855D01*
X285Y2855D02*
X290Y2855D01*
X164Y2854D02*
X170Y2854D01*
X284Y2854D02*
X289Y2854D01*
X165Y2853D02*
X170Y2853D01*
X283Y2853D02*
X289Y2853D01*
X166Y2852D02*
X171Y2852D01*
X282Y2852D02*
X288Y2852D01*
X166Y2851D02*
X172Y2851D01*
X281Y2851D02*
X287Y2851D01*
X167Y2850D02*
X173Y2850D01*
X280Y2850D02*
X286Y2850D01*
X168Y2849D02*
X174Y2849D01*
X279Y2849D02*
X285Y2849D01*
X169Y2848D02*
X175Y2848D01*
X278Y2848D02*
X284Y2848D01*
X170Y2847D02*
X176Y2847D01*
X277Y2847D02*
X283Y2847D01*
X171Y2846D02*
X178Y2846D01*
X276Y2846D02*
X282Y2846D01*
X172Y2845D02*
X179Y2845D01*
X275Y2845D02*
X281Y2845D01*
X173Y2844D02*
X180Y2844D01*
X273Y2844D02*
X280Y2844D01*
X174Y2843D02*
X181Y2843D01*
X272Y2843D02*
X279Y2843D01*
X175Y2842D02*
X183Y2842D01*
X271Y2842D02*
X278Y2842D01*
X177Y2841D02*
X184Y2841D01*
X270Y2841D02*
X277Y2841D01*
X178Y2840D02*
X186Y2840D01*
X268Y2840D02*
X275Y2840D01*
X179Y2839D02*
X187Y2839D01*
X266Y2839D02*
X274Y2839D01*
X180Y2838D02*
X189Y2838D01*
X265Y2838D02*
X273Y2838D01*
X182Y2837D02*
X190Y2837D01*
X263Y2837D02*
X272Y2837D01*
X183Y2836D02*
X192Y2836D01*
X261Y2836D02*
X270Y2836D01*
X185Y2835D02*
X194Y2835D01*
X259Y2835D02*
X268Y2835D01*
X186Y2834D02*
X196Y2834D01*
X257Y2834D02*
X267Y2834D01*
X188Y2833D02*
X199Y2833D01*
X255Y2833D02*
X265Y2833D01*
X190Y2832D02*
X201Y2832D01*
X252Y2832D02*
X263Y2832D01*
X192Y2831D02*
X205Y2831D01*
X249Y2831D02*
X261Y2831D01*
X194Y2830D02*
X208Y2830D01*
X246Y2830D02*
X259Y2830D01*
X196Y2829D02*
X212Y2829D01*
X241Y2829D02*
X257Y2829D01*
X199Y2828D02*
X220Y2828D01*
X234Y2828D02*
X254Y2828D01*
X202Y2827D02*
X251Y2827D01*
X205Y2826D02*
X248Y2826D01*
X209Y2825D02*
X245Y2825D01*
X214Y2824D02*
X239Y2824D01*
X222Y2823D02*
X231Y2823D01*
X222Y2781D02*
X232Y2781D01*
X214Y2780D02*
X240Y2780D01*
X209Y2779D02*
X245Y2779D01*
X205Y2778D02*
X249Y2778D01*
X202Y2777D02*
X252Y2777D01*
X199Y2776D02*
X219Y2776D01*
X234Y2776D02*
X255Y2776D01*
X197Y2775D02*
X212Y2775D01*
X241Y2775D02*
X257Y2775D01*
X194Y2774D02*
X207Y2774D01*
X246Y2774D02*
X259Y2774D01*
X192Y2773D02*
X204Y2773D01*
X249Y2773D02*
X262Y2773D01*
X190Y2772D02*
X201Y2772D01*
X252Y2772D02*
X263Y2772D01*
X188Y2771D02*
X199Y2771D01*
X255Y2771D02*
X265Y2771D01*
X186Y2770D02*
X196Y2770D01*
X257Y2770D02*
X267Y2770D01*
X185Y2769D02*
X194Y2769D01*
X259Y2769D02*
X269Y2769D01*
X183Y2768D02*
X192Y2768D01*
X261Y2768D02*
X270Y2768D01*
X182Y2767D02*
X190Y2767D01*
X263Y2767D02*
X272Y2767D01*
X180Y2766D02*
X188Y2766D01*
X265Y2766D02*
X273Y2766D01*
X179Y2765D02*
X187Y2765D01*
X266Y2765D02*
X274Y2765D01*
X178Y2764D02*
X185Y2764D01*
X268Y2764D02*
X276Y2764D01*
X177Y2763D02*
X184Y2763D01*
X269Y2763D02*
X277Y2763D01*
X175Y2762D02*
X182Y2762D01*
X271Y2762D02*
X278Y2762D01*
X174Y2761D02*
X181Y2761D01*
X272Y2761D02*
X279Y2761D01*
X173Y2760D02*
X180Y2760D01*
X273Y2760D02*
X280Y2760D01*
X172Y2759D02*
X179Y2759D01*
X275Y2759D02*
X281Y2759D01*
X171Y2758D02*
X177Y2758D01*
X276Y2758D02*
X282Y2758D01*
X170Y2757D02*
X176Y2757D01*
X277Y2757D02*
X283Y2757D01*
X169Y2756D02*
X175Y2756D01*
X278Y2756D02*
X284Y2756D01*
X168Y2755D02*
X174Y2755D01*
X279Y2755D02*
X285Y2755D01*
X167Y2754D02*
X173Y2754D01*
X280Y2754D02*
X286Y2754D01*
X166Y2753D02*
X172Y2753D01*
X281Y2753D02*
X287Y2753D01*
X166Y2752D02*
X171Y2752D01*
X282Y2752D02*
X288Y2752D01*
X165Y2751D02*
X170Y2751D01*
X283Y2751D02*
X289Y2751D01*
X164Y2750D02*
X170Y2750D01*
X284Y2750D02*
X289Y2750D01*
X163Y2749D02*
X169Y2749D01*
X285Y2749D02*
X290Y2749D01*
X163Y2748D02*
X168Y2748D01*
X285Y2748D02*
X290Y2748D01*
X162Y2747D02*
X167Y2747D01*
X286Y2747D02*
X290Y2747D01*
X161Y2746D02*
X166Y2746D01*
X286Y2746D02*
X290Y2746D01*
X160Y2745D02*
X166Y2745D01*
X286Y2745D02*
X290Y2745D01*
X160Y2744D02*
X165Y2744D01*
X286Y2744D02*
X290Y2744D01*
X159Y2743D02*
X164Y2743D01*
X286Y2743D02*
X290Y2743D01*
X159Y2742D02*
X164Y2742D01*
X286Y2742D02*
X290Y2742D01*
X158Y2741D02*
X163Y2741D01*
X286Y2741D02*
X290Y2741D01*
X158Y2740D02*
X162Y2740D01*
X286Y2740D02*
X290Y2740D01*
X159Y2739D02*
X162Y2739D01*
X286Y2739D02*
X290Y2739D01*
X160Y2738D02*
X160Y2738D01*
X286Y2738D02*
X290Y2738D01*
X286Y2737D02*
X290Y2737D01*
X286Y2736D02*
X290Y2736D01*
X286Y2735D02*
X290Y2735D01*
X287Y2734D02*
X290Y2734D01*
X288Y2733D02*
X288Y2733D01*
X288Y2671D02*
X289Y2671D01*
X286Y2670D02*
X290Y2670D01*
X286Y2669D02*
X290Y2669D01*
X286Y2668D02*
X290Y2668D01*
X286Y2667D02*
X290Y2667D01*
X286Y2666D02*
X290Y2666D01*
X161Y2665D02*
X161Y2665D01*
X286Y2665D02*
X290Y2665D01*
X159Y2664D02*
X162Y2664D01*
X286Y2664D02*
X290Y2664D01*
X159Y2663D02*
X163Y2663D01*
X286Y2663D02*
X290Y2663D01*
X159Y2662D02*
X164Y2662D01*
X286Y2662D02*
X290Y2662D01*
X159Y2661D02*
X164Y2661D01*
X286Y2661D02*
X290Y2661D01*
X160Y2660D02*
X165Y2660D01*
X286Y2660D02*
X290Y2660D01*
X161Y2659D02*
X166Y2659D01*
X286Y2659D02*
X290Y2659D01*
X161Y2658D02*
X166Y2658D01*
X286Y2658D02*
X290Y2658D01*
X162Y2657D02*
X167Y2657D01*
X286Y2657D02*
X290Y2657D01*
X163Y2656D02*
X168Y2656D01*
X285Y2656D02*
X290Y2656D01*
X163Y2655D02*
X169Y2655D01*
X284Y2655D02*
X290Y2655D01*
X164Y2654D02*
X170Y2654D01*
X284Y2654D02*
X289Y2654D01*
X165Y2653D02*
X170Y2653D01*
X283Y2653D02*
X288Y2653D01*
X166Y2652D02*
X171Y2652D01*
X282Y2652D02*
X288Y2652D01*
X167Y2651D02*
X172Y2651D01*
X281Y2651D02*
X287Y2651D01*
X167Y2650D02*
X173Y2650D01*
X280Y2650D02*
X286Y2650D01*
X168Y2649D02*
X174Y2649D01*
X279Y2649D02*
X285Y2649D01*
X169Y2648D02*
X175Y2648D01*
X278Y2648D02*
X284Y2648D01*
X170Y2647D02*
X176Y2647D01*
X277Y2647D02*
X283Y2647D01*
X171Y2646D02*
X178Y2646D01*
X276Y2646D02*
X282Y2646D01*
X172Y2645D02*
X179Y2645D01*
X275Y2645D02*
X281Y2645D01*
X173Y2644D02*
X180Y2644D01*
X273Y2644D02*
X280Y2644D01*
X174Y2643D02*
X181Y2643D01*
X272Y2643D02*
X279Y2643D01*
X175Y2642D02*
X183Y2642D01*
X271Y2642D02*
X278Y2642D01*
X177Y2641D02*
X184Y2641D01*
X269Y2641D02*
X277Y2641D01*
X178Y2640D02*
X186Y2640D01*
X268Y2640D02*
X275Y2640D01*
X179Y2639D02*
X187Y2639D01*
X266Y2639D02*
X274Y2639D01*
X180Y2638D02*
X189Y2638D01*
X265Y2638D02*
X273Y2638D01*
X182Y2637D02*
X191Y2637D01*
X263Y2637D02*
X271Y2637D01*
X183Y2636D02*
X192Y2636D01*
X261Y2636D02*
X270Y2636D01*
X185Y2635D02*
X194Y2635D01*
X259Y2635D02*
X268Y2635D01*
X186Y2634D02*
X197Y2634D01*
X257Y2634D02*
X267Y2634D01*
X188Y2633D02*
X199Y2633D01*
X255Y2633D02*
X265Y2633D01*
X190Y2632D02*
X201Y2632D01*
X252Y2632D02*
X263Y2632D01*
X192Y2631D02*
X205Y2631D01*
X249Y2631D02*
X261Y2631D01*
X194Y2630D02*
X208Y2630D01*
X246Y2630D02*
X259Y2630D01*
X197Y2629D02*
X213Y2629D01*
X241Y2629D02*
X257Y2629D01*
X199Y2628D02*
X220Y2628D01*
X234Y2628D02*
X254Y2628D01*
X202Y2627D02*
X251Y2627D01*
X205Y2626D02*
X248Y2626D01*
X209Y2625D02*
X244Y2625D01*
X214Y2624D02*
X239Y2624D01*
X223Y2623D02*
X230Y2623D01*
X992Y1137D02*
X1023Y1137D01*
X1044Y1137D02*
X1044Y1137D01*
X1095Y1137D02*
X1117Y1137D01*
X1145Y1137D02*
X1167Y1137D01*
X990Y1136D02*
X1023Y1136D01*
X1042Y1136D02*
X1046Y1136D01*
X1093Y1136D02*
X1120Y1136D01*
X1143Y1136D02*
X1170Y1136D01*
X990Y1135D02*
X1023Y1135D01*
X1041Y1135D02*
X1047Y1135D01*
X1091Y1135D02*
X1121Y1135D01*
X1141Y1135D02*
X1171Y1135D01*
X989Y1134D02*
X1023Y1134D01*
X1041Y1134D02*
X1047Y1134D01*
X1090Y1134D02*
X1122Y1134D01*
X1140Y1134D02*
X1172Y1134D01*
X2168Y1134D02*
X2198Y1134D01*
X2219Y1134D02*
X2220Y1134D01*
X2268Y1134D02*
X2285Y1134D01*
X2322Y1134D02*
X2346Y1134D01*
X2368Y1134D02*
X2398Y1134D01*
X989Y1133D02*
X1023Y1133D01*
X1041Y1133D02*
X1047Y1133D01*
X1090Y1133D02*
X1122Y1133D01*
X1140Y1133D02*
X1172Y1133D01*
X2166Y1133D02*
X2199Y1133D01*
X2218Y1133D02*
X2222Y1133D01*
X2266Y1133D02*
X2285Y1133D01*
X2322Y1133D02*
X2348Y1133D01*
X2366Y1133D02*
X2399Y1133D01*
X989Y1132D02*
X1023Y1132D01*
X1041Y1132D02*
X1047Y1132D01*
X1090Y1132D02*
X1123Y1132D01*
X1140Y1132D02*
X1173Y1132D01*
X2165Y1132D02*
X2199Y1132D01*
X2217Y1132D02*
X2222Y1132D01*
X2265Y1132D02*
X2285Y1132D01*
X2322Y1132D02*
X2348Y1132D01*
X2365Y1132D02*
X2399Y1132D01*
X989Y1131D02*
X1023Y1131D01*
X1041Y1131D02*
X1047Y1131D01*
X1064Y1131D02*
X1065Y1131D01*
X1089Y1131D02*
X1123Y1131D01*
X1139Y1131D02*
X1173Y1131D01*
X2165Y1131D02*
X2199Y1131D01*
X2217Y1131D02*
X2223Y1131D01*
X2265Y1131D02*
X2285Y1131D01*
X2322Y1131D02*
X2349Y1131D01*
X2365Y1131D02*
X2399Y1131D01*
X989Y1130D02*
X995Y1130D01*
X1017Y1130D02*
X1023Y1130D01*
X1041Y1130D02*
X1047Y1130D01*
X1063Y1130D02*
X1067Y1130D01*
X1089Y1130D02*
X1096Y1130D01*
X1117Y1130D02*
X1123Y1130D01*
X1139Y1130D02*
X1146Y1130D01*
X1167Y1130D02*
X1173Y1130D01*
X2165Y1130D02*
X2199Y1130D01*
X2217Y1130D02*
X2223Y1130D01*
X2265Y1130D02*
X2285Y1130D01*
X2322Y1130D02*
X2348Y1130D01*
X2365Y1130D02*
X2399Y1130D01*
X990Y1129D02*
X995Y1129D01*
X1017Y1129D02*
X1023Y1129D01*
X1041Y1129D02*
X1047Y1129D01*
X1062Y1129D02*
X1067Y1129D01*
X1089Y1129D02*
X1095Y1129D01*
X1117Y1129D02*
X1123Y1129D01*
X1139Y1129D02*
X1145Y1129D01*
X1167Y1129D02*
X1173Y1129D01*
X2165Y1129D02*
X2199Y1129D01*
X2217Y1129D02*
X2223Y1129D01*
X2265Y1129D02*
X2285Y1129D01*
X2322Y1129D02*
X2348Y1129D01*
X2365Y1129D02*
X2399Y1129D01*
X991Y1128D02*
X994Y1128D01*
X1017Y1128D02*
X1023Y1128D01*
X1041Y1128D02*
X1047Y1128D01*
X1062Y1128D02*
X1068Y1128D01*
X1089Y1128D02*
X1095Y1128D01*
X1117Y1128D02*
X1123Y1128D01*
X1139Y1128D02*
X1145Y1128D01*
X1167Y1128D02*
X1173Y1128D01*
X2165Y1128D02*
X2199Y1128D01*
X2217Y1128D02*
X2223Y1128D01*
X2240Y1128D02*
X2241Y1128D01*
X2266Y1128D02*
X2285Y1128D01*
X2322Y1128D02*
X2347Y1128D01*
X2365Y1128D02*
X2399Y1128D01*
X1017Y1127D02*
X1023Y1127D01*
X1041Y1127D02*
X1047Y1127D01*
X1062Y1127D02*
X1068Y1127D01*
X1089Y1127D02*
X1095Y1127D01*
X1117Y1127D02*
X1123Y1127D01*
X1139Y1127D02*
X1145Y1127D01*
X1167Y1127D02*
X1173Y1127D01*
X2165Y1127D02*
X2171Y1127D01*
X2192Y1127D02*
X2199Y1127D01*
X2217Y1127D02*
X2223Y1127D01*
X2238Y1127D02*
X2243Y1127D01*
X2279Y1127D02*
X2285Y1127D01*
X2322Y1127D02*
X2328Y1127D01*
X2365Y1127D02*
X2371Y1127D01*
X2392Y1127D02*
X2399Y1127D01*
X1017Y1126D02*
X1023Y1126D01*
X1041Y1126D02*
X1047Y1126D01*
X1062Y1126D02*
X1068Y1126D01*
X1089Y1126D02*
X1095Y1126D01*
X1117Y1126D02*
X1123Y1126D01*
X1139Y1126D02*
X1145Y1126D01*
X1167Y1126D02*
X1173Y1126D01*
X2166Y1126D02*
X2170Y1126D01*
X2193Y1126D02*
X2199Y1126D01*
X2217Y1126D02*
X2223Y1126D01*
X2238Y1126D02*
X2243Y1126D01*
X2279Y1126D02*
X2285Y1126D01*
X2322Y1126D02*
X2328Y1126D01*
X2365Y1126D02*
X2370Y1126D01*
X2393Y1126D02*
X2399Y1126D01*
X1017Y1125D02*
X1023Y1125D01*
X1041Y1125D02*
X1047Y1125D01*
X1062Y1125D02*
X1068Y1125D01*
X1089Y1125D02*
X1095Y1125D01*
X1117Y1125D02*
X1123Y1125D01*
X1139Y1125D02*
X1145Y1125D01*
X1167Y1125D02*
X1173Y1125D01*
X2166Y1125D02*
X2170Y1125D01*
X2193Y1125D02*
X2199Y1125D01*
X2217Y1125D02*
X2223Y1125D01*
X2237Y1125D02*
X2243Y1125D01*
X2279Y1125D02*
X2285Y1125D01*
X2322Y1125D02*
X2328Y1125D01*
X2366Y1125D02*
X2370Y1125D01*
X2393Y1125D02*
X2399Y1125D01*
X1017Y1124D02*
X1023Y1124D01*
X1041Y1124D02*
X1047Y1124D01*
X1062Y1124D02*
X1068Y1124D01*
X1089Y1124D02*
X1095Y1124D01*
X1117Y1124D02*
X1123Y1124D01*
X1139Y1124D02*
X1145Y1124D01*
X1167Y1124D02*
X1173Y1124D01*
X2193Y1124D02*
X2199Y1124D01*
X2217Y1124D02*
X2223Y1124D01*
X2237Y1124D02*
X2243Y1124D01*
X2279Y1124D02*
X2285Y1124D01*
X2322Y1124D02*
X2328Y1124D01*
X2393Y1124D02*
X2399Y1124D01*
X1017Y1123D02*
X1023Y1123D01*
X1041Y1123D02*
X1047Y1123D01*
X1062Y1123D02*
X1068Y1123D01*
X1089Y1123D02*
X1095Y1123D01*
X1117Y1123D02*
X1123Y1123D01*
X1139Y1123D02*
X1145Y1123D01*
X1167Y1123D02*
X1173Y1123D01*
X2193Y1123D02*
X2199Y1123D01*
X2217Y1123D02*
X2223Y1123D01*
X2237Y1123D02*
X2243Y1123D01*
X2279Y1123D02*
X2285Y1123D01*
X2322Y1123D02*
X2328Y1123D01*
X2393Y1123D02*
X2399Y1123D01*
X1017Y1122D02*
X1023Y1122D01*
X1041Y1122D02*
X1047Y1122D01*
X1062Y1122D02*
X1068Y1122D01*
X1089Y1122D02*
X1095Y1122D01*
X1117Y1122D02*
X1123Y1122D01*
X1139Y1122D02*
X1145Y1122D01*
X1167Y1122D02*
X1173Y1122D01*
X2193Y1122D02*
X2199Y1122D01*
X2217Y1122D02*
X2223Y1122D01*
X2237Y1122D02*
X2243Y1122D01*
X2279Y1122D02*
X2285Y1122D01*
X2322Y1122D02*
X2328Y1122D01*
X2393Y1122D02*
X2399Y1122D01*
X1017Y1121D02*
X1023Y1121D01*
X1041Y1121D02*
X1047Y1121D01*
X1062Y1121D02*
X1068Y1121D01*
X1089Y1121D02*
X1095Y1121D01*
X1117Y1121D02*
X1123Y1121D01*
X1139Y1121D02*
X1145Y1121D01*
X1167Y1121D02*
X1173Y1121D01*
X2193Y1121D02*
X2199Y1121D01*
X2217Y1121D02*
X2223Y1121D01*
X2237Y1121D02*
X2243Y1121D01*
X2279Y1121D02*
X2285Y1121D01*
X2322Y1121D02*
X2328Y1121D01*
X2393Y1121D02*
X2399Y1121D01*
X1017Y1120D02*
X1023Y1120D01*
X1041Y1120D02*
X1047Y1120D01*
X1062Y1120D02*
X1068Y1120D01*
X1089Y1120D02*
X1095Y1120D01*
X1117Y1120D02*
X1123Y1120D01*
X1139Y1120D02*
X1145Y1120D01*
X1167Y1120D02*
X1173Y1120D01*
X2193Y1120D02*
X2199Y1120D01*
X2217Y1120D02*
X2223Y1120D01*
X2237Y1120D02*
X2243Y1120D01*
X2279Y1120D02*
X2285Y1120D01*
X2322Y1120D02*
X2328Y1120D01*
X2393Y1120D02*
X2399Y1120D01*
X1017Y1119D02*
X1023Y1119D01*
X1041Y1119D02*
X1047Y1119D01*
X1062Y1119D02*
X1068Y1119D01*
X1089Y1119D02*
X1095Y1119D01*
X1117Y1119D02*
X1123Y1119D01*
X1139Y1119D02*
X1145Y1119D01*
X1167Y1119D02*
X1173Y1119D01*
X2193Y1119D02*
X2199Y1119D01*
X2217Y1119D02*
X2223Y1119D01*
X2237Y1119D02*
X2243Y1119D01*
X2279Y1119D02*
X2285Y1119D01*
X2322Y1119D02*
X2328Y1119D01*
X2393Y1119D02*
X2399Y1119D01*
X1017Y1118D02*
X1023Y1118D01*
X1041Y1118D02*
X1047Y1118D01*
X1062Y1118D02*
X1068Y1118D01*
X1089Y1118D02*
X1095Y1118D01*
X1117Y1118D02*
X1123Y1118D01*
X1139Y1118D02*
X1145Y1118D01*
X1167Y1118D02*
X1173Y1118D01*
X2193Y1118D02*
X2199Y1118D01*
X2217Y1118D02*
X2223Y1118D01*
X2237Y1118D02*
X2243Y1118D01*
X2279Y1118D02*
X2285Y1118D01*
X2322Y1118D02*
X2328Y1118D01*
X2393Y1118D02*
X2399Y1118D01*
X1016Y1117D02*
X1023Y1117D01*
X1041Y1117D02*
X1047Y1117D01*
X1062Y1117D02*
X1068Y1117D01*
X1089Y1117D02*
X1095Y1117D01*
X1117Y1117D02*
X1123Y1117D01*
X1139Y1117D02*
X1145Y1117D01*
X1167Y1117D02*
X1173Y1117D01*
X2193Y1117D02*
X2199Y1117D01*
X2217Y1117D02*
X2223Y1117D01*
X2237Y1117D02*
X2243Y1117D01*
X2279Y1117D02*
X2285Y1117D01*
X2322Y1117D02*
X2328Y1117D01*
X2393Y1117D02*
X2399Y1117D01*
X1015Y1116D02*
X1023Y1116D01*
X1041Y1116D02*
X1047Y1116D01*
X1062Y1116D02*
X1068Y1116D01*
X1089Y1116D02*
X1095Y1116D01*
X1117Y1116D02*
X1123Y1116D01*
X1139Y1116D02*
X1145Y1116D01*
X1167Y1116D02*
X1173Y1116D01*
X2193Y1116D02*
X2199Y1116D01*
X2217Y1116D02*
X2223Y1116D01*
X2237Y1116D02*
X2243Y1116D01*
X2279Y1116D02*
X2285Y1116D01*
X2322Y1116D02*
X2328Y1116D01*
X2393Y1116D02*
X2399Y1116D01*
X1014Y1115D02*
X1023Y1115D01*
X1041Y1115D02*
X1047Y1115D01*
X1062Y1115D02*
X1068Y1115D01*
X1089Y1115D02*
X1095Y1115D01*
X1117Y1115D02*
X1123Y1115D01*
X1139Y1115D02*
X1145Y1115D01*
X1167Y1115D02*
X1173Y1115D01*
X2193Y1115D02*
X2199Y1115D01*
X2217Y1115D02*
X2223Y1115D01*
X2237Y1115D02*
X2243Y1115D01*
X2279Y1115D02*
X2285Y1115D01*
X2322Y1115D02*
X2328Y1115D01*
X2393Y1115D02*
X2399Y1115D01*
X1013Y1114D02*
X1022Y1114D01*
X1041Y1114D02*
X1047Y1114D01*
X1062Y1114D02*
X1068Y1114D01*
X1089Y1114D02*
X1095Y1114D01*
X1117Y1114D02*
X1123Y1114D01*
X1139Y1114D02*
X1145Y1114D01*
X1167Y1114D02*
X1173Y1114D01*
X2192Y1114D02*
X2199Y1114D01*
X2217Y1114D02*
X2223Y1114D01*
X2237Y1114D02*
X2243Y1114D01*
X2279Y1114D02*
X2285Y1114D01*
X2322Y1114D02*
X2328Y1114D01*
X2392Y1114D02*
X2399Y1114D01*
X1011Y1113D02*
X1021Y1113D01*
X1041Y1113D02*
X1047Y1113D01*
X1062Y1113D02*
X1068Y1113D01*
X1089Y1113D02*
X1095Y1113D01*
X1117Y1113D02*
X1123Y1113D01*
X1139Y1113D02*
X1145Y1113D01*
X1167Y1113D02*
X1173Y1113D01*
X2191Y1113D02*
X2199Y1113D01*
X2217Y1113D02*
X2223Y1113D01*
X2237Y1113D02*
X2243Y1113D01*
X2279Y1113D02*
X2285Y1113D01*
X2322Y1113D02*
X2328Y1113D01*
X2391Y1113D02*
X2399Y1113D01*
X1010Y1112D02*
X1020Y1112D01*
X1041Y1112D02*
X1047Y1112D01*
X1062Y1112D02*
X1068Y1112D01*
X1089Y1112D02*
X1095Y1112D01*
X1117Y1112D02*
X1123Y1112D01*
X1139Y1112D02*
X1145Y1112D01*
X1167Y1112D02*
X1173Y1112D01*
X2190Y1112D02*
X2198Y1112D01*
X2217Y1112D02*
X2223Y1112D01*
X2237Y1112D02*
X2243Y1112D01*
X2279Y1112D02*
X2285Y1112D01*
X2322Y1112D02*
X2328Y1112D01*
X2389Y1112D02*
X2398Y1112D01*
X1009Y1111D02*
X1019Y1111D01*
X1041Y1111D02*
X1047Y1111D01*
X1062Y1111D02*
X1068Y1111D01*
X1089Y1111D02*
X1095Y1111D01*
X1117Y1111D02*
X1123Y1111D01*
X1139Y1111D02*
X1145Y1111D01*
X1167Y1111D02*
X1173Y1111D01*
X2188Y1111D02*
X2198Y1111D01*
X2217Y1111D02*
X2223Y1111D01*
X2237Y1111D02*
X2243Y1111D01*
X2279Y1111D02*
X2285Y1111D01*
X2322Y1111D02*
X2328Y1111D01*
X2388Y1111D02*
X2398Y1111D01*
X1008Y1110D02*
X1018Y1110D01*
X1041Y1110D02*
X1047Y1110D01*
X1062Y1110D02*
X1068Y1110D01*
X1089Y1110D02*
X1095Y1110D01*
X1117Y1110D02*
X1123Y1110D01*
X1139Y1110D02*
X1145Y1110D01*
X1167Y1110D02*
X1173Y1110D01*
X2187Y1110D02*
X2197Y1110D01*
X2217Y1110D02*
X2223Y1110D01*
X2237Y1110D02*
X2243Y1110D01*
X2279Y1110D02*
X2285Y1110D01*
X2322Y1110D02*
X2344Y1110D01*
X2387Y1110D02*
X2397Y1110D01*
X1007Y1109D02*
X1017Y1109D01*
X1041Y1109D02*
X1047Y1109D01*
X1062Y1109D02*
X1068Y1109D01*
X1089Y1109D02*
X1095Y1109D01*
X1117Y1109D02*
X1123Y1109D01*
X1139Y1109D02*
X1145Y1109D01*
X1167Y1109D02*
X1173Y1109D01*
X2186Y1109D02*
X2196Y1109D01*
X2217Y1109D02*
X2223Y1109D01*
X2237Y1109D02*
X2243Y1109D01*
X2279Y1109D02*
X2285Y1109D01*
X2322Y1109D02*
X2346Y1109D01*
X2386Y1109D02*
X2396Y1109D01*
X1006Y1108D02*
X1015Y1108D01*
X1041Y1108D02*
X1047Y1108D01*
X1061Y1108D02*
X1068Y1108D01*
X1089Y1108D02*
X1095Y1108D01*
X1117Y1108D02*
X1123Y1108D01*
X1139Y1108D02*
X1145Y1108D01*
X1167Y1108D02*
X1173Y1108D01*
X2185Y1108D02*
X2195Y1108D01*
X2217Y1108D02*
X2223Y1108D01*
X2237Y1108D02*
X2243Y1108D01*
X2279Y1108D02*
X2285Y1108D01*
X2322Y1108D02*
X2347Y1108D01*
X2385Y1108D02*
X2395Y1108D01*
X1004Y1107D02*
X1014Y1107D01*
X1041Y1107D02*
X1070Y1107D01*
X1089Y1107D02*
X1095Y1107D01*
X1117Y1107D02*
X1123Y1107D01*
X1139Y1107D02*
X1145Y1107D01*
X1167Y1107D02*
X1173Y1107D01*
X2184Y1107D02*
X2193Y1107D01*
X2217Y1107D02*
X2223Y1107D01*
X2237Y1107D02*
X2243Y1107D01*
X2279Y1107D02*
X2285Y1107D01*
X2322Y1107D02*
X2348Y1107D01*
X2384Y1107D02*
X2393Y1107D01*
X1004Y1106D02*
X1013Y1106D01*
X1041Y1106D02*
X1071Y1106D01*
X1089Y1106D02*
X1095Y1106D01*
X1117Y1106D02*
X1123Y1106D01*
X1139Y1106D02*
X1145Y1106D01*
X1167Y1106D02*
X1173Y1106D01*
X2182Y1106D02*
X2192Y1106D01*
X2217Y1106D02*
X2223Y1106D01*
X2237Y1106D02*
X2243Y1106D01*
X2279Y1106D02*
X2285Y1106D01*
X2322Y1106D02*
X2348Y1106D01*
X2382Y1106D02*
X2392Y1106D01*
X1003Y1105D02*
X1012Y1105D01*
X1041Y1105D02*
X1071Y1105D01*
X1089Y1105D02*
X1095Y1105D01*
X1117Y1105D02*
X1123Y1105D01*
X1139Y1105D02*
X1145Y1105D01*
X1167Y1105D02*
X1173Y1105D01*
X2181Y1105D02*
X2191Y1105D01*
X2217Y1105D02*
X2223Y1105D01*
X2237Y1105D02*
X2244Y1105D01*
X2279Y1105D02*
X2285Y1105D01*
X2322Y1105D02*
X2348Y1105D01*
X2381Y1105D02*
X2391Y1105D01*
X1003Y1104D02*
X1011Y1104D01*
X1041Y1104D02*
X1071Y1104D01*
X1089Y1104D02*
X1095Y1104D01*
X1117Y1104D02*
X1123Y1104D01*
X1139Y1104D02*
X1145Y1104D01*
X1167Y1104D02*
X1173Y1104D01*
X2180Y1104D02*
X2190Y1104D01*
X2217Y1104D02*
X2245Y1104D01*
X2279Y1104D02*
X2285Y1104D01*
X2294Y1104D02*
X2297Y1104D01*
X2322Y1104D02*
X2349Y1104D01*
X2380Y1104D02*
X2390Y1104D01*
X1003Y1103D02*
X1010Y1103D01*
X1041Y1103D02*
X1071Y1103D01*
X1089Y1103D02*
X1095Y1103D01*
X1117Y1103D02*
X1123Y1103D01*
X1139Y1103D02*
X1145Y1103D01*
X1167Y1103D02*
X1173Y1103D01*
X2179Y1103D02*
X2189Y1103D01*
X2217Y1103D02*
X2246Y1103D01*
X2279Y1103D02*
X2285Y1103D01*
X2293Y1103D02*
X2298Y1103D01*
X2343Y1103D02*
X2349Y1103D01*
X2379Y1103D02*
X2389Y1103D01*
X1003Y1102D02*
X1009Y1102D01*
X1041Y1102D02*
X1070Y1102D01*
X1089Y1102D02*
X1095Y1102D01*
X1117Y1102D02*
X1123Y1102D01*
X1139Y1102D02*
X1145Y1102D01*
X1167Y1102D02*
X1173Y1102D01*
X2179Y1102D02*
X2188Y1102D01*
X2217Y1102D02*
X2247Y1102D01*
X2279Y1102D02*
X2285Y1102D01*
X2293Y1102D02*
X2298Y1102D01*
X2343Y1102D02*
X2349Y1102D01*
X2379Y1102D02*
X2388Y1102D01*
X1003Y1101D02*
X1009Y1101D01*
X1041Y1101D02*
X1069Y1101D01*
X1089Y1101D02*
X1095Y1101D01*
X1117Y1101D02*
X1123Y1101D01*
X1139Y1101D02*
X1145Y1101D01*
X1167Y1101D02*
X1173Y1101D01*
X2179Y1101D02*
X2186Y1101D01*
X2217Y1101D02*
X2247Y1101D01*
X2279Y1101D02*
X2285Y1101D01*
X2293Y1101D02*
X2299Y1101D01*
X2343Y1101D02*
X2349Y1101D01*
X2379Y1101D02*
X2386Y1101D01*
X1003Y1100D02*
X1009Y1100D01*
X1062Y1100D02*
X1068Y1100D01*
X1089Y1100D02*
X1095Y1100D01*
X1117Y1100D02*
X1123Y1100D01*
X1139Y1100D02*
X1145Y1100D01*
X1167Y1100D02*
X1173Y1100D01*
X2179Y1100D02*
X2185Y1100D01*
X2217Y1100D02*
X2247Y1100D01*
X2279Y1100D02*
X2285Y1100D01*
X2293Y1100D02*
X2299Y1100D01*
X2343Y1100D02*
X2349Y1100D01*
X2379Y1100D02*
X2385Y1100D01*
X1003Y1099D02*
X1009Y1099D01*
X1062Y1099D02*
X1068Y1099D01*
X1089Y1099D02*
X1095Y1099D01*
X1117Y1099D02*
X1123Y1099D01*
X1139Y1099D02*
X1145Y1099D01*
X1167Y1099D02*
X1173Y1099D01*
X2179Y1099D02*
X2185Y1099D01*
X2217Y1099D02*
X2246Y1099D01*
X2279Y1099D02*
X2285Y1099D01*
X2293Y1099D02*
X2299Y1099D01*
X2343Y1099D02*
X2349Y1099D01*
X2379Y1099D02*
X2385Y1099D01*
X1003Y1098D02*
X1009Y1098D01*
X1062Y1098D02*
X1068Y1098D01*
X1089Y1098D02*
X1095Y1098D01*
X1117Y1098D02*
X1123Y1098D01*
X1139Y1098D02*
X1145Y1098D01*
X1167Y1098D02*
X1173Y1098D01*
X2179Y1098D02*
X2185Y1098D01*
X2217Y1098D02*
X2245Y1098D01*
X2279Y1098D02*
X2285Y1098D01*
X2293Y1098D02*
X2299Y1098D01*
X2343Y1098D02*
X2349Y1098D01*
X2379Y1098D02*
X2385Y1098D01*
X1003Y1097D02*
X1009Y1097D01*
X1062Y1097D02*
X1068Y1097D01*
X1089Y1097D02*
X1095Y1097D01*
X1117Y1097D02*
X1123Y1097D01*
X1139Y1097D02*
X1145Y1097D01*
X1167Y1097D02*
X1173Y1097D01*
X2179Y1097D02*
X2185Y1097D01*
X2237Y1097D02*
X2243Y1097D01*
X2279Y1097D02*
X2285Y1097D01*
X2293Y1097D02*
X2299Y1097D01*
X2343Y1097D02*
X2349Y1097D01*
X2379Y1097D02*
X2385Y1097D01*
X1003Y1096D02*
X1009Y1096D01*
X1062Y1096D02*
X1068Y1096D01*
X1089Y1096D02*
X1095Y1096D01*
X1117Y1096D02*
X1123Y1096D01*
X1139Y1096D02*
X1145Y1096D01*
X1167Y1096D02*
X1173Y1096D01*
X2179Y1096D02*
X2185Y1096D01*
X2237Y1096D02*
X2243Y1096D01*
X2279Y1096D02*
X2285Y1096D01*
X2293Y1096D02*
X2299Y1096D01*
X2343Y1096D02*
X2349Y1096D01*
X2379Y1096D02*
X2385Y1096D01*
X1003Y1095D02*
X1009Y1095D01*
X1062Y1095D02*
X1068Y1095D01*
X1089Y1095D02*
X1095Y1095D01*
X1117Y1095D02*
X1123Y1095D01*
X1139Y1095D02*
X1145Y1095D01*
X1167Y1095D02*
X1173Y1095D01*
X2179Y1095D02*
X2185Y1095D01*
X2237Y1095D02*
X2243Y1095D01*
X2279Y1095D02*
X2285Y1095D01*
X2293Y1095D02*
X2299Y1095D01*
X2343Y1095D02*
X2349Y1095D01*
X2379Y1095D02*
X2385Y1095D01*
X1003Y1094D02*
X1009Y1094D01*
X1062Y1094D02*
X1068Y1094D01*
X1089Y1094D02*
X1095Y1094D01*
X1117Y1094D02*
X1123Y1094D01*
X1139Y1094D02*
X1145Y1094D01*
X1167Y1094D02*
X1173Y1094D01*
X2179Y1094D02*
X2185Y1094D01*
X2237Y1094D02*
X2243Y1094D01*
X2279Y1094D02*
X2285Y1094D01*
X2293Y1094D02*
X2299Y1094D01*
X2343Y1094D02*
X2349Y1094D01*
X2379Y1094D02*
X2385Y1094D01*
X1003Y1093D02*
X1009Y1093D01*
X1062Y1093D02*
X1068Y1093D01*
X1089Y1093D02*
X1095Y1093D01*
X1117Y1093D02*
X1123Y1093D01*
X1139Y1093D02*
X1145Y1093D01*
X1167Y1093D02*
X1173Y1093D01*
X2179Y1093D02*
X2185Y1093D01*
X2237Y1093D02*
X2243Y1093D01*
X2279Y1093D02*
X2285Y1093D01*
X2293Y1093D02*
X2299Y1093D01*
X2343Y1093D02*
X2349Y1093D01*
X2379Y1093D02*
X2385Y1093D01*
X1003Y1092D02*
X1009Y1092D01*
X1062Y1092D02*
X1068Y1092D01*
X1089Y1092D02*
X1095Y1092D01*
X1117Y1092D02*
X1123Y1092D01*
X1139Y1092D02*
X1145Y1092D01*
X1167Y1092D02*
X1173Y1092D01*
X2179Y1092D02*
X2185Y1092D01*
X2237Y1092D02*
X2243Y1092D01*
X2279Y1092D02*
X2285Y1092D01*
X2293Y1092D02*
X2299Y1092D01*
X2343Y1092D02*
X2349Y1092D01*
X2379Y1092D02*
X2385Y1092D01*
X1003Y1091D02*
X1009Y1091D01*
X1062Y1091D02*
X1068Y1091D01*
X1089Y1091D02*
X1095Y1091D01*
X1117Y1091D02*
X1123Y1091D01*
X1139Y1091D02*
X1145Y1091D01*
X1167Y1091D02*
X1173Y1091D01*
X2179Y1091D02*
X2185Y1091D01*
X2237Y1091D02*
X2243Y1091D01*
X2279Y1091D02*
X2285Y1091D01*
X2293Y1091D02*
X2299Y1091D01*
X2343Y1091D02*
X2349Y1091D01*
X2379Y1091D02*
X2385Y1091D01*
X1003Y1090D02*
X1009Y1090D01*
X1062Y1090D02*
X1068Y1090D01*
X1089Y1090D02*
X1123Y1090D01*
X1139Y1090D02*
X1173Y1090D01*
X2179Y1090D02*
X2185Y1090D01*
X2237Y1090D02*
X2243Y1090D01*
X2279Y1090D02*
X2285Y1090D01*
X2293Y1090D02*
X2299Y1090D01*
X2343Y1090D02*
X2349Y1090D01*
X2379Y1090D02*
X2385Y1090D01*
X1003Y1089D02*
X1009Y1089D01*
X1062Y1089D02*
X1068Y1089D01*
X1089Y1089D02*
X1123Y1089D01*
X1139Y1089D02*
X1173Y1089D01*
X2179Y1089D02*
X2185Y1089D01*
X2237Y1089D02*
X2243Y1089D01*
X2279Y1089D02*
X2285Y1089D01*
X2293Y1089D02*
X2299Y1089D01*
X2316Y1089D02*
X2320Y1089D01*
X2343Y1089D02*
X2349Y1089D01*
X2379Y1089D02*
X2385Y1089D01*
X1003Y1088D02*
X1009Y1088D01*
X1062Y1088D02*
X1068Y1088D01*
X1090Y1088D02*
X1123Y1088D01*
X1140Y1088D02*
X1173Y1088D01*
X2179Y1088D02*
X2185Y1088D01*
X2237Y1088D02*
X2243Y1088D01*
X2279Y1088D02*
X2285Y1088D01*
X2293Y1088D02*
X2299Y1088D01*
X2315Y1088D02*
X2323Y1088D01*
X2343Y1088D02*
X2349Y1088D01*
X2379Y1088D02*
X2385Y1088D01*
X1003Y1087D02*
X1009Y1087D01*
X1062Y1087D02*
X1068Y1087D01*
X1090Y1087D02*
X1122Y1087D01*
X1140Y1087D02*
X1172Y1087D01*
X2179Y1087D02*
X2185Y1087D01*
X2237Y1087D02*
X2243Y1087D01*
X2268Y1087D02*
X2299Y1087D01*
X2315Y1087D02*
X2349Y1087D01*
X2379Y1087D02*
X2385Y1087D01*
X1003Y1086D02*
X1009Y1086D01*
X1062Y1086D02*
X1068Y1086D01*
X1091Y1086D02*
X1122Y1086D01*
X1141Y1086D02*
X1171Y1086D01*
X2179Y1086D02*
X2185Y1086D01*
X2237Y1086D02*
X2243Y1086D01*
X2266Y1086D02*
X2299Y1086D01*
X2315Y1086D02*
X2348Y1086D01*
X2379Y1086D02*
X2385Y1086D01*
X1003Y1085D02*
X1009Y1085D01*
X1062Y1085D02*
X1067Y1085D01*
X1091Y1085D02*
X1121Y1085D01*
X1141Y1085D02*
X1171Y1085D01*
X2179Y1085D02*
X2185Y1085D01*
X2237Y1085D02*
X2243Y1085D01*
X2265Y1085D02*
X2299Y1085D01*
X2315Y1085D02*
X2348Y1085D01*
X2379Y1085D02*
X2385Y1085D01*
X1004Y1084D02*
X1008Y1084D01*
X1063Y1084D02*
X1066Y1084D01*
X1093Y1084D02*
X1119Y1084D01*
X1143Y1084D02*
X1169Y1084D01*
X2179Y1084D02*
X2185Y1084D01*
X2237Y1084D02*
X2243Y1084D01*
X2265Y1084D02*
X2299Y1084D01*
X2316Y1084D02*
X2348Y1084D01*
X2379Y1084D02*
X2385Y1084D01*
X1097Y1083D02*
X1116Y1083D01*
X1147Y1083D02*
X1166Y1083D01*
X2179Y1083D02*
X2185Y1083D01*
X2237Y1083D02*
X2243Y1083D01*
X2265Y1083D02*
X2298Y1083D01*
X2318Y1083D02*
X2347Y1083D01*
X2379Y1083D02*
X2385Y1083D01*
X2179Y1082D02*
X2184Y1082D01*
X2238Y1082D02*
X2243Y1082D01*
X2265Y1082D02*
X2298Y1082D01*
X2320Y1082D02*
X2346Y1082D01*
X2379Y1082D02*
X2384Y1082D01*
X2180Y1081D02*
X2184Y1081D01*
X2239Y1081D02*
X2242Y1081D01*
X2266Y1081D02*
X2297Y1081D01*
X2322Y1081D02*
X2345Y1081D01*
X2380Y1081D02*
X2384Y1081D01*
X1416Y376D02*
X1431Y376D01*
X1409Y375D02*
X1438Y375D01*
X1405Y374D02*
X1442Y374D01*
X1401Y373D02*
X1446Y373D01*
X1398Y372D02*
X1449Y372D01*
X1395Y371D02*
X1452Y371D01*
X1393Y370D02*
X1454Y370D01*
X1391Y369D02*
X1456Y369D01*
X1388Y368D02*
X1415Y368D01*
X1432Y368D02*
X1458Y368D01*
X1387Y367D02*
X1408Y367D01*
X1438Y367D02*
X1460Y367D01*
X1385Y366D02*
X1404Y366D01*
X1443Y366D02*
X1462Y366D01*
X1383Y365D02*
X1401Y365D01*
X1446Y365D02*
X1464Y365D01*
X1381Y364D02*
X1398Y364D01*
X1449Y364D02*
X1465Y364D01*
X1380Y363D02*
X1395Y363D01*
X1451Y363D02*
X1467Y363D01*
X1378Y362D02*
X1393Y362D01*
X1454Y362D02*
X1468Y362D01*
X1377Y361D02*
X1391Y361D01*
X1456Y361D02*
X1470Y361D01*
X1376Y360D02*
X1389Y360D01*
X1458Y360D02*
X1471Y360D01*
X1374Y359D02*
X1387Y359D01*
X1459Y359D02*
X1472Y359D01*
X1373Y358D02*
X1386Y358D01*
X1461Y358D02*
X1474Y358D01*
X1372Y357D02*
X1384Y357D01*
X1463Y357D02*
X1475Y357D01*
X1371Y356D02*
X1383Y356D01*
X1464Y356D02*
X1476Y356D01*
X1370Y355D02*
X1381Y355D01*
X1465Y355D02*
X1477Y355D01*
X1369Y354D02*
X1380Y354D01*
X1467Y354D02*
X1478Y354D01*
X1369Y353D02*
X1379Y353D01*
X1468Y353D02*
X1478Y353D01*
X1369Y352D02*
X1378Y352D01*
X1469Y352D02*
X1478Y352D01*
X1369Y351D02*
X1376Y351D01*
X1470Y351D02*
X1478Y351D01*
X1370Y350D02*
X1375Y350D01*
X1472Y350D02*
X1477Y350D01*
X1371Y349D02*
X1374Y349D01*
X1473Y349D02*
X1476Y349D01*
X3315Y325D02*
X3347Y325D01*
X3367Y325D02*
X3370Y325D01*
X3415Y325D02*
X3433Y325D01*
X3465Y325D02*
X3497Y325D01*
X3515Y325D02*
X3543Y325D01*
X3314Y324D02*
X3347Y324D01*
X3366Y324D02*
X3371Y324D01*
X3414Y324D02*
X3433Y324D01*
X3464Y324D02*
X3497Y324D01*
X3514Y324D02*
X3545Y324D01*
X3314Y323D02*
X3347Y323D01*
X3366Y323D02*
X3371Y323D01*
X3414Y323D02*
X3433Y323D01*
X3464Y323D02*
X3497Y323D01*
X3514Y323D02*
X3546Y323D01*
X3314Y322D02*
X3347Y322D01*
X3365Y322D02*
X3371Y322D01*
X3414Y322D02*
X3433Y322D01*
X3464Y322D02*
X3497Y322D01*
X3514Y322D02*
X3546Y322D01*
X3314Y321D02*
X3347Y321D01*
X3365Y321D02*
X3371Y321D01*
X3414Y321D02*
X3433Y321D01*
X3464Y321D02*
X3497Y321D01*
X3514Y321D02*
X3547Y321D01*
X3314Y320D02*
X3347Y320D01*
X3365Y320D02*
X3371Y320D01*
X3414Y320D02*
X3433Y320D01*
X3464Y320D02*
X3497Y320D01*
X3514Y320D02*
X3547Y320D01*
X3314Y319D02*
X3347Y319D01*
X3365Y319D02*
X3371Y319D01*
X3388Y319D02*
X3391Y319D01*
X3416Y319D02*
X3433Y319D01*
X3464Y319D02*
X3497Y319D01*
X3516Y319D02*
X3547Y319D01*
X3314Y318D02*
X3319Y318D01*
X3341Y318D02*
X3347Y318D01*
X3365Y318D02*
X3371Y318D01*
X3387Y318D02*
X3391Y318D01*
X3427Y318D02*
X3433Y318D01*
X3464Y318D02*
X3469Y318D01*
X3491Y318D02*
X3497Y318D01*
X3541Y318D02*
X3547Y318D01*
X3314Y317D02*
X3319Y317D01*
X3341Y317D02*
X3347Y317D01*
X3365Y317D02*
X3371Y317D01*
X3386Y317D02*
X3392Y317D01*
X3427Y317D02*
X3433Y317D01*
X3464Y317D02*
X3469Y317D01*
X3491Y317D02*
X3497Y317D01*
X3541Y317D02*
X3547Y317D01*
X3316Y316D02*
X3318Y316D01*
X3341Y316D02*
X3347Y316D01*
X3365Y316D02*
X3371Y316D01*
X3386Y316D02*
X3392Y316D01*
X3427Y316D02*
X3433Y316D01*
X3466Y316D02*
X3468Y316D01*
X3491Y316D02*
X3497Y316D01*
X3541Y316D02*
X3547Y316D01*
X3341Y315D02*
X3347Y315D01*
X3365Y315D02*
X3371Y315D01*
X3386Y315D02*
X3392Y315D01*
X3427Y315D02*
X3433Y315D01*
X3491Y315D02*
X3497Y315D01*
X3541Y315D02*
X3547Y315D01*
X3341Y314D02*
X3347Y314D01*
X3365Y314D02*
X3371Y314D01*
X3386Y314D02*
X3392Y314D01*
X3427Y314D02*
X3433Y314D01*
X3491Y314D02*
X3497Y314D01*
X3541Y314D02*
X3547Y314D01*
X3341Y313D02*
X3347Y313D01*
X3365Y313D02*
X3371Y313D01*
X3386Y313D02*
X3392Y313D01*
X3427Y313D02*
X3433Y313D01*
X3491Y313D02*
X3497Y313D01*
X3541Y313D02*
X3547Y313D01*
X3341Y312D02*
X3347Y312D01*
X3365Y312D02*
X3371Y312D01*
X3386Y312D02*
X3392Y312D01*
X3427Y312D02*
X3433Y312D01*
X3491Y312D02*
X3497Y312D01*
X3541Y312D02*
X3547Y312D01*
X3341Y311D02*
X3347Y311D01*
X3365Y311D02*
X3371Y311D01*
X3386Y311D02*
X3392Y311D01*
X3427Y311D02*
X3433Y311D01*
X3491Y311D02*
X3497Y311D01*
X3541Y311D02*
X3547Y311D01*
X3341Y310D02*
X3347Y310D01*
X3365Y310D02*
X3371Y310D01*
X3386Y310D02*
X3392Y310D01*
X3427Y310D02*
X3433Y310D01*
X3491Y310D02*
X3497Y310D01*
X3541Y310D02*
X3547Y310D01*
X3341Y309D02*
X3347Y309D01*
X3365Y309D02*
X3371Y309D01*
X3386Y309D02*
X3392Y309D01*
X3427Y309D02*
X3433Y309D01*
X3491Y309D02*
X3497Y309D01*
X3541Y309D02*
X3547Y309D01*
X3341Y308D02*
X3347Y308D01*
X3365Y308D02*
X3371Y308D01*
X3386Y308D02*
X3392Y308D01*
X3427Y308D02*
X3433Y308D01*
X3491Y308D02*
X3497Y308D01*
X3541Y308D02*
X3547Y308D01*
X3341Y307D02*
X3347Y307D01*
X3365Y307D02*
X3371Y307D01*
X3386Y307D02*
X3392Y307D01*
X3427Y307D02*
X3433Y307D01*
X3491Y307D02*
X3497Y307D01*
X3541Y307D02*
X3547Y307D01*
X3341Y306D02*
X3347Y306D01*
X3365Y306D02*
X3371Y306D01*
X3386Y306D02*
X3392Y306D01*
X3427Y306D02*
X3433Y306D01*
X3491Y306D02*
X3497Y306D01*
X3541Y306D02*
X3547Y306D01*
X3340Y305D02*
X3347Y305D01*
X3365Y305D02*
X3371Y305D01*
X3386Y305D02*
X3392Y305D01*
X3427Y305D02*
X3433Y305D01*
X3490Y305D02*
X3497Y305D01*
X3541Y305D02*
X3547Y305D01*
X3339Y304D02*
X3347Y304D01*
X3365Y304D02*
X3371Y304D01*
X3386Y304D02*
X3392Y304D01*
X3427Y304D02*
X3433Y304D01*
X3489Y304D02*
X3497Y304D01*
X3541Y304D02*
X3547Y304D01*
X3338Y303D02*
X3347Y303D01*
X3365Y303D02*
X3371Y303D01*
X3386Y303D02*
X3392Y303D01*
X3427Y303D02*
X3433Y303D01*
X3488Y303D02*
X3497Y303D01*
X3540Y303D02*
X3547Y303D01*
X3337Y302D02*
X3346Y302D01*
X3365Y302D02*
X3371Y302D01*
X3386Y302D02*
X3392Y302D01*
X3427Y302D02*
X3433Y302D01*
X3487Y302D02*
X3496Y302D01*
X3524Y302D02*
X3547Y302D01*
X3335Y301D02*
X3345Y301D01*
X3365Y301D02*
X3371Y301D01*
X3386Y301D02*
X3392Y301D01*
X3427Y301D02*
X3433Y301D01*
X3485Y301D02*
X3495Y301D01*
X3522Y301D02*
X3546Y301D01*
X3334Y300D02*
X3344Y300D01*
X3365Y300D02*
X3371Y300D01*
X3386Y300D02*
X3392Y300D01*
X3427Y300D02*
X3433Y300D01*
X3484Y300D02*
X3494Y300D01*
X3521Y300D02*
X3546Y300D01*
X3333Y299D02*
X3343Y299D01*
X3365Y299D02*
X3371Y299D01*
X3386Y299D02*
X3392Y299D01*
X3427Y299D02*
X3433Y299D01*
X3483Y299D02*
X3493Y299D01*
X3521Y299D02*
X3545Y299D01*
X3332Y298D02*
X3342Y298D01*
X3365Y298D02*
X3371Y298D01*
X3386Y298D02*
X3392Y298D01*
X3427Y298D02*
X3433Y298D01*
X3482Y298D02*
X3492Y298D01*
X3521Y298D02*
X3545Y298D01*
X3331Y297D02*
X3341Y297D01*
X3365Y297D02*
X3371Y297D01*
X3386Y297D02*
X3392Y297D01*
X3427Y297D02*
X3433Y297D01*
X3481Y297D02*
X3491Y297D01*
X3521Y297D02*
X3546Y297D01*
X3330Y296D02*
X3339Y296D01*
X3365Y296D02*
X3393Y296D01*
X3427Y296D02*
X3433Y296D01*
X3444Y296D02*
X3444Y296D01*
X3480Y296D02*
X3489Y296D01*
X3522Y296D02*
X3546Y296D01*
X3328Y295D02*
X3338Y295D01*
X3365Y295D02*
X3395Y295D01*
X3427Y295D02*
X3433Y295D01*
X3442Y295D02*
X3446Y295D01*
X3478Y295D02*
X3488Y295D01*
X3538Y295D02*
X3547Y295D01*
X3328Y294D02*
X3337Y294D01*
X3365Y294D02*
X3395Y294D01*
X3427Y294D02*
X3433Y294D01*
X3442Y294D02*
X3447Y294D01*
X3478Y294D02*
X3487Y294D01*
X3540Y294D02*
X3547Y294D01*
X3328Y293D02*
X3336Y293D01*
X3365Y293D02*
X3395Y293D01*
X3427Y293D02*
X3433Y293D01*
X3441Y293D02*
X3447Y293D01*
X3478Y293D02*
X3486Y293D01*
X3541Y293D02*
X3547Y293D01*
X3327Y292D02*
X3335Y292D01*
X3365Y292D02*
X3395Y292D01*
X3427Y292D02*
X3433Y292D01*
X3441Y292D02*
X3447Y292D01*
X3477Y292D02*
X3485Y292D01*
X3541Y292D02*
X3547Y292D01*
X3327Y291D02*
X3334Y291D01*
X3365Y291D02*
X3395Y291D01*
X3427Y291D02*
X3433Y291D01*
X3441Y291D02*
X3447Y291D01*
X3477Y291D02*
X3484Y291D01*
X3541Y291D02*
X3547Y291D01*
X3327Y290D02*
X3333Y290D01*
X3365Y290D02*
X3394Y290D01*
X3427Y290D02*
X3433Y290D01*
X3441Y290D02*
X3447Y290D01*
X3477Y290D02*
X3483Y290D01*
X3541Y290D02*
X3547Y290D01*
X3327Y289D02*
X3333Y289D01*
X3386Y289D02*
X3392Y289D01*
X3427Y289D02*
X3433Y289D01*
X3441Y289D02*
X3447Y289D01*
X3477Y289D02*
X3483Y289D01*
X3541Y289D02*
X3547Y289D01*
X3327Y288D02*
X3333Y288D01*
X3386Y288D02*
X3392Y288D01*
X3427Y288D02*
X3433Y288D01*
X3441Y288D02*
X3447Y288D01*
X3477Y288D02*
X3483Y288D01*
X3541Y288D02*
X3547Y288D01*
X3327Y287D02*
X3333Y287D01*
X3386Y287D02*
X3392Y287D01*
X3427Y287D02*
X3433Y287D01*
X3441Y287D02*
X3447Y287D01*
X3477Y287D02*
X3483Y287D01*
X3541Y287D02*
X3547Y287D01*
X3327Y286D02*
X3333Y286D01*
X3386Y286D02*
X3392Y286D01*
X3427Y286D02*
X3433Y286D01*
X3441Y286D02*
X3447Y286D01*
X3477Y286D02*
X3483Y286D01*
X3541Y286D02*
X3547Y286D01*
X3327Y285D02*
X3333Y285D01*
X3386Y285D02*
X3392Y285D01*
X3427Y285D02*
X3433Y285D01*
X3441Y285D02*
X3447Y285D01*
X3477Y285D02*
X3483Y285D01*
X3541Y285D02*
X3547Y285D01*
X3327Y284D02*
X3333Y284D01*
X3386Y284D02*
X3392Y284D01*
X3427Y284D02*
X3433Y284D01*
X3441Y284D02*
X3447Y284D01*
X3477Y284D02*
X3483Y284D01*
X3541Y284D02*
X3547Y284D01*
X3327Y283D02*
X3333Y283D01*
X3386Y283D02*
X3392Y283D01*
X3427Y283D02*
X3433Y283D01*
X3441Y283D02*
X3447Y283D01*
X3477Y283D02*
X3483Y283D01*
X3541Y283D02*
X3547Y283D01*
X3327Y282D02*
X3333Y282D01*
X3386Y282D02*
X3392Y282D01*
X3427Y282D02*
X3433Y282D01*
X3441Y282D02*
X3447Y282D01*
X3477Y282D02*
X3483Y282D01*
X3541Y282D02*
X3547Y282D01*
X3327Y281D02*
X3333Y281D01*
X3386Y281D02*
X3392Y281D01*
X3427Y281D02*
X3433Y281D01*
X3441Y281D02*
X3447Y281D01*
X3477Y281D02*
X3483Y281D01*
X3541Y281D02*
X3547Y281D01*
X3327Y280D02*
X3333Y280D01*
X3386Y280D02*
X3392Y280D01*
X3427Y280D02*
X3433Y280D01*
X3441Y280D02*
X3447Y280D01*
X3477Y280D02*
X3483Y280D01*
X3541Y280D02*
X3547Y280D01*
X3327Y279D02*
X3333Y279D01*
X3386Y279D02*
X3392Y279D01*
X3427Y279D02*
X3433Y279D01*
X3441Y279D02*
X3447Y279D01*
X3477Y279D02*
X3483Y279D01*
X3541Y279D02*
X3547Y279D01*
X3327Y278D02*
X3333Y278D01*
X3386Y278D02*
X3392Y278D01*
X3416Y278D02*
X3447Y278D01*
X3477Y278D02*
X3483Y278D01*
X3516Y278D02*
X3547Y278D01*
X3327Y277D02*
X3333Y277D01*
X3386Y277D02*
X3392Y277D01*
X3414Y277D02*
X3447Y277D01*
X3477Y277D02*
X3483Y277D01*
X3514Y277D02*
X3547Y277D01*
X3327Y276D02*
X3333Y276D01*
X3386Y276D02*
X3392Y276D01*
X3414Y276D02*
X3447Y276D01*
X3477Y276D02*
X3483Y276D01*
X3514Y276D02*
X3547Y276D01*
X3327Y275D02*
X3333Y275D01*
X3386Y275D02*
X3392Y275D01*
X3414Y275D02*
X3447Y275D01*
X3477Y275D02*
X3483Y275D01*
X3514Y275D02*
X3546Y275D01*
X3328Y274D02*
X3333Y274D01*
X3386Y274D02*
X3392Y274D01*
X3414Y274D02*
X3447Y274D01*
X3478Y274D02*
X3483Y274D01*
X3514Y274D02*
X3546Y274D01*
X3328Y273D02*
X3333Y273D01*
X3387Y273D02*
X3391Y273D01*
X3414Y273D02*
X3447Y273D01*
X3478Y273D02*
X3483Y273D01*
X3514Y273D02*
X3545Y273D01*
X3329Y272D02*
X3332Y272D01*
X3388Y272D02*
X3390Y272D01*
X3415Y272D02*
X3446Y272D01*
X3479Y272D02*
X3482Y272D01*
X3515Y272D02*
X3543Y272D01*
X1371Y256D02*
X1374Y256D01*
X1473Y256D02*
X1476Y256D01*
X1370Y255D02*
X1375Y255D01*
X1472Y255D02*
X1477Y255D01*
X1369Y254D02*
X1376Y254D01*
X1470Y254D02*
X1477Y254D01*
X1369Y253D02*
X1378Y253D01*
X1469Y253D02*
X1478Y253D01*
X1369Y252D02*
X1379Y252D01*
X1468Y252D02*
X1478Y252D01*
X1369Y251D02*
X1380Y251D01*
X1467Y251D02*
X1477Y251D01*
X1370Y250D02*
X1381Y250D01*
X1465Y250D02*
X1477Y250D01*
X1371Y249D02*
X1383Y249D01*
X1464Y249D02*
X1476Y249D01*
X1372Y248D02*
X1384Y248D01*
X1463Y248D02*
X1475Y248D01*
X1373Y247D02*
X1386Y247D01*
X1461Y247D02*
X1474Y247D01*
X1374Y246D02*
X1387Y246D01*
X1459Y246D02*
X1472Y246D01*
X1376Y245D02*
X1389Y245D01*
X1458Y245D02*
X1471Y245D01*
X1377Y244D02*
X1391Y244D01*
X1456Y244D02*
X1470Y244D01*
X1378Y243D02*
X1393Y243D01*
X1454Y243D02*
X1468Y243D01*
X1380Y242D02*
X1396Y242D01*
X1451Y242D02*
X1467Y242D01*
X1381Y241D02*
X1398Y241D01*
X1449Y241D02*
X1465Y241D01*
X1383Y240D02*
X1401Y240D01*
X1446Y240D02*
X1464Y240D01*
X1385Y239D02*
X1404Y239D01*
X1443Y239D02*
X1462Y239D01*
X1387Y238D02*
X1408Y238D01*
X1438Y238D02*
X1460Y238D01*
X1388Y237D02*
X1415Y237D01*
X1432Y237D02*
X1458Y237D01*
X1391Y236D02*
X1456Y236D01*
X1393Y235D02*
X1454Y235D01*
X1395Y234D02*
X1452Y234D01*
X1398Y233D02*
X1449Y233D01*
X1401Y232D02*
X1446Y232D01*
X1405Y231D02*
X1442Y231D01*
X1409Y230D02*
X1438Y230D01*
X1416Y229D02*
X1431Y229D01*
D02*
G04 End of Silk1*
M02*