G04 MADE WITH FRITZING*
G04 WWW.FRITZING.ORG*
G04 SINGLE SIDED*
G04 HOLES NOT PLATED*
G04 CONTOUR ON CENTER OF CONTOUR VECTOR*
%ASAXBY*%
%FSLAX23Y23*%
%MOIN*%
%OFA0B0*%
%SFA1.0B1.0*%
%ADD10R,0.001000X0.001000*%
%LNSILK0*%
G90*
G70*
G54D10*
X129Y2513D02*
X218Y2513D01*
X129Y2512D02*
X218Y2512D01*
X129Y2511D02*
X218Y2511D01*
X129Y2510D02*
X131Y2510D01*
X217Y2510D02*
X218Y2510D01*
X129Y2509D02*
X131Y2509D01*
X217Y2509D02*
X218Y2509D01*
X129Y2508D02*
X131Y2508D01*
X217Y2508D02*
X218Y2508D01*
X129Y2507D02*
X131Y2507D01*
X217Y2507D02*
X218Y2507D01*
X129Y2506D02*
X131Y2506D01*
X217Y2506D02*
X218Y2506D01*
X129Y2505D02*
X131Y2505D01*
X217Y2505D02*
X218Y2505D01*
X129Y2504D02*
X131Y2504D01*
X217Y2504D02*
X218Y2504D01*
X129Y2503D02*
X131Y2503D01*
X217Y2503D02*
X218Y2503D01*
X129Y2502D02*
X131Y2502D01*
X217Y2502D02*
X218Y2502D01*
X129Y2501D02*
X131Y2501D01*
X217Y2501D02*
X218Y2501D01*
X129Y2500D02*
X131Y2500D01*
X217Y2500D02*
X218Y2500D01*
X129Y2499D02*
X131Y2499D01*
X217Y2499D02*
X218Y2499D01*
X129Y2498D02*
X131Y2498D01*
X217Y2498D02*
X218Y2498D01*
X129Y2497D02*
X131Y2497D01*
X217Y2497D02*
X218Y2497D01*
X129Y2496D02*
X131Y2496D01*
X217Y2496D02*
X218Y2496D01*
X129Y2495D02*
X131Y2495D01*
X217Y2495D02*
X218Y2495D01*
X129Y2494D02*
X131Y2494D01*
X217Y2494D02*
X218Y2494D01*
X129Y2493D02*
X131Y2493D01*
X217Y2493D02*
X218Y2493D01*
X129Y2492D02*
X131Y2492D01*
X217Y2492D02*
X218Y2492D01*
X129Y2491D02*
X131Y2491D01*
X217Y2491D02*
X218Y2491D01*
X129Y2490D02*
X131Y2490D01*
X217Y2490D02*
X218Y2490D01*
X129Y2489D02*
X131Y2489D01*
X217Y2489D02*
X218Y2489D01*
X129Y2488D02*
X131Y2488D01*
X217Y2488D02*
X218Y2488D01*
X129Y2487D02*
X131Y2487D01*
X217Y2487D02*
X218Y2487D01*
X129Y2486D02*
X131Y2486D01*
X217Y2486D02*
X218Y2486D01*
X129Y2485D02*
X131Y2485D01*
X217Y2485D02*
X218Y2485D01*
X129Y2484D02*
X131Y2484D01*
X217Y2484D02*
X218Y2484D01*
X129Y2483D02*
X131Y2483D01*
X217Y2483D02*
X218Y2483D01*
X129Y2482D02*
X131Y2482D01*
X217Y2482D02*
X218Y2482D01*
X129Y2481D02*
X131Y2481D01*
X217Y2481D02*
X218Y2481D01*
X129Y2480D02*
X131Y2480D01*
X217Y2480D02*
X218Y2480D01*
X129Y2479D02*
X131Y2479D01*
X217Y2479D02*
X218Y2479D01*
X129Y2478D02*
X131Y2478D01*
X217Y2478D02*
X218Y2478D01*
X129Y2477D02*
X131Y2477D01*
X217Y2477D02*
X218Y2477D01*
X129Y2476D02*
X131Y2476D01*
X217Y2476D02*
X218Y2476D01*
X129Y2475D02*
X131Y2475D01*
X217Y2475D02*
X218Y2475D01*
X129Y2474D02*
X131Y2474D01*
X217Y2474D02*
X218Y2474D01*
X129Y2473D02*
X131Y2473D01*
X217Y2473D02*
X218Y2473D01*
X129Y2472D02*
X131Y2472D01*
X217Y2472D02*
X218Y2472D01*
X129Y2471D02*
X131Y2471D01*
X217Y2471D02*
X218Y2471D01*
X129Y2470D02*
X131Y2470D01*
X217Y2470D02*
X218Y2470D01*
X129Y2469D02*
X131Y2469D01*
X217Y2469D02*
X218Y2469D01*
X129Y2468D02*
X131Y2468D01*
X217Y2468D02*
X218Y2468D01*
X129Y2467D02*
X131Y2467D01*
X217Y2467D02*
X218Y2467D01*
X129Y2466D02*
X131Y2466D01*
X217Y2466D02*
X218Y2466D01*
X129Y2465D02*
X131Y2465D01*
X217Y2465D02*
X218Y2465D01*
X129Y2464D02*
X131Y2464D01*
X217Y2464D02*
X218Y2464D01*
X129Y2463D02*
X131Y2463D01*
X217Y2463D02*
X218Y2463D01*
X129Y2462D02*
X131Y2462D01*
X217Y2462D02*
X218Y2462D01*
X129Y2461D02*
X131Y2461D01*
X217Y2461D02*
X218Y2461D01*
X129Y2460D02*
X131Y2460D01*
X217Y2460D02*
X218Y2460D01*
X129Y2459D02*
X131Y2459D01*
X217Y2459D02*
X218Y2459D01*
X129Y2458D02*
X131Y2458D01*
X217Y2458D02*
X218Y2458D01*
X129Y2457D02*
X131Y2457D01*
X217Y2457D02*
X218Y2457D01*
X129Y2456D02*
X131Y2456D01*
X217Y2456D02*
X218Y2456D01*
X129Y2455D02*
X131Y2455D01*
X217Y2455D02*
X218Y2455D01*
X129Y2454D02*
X131Y2454D01*
X217Y2454D02*
X218Y2454D01*
X129Y2453D02*
X131Y2453D01*
X217Y2453D02*
X218Y2453D01*
X129Y2452D02*
X131Y2452D01*
X217Y2452D02*
X218Y2452D01*
X129Y2451D02*
X131Y2451D01*
X217Y2451D02*
X218Y2451D01*
X129Y2450D02*
X131Y2450D01*
X217Y2450D02*
X218Y2450D01*
X129Y2449D02*
X131Y2449D01*
X217Y2449D02*
X218Y2449D01*
X129Y2448D02*
X131Y2448D01*
X217Y2448D02*
X218Y2448D01*
X129Y2447D02*
X131Y2447D01*
X217Y2447D02*
X218Y2447D01*
X129Y2446D02*
X131Y2446D01*
X217Y2446D02*
X218Y2446D01*
X129Y2445D02*
X131Y2445D01*
X217Y2445D02*
X218Y2445D01*
X129Y2444D02*
X131Y2444D01*
X217Y2444D02*
X218Y2444D01*
X129Y2443D02*
X131Y2443D01*
X217Y2443D02*
X218Y2443D01*
X129Y2442D02*
X131Y2442D01*
X217Y2442D02*
X218Y2442D01*
X129Y2441D02*
X131Y2441D01*
X217Y2441D02*
X218Y2441D01*
X129Y2440D02*
X131Y2440D01*
X217Y2440D02*
X218Y2440D01*
X129Y2439D02*
X131Y2439D01*
X217Y2439D02*
X218Y2439D01*
X129Y2438D02*
X131Y2438D01*
X216Y2438D02*
X218Y2438D01*
X129Y2437D02*
X132Y2437D01*
X215Y2437D02*
X218Y2437D01*
X129Y2436D02*
X132Y2436D01*
X215Y2436D02*
X218Y2436D01*
X129Y2435D02*
X132Y2435D01*
X215Y2435D02*
X218Y2435D01*
X129Y2434D02*
X132Y2434D01*
X215Y2434D02*
X218Y2434D01*
X129Y2433D02*
X132Y2433D01*
X215Y2433D02*
X218Y2433D01*
X129Y2432D02*
X132Y2432D01*
X215Y2432D02*
X218Y2432D01*
X129Y2431D02*
X132Y2431D01*
X215Y2431D02*
X218Y2431D01*
X129Y2430D02*
X132Y2430D01*
X215Y2430D02*
X218Y2430D01*
X129Y2429D02*
X132Y2429D01*
X215Y2429D02*
X218Y2429D01*
X129Y2428D02*
X132Y2428D01*
X215Y2428D02*
X218Y2428D01*
X129Y2427D02*
X132Y2427D01*
X215Y2427D02*
X218Y2427D01*
X129Y2426D02*
X132Y2426D01*
X215Y2426D02*
X218Y2426D01*
X129Y2425D02*
X132Y2425D01*
X215Y2425D02*
X218Y2425D01*
X129Y2424D02*
X132Y2424D01*
X215Y2424D02*
X218Y2424D01*
X129Y2423D02*
X132Y2423D01*
X215Y2423D02*
X218Y2423D01*
X129Y2422D02*
X132Y2422D01*
X215Y2422D02*
X218Y2422D01*
X129Y2421D02*
X132Y2421D01*
X215Y2421D02*
X218Y2421D01*
X129Y2420D02*
X132Y2420D01*
X215Y2420D02*
X218Y2420D01*
X129Y2419D02*
X132Y2419D01*
X215Y2419D02*
X218Y2419D01*
X129Y2418D02*
X132Y2418D01*
X215Y2418D02*
X218Y2418D01*
X129Y2417D02*
X132Y2417D01*
X215Y2417D02*
X218Y2417D01*
X129Y2416D02*
X132Y2416D01*
X215Y2416D02*
X218Y2416D01*
X129Y2415D02*
X132Y2415D01*
X215Y2415D02*
X218Y2415D01*
X129Y2414D02*
X132Y2414D01*
X215Y2414D02*
X218Y2414D01*
X129Y2413D02*
X132Y2413D01*
X215Y2413D02*
X218Y2413D01*
X129Y2412D02*
X132Y2412D01*
X215Y2412D02*
X218Y2412D01*
X129Y2411D02*
X132Y2411D01*
X215Y2411D02*
X218Y2411D01*
X129Y2410D02*
X132Y2410D01*
X215Y2410D02*
X218Y2410D01*
X129Y2409D02*
X132Y2409D01*
X215Y2409D02*
X218Y2409D01*
X129Y2408D02*
X132Y2408D01*
X215Y2408D02*
X218Y2408D01*
X129Y2407D02*
X132Y2407D01*
X215Y2407D02*
X218Y2407D01*
X129Y2406D02*
X132Y2406D01*
X215Y2406D02*
X218Y2406D01*
X129Y2405D02*
X132Y2405D01*
X215Y2405D02*
X218Y2405D01*
X129Y2404D02*
X132Y2404D01*
X215Y2404D02*
X218Y2404D01*
X129Y2403D02*
X132Y2403D01*
X215Y2403D02*
X218Y2403D01*
X129Y2402D02*
X132Y2402D01*
X215Y2402D02*
X218Y2402D01*
X129Y2401D02*
X132Y2401D01*
X215Y2401D02*
X218Y2401D01*
X129Y2400D02*
X132Y2400D01*
X215Y2400D02*
X218Y2400D01*
X129Y2399D02*
X132Y2399D01*
X215Y2399D02*
X218Y2399D01*
X129Y2398D02*
X132Y2398D01*
X215Y2398D02*
X218Y2398D01*
X129Y2397D02*
X132Y2397D01*
X215Y2397D02*
X218Y2397D01*
X129Y2396D02*
X132Y2396D01*
X215Y2396D02*
X218Y2396D01*
X129Y2395D02*
X132Y2395D01*
X215Y2395D02*
X218Y2395D01*
X129Y2394D02*
X132Y2394D01*
X215Y2394D02*
X218Y2394D01*
X129Y2393D02*
X132Y2393D01*
X215Y2393D02*
X218Y2393D01*
X129Y2392D02*
X132Y2392D01*
X215Y2392D02*
X218Y2392D01*
X129Y2391D02*
X132Y2391D01*
X215Y2391D02*
X218Y2391D01*
X129Y2390D02*
X132Y2390D01*
X215Y2390D02*
X218Y2390D01*
X129Y2389D02*
X132Y2389D01*
X215Y2389D02*
X218Y2389D01*
X129Y2388D02*
X131Y2388D01*
X217Y2388D02*
X218Y2388D01*
X129Y2387D02*
X131Y2387D01*
X217Y2387D02*
X218Y2387D01*
X129Y2386D02*
X131Y2386D01*
X217Y2386D02*
X218Y2386D01*
X129Y2385D02*
X131Y2385D01*
X217Y2385D02*
X218Y2385D01*
X129Y2384D02*
X131Y2384D01*
X217Y2384D02*
X218Y2384D01*
X129Y2383D02*
X131Y2383D01*
X217Y2383D02*
X218Y2383D01*
X129Y2382D02*
X131Y2382D01*
X217Y2382D02*
X218Y2382D01*
X129Y2381D02*
X131Y2381D01*
X217Y2381D02*
X218Y2381D01*
X129Y2380D02*
X131Y2380D01*
X217Y2380D02*
X218Y2380D01*
X129Y2379D02*
X131Y2379D01*
X217Y2379D02*
X218Y2379D01*
X129Y2378D02*
X131Y2378D01*
X217Y2378D02*
X218Y2378D01*
X129Y2377D02*
X131Y2377D01*
X217Y2377D02*
X218Y2377D01*
X129Y2376D02*
X131Y2376D01*
X217Y2376D02*
X218Y2376D01*
X129Y2375D02*
X131Y2375D01*
X217Y2375D02*
X218Y2375D01*
X129Y2374D02*
X131Y2374D01*
X217Y2374D02*
X218Y2374D01*
X129Y2373D02*
X131Y2373D01*
X217Y2373D02*
X218Y2373D01*
X129Y2372D02*
X131Y2372D01*
X217Y2372D02*
X218Y2372D01*
X129Y2371D02*
X131Y2371D01*
X217Y2371D02*
X218Y2371D01*
X129Y2370D02*
X131Y2370D01*
X217Y2370D02*
X218Y2370D01*
X129Y2369D02*
X131Y2369D01*
X217Y2369D02*
X218Y2369D01*
X129Y2368D02*
X131Y2368D01*
X217Y2368D02*
X218Y2368D01*
X129Y2367D02*
X131Y2367D01*
X217Y2367D02*
X218Y2367D01*
X129Y2366D02*
X131Y2366D01*
X217Y2366D02*
X218Y2366D01*
X129Y2365D02*
X131Y2365D01*
X217Y2365D02*
X218Y2365D01*
X129Y2364D02*
X131Y2364D01*
X217Y2364D02*
X218Y2364D01*
X129Y2363D02*
X131Y2363D01*
X217Y2363D02*
X218Y2363D01*
X129Y2362D02*
X131Y2362D01*
X217Y2362D02*
X218Y2362D01*
X129Y2361D02*
X131Y2361D01*
X217Y2361D02*
X218Y2361D01*
X129Y2360D02*
X131Y2360D01*
X217Y2360D02*
X218Y2360D01*
X129Y2359D02*
X131Y2359D01*
X217Y2359D02*
X218Y2359D01*
X129Y2358D02*
X131Y2358D01*
X217Y2358D02*
X218Y2358D01*
X129Y2357D02*
X131Y2357D01*
X217Y2357D02*
X218Y2357D01*
X129Y2356D02*
X131Y2356D01*
X217Y2356D02*
X218Y2356D01*
X129Y2355D02*
X131Y2355D01*
X217Y2355D02*
X218Y2355D01*
X129Y2354D02*
X131Y2354D01*
X217Y2354D02*
X218Y2354D01*
X129Y2353D02*
X131Y2353D01*
X217Y2353D02*
X218Y2353D01*
X129Y2352D02*
X131Y2352D01*
X217Y2352D02*
X218Y2352D01*
X129Y2351D02*
X131Y2351D01*
X217Y2351D02*
X218Y2351D01*
X129Y2350D02*
X131Y2350D01*
X217Y2350D02*
X218Y2350D01*
X129Y2349D02*
X131Y2349D01*
X217Y2349D02*
X218Y2349D01*
X129Y2348D02*
X131Y2348D01*
X217Y2348D02*
X218Y2348D01*
X129Y2347D02*
X131Y2347D01*
X217Y2347D02*
X218Y2347D01*
X129Y2346D02*
X131Y2346D01*
X217Y2346D02*
X218Y2346D01*
X129Y2345D02*
X131Y2345D01*
X217Y2345D02*
X218Y2345D01*
X129Y2344D02*
X131Y2344D01*
X217Y2344D02*
X218Y2344D01*
X129Y2343D02*
X131Y2343D01*
X217Y2343D02*
X218Y2343D01*
X129Y2342D02*
X131Y2342D01*
X217Y2342D02*
X218Y2342D01*
X129Y2341D02*
X131Y2341D01*
X217Y2341D02*
X218Y2341D01*
X129Y2340D02*
X131Y2340D01*
X217Y2340D02*
X218Y2340D01*
X129Y2339D02*
X131Y2339D01*
X217Y2339D02*
X218Y2339D01*
X129Y2338D02*
X131Y2338D01*
X217Y2338D02*
X218Y2338D01*
X129Y2337D02*
X131Y2337D01*
X217Y2337D02*
X218Y2337D01*
X129Y2336D02*
X131Y2336D01*
X217Y2336D02*
X218Y2336D01*
X129Y2335D02*
X131Y2335D01*
X217Y2335D02*
X218Y2335D01*
X129Y2334D02*
X131Y2334D01*
X217Y2334D02*
X218Y2334D01*
X129Y2333D02*
X131Y2333D01*
X217Y2333D02*
X218Y2333D01*
X129Y2332D02*
X131Y2332D01*
X217Y2332D02*
X218Y2332D01*
X129Y2331D02*
X131Y2331D01*
X217Y2331D02*
X218Y2331D01*
X129Y2330D02*
X131Y2330D01*
X217Y2330D02*
X218Y2330D01*
X129Y2329D02*
X131Y2329D01*
X217Y2329D02*
X218Y2329D01*
X129Y2328D02*
X131Y2328D01*
X217Y2328D02*
X218Y2328D01*
X129Y2327D02*
X131Y2327D01*
X217Y2327D02*
X218Y2327D01*
X129Y2326D02*
X131Y2326D01*
X217Y2326D02*
X218Y2326D01*
X129Y2325D02*
X131Y2325D01*
X217Y2325D02*
X218Y2325D01*
X129Y2324D02*
X131Y2324D01*
X217Y2324D02*
X218Y2324D01*
X129Y2323D02*
X131Y2323D01*
X217Y2323D02*
X218Y2323D01*
X129Y2322D02*
X131Y2322D01*
X217Y2322D02*
X218Y2322D01*
X129Y2321D02*
X131Y2321D01*
X217Y2321D02*
X218Y2321D01*
X129Y2320D02*
X131Y2320D01*
X217Y2320D02*
X218Y2320D01*
X129Y2319D02*
X131Y2319D01*
X217Y2319D02*
X218Y2319D01*
X129Y2318D02*
X131Y2318D01*
X217Y2318D02*
X218Y2318D01*
X129Y2317D02*
X131Y2317D01*
X217Y2317D02*
X218Y2317D01*
X129Y2316D02*
X131Y2316D01*
X216Y2316D02*
X218Y2316D01*
X129Y2315D02*
X218Y2315D01*
X129Y2314D02*
X218Y2314D01*
X129Y2313D02*
X218Y2313D01*
D02*
G04 End of Silk0*
M02*