; NON-PLATED HOLES START AT T1
; THROUGH (PLATED) HOLES START AT T100
M48
INCH,LZ
T100C0.031497
T101C0.038189
T102C0.035000
T103C0.030000
T104C0.032000
T105C0.038000
%
T100
X001741Y027010
X002725Y027010
X002725Y029010
X001741Y029010
T101
X021241Y030010
X026241Y027010
X023241Y030010
X023241Y027010
X020241Y030010
X022241Y027010
X025241Y030010
X020241Y027010
X022241Y030010
X024241Y027010
X025241Y027010
X024241Y030010
X026241Y030010
X027241Y027010
X027241Y030010
X021241Y027010
T102
X032741Y017510
X030741Y021510
X032741Y003010
X024241Y009010
X021241Y007010
X009241Y017510
X024241Y003010
X031741Y013010
X035741Y006010
X034741Y020510
X024241Y008010
X022241Y017510
X005241Y017510
X009241Y004010
X013241Y017510
X030741Y025510
X024241Y007010
X032741Y009010
X032741Y008010
X012241Y010010
X014241Y019510
X012241Y020510
X029741Y020510
X021241Y025010
X012241Y003010
X009241Y005010
X024241Y025510
X005741Y023510
X012241Y017510
X010241Y005510
X021241Y006010
X029741Y017510
X021241Y005010
X015682Y007238
X026241Y020510
X010241Y017510
X034741Y013010
X024241Y021510
X015741Y019510
X033741Y021510
X034741Y016510
X009241Y010010
X020241Y020510
X026241Y009010
X031741Y017510
X023241Y020510
X021241Y020510
X021241Y014010
X025241Y020510
X021241Y021510
X022241Y020510
X009241Y007010
X012241Y006010
X009241Y008010
X030741Y020510
X012241Y009010
X012241Y007010
X035741Y007010
X018241Y007238
X014241Y014010
X009241Y020510
X016241Y017510
X028741Y017510
X025241Y016510
X020241Y022510
X022241Y013010
X034741Y017510
X033741Y025510
X009241Y009010
X019241Y020510
X035741Y004010
X026241Y016510
X033741Y017510
X008241Y017510
X012741Y024010
X024241Y017510
X009241Y022010
X035741Y017510
X035741Y009010
X012741Y018510
X016741Y022510
X033741Y020510
X032741Y020510
X035741Y020510
X030741Y009010
X030741Y017510
X014241Y017510
X016241Y020510
X026241Y017510
X010241Y020510
X021241Y003010
X035741Y003010
X025241Y013010
X015741Y005510
X009241Y006010
X012241Y008010
X032741Y010010
X021241Y017510
X008241Y023510
X022241Y016510
X032741Y006010
X021241Y010010
X028241Y009010
X013241Y020510
X019241Y022010
X020241Y017510
X024241Y006010
X015741Y014010
X014241Y020510
X012241Y005010
X028741Y020510
X024241Y010010
X024241Y020510
X021241Y004010
X035741Y005010
X031741Y020510
X019241Y017510
X015241Y020510
X035741Y008010
X031741Y016510
X021241Y009010
X015682Y009010
X024241Y005010
X021241Y016510
X035741Y010010
X011241Y017510
X024241Y004010
X021241Y008010
X011241Y020510
X018241Y009010
X023241Y017510
X032741Y005010
X009241Y003010
X032741Y007010
X032741Y004010
X015241Y017510
X012241Y004010
X025241Y017510
T103
X013741Y003010
X014741Y003010
T104
X013741Y030010
X011241Y027010
X011241Y030010
X013741Y027010
X012241Y030010
X014741Y030010
X014741Y027010
X012241Y027010
T105
X027741Y012010
X029741Y012010
X014241Y016510
X012241Y013010
X032741Y012010
X005241Y028010
X039241Y005010
X026241Y019510
X009241Y014010
X034741Y010010
X029741Y016510
X004241Y021510
X004241Y020510
X020241Y007010
X023241Y010010
X031741Y007010
X039241Y007010
X039241Y021510
X039241Y025510
X007241Y028010
X039241Y026510
X023241Y019510
X039241Y006010
X013741Y026010
X029741Y013010
X031741Y006010
X007241Y029010
X022241Y026010
X007241Y027010
X004241Y023510
X032741Y016510
X009241Y016510
X011241Y010010
X013241Y016510
X033741Y012010
X023241Y026010
X004241Y022510
X039241Y020510
X034741Y012010
X015241Y013010
X005241Y029010
X028741Y016510
X039241Y008010
X031741Y012010
X014241Y013010
X039241Y024510
X028741Y012010
X033741Y011010
X004241Y017510
X034741Y011010
X030741Y013010
X013241Y010010
X005241Y027010
X004241Y019510
X013241Y013010
X025241Y010010
X039241Y023510
X012241Y021510
X004241Y018510
X039241Y022510
X005241Y021510
X030741Y012010
X015241Y021510
X004241Y016510
X020241Y016510
X031741Y008010
X019241Y016510
X036741Y020510
X032741Y019510
X039241Y019510
T00
M30
