G04 MADE WITH FRITZING*
G04 WWW.FRITZING.ORG*
G04 SINGLE SIDED*
G04 HOLES NOT PLATED*
G04 CONTOUR ON CENTER OF CONTOUR VECTOR*
%ASAXBY*%
%FSLAX23Y23*%
%MOIN*%
%OFA0B0*%
%SFA1.0B1.0*%
%ADD10C,0.078000*%
%ADD11C,0.075000*%
%ADD12C,0.062992*%
%ADD13R,0.075000X0.075000*%
%ADD14R,0.062992X0.062992*%
%ADD15C,0.024000*%
%LNCOPPER0*%
G90*
G70*
G54D10*
X3730Y984D03*
X3730Y884D03*
X3730Y784D03*
X3730Y684D03*
X3730Y584D03*
X3730Y484D03*
X3730Y384D03*
X3730Y284D03*
G54D11*
X2280Y484D03*
X3330Y484D03*
X2380Y584D03*
X3330Y584D03*
X2780Y784D03*
X3280Y784D03*
X2130Y984D03*
X2130Y1384D03*
X3180Y1184D03*
X3580Y1184D03*
X930Y1084D03*
X930Y1384D03*
X1830Y134D03*
X1830Y484D03*
X1724Y1084D03*
X1724Y1384D03*
X1524Y1084D03*
X1524Y1384D03*
X1624Y1084D03*
X1624Y1384D03*
X1824Y1084D03*
X1824Y1384D03*
G54D10*
X180Y984D03*
X180Y884D03*
X180Y784D03*
X180Y684D03*
X180Y584D03*
X180Y484D03*
X180Y384D03*
X180Y284D03*
G54D11*
X929Y687D03*
X929Y987D03*
X1029Y687D03*
X1029Y987D03*
X1129Y687D03*
X1129Y987D03*
X1229Y687D03*
X1229Y987D03*
X1329Y687D03*
X1329Y987D03*
X1429Y687D03*
X1429Y987D03*
X1529Y687D03*
X1529Y987D03*
X1629Y687D03*
X1629Y987D03*
X1729Y687D03*
X1729Y987D03*
X1829Y687D03*
X1829Y987D03*
X2279Y687D03*
X2279Y987D03*
X2379Y687D03*
X2379Y987D03*
X2479Y687D03*
X2479Y987D03*
X2579Y687D03*
X2579Y987D03*
X2679Y687D03*
X2679Y987D03*
X2779Y687D03*
X2779Y987D03*
X2879Y687D03*
X2879Y987D03*
X2979Y687D03*
X2979Y987D03*
G54D12*
X1980Y1486D03*
X1980Y1584D03*
X1380Y1490D03*
X1380Y1589D03*
X1580Y1490D03*
X1580Y1589D03*
X1780Y1486D03*
X1780Y1584D03*
G54D13*
X929Y687D03*
X2279Y687D03*
G54D14*
X1980Y1486D03*
X1380Y1490D03*
X1580Y1490D03*
X1780Y1486D03*
G54D15*
X2480Y483D02*
X2480Y658D01*
D02*
X481Y384D02*
X2380Y385D01*
D02*
X229Y584D02*
X481Y384D01*
D02*
X2380Y385D02*
X2480Y483D01*
D02*
X210Y584D02*
X229Y584D01*
D02*
X2581Y483D02*
X2430Y335D01*
D02*
X429Y334D02*
X229Y485D01*
D02*
X229Y485D02*
X210Y485D01*
D02*
X2430Y335D02*
X429Y334D01*
D02*
X2580Y658D02*
X2581Y483D01*
D02*
X2679Y483D02*
X2480Y285D01*
D02*
X379Y285D02*
X229Y384D01*
D02*
X229Y384D02*
X210Y384D01*
D02*
X2480Y285D02*
X379Y285D01*
D02*
X2679Y658D02*
X2679Y483D01*
D02*
X2779Y483D02*
X2531Y235D01*
D02*
X330Y235D02*
X229Y285D01*
D02*
X229Y285D02*
X210Y285D01*
D02*
X2531Y235D02*
X330Y235D01*
D02*
X2779Y658D02*
X2779Y483D01*
D02*
X1680Y1284D02*
X2531Y1284D01*
D02*
X2780Y1035D02*
X2780Y1015D01*
D02*
X1522Y1128D02*
X1680Y1284D01*
D02*
X2531Y1284D02*
X2780Y1035D01*
D02*
X1523Y1113D02*
X1522Y1128D01*
D02*
X1528Y1015D02*
X1526Y1056D01*
D02*
X1730Y1234D02*
X2481Y1234D01*
D02*
X2680Y1035D02*
X2680Y1015D01*
D02*
X1630Y1136D02*
X1730Y1234D01*
D02*
X1627Y1113D02*
X1630Y1136D01*
D02*
X2481Y1234D02*
X2680Y1035D01*
D02*
X1730Y1136D02*
X1781Y1183D01*
D02*
X2579Y1035D02*
X2579Y1015D01*
D02*
X1781Y1183D02*
X2430Y1183D01*
D02*
X1728Y1113D02*
X1730Y1136D01*
D02*
X2430Y1183D02*
X2579Y1035D01*
D02*
X1728Y1015D02*
X1726Y1056D01*
D02*
X2481Y1035D02*
X2480Y1015D01*
D02*
X1853Y1084D02*
X2430Y1085D01*
D02*
X2430Y1085D02*
X2481Y1035D01*
D02*
X1828Y1015D02*
X1826Y1056D01*
D02*
X1731Y633D02*
X1730Y658D01*
D02*
X230Y684D02*
X530Y433D01*
D02*
X530Y433D02*
X1531Y433D01*
D02*
X1531Y433D02*
X1731Y633D01*
D02*
X210Y684D02*
X230Y684D01*
D02*
X1630Y633D02*
X1630Y658D01*
D02*
X580Y485D02*
X1479Y485D01*
D02*
X230Y783D02*
X580Y485D01*
D02*
X1479Y485D02*
X1630Y633D01*
D02*
X210Y784D02*
X230Y783D01*
D02*
X1531Y633D02*
X1530Y658D01*
D02*
X629Y534D02*
X1430Y534D01*
D02*
X230Y882D02*
X629Y534D01*
D02*
X1430Y534D02*
X1531Y633D01*
D02*
X210Y883D02*
X230Y882D01*
D02*
X1430Y633D02*
X1430Y658D01*
D02*
X681Y584D02*
X1380Y584D01*
D02*
X230Y986D02*
X681Y584D01*
D02*
X1380Y584D02*
X1430Y633D01*
D02*
X210Y985D02*
X230Y986D01*
D02*
X1626Y1056D02*
X1628Y1015D01*
D02*
X1630Y1485D02*
X1606Y1487D01*
D02*
X1626Y1413D02*
X1630Y1485D01*
D02*
X1731Y1485D02*
X1753Y1485D01*
D02*
X1726Y1413D02*
X1731Y1485D01*
D02*
X1380Y1486D02*
X1501Y1401D01*
D02*
X1380Y1463D02*
X1380Y1486D01*
D02*
X1979Y1486D02*
X1848Y1400D01*
D02*
X1953Y1486D02*
X1979Y1486D01*
D02*
X2881Y1035D02*
X2880Y1015D01*
D02*
X3029Y1183D02*
X2881Y1035D01*
D02*
X3151Y1184D02*
X3029Y1183D01*
D02*
X3480Y986D02*
X3581Y884D01*
D02*
X3581Y884D02*
X3700Y884D01*
D02*
X3008Y987D02*
X3480Y986D01*
D02*
X2981Y285D02*
X2980Y658D01*
D02*
X3700Y284D02*
X2981Y285D01*
D02*
X3430Y384D02*
X3350Y464D01*
D02*
X3700Y384D02*
X3430Y384D01*
D02*
X2280Y513D02*
X2280Y658D01*
D02*
X2380Y613D02*
X2380Y658D01*
D02*
X3480Y485D02*
X3700Y484D01*
D02*
X3380Y585D02*
X3480Y485D01*
D02*
X3358Y585D02*
X3380Y585D01*
D02*
X2028Y783D02*
X2751Y784D01*
D02*
X1881Y882D02*
X2028Y783D01*
D02*
X1028Y933D02*
X1080Y884D01*
D02*
X1080Y884D02*
X1881Y882D01*
D02*
X1829Y734D02*
X1829Y715D01*
D02*
X1780Y785D02*
X1829Y734D01*
D02*
X1029Y958D02*
X1028Y933D01*
D02*
X928Y783D02*
X1780Y785D01*
D02*
X929Y715D02*
X928Y783D01*
D02*
X3480Y784D02*
X3308Y784D01*
D02*
X3581Y683D02*
X3480Y784D01*
D02*
X3700Y684D02*
X3581Y683D01*
D02*
X2131Y1584D02*
X2028Y1683D01*
D02*
X3179Y1384D02*
X3581Y984D01*
D02*
X3581Y984D02*
X3700Y984D01*
D02*
X1230Y1685D02*
X2028Y1683D01*
D02*
X2130Y1413D02*
X2131Y1584D01*
D02*
X950Y1405D02*
X1230Y1685D01*
D02*
X2158Y1384D02*
X3179Y1384D01*
D02*
X2251Y986D02*
X2158Y985D01*
D02*
X1201Y987D02*
X1158Y987D01*
D02*
X1258Y987D02*
X1301Y987D01*
D02*
X1358Y987D02*
X1401Y987D01*
D02*
X2829Y136D02*
X2981Y285D01*
D02*
X1858Y134D02*
X2829Y136D01*
D02*
X2880Y736D02*
X2880Y715D01*
D02*
X3581Y585D02*
X3480Y685D01*
D02*
X3480Y685D02*
X3180Y683D01*
D02*
X3700Y584D02*
X3581Y585D01*
D02*
X2932Y783D02*
X2880Y736D01*
D02*
X3080Y783D02*
X2932Y783D01*
D02*
X3180Y683D02*
X3080Y783D01*
D02*
X3781Y585D02*
X3831Y634D01*
D02*
X3760Y585D02*
X3781Y585D01*
D02*
X3679Y1184D02*
X3608Y1184D01*
D02*
X3831Y1035D02*
X3679Y1184D01*
D02*
X3831Y634D02*
X3831Y1035D01*
D02*
X1553Y1589D02*
X1407Y1589D01*
D02*
X1607Y1588D02*
X1753Y1585D01*
D02*
X1807Y1584D02*
X1953Y1584D01*
D02*
X1131Y1234D02*
X1130Y1015D01*
D02*
X1028Y1333D02*
X1131Y1234D01*
D02*
X1279Y1583D02*
X1028Y1333D01*
D02*
X1353Y1587D02*
X1279Y1583D01*
D02*
X930Y1015D02*
X930Y1056D01*
D02*
X829Y884D02*
X928Y783D01*
D02*
X829Y1135D02*
X829Y884D01*
D02*
X1028Y1333D02*
X829Y1135D01*
D02*
X1830Y658D02*
X1830Y513D01*
D02*
X2379Y934D02*
X2379Y958D01*
D02*
X2431Y882D02*
X2379Y934D01*
D02*
X3480Y883D02*
X2431Y882D01*
D02*
X3581Y784D02*
X3480Y883D01*
D02*
X3700Y784D02*
X3581Y784D01*
G04 End of Copper0*
M02*