G04 MADE WITH FRITZING*
G04 WWW.FRITZING.ORG*
G04 SINGLE SIDED*
G04 HOLES NOT PLATED*
G04 CONTOUR ON CENTER OF CONTOUR VECTOR*
%ASAXBY*%
%FSLAX23Y23*%
%MOIN*%
%OFA0B0*%
%SFA1.0B1.0*%
%ADD10C,0.088000*%
%ADD11C,0.085000*%
%ADD12C,0.072992*%
%ADD13R,0.085000X0.085000*%
%ADD14R,0.072992X0.072992*%
%LNMASK0*%
G90*
G70*
G54D10*
X3730Y984D03*
X3730Y884D03*
X3730Y784D03*
X3730Y684D03*
X3730Y584D03*
X3730Y484D03*
X3730Y384D03*
X3730Y284D03*
G54D11*
X2280Y484D03*
X3330Y484D03*
X2380Y584D03*
X3330Y584D03*
X2780Y784D03*
X3280Y784D03*
X2130Y984D03*
X2130Y1384D03*
X3180Y1184D03*
X3580Y1184D03*
X930Y1084D03*
X930Y1384D03*
X1830Y134D03*
X1830Y484D03*
X1724Y1084D03*
X1724Y1384D03*
X1524Y1084D03*
X1524Y1384D03*
X1624Y1084D03*
X1624Y1384D03*
X1824Y1084D03*
X1824Y1384D03*
G54D10*
X180Y984D03*
X180Y884D03*
X180Y784D03*
X180Y684D03*
X180Y584D03*
X180Y484D03*
X180Y384D03*
X180Y284D03*
G54D11*
X929Y687D03*
X929Y987D03*
X1029Y687D03*
X1029Y987D03*
X1129Y687D03*
X1129Y987D03*
X1229Y687D03*
X1229Y987D03*
X1329Y687D03*
X1329Y987D03*
X1429Y687D03*
X1429Y987D03*
X1529Y687D03*
X1529Y987D03*
X1629Y687D03*
X1629Y987D03*
X1729Y687D03*
X1729Y987D03*
X1829Y687D03*
X1829Y987D03*
X2279Y687D03*
X2279Y987D03*
X2379Y687D03*
X2379Y987D03*
X2479Y687D03*
X2479Y987D03*
X2579Y687D03*
X2579Y987D03*
X2679Y687D03*
X2679Y987D03*
X2779Y687D03*
X2779Y987D03*
X2879Y687D03*
X2879Y987D03*
X2979Y687D03*
X2979Y987D03*
G54D12*
X1980Y1486D03*
X1980Y1584D03*
X1380Y1490D03*
X1380Y1589D03*
X1580Y1490D03*
X1580Y1589D03*
X1780Y1486D03*
X1780Y1584D03*
G54D13*
X929Y687D03*
X2279Y687D03*
G54D14*
X1980Y1486D03*
X1380Y1490D03*
X1580Y1490D03*
X1780Y1486D03*
G04 End of Mask0*
M02*