; NON-PLATED HOLES START AT T1
; THROUGH (PLATED) HOLES START AT T100
M48
INCH,LZ
T100C0.035000
T101C0.031497
T102C0.038000
%
T100
X026794Y006867
X009297Y010842
X014294Y009867
X010294Y009867
X022794Y006867
X016242Y013842
X015242Y013842
X035797Y011842
X012294Y009867
X011294Y006867
X033297Y005842
X009294Y009867
X018242Y013842
X023794Y006867
X027797Y007842
X015294Y009867
X023797Y005842
X027794Y006867
X017294Y006867
X031797Y011842
X017242Y013842
X023794Y009867
X018297Y001342
X033297Y004842
X009297Y013842
X009294Y006867
X025794Y009867
X013294Y009867
X021297Y009842
X024794Y009867
X017242Y010842
X021297Y013842
X022797Y004842
X024794Y006867
X016294Y009867
X016242Y010842
X018294Y009867
X018294Y006867
X015294Y006867
X029794Y009867
X012294Y006867
X010294Y006867
X013294Y006867
X032797Y007842
X011294Y009867
X018242Y010842
X026794Y009867
X029794Y006867
X018297Y004842
X016294Y006867
X025794Y006867
X028794Y009867
X022794Y009867
X028794Y006867
X017294Y009867
X015242Y010842
X027794Y009867
X014294Y006867
T101
X015797Y014902
X013797Y015886
X019797Y015842
X017797Y014858
X013797Y014902
X019797Y014858
X017797Y015842
X015797Y015886
T102
X001797Y007842
X037297Y006842
X001797Y006842
X037297Y002842
X001797Y002842
X037297Y003842
X001797Y004842
X037297Y005842
X037297Y007842
X001797Y003842
X001797Y005842
X037297Y009842
X037297Y004842
X001797Y008842
X001797Y009842
X037297Y008842
T00
M30
