G04 MADE WITH FRITZING*
G04 WWW.FRITZING.ORG*
G04 SINGLE SIDED*
G04 HOLES NOT PLATED*
G04 CONTOUR ON CENTER OF CONTOUR VECTOR*
%ASAXBY*%
%FSLAX23Y23*%
%MOIN*%
%OFA0B0*%
%SFA1.0B1.0*%
%ADD10C,0.085000*%
%ADD11C,0.088000*%
%ADD12C,0.072992*%
%ADD13R,0.085000X0.085000*%
%ADD14R,0.072992X0.084803*%
%ADD15R,0.072992X0.072992*%
%ADD16R,0.084803X0.072992*%
%LNMASK0*%
G90*
G70*
G54D10*
X393Y2475D03*
X649Y2475D03*
X393Y2298D03*
X649Y2298D03*
G54D11*
X3043Y1248D03*
X3043Y1348D03*
X2743Y1348D03*
X2643Y1348D03*
X2743Y1348D03*
X2643Y1348D03*
X2643Y1248D03*
X2743Y1248D03*
X1493Y1248D03*
X1493Y1348D03*
X1193Y1348D03*
X1093Y1348D03*
X1193Y1348D03*
X1093Y1348D03*
X1093Y1248D03*
X1193Y1248D03*
X2943Y1248D03*
X2943Y1348D03*
X3643Y1948D03*
X2843Y1248D03*
X1293Y1248D03*
X1393Y1248D03*
X1393Y1348D03*
X543Y1498D03*
X543Y1598D03*
X543Y1698D03*
X3943Y2198D03*
X4043Y2198D03*
X443Y1998D03*
X443Y1898D03*
X443Y1798D03*
X443Y1698D03*
X443Y1598D03*
X443Y1498D03*
X443Y1398D03*
X443Y1298D03*
X1643Y2198D03*
X1643Y2098D03*
X1643Y1998D03*
X1843Y2198D03*
X1843Y2098D03*
X1843Y1998D03*
X3243Y298D03*
X3143Y298D03*
X3043Y298D03*
X1693Y298D03*
X1593Y298D03*
X1493Y298D03*
X1693Y398D03*
X1593Y398D03*
X1493Y398D03*
X3243Y398D03*
X3143Y398D03*
X3043Y398D03*
G54D10*
X793Y2598D03*
X393Y2598D03*
X1243Y2048D03*
X893Y2048D03*
X1143Y1498D03*
X1143Y1898D03*
X1043Y2398D03*
X1343Y2398D03*
X1043Y2298D03*
X1343Y2298D03*
X1043Y2198D03*
X1343Y2198D03*
X1043Y2098D03*
X1343Y2098D03*
X1043Y1998D03*
X1343Y1998D03*
X1043Y1898D03*
X1343Y1898D03*
X1043Y1798D03*
X1343Y1798D03*
X1043Y1698D03*
X1343Y1698D03*
X2144Y2399D03*
X2444Y2399D03*
X2144Y2299D03*
X2444Y2299D03*
X2144Y2199D03*
X2444Y2199D03*
X2144Y2099D03*
X2444Y2099D03*
X2144Y1999D03*
X2444Y1999D03*
X2144Y1899D03*
X2444Y1899D03*
X2144Y1799D03*
X2444Y1799D03*
X2144Y1699D03*
X2444Y1699D03*
X3443Y2048D03*
X3443Y2348D03*
X3543Y2048D03*
X3543Y2348D03*
X3643Y2048D03*
X3643Y2348D03*
X3743Y2048D03*
X3743Y2348D03*
X3843Y2048D03*
X3843Y2348D03*
X3943Y2048D03*
X3943Y2348D03*
X4043Y2048D03*
X4043Y2348D03*
G54D11*
X2543Y548D03*
X2643Y548D03*
X2743Y548D03*
X2843Y548D03*
X2943Y548D03*
X3043Y548D03*
X3143Y548D03*
X3243Y548D03*
X3343Y548D03*
X3443Y548D03*
X3543Y548D03*
X3643Y548D03*
X993Y548D03*
X1093Y548D03*
X1193Y548D03*
X1293Y548D03*
X1393Y548D03*
X1493Y548D03*
X1593Y548D03*
X1693Y548D03*
X1793Y548D03*
X1893Y548D03*
X1993Y548D03*
X2093Y548D03*
X2543Y1148D03*
X2643Y1148D03*
X2743Y1148D03*
X2843Y1148D03*
X2943Y1148D03*
X3043Y1148D03*
X3143Y1148D03*
X3243Y1148D03*
X3343Y1148D03*
X3443Y1148D03*
X3543Y1148D03*
X3643Y1148D03*
X993Y1148D03*
X1093Y1148D03*
X1193Y1148D03*
X1293Y1148D03*
X1393Y1148D03*
X1493Y1148D03*
X1593Y1148D03*
X1693Y1148D03*
X1793Y1148D03*
X1893Y1148D03*
X1993Y1148D03*
X2093Y1148D03*
X3343Y198D03*
X3443Y198D03*
X3543Y198D03*
X3643Y198D03*
X3743Y198D03*
X3843Y198D03*
X3943Y198D03*
X4043Y198D03*
X1793Y198D03*
X1893Y198D03*
X1993Y198D03*
X2093Y198D03*
X2193Y198D03*
X2293Y198D03*
X2393Y198D03*
X2493Y198D03*
X1093Y198D03*
X1193Y198D03*
X1293Y198D03*
X1393Y198D03*
G54D10*
X2093Y448D03*
X3643Y448D03*
X2093Y948D03*
X2543Y948D03*
X2093Y848D03*
X2643Y848D03*
X1943Y798D03*
X2743Y798D03*
X2093Y748D03*
X2843Y748D03*
X2093Y648D03*
X2943Y648D03*
G54D12*
X2942Y1899D03*
X3041Y1899D03*
X2942Y1699D03*
X3041Y1699D03*
X2942Y2099D03*
X3041Y2099D03*
X2942Y2299D03*
X3041Y2299D03*
X2942Y2499D03*
X3041Y2499D03*
X1944Y2650D03*
X1944Y2749D03*
X1744Y2650D03*
X1744Y2749D03*
X893Y2648D03*
X893Y2747D03*
X1544Y2650D03*
X1544Y2749D03*
G54D10*
X4143Y2348D03*
X4143Y2048D03*
X1943Y2248D03*
X1943Y2548D03*
X1743Y2098D03*
X1743Y2498D03*
X1543Y1998D03*
X1543Y2398D03*
X3943Y1898D03*
X3943Y1648D03*
G54D13*
X1043Y2398D03*
X2144Y2399D03*
X3443Y2048D03*
G54D14*
X1293Y1048D03*
X1171Y1048D03*
X2843Y1048D03*
X2721Y1048D03*
G54D15*
X2942Y1899D03*
X2942Y1699D03*
X2942Y2099D03*
X2942Y2299D03*
X2942Y2499D03*
X1944Y2650D03*
X1744Y2650D03*
X893Y2648D03*
X1544Y2650D03*
G54D14*
X2672Y1699D03*
X2794Y1699D03*
X2672Y1899D03*
X2794Y1899D03*
X2672Y2099D03*
X2794Y2099D03*
X2672Y2299D03*
X2794Y2299D03*
G54D16*
X893Y2326D03*
X893Y2448D03*
G54D14*
X2672Y2499D03*
X2794Y2499D03*
G04 End of Mask0*
M02*