; NON-PLATED HOLES START AT T1
; THROUGH (PLATED) HOLES START AT T100
M48
INCH,LZ
T100C0.035000
T101C0.038000
T102C0.031497
%
T100
X020928Y008480
X041428Y023480
X010428Y018981
X010428Y022980
X021437Y016988
X006487Y024752
X029428Y006480
X013428Y022980
X040428Y020480
X013428Y019980
X024437Y019988
X010428Y023980
X027428Y007980
X039428Y016481
X011428Y018981
X011428Y014981
X019428Y007980
X037428Y023480
X024437Y023988
X035428Y023480
X024437Y016988
X008928Y020480
X021437Y018988
X017428Y020980
X025428Y009480
X010428Y020980
X036428Y004480
X024437Y017988
X034428Y023480
X020928Y009480
X024437Y018988
X021437Y023988
X040428Y023480
X036428Y023480
X003928Y022980
X017428Y024980
X013428Y016981
X006487Y022980
X028428Y007480
X010428Y017981
X034428Y020480
X013428Y017981
X012428Y020480
X015428Y019980
X024437Y022988
X039428Y023480
X035428Y020480
X020928Y004480
X013428Y023980
X015428Y023980
X010428Y021980
X019428Y022480
X024437Y020988
X021437Y017988
X013428Y018981
X019428Y025480
X037428Y020480
X010428Y019980
X026428Y008480
X036428Y020480
X020928Y007480
X021437Y021988
X039428Y020480
X021437Y020988
X039428Y018981
X003928Y025980
X038428Y023480
X024437Y021988
X020928Y006480
X021437Y022988
X021437Y019988
X041428Y020480
X013428Y021980
X013428Y020980
X003928Y024752
X010428Y016981
X038428Y020480
X007928Y025980
T101
X021928Y001980
X014928Y003980
X018428Y019980
X030428Y003980
X005428Y015980
X029428Y013480
X016928Y002980
X012928Y011480
X031428Y003980
X011928Y012480
X018928Y001980
X032428Y011480
X040428Y021980
X017928Y011480
X026428Y011480
X034428Y005480
X026428Y005480
X016928Y003980
X030428Y002980
X035428Y011480
X013928Y001980
X035428Y001980
X035428Y005480
X029428Y011480
X017928Y005480
X027428Y012480
X005428Y014980
X025428Y011480
X004428Y014981
X039428Y021980
X013928Y012480
X040428Y001980
X009928Y005480
X010928Y012480
X028428Y011480
X036428Y001980
X033428Y001980
X010928Y001980
X020928Y001980
X038428Y001980
X011928Y005480
X027428Y013480
X010928Y005480
X033428Y005480
X016428Y021980
X005428Y016980
X026428Y013480
X004428Y017981
X025428Y005480
X019928Y011480
X011928Y011480
X004428Y012981
X036428Y011480
X033428Y011480
X012928Y012480
X014928Y013480
X024928Y001980
X009928Y011480
X032428Y005480
X011928Y001980
X026428Y012480
X027428Y011480
X018428Y021980
X034428Y001980
X032428Y002980
X017928Y001980
X014928Y002980
X036428Y019480
X018928Y011480
X014928Y011480
X012928Y001980
X019928Y005480
X016428Y019980
X027428Y005480
X018928Y005480
X015928Y005480
X004428Y013981
X015928Y011480
X029428Y005480
X004428Y016981
X031428Y005480
X036428Y005480
X004428Y019980
X028428Y012480
X010928Y013480
X020928Y005480
X004428Y015981
X014928Y012480
X013928Y011480
X028428Y005480
X019928Y001980
X030428Y011480
X034428Y011480
X037428Y001980
X010928Y011480
X032428Y003980
X030428Y013480
X015928Y002980
X018428Y020980
X012928Y005480
X016428Y020980
X031428Y002980
X013928Y013480
X023928Y001980
X004428Y018981
X016928Y011480
X016928Y005480
X029428Y012480
X015928Y003980
X020928Y011480
X011928Y013480
X014928Y005480
X039428Y001980
X030428Y005480
X030428Y012480
X013928Y005480
X022928Y001980
X031428Y011480
T102
X030409Y016988
X030409Y018988
X015437Y027488
X015437Y026504
X019437Y026504
X029424Y020988
X017437Y026504
X017437Y027488
X008928Y026480
X019437Y027488
X029424Y024988
X029424Y022988
X030409Y020988
X008928Y027465
X029424Y018988
X030409Y024988
X029424Y016988
X030409Y022988
T00
M30
