; NON-PLATED HOLES START AT T1
; THROUGH (PLATED) HOLES START AT T100
M48
INCH,LZ
T100C0.038000
T101C0.031497
T102C0.035000
%
T100
X009262Y010020
X091762Y019020
X104762Y003520
X082762Y003020
X114762Y019020
X107762Y003520
X040355Y019212
X060762Y019020
X088762Y019020
X093762Y019020
X089762Y019020
X059762Y019020
X087855Y020212
X039262Y001520
X091855Y020212
X092762Y019020
X121762Y013020
X039355Y020212
X089855Y020212
X110762Y019020
X015262Y019020
X036262Y001520
X040355Y020212
X054762Y001520
X080762Y003020
X013262Y019020
X105762Y003520
X037355Y020212
X090855Y020212
X061762Y019020
X057762Y001520
X009262Y015020
X085762Y003020
X094762Y019020
X111762Y003520
X086762Y003020
X081762Y003020
X093855Y020212
X058762Y019020
X113762Y019020
X121762Y012020
X115762Y019020
X043262Y001520
X112762Y019020
X121762Y009020
X121762Y008020
X109762Y003520
X111762Y019020
X106762Y003520
X111856Y002212
X009262Y014020
X033355Y019212
X105856Y002212
X009262Y012020
X018262Y019020
X062762Y019020
X037355Y019212
X108856Y002212
X038355Y020212
X040262Y001520
X036355Y020212
X110856Y002212
X109856Y002212
X056762Y001520
X038262Y001520
X106856Y002212
X109762Y019020
X055762Y001520
X108762Y003520
X009262Y011020
X090762Y019020
X042262Y001520
X121762Y014020
X020262Y019020
X038355Y019212
X083762Y003020
X019262Y019020
X033355Y020212
X057762Y019020
X055762Y019020
X110762Y003520
X121762Y011020
X034355Y019212
X092855Y020212
X001262Y001520
X016262Y019020
X001262Y002520
X014262Y019020
X107856Y002212
X041262Y001520
X037262Y001520
X036355Y019212
X087762Y003020
X009262Y008020
X035355Y019212
X121762Y015020
X121762Y010020
X035355Y020212
X009262Y009020
X116762Y019020
X084762Y003020
X034355Y020212
X104856Y002212
X088855Y020212
X009262Y013020
X094855Y020212
X087762Y019020
X056762Y019020
X017262Y019020
X039355Y019212
T101
X002262Y016520
X002262Y006520
X001278Y004520
X002262Y010520
X002262Y008520
X002262Y004520
X002262Y018520
X001278Y014520
X001278Y010520
X001278Y018520
X001278Y012520
X002262Y014520
X001278Y008520
X002262Y012520
X001278Y016520
X001278Y006520
T102
X037262Y011020
X036262Y015020
X115762Y017020
X107762Y012020
X038262Y013020
X041262Y010020
X039262Y012020
X104762Y006020
X105762Y006020
X038262Y010020
X090762Y012020
X114762Y010020
X054762Y006020
X080762Y006020
X114762Y017020
X106762Y013020
X055762Y006020
X113762Y017020
X108762Y006020
X038262Y017020
X058762Y012020
X037262Y017020
X040262Y011020
X018262Y013020
X086762Y006020
X039262Y017020
X091762Y017020
X109762Y010020
X112762Y017020
X104762Y015020
X106762Y006020
X057762Y015020
X089762Y013020
X015262Y017020
X057762Y013020
X089762Y017020
X111762Y017020
X087762Y006020
X017262Y017020
X036262Y012020
X057762Y017020
X014262Y013020
X019262Y014020
X083762Y006020
X056762Y006020
X083762Y011020
X013262Y017020
X084762Y012020
X086762Y014020
X061718Y009095
X062762Y008020
X087762Y015020
X035262Y013020
X110762Y009020
X019262Y017020
X112762Y012020
X110762Y014020
X056762Y017020
X080762Y008020
X034262Y014020
X092762Y017020
X110762Y017020
X085762Y013020
X090762Y017020
X055762Y013020
X037262Y014020
X036262Y006020
X039262Y006020
X116762Y008020
X062762Y017020
X105762Y014020
X111762Y013020
X093762Y009020
X110762Y006020
X092762Y010020
X107762Y006020
X041262Y006020
X038262Y006020
X040262Y008020
X040262Y017020
X115762Y009020
X081762Y006020
X094762Y008020
X036262Y017020
X042262Y005975
X085762Y006020
X014262Y017020
X042262Y009020
X059762Y017020
X013262Y012020
X054762Y012020
X093762Y017020
X035262Y017020
X081762Y009020
X056762Y014020
X015262Y014020
X058762Y017020
X017262Y012020
X039218Y009095
X088762Y014020
X057762Y006020
X094762Y017020
X082762Y006020
X113762Y011020
X088762Y017020
X040262Y006020
X060762Y010020
X109762Y006020
X018262Y017020
X037262Y006020
X084762Y006020
X034262Y017020
X082762Y010020
X091762Y011020
X060762Y017020
X116762Y017020
X059762Y011020
X061762Y017020
X108762Y011020
T00
M30
