G04 MADE WITH FRITZING*
G04 WWW.FRITZING.ORG*
G04 SINGLE SIDED*
G04 HOLES NOT PLATED*
G04 CONTOUR ON CENTER OF CONTOUR VECTOR*
%ASAXBY*%
%FSLAX23Y23*%
%MOIN*%
%OFA0B0*%
%SFA1.0B1.0*%
%ADD10C,0.078000*%
%ADD11C,0.075000*%
%ADD12C,0.062992*%
%ADD13R,0.062992X0.062992*%
%ADD14R,0.062992X0.074803*%
%ADD15C,0.024000*%
%ADD16R,0.001000X0.001000*%
%LNCOPPER0*%
G90*
G70*
G54D10*
X10476Y352D03*
X10576Y352D03*
X10676Y352D03*
X10776Y352D03*
X10876Y352D03*
X10976Y352D03*
X11076Y352D03*
X11176Y352D03*
X3626Y152D03*
X3726Y152D03*
X3826Y152D03*
X3926Y152D03*
X4026Y152D03*
X4126Y152D03*
X4226Y152D03*
X4326Y152D03*
X10976Y1902D03*
X11076Y1902D03*
X11176Y1902D03*
X11276Y1902D03*
X11376Y1902D03*
X11476Y1902D03*
X11576Y1902D03*
X11676Y1902D03*
X8076Y302D03*
X8176Y302D03*
X8276Y302D03*
X8376Y302D03*
X8476Y302D03*
X8576Y302D03*
X8676Y302D03*
X8776Y302D03*
X8776Y1902D03*
X8876Y1902D03*
X8976Y1902D03*
X9076Y1902D03*
X9176Y1902D03*
X9276Y1902D03*
X9376Y1902D03*
X9476Y1902D03*
X5476Y152D03*
X5576Y152D03*
X5676Y152D03*
X5776Y152D03*
X1326Y1902D03*
X1426Y1902D03*
X1526Y1902D03*
X1626Y1902D03*
X1726Y1902D03*
X1826Y1902D03*
X1926Y1902D03*
X2026Y1902D03*
X5576Y1902D03*
X5676Y1902D03*
X5776Y1902D03*
X5876Y1902D03*
X5976Y1902D03*
X6076Y1902D03*
X6176Y1902D03*
X6276Y1902D03*
X10486Y221D03*
X10586Y221D03*
X10686Y221D03*
X10786Y221D03*
X10886Y221D03*
X10986Y221D03*
X11086Y221D03*
X11186Y221D03*
X8786Y2021D03*
X8886Y2021D03*
X8986Y2021D03*
X9086Y2021D03*
X9186Y2021D03*
X9286Y2021D03*
X9386Y2021D03*
X9486Y2021D03*
X3336Y2021D03*
X3436Y2021D03*
X3536Y2021D03*
X3636Y2021D03*
X3736Y2021D03*
X3836Y2021D03*
X3936Y2021D03*
X4036Y2021D03*
X3336Y1921D03*
X3436Y1921D03*
X3536Y1921D03*
X3636Y1921D03*
X3736Y1921D03*
X3836Y1921D03*
X3936Y1921D03*
X4036Y1921D03*
X12176Y802D03*
X12176Y902D03*
X12176Y1002D03*
X12176Y1102D03*
X12176Y1202D03*
X12176Y1302D03*
X12176Y1402D03*
X12176Y1502D03*
X926Y802D03*
X926Y902D03*
X926Y1002D03*
X926Y1102D03*
X926Y1202D03*
X926Y1302D03*
X926Y1402D03*
X926Y1502D03*
G54D11*
X3726Y1102D03*
X3726Y1702D03*
X10576Y602D03*
X10576Y1402D03*
X10676Y602D03*
X10676Y1302D03*
X10776Y602D03*
X10776Y1202D03*
X10876Y602D03*
X10876Y1102D03*
X10476Y602D03*
X10476Y1502D03*
X8876Y1402D03*
X8876Y1702D03*
X9276Y1002D03*
X9276Y1702D03*
X9076Y1202D03*
X9076Y1702D03*
X9176Y1102D03*
X9176Y1702D03*
X11376Y1702D03*
X11376Y1102D03*
X10976Y602D03*
X10976Y1002D03*
X11476Y1702D03*
X11476Y1002D03*
X11676Y1702D03*
X11676Y802D03*
X11576Y1702D03*
X11576Y902D03*
X9376Y902D03*
X9376Y1702D03*
X11276Y1702D03*
X11276Y1202D03*
X11076Y602D03*
X11076Y902D03*
X11176Y1702D03*
X11176Y1302D03*
X11076Y1402D03*
X11076Y1702D03*
X8976Y1302D03*
X8976Y1702D03*
X5676Y602D03*
X5676Y1402D03*
X6276Y802D03*
X6276Y1702D03*
X5576Y602D03*
X5576Y1302D03*
X5476Y602D03*
X5476Y1202D03*
X6076Y1002D03*
X6076Y1702D03*
X3826Y1002D03*
X3826Y1702D03*
X6172Y910D03*
X6176Y1702D03*
X3922Y910D03*
X3926Y1702D03*
X5976Y1102D03*
X5976Y1702D03*
X4026Y802D03*
X4026Y1702D03*
X9476Y802D03*
X9476Y1702D03*
X8376Y602D03*
X8376Y1102D03*
X8276Y602D03*
X8276Y1002D03*
X8076Y602D03*
X8076Y802D03*
X8176Y602D03*
X8176Y902D03*
X5776Y602D03*
X5776Y1502D03*
X8676Y602D03*
X8676Y1402D03*
X8776Y602D03*
X8776Y1502D03*
X8576Y602D03*
X8576Y1302D03*
X8476Y602D03*
X8476Y1202D03*
X3626Y1202D03*
X3626Y1702D03*
X5876Y1202D03*
X5876Y1702D03*
X3526Y1302D03*
X3526Y1702D03*
X5776Y1302D03*
X5776Y1702D03*
X3426Y1402D03*
X3426Y1702D03*
X5676Y1402D03*
X5676Y1702D03*
X1326Y1202D03*
X1326Y1702D03*
X1726Y1202D03*
X1726Y1702D03*
X1426Y1302D03*
X1426Y1702D03*
X1826Y1302D03*
X1826Y1702D03*
X1526Y1402D03*
X1526Y1702D03*
X1926Y1402D03*
X1926Y1702D03*
X4226Y598D03*
X4226Y902D03*
X3626Y602D03*
X3626Y1502D03*
X3726Y602D03*
X3726Y1402D03*
X3826Y602D03*
X3826Y1302D03*
X4026Y602D03*
X4026Y1102D03*
X4126Y602D03*
X4126Y1002D03*
X3926Y602D03*
X3926Y1202D03*
G54D12*
X226Y852D03*
X128Y852D03*
X226Y1652D03*
X128Y1652D03*
X226Y652D03*
X128Y652D03*
X226Y452D03*
X128Y452D03*
X226Y1052D03*
X128Y1052D03*
X226Y1452D03*
X128Y1452D03*
X226Y1252D03*
X128Y1252D03*
X226Y1852D03*
X128Y1852D03*
G54D10*
X126Y252D03*
X126Y152D03*
G54D13*
X226Y852D03*
X226Y1652D03*
X226Y652D03*
X226Y452D03*
X226Y1052D03*
X226Y1452D03*
X226Y1252D03*
X226Y1852D03*
G54D14*
X354Y452D03*
X476Y452D03*
X354Y852D03*
X476Y852D03*
X354Y1252D03*
X476Y1252D03*
X354Y1652D03*
X476Y1652D03*
X354Y1852D03*
X476Y1852D03*
X354Y652D03*
X476Y652D03*
X354Y1452D03*
X476Y1452D03*
X354Y1052D03*
X476Y1052D03*
G54D15*
X3336Y1951D02*
X3336Y1991D01*
D02*
X3436Y1951D02*
X3436Y1991D01*
D02*
X3536Y1951D02*
X3536Y1991D01*
D02*
X3636Y1951D02*
X3636Y1991D01*
D02*
X3736Y1951D02*
X3736Y1991D01*
D02*
X3836Y1951D02*
X3836Y1991D01*
D02*
X3936Y1951D02*
X3936Y1991D01*
D02*
X4036Y1951D02*
X4036Y1991D01*
D02*
X8779Y1932D02*
X8783Y1991D01*
D02*
X8879Y1932D02*
X8883Y1991D01*
D02*
X8979Y1932D02*
X8983Y1991D01*
D02*
X9079Y1932D02*
X9083Y1991D01*
D02*
X9179Y1932D02*
X9183Y1991D01*
D02*
X9279Y1932D02*
X9283Y1991D01*
D02*
X9379Y1932D02*
X9383Y1991D01*
D02*
X9479Y1932D02*
X9483Y1991D01*
D02*
X10478Y322D02*
X10483Y251D01*
D02*
X10578Y322D02*
X10583Y251D01*
D02*
X10778Y322D02*
X10783Y251D01*
D02*
X10878Y322D02*
X10883Y251D01*
D02*
X10978Y322D02*
X10983Y251D01*
D02*
X11078Y322D02*
X11083Y251D01*
D02*
X11178Y322D02*
X11183Y251D01*
D02*
X3434Y1891D02*
X3427Y1731D01*
D02*
X1298Y1202D02*
X956Y1202D01*
D02*
X1326Y1872D02*
X1326Y1731D01*
D02*
X1398Y1302D02*
X956Y1302D01*
D02*
X1426Y1872D02*
X1426Y1731D01*
D02*
X956Y1402D02*
X1498Y1402D01*
D02*
X1526Y1872D02*
X1526Y1731D01*
D02*
X1926Y1872D02*
X1926Y1731D01*
D02*
X1826Y1872D02*
X1826Y1731D01*
D02*
X1726Y1872D02*
X1726Y1731D01*
D02*
X1355Y1202D02*
X1698Y1202D01*
D02*
X1555Y1402D02*
X1898Y1402D01*
D02*
X3534Y1891D02*
X3527Y1731D01*
D02*
X3634Y1891D02*
X3627Y1731D01*
D02*
X3734Y1891D02*
X3727Y1731D01*
D02*
X3834Y1891D02*
X3827Y1731D01*
D02*
X4034Y1891D02*
X4027Y1731D01*
D02*
X3934Y1891D02*
X3927Y1731D01*
D02*
X1955Y1402D02*
X3398Y1402D01*
D02*
X1855Y1302D02*
X3498Y1302D01*
D02*
X1755Y1202D02*
X3598Y1202D01*
D02*
X956Y802D02*
X3998Y802D01*
D02*
X5676Y1872D02*
X5676Y1731D01*
D02*
X5776Y1872D02*
X5776Y1731D01*
D02*
X5876Y1872D02*
X5876Y1731D01*
D02*
X5976Y1872D02*
X5976Y1731D01*
D02*
X6076Y1872D02*
X6076Y1731D01*
D02*
X6176Y1872D02*
X6176Y1731D01*
D02*
X6276Y1872D02*
X6276Y1731D01*
D02*
X4098Y1002D02*
X3855Y1002D01*
D02*
X3655Y1202D02*
X3898Y1202D01*
D02*
X3555Y1302D02*
X3798Y1302D01*
D02*
X3455Y1402D02*
X3698Y1402D01*
D02*
X3626Y182D02*
X3626Y573D01*
D02*
X3726Y182D02*
X3726Y573D01*
D02*
X3826Y182D02*
X3826Y573D01*
D02*
X3926Y182D02*
X3926Y573D01*
D02*
X4026Y182D02*
X4026Y573D01*
D02*
X4126Y573D02*
X4126Y182D01*
D02*
X4226Y182D02*
X4226Y569D01*
D02*
X5448Y1202D02*
X3955Y1202D01*
D02*
X5576Y182D02*
X5576Y573D01*
D02*
X5676Y182D02*
X5676Y573D01*
D02*
X5605Y1302D02*
X5748Y1302D01*
D02*
X5505Y1202D02*
X5848Y1202D01*
D02*
X5776Y182D02*
X5776Y573D01*
D02*
X5578Y1505D02*
X5748Y1502D01*
D02*
X5548Y1302D02*
X3855Y1302D01*
D02*
X3755Y1402D02*
X5648Y1402D01*
D02*
X4155Y1002D02*
X6048Y1002D01*
D02*
X4255Y902D02*
X6143Y909D01*
D02*
X4329Y803D02*
X6248Y802D01*
D02*
X5476Y182D02*
X5476Y573D01*
D02*
X5805Y1502D02*
X8748Y1502D01*
D02*
X8776Y332D02*
X8776Y573D01*
D02*
X8676Y332D02*
X8676Y573D01*
D02*
X5705Y1402D02*
X8648Y1402D01*
D02*
X8576Y332D02*
X8576Y573D01*
D02*
X8476Y332D02*
X8476Y573D01*
D02*
X5905Y1202D02*
X8448Y1202D01*
D02*
X5805Y1302D02*
X8548Y1302D01*
D02*
X8376Y332D02*
X8376Y573D01*
D02*
X6005Y1102D02*
X8348Y1102D01*
D02*
X6105Y1002D02*
X8248Y1002D01*
D02*
X8276Y332D02*
X8276Y573D01*
D02*
X6200Y909D02*
X8148Y902D01*
D02*
X8176Y332D02*
X8176Y573D01*
D02*
X8076Y332D02*
X8076Y573D01*
D02*
X6305Y802D02*
X8048Y802D01*
D02*
X8105Y802D02*
X9448Y802D01*
D02*
X9376Y1872D02*
X9376Y1731D01*
D02*
X8205Y902D02*
X9348Y902D01*
D02*
X8305Y1002D02*
X9248Y1002D01*
D02*
X9276Y1872D02*
X9276Y1731D01*
D02*
X9476Y1872D02*
X9476Y1731D01*
D02*
X9176Y1872D02*
X9176Y1731D01*
D02*
X8405Y1102D02*
X9148Y1102D01*
D02*
X8505Y1202D02*
X9048Y1202D01*
D02*
X9076Y1872D02*
X9076Y1731D01*
D02*
X8605Y1302D02*
X8948Y1302D01*
D02*
X8976Y1872D02*
X8976Y1731D01*
D02*
X8705Y1402D02*
X8848Y1402D01*
D02*
X8876Y1872D02*
X8876Y1731D01*
D02*
X8905Y1402D02*
X10548Y1402D01*
D02*
X10576Y382D02*
X10576Y573D01*
D02*
X9005Y1302D02*
X10648Y1302D01*
D02*
X10676Y382D02*
X10676Y573D01*
D02*
X9105Y1202D02*
X10748Y1202D01*
D02*
X10776Y382D02*
X10776Y573D01*
D02*
X9205Y1102D02*
X10848Y1102D01*
D02*
X10876Y382D02*
X10876Y573D01*
D02*
X9305Y1002D02*
X10948Y1002D01*
D02*
X10976Y382D02*
X10976Y573D01*
D02*
X9405Y902D02*
X11048Y902D01*
D02*
X11076Y382D02*
X11076Y573D01*
D02*
X10605Y1402D02*
X11048Y1402D01*
D02*
X10705Y1302D02*
X11148Y1302D01*
D02*
X10805Y1202D02*
X11248Y1202D01*
D02*
X10905Y1102D02*
X11348Y1102D01*
D02*
X11005Y1002D02*
X11448Y1002D01*
D02*
X11105Y902D02*
X11548Y902D01*
D02*
X11178Y803D02*
X11648Y802D01*
D02*
X11676Y1872D02*
X11676Y1731D01*
D02*
X11576Y1872D02*
X11576Y1731D01*
D02*
X11476Y1872D02*
X11476Y1731D01*
D02*
X11376Y1872D02*
X11376Y1731D01*
D02*
X11276Y1872D02*
X11276Y1731D01*
D02*
X11176Y1872D02*
X11176Y1731D01*
D02*
X11076Y1872D02*
X11076Y1731D01*
D02*
X10975Y1500D02*
X12146Y1502D01*
D02*
X11105Y1402D02*
X12146Y1402D01*
D02*
X11205Y1302D02*
X12146Y1302D01*
D02*
X11305Y1202D02*
X12146Y1202D01*
D02*
X11405Y1102D02*
X12146Y1102D01*
D02*
X11505Y1002D02*
X12146Y1002D01*
D02*
X11605Y902D02*
X12146Y902D01*
D02*
X11705Y802D02*
X12146Y802D01*
D02*
X1455Y1302D02*
X1798Y1302D01*
D02*
X253Y452D02*
X328Y452D01*
D02*
X328Y652D02*
X253Y652D01*
D02*
X328Y852D02*
X253Y852D01*
D02*
X328Y1052D02*
X253Y1052D01*
D02*
X328Y1252D02*
X253Y1252D01*
D02*
X328Y1452D02*
X253Y1452D01*
D02*
X328Y1652D02*
X253Y1652D01*
D02*
X328Y1852D02*
X253Y1852D01*
D02*
X128Y479D02*
X128Y625D01*
D02*
X128Y679D02*
X128Y825D01*
D02*
X128Y879D02*
X128Y1025D01*
D02*
X128Y1079D02*
X128Y1225D01*
D02*
X128Y1279D02*
X128Y1425D01*
D02*
X128Y1479D02*
X128Y1625D01*
D02*
X128Y1679D02*
X128Y1825D01*
D02*
X502Y1249D02*
X896Y1205D01*
D02*
X502Y1055D02*
X896Y1099D01*
D02*
X502Y1443D02*
X898Y1312D01*
D02*
X502Y1638D02*
X900Y1417D01*
D02*
X502Y1832D02*
X903Y1521D01*
D02*
X502Y861D02*
X898Y993D01*
D02*
X502Y666D02*
X900Y887D01*
D02*
X502Y472D02*
X903Y784D01*
D02*
X128Y425D02*
X127Y282D01*
D02*
X126Y222D02*
X126Y182D01*
D02*
X8776Y1531D02*
X8776Y1872D01*
D02*
X3755Y1102D02*
X3998Y1102D01*
D02*
X10678Y322D02*
X10683Y251D01*
G54D16*
X3333Y1934D02*
X3337Y1934D01*
X3330Y1933D02*
X3340Y1933D01*
X3328Y1932D02*
X3341Y1932D01*
X3327Y1931D02*
X3343Y1931D01*
X3326Y1930D02*
X3344Y1930D01*
X3325Y1929D02*
X3344Y1929D01*
X3325Y1928D02*
X3345Y1928D01*
X3324Y1927D02*
X3345Y1927D01*
X3324Y1926D02*
X3346Y1926D01*
X3324Y1925D02*
X3346Y1925D01*
X3324Y1924D02*
X3346Y1924D01*
X3323Y1923D02*
X3346Y1923D01*
X3323Y1922D02*
X3346Y1922D01*
X3323Y1921D02*
X3346Y1921D01*
X3323Y1920D02*
X3346Y1920D01*
X3323Y1919D02*
X3346Y1919D01*
X3323Y1918D02*
X3346Y1918D01*
X3323Y1917D02*
X3346Y1917D01*
X3323Y1916D02*
X3346Y1916D01*
X1625Y1915D02*
X1626Y1915D01*
X2025Y1915D02*
X2026Y1915D01*
X3323Y1915D02*
X3346Y1915D01*
X5575Y1915D02*
X5576Y1915D01*
X10975Y1915D02*
X10976Y1915D01*
X1621Y1914D02*
X1630Y1914D01*
X2021Y1914D02*
X2030Y1914D01*
X3323Y1914D02*
X3346Y1914D01*
X5571Y1914D02*
X5580Y1914D01*
X10971Y1914D02*
X10980Y1914D01*
X1619Y1913D02*
X1632Y1913D01*
X2019Y1913D02*
X2032Y1913D01*
X3323Y1913D02*
X3346Y1913D01*
X5569Y1913D02*
X5582Y1913D01*
X10969Y1913D02*
X10981Y1913D01*
X1618Y1912D02*
X1633Y1912D01*
X2018Y1912D02*
X2033Y1912D01*
X3323Y1912D02*
X3346Y1912D01*
X5568Y1912D02*
X5583Y1912D01*
X10968Y1912D02*
X10983Y1912D01*
X1617Y1911D02*
X1634Y1911D01*
X2017Y1911D02*
X2034Y1911D01*
X3323Y1911D02*
X3346Y1911D01*
X5567Y1911D02*
X5584Y1911D01*
X10967Y1911D02*
X10984Y1911D01*
X1616Y1910D02*
X1635Y1910D01*
X2016Y1910D02*
X2035Y1910D01*
X3323Y1910D02*
X3346Y1910D01*
X5566Y1910D02*
X5585Y1910D01*
X10966Y1910D02*
X10985Y1910D01*
X1616Y1909D02*
X1636Y1909D01*
X2016Y1909D02*
X2036Y1909D01*
X3323Y1909D02*
X3346Y1909D01*
X5566Y1909D02*
X5585Y1909D01*
X10965Y1909D02*
X10985Y1909D01*
X1615Y1908D02*
X1636Y1908D01*
X2015Y1908D02*
X2036Y1908D01*
X3323Y1908D02*
X3346Y1908D01*
X5565Y1908D02*
X5586Y1908D01*
X10965Y1908D02*
X10986Y1908D01*
X1615Y1907D02*
X1636Y1907D01*
X2015Y1907D02*
X2036Y1907D01*
X3323Y1907D02*
X3346Y1907D01*
X5565Y1907D02*
X5586Y1907D01*
X10964Y1907D02*
X10986Y1907D01*
X1615Y1906D02*
X1637Y1906D01*
X2015Y1906D02*
X2037Y1906D01*
X3323Y1906D02*
X3346Y1906D01*
X5564Y1906D02*
X5587Y1906D01*
X10964Y1906D02*
X10986Y1906D01*
X1614Y1905D02*
X1637Y1905D01*
X2014Y1905D02*
X2037Y1905D01*
X3323Y1905D02*
X3346Y1905D01*
X5564Y1905D02*
X5587Y1905D01*
X10964Y1905D02*
X10987Y1905D01*
X1614Y1904D02*
X1637Y1904D01*
X2014Y1904D02*
X2037Y1904D01*
X3323Y1904D02*
X3346Y1904D01*
X5564Y1904D02*
X5587Y1904D01*
X10964Y1904D02*
X10987Y1904D01*
X1614Y1903D02*
X1637Y1903D01*
X2014Y1903D02*
X2037Y1903D01*
X3323Y1903D02*
X3346Y1903D01*
X5564Y1903D02*
X5587Y1903D01*
X10964Y1903D02*
X10987Y1903D01*
X1614Y1902D02*
X1637Y1902D01*
X2014Y1902D02*
X2037Y1902D01*
X3323Y1902D02*
X3346Y1902D01*
X5564Y1902D02*
X5587Y1902D01*
X10964Y1902D02*
X10987Y1902D01*
X1614Y1901D02*
X1637Y1901D01*
X2014Y1901D02*
X2037Y1901D01*
X3323Y1901D02*
X3346Y1901D01*
X5564Y1901D02*
X5587Y1901D01*
X10964Y1901D02*
X10987Y1901D01*
X1614Y1900D02*
X1637Y1900D01*
X2014Y1900D02*
X2037Y1900D01*
X3323Y1900D02*
X3346Y1900D01*
X5564Y1900D02*
X5587Y1900D01*
X10964Y1900D02*
X10987Y1900D01*
X1614Y1899D02*
X1637Y1899D01*
X2014Y1899D02*
X2037Y1899D01*
X3323Y1899D02*
X3346Y1899D01*
X5564Y1899D02*
X5587Y1899D01*
X10964Y1899D02*
X10987Y1899D01*
X1614Y1898D02*
X1637Y1898D01*
X2014Y1898D02*
X2037Y1898D01*
X3323Y1898D02*
X3346Y1898D01*
X5564Y1898D02*
X5587Y1898D01*
X10964Y1898D02*
X10987Y1898D01*
X1614Y1897D02*
X1637Y1897D01*
X2014Y1897D02*
X2037Y1897D01*
X3323Y1897D02*
X3346Y1897D01*
X5564Y1897D02*
X5587Y1897D01*
X10964Y1897D02*
X10987Y1897D01*
X1614Y1896D02*
X1637Y1896D01*
X2014Y1896D02*
X2037Y1896D01*
X3323Y1896D02*
X3346Y1896D01*
X5564Y1896D02*
X5587Y1896D01*
X10964Y1896D02*
X10987Y1896D01*
X1614Y1895D02*
X1637Y1895D01*
X2014Y1895D02*
X2037Y1895D01*
X3323Y1895D02*
X3346Y1895D01*
X5564Y1895D02*
X5587Y1895D01*
X10964Y1895D02*
X10987Y1895D01*
X1614Y1894D02*
X1637Y1894D01*
X2014Y1894D02*
X2037Y1894D01*
X3323Y1894D02*
X3346Y1894D01*
X5564Y1894D02*
X5587Y1894D01*
X10964Y1894D02*
X10987Y1894D01*
X1614Y1893D02*
X1637Y1893D01*
X2014Y1893D02*
X2037Y1893D01*
X3323Y1893D02*
X3346Y1893D01*
X5564Y1893D02*
X5587Y1893D01*
X10964Y1893D02*
X10987Y1893D01*
X1614Y1892D02*
X1637Y1892D01*
X2014Y1892D02*
X2037Y1892D01*
X3323Y1892D02*
X3346Y1892D01*
X5564Y1892D02*
X5587Y1892D01*
X10964Y1892D02*
X10987Y1892D01*
X1614Y1891D02*
X1637Y1891D01*
X2014Y1891D02*
X2037Y1891D01*
X3323Y1891D02*
X3346Y1891D01*
X5564Y1891D02*
X5587Y1891D01*
X10964Y1891D02*
X10987Y1891D01*
X1614Y1890D02*
X1637Y1890D01*
X2014Y1890D02*
X2037Y1890D01*
X3323Y1890D02*
X3346Y1890D01*
X5564Y1890D02*
X5587Y1890D01*
X10964Y1890D02*
X10987Y1890D01*
X1614Y1889D02*
X1637Y1889D01*
X2014Y1889D02*
X2037Y1889D01*
X3323Y1889D02*
X3346Y1889D01*
X5564Y1889D02*
X5587Y1889D01*
X10964Y1889D02*
X10987Y1889D01*
X1614Y1888D02*
X1637Y1888D01*
X2014Y1888D02*
X2037Y1888D01*
X3323Y1888D02*
X3346Y1888D01*
X5564Y1888D02*
X5587Y1888D01*
X10964Y1888D02*
X10987Y1888D01*
X1614Y1887D02*
X1637Y1887D01*
X2014Y1887D02*
X2037Y1887D01*
X3323Y1887D02*
X3346Y1887D01*
X5564Y1887D02*
X5587Y1887D01*
X10964Y1887D02*
X10987Y1887D01*
X1614Y1886D02*
X1637Y1886D01*
X2014Y1886D02*
X2037Y1886D01*
X3323Y1886D02*
X3346Y1886D01*
X5564Y1886D02*
X5587Y1886D01*
X10964Y1886D02*
X10987Y1886D01*
X1614Y1885D02*
X1637Y1885D01*
X2014Y1885D02*
X2037Y1885D01*
X3323Y1885D02*
X3346Y1885D01*
X5564Y1885D02*
X5587Y1885D01*
X10964Y1885D02*
X10987Y1885D01*
X1614Y1884D02*
X1637Y1884D01*
X2014Y1884D02*
X2037Y1884D01*
X3323Y1884D02*
X3346Y1884D01*
X5564Y1884D02*
X5587Y1884D01*
X10964Y1884D02*
X10987Y1884D01*
X1614Y1883D02*
X1637Y1883D01*
X2014Y1883D02*
X2037Y1883D01*
X3323Y1883D02*
X3346Y1883D01*
X5564Y1883D02*
X5587Y1883D01*
X10964Y1883D02*
X10987Y1883D01*
X1614Y1882D02*
X1637Y1882D01*
X2014Y1882D02*
X2037Y1882D01*
X3323Y1882D02*
X3346Y1882D01*
X5564Y1882D02*
X5587Y1882D01*
X10964Y1882D02*
X10987Y1882D01*
X1614Y1881D02*
X1637Y1881D01*
X2014Y1881D02*
X2037Y1881D01*
X3323Y1881D02*
X3346Y1881D01*
X5564Y1881D02*
X5587Y1881D01*
X10964Y1881D02*
X10987Y1881D01*
X1614Y1880D02*
X1637Y1880D01*
X2014Y1880D02*
X2037Y1880D01*
X3323Y1880D02*
X3346Y1880D01*
X5564Y1880D02*
X5587Y1880D01*
X10964Y1880D02*
X10987Y1880D01*
X1614Y1879D02*
X1637Y1879D01*
X2014Y1879D02*
X2037Y1879D01*
X3323Y1879D02*
X3346Y1879D01*
X5564Y1879D02*
X5587Y1879D01*
X10964Y1879D02*
X10987Y1879D01*
X1614Y1878D02*
X1637Y1878D01*
X2014Y1878D02*
X2037Y1878D01*
X3323Y1878D02*
X3346Y1878D01*
X5564Y1878D02*
X5587Y1878D01*
X10964Y1878D02*
X10987Y1878D01*
X1614Y1877D02*
X1637Y1877D01*
X2014Y1877D02*
X2037Y1877D01*
X3323Y1877D02*
X3346Y1877D01*
X5564Y1877D02*
X5587Y1877D01*
X10964Y1877D02*
X10987Y1877D01*
X1614Y1876D02*
X1637Y1876D01*
X2014Y1876D02*
X2037Y1876D01*
X3322Y1876D02*
X3346Y1876D01*
X5564Y1876D02*
X5587Y1876D01*
X10964Y1876D02*
X10987Y1876D01*
X1614Y1875D02*
X1637Y1875D01*
X2014Y1875D02*
X2037Y1875D01*
X3322Y1875D02*
X3345Y1875D01*
X5564Y1875D02*
X5587Y1875D01*
X10964Y1875D02*
X10987Y1875D01*
X1614Y1874D02*
X1637Y1874D01*
X2014Y1874D02*
X2037Y1874D01*
X3322Y1874D02*
X3345Y1874D01*
X5564Y1874D02*
X5587Y1874D01*
X10964Y1874D02*
X10987Y1874D01*
X1614Y1873D02*
X1637Y1873D01*
X2014Y1873D02*
X2037Y1873D01*
X3322Y1873D02*
X3345Y1873D01*
X5564Y1873D02*
X5587Y1873D01*
X10964Y1873D02*
X10987Y1873D01*
X1614Y1872D02*
X1637Y1872D01*
X2014Y1872D02*
X2037Y1872D01*
X3322Y1872D02*
X3345Y1872D01*
X5564Y1872D02*
X5587Y1872D01*
X10964Y1872D02*
X10987Y1872D01*
X1614Y1871D02*
X1637Y1871D01*
X2014Y1871D02*
X2037Y1871D01*
X3322Y1871D02*
X3345Y1871D01*
X5564Y1871D02*
X5587Y1871D01*
X10964Y1871D02*
X10987Y1871D01*
X1614Y1870D02*
X1637Y1870D01*
X2014Y1870D02*
X2037Y1870D01*
X3322Y1870D02*
X3345Y1870D01*
X5564Y1870D02*
X5587Y1870D01*
X10964Y1870D02*
X10987Y1870D01*
X1614Y1869D02*
X1637Y1869D01*
X2014Y1869D02*
X2037Y1869D01*
X3322Y1869D02*
X3345Y1869D01*
X5564Y1869D02*
X5587Y1869D01*
X10964Y1869D02*
X10987Y1869D01*
X1614Y1868D02*
X1637Y1868D01*
X2014Y1868D02*
X2037Y1868D01*
X3322Y1868D02*
X3345Y1868D01*
X5564Y1868D02*
X5587Y1868D01*
X10964Y1868D02*
X10987Y1868D01*
X1614Y1867D02*
X1637Y1867D01*
X2014Y1867D02*
X2037Y1867D01*
X3322Y1867D02*
X3345Y1867D01*
X5564Y1867D02*
X5587Y1867D01*
X10964Y1867D02*
X10987Y1867D01*
X1614Y1866D02*
X1637Y1866D01*
X2014Y1866D02*
X2037Y1866D01*
X3322Y1866D02*
X3345Y1866D01*
X5564Y1866D02*
X5587Y1866D01*
X10964Y1866D02*
X10987Y1866D01*
X1614Y1865D02*
X1637Y1865D01*
X2014Y1865D02*
X2037Y1865D01*
X3322Y1865D02*
X3345Y1865D01*
X5564Y1865D02*
X5587Y1865D01*
X10964Y1865D02*
X10987Y1865D01*
X1614Y1864D02*
X1637Y1864D01*
X2014Y1864D02*
X2037Y1864D01*
X3322Y1864D02*
X3345Y1864D01*
X5564Y1864D02*
X5587Y1864D01*
X10964Y1864D02*
X10987Y1864D01*
X1614Y1863D02*
X1637Y1863D01*
X2014Y1863D02*
X2037Y1863D01*
X3322Y1863D02*
X3345Y1863D01*
X5564Y1863D02*
X5587Y1863D01*
X10964Y1863D02*
X10987Y1863D01*
X1614Y1862D02*
X1637Y1862D01*
X2014Y1862D02*
X2037Y1862D01*
X3322Y1862D02*
X3345Y1862D01*
X5564Y1862D02*
X5587Y1862D01*
X10964Y1862D02*
X10987Y1862D01*
X1614Y1861D02*
X1637Y1861D01*
X2014Y1861D02*
X2037Y1861D01*
X3322Y1861D02*
X3345Y1861D01*
X5564Y1861D02*
X5587Y1861D01*
X10964Y1861D02*
X10987Y1861D01*
X1614Y1860D02*
X1637Y1860D01*
X2014Y1860D02*
X2037Y1860D01*
X3322Y1860D02*
X3345Y1860D01*
X5564Y1860D02*
X5587Y1860D01*
X10964Y1860D02*
X10987Y1860D01*
X1614Y1859D02*
X1637Y1859D01*
X2014Y1859D02*
X2037Y1859D01*
X3322Y1859D02*
X3345Y1859D01*
X5564Y1859D02*
X5587Y1859D01*
X10964Y1859D02*
X10987Y1859D01*
X1614Y1858D02*
X1637Y1858D01*
X2014Y1858D02*
X2037Y1858D01*
X3322Y1858D02*
X3345Y1858D01*
X5564Y1858D02*
X5587Y1858D01*
X10964Y1858D02*
X10987Y1858D01*
X1614Y1857D02*
X1637Y1857D01*
X2014Y1857D02*
X2037Y1857D01*
X3322Y1857D02*
X3345Y1857D01*
X5564Y1857D02*
X5587Y1857D01*
X10964Y1857D02*
X10987Y1857D01*
X1614Y1856D02*
X1637Y1856D01*
X2014Y1856D02*
X2037Y1856D01*
X3322Y1856D02*
X3345Y1856D01*
X5564Y1856D02*
X5587Y1856D01*
X10964Y1856D02*
X10987Y1856D01*
X1614Y1855D02*
X1637Y1855D01*
X2014Y1855D02*
X2037Y1855D01*
X3322Y1855D02*
X3345Y1855D01*
X5564Y1855D02*
X5587Y1855D01*
X10964Y1855D02*
X10987Y1855D01*
X1614Y1854D02*
X1637Y1854D01*
X2014Y1854D02*
X2037Y1854D01*
X3322Y1854D02*
X3345Y1854D01*
X5564Y1854D02*
X5587Y1854D01*
X10964Y1854D02*
X10987Y1854D01*
X1614Y1853D02*
X1637Y1853D01*
X2014Y1853D02*
X2037Y1853D01*
X3322Y1853D02*
X3345Y1853D01*
X5564Y1853D02*
X5587Y1853D01*
X10964Y1853D02*
X10987Y1853D01*
X1614Y1852D02*
X1637Y1852D01*
X2014Y1852D02*
X2037Y1852D01*
X3322Y1852D02*
X3345Y1852D01*
X5564Y1852D02*
X5587Y1852D01*
X10964Y1852D02*
X10987Y1852D01*
X1614Y1851D02*
X1637Y1851D01*
X2014Y1851D02*
X2037Y1851D01*
X3322Y1851D02*
X3345Y1851D01*
X5564Y1851D02*
X5587Y1851D01*
X10964Y1851D02*
X10987Y1851D01*
X1614Y1850D02*
X1637Y1850D01*
X2014Y1850D02*
X2037Y1850D01*
X3322Y1850D02*
X3345Y1850D01*
X5564Y1850D02*
X5587Y1850D01*
X10964Y1850D02*
X10987Y1850D01*
X1614Y1849D02*
X1637Y1849D01*
X2014Y1849D02*
X2037Y1849D01*
X3322Y1849D02*
X3345Y1849D01*
X5564Y1849D02*
X5587Y1849D01*
X10964Y1849D02*
X10987Y1849D01*
X1614Y1848D02*
X1637Y1848D01*
X2014Y1848D02*
X2037Y1848D01*
X3322Y1848D02*
X3345Y1848D01*
X5564Y1848D02*
X5587Y1848D01*
X10964Y1848D02*
X10987Y1848D01*
X1614Y1847D02*
X1637Y1847D01*
X2014Y1847D02*
X2037Y1847D01*
X3322Y1847D02*
X3345Y1847D01*
X5564Y1847D02*
X5587Y1847D01*
X10964Y1847D02*
X10987Y1847D01*
X1614Y1846D02*
X1637Y1846D01*
X2014Y1846D02*
X2037Y1846D01*
X3322Y1846D02*
X3345Y1846D01*
X5564Y1846D02*
X5587Y1846D01*
X10964Y1846D02*
X10987Y1846D01*
X1614Y1845D02*
X1637Y1845D01*
X2014Y1845D02*
X2037Y1845D01*
X3322Y1845D02*
X3345Y1845D01*
X5564Y1845D02*
X5587Y1845D01*
X10964Y1845D02*
X10987Y1845D01*
X1614Y1844D02*
X1637Y1844D01*
X2014Y1844D02*
X2037Y1844D01*
X3322Y1844D02*
X3345Y1844D01*
X5564Y1844D02*
X5587Y1844D01*
X10963Y1844D02*
X10987Y1844D01*
X1614Y1843D02*
X1637Y1843D01*
X2014Y1843D02*
X2037Y1843D01*
X3322Y1843D02*
X3345Y1843D01*
X5564Y1843D02*
X5587Y1843D01*
X10963Y1843D02*
X10986Y1843D01*
X1614Y1842D02*
X1637Y1842D01*
X2014Y1842D02*
X2037Y1842D01*
X3322Y1842D02*
X3345Y1842D01*
X5564Y1842D02*
X5587Y1842D01*
X10963Y1842D02*
X10986Y1842D01*
X1614Y1841D02*
X1637Y1841D01*
X2014Y1841D02*
X2037Y1841D01*
X3322Y1841D02*
X3345Y1841D01*
X5564Y1841D02*
X5587Y1841D01*
X10963Y1841D02*
X10986Y1841D01*
X1614Y1840D02*
X1637Y1840D01*
X2014Y1840D02*
X2037Y1840D01*
X3322Y1840D02*
X3345Y1840D01*
X5564Y1840D02*
X5587Y1840D01*
X10963Y1840D02*
X10986Y1840D01*
X1614Y1839D02*
X1637Y1839D01*
X2014Y1839D02*
X2037Y1839D01*
X3322Y1839D02*
X3345Y1839D01*
X5564Y1839D02*
X5587Y1839D01*
X10963Y1839D02*
X10986Y1839D01*
X1614Y1838D02*
X1637Y1838D01*
X2014Y1838D02*
X2037Y1838D01*
X3322Y1838D02*
X3345Y1838D01*
X5564Y1838D02*
X5587Y1838D01*
X10963Y1838D02*
X10986Y1838D01*
X1614Y1837D02*
X1637Y1837D01*
X2014Y1837D02*
X2037Y1837D01*
X3322Y1837D02*
X3345Y1837D01*
X5564Y1837D02*
X5587Y1837D01*
X10963Y1837D02*
X10986Y1837D01*
X1614Y1836D02*
X1637Y1836D01*
X2014Y1836D02*
X2037Y1836D01*
X3322Y1836D02*
X3345Y1836D01*
X5564Y1836D02*
X5587Y1836D01*
X10963Y1836D02*
X10986Y1836D01*
X1614Y1835D02*
X1637Y1835D01*
X2014Y1835D02*
X2037Y1835D01*
X3322Y1835D02*
X3345Y1835D01*
X5564Y1835D02*
X5587Y1835D01*
X10963Y1835D02*
X10986Y1835D01*
X1614Y1834D02*
X1637Y1834D01*
X2014Y1834D02*
X2037Y1834D01*
X3322Y1834D02*
X3345Y1834D01*
X5564Y1834D02*
X5587Y1834D01*
X10963Y1834D02*
X10986Y1834D01*
X1614Y1833D02*
X1637Y1833D01*
X2014Y1833D02*
X2037Y1833D01*
X3322Y1833D02*
X3345Y1833D01*
X5564Y1833D02*
X5587Y1833D01*
X10963Y1833D02*
X10986Y1833D01*
X1614Y1832D02*
X1637Y1832D01*
X2014Y1832D02*
X2038Y1832D01*
X3322Y1832D02*
X3345Y1832D01*
X5564Y1832D02*
X5587Y1832D01*
X10963Y1832D02*
X10986Y1832D01*
X1614Y1831D02*
X1637Y1831D01*
X2014Y1831D02*
X2038Y1831D01*
X3322Y1831D02*
X3345Y1831D01*
X5564Y1831D02*
X5587Y1831D01*
X10963Y1831D02*
X10986Y1831D01*
X1614Y1830D02*
X1637Y1830D01*
X2015Y1830D02*
X2038Y1830D01*
X3322Y1830D02*
X3345Y1830D01*
X5564Y1830D02*
X5587Y1830D01*
X10963Y1830D02*
X10986Y1830D01*
X1614Y1829D02*
X1637Y1829D01*
X2015Y1829D02*
X2038Y1829D01*
X3322Y1829D02*
X3345Y1829D01*
X5564Y1829D02*
X5587Y1829D01*
X10963Y1829D02*
X10986Y1829D01*
X1614Y1828D02*
X1637Y1828D01*
X2015Y1828D02*
X2038Y1828D01*
X3322Y1828D02*
X3345Y1828D01*
X5564Y1828D02*
X5587Y1828D01*
X10963Y1828D02*
X10986Y1828D01*
X1614Y1827D02*
X1637Y1827D01*
X2015Y1827D02*
X2038Y1827D01*
X3322Y1827D02*
X3345Y1827D01*
X5564Y1827D02*
X5587Y1827D01*
X10963Y1827D02*
X10986Y1827D01*
X1614Y1826D02*
X1637Y1826D01*
X2015Y1826D02*
X2038Y1826D01*
X3322Y1826D02*
X3345Y1826D01*
X5564Y1826D02*
X5587Y1826D01*
X10963Y1826D02*
X10986Y1826D01*
X1614Y1825D02*
X1637Y1825D01*
X2015Y1825D02*
X2038Y1825D01*
X3322Y1825D02*
X3345Y1825D01*
X5564Y1825D02*
X5587Y1825D01*
X10963Y1825D02*
X10986Y1825D01*
X1614Y1824D02*
X1637Y1824D01*
X2015Y1824D02*
X2038Y1824D01*
X3321Y1824D02*
X3345Y1824D01*
X5564Y1824D02*
X5587Y1824D01*
X10963Y1824D02*
X10986Y1824D01*
X1614Y1823D02*
X1637Y1823D01*
X2015Y1823D02*
X2038Y1823D01*
X3321Y1823D02*
X3344Y1823D01*
X5564Y1823D02*
X5587Y1823D01*
X10963Y1823D02*
X10986Y1823D01*
X1614Y1822D02*
X1637Y1822D01*
X2015Y1822D02*
X2038Y1822D01*
X3321Y1822D02*
X3344Y1822D01*
X5564Y1822D02*
X5587Y1822D01*
X10963Y1822D02*
X10986Y1822D01*
X1614Y1821D02*
X1637Y1821D01*
X2015Y1821D02*
X2038Y1821D01*
X3321Y1821D02*
X3344Y1821D01*
X5564Y1821D02*
X5587Y1821D01*
X10963Y1821D02*
X10986Y1821D01*
X1614Y1820D02*
X1637Y1820D01*
X2015Y1820D02*
X2038Y1820D01*
X3321Y1820D02*
X3344Y1820D01*
X5564Y1820D02*
X5587Y1820D01*
X10963Y1820D02*
X10986Y1820D01*
X1614Y1819D02*
X1637Y1819D01*
X2015Y1819D02*
X2038Y1819D01*
X3321Y1819D02*
X3344Y1819D01*
X5564Y1819D02*
X5587Y1819D01*
X10963Y1819D02*
X10986Y1819D01*
X1614Y1818D02*
X1637Y1818D01*
X2015Y1818D02*
X2038Y1818D01*
X3321Y1818D02*
X3344Y1818D01*
X5564Y1818D02*
X5587Y1818D01*
X10963Y1818D02*
X10986Y1818D01*
X1614Y1817D02*
X1637Y1817D01*
X2015Y1817D02*
X2038Y1817D01*
X3321Y1817D02*
X3344Y1817D01*
X5564Y1817D02*
X5587Y1817D01*
X10963Y1817D02*
X10986Y1817D01*
X1614Y1816D02*
X1637Y1816D01*
X2015Y1816D02*
X2038Y1816D01*
X3321Y1816D02*
X3344Y1816D01*
X5564Y1816D02*
X5587Y1816D01*
X10963Y1816D02*
X10986Y1816D01*
X1614Y1815D02*
X1637Y1815D01*
X2015Y1815D02*
X2038Y1815D01*
X3321Y1815D02*
X3344Y1815D01*
X5564Y1815D02*
X5587Y1815D01*
X10963Y1815D02*
X10986Y1815D01*
X1614Y1814D02*
X1637Y1814D01*
X2015Y1814D02*
X2038Y1814D01*
X3321Y1814D02*
X3344Y1814D01*
X5564Y1814D02*
X5587Y1814D01*
X10963Y1814D02*
X10986Y1814D01*
X1614Y1813D02*
X1637Y1813D01*
X2015Y1813D02*
X2038Y1813D01*
X3321Y1813D02*
X3344Y1813D01*
X5564Y1813D02*
X5587Y1813D01*
X10963Y1813D02*
X10986Y1813D01*
X1614Y1812D02*
X1637Y1812D01*
X2015Y1812D02*
X2038Y1812D01*
X3321Y1812D02*
X3344Y1812D01*
X5564Y1812D02*
X5587Y1812D01*
X10963Y1812D02*
X10986Y1812D01*
X1614Y1811D02*
X1637Y1811D01*
X2015Y1811D02*
X2038Y1811D01*
X3321Y1811D02*
X3344Y1811D01*
X5564Y1811D02*
X5587Y1811D01*
X10963Y1811D02*
X10986Y1811D01*
X1614Y1810D02*
X1637Y1810D01*
X2015Y1810D02*
X2038Y1810D01*
X3321Y1810D02*
X3344Y1810D01*
X5564Y1810D02*
X5587Y1810D01*
X10963Y1810D02*
X10986Y1810D01*
X1614Y1809D02*
X1637Y1809D01*
X2015Y1809D02*
X2038Y1809D01*
X3321Y1809D02*
X3344Y1809D01*
X5564Y1809D02*
X5587Y1809D01*
X10963Y1809D02*
X10986Y1809D01*
X1614Y1808D02*
X1637Y1808D01*
X2015Y1808D02*
X2038Y1808D01*
X3321Y1808D02*
X3344Y1808D01*
X5564Y1808D02*
X5587Y1808D01*
X10963Y1808D02*
X10986Y1808D01*
X1614Y1807D02*
X1637Y1807D01*
X2015Y1807D02*
X2038Y1807D01*
X3321Y1807D02*
X3344Y1807D01*
X5564Y1807D02*
X5587Y1807D01*
X10963Y1807D02*
X10986Y1807D01*
X1614Y1806D02*
X1637Y1806D01*
X2015Y1806D02*
X2038Y1806D01*
X3321Y1806D02*
X3344Y1806D01*
X5564Y1806D02*
X5587Y1806D01*
X10963Y1806D02*
X10986Y1806D01*
X1614Y1805D02*
X1637Y1805D01*
X2015Y1805D02*
X2038Y1805D01*
X3321Y1805D02*
X3344Y1805D01*
X5564Y1805D02*
X5587Y1805D01*
X10963Y1805D02*
X10986Y1805D01*
X1614Y1804D02*
X1637Y1804D01*
X2015Y1804D02*
X2038Y1804D01*
X3321Y1804D02*
X3344Y1804D01*
X5564Y1804D02*
X5587Y1804D01*
X10963Y1804D02*
X10986Y1804D01*
X1614Y1803D02*
X1637Y1803D01*
X2015Y1803D02*
X2038Y1803D01*
X3321Y1803D02*
X3344Y1803D01*
X5564Y1803D02*
X5587Y1803D01*
X10963Y1803D02*
X10986Y1803D01*
X1614Y1802D02*
X1637Y1802D01*
X2015Y1802D02*
X2038Y1802D01*
X3321Y1802D02*
X3344Y1802D01*
X5564Y1802D02*
X5587Y1802D01*
X10963Y1802D02*
X10986Y1802D01*
X1614Y1801D02*
X1637Y1801D01*
X2015Y1801D02*
X2038Y1801D01*
X3321Y1801D02*
X3344Y1801D01*
X5564Y1801D02*
X5588Y1801D01*
X10963Y1801D02*
X10986Y1801D01*
X1614Y1800D02*
X1637Y1800D01*
X2015Y1800D02*
X2038Y1800D01*
X3321Y1800D02*
X3344Y1800D01*
X5565Y1800D02*
X5588Y1800D01*
X10963Y1800D02*
X10986Y1800D01*
X1614Y1799D02*
X1637Y1799D01*
X2015Y1799D02*
X2038Y1799D01*
X3321Y1799D02*
X3344Y1799D01*
X5565Y1799D02*
X5588Y1799D01*
X10963Y1799D02*
X10986Y1799D01*
X1614Y1798D02*
X1637Y1798D01*
X2015Y1798D02*
X2038Y1798D01*
X3321Y1798D02*
X3344Y1798D01*
X5565Y1798D02*
X5588Y1798D01*
X10963Y1798D02*
X10986Y1798D01*
X1614Y1797D02*
X1637Y1797D01*
X2015Y1797D02*
X2038Y1797D01*
X3321Y1797D02*
X3344Y1797D01*
X5565Y1797D02*
X5588Y1797D01*
X10963Y1797D02*
X10986Y1797D01*
X1614Y1796D02*
X1637Y1796D01*
X2015Y1796D02*
X2038Y1796D01*
X3321Y1796D02*
X3344Y1796D01*
X5565Y1796D02*
X5588Y1796D01*
X10963Y1796D02*
X10986Y1796D01*
X1614Y1795D02*
X1637Y1795D01*
X2015Y1795D02*
X2038Y1795D01*
X3321Y1795D02*
X3344Y1795D01*
X5565Y1795D02*
X5588Y1795D01*
X10963Y1795D02*
X10986Y1795D01*
X1614Y1794D02*
X1637Y1794D01*
X2015Y1794D02*
X2038Y1794D01*
X3321Y1794D02*
X3344Y1794D01*
X5565Y1794D02*
X5588Y1794D01*
X10963Y1794D02*
X10986Y1794D01*
X1614Y1793D02*
X1637Y1793D01*
X2015Y1793D02*
X2038Y1793D01*
X3321Y1793D02*
X3344Y1793D01*
X5565Y1793D02*
X5588Y1793D01*
X10963Y1793D02*
X10986Y1793D01*
X1614Y1792D02*
X1637Y1792D01*
X2015Y1792D02*
X2038Y1792D01*
X3321Y1792D02*
X3344Y1792D01*
X5565Y1792D02*
X5588Y1792D01*
X10963Y1792D02*
X10986Y1792D01*
X1614Y1791D02*
X1637Y1791D01*
X2015Y1791D02*
X2038Y1791D01*
X3321Y1791D02*
X3344Y1791D01*
X5565Y1791D02*
X5588Y1791D01*
X10963Y1791D02*
X10986Y1791D01*
X1614Y1790D02*
X1637Y1790D01*
X2015Y1790D02*
X2038Y1790D01*
X3321Y1790D02*
X3344Y1790D01*
X5565Y1790D02*
X5588Y1790D01*
X10963Y1790D02*
X10986Y1790D01*
X1614Y1789D02*
X1637Y1789D01*
X2015Y1789D02*
X2038Y1789D01*
X3321Y1789D02*
X3344Y1789D01*
X5565Y1789D02*
X5588Y1789D01*
X10963Y1789D02*
X10986Y1789D01*
X1614Y1788D02*
X1637Y1788D01*
X2015Y1788D02*
X2038Y1788D01*
X3321Y1788D02*
X3344Y1788D01*
X5565Y1788D02*
X5588Y1788D01*
X10963Y1788D02*
X10986Y1788D01*
X1614Y1787D02*
X1637Y1787D01*
X2015Y1787D02*
X2038Y1787D01*
X3321Y1787D02*
X3344Y1787D01*
X5565Y1787D02*
X5588Y1787D01*
X10963Y1787D02*
X10986Y1787D01*
X1614Y1786D02*
X1637Y1786D01*
X2015Y1786D02*
X2038Y1786D01*
X3321Y1786D02*
X3344Y1786D01*
X5565Y1786D02*
X5588Y1786D01*
X10963Y1786D02*
X10986Y1786D01*
X1614Y1785D02*
X1637Y1785D01*
X2015Y1785D02*
X2038Y1785D01*
X3321Y1785D02*
X3344Y1785D01*
X5565Y1785D02*
X5588Y1785D01*
X10963Y1785D02*
X10986Y1785D01*
X1614Y1784D02*
X1637Y1784D01*
X2015Y1784D02*
X2038Y1784D01*
X3321Y1784D02*
X3344Y1784D01*
X5565Y1784D02*
X5588Y1784D01*
X10963Y1784D02*
X10986Y1784D01*
X1614Y1783D02*
X1637Y1783D01*
X2015Y1783D02*
X2038Y1783D01*
X3321Y1783D02*
X3344Y1783D01*
X5565Y1783D02*
X5588Y1783D01*
X10963Y1783D02*
X10986Y1783D01*
X1614Y1782D02*
X1637Y1782D01*
X2015Y1782D02*
X2038Y1782D01*
X3321Y1782D02*
X3344Y1782D01*
X5565Y1782D02*
X5588Y1782D01*
X10963Y1782D02*
X10986Y1782D01*
X1614Y1781D02*
X1637Y1781D01*
X2015Y1781D02*
X2038Y1781D01*
X3321Y1781D02*
X3344Y1781D01*
X5565Y1781D02*
X5588Y1781D01*
X10963Y1781D02*
X10986Y1781D01*
X1614Y1780D02*
X1637Y1780D01*
X2015Y1780D02*
X2038Y1780D01*
X3321Y1780D02*
X3344Y1780D01*
X5565Y1780D02*
X5588Y1780D01*
X10963Y1780D02*
X10986Y1780D01*
X1614Y1779D02*
X1637Y1779D01*
X2015Y1779D02*
X2038Y1779D01*
X3321Y1779D02*
X3344Y1779D01*
X5565Y1779D02*
X5588Y1779D01*
X10963Y1779D02*
X10986Y1779D01*
X1614Y1778D02*
X1637Y1778D01*
X2015Y1778D02*
X2038Y1778D01*
X3321Y1778D02*
X3344Y1778D01*
X5565Y1778D02*
X5588Y1778D01*
X10963Y1778D02*
X10986Y1778D01*
X1614Y1777D02*
X1637Y1777D01*
X2015Y1777D02*
X2038Y1777D01*
X3321Y1777D02*
X3344Y1777D01*
X5565Y1777D02*
X5588Y1777D01*
X10963Y1777D02*
X10986Y1777D01*
X1614Y1776D02*
X1637Y1776D01*
X2015Y1776D02*
X2038Y1776D01*
X3321Y1776D02*
X3344Y1776D01*
X5565Y1776D02*
X5588Y1776D01*
X10963Y1776D02*
X10986Y1776D01*
X1614Y1775D02*
X1637Y1775D01*
X2015Y1775D02*
X2038Y1775D01*
X3321Y1775D02*
X3344Y1775D01*
X5565Y1775D02*
X5588Y1775D01*
X10963Y1775D02*
X10986Y1775D01*
X1614Y1774D02*
X1637Y1774D01*
X2015Y1774D02*
X2038Y1774D01*
X3321Y1774D02*
X3344Y1774D01*
X5565Y1774D02*
X5588Y1774D01*
X10963Y1774D02*
X10986Y1774D01*
X1614Y1773D02*
X1637Y1773D01*
X2015Y1773D02*
X2038Y1773D01*
X3321Y1773D02*
X3344Y1773D01*
X5565Y1773D02*
X5588Y1773D01*
X10963Y1773D02*
X10986Y1773D01*
X1614Y1772D02*
X1637Y1772D01*
X2015Y1772D02*
X2038Y1772D01*
X3320Y1772D02*
X3344Y1772D01*
X5565Y1772D02*
X5588Y1772D01*
X10963Y1772D02*
X10986Y1772D01*
X1614Y1771D02*
X1637Y1771D01*
X2015Y1771D02*
X2038Y1771D01*
X3320Y1771D02*
X3343Y1771D01*
X5565Y1771D02*
X5588Y1771D01*
X10963Y1771D02*
X10986Y1771D01*
X1614Y1770D02*
X1637Y1770D01*
X2015Y1770D02*
X2038Y1770D01*
X3320Y1770D02*
X3343Y1770D01*
X5565Y1770D02*
X5588Y1770D01*
X10963Y1770D02*
X10986Y1770D01*
X1614Y1769D02*
X1637Y1769D01*
X2015Y1769D02*
X2038Y1769D01*
X3320Y1769D02*
X3343Y1769D01*
X5565Y1769D02*
X5588Y1769D01*
X10963Y1769D02*
X10986Y1769D01*
X1614Y1768D02*
X1637Y1768D01*
X2015Y1768D02*
X2038Y1768D01*
X3320Y1768D02*
X3343Y1768D01*
X5565Y1768D02*
X5588Y1768D01*
X10963Y1768D02*
X10986Y1768D01*
X1614Y1767D02*
X1637Y1767D01*
X2015Y1767D02*
X2038Y1767D01*
X3320Y1767D02*
X3343Y1767D01*
X5565Y1767D02*
X5588Y1767D01*
X10963Y1767D02*
X10986Y1767D01*
X1614Y1766D02*
X1637Y1766D01*
X2015Y1766D02*
X2038Y1766D01*
X3320Y1766D02*
X3343Y1766D01*
X5565Y1766D02*
X5588Y1766D01*
X10963Y1766D02*
X10986Y1766D01*
X1614Y1765D02*
X1637Y1765D01*
X2015Y1765D02*
X2038Y1765D01*
X3320Y1765D02*
X3343Y1765D01*
X5565Y1765D02*
X5588Y1765D01*
X10963Y1765D02*
X10986Y1765D01*
X1614Y1764D02*
X1637Y1764D01*
X2015Y1764D02*
X2038Y1764D01*
X3320Y1764D02*
X3343Y1764D01*
X5565Y1764D02*
X5588Y1764D01*
X10963Y1764D02*
X10986Y1764D01*
X1614Y1763D02*
X1638Y1763D01*
X2015Y1763D02*
X2038Y1763D01*
X3320Y1763D02*
X3343Y1763D01*
X5565Y1763D02*
X5588Y1763D01*
X10963Y1763D02*
X10986Y1763D01*
X1614Y1762D02*
X1638Y1762D01*
X2015Y1762D02*
X2038Y1762D01*
X3320Y1762D02*
X3343Y1762D01*
X5565Y1762D02*
X5588Y1762D01*
X10963Y1762D02*
X10986Y1762D01*
X1615Y1761D02*
X1638Y1761D01*
X2015Y1761D02*
X2038Y1761D01*
X3320Y1761D02*
X3343Y1761D01*
X5565Y1761D02*
X5588Y1761D01*
X10963Y1761D02*
X10986Y1761D01*
X1615Y1760D02*
X1638Y1760D01*
X2015Y1760D02*
X2038Y1760D01*
X3320Y1760D02*
X3343Y1760D01*
X5565Y1760D02*
X5588Y1760D01*
X10963Y1760D02*
X10986Y1760D01*
X1615Y1759D02*
X1638Y1759D01*
X2015Y1759D02*
X2038Y1759D01*
X3320Y1759D02*
X3343Y1759D01*
X5565Y1759D02*
X5588Y1759D01*
X10963Y1759D02*
X10986Y1759D01*
X1615Y1758D02*
X1638Y1758D01*
X2015Y1758D02*
X2038Y1758D01*
X3320Y1758D02*
X3343Y1758D01*
X5565Y1758D02*
X5588Y1758D01*
X10963Y1758D02*
X10986Y1758D01*
X1615Y1757D02*
X1638Y1757D01*
X2015Y1757D02*
X2038Y1757D01*
X3320Y1757D02*
X3343Y1757D01*
X5565Y1757D02*
X5588Y1757D01*
X10963Y1757D02*
X10986Y1757D01*
X1615Y1756D02*
X1638Y1756D01*
X2015Y1756D02*
X2038Y1756D01*
X3320Y1756D02*
X3343Y1756D01*
X5565Y1756D02*
X5588Y1756D01*
X10963Y1756D02*
X10986Y1756D01*
X1615Y1755D02*
X1638Y1755D01*
X2015Y1755D02*
X2038Y1755D01*
X3320Y1755D02*
X3343Y1755D01*
X5565Y1755D02*
X5588Y1755D01*
X10963Y1755D02*
X10986Y1755D01*
X1615Y1754D02*
X1638Y1754D01*
X2015Y1754D02*
X2038Y1754D01*
X3320Y1754D02*
X3343Y1754D01*
X5565Y1754D02*
X5588Y1754D01*
X10963Y1754D02*
X10986Y1754D01*
X1615Y1753D02*
X1638Y1753D01*
X2015Y1753D02*
X2038Y1753D01*
X3320Y1753D02*
X3343Y1753D01*
X5565Y1753D02*
X5588Y1753D01*
X10963Y1753D02*
X10986Y1753D01*
X1615Y1752D02*
X1638Y1752D01*
X2015Y1752D02*
X2038Y1752D01*
X3320Y1752D02*
X3343Y1752D01*
X5565Y1752D02*
X5588Y1752D01*
X10963Y1752D02*
X10986Y1752D01*
X1615Y1751D02*
X1638Y1751D01*
X2015Y1751D02*
X2038Y1751D01*
X3320Y1751D02*
X3343Y1751D01*
X5565Y1751D02*
X5588Y1751D01*
X10963Y1751D02*
X10986Y1751D01*
X1615Y1750D02*
X1638Y1750D01*
X2015Y1750D02*
X2038Y1750D01*
X3320Y1750D02*
X3343Y1750D01*
X5565Y1750D02*
X5588Y1750D01*
X10963Y1750D02*
X10986Y1750D01*
X1615Y1749D02*
X1638Y1749D01*
X2015Y1749D02*
X2038Y1749D01*
X3320Y1749D02*
X3343Y1749D01*
X5565Y1749D02*
X5588Y1749D01*
X10963Y1749D02*
X10986Y1749D01*
X1615Y1748D02*
X1638Y1748D01*
X2015Y1748D02*
X2038Y1748D01*
X3320Y1748D02*
X3343Y1748D01*
X5565Y1748D02*
X5588Y1748D01*
X10963Y1748D02*
X10986Y1748D01*
X1615Y1747D02*
X1638Y1747D01*
X2015Y1747D02*
X2038Y1747D01*
X3320Y1747D02*
X3343Y1747D01*
X5565Y1747D02*
X5588Y1747D01*
X10963Y1747D02*
X10986Y1747D01*
X1615Y1746D02*
X1638Y1746D01*
X2015Y1746D02*
X2038Y1746D01*
X3320Y1746D02*
X3343Y1746D01*
X5565Y1746D02*
X5588Y1746D01*
X10963Y1746D02*
X10986Y1746D01*
X1615Y1745D02*
X1638Y1745D01*
X2015Y1745D02*
X2038Y1745D01*
X3320Y1745D02*
X3343Y1745D01*
X5565Y1745D02*
X5588Y1745D01*
X10963Y1745D02*
X10986Y1745D01*
X1615Y1744D02*
X1638Y1744D01*
X2015Y1744D02*
X2038Y1744D01*
X3320Y1744D02*
X3343Y1744D01*
X5565Y1744D02*
X5588Y1744D01*
X10963Y1744D02*
X10986Y1744D01*
X1615Y1743D02*
X1638Y1743D01*
X2015Y1743D02*
X2038Y1743D01*
X3320Y1743D02*
X3343Y1743D01*
X5565Y1743D02*
X5588Y1743D01*
X10963Y1743D02*
X10986Y1743D01*
X1615Y1742D02*
X1638Y1742D01*
X2015Y1742D02*
X2038Y1742D01*
X3320Y1742D02*
X3343Y1742D01*
X5565Y1742D02*
X5588Y1742D01*
X10963Y1742D02*
X10986Y1742D01*
X1615Y1741D02*
X1638Y1741D01*
X2015Y1741D02*
X2038Y1741D01*
X3320Y1741D02*
X3343Y1741D01*
X5565Y1741D02*
X5588Y1741D01*
X10963Y1741D02*
X10986Y1741D01*
X1615Y1740D02*
X1638Y1740D01*
X2015Y1740D02*
X2038Y1740D01*
X3320Y1740D02*
X3343Y1740D01*
X5565Y1740D02*
X5588Y1740D01*
X10963Y1740D02*
X10986Y1740D01*
X1615Y1739D02*
X1638Y1739D01*
X2015Y1739D02*
X2038Y1739D01*
X3320Y1739D02*
X3343Y1739D01*
X5565Y1739D02*
X5588Y1739D01*
X10963Y1739D02*
X10986Y1739D01*
X1615Y1738D02*
X1638Y1738D01*
X2015Y1738D02*
X2038Y1738D01*
X3320Y1738D02*
X3343Y1738D01*
X5565Y1738D02*
X5588Y1738D01*
X10963Y1738D02*
X10986Y1738D01*
X1615Y1737D02*
X1638Y1737D01*
X2015Y1737D02*
X2038Y1737D01*
X3320Y1737D02*
X3343Y1737D01*
X5565Y1737D02*
X5588Y1737D01*
X10963Y1737D02*
X10986Y1737D01*
X1615Y1736D02*
X1638Y1736D01*
X2015Y1736D02*
X2038Y1736D01*
X3320Y1736D02*
X3343Y1736D01*
X5565Y1736D02*
X5588Y1736D01*
X10963Y1736D02*
X10986Y1736D01*
X1615Y1735D02*
X1638Y1735D01*
X2015Y1735D02*
X2038Y1735D01*
X3320Y1735D02*
X3343Y1735D01*
X5565Y1735D02*
X5588Y1735D01*
X10963Y1735D02*
X10986Y1735D01*
X1615Y1734D02*
X1638Y1734D01*
X2015Y1734D02*
X2038Y1734D01*
X3320Y1734D02*
X3343Y1734D01*
X5565Y1734D02*
X5588Y1734D01*
X10963Y1734D02*
X10986Y1734D01*
X1615Y1733D02*
X1638Y1733D01*
X2015Y1733D02*
X2038Y1733D01*
X3320Y1733D02*
X3343Y1733D01*
X5565Y1733D02*
X5588Y1733D01*
X10963Y1733D02*
X10986Y1733D01*
X1615Y1732D02*
X1638Y1732D01*
X2015Y1732D02*
X2038Y1732D01*
X3320Y1732D02*
X3343Y1732D01*
X5565Y1732D02*
X5588Y1732D01*
X10963Y1732D02*
X10986Y1732D01*
X1615Y1731D02*
X1638Y1731D01*
X2015Y1731D02*
X2038Y1731D01*
X3320Y1731D02*
X3343Y1731D01*
X5565Y1731D02*
X5588Y1731D01*
X10963Y1731D02*
X10986Y1731D01*
X1615Y1730D02*
X1638Y1730D01*
X2015Y1730D02*
X2038Y1730D01*
X3320Y1730D02*
X3343Y1730D01*
X5565Y1730D02*
X5588Y1730D01*
X10963Y1730D02*
X10986Y1730D01*
X1615Y1729D02*
X1638Y1729D01*
X2015Y1729D02*
X2038Y1729D01*
X3320Y1729D02*
X3343Y1729D01*
X5565Y1729D02*
X5588Y1729D01*
X10963Y1729D02*
X10986Y1729D01*
X1615Y1728D02*
X1638Y1728D01*
X2015Y1728D02*
X2038Y1728D01*
X3320Y1728D02*
X3343Y1728D01*
X5565Y1728D02*
X5588Y1728D01*
X10963Y1728D02*
X10986Y1728D01*
X1615Y1727D02*
X1638Y1727D01*
X2015Y1727D02*
X2038Y1727D01*
X3320Y1727D02*
X3343Y1727D01*
X5565Y1727D02*
X5588Y1727D01*
X10963Y1727D02*
X10986Y1727D01*
X1615Y1726D02*
X1638Y1726D01*
X2015Y1726D02*
X2038Y1726D01*
X3320Y1726D02*
X3343Y1726D01*
X5565Y1726D02*
X5588Y1726D01*
X10963Y1726D02*
X10986Y1726D01*
X1615Y1725D02*
X1638Y1725D01*
X2015Y1725D02*
X2038Y1725D01*
X3320Y1725D02*
X3343Y1725D01*
X5565Y1725D02*
X5588Y1725D01*
X10963Y1725D02*
X10986Y1725D01*
X1615Y1724D02*
X1638Y1724D01*
X2015Y1724D02*
X2038Y1724D01*
X3320Y1724D02*
X3343Y1724D01*
X5565Y1724D02*
X5588Y1724D01*
X10963Y1724D02*
X10986Y1724D01*
X1615Y1723D02*
X1638Y1723D01*
X2015Y1723D02*
X2038Y1723D01*
X3320Y1723D02*
X3343Y1723D01*
X5565Y1723D02*
X5588Y1723D01*
X10963Y1723D02*
X10986Y1723D01*
X1615Y1722D02*
X1638Y1722D01*
X2015Y1722D02*
X2038Y1722D01*
X3320Y1722D02*
X3343Y1722D01*
X5565Y1722D02*
X5588Y1722D01*
X10963Y1722D02*
X10986Y1722D01*
X1615Y1721D02*
X1638Y1721D01*
X2015Y1721D02*
X2038Y1721D01*
X3319Y1721D02*
X3343Y1721D01*
X5565Y1721D02*
X5588Y1721D01*
X10963Y1721D02*
X10986Y1721D01*
X1615Y1720D02*
X1638Y1720D01*
X2015Y1720D02*
X2038Y1720D01*
X3319Y1720D02*
X3342Y1720D01*
X5565Y1720D02*
X5588Y1720D01*
X10963Y1720D02*
X10986Y1720D01*
X1615Y1719D02*
X1638Y1719D01*
X2015Y1719D02*
X2038Y1719D01*
X3319Y1719D02*
X3342Y1719D01*
X5565Y1719D02*
X5588Y1719D01*
X10963Y1719D02*
X10986Y1719D01*
X1615Y1718D02*
X1638Y1718D01*
X2015Y1718D02*
X2038Y1718D01*
X3319Y1718D02*
X3342Y1718D01*
X5565Y1718D02*
X5588Y1718D01*
X10963Y1718D02*
X10986Y1718D01*
X1615Y1717D02*
X1638Y1717D01*
X2015Y1717D02*
X2038Y1717D01*
X3319Y1717D02*
X3342Y1717D01*
X5565Y1717D02*
X5588Y1717D01*
X10963Y1717D02*
X10986Y1717D01*
X1615Y1716D02*
X1638Y1716D01*
X2015Y1716D02*
X2038Y1716D01*
X3319Y1716D02*
X3342Y1716D01*
X5565Y1716D02*
X5588Y1716D01*
X10963Y1716D02*
X10986Y1716D01*
X1615Y1715D02*
X1638Y1715D01*
X2015Y1715D02*
X2038Y1715D01*
X3319Y1715D02*
X3342Y1715D01*
X5565Y1715D02*
X5588Y1715D01*
X10963Y1715D02*
X10986Y1715D01*
X1615Y1714D02*
X1638Y1714D01*
X2015Y1714D02*
X2038Y1714D01*
X3319Y1714D02*
X3342Y1714D01*
X5565Y1714D02*
X5588Y1714D01*
X10963Y1714D02*
X10986Y1714D01*
X1615Y1713D02*
X1638Y1713D01*
X2015Y1713D02*
X2038Y1713D01*
X3319Y1713D02*
X3342Y1713D01*
X5565Y1713D02*
X5588Y1713D01*
X10963Y1713D02*
X10986Y1713D01*
X1615Y1712D02*
X1638Y1712D01*
X2015Y1712D02*
X2038Y1712D01*
X3319Y1712D02*
X3342Y1712D01*
X5565Y1712D02*
X5588Y1712D01*
X10963Y1712D02*
X10986Y1712D01*
X1615Y1711D02*
X1638Y1711D01*
X2015Y1711D02*
X2038Y1711D01*
X3319Y1711D02*
X3342Y1711D01*
X5565Y1711D02*
X5588Y1711D01*
X10963Y1711D02*
X10986Y1711D01*
X1615Y1710D02*
X1638Y1710D01*
X2015Y1710D02*
X2038Y1710D01*
X3319Y1710D02*
X3342Y1710D01*
X5565Y1710D02*
X5588Y1710D01*
X10963Y1710D02*
X10986Y1710D01*
X1615Y1709D02*
X1638Y1709D01*
X2015Y1709D02*
X2038Y1709D01*
X3319Y1709D02*
X3342Y1709D01*
X5565Y1709D02*
X5588Y1709D01*
X10963Y1709D02*
X10986Y1709D01*
X1615Y1708D02*
X1638Y1708D01*
X2015Y1708D02*
X2038Y1708D01*
X3319Y1708D02*
X3342Y1708D01*
X5565Y1708D02*
X5588Y1708D01*
X10963Y1708D02*
X10986Y1708D01*
X1615Y1707D02*
X1638Y1707D01*
X2015Y1707D02*
X2038Y1707D01*
X3319Y1707D02*
X3342Y1707D01*
X5565Y1707D02*
X5588Y1707D01*
X10963Y1707D02*
X10986Y1707D01*
X1615Y1706D02*
X1638Y1706D01*
X2015Y1706D02*
X2038Y1706D01*
X3319Y1706D02*
X3342Y1706D01*
X5565Y1706D02*
X5588Y1706D01*
X10963Y1706D02*
X10986Y1706D01*
X1615Y1705D02*
X1638Y1705D01*
X2015Y1705D02*
X2038Y1705D01*
X3319Y1705D02*
X3342Y1705D01*
X5565Y1705D02*
X5588Y1705D01*
X10963Y1705D02*
X10986Y1705D01*
X1615Y1704D02*
X1638Y1704D01*
X2015Y1704D02*
X2038Y1704D01*
X3319Y1704D02*
X3342Y1704D01*
X5565Y1704D02*
X5588Y1704D01*
X10963Y1704D02*
X10986Y1704D01*
X1615Y1703D02*
X1638Y1703D01*
X2015Y1703D02*
X2038Y1703D01*
X3319Y1703D02*
X3342Y1703D01*
X5565Y1703D02*
X5588Y1703D01*
X10963Y1703D02*
X10986Y1703D01*
X1615Y1702D02*
X1638Y1702D01*
X2015Y1702D02*
X2038Y1702D01*
X3319Y1702D02*
X3342Y1702D01*
X5565Y1702D02*
X5588Y1702D01*
X10963Y1702D02*
X10986Y1702D01*
X1615Y1701D02*
X1638Y1701D01*
X2015Y1701D02*
X2038Y1701D01*
X3319Y1701D02*
X3342Y1701D01*
X5565Y1701D02*
X5588Y1701D01*
X10963Y1701D02*
X10986Y1701D01*
X1615Y1700D02*
X1638Y1700D01*
X2015Y1700D02*
X2038Y1700D01*
X3319Y1700D02*
X3342Y1700D01*
X5565Y1700D02*
X5588Y1700D01*
X10963Y1700D02*
X10986Y1700D01*
X1615Y1699D02*
X1638Y1699D01*
X2015Y1699D02*
X2038Y1699D01*
X3319Y1699D02*
X3342Y1699D01*
X5565Y1699D02*
X5588Y1699D01*
X10963Y1699D02*
X10986Y1699D01*
X1615Y1698D02*
X1638Y1698D01*
X2015Y1698D02*
X2038Y1698D01*
X3319Y1698D02*
X3342Y1698D01*
X5565Y1698D02*
X5588Y1698D01*
X10963Y1698D02*
X10986Y1698D01*
X1615Y1697D02*
X1638Y1697D01*
X2015Y1697D02*
X2038Y1697D01*
X3319Y1697D02*
X3342Y1697D01*
X5565Y1697D02*
X5588Y1697D01*
X10963Y1697D02*
X10986Y1697D01*
X1615Y1696D02*
X1638Y1696D01*
X2015Y1696D02*
X2038Y1696D01*
X3319Y1696D02*
X3342Y1696D01*
X5565Y1696D02*
X5588Y1696D01*
X10963Y1696D02*
X10986Y1696D01*
X1615Y1695D02*
X1638Y1695D01*
X2015Y1695D02*
X2038Y1695D01*
X3319Y1695D02*
X3342Y1695D01*
X5565Y1695D02*
X5588Y1695D01*
X10963Y1695D02*
X10986Y1695D01*
X1615Y1694D02*
X1638Y1694D01*
X2015Y1694D02*
X2038Y1694D01*
X3319Y1694D02*
X3342Y1694D01*
X5565Y1694D02*
X5588Y1694D01*
X10963Y1694D02*
X10986Y1694D01*
X1615Y1693D02*
X1638Y1693D01*
X2015Y1693D02*
X2038Y1693D01*
X3319Y1693D02*
X3342Y1693D01*
X5565Y1693D02*
X5588Y1693D01*
X10963Y1693D02*
X10986Y1693D01*
X1615Y1692D02*
X1638Y1692D01*
X2015Y1692D02*
X2038Y1692D01*
X3319Y1692D02*
X3342Y1692D01*
X5565Y1692D02*
X5588Y1692D01*
X10963Y1692D02*
X10986Y1692D01*
X1615Y1691D02*
X1638Y1691D01*
X2015Y1691D02*
X2038Y1691D01*
X3319Y1691D02*
X3342Y1691D01*
X5565Y1691D02*
X5588Y1691D01*
X10963Y1691D02*
X10986Y1691D01*
X1615Y1690D02*
X1638Y1690D01*
X2015Y1690D02*
X2038Y1690D01*
X3319Y1690D02*
X3342Y1690D01*
X5565Y1690D02*
X5588Y1690D01*
X10963Y1690D02*
X10986Y1690D01*
X1615Y1689D02*
X1638Y1689D01*
X2015Y1689D02*
X2038Y1689D01*
X3319Y1689D02*
X3342Y1689D01*
X5565Y1689D02*
X5588Y1689D01*
X10963Y1689D02*
X10986Y1689D01*
X1615Y1688D02*
X1638Y1688D01*
X2015Y1688D02*
X2038Y1688D01*
X3319Y1688D02*
X3342Y1688D01*
X5565Y1688D02*
X5588Y1688D01*
X10963Y1688D02*
X10986Y1688D01*
X1615Y1687D02*
X1638Y1687D01*
X2015Y1687D02*
X2038Y1687D01*
X3319Y1687D02*
X3342Y1687D01*
X5565Y1687D02*
X5588Y1687D01*
X10963Y1687D02*
X10986Y1687D01*
X1615Y1686D02*
X1638Y1686D01*
X2015Y1686D02*
X2038Y1686D01*
X3319Y1686D02*
X3342Y1686D01*
X5565Y1686D02*
X5588Y1686D01*
X10963Y1686D02*
X10986Y1686D01*
X1615Y1685D02*
X1638Y1685D01*
X2015Y1685D02*
X2038Y1685D01*
X3319Y1685D02*
X3342Y1685D01*
X5565Y1685D02*
X5588Y1685D01*
X10963Y1685D02*
X10986Y1685D01*
X1615Y1684D02*
X1638Y1684D01*
X2015Y1684D02*
X2038Y1684D01*
X3319Y1684D02*
X3342Y1684D01*
X5565Y1684D02*
X5588Y1684D01*
X10963Y1684D02*
X10986Y1684D01*
X1615Y1683D02*
X1638Y1683D01*
X2015Y1683D02*
X2038Y1683D01*
X3319Y1683D02*
X3342Y1683D01*
X5565Y1683D02*
X5588Y1683D01*
X10963Y1683D02*
X10986Y1683D01*
X1615Y1682D02*
X1638Y1682D01*
X2015Y1682D02*
X2038Y1682D01*
X3319Y1682D02*
X3342Y1682D01*
X5565Y1682D02*
X5588Y1682D01*
X10963Y1682D02*
X10986Y1682D01*
X1615Y1681D02*
X1638Y1681D01*
X2015Y1681D02*
X2038Y1681D01*
X3319Y1681D02*
X3342Y1681D01*
X5565Y1681D02*
X5588Y1681D01*
X10963Y1681D02*
X10986Y1681D01*
X1615Y1680D02*
X1638Y1680D01*
X2015Y1680D02*
X2038Y1680D01*
X3319Y1680D02*
X3342Y1680D01*
X5565Y1680D02*
X5588Y1680D01*
X10963Y1680D02*
X10986Y1680D01*
X1615Y1679D02*
X1638Y1679D01*
X2015Y1679D02*
X2038Y1679D01*
X3319Y1679D02*
X3342Y1679D01*
X5565Y1679D02*
X5588Y1679D01*
X10963Y1679D02*
X10986Y1679D01*
X1615Y1678D02*
X1638Y1678D01*
X2015Y1678D02*
X2038Y1678D01*
X3319Y1678D02*
X3342Y1678D01*
X5565Y1678D02*
X5588Y1678D01*
X10963Y1678D02*
X10986Y1678D01*
X1615Y1677D02*
X1638Y1677D01*
X2015Y1677D02*
X2038Y1677D01*
X3319Y1677D02*
X3342Y1677D01*
X5565Y1677D02*
X5588Y1677D01*
X10963Y1677D02*
X10986Y1677D01*
X1615Y1676D02*
X1638Y1676D01*
X2015Y1676D02*
X2038Y1676D01*
X3319Y1676D02*
X3342Y1676D01*
X5565Y1676D02*
X5588Y1676D01*
X10963Y1676D02*
X10986Y1676D01*
X1615Y1675D02*
X1638Y1675D01*
X2015Y1675D02*
X2038Y1675D01*
X3319Y1675D02*
X3342Y1675D01*
X5565Y1675D02*
X5588Y1675D01*
X10963Y1675D02*
X10986Y1675D01*
X1615Y1674D02*
X1638Y1674D01*
X2015Y1674D02*
X2038Y1674D01*
X3319Y1674D02*
X3342Y1674D01*
X5565Y1674D02*
X5588Y1674D01*
X10963Y1674D02*
X10986Y1674D01*
X1615Y1673D02*
X1638Y1673D01*
X2015Y1673D02*
X2038Y1673D01*
X3319Y1673D02*
X3342Y1673D01*
X5565Y1673D02*
X5588Y1673D01*
X10963Y1673D02*
X10986Y1673D01*
X1615Y1672D02*
X1638Y1672D01*
X2015Y1672D02*
X2038Y1672D01*
X3319Y1672D02*
X3342Y1672D01*
X5565Y1672D02*
X5588Y1672D01*
X10963Y1672D02*
X10986Y1672D01*
X1615Y1671D02*
X1638Y1671D01*
X2015Y1671D02*
X2038Y1671D01*
X3319Y1671D02*
X3342Y1671D01*
X5565Y1671D02*
X5588Y1671D01*
X10963Y1671D02*
X10986Y1671D01*
X1615Y1670D02*
X1638Y1670D01*
X2015Y1670D02*
X2038Y1670D01*
X3319Y1670D02*
X3342Y1670D01*
X5565Y1670D02*
X5588Y1670D01*
X10963Y1670D02*
X10986Y1670D01*
X1615Y1669D02*
X1638Y1669D01*
X2015Y1669D02*
X2038Y1669D01*
X3318Y1669D02*
X3342Y1669D01*
X5565Y1669D02*
X5588Y1669D01*
X10963Y1669D02*
X10986Y1669D01*
X1615Y1668D02*
X1638Y1668D01*
X2015Y1668D02*
X2038Y1668D01*
X3318Y1668D02*
X3341Y1668D01*
X5565Y1668D02*
X5588Y1668D01*
X10963Y1668D02*
X10986Y1668D01*
X1615Y1667D02*
X1638Y1667D01*
X2015Y1667D02*
X2038Y1667D01*
X3318Y1667D02*
X3341Y1667D01*
X5565Y1667D02*
X5588Y1667D01*
X10963Y1667D02*
X10986Y1667D01*
X1615Y1666D02*
X1638Y1666D01*
X2015Y1666D02*
X2038Y1666D01*
X3318Y1666D02*
X3341Y1666D01*
X5565Y1666D02*
X5588Y1666D01*
X10963Y1666D02*
X10986Y1666D01*
X1615Y1665D02*
X1638Y1665D01*
X2015Y1665D02*
X2038Y1665D01*
X3318Y1665D02*
X3341Y1665D01*
X5565Y1665D02*
X5588Y1665D01*
X10963Y1665D02*
X10986Y1665D01*
X1615Y1664D02*
X1638Y1664D01*
X2015Y1664D02*
X2038Y1664D01*
X3318Y1664D02*
X3341Y1664D01*
X5565Y1664D02*
X5588Y1664D01*
X10963Y1664D02*
X10986Y1664D01*
X1615Y1663D02*
X1638Y1663D01*
X2015Y1663D02*
X2038Y1663D01*
X3318Y1663D02*
X3341Y1663D01*
X5565Y1663D02*
X5588Y1663D01*
X10963Y1663D02*
X10986Y1663D01*
X1615Y1662D02*
X1638Y1662D01*
X2015Y1662D02*
X2038Y1662D01*
X3318Y1662D02*
X3341Y1662D01*
X5565Y1662D02*
X5588Y1662D01*
X10963Y1662D02*
X10986Y1662D01*
X1615Y1661D02*
X1638Y1661D01*
X2015Y1661D02*
X2038Y1661D01*
X3318Y1661D02*
X3341Y1661D01*
X5565Y1661D02*
X5588Y1661D01*
X10963Y1661D02*
X10986Y1661D01*
X1615Y1660D02*
X1638Y1660D01*
X2015Y1660D02*
X2038Y1660D01*
X3318Y1660D02*
X3341Y1660D01*
X5565Y1660D02*
X5588Y1660D01*
X10963Y1660D02*
X10986Y1660D01*
X1615Y1659D02*
X1638Y1659D01*
X2015Y1659D02*
X2038Y1659D01*
X3318Y1659D02*
X3341Y1659D01*
X5565Y1659D02*
X5588Y1659D01*
X10963Y1659D02*
X10986Y1659D01*
X1615Y1658D02*
X1638Y1658D01*
X2015Y1658D02*
X2038Y1658D01*
X3318Y1658D02*
X3341Y1658D01*
X5565Y1658D02*
X5588Y1658D01*
X10963Y1658D02*
X10986Y1658D01*
X1615Y1657D02*
X1638Y1657D01*
X2015Y1657D02*
X2038Y1657D01*
X3318Y1657D02*
X3341Y1657D01*
X5565Y1657D02*
X5588Y1657D01*
X10963Y1657D02*
X10986Y1657D01*
X1615Y1656D02*
X1638Y1656D01*
X2015Y1656D02*
X2038Y1656D01*
X3318Y1656D02*
X3341Y1656D01*
X5565Y1656D02*
X5588Y1656D01*
X10963Y1656D02*
X10986Y1656D01*
X1615Y1655D02*
X1638Y1655D01*
X2015Y1655D02*
X2038Y1655D01*
X3318Y1655D02*
X3341Y1655D01*
X5565Y1655D02*
X5588Y1655D01*
X10963Y1655D02*
X10986Y1655D01*
X1615Y1654D02*
X1638Y1654D01*
X2015Y1654D02*
X2038Y1654D01*
X3318Y1654D02*
X3341Y1654D01*
X5565Y1654D02*
X5588Y1654D01*
X10963Y1654D02*
X10986Y1654D01*
X1615Y1653D02*
X1638Y1653D01*
X2015Y1653D02*
X2038Y1653D01*
X3318Y1653D02*
X3341Y1653D01*
X5565Y1653D02*
X5588Y1653D01*
X10963Y1653D02*
X10986Y1653D01*
X1615Y1652D02*
X1638Y1652D01*
X2015Y1652D02*
X2038Y1652D01*
X3318Y1652D02*
X3341Y1652D01*
X5565Y1652D02*
X5588Y1652D01*
X10963Y1652D02*
X10986Y1652D01*
X1615Y1651D02*
X1638Y1651D01*
X2015Y1651D02*
X2038Y1651D01*
X3318Y1651D02*
X3341Y1651D01*
X5565Y1651D02*
X5588Y1651D01*
X10963Y1651D02*
X10986Y1651D01*
X1615Y1650D02*
X1638Y1650D01*
X2015Y1650D02*
X2038Y1650D01*
X3318Y1650D02*
X3341Y1650D01*
X5565Y1650D02*
X5588Y1650D01*
X10963Y1650D02*
X10986Y1650D01*
X1615Y1649D02*
X1638Y1649D01*
X2015Y1649D02*
X2038Y1649D01*
X3318Y1649D02*
X3341Y1649D01*
X5565Y1649D02*
X5588Y1649D01*
X10963Y1649D02*
X10986Y1649D01*
X1615Y1648D02*
X1638Y1648D01*
X2015Y1648D02*
X2038Y1648D01*
X3318Y1648D02*
X3341Y1648D01*
X5565Y1648D02*
X5588Y1648D01*
X10963Y1648D02*
X10986Y1648D01*
X1615Y1647D02*
X1638Y1647D01*
X2015Y1647D02*
X2038Y1647D01*
X3318Y1647D02*
X3341Y1647D01*
X5565Y1647D02*
X5588Y1647D01*
X10963Y1647D02*
X10986Y1647D01*
X1615Y1646D02*
X1638Y1646D01*
X2015Y1646D02*
X2038Y1646D01*
X3318Y1646D02*
X3341Y1646D01*
X5565Y1646D02*
X5588Y1646D01*
X10963Y1646D02*
X10986Y1646D01*
X1615Y1645D02*
X1638Y1645D01*
X2015Y1645D02*
X2038Y1645D01*
X3318Y1645D02*
X3341Y1645D01*
X5565Y1645D02*
X5588Y1645D01*
X10963Y1645D02*
X10986Y1645D01*
X1615Y1644D02*
X1638Y1644D01*
X2015Y1644D02*
X2038Y1644D01*
X3318Y1644D02*
X3341Y1644D01*
X5565Y1644D02*
X5588Y1644D01*
X10963Y1644D02*
X10986Y1644D01*
X1615Y1643D02*
X1638Y1643D01*
X2015Y1643D02*
X2038Y1643D01*
X3318Y1643D02*
X3341Y1643D01*
X5565Y1643D02*
X5588Y1643D01*
X10963Y1643D02*
X10986Y1643D01*
X1615Y1642D02*
X1638Y1642D01*
X2015Y1642D02*
X2038Y1642D01*
X3318Y1642D02*
X3341Y1642D01*
X5565Y1642D02*
X5588Y1642D01*
X10963Y1642D02*
X10986Y1642D01*
X1615Y1641D02*
X1638Y1641D01*
X2015Y1641D02*
X2038Y1641D01*
X3318Y1641D02*
X3341Y1641D01*
X5565Y1641D02*
X5588Y1641D01*
X10963Y1641D02*
X10986Y1641D01*
X1615Y1640D02*
X1638Y1640D01*
X2015Y1640D02*
X2038Y1640D01*
X3318Y1640D02*
X3341Y1640D01*
X5565Y1640D02*
X5588Y1640D01*
X10963Y1640D02*
X10986Y1640D01*
X1615Y1639D02*
X1638Y1639D01*
X2015Y1639D02*
X2038Y1639D01*
X3318Y1639D02*
X3341Y1639D01*
X5565Y1639D02*
X5588Y1639D01*
X10963Y1639D02*
X10986Y1639D01*
X1615Y1638D02*
X1638Y1638D01*
X2015Y1638D02*
X2038Y1638D01*
X3318Y1638D02*
X3341Y1638D01*
X5565Y1638D02*
X5588Y1638D01*
X10963Y1638D02*
X10986Y1638D01*
X1615Y1637D02*
X1638Y1637D01*
X2015Y1637D02*
X2038Y1637D01*
X3318Y1637D02*
X3341Y1637D01*
X5565Y1637D02*
X5588Y1637D01*
X10963Y1637D02*
X10986Y1637D01*
X1615Y1636D02*
X1638Y1636D01*
X2015Y1636D02*
X2038Y1636D01*
X3318Y1636D02*
X3341Y1636D01*
X5565Y1636D02*
X5588Y1636D01*
X10963Y1636D02*
X10986Y1636D01*
X1615Y1635D02*
X1638Y1635D01*
X2015Y1635D02*
X2038Y1635D01*
X3318Y1635D02*
X3341Y1635D01*
X5565Y1635D02*
X5588Y1635D01*
X10963Y1635D02*
X10986Y1635D01*
X1615Y1634D02*
X1638Y1634D01*
X2015Y1634D02*
X2038Y1634D01*
X3318Y1634D02*
X3341Y1634D01*
X5565Y1634D02*
X5588Y1634D01*
X10963Y1634D02*
X10986Y1634D01*
X1615Y1633D02*
X1638Y1633D01*
X2015Y1633D02*
X2038Y1633D01*
X3318Y1633D02*
X3341Y1633D01*
X5565Y1633D02*
X5588Y1633D01*
X10963Y1633D02*
X10986Y1633D01*
X1615Y1632D02*
X1638Y1632D01*
X2015Y1632D02*
X2038Y1632D01*
X3318Y1632D02*
X3341Y1632D01*
X5565Y1632D02*
X5588Y1632D01*
X10963Y1632D02*
X10986Y1632D01*
X1615Y1631D02*
X1638Y1631D01*
X2015Y1631D02*
X2038Y1631D01*
X3318Y1631D02*
X3341Y1631D01*
X5565Y1631D02*
X5588Y1631D01*
X10963Y1631D02*
X10986Y1631D01*
X1615Y1630D02*
X1638Y1630D01*
X2015Y1630D02*
X2038Y1630D01*
X3318Y1630D02*
X3341Y1630D01*
X5565Y1630D02*
X5588Y1630D01*
X10963Y1630D02*
X10986Y1630D01*
X1615Y1629D02*
X1638Y1629D01*
X2015Y1629D02*
X2038Y1629D01*
X3318Y1629D02*
X3341Y1629D01*
X5565Y1629D02*
X5588Y1629D01*
X10963Y1629D02*
X10986Y1629D01*
X1615Y1628D02*
X1638Y1628D01*
X2015Y1628D02*
X2038Y1628D01*
X3318Y1628D02*
X3341Y1628D01*
X5565Y1628D02*
X5588Y1628D01*
X10963Y1628D02*
X10986Y1628D01*
X1615Y1627D02*
X1638Y1627D01*
X2015Y1627D02*
X2038Y1627D01*
X3318Y1627D02*
X3341Y1627D01*
X5565Y1627D02*
X5588Y1627D01*
X10963Y1627D02*
X10986Y1627D01*
X1615Y1626D02*
X1638Y1626D01*
X2015Y1626D02*
X2038Y1626D01*
X3318Y1626D02*
X3341Y1626D01*
X5565Y1626D02*
X5588Y1626D01*
X10963Y1626D02*
X10986Y1626D01*
X1615Y1625D02*
X1638Y1625D01*
X2015Y1625D02*
X2038Y1625D01*
X3318Y1625D02*
X3341Y1625D01*
X5565Y1625D02*
X5588Y1625D01*
X10963Y1625D02*
X10986Y1625D01*
X1615Y1624D02*
X1638Y1624D01*
X2015Y1624D02*
X2038Y1624D01*
X3318Y1624D02*
X3341Y1624D01*
X5565Y1624D02*
X5588Y1624D01*
X10963Y1624D02*
X10986Y1624D01*
X1615Y1623D02*
X1638Y1623D01*
X2015Y1623D02*
X2038Y1623D01*
X3318Y1623D02*
X3341Y1623D01*
X5565Y1623D02*
X5588Y1623D01*
X10963Y1623D02*
X10986Y1623D01*
X1615Y1622D02*
X1638Y1622D01*
X2015Y1622D02*
X2038Y1622D01*
X3318Y1622D02*
X3341Y1622D01*
X5565Y1622D02*
X5588Y1622D01*
X10963Y1622D02*
X10986Y1622D01*
X1615Y1621D02*
X1638Y1621D01*
X2015Y1621D02*
X2038Y1621D01*
X3318Y1621D02*
X3341Y1621D01*
X5565Y1621D02*
X5588Y1621D01*
X10962Y1621D02*
X10986Y1621D01*
X1615Y1620D02*
X1638Y1620D01*
X2015Y1620D02*
X2038Y1620D01*
X3318Y1620D02*
X3341Y1620D01*
X5565Y1620D02*
X5588Y1620D01*
X10962Y1620D02*
X10986Y1620D01*
X1615Y1619D02*
X1638Y1619D01*
X2015Y1619D02*
X2038Y1619D01*
X3318Y1619D02*
X3341Y1619D01*
X5565Y1619D02*
X5588Y1619D01*
X10962Y1619D02*
X10985Y1619D01*
X1615Y1618D02*
X1638Y1618D01*
X2015Y1618D02*
X2038Y1618D01*
X3318Y1618D02*
X3341Y1618D01*
X5565Y1618D02*
X5588Y1618D01*
X10962Y1618D02*
X10985Y1618D01*
X1615Y1617D02*
X1638Y1617D01*
X2015Y1617D02*
X2038Y1617D01*
X3317Y1617D02*
X3341Y1617D01*
X5565Y1617D02*
X5588Y1617D01*
X10962Y1617D02*
X10985Y1617D01*
X1615Y1616D02*
X1638Y1616D01*
X2015Y1616D02*
X2038Y1616D01*
X3317Y1616D02*
X3340Y1616D01*
X5565Y1616D02*
X5588Y1616D01*
X10962Y1616D02*
X10985Y1616D01*
X1615Y1615D02*
X1638Y1615D01*
X2015Y1615D02*
X2038Y1615D01*
X3317Y1615D02*
X3340Y1615D01*
X5565Y1615D02*
X5588Y1615D01*
X10962Y1615D02*
X10985Y1615D01*
X1615Y1614D02*
X1638Y1614D01*
X2015Y1614D02*
X2038Y1614D01*
X3317Y1614D02*
X3340Y1614D01*
X5565Y1614D02*
X5588Y1614D01*
X10962Y1614D02*
X10985Y1614D01*
X1615Y1613D02*
X1638Y1613D01*
X2015Y1613D02*
X2038Y1613D01*
X3317Y1613D02*
X3340Y1613D01*
X5565Y1613D02*
X5588Y1613D01*
X10962Y1613D02*
X10985Y1613D01*
X1615Y1612D02*
X1638Y1612D01*
X2015Y1612D02*
X2038Y1612D01*
X3317Y1612D02*
X3340Y1612D01*
X5565Y1612D02*
X5588Y1612D01*
X10962Y1612D02*
X10985Y1612D01*
X1615Y1611D02*
X1638Y1611D01*
X2015Y1611D02*
X2038Y1611D01*
X3317Y1611D02*
X3340Y1611D01*
X5565Y1611D02*
X5588Y1611D01*
X10962Y1611D02*
X10985Y1611D01*
X1615Y1610D02*
X1638Y1610D01*
X2015Y1610D02*
X2038Y1610D01*
X3317Y1610D02*
X3340Y1610D01*
X5565Y1610D02*
X5588Y1610D01*
X10962Y1610D02*
X10985Y1610D01*
X1615Y1609D02*
X1638Y1609D01*
X2015Y1609D02*
X2038Y1609D01*
X3317Y1609D02*
X3340Y1609D01*
X5565Y1609D02*
X5588Y1609D01*
X10962Y1609D02*
X10985Y1609D01*
X1615Y1608D02*
X1638Y1608D01*
X2015Y1608D02*
X2038Y1608D01*
X3317Y1608D02*
X3340Y1608D01*
X5565Y1608D02*
X5588Y1608D01*
X10962Y1608D02*
X10985Y1608D01*
X1615Y1607D02*
X1638Y1607D01*
X2015Y1607D02*
X2038Y1607D01*
X3317Y1607D02*
X3340Y1607D01*
X5565Y1607D02*
X5588Y1607D01*
X10962Y1607D02*
X10985Y1607D01*
X1615Y1606D02*
X1638Y1606D01*
X2015Y1606D02*
X2038Y1606D01*
X3317Y1606D02*
X3340Y1606D01*
X5565Y1606D02*
X5588Y1606D01*
X10962Y1606D02*
X10985Y1606D01*
X1615Y1605D02*
X1638Y1605D01*
X2015Y1605D02*
X2038Y1605D01*
X3317Y1605D02*
X3340Y1605D01*
X5565Y1605D02*
X5588Y1605D01*
X10962Y1605D02*
X10985Y1605D01*
X1615Y1604D02*
X1638Y1604D01*
X2015Y1604D02*
X2039Y1604D01*
X3317Y1604D02*
X3340Y1604D01*
X5565Y1604D02*
X5588Y1604D01*
X10962Y1604D02*
X10985Y1604D01*
X1615Y1603D02*
X1638Y1603D01*
X2016Y1603D02*
X2039Y1603D01*
X3317Y1603D02*
X3340Y1603D01*
X5565Y1603D02*
X5588Y1603D01*
X10962Y1603D02*
X10985Y1603D01*
X1615Y1602D02*
X1638Y1602D01*
X2016Y1602D02*
X2039Y1602D01*
X3317Y1602D02*
X3340Y1602D01*
X5565Y1602D02*
X5588Y1602D01*
X10962Y1602D02*
X10985Y1602D01*
X1615Y1601D02*
X1638Y1601D01*
X2016Y1601D02*
X2039Y1601D01*
X3317Y1601D02*
X3340Y1601D01*
X5565Y1601D02*
X5588Y1601D01*
X10962Y1601D02*
X10985Y1601D01*
X1615Y1600D02*
X1638Y1600D01*
X2016Y1600D02*
X2039Y1600D01*
X3317Y1600D02*
X3340Y1600D01*
X5565Y1600D02*
X5588Y1600D01*
X10962Y1600D02*
X10985Y1600D01*
X1615Y1599D02*
X1638Y1599D01*
X2016Y1599D02*
X2039Y1599D01*
X3317Y1599D02*
X3340Y1599D01*
X5565Y1599D02*
X5588Y1599D01*
X10962Y1599D02*
X10985Y1599D01*
X1615Y1598D02*
X1638Y1598D01*
X2016Y1598D02*
X2039Y1598D01*
X3317Y1598D02*
X3340Y1598D01*
X5565Y1598D02*
X5588Y1598D01*
X10962Y1598D02*
X10985Y1598D01*
X1615Y1597D02*
X1638Y1597D01*
X2016Y1597D02*
X2039Y1597D01*
X3317Y1597D02*
X3340Y1597D01*
X5565Y1597D02*
X5588Y1597D01*
X10962Y1597D02*
X10985Y1597D01*
X1615Y1596D02*
X1638Y1596D01*
X2016Y1596D02*
X2039Y1596D01*
X3317Y1596D02*
X3340Y1596D01*
X5565Y1596D02*
X5588Y1596D01*
X10962Y1596D02*
X10985Y1596D01*
X1615Y1595D02*
X1638Y1595D01*
X2016Y1595D02*
X2039Y1595D01*
X3317Y1595D02*
X3340Y1595D01*
X5565Y1595D02*
X5588Y1595D01*
X10962Y1595D02*
X10985Y1595D01*
X1615Y1594D02*
X1638Y1594D01*
X2016Y1594D02*
X2039Y1594D01*
X3317Y1594D02*
X3340Y1594D01*
X5565Y1594D02*
X5588Y1594D01*
X10962Y1594D02*
X10985Y1594D01*
X1615Y1593D02*
X1638Y1593D01*
X2016Y1593D02*
X2039Y1593D01*
X3317Y1593D02*
X3340Y1593D01*
X5565Y1593D02*
X5588Y1593D01*
X10962Y1593D02*
X10985Y1593D01*
X1615Y1592D02*
X1638Y1592D01*
X2016Y1592D02*
X2039Y1592D01*
X3317Y1592D02*
X3340Y1592D01*
X5565Y1592D02*
X5588Y1592D01*
X10962Y1592D02*
X10985Y1592D01*
X1615Y1591D02*
X1638Y1591D01*
X2016Y1591D02*
X2039Y1591D01*
X3317Y1591D02*
X3340Y1591D01*
X5565Y1591D02*
X5589Y1591D01*
X10962Y1591D02*
X10985Y1591D01*
X1615Y1590D02*
X1638Y1590D01*
X2016Y1590D02*
X2039Y1590D01*
X3317Y1590D02*
X3340Y1590D01*
X5565Y1590D02*
X5589Y1590D01*
X10962Y1590D02*
X10985Y1590D01*
X1615Y1589D02*
X1638Y1589D01*
X2016Y1589D02*
X2039Y1589D01*
X3317Y1589D02*
X3340Y1589D01*
X5566Y1589D02*
X5589Y1589D01*
X10962Y1589D02*
X10985Y1589D01*
X1615Y1588D02*
X1638Y1588D01*
X2016Y1588D02*
X2039Y1588D01*
X3317Y1588D02*
X3340Y1588D01*
X5566Y1588D02*
X5589Y1588D01*
X10962Y1588D02*
X10985Y1588D01*
X1615Y1587D02*
X1638Y1587D01*
X2016Y1587D02*
X2039Y1587D01*
X3317Y1587D02*
X3340Y1587D01*
X5566Y1587D02*
X5589Y1587D01*
X10962Y1587D02*
X10985Y1587D01*
X1615Y1586D02*
X1638Y1586D01*
X2016Y1586D02*
X2039Y1586D01*
X3317Y1586D02*
X3340Y1586D01*
X5566Y1586D02*
X5589Y1586D01*
X10962Y1586D02*
X10985Y1586D01*
X1615Y1585D02*
X1638Y1585D01*
X2016Y1585D02*
X2039Y1585D01*
X3317Y1585D02*
X3340Y1585D01*
X5566Y1585D02*
X5589Y1585D01*
X10962Y1585D02*
X10985Y1585D01*
X1615Y1584D02*
X1638Y1584D01*
X2016Y1584D02*
X2039Y1584D01*
X3317Y1584D02*
X3340Y1584D01*
X5566Y1584D02*
X5589Y1584D01*
X10962Y1584D02*
X10985Y1584D01*
X1615Y1583D02*
X1638Y1583D01*
X2016Y1583D02*
X2039Y1583D01*
X3317Y1583D02*
X3340Y1583D01*
X5566Y1583D02*
X5589Y1583D01*
X10962Y1583D02*
X10985Y1583D01*
X1615Y1582D02*
X1638Y1582D01*
X2016Y1582D02*
X2039Y1582D01*
X3317Y1582D02*
X3340Y1582D01*
X5566Y1582D02*
X5589Y1582D01*
X10962Y1582D02*
X10985Y1582D01*
X1615Y1581D02*
X1638Y1581D01*
X2016Y1581D02*
X2039Y1581D01*
X3317Y1581D02*
X3340Y1581D01*
X5566Y1581D02*
X5589Y1581D01*
X10962Y1581D02*
X10985Y1581D01*
X1615Y1580D02*
X1638Y1580D01*
X2016Y1580D02*
X2039Y1580D01*
X3317Y1580D02*
X3340Y1580D01*
X5566Y1580D02*
X5589Y1580D01*
X10962Y1580D02*
X10985Y1580D01*
X1615Y1579D02*
X1638Y1579D01*
X2016Y1579D02*
X2039Y1579D01*
X3317Y1579D02*
X3340Y1579D01*
X5566Y1579D02*
X5589Y1579D01*
X10962Y1579D02*
X10985Y1579D01*
X1615Y1578D02*
X1638Y1578D01*
X2016Y1578D02*
X2039Y1578D01*
X3317Y1578D02*
X3340Y1578D01*
X5566Y1578D02*
X5589Y1578D01*
X10962Y1578D02*
X10985Y1578D01*
X1615Y1577D02*
X1638Y1577D01*
X2016Y1577D02*
X2039Y1577D01*
X3317Y1577D02*
X3340Y1577D01*
X5566Y1577D02*
X5589Y1577D01*
X10962Y1577D02*
X10985Y1577D01*
X1615Y1576D02*
X1638Y1576D01*
X2016Y1576D02*
X2039Y1576D01*
X3317Y1576D02*
X3340Y1576D01*
X5566Y1576D02*
X5589Y1576D01*
X10962Y1576D02*
X10985Y1576D01*
X1615Y1575D02*
X1638Y1575D01*
X2016Y1575D02*
X2039Y1575D01*
X3317Y1575D02*
X3340Y1575D01*
X5566Y1575D02*
X5589Y1575D01*
X10962Y1575D02*
X10985Y1575D01*
X1615Y1574D02*
X1638Y1574D01*
X2016Y1574D02*
X2039Y1574D01*
X3317Y1574D02*
X3340Y1574D01*
X5566Y1574D02*
X5589Y1574D01*
X10962Y1574D02*
X10985Y1574D01*
X1615Y1573D02*
X1638Y1573D01*
X2016Y1573D02*
X2039Y1573D01*
X3317Y1573D02*
X3340Y1573D01*
X5566Y1573D02*
X5589Y1573D01*
X10962Y1573D02*
X10985Y1573D01*
X1615Y1572D02*
X1638Y1572D01*
X2016Y1572D02*
X2039Y1572D01*
X3317Y1572D02*
X3340Y1572D01*
X5566Y1572D02*
X5589Y1572D01*
X10962Y1572D02*
X10985Y1572D01*
X1615Y1571D02*
X1638Y1571D01*
X2016Y1571D02*
X2039Y1571D01*
X3317Y1571D02*
X3340Y1571D01*
X5566Y1571D02*
X5589Y1571D01*
X10962Y1571D02*
X10985Y1571D01*
X1615Y1570D02*
X1638Y1570D01*
X2016Y1570D02*
X2039Y1570D01*
X3317Y1570D02*
X3340Y1570D01*
X5566Y1570D02*
X5589Y1570D01*
X10962Y1570D02*
X10985Y1570D01*
X1615Y1569D02*
X1638Y1569D01*
X2016Y1569D02*
X2039Y1569D01*
X3317Y1569D02*
X3340Y1569D01*
X5566Y1569D02*
X5589Y1569D01*
X10962Y1569D02*
X10985Y1569D01*
X1615Y1568D02*
X1638Y1568D01*
X2016Y1568D02*
X2039Y1568D01*
X3317Y1568D02*
X3340Y1568D01*
X5566Y1568D02*
X5589Y1568D01*
X10962Y1568D02*
X10985Y1568D01*
X1615Y1567D02*
X1638Y1567D01*
X2016Y1567D02*
X2039Y1567D01*
X3317Y1567D02*
X3340Y1567D01*
X5566Y1567D02*
X5589Y1567D01*
X10962Y1567D02*
X10985Y1567D01*
X1615Y1566D02*
X1638Y1566D01*
X2016Y1566D02*
X2039Y1566D01*
X3316Y1566D02*
X3340Y1566D01*
X5566Y1566D02*
X5589Y1566D01*
X10962Y1566D02*
X10985Y1566D01*
X1615Y1565D02*
X1638Y1565D01*
X2016Y1565D02*
X2039Y1565D01*
X3316Y1565D02*
X3339Y1565D01*
X5566Y1565D02*
X5589Y1565D01*
X10962Y1565D02*
X10985Y1565D01*
X1615Y1564D02*
X1638Y1564D01*
X2016Y1564D02*
X2039Y1564D01*
X3316Y1564D02*
X3339Y1564D01*
X5566Y1564D02*
X5589Y1564D01*
X10962Y1564D02*
X10985Y1564D01*
X1615Y1563D02*
X1638Y1563D01*
X2016Y1563D02*
X2039Y1563D01*
X3316Y1563D02*
X3339Y1563D01*
X5566Y1563D02*
X5589Y1563D01*
X10962Y1563D02*
X10985Y1563D01*
X1615Y1562D02*
X1638Y1562D01*
X2016Y1562D02*
X2039Y1562D01*
X3316Y1562D02*
X3339Y1562D01*
X5566Y1562D02*
X5589Y1562D01*
X10962Y1562D02*
X10985Y1562D01*
X1615Y1561D02*
X1638Y1561D01*
X2016Y1561D02*
X2039Y1561D01*
X3316Y1561D02*
X3339Y1561D01*
X5566Y1561D02*
X5589Y1561D01*
X10962Y1561D02*
X10985Y1561D01*
X1615Y1560D02*
X1638Y1560D01*
X2016Y1560D02*
X2039Y1560D01*
X3316Y1560D02*
X3339Y1560D01*
X5566Y1560D02*
X5589Y1560D01*
X10962Y1560D02*
X10985Y1560D01*
X1615Y1559D02*
X1638Y1559D01*
X2016Y1559D02*
X2039Y1559D01*
X3316Y1559D02*
X3339Y1559D01*
X5566Y1559D02*
X5589Y1559D01*
X10962Y1559D02*
X10985Y1559D01*
X1615Y1558D02*
X1638Y1558D01*
X2016Y1558D02*
X2039Y1558D01*
X3316Y1558D02*
X3339Y1558D01*
X5566Y1558D02*
X5589Y1558D01*
X10962Y1558D02*
X10985Y1558D01*
X1615Y1557D02*
X1638Y1557D01*
X2016Y1557D02*
X2039Y1557D01*
X3316Y1557D02*
X3339Y1557D01*
X5566Y1557D02*
X5589Y1557D01*
X10962Y1557D02*
X10985Y1557D01*
X1615Y1556D02*
X1638Y1556D01*
X2016Y1556D02*
X2039Y1556D01*
X3316Y1556D02*
X3339Y1556D01*
X5566Y1556D02*
X5589Y1556D01*
X10962Y1556D02*
X10985Y1556D01*
X1615Y1555D02*
X1638Y1555D01*
X2016Y1555D02*
X2039Y1555D01*
X3316Y1555D02*
X3339Y1555D01*
X5566Y1555D02*
X5589Y1555D01*
X10962Y1555D02*
X10985Y1555D01*
X1615Y1554D02*
X1638Y1554D01*
X2016Y1554D02*
X2039Y1554D01*
X3316Y1554D02*
X3339Y1554D01*
X5566Y1554D02*
X5589Y1554D01*
X10962Y1554D02*
X10985Y1554D01*
X1615Y1553D02*
X1638Y1553D01*
X2016Y1553D02*
X2039Y1553D01*
X3316Y1553D02*
X3339Y1553D01*
X5566Y1553D02*
X5589Y1553D01*
X10962Y1553D02*
X10985Y1553D01*
X1615Y1552D02*
X1638Y1552D01*
X2016Y1552D02*
X2039Y1552D01*
X3316Y1552D02*
X3339Y1552D01*
X5566Y1552D02*
X5589Y1552D01*
X10962Y1552D02*
X10985Y1552D01*
X1615Y1551D02*
X1638Y1551D01*
X2016Y1551D02*
X2039Y1551D01*
X3316Y1551D02*
X3339Y1551D01*
X5566Y1551D02*
X5589Y1551D01*
X10962Y1551D02*
X10985Y1551D01*
X1615Y1550D02*
X1638Y1550D01*
X2016Y1550D02*
X2039Y1550D01*
X3316Y1550D02*
X3339Y1550D01*
X5566Y1550D02*
X5589Y1550D01*
X10962Y1550D02*
X10985Y1550D01*
X1615Y1549D02*
X1638Y1549D01*
X2016Y1549D02*
X2039Y1549D01*
X3316Y1549D02*
X3339Y1549D01*
X5566Y1549D02*
X5589Y1549D01*
X10962Y1549D02*
X10985Y1549D01*
X1615Y1548D02*
X1638Y1548D01*
X2016Y1548D02*
X2039Y1548D01*
X3316Y1548D02*
X3339Y1548D01*
X5566Y1548D02*
X5589Y1548D01*
X10962Y1548D02*
X10985Y1548D01*
X1615Y1547D02*
X1638Y1547D01*
X2016Y1547D02*
X2039Y1547D01*
X3316Y1547D02*
X3339Y1547D01*
X5566Y1547D02*
X5589Y1547D01*
X10962Y1547D02*
X10985Y1547D01*
X1615Y1546D02*
X1638Y1546D01*
X2016Y1546D02*
X2039Y1546D01*
X3316Y1546D02*
X3339Y1546D01*
X5566Y1546D02*
X5589Y1546D01*
X10962Y1546D02*
X10985Y1546D01*
X1615Y1545D02*
X1638Y1545D01*
X2016Y1545D02*
X2039Y1545D01*
X3316Y1545D02*
X3339Y1545D01*
X5566Y1545D02*
X5589Y1545D01*
X10962Y1545D02*
X10985Y1545D01*
X1615Y1544D02*
X1638Y1544D01*
X2016Y1544D02*
X2039Y1544D01*
X3316Y1544D02*
X3339Y1544D01*
X5566Y1544D02*
X5589Y1544D01*
X10962Y1544D02*
X10985Y1544D01*
X1615Y1543D02*
X1638Y1543D01*
X2016Y1543D02*
X2039Y1543D01*
X3316Y1543D02*
X3339Y1543D01*
X5566Y1543D02*
X5589Y1543D01*
X10962Y1543D02*
X10985Y1543D01*
X1615Y1542D02*
X1638Y1542D01*
X2016Y1542D02*
X2039Y1542D01*
X3316Y1542D02*
X3339Y1542D01*
X5566Y1542D02*
X5589Y1542D01*
X10962Y1542D02*
X10985Y1542D01*
X1615Y1541D02*
X1638Y1541D01*
X2016Y1541D02*
X2039Y1541D01*
X3316Y1541D02*
X3339Y1541D01*
X5566Y1541D02*
X5589Y1541D01*
X10962Y1541D02*
X10985Y1541D01*
X1615Y1540D02*
X1638Y1540D01*
X2016Y1540D02*
X2039Y1540D01*
X3316Y1540D02*
X3339Y1540D01*
X5566Y1540D02*
X5589Y1540D01*
X10962Y1540D02*
X10985Y1540D01*
X1615Y1539D02*
X1638Y1539D01*
X2016Y1539D02*
X2039Y1539D01*
X3316Y1539D02*
X3339Y1539D01*
X5566Y1539D02*
X5589Y1539D01*
X10962Y1539D02*
X10985Y1539D01*
X1615Y1538D02*
X1638Y1538D01*
X2016Y1538D02*
X2039Y1538D01*
X3316Y1538D02*
X3339Y1538D01*
X5566Y1538D02*
X5589Y1538D01*
X10962Y1538D02*
X10985Y1538D01*
X1615Y1537D02*
X1638Y1537D01*
X2016Y1537D02*
X2039Y1537D01*
X3316Y1537D02*
X3339Y1537D01*
X5566Y1537D02*
X5589Y1537D01*
X10962Y1537D02*
X10985Y1537D01*
X1615Y1536D02*
X1638Y1536D01*
X2016Y1536D02*
X2039Y1536D01*
X3316Y1536D02*
X3339Y1536D01*
X5566Y1536D02*
X5589Y1536D01*
X10962Y1536D02*
X10985Y1536D01*
X1615Y1535D02*
X1638Y1535D01*
X2016Y1535D02*
X2039Y1535D01*
X3316Y1535D02*
X3339Y1535D01*
X5566Y1535D02*
X5589Y1535D01*
X10962Y1535D02*
X10985Y1535D01*
X1615Y1534D02*
X1638Y1534D01*
X2016Y1534D02*
X2039Y1534D01*
X3316Y1534D02*
X3339Y1534D01*
X5566Y1534D02*
X5589Y1534D01*
X10962Y1534D02*
X10985Y1534D01*
X1615Y1533D02*
X1638Y1533D01*
X2016Y1533D02*
X2039Y1533D01*
X3316Y1533D02*
X3339Y1533D01*
X5566Y1533D02*
X5589Y1533D01*
X10962Y1533D02*
X10985Y1533D01*
X1615Y1532D02*
X1638Y1532D01*
X2016Y1532D02*
X2039Y1532D01*
X3316Y1532D02*
X3339Y1532D01*
X5566Y1532D02*
X5589Y1532D01*
X10962Y1532D02*
X10985Y1532D01*
X1615Y1531D02*
X1638Y1531D01*
X2016Y1531D02*
X2039Y1531D01*
X3316Y1531D02*
X3339Y1531D01*
X5566Y1531D02*
X5589Y1531D01*
X10962Y1531D02*
X10985Y1531D01*
X1615Y1530D02*
X1638Y1530D01*
X2016Y1530D02*
X2039Y1530D01*
X3316Y1530D02*
X3339Y1530D01*
X5566Y1530D02*
X5589Y1530D01*
X10962Y1530D02*
X10985Y1530D01*
X1615Y1529D02*
X1638Y1529D01*
X2016Y1529D02*
X2039Y1529D01*
X3316Y1529D02*
X3339Y1529D01*
X5566Y1529D02*
X5589Y1529D01*
X10962Y1529D02*
X10985Y1529D01*
X1615Y1528D02*
X1638Y1528D01*
X2016Y1528D02*
X2039Y1528D01*
X3316Y1528D02*
X3339Y1528D01*
X5566Y1528D02*
X5589Y1528D01*
X10962Y1528D02*
X10985Y1528D01*
X1615Y1527D02*
X1638Y1527D01*
X2016Y1527D02*
X2039Y1527D01*
X3316Y1527D02*
X3339Y1527D01*
X5566Y1527D02*
X5589Y1527D01*
X10962Y1527D02*
X10985Y1527D01*
X1615Y1526D02*
X1638Y1526D01*
X2016Y1526D02*
X2039Y1526D01*
X3316Y1526D02*
X3339Y1526D01*
X5566Y1526D02*
X5589Y1526D01*
X10962Y1526D02*
X10985Y1526D01*
X1615Y1525D02*
X1638Y1525D01*
X2016Y1525D02*
X2039Y1525D01*
X3316Y1525D02*
X3339Y1525D01*
X5566Y1525D02*
X5589Y1525D01*
X10962Y1525D02*
X10985Y1525D01*
X1615Y1524D02*
X1638Y1524D01*
X2016Y1524D02*
X2039Y1524D01*
X3316Y1524D02*
X3339Y1524D01*
X5566Y1524D02*
X5589Y1524D01*
X10962Y1524D02*
X10985Y1524D01*
X1615Y1523D02*
X1638Y1523D01*
X2016Y1523D02*
X2039Y1523D01*
X3316Y1523D02*
X3339Y1523D01*
X5566Y1523D02*
X5589Y1523D01*
X10962Y1523D02*
X10985Y1523D01*
X1615Y1522D02*
X1638Y1522D01*
X2016Y1522D02*
X2039Y1522D01*
X3316Y1522D02*
X3339Y1522D01*
X5566Y1522D02*
X5589Y1522D01*
X10962Y1522D02*
X10985Y1522D01*
X1615Y1521D02*
X1638Y1521D01*
X2016Y1521D02*
X2039Y1521D01*
X3316Y1521D02*
X3339Y1521D01*
X5566Y1521D02*
X5589Y1521D01*
X10962Y1521D02*
X10985Y1521D01*
X1615Y1520D02*
X1638Y1520D01*
X2016Y1520D02*
X2039Y1520D01*
X3316Y1520D02*
X3339Y1520D01*
X5566Y1520D02*
X5589Y1520D01*
X10962Y1520D02*
X10985Y1520D01*
X1615Y1519D02*
X1638Y1519D01*
X2016Y1519D02*
X2039Y1519D01*
X3316Y1519D02*
X3339Y1519D01*
X5566Y1519D02*
X5589Y1519D01*
X10962Y1519D02*
X10985Y1519D01*
X1615Y1518D02*
X1638Y1518D01*
X2016Y1518D02*
X2039Y1518D01*
X3316Y1518D02*
X3339Y1518D01*
X5566Y1518D02*
X5589Y1518D01*
X10962Y1518D02*
X10985Y1518D01*
X1615Y1517D02*
X1638Y1517D01*
X2016Y1517D02*
X2039Y1517D01*
X3316Y1517D02*
X3339Y1517D01*
X5020Y1517D02*
X5589Y1517D01*
X10962Y1517D02*
X10985Y1517D01*
X1247Y1516D02*
X3388Y1516D01*
X4249Y1516D02*
X5589Y1516D01*
X10962Y1516D02*
X10985Y1516D01*
X924Y1515D02*
X5589Y1515D01*
X8774Y1515D02*
X10522Y1515D01*
X10962Y1515D02*
X10985Y1515D01*
X921Y1514D02*
X5589Y1514D01*
X8771Y1514D02*
X10765Y1514D01*
X10962Y1514D02*
X10985Y1514D01*
X919Y1513D02*
X5589Y1513D01*
X8769Y1513D02*
X10985Y1513D01*
X918Y1512D02*
X5589Y1512D01*
X8768Y1512D02*
X10985Y1512D01*
X917Y1511D02*
X5589Y1511D01*
X8767Y1511D02*
X10985Y1511D01*
X916Y1510D02*
X5589Y1510D01*
X8766Y1510D02*
X10985Y1510D01*
X916Y1509D02*
X5589Y1509D01*
X8765Y1509D02*
X10985Y1509D01*
X915Y1508D02*
X5589Y1508D01*
X8765Y1508D02*
X10985Y1508D01*
X915Y1507D02*
X5589Y1507D01*
X8765Y1507D02*
X10985Y1507D01*
X915Y1506D02*
X5589Y1506D01*
X8764Y1506D02*
X10985Y1506D01*
X914Y1505D02*
X5589Y1505D01*
X8764Y1505D02*
X10985Y1505D01*
X914Y1504D02*
X5589Y1504D01*
X8764Y1504D02*
X10985Y1504D01*
X914Y1503D02*
X5589Y1503D01*
X8764Y1503D02*
X10985Y1503D01*
X914Y1502D02*
X5588Y1502D01*
X8764Y1502D02*
X10985Y1502D01*
X914Y1501D02*
X5588Y1501D01*
X8764Y1501D02*
X10985Y1501D01*
X915Y1500D02*
X5587Y1500D01*
X8764Y1500D02*
X10985Y1500D01*
X915Y1499D02*
X5587Y1499D01*
X8765Y1499D02*
X10985Y1499D01*
X915Y1498D02*
X5586Y1498D01*
X8765Y1498D02*
X10985Y1498D01*
X916Y1497D02*
X5585Y1497D01*
X8766Y1497D02*
X10984Y1497D01*
X917Y1496D02*
X5584Y1496D01*
X8766Y1496D02*
X10984Y1496D01*
X918Y1495D02*
X5582Y1495D01*
X8767Y1495D02*
X10983Y1495D01*
X919Y1494D02*
X5579Y1494D01*
X8768Y1494D02*
X10983Y1494D01*
X920Y1493D02*
X5015Y1493D01*
X8770Y1493D02*
X10982Y1493D01*
X922Y1492D02*
X1248Y1492D01*
X3387Y1492D02*
X4248Y1492D01*
X8772Y1492D02*
X10981Y1492D01*
X10521Y1491D02*
X10979Y1491D01*
X10764Y1490D02*
X10977Y1490D01*
X924Y1115D02*
X3728Y1115D01*
X4024Y1115D02*
X5977Y1115D01*
X921Y1114D02*
X3730Y1114D01*
X4021Y1114D02*
X5980Y1114D01*
X919Y1113D02*
X3732Y1113D01*
X4019Y1113D02*
X5982Y1113D01*
X918Y1112D02*
X3733Y1112D01*
X4018Y1112D02*
X5983Y1112D01*
X917Y1111D02*
X3734Y1111D01*
X4017Y1111D02*
X5984Y1111D01*
X916Y1110D02*
X3735Y1110D01*
X4016Y1110D02*
X5985Y1110D01*
X916Y1109D02*
X3736Y1109D01*
X4016Y1109D02*
X5985Y1109D01*
X915Y1108D02*
X3736Y1108D01*
X4015Y1108D02*
X5986Y1108D01*
X915Y1107D02*
X3736Y1107D01*
X4015Y1107D02*
X5986Y1107D01*
X915Y1106D02*
X3737Y1106D01*
X4014Y1106D02*
X5987Y1106D01*
X914Y1105D02*
X3737Y1105D01*
X4014Y1105D02*
X5987Y1105D01*
X914Y1104D02*
X3737Y1104D01*
X4014Y1104D02*
X5987Y1104D01*
X914Y1103D02*
X3737Y1103D01*
X4014Y1103D02*
X5987Y1103D01*
X914Y1102D02*
X3737Y1102D01*
X4014Y1102D02*
X5987Y1102D01*
X914Y1101D02*
X3737Y1101D01*
X4014Y1101D02*
X5987Y1101D01*
X915Y1100D02*
X3737Y1100D01*
X4015Y1100D02*
X5986Y1100D01*
X915Y1099D02*
X3736Y1099D01*
X4015Y1099D02*
X5986Y1099D01*
X916Y1098D02*
X3736Y1098D01*
X4015Y1098D02*
X5986Y1098D01*
X916Y1097D02*
X3735Y1097D01*
X4016Y1097D02*
X5985Y1097D01*
X917Y1096D02*
X3735Y1096D01*
X4017Y1096D02*
X5984Y1096D01*
X918Y1095D02*
X3734Y1095D01*
X4017Y1095D02*
X5984Y1095D01*
X919Y1094D02*
X3733Y1094D01*
X4019Y1094D02*
X5982Y1094D01*
X920Y1093D02*
X3731Y1093D01*
X4020Y1093D02*
X5981Y1093D01*
X922Y1092D02*
X3729Y1092D01*
X4022Y1092D02*
X5979Y1092D01*
X924Y1015D02*
X3828Y1015D01*
X921Y1014D02*
X3830Y1014D01*
X919Y1013D02*
X3832Y1013D01*
X918Y1012D02*
X3833Y1012D01*
X917Y1011D02*
X3834Y1011D01*
X916Y1010D02*
X3835Y1010D01*
X916Y1009D02*
X3836Y1009D01*
X915Y1008D02*
X3836Y1008D01*
X915Y1007D02*
X3836Y1007D01*
X915Y1006D02*
X3837Y1006D01*
X914Y1005D02*
X3837Y1005D01*
X914Y1004D02*
X3837Y1004D01*
X914Y1003D02*
X3837Y1003D01*
X914Y1002D02*
X3837Y1002D01*
X914Y1001D02*
X3837Y1001D01*
X915Y1000D02*
X3837Y1000D01*
X915Y999D02*
X3836Y999D01*
X916Y998D02*
X3836Y998D01*
X916Y997D02*
X3835Y997D01*
X917Y996D02*
X3835Y996D01*
X918Y995D02*
X3834Y995D01*
X919Y994D02*
X3833Y994D01*
X920Y993D02*
X3831Y993D01*
X922Y992D02*
X3829Y992D01*
X3594Y922D02*
X3954Y922D01*
X3194Y921D02*
X3995Y921D01*
X2794Y920D02*
X4036Y920D01*
X2394Y919D02*
X4076Y919D01*
X1993Y918D02*
X4117Y918D01*
X1593Y917D02*
X4158Y917D01*
X1193Y916D02*
X4198Y916D01*
X924Y915D02*
X4228Y915D01*
X921Y914D02*
X4230Y914D01*
X919Y913D02*
X4232Y913D01*
X918Y912D02*
X4233Y912D01*
X917Y911D02*
X4234Y911D01*
X916Y910D02*
X4235Y910D01*
X916Y909D02*
X4236Y909D01*
X915Y908D02*
X4236Y908D01*
X915Y907D02*
X4236Y907D01*
X915Y906D02*
X4237Y906D01*
X914Y905D02*
X4237Y905D01*
X914Y904D02*
X4237Y904D01*
X914Y903D02*
X4237Y903D01*
X914Y902D02*
X4237Y902D01*
X914Y901D02*
X4237Y901D01*
X915Y900D02*
X4237Y900D01*
X915Y899D02*
X4236Y899D01*
X916Y898D02*
X3590Y898D01*
X3955Y898D02*
X4236Y898D01*
X916Y897D02*
X3191Y897D01*
X3996Y897D02*
X4235Y897D01*
X917Y896D02*
X2792Y896D01*
X4036Y896D02*
X4235Y896D01*
X918Y895D02*
X2392Y895D01*
X4077Y895D02*
X4234Y895D01*
X919Y894D02*
X1993Y894D01*
X4118Y894D02*
X4233Y894D01*
X920Y893D02*
X1594Y893D01*
X4158Y893D02*
X4231Y893D01*
X922Y892D02*
X1194Y892D01*
X4199Y892D02*
X4229Y892D01*
X4204Y816D02*
X4330Y816D01*
X10480Y816D02*
X11179Y816D01*
X4023Y815D02*
X4333Y815D01*
X9473Y815D02*
X11182Y815D01*
X4021Y814D02*
X4335Y814D01*
X9470Y814D02*
X11184Y814D01*
X4019Y813D02*
X4336Y813D01*
X9469Y813D02*
X11185Y813D01*
X4018Y812D02*
X4337Y812D01*
X9468Y812D02*
X11186Y812D01*
X4017Y811D02*
X4337Y811D01*
X9467Y811D02*
X11186Y811D01*
X4016Y810D02*
X4338Y810D01*
X9466Y810D02*
X11187Y810D01*
X4016Y809D02*
X4338Y809D01*
X9465Y809D02*
X11187Y809D01*
X4015Y808D02*
X4339Y808D01*
X9465Y808D02*
X11188Y808D01*
X4015Y807D02*
X4339Y807D01*
X9464Y807D02*
X11188Y807D01*
X4014Y806D02*
X4339Y806D01*
X9464Y806D02*
X11188Y806D01*
X4014Y805D02*
X4339Y805D01*
X9464Y805D02*
X11188Y805D01*
X4014Y804D02*
X4339Y804D01*
X9464Y804D02*
X11188Y804D01*
X4014Y803D02*
X4339Y803D01*
X9464Y803D02*
X11188Y803D01*
X4014Y802D02*
X4339Y802D01*
X9464Y802D02*
X11188Y802D01*
X4014Y801D02*
X4339Y801D01*
X9464Y801D02*
X11188Y801D01*
X4015Y800D02*
X4339Y800D01*
X9464Y800D02*
X11188Y800D01*
X4015Y799D02*
X4339Y799D01*
X9465Y799D02*
X11188Y799D01*
X4015Y798D02*
X4339Y798D01*
X9465Y798D02*
X11188Y798D01*
X4016Y797D02*
X4339Y797D01*
X9466Y797D02*
X11188Y797D01*
X4017Y796D02*
X4339Y796D01*
X9466Y796D02*
X11188Y796D01*
X4018Y795D02*
X4339Y795D01*
X9467Y795D02*
X11188Y795D01*
X4019Y794D02*
X4339Y794D01*
X9468Y794D02*
X11188Y794D01*
X4020Y793D02*
X4339Y793D01*
X9470Y793D02*
X11188Y793D01*
X4022Y792D02*
X4203Y792D01*
X4316Y792D02*
X4339Y792D01*
X9472Y792D02*
X10472Y792D01*
X11165Y792D02*
X11188Y792D01*
X4316Y791D02*
X4339Y791D01*
X11165Y791D02*
X11188Y791D01*
X4316Y790D02*
X4339Y790D01*
X11165Y790D02*
X11188Y790D01*
X4316Y789D02*
X4339Y789D01*
X11165Y789D02*
X11188Y789D01*
X4316Y788D02*
X4339Y788D01*
X11165Y788D02*
X11188Y788D01*
X4316Y787D02*
X4339Y787D01*
X11165Y787D02*
X11188Y787D01*
X4316Y786D02*
X4339Y786D01*
X11165Y786D02*
X11188Y786D01*
X4316Y785D02*
X4339Y785D01*
X11165Y785D02*
X11188Y785D01*
X4316Y784D02*
X4339Y784D01*
X11165Y784D02*
X11188Y784D01*
X4316Y783D02*
X4339Y783D01*
X11165Y783D02*
X11188Y783D01*
X4316Y782D02*
X4339Y782D01*
X11165Y782D02*
X11188Y782D01*
X4316Y781D02*
X4339Y781D01*
X11165Y781D02*
X11188Y781D01*
X4316Y780D02*
X4339Y780D01*
X11165Y780D02*
X11188Y780D01*
X4316Y779D02*
X4339Y779D01*
X11165Y779D02*
X11188Y779D01*
X4316Y778D02*
X4339Y778D01*
X11165Y778D02*
X11188Y778D01*
X4316Y777D02*
X4339Y777D01*
X11165Y777D02*
X11188Y777D01*
X4316Y776D02*
X4339Y776D01*
X11165Y776D02*
X11188Y776D01*
X4316Y775D02*
X4339Y775D01*
X11165Y775D02*
X11188Y775D01*
X4316Y774D02*
X4339Y774D01*
X11165Y774D02*
X11188Y774D01*
X4316Y773D02*
X4339Y773D01*
X11165Y773D02*
X11188Y773D01*
X4316Y772D02*
X4339Y772D01*
X11165Y772D02*
X11188Y772D01*
X4316Y771D02*
X4339Y771D01*
X11165Y771D02*
X11188Y771D01*
X4316Y770D02*
X4339Y770D01*
X11165Y770D02*
X11188Y770D01*
X4316Y769D02*
X4339Y769D01*
X11165Y769D02*
X11188Y769D01*
X4316Y768D02*
X4339Y768D01*
X11165Y768D02*
X11188Y768D01*
X4316Y767D02*
X4339Y767D01*
X11165Y767D02*
X11188Y767D01*
X4316Y766D02*
X4339Y766D01*
X11165Y766D02*
X11188Y766D01*
X4316Y765D02*
X4339Y765D01*
X11165Y765D02*
X11188Y765D01*
X4316Y764D02*
X4339Y764D01*
X11165Y764D02*
X11188Y764D01*
X4316Y763D02*
X4339Y763D01*
X11165Y763D02*
X11188Y763D01*
X4316Y762D02*
X4339Y762D01*
X11165Y762D02*
X11188Y762D01*
X4316Y761D02*
X4339Y761D01*
X11165Y761D02*
X11188Y761D01*
X4316Y760D02*
X4339Y760D01*
X11165Y760D02*
X11188Y760D01*
X4316Y759D02*
X4339Y759D01*
X11165Y759D02*
X11188Y759D01*
X4316Y758D02*
X4339Y758D01*
X11165Y758D02*
X11188Y758D01*
X4316Y757D02*
X4339Y757D01*
X11165Y757D02*
X11188Y757D01*
X4316Y756D02*
X4339Y756D01*
X11165Y756D02*
X11188Y756D01*
X4316Y755D02*
X4339Y755D01*
X11165Y755D02*
X11188Y755D01*
X4316Y754D02*
X4339Y754D01*
X11165Y754D02*
X11188Y754D01*
X4316Y753D02*
X4339Y753D01*
X11165Y753D02*
X11188Y753D01*
X4316Y752D02*
X4339Y752D01*
X11165Y752D02*
X11188Y752D01*
X4316Y751D02*
X4339Y751D01*
X11165Y751D02*
X11188Y751D01*
X4316Y750D02*
X4339Y750D01*
X11165Y750D02*
X11188Y750D01*
X4316Y749D02*
X4339Y749D01*
X11165Y749D02*
X11188Y749D01*
X4316Y748D02*
X4339Y748D01*
X11165Y748D02*
X11188Y748D01*
X4316Y747D02*
X4339Y747D01*
X11165Y747D02*
X11188Y747D01*
X4316Y746D02*
X4339Y746D01*
X11165Y746D02*
X11188Y746D01*
X4316Y745D02*
X4339Y745D01*
X11165Y745D02*
X11188Y745D01*
X4316Y744D02*
X4339Y744D01*
X11165Y744D02*
X11188Y744D01*
X4316Y743D02*
X4339Y743D01*
X11165Y743D02*
X11188Y743D01*
X4316Y742D02*
X4339Y742D01*
X11165Y742D02*
X11188Y742D01*
X4316Y741D02*
X4339Y741D01*
X11165Y741D02*
X11188Y741D01*
X4316Y740D02*
X4339Y740D01*
X11165Y740D02*
X11188Y740D01*
X4316Y739D02*
X4339Y739D01*
X11165Y739D02*
X11188Y739D01*
X4316Y738D02*
X4339Y738D01*
X11165Y738D02*
X11188Y738D01*
X4316Y737D02*
X4339Y737D01*
X11165Y737D02*
X11188Y737D01*
X4316Y736D02*
X4339Y736D01*
X11165Y736D02*
X11188Y736D01*
X4316Y735D02*
X4339Y735D01*
X11165Y735D02*
X11188Y735D01*
X4316Y734D02*
X4339Y734D01*
X11165Y734D02*
X11188Y734D01*
X4316Y733D02*
X4339Y733D01*
X11165Y733D02*
X11188Y733D01*
X4316Y732D02*
X4339Y732D01*
X11165Y732D02*
X11188Y732D01*
X4316Y731D02*
X4339Y731D01*
X11165Y731D02*
X11188Y731D01*
X4316Y730D02*
X4339Y730D01*
X11165Y730D02*
X11188Y730D01*
X4316Y729D02*
X4339Y729D01*
X11165Y729D02*
X11188Y729D01*
X4316Y728D02*
X4339Y728D01*
X11165Y728D02*
X11188Y728D01*
X4316Y727D02*
X4339Y727D01*
X11165Y727D02*
X11188Y727D01*
X4316Y726D02*
X4339Y726D01*
X11165Y726D02*
X11188Y726D01*
X4316Y725D02*
X4339Y725D01*
X11165Y725D02*
X11188Y725D01*
X4316Y724D02*
X4339Y724D01*
X11165Y724D02*
X11188Y724D01*
X4316Y723D02*
X4339Y723D01*
X11165Y723D02*
X11188Y723D01*
X4316Y722D02*
X4339Y722D01*
X11165Y722D02*
X11188Y722D01*
X4316Y721D02*
X4339Y721D01*
X11165Y721D02*
X11188Y721D01*
X4316Y720D02*
X4339Y720D01*
X11165Y720D02*
X11188Y720D01*
X4316Y719D02*
X4339Y719D01*
X11165Y719D02*
X11188Y719D01*
X4316Y718D02*
X4339Y718D01*
X11165Y718D02*
X11188Y718D01*
X4316Y717D02*
X4339Y717D01*
X11165Y717D02*
X11188Y717D01*
X4316Y716D02*
X4339Y716D01*
X11165Y716D02*
X11188Y716D01*
X4316Y715D02*
X4339Y715D01*
X11165Y715D02*
X11188Y715D01*
X4316Y714D02*
X4339Y714D01*
X11165Y714D02*
X11188Y714D01*
X4316Y713D02*
X4339Y713D01*
X11165Y713D02*
X11188Y713D01*
X4316Y712D02*
X4339Y712D01*
X11165Y712D02*
X11188Y712D01*
X4316Y711D02*
X4339Y711D01*
X11165Y711D02*
X11188Y711D01*
X4316Y710D02*
X4339Y710D01*
X11165Y710D02*
X11188Y710D01*
X4316Y709D02*
X4339Y709D01*
X11165Y709D02*
X11188Y709D01*
X4316Y708D02*
X4339Y708D01*
X11165Y708D02*
X11188Y708D01*
X4316Y707D02*
X4339Y707D01*
X11165Y707D02*
X11188Y707D01*
X4316Y706D02*
X4339Y706D01*
X11165Y706D02*
X11188Y706D01*
X4316Y705D02*
X4339Y705D01*
X11165Y705D02*
X11188Y705D01*
X4316Y704D02*
X4339Y704D01*
X11165Y704D02*
X11188Y704D01*
X4316Y703D02*
X4339Y703D01*
X11165Y703D02*
X11188Y703D01*
X4316Y702D02*
X4339Y702D01*
X11165Y702D02*
X11188Y702D01*
X4316Y701D02*
X4339Y701D01*
X11165Y701D02*
X11188Y701D01*
X4316Y700D02*
X4339Y700D01*
X11165Y700D02*
X11188Y700D01*
X4316Y699D02*
X4339Y699D01*
X11165Y699D02*
X11188Y699D01*
X4316Y698D02*
X4339Y698D01*
X11165Y698D02*
X11188Y698D01*
X4316Y697D02*
X4339Y697D01*
X11165Y697D02*
X11188Y697D01*
X4316Y696D02*
X4339Y696D01*
X11165Y696D02*
X11188Y696D01*
X4316Y695D02*
X4339Y695D01*
X11165Y695D02*
X11188Y695D01*
X4316Y694D02*
X4339Y694D01*
X11165Y694D02*
X11188Y694D01*
X4316Y693D02*
X4339Y693D01*
X11165Y693D02*
X11188Y693D01*
X4316Y692D02*
X4339Y692D01*
X11165Y692D02*
X11188Y692D01*
X4316Y691D02*
X4339Y691D01*
X11165Y691D02*
X11188Y691D01*
X4316Y690D02*
X4339Y690D01*
X11165Y690D02*
X11188Y690D01*
X4316Y689D02*
X4339Y689D01*
X11165Y689D02*
X11188Y689D01*
X4316Y688D02*
X4339Y688D01*
X11165Y688D02*
X11188Y688D01*
X4316Y687D02*
X4339Y687D01*
X11165Y687D02*
X11188Y687D01*
X4316Y686D02*
X4339Y686D01*
X11165Y686D02*
X11188Y686D01*
X4316Y685D02*
X4339Y685D01*
X11165Y685D02*
X11188Y685D01*
X4316Y684D02*
X4339Y684D01*
X11165Y684D02*
X11188Y684D01*
X4316Y683D02*
X4339Y683D01*
X11165Y683D02*
X11188Y683D01*
X4316Y682D02*
X4339Y682D01*
X11165Y682D02*
X11188Y682D01*
X4316Y681D02*
X4339Y681D01*
X11165Y681D02*
X11188Y681D01*
X4316Y680D02*
X4339Y680D01*
X11165Y680D02*
X11188Y680D01*
X4316Y679D02*
X4339Y679D01*
X11165Y679D02*
X11188Y679D01*
X4316Y678D02*
X4339Y678D01*
X11165Y678D02*
X11188Y678D01*
X4316Y677D02*
X4339Y677D01*
X11165Y677D02*
X11188Y677D01*
X4316Y676D02*
X4339Y676D01*
X11165Y676D02*
X11188Y676D01*
X4316Y675D02*
X4339Y675D01*
X11165Y675D02*
X11188Y675D01*
X4316Y674D02*
X4339Y674D01*
X11165Y674D02*
X11188Y674D01*
X4316Y673D02*
X4339Y673D01*
X11165Y673D02*
X11188Y673D01*
X4316Y672D02*
X4339Y672D01*
X11165Y672D02*
X11188Y672D01*
X4316Y671D02*
X4339Y671D01*
X11165Y671D02*
X11188Y671D01*
X4316Y670D02*
X4339Y670D01*
X11165Y670D02*
X11188Y670D01*
X4316Y669D02*
X4339Y669D01*
X11165Y669D02*
X11188Y669D01*
X4316Y668D02*
X4339Y668D01*
X11165Y668D02*
X11188Y668D01*
X4316Y667D02*
X4339Y667D01*
X11165Y667D02*
X11188Y667D01*
X4316Y666D02*
X4339Y666D01*
X11165Y666D02*
X11188Y666D01*
X4316Y665D02*
X4339Y665D01*
X11165Y665D02*
X11188Y665D01*
X4316Y664D02*
X4339Y664D01*
X11165Y664D02*
X11188Y664D01*
X4316Y663D02*
X4339Y663D01*
X11165Y663D02*
X11188Y663D01*
X4316Y662D02*
X4339Y662D01*
X11165Y662D02*
X11188Y662D01*
X4316Y661D02*
X4339Y661D01*
X11165Y661D02*
X11188Y661D01*
X4316Y660D02*
X4339Y660D01*
X11165Y660D02*
X11188Y660D01*
X4316Y659D02*
X4339Y659D01*
X11165Y659D02*
X11188Y659D01*
X4316Y658D02*
X4339Y658D01*
X11165Y658D02*
X11188Y658D01*
X4316Y657D02*
X4339Y657D01*
X11165Y657D02*
X11188Y657D01*
X4316Y656D02*
X4339Y656D01*
X11165Y656D02*
X11188Y656D01*
X4316Y655D02*
X4339Y655D01*
X11165Y655D02*
X11188Y655D01*
X4316Y654D02*
X4339Y654D01*
X11165Y654D02*
X11188Y654D01*
X4316Y653D02*
X4339Y653D01*
X11165Y653D02*
X11188Y653D01*
X4316Y652D02*
X4339Y652D01*
X11165Y652D02*
X11188Y652D01*
X4316Y651D02*
X4339Y651D01*
X11165Y651D02*
X11188Y651D01*
X4316Y650D02*
X4339Y650D01*
X11165Y650D02*
X11188Y650D01*
X4316Y649D02*
X4339Y649D01*
X11165Y649D02*
X11188Y649D01*
X4316Y648D02*
X4339Y648D01*
X11165Y648D02*
X11188Y648D01*
X4316Y647D02*
X4339Y647D01*
X11165Y647D02*
X11188Y647D01*
X4316Y646D02*
X4339Y646D01*
X11165Y646D02*
X11188Y646D01*
X4316Y645D02*
X4339Y645D01*
X11165Y645D02*
X11188Y645D01*
X4316Y644D02*
X4339Y644D01*
X11165Y644D02*
X11188Y644D01*
X4316Y643D02*
X4339Y643D01*
X11165Y643D02*
X11188Y643D01*
X4316Y642D02*
X4339Y642D01*
X11165Y642D02*
X11188Y642D01*
X4316Y641D02*
X4339Y641D01*
X11165Y641D02*
X11188Y641D01*
X4316Y640D02*
X4339Y640D01*
X11165Y640D02*
X11188Y640D01*
X4316Y639D02*
X4339Y639D01*
X11165Y639D02*
X11188Y639D01*
X4316Y638D02*
X4339Y638D01*
X11165Y638D02*
X11188Y638D01*
X4316Y637D02*
X4339Y637D01*
X11165Y637D02*
X11188Y637D01*
X4316Y636D02*
X4339Y636D01*
X11165Y636D02*
X11188Y636D01*
X4316Y635D02*
X4339Y635D01*
X11165Y635D02*
X11188Y635D01*
X4316Y634D02*
X4339Y634D01*
X11165Y634D02*
X11188Y634D01*
X4316Y633D02*
X4339Y633D01*
X11165Y633D02*
X11188Y633D01*
X4316Y632D02*
X4339Y632D01*
X11165Y632D02*
X11188Y632D01*
X4316Y631D02*
X4339Y631D01*
X11165Y631D02*
X11188Y631D01*
X4316Y630D02*
X4339Y630D01*
X11165Y630D02*
X11188Y630D01*
X4316Y629D02*
X4339Y629D01*
X11165Y629D02*
X11188Y629D01*
X4316Y628D02*
X4339Y628D01*
X11165Y628D02*
X11188Y628D01*
X4316Y627D02*
X4339Y627D01*
X11165Y627D02*
X11188Y627D01*
X4316Y626D02*
X4339Y626D01*
X11165Y626D02*
X11188Y626D01*
X4316Y625D02*
X4339Y625D01*
X11165Y625D02*
X11188Y625D01*
X4316Y624D02*
X4339Y624D01*
X11165Y624D02*
X11188Y624D01*
X4316Y623D02*
X4339Y623D01*
X11165Y623D02*
X11188Y623D01*
X4316Y622D02*
X4339Y622D01*
X11165Y622D02*
X11188Y622D01*
X4316Y621D02*
X4339Y621D01*
X11165Y621D02*
X11188Y621D01*
X4316Y620D02*
X4339Y620D01*
X11165Y620D02*
X11188Y620D01*
X4316Y619D02*
X4339Y619D01*
X11165Y619D02*
X11188Y619D01*
X4316Y618D02*
X4339Y618D01*
X11165Y618D02*
X11188Y618D01*
X4316Y617D02*
X4339Y617D01*
X11165Y617D02*
X11188Y617D01*
X4316Y616D02*
X4339Y616D01*
X11165Y616D02*
X11188Y616D01*
X4316Y615D02*
X4339Y615D01*
X10473Y615D02*
X10478Y615D01*
X11165Y615D02*
X11188Y615D01*
X4316Y614D02*
X4339Y614D01*
X10470Y614D02*
X10480Y614D01*
X11165Y614D02*
X11188Y614D01*
X4316Y613D02*
X4339Y613D01*
X10469Y613D02*
X10482Y613D01*
X11165Y613D02*
X11188Y613D01*
X4316Y612D02*
X4339Y612D01*
X10467Y612D02*
X10483Y612D01*
X11165Y612D02*
X11188Y612D01*
X4316Y611D02*
X4339Y611D01*
X10466Y611D02*
X10484Y611D01*
X11165Y611D02*
X11188Y611D01*
X4316Y610D02*
X4339Y610D01*
X10466Y610D02*
X10485Y610D01*
X11165Y610D02*
X11188Y610D01*
X4316Y609D02*
X4339Y609D01*
X10465Y609D02*
X10485Y609D01*
X11165Y609D02*
X11188Y609D01*
X4316Y608D02*
X4339Y608D01*
X10465Y608D02*
X10486Y608D01*
X11165Y608D02*
X11188Y608D01*
X4316Y607D02*
X4339Y607D01*
X10464Y607D02*
X10486Y607D01*
X11165Y607D02*
X11188Y607D01*
X4316Y606D02*
X4339Y606D01*
X10464Y606D02*
X10486Y606D01*
X11165Y606D02*
X11188Y606D01*
X4316Y605D02*
X4339Y605D01*
X10464Y605D02*
X10487Y605D01*
X11165Y605D02*
X11188Y605D01*
X4316Y604D02*
X4339Y604D01*
X10464Y604D02*
X10487Y604D01*
X11165Y604D02*
X11188Y604D01*
X4316Y603D02*
X4339Y603D01*
X10464Y603D02*
X10487Y603D01*
X11165Y603D02*
X11188Y603D01*
X4316Y602D02*
X4339Y602D01*
X10464Y602D02*
X10487Y602D01*
X11165Y602D02*
X11188Y602D01*
X4316Y601D02*
X4339Y601D01*
X10464Y601D02*
X10487Y601D01*
X11165Y601D02*
X11188Y601D01*
X4316Y600D02*
X4339Y600D01*
X10464Y600D02*
X10487Y600D01*
X11165Y600D02*
X11188Y600D01*
X4316Y599D02*
X4339Y599D01*
X10464Y599D02*
X10487Y599D01*
X11165Y599D02*
X11188Y599D01*
X4316Y598D02*
X4339Y598D01*
X10464Y598D02*
X10487Y598D01*
X11165Y598D02*
X11188Y598D01*
X4316Y597D02*
X4339Y597D01*
X10464Y597D02*
X10487Y597D01*
X11165Y597D02*
X11188Y597D01*
X4316Y596D02*
X4339Y596D01*
X10464Y596D02*
X10487Y596D01*
X11165Y596D02*
X11188Y596D01*
X4316Y595D02*
X4339Y595D01*
X10464Y595D02*
X10487Y595D01*
X11165Y595D02*
X11188Y595D01*
X4316Y594D02*
X4339Y594D01*
X10464Y594D02*
X10487Y594D01*
X11165Y594D02*
X11188Y594D01*
X4316Y593D02*
X4339Y593D01*
X10464Y593D02*
X10487Y593D01*
X11165Y593D02*
X11188Y593D01*
X4316Y592D02*
X4339Y592D01*
X10464Y592D02*
X10487Y592D01*
X11165Y592D02*
X11188Y592D01*
X4316Y591D02*
X4339Y591D01*
X10464Y591D02*
X10487Y591D01*
X11165Y591D02*
X11188Y591D01*
X4316Y590D02*
X4339Y590D01*
X10464Y590D02*
X10487Y590D01*
X11165Y590D02*
X11188Y590D01*
X4316Y589D02*
X4339Y589D01*
X10464Y589D02*
X10487Y589D01*
X11165Y589D02*
X11188Y589D01*
X4316Y588D02*
X4339Y588D01*
X10464Y588D02*
X10487Y588D01*
X11165Y588D02*
X11188Y588D01*
X4316Y587D02*
X4339Y587D01*
X10464Y587D02*
X10487Y587D01*
X11165Y587D02*
X11188Y587D01*
X4316Y586D02*
X4339Y586D01*
X10464Y586D02*
X10487Y586D01*
X11165Y586D02*
X11188Y586D01*
X4316Y585D02*
X4339Y585D01*
X10464Y585D02*
X10487Y585D01*
X11165Y585D02*
X11188Y585D01*
X4316Y584D02*
X4339Y584D01*
X10464Y584D02*
X10487Y584D01*
X11165Y584D02*
X11188Y584D01*
X4316Y583D02*
X4339Y583D01*
X10464Y583D02*
X10487Y583D01*
X11165Y583D02*
X11188Y583D01*
X4316Y582D02*
X4339Y582D01*
X10464Y582D02*
X10487Y582D01*
X11165Y582D02*
X11188Y582D01*
X4316Y581D02*
X4339Y581D01*
X10464Y581D02*
X10487Y581D01*
X11165Y581D02*
X11188Y581D01*
X4316Y580D02*
X4339Y580D01*
X10464Y580D02*
X10487Y580D01*
X11165Y580D02*
X11188Y580D01*
X4316Y579D02*
X4339Y579D01*
X10464Y579D02*
X10487Y579D01*
X11165Y579D02*
X11188Y579D01*
X4316Y578D02*
X4339Y578D01*
X10464Y578D02*
X10487Y578D01*
X11164Y578D02*
X11188Y578D01*
X4316Y577D02*
X4339Y577D01*
X10464Y577D02*
X10487Y577D01*
X11164Y577D02*
X11188Y577D01*
X4316Y576D02*
X4339Y576D01*
X10464Y576D02*
X10487Y576D01*
X11164Y576D02*
X11187Y576D01*
X4316Y575D02*
X4339Y575D01*
X10464Y575D02*
X10487Y575D01*
X11164Y575D02*
X11187Y575D01*
X4316Y574D02*
X4339Y574D01*
X10464Y574D02*
X10487Y574D01*
X11164Y574D02*
X11187Y574D01*
X4316Y573D02*
X4339Y573D01*
X10464Y573D02*
X10487Y573D01*
X11164Y573D02*
X11187Y573D01*
X4316Y572D02*
X4339Y572D01*
X10464Y572D02*
X10487Y572D01*
X11164Y572D02*
X11187Y572D01*
X4316Y571D02*
X4339Y571D01*
X10464Y571D02*
X10487Y571D01*
X11164Y571D02*
X11187Y571D01*
X4316Y570D02*
X4339Y570D01*
X10464Y570D02*
X10487Y570D01*
X11164Y570D02*
X11187Y570D01*
X4316Y569D02*
X4339Y569D01*
X10464Y569D02*
X10487Y569D01*
X11164Y569D02*
X11187Y569D01*
X4316Y568D02*
X4339Y568D01*
X10464Y568D02*
X10487Y568D01*
X11164Y568D02*
X11187Y568D01*
X4316Y567D02*
X4339Y567D01*
X10464Y567D02*
X10487Y567D01*
X11164Y567D02*
X11187Y567D01*
X4315Y566D02*
X4339Y566D01*
X10464Y566D02*
X10487Y566D01*
X11164Y566D02*
X11187Y566D01*
X4315Y565D02*
X4338Y565D01*
X10464Y565D02*
X10487Y565D01*
X11164Y565D02*
X11187Y565D01*
X4315Y564D02*
X4338Y564D01*
X10464Y564D02*
X10487Y564D01*
X11164Y564D02*
X11187Y564D01*
X4315Y563D02*
X4338Y563D01*
X10464Y563D02*
X10487Y563D01*
X11164Y563D02*
X11187Y563D01*
X4315Y562D02*
X4338Y562D01*
X10464Y562D02*
X10487Y562D01*
X11164Y562D02*
X11187Y562D01*
X4315Y561D02*
X4338Y561D01*
X10464Y561D02*
X10487Y561D01*
X11164Y561D02*
X11187Y561D01*
X4315Y560D02*
X4338Y560D01*
X10464Y560D02*
X10487Y560D01*
X11164Y560D02*
X11187Y560D01*
X4315Y559D02*
X4338Y559D01*
X10464Y559D02*
X10487Y559D01*
X11164Y559D02*
X11187Y559D01*
X4315Y558D02*
X4338Y558D01*
X10464Y558D02*
X10487Y558D01*
X11164Y558D02*
X11187Y558D01*
X4315Y557D02*
X4338Y557D01*
X10464Y557D02*
X10487Y557D01*
X11164Y557D02*
X11187Y557D01*
X4315Y556D02*
X4338Y556D01*
X10464Y556D02*
X10487Y556D01*
X11164Y556D02*
X11187Y556D01*
X4315Y555D02*
X4338Y555D01*
X10464Y555D02*
X10487Y555D01*
X11164Y555D02*
X11187Y555D01*
X4315Y554D02*
X4338Y554D01*
X10464Y554D02*
X10487Y554D01*
X11164Y554D02*
X11187Y554D01*
X4315Y553D02*
X4338Y553D01*
X10464Y553D02*
X10487Y553D01*
X11164Y553D02*
X11187Y553D01*
X4315Y552D02*
X4338Y552D01*
X10464Y552D02*
X10487Y552D01*
X11164Y552D02*
X11187Y552D01*
X4315Y551D02*
X4338Y551D01*
X10464Y551D02*
X10487Y551D01*
X11164Y551D02*
X11187Y551D01*
X4315Y550D02*
X4338Y550D01*
X10464Y550D02*
X10487Y550D01*
X11164Y550D02*
X11187Y550D01*
X4315Y549D02*
X4338Y549D01*
X10464Y549D02*
X10487Y549D01*
X11164Y549D02*
X11187Y549D01*
X4315Y548D02*
X4338Y548D01*
X10464Y548D02*
X10487Y548D01*
X11164Y548D02*
X11187Y548D01*
X4315Y547D02*
X4338Y547D01*
X10464Y547D02*
X10487Y547D01*
X11164Y547D02*
X11187Y547D01*
X4315Y546D02*
X4338Y546D01*
X10464Y546D02*
X10487Y546D01*
X11164Y546D02*
X11187Y546D01*
X4315Y545D02*
X4338Y545D01*
X10464Y545D02*
X10487Y545D01*
X11164Y545D02*
X11187Y545D01*
X4315Y544D02*
X4338Y544D01*
X10464Y544D02*
X10487Y544D01*
X11164Y544D02*
X11187Y544D01*
X4315Y543D02*
X4338Y543D01*
X10464Y543D02*
X10487Y543D01*
X11164Y543D02*
X11187Y543D01*
X4315Y542D02*
X4338Y542D01*
X10464Y542D02*
X10487Y542D01*
X11164Y542D02*
X11187Y542D01*
X4315Y541D02*
X4338Y541D01*
X10464Y541D02*
X10487Y541D01*
X11164Y541D02*
X11187Y541D01*
X4315Y540D02*
X4338Y540D01*
X10464Y540D02*
X10487Y540D01*
X11164Y540D02*
X11187Y540D01*
X4315Y539D02*
X4338Y539D01*
X10464Y539D02*
X10487Y539D01*
X11164Y539D02*
X11187Y539D01*
X4315Y538D02*
X4338Y538D01*
X10464Y538D02*
X10487Y538D01*
X11164Y538D02*
X11187Y538D01*
X4315Y537D02*
X4338Y537D01*
X10464Y537D02*
X10487Y537D01*
X11164Y537D02*
X11187Y537D01*
X4315Y536D02*
X4338Y536D01*
X10464Y536D02*
X10487Y536D01*
X11164Y536D02*
X11187Y536D01*
X4315Y535D02*
X4338Y535D01*
X10464Y535D02*
X10487Y535D01*
X11164Y535D02*
X11187Y535D01*
X4315Y534D02*
X4338Y534D01*
X10464Y534D02*
X10487Y534D01*
X11164Y534D02*
X11187Y534D01*
X4315Y533D02*
X4338Y533D01*
X10464Y533D02*
X10487Y533D01*
X11164Y533D02*
X11187Y533D01*
X4315Y532D02*
X4338Y532D01*
X10464Y532D02*
X10487Y532D01*
X11164Y532D02*
X11187Y532D01*
X4315Y531D02*
X4338Y531D01*
X10464Y531D02*
X10487Y531D01*
X11164Y531D02*
X11187Y531D01*
X4315Y530D02*
X4338Y530D01*
X10464Y530D02*
X10487Y530D01*
X11164Y530D02*
X11187Y530D01*
X4315Y529D02*
X4338Y529D01*
X10464Y529D02*
X10487Y529D01*
X11164Y529D02*
X11187Y529D01*
X4315Y528D02*
X4338Y528D01*
X10464Y528D02*
X10487Y528D01*
X11164Y528D02*
X11187Y528D01*
X4315Y527D02*
X4338Y527D01*
X10464Y527D02*
X10487Y527D01*
X11164Y527D02*
X11187Y527D01*
X4315Y526D02*
X4338Y526D01*
X10464Y526D02*
X10487Y526D01*
X11164Y526D02*
X11187Y526D01*
X4315Y525D02*
X4338Y525D01*
X10464Y525D02*
X10487Y525D01*
X11164Y525D02*
X11187Y525D01*
X4315Y524D02*
X4338Y524D01*
X10464Y524D02*
X10487Y524D01*
X11164Y524D02*
X11187Y524D01*
X4315Y523D02*
X4338Y523D01*
X10464Y523D02*
X10487Y523D01*
X11164Y523D02*
X11187Y523D01*
X4315Y522D02*
X4338Y522D01*
X10464Y522D02*
X10487Y522D01*
X11164Y522D02*
X11187Y522D01*
X4315Y521D02*
X4338Y521D01*
X10464Y521D02*
X10487Y521D01*
X11164Y521D02*
X11187Y521D01*
X4315Y520D02*
X4338Y520D01*
X10464Y520D02*
X10487Y520D01*
X11164Y520D02*
X11187Y520D01*
X4315Y519D02*
X4338Y519D01*
X10464Y519D02*
X10487Y519D01*
X11164Y519D02*
X11187Y519D01*
X4315Y518D02*
X4338Y518D01*
X10464Y518D02*
X10487Y518D01*
X11164Y518D02*
X11187Y518D01*
X4315Y517D02*
X4338Y517D01*
X10464Y517D02*
X10487Y517D01*
X11164Y517D02*
X11187Y517D01*
X4315Y516D02*
X4338Y516D01*
X10464Y516D02*
X10487Y516D01*
X11164Y516D02*
X11187Y516D01*
X4315Y515D02*
X4338Y515D01*
X10464Y515D02*
X10487Y515D01*
X11164Y515D02*
X11187Y515D01*
X4315Y514D02*
X4338Y514D01*
X10464Y514D02*
X10487Y514D01*
X11164Y514D02*
X11187Y514D01*
X4315Y513D02*
X4338Y513D01*
X10464Y513D02*
X10487Y513D01*
X11164Y513D02*
X11187Y513D01*
X4315Y512D02*
X4338Y512D01*
X10464Y512D02*
X10487Y512D01*
X11164Y512D02*
X11187Y512D01*
X4315Y511D02*
X4338Y511D01*
X10464Y511D02*
X10487Y511D01*
X11164Y511D02*
X11187Y511D01*
X4315Y510D02*
X4338Y510D01*
X10464Y510D02*
X10487Y510D01*
X11164Y510D02*
X11187Y510D01*
X4315Y509D02*
X4338Y509D01*
X10464Y509D02*
X10487Y509D01*
X11164Y509D02*
X11187Y509D01*
X4315Y508D02*
X4338Y508D01*
X10464Y508D02*
X10487Y508D01*
X11164Y508D02*
X11187Y508D01*
X4315Y507D02*
X4338Y507D01*
X10464Y507D02*
X10487Y507D01*
X11164Y507D02*
X11187Y507D01*
X4315Y506D02*
X4338Y506D01*
X10464Y506D02*
X10487Y506D01*
X11164Y506D02*
X11187Y506D01*
X4315Y505D02*
X4338Y505D01*
X10464Y505D02*
X10487Y505D01*
X11164Y505D02*
X11187Y505D01*
X4315Y504D02*
X4338Y504D01*
X10464Y504D02*
X10487Y504D01*
X11164Y504D02*
X11187Y504D01*
X4315Y503D02*
X4338Y503D01*
X10464Y503D02*
X10487Y503D01*
X11164Y503D02*
X11187Y503D01*
X4315Y502D02*
X4338Y502D01*
X10464Y502D02*
X10487Y502D01*
X11164Y502D02*
X11187Y502D01*
X4315Y501D02*
X4338Y501D01*
X10464Y501D02*
X10487Y501D01*
X11164Y501D02*
X11187Y501D01*
X4315Y500D02*
X4338Y500D01*
X10464Y500D02*
X10487Y500D01*
X11164Y500D02*
X11187Y500D01*
X4315Y499D02*
X4338Y499D01*
X10464Y499D02*
X10487Y499D01*
X11164Y499D02*
X11187Y499D01*
X4315Y498D02*
X4338Y498D01*
X10464Y498D02*
X10487Y498D01*
X11164Y498D02*
X11187Y498D01*
X4315Y497D02*
X4338Y497D01*
X10464Y497D02*
X10487Y497D01*
X11164Y497D02*
X11187Y497D01*
X4315Y496D02*
X4338Y496D01*
X10464Y496D02*
X10487Y496D01*
X11164Y496D02*
X11187Y496D01*
X4315Y495D02*
X4338Y495D01*
X10464Y495D02*
X10487Y495D01*
X11164Y495D02*
X11187Y495D01*
X4315Y494D02*
X4338Y494D01*
X10464Y494D02*
X10487Y494D01*
X11164Y494D02*
X11187Y494D01*
X4315Y493D02*
X4338Y493D01*
X10464Y493D02*
X10487Y493D01*
X11164Y493D02*
X11187Y493D01*
X4315Y492D02*
X4338Y492D01*
X10464Y492D02*
X10487Y492D01*
X11164Y492D02*
X11187Y492D01*
X4315Y491D02*
X4338Y491D01*
X10464Y491D02*
X10487Y491D01*
X11164Y491D02*
X11187Y491D01*
X4315Y490D02*
X4338Y490D01*
X10464Y490D02*
X10487Y490D01*
X11164Y490D02*
X11187Y490D01*
X4315Y489D02*
X4338Y489D01*
X10464Y489D02*
X10487Y489D01*
X11164Y489D02*
X11187Y489D01*
X4315Y488D02*
X4338Y488D01*
X10464Y488D02*
X10487Y488D01*
X11164Y488D02*
X11187Y488D01*
X4315Y487D02*
X4338Y487D01*
X10464Y487D02*
X10487Y487D01*
X11164Y487D02*
X11187Y487D01*
X4315Y486D02*
X4338Y486D01*
X10464Y486D02*
X10487Y486D01*
X11164Y486D02*
X11187Y486D01*
X4315Y485D02*
X4338Y485D01*
X10464Y485D02*
X10487Y485D01*
X11164Y485D02*
X11187Y485D01*
X4315Y484D02*
X4338Y484D01*
X10464Y484D02*
X10487Y484D01*
X11164Y484D02*
X11187Y484D01*
X4315Y483D02*
X4338Y483D01*
X10464Y483D02*
X10487Y483D01*
X11164Y483D02*
X11187Y483D01*
X4315Y482D02*
X4338Y482D01*
X10464Y482D02*
X10487Y482D01*
X11164Y482D02*
X11187Y482D01*
X4315Y481D02*
X4338Y481D01*
X10464Y481D02*
X10487Y481D01*
X11164Y481D02*
X11187Y481D01*
X4315Y480D02*
X4338Y480D01*
X10464Y480D02*
X10487Y480D01*
X11164Y480D02*
X11187Y480D01*
X4315Y479D02*
X4338Y479D01*
X10464Y479D02*
X10487Y479D01*
X11164Y479D02*
X11187Y479D01*
X4315Y478D02*
X4338Y478D01*
X10464Y478D02*
X10487Y478D01*
X11164Y478D02*
X11187Y478D01*
X4315Y477D02*
X4338Y477D01*
X10464Y477D02*
X10487Y477D01*
X11164Y477D02*
X11187Y477D01*
X4315Y476D02*
X4338Y476D01*
X10464Y476D02*
X10487Y476D01*
X11164Y476D02*
X11187Y476D01*
X4315Y475D02*
X4338Y475D01*
X10464Y475D02*
X10487Y475D01*
X11164Y475D02*
X11187Y475D01*
X4315Y474D02*
X4338Y474D01*
X10464Y474D02*
X10487Y474D01*
X11164Y474D02*
X11187Y474D01*
X4315Y473D02*
X4338Y473D01*
X10464Y473D02*
X10487Y473D01*
X11164Y473D02*
X11187Y473D01*
X4315Y472D02*
X4338Y472D01*
X10464Y472D02*
X10487Y472D01*
X11164Y472D02*
X11187Y472D01*
X4315Y471D02*
X4338Y471D01*
X10464Y471D02*
X10487Y471D01*
X11164Y471D02*
X11187Y471D01*
X4315Y470D02*
X4338Y470D01*
X10464Y470D02*
X10487Y470D01*
X11164Y470D02*
X11187Y470D01*
X4315Y469D02*
X4338Y469D01*
X10464Y469D02*
X10487Y469D01*
X11164Y469D02*
X11187Y469D01*
X4315Y468D02*
X4338Y468D01*
X10464Y468D02*
X10487Y468D01*
X11164Y468D02*
X11187Y468D01*
X4315Y467D02*
X4338Y467D01*
X10464Y467D02*
X10487Y467D01*
X11164Y467D02*
X11187Y467D01*
X4315Y466D02*
X4338Y466D01*
X10464Y466D02*
X10487Y466D01*
X11164Y466D02*
X11187Y466D01*
X4315Y465D02*
X4338Y465D01*
X10464Y465D02*
X10487Y465D01*
X11164Y465D02*
X11187Y465D01*
X4315Y464D02*
X4338Y464D01*
X10464Y464D02*
X10487Y464D01*
X11164Y464D02*
X11187Y464D01*
X4315Y463D02*
X4338Y463D01*
X10464Y463D02*
X10487Y463D01*
X11164Y463D02*
X11187Y463D01*
X4315Y462D02*
X4338Y462D01*
X10464Y462D02*
X10487Y462D01*
X11164Y462D02*
X11187Y462D01*
X4315Y461D02*
X4338Y461D01*
X10464Y461D02*
X10487Y461D01*
X11164Y461D02*
X11187Y461D01*
X4315Y460D02*
X4338Y460D01*
X10464Y460D02*
X10487Y460D01*
X11164Y460D02*
X11187Y460D01*
X4315Y459D02*
X4338Y459D01*
X10464Y459D02*
X10487Y459D01*
X11164Y459D02*
X11187Y459D01*
X4315Y458D02*
X4338Y458D01*
X10464Y458D02*
X10487Y458D01*
X11164Y458D02*
X11187Y458D01*
X4315Y457D02*
X4338Y457D01*
X10464Y457D02*
X10487Y457D01*
X11164Y457D02*
X11187Y457D01*
X4315Y456D02*
X4338Y456D01*
X10464Y456D02*
X10487Y456D01*
X11164Y456D02*
X11187Y456D01*
X4315Y455D02*
X4338Y455D01*
X10464Y455D02*
X10487Y455D01*
X11164Y455D02*
X11187Y455D01*
X4315Y454D02*
X4338Y454D01*
X10464Y454D02*
X10487Y454D01*
X11164Y454D02*
X11187Y454D01*
X4315Y453D02*
X4338Y453D01*
X10464Y453D02*
X10487Y453D01*
X11164Y453D02*
X11187Y453D01*
X4315Y452D02*
X4338Y452D01*
X10464Y452D02*
X10487Y452D01*
X11164Y452D02*
X11187Y452D01*
X4315Y451D02*
X4338Y451D01*
X10464Y451D02*
X10487Y451D01*
X11164Y451D02*
X11187Y451D01*
X4315Y450D02*
X4338Y450D01*
X10464Y450D02*
X10487Y450D01*
X11164Y450D02*
X11187Y450D01*
X4315Y449D02*
X4338Y449D01*
X10464Y449D02*
X10487Y449D01*
X11164Y449D02*
X11187Y449D01*
X4315Y448D02*
X4338Y448D01*
X10464Y448D02*
X10487Y448D01*
X11164Y448D02*
X11187Y448D01*
X4315Y447D02*
X4338Y447D01*
X10464Y447D02*
X10487Y447D01*
X11164Y447D02*
X11187Y447D01*
X4315Y446D02*
X4338Y446D01*
X10464Y446D02*
X10487Y446D01*
X11164Y446D02*
X11187Y446D01*
X4315Y445D02*
X4338Y445D01*
X10464Y445D02*
X10487Y445D01*
X11164Y445D02*
X11187Y445D01*
X4315Y444D02*
X4338Y444D01*
X10464Y444D02*
X10487Y444D01*
X11164Y444D02*
X11187Y444D01*
X4315Y443D02*
X4338Y443D01*
X10464Y443D02*
X10487Y443D01*
X11164Y443D02*
X11187Y443D01*
X4315Y442D02*
X4338Y442D01*
X10464Y442D02*
X10487Y442D01*
X11164Y442D02*
X11187Y442D01*
X4315Y441D02*
X4338Y441D01*
X10464Y441D02*
X10487Y441D01*
X11164Y441D02*
X11187Y441D01*
X4315Y440D02*
X4338Y440D01*
X10464Y440D02*
X10487Y440D01*
X11164Y440D02*
X11187Y440D01*
X4315Y439D02*
X4338Y439D01*
X10464Y439D02*
X10487Y439D01*
X11164Y439D02*
X11187Y439D01*
X4315Y438D02*
X4338Y438D01*
X10464Y438D02*
X10487Y438D01*
X11164Y438D02*
X11187Y438D01*
X4315Y437D02*
X4338Y437D01*
X10464Y437D02*
X10487Y437D01*
X11164Y437D02*
X11187Y437D01*
X4315Y436D02*
X4338Y436D01*
X10464Y436D02*
X10487Y436D01*
X11164Y436D02*
X11187Y436D01*
X4315Y435D02*
X4338Y435D01*
X10464Y435D02*
X10487Y435D01*
X11164Y435D02*
X11187Y435D01*
X4315Y434D02*
X4338Y434D01*
X10464Y434D02*
X10487Y434D01*
X11164Y434D02*
X11187Y434D01*
X4315Y433D02*
X4338Y433D01*
X10464Y433D02*
X10487Y433D01*
X11164Y433D02*
X11187Y433D01*
X4315Y432D02*
X4338Y432D01*
X10464Y432D02*
X10487Y432D01*
X11164Y432D02*
X11187Y432D01*
X4315Y431D02*
X4338Y431D01*
X10464Y431D02*
X10487Y431D01*
X11164Y431D02*
X11187Y431D01*
X4315Y430D02*
X4338Y430D01*
X10464Y430D02*
X10487Y430D01*
X11164Y430D02*
X11187Y430D01*
X4315Y429D02*
X4338Y429D01*
X10464Y429D02*
X10487Y429D01*
X11164Y429D02*
X11187Y429D01*
X4315Y428D02*
X4338Y428D01*
X10464Y428D02*
X10487Y428D01*
X11164Y428D02*
X11187Y428D01*
X4315Y427D02*
X4338Y427D01*
X10464Y427D02*
X10487Y427D01*
X11164Y427D02*
X11187Y427D01*
X4315Y426D02*
X4338Y426D01*
X10464Y426D02*
X10487Y426D01*
X11164Y426D02*
X11187Y426D01*
X4315Y425D02*
X4338Y425D01*
X10464Y425D02*
X10487Y425D01*
X11164Y425D02*
X11187Y425D01*
X4315Y424D02*
X4338Y424D01*
X10464Y424D02*
X10487Y424D01*
X11164Y424D02*
X11187Y424D01*
X4315Y423D02*
X4338Y423D01*
X10464Y423D02*
X10487Y423D01*
X11164Y423D02*
X11187Y423D01*
X4315Y422D02*
X4338Y422D01*
X10464Y422D02*
X10487Y422D01*
X11164Y422D02*
X11187Y422D01*
X4315Y421D02*
X4338Y421D01*
X10464Y421D02*
X10487Y421D01*
X11164Y421D02*
X11187Y421D01*
X4315Y420D02*
X4338Y420D01*
X10464Y420D02*
X10487Y420D01*
X11164Y420D02*
X11187Y420D01*
X4315Y419D02*
X4338Y419D01*
X10464Y419D02*
X10487Y419D01*
X11164Y419D02*
X11187Y419D01*
X4315Y418D02*
X4338Y418D01*
X10464Y418D02*
X10487Y418D01*
X11164Y418D02*
X11187Y418D01*
X4315Y417D02*
X4338Y417D01*
X10464Y417D02*
X10487Y417D01*
X11164Y417D02*
X11187Y417D01*
X4315Y416D02*
X4338Y416D01*
X10464Y416D02*
X10487Y416D01*
X11164Y416D02*
X11187Y416D01*
X4315Y415D02*
X4338Y415D01*
X10464Y415D02*
X10487Y415D01*
X11164Y415D02*
X11187Y415D01*
X4315Y414D02*
X4338Y414D01*
X10464Y414D02*
X10487Y414D01*
X11164Y414D02*
X11187Y414D01*
X4315Y413D02*
X4338Y413D01*
X10464Y413D02*
X10487Y413D01*
X11164Y413D02*
X11187Y413D01*
X4315Y412D02*
X4338Y412D01*
X10464Y412D02*
X10487Y412D01*
X11164Y412D02*
X11187Y412D01*
X4315Y411D02*
X4338Y411D01*
X10464Y411D02*
X10487Y411D01*
X11164Y411D02*
X11187Y411D01*
X4315Y410D02*
X4338Y410D01*
X10464Y410D02*
X10487Y410D01*
X11164Y410D02*
X11187Y410D01*
X4315Y409D02*
X4338Y409D01*
X10464Y409D02*
X10487Y409D01*
X11164Y409D02*
X11187Y409D01*
X4315Y408D02*
X4338Y408D01*
X10464Y408D02*
X10487Y408D01*
X11164Y408D02*
X11187Y408D01*
X4315Y407D02*
X4338Y407D01*
X10464Y407D02*
X10487Y407D01*
X11164Y407D02*
X11187Y407D01*
X4315Y406D02*
X4338Y406D01*
X10464Y406D02*
X10487Y406D01*
X11164Y406D02*
X11187Y406D01*
X4315Y405D02*
X4338Y405D01*
X10464Y405D02*
X10487Y405D01*
X11164Y405D02*
X11187Y405D01*
X4315Y404D02*
X4338Y404D01*
X10464Y404D02*
X10487Y404D01*
X11164Y404D02*
X11187Y404D01*
X4315Y403D02*
X4338Y403D01*
X10464Y403D02*
X10487Y403D01*
X11164Y403D02*
X11187Y403D01*
X4315Y402D02*
X4338Y402D01*
X10464Y402D02*
X10487Y402D01*
X11164Y402D02*
X11187Y402D01*
X4315Y401D02*
X4338Y401D01*
X10464Y401D02*
X10487Y401D01*
X11164Y401D02*
X11187Y401D01*
X4315Y400D02*
X4338Y400D01*
X10464Y400D02*
X10487Y400D01*
X11164Y400D02*
X11187Y400D01*
X4315Y399D02*
X4338Y399D01*
X10464Y399D02*
X10487Y399D01*
X11164Y399D02*
X11187Y399D01*
X4315Y398D02*
X4338Y398D01*
X10464Y398D02*
X10487Y398D01*
X11164Y398D02*
X11187Y398D01*
X4315Y397D02*
X4338Y397D01*
X10464Y397D02*
X10487Y397D01*
X11164Y397D02*
X11187Y397D01*
X4315Y396D02*
X4338Y396D01*
X10464Y396D02*
X10487Y396D01*
X11164Y396D02*
X11187Y396D01*
X4315Y395D02*
X4338Y395D01*
X10464Y395D02*
X10487Y395D01*
X11164Y395D02*
X11187Y395D01*
X4315Y394D02*
X4338Y394D01*
X10464Y394D02*
X10487Y394D01*
X11164Y394D02*
X11187Y394D01*
X4315Y393D02*
X4338Y393D01*
X10464Y393D02*
X10487Y393D01*
X11164Y393D02*
X11187Y393D01*
X4315Y392D02*
X4338Y392D01*
X10464Y392D02*
X10487Y392D01*
X11164Y392D02*
X11187Y392D01*
X4315Y391D02*
X4338Y391D01*
X10464Y391D02*
X10487Y391D01*
X11164Y391D02*
X11187Y391D01*
X4315Y390D02*
X4338Y390D01*
X10464Y390D02*
X10487Y390D01*
X11164Y390D02*
X11187Y390D01*
X4315Y389D02*
X4338Y389D01*
X10464Y389D02*
X10487Y389D01*
X11164Y389D02*
X11187Y389D01*
X4315Y388D02*
X4338Y388D01*
X10464Y388D02*
X10487Y388D01*
X11164Y388D02*
X11187Y388D01*
X4315Y387D02*
X4338Y387D01*
X10464Y387D02*
X10487Y387D01*
X11164Y387D02*
X11187Y387D01*
X4315Y386D02*
X4338Y386D01*
X10464Y386D02*
X10487Y386D01*
X11164Y386D02*
X11187Y386D01*
X4315Y385D02*
X4338Y385D01*
X10464Y385D02*
X10487Y385D01*
X11164Y385D02*
X11187Y385D01*
X4315Y384D02*
X4338Y384D01*
X10464Y384D02*
X10487Y384D01*
X11164Y384D02*
X11187Y384D01*
X4315Y383D02*
X4338Y383D01*
X10464Y383D02*
X10487Y383D01*
X11164Y383D02*
X11187Y383D01*
X4315Y382D02*
X4338Y382D01*
X10464Y382D02*
X10487Y382D01*
X11164Y382D02*
X11187Y382D01*
X4315Y381D02*
X4338Y381D01*
X10464Y381D02*
X10487Y381D01*
X11164Y381D02*
X11187Y381D01*
X4315Y380D02*
X4338Y380D01*
X10464Y380D02*
X10487Y380D01*
X11164Y380D02*
X11187Y380D01*
X4315Y379D02*
X4338Y379D01*
X10464Y379D02*
X10487Y379D01*
X11164Y379D02*
X11187Y379D01*
X4315Y378D02*
X4338Y378D01*
X10464Y378D02*
X10487Y378D01*
X11164Y378D02*
X11187Y378D01*
X4315Y377D02*
X4338Y377D01*
X10464Y377D02*
X10487Y377D01*
X11164Y377D02*
X11187Y377D01*
X4315Y376D02*
X4338Y376D01*
X10464Y376D02*
X10487Y376D01*
X11164Y376D02*
X11187Y376D01*
X4315Y375D02*
X4338Y375D01*
X10464Y375D02*
X10487Y375D01*
X11164Y375D02*
X11187Y375D01*
X4315Y374D02*
X4338Y374D01*
X10464Y374D02*
X10487Y374D01*
X11164Y374D02*
X11187Y374D01*
X4315Y373D02*
X4338Y373D01*
X10464Y373D02*
X10487Y373D01*
X11164Y373D02*
X11187Y373D01*
X4315Y372D02*
X4338Y372D01*
X10464Y372D02*
X10487Y372D01*
X11164Y372D02*
X11187Y372D01*
X4315Y371D02*
X4338Y371D01*
X10464Y371D02*
X10487Y371D01*
X11164Y371D02*
X11187Y371D01*
X4315Y370D02*
X4338Y370D01*
X10464Y370D02*
X10487Y370D01*
X11164Y370D02*
X11187Y370D01*
X4315Y369D02*
X4338Y369D01*
X10464Y369D02*
X10487Y369D01*
X11164Y369D02*
X11187Y369D01*
X4315Y368D02*
X4338Y368D01*
X10464Y368D02*
X10487Y368D01*
X11164Y368D02*
X11187Y368D01*
X4315Y367D02*
X4338Y367D01*
X10464Y367D02*
X10487Y367D01*
X11164Y367D02*
X11187Y367D01*
X4315Y366D02*
X4338Y366D01*
X10464Y366D02*
X10487Y366D01*
X11164Y366D02*
X11187Y366D01*
X4315Y365D02*
X4338Y365D01*
X10464Y365D02*
X10487Y365D01*
X11164Y365D02*
X11187Y365D01*
X4315Y364D02*
X4338Y364D01*
X10464Y364D02*
X10487Y364D01*
X11164Y364D02*
X11187Y364D01*
X4315Y363D02*
X4338Y363D01*
X10464Y363D02*
X10487Y363D01*
X11164Y363D02*
X11187Y363D01*
X4315Y362D02*
X4338Y362D01*
X10464Y362D02*
X10487Y362D01*
X11164Y362D02*
X11187Y362D01*
X4315Y361D02*
X4338Y361D01*
X10464Y361D02*
X10487Y361D01*
X11164Y361D02*
X11187Y361D01*
X4315Y360D02*
X4338Y360D01*
X10464Y360D02*
X10487Y360D01*
X11164Y360D02*
X11187Y360D01*
X4315Y359D02*
X4338Y359D01*
X10464Y359D02*
X10487Y359D01*
X11164Y359D02*
X11187Y359D01*
X4315Y358D02*
X4338Y358D01*
X10464Y358D02*
X10487Y358D01*
X11164Y358D02*
X11187Y358D01*
X4315Y357D02*
X4338Y357D01*
X10464Y357D02*
X10487Y357D01*
X11164Y357D02*
X11187Y357D01*
X4315Y356D02*
X4338Y356D01*
X10464Y356D02*
X10487Y356D01*
X11164Y356D02*
X11187Y356D01*
X4315Y355D02*
X4338Y355D01*
X10464Y355D02*
X10487Y355D01*
X11164Y355D02*
X11187Y355D01*
X4315Y354D02*
X4338Y354D01*
X10464Y354D02*
X10487Y354D01*
X11164Y354D02*
X11187Y354D01*
X4315Y353D02*
X4338Y353D01*
X10464Y353D02*
X10487Y353D01*
X11164Y353D02*
X11187Y353D01*
X4315Y352D02*
X4338Y352D01*
X10464Y352D02*
X10487Y352D01*
X11164Y352D02*
X11187Y352D01*
X4315Y351D02*
X4338Y351D01*
X10464Y351D02*
X10486Y351D01*
X11164Y351D02*
X11186Y351D01*
X4315Y350D02*
X4338Y350D01*
X10464Y350D02*
X10486Y350D01*
X11164Y350D02*
X11186Y350D01*
X4315Y349D02*
X4338Y349D01*
X10465Y349D02*
X10486Y349D01*
X11165Y349D02*
X11186Y349D01*
X4315Y348D02*
X4338Y348D01*
X10465Y348D02*
X10485Y348D01*
X11165Y348D02*
X11185Y348D01*
X4315Y347D02*
X4338Y347D01*
X10466Y347D02*
X10485Y347D01*
X11166Y347D02*
X11185Y347D01*
X4315Y346D02*
X4338Y346D01*
X10466Y346D02*
X10484Y346D01*
X11166Y346D02*
X11184Y346D01*
X4315Y345D02*
X4338Y345D01*
X10467Y345D02*
X10483Y345D01*
X11167Y345D02*
X11183Y345D01*
X4315Y344D02*
X4338Y344D01*
X10468Y344D02*
X10482Y344D01*
X11168Y344D02*
X11182Y344D01*
X4315Y343D02*
X4338Y343D01*
X10470Y343D02*
X10480Y343D01*
X11170Y343D02*
X11180Y343D01*
X4315Y342D02*
X4338Y342D01*
X10472Y342D02*
X10478Y342D01*
X11172Y342D02*
X11178Y342D01*
X4315Y341D02*
X4338Y341D01*
X4315Y340D02*
X4338Y340D01*
X4315Y339D02*
X4338Y339D01*
X4315Y338D02*
X4338Y338D01*
X4315Y337D02*
X4338Y337D01*
X4315Y336D02*
X4338Y336D01*
X4315Y335D02*
X4338Y335D01*
X4315Y334D02*
X4338Y334D01*
X4315Y333D02*
X4338Y333D01*
X4315Y332D02*
X4338Y332D01*
X4315Y331D02*
X4338Y331D01*
X4315Y330D02*
X4338Y330D01*
X4315Y329D02*
X4338Y329D01*
X4315Y328D02*
X4338Y328D01*
X4315Y327D02*
X4338Y327D01*
X4315Y326D02*
X4338Y326D01*
X4315Y325D02*
X4338Y325D01*
X4315Y324D02*
X4338Y324D01*
X4315Y323D02*
X4338Y323D01*
X4315Y322D02*
X4338Y322D01*
X4315Y321D02*
X4338Y321D01*
X4315Y320D02*
X4338Y320D01*
X4315Y319D02*
X4338Y319D01*
X4315Y318D02*
X4338Y318D01*
X4315Y317D02*
X4338Y317D01*
X4315Y316D02*
X4338Y316D01*
X4315Y315D02*
X4338Y315D01*
X4315Y314D02*
X4338Y314D01*
X4315Y313D02*
X4338Y313D01*
X4315Y312D02*
X4338Y312D01*
X4315Y311D02*
X4338Y311D01*
X4315Y310D02*
X4338Y310D01*
X4315Y309D02*
X4338Y309D01*
X4315Y308D02*
X4338Y308D01*
X4315Y307D02*
X4338Y307D01*
X4315Y306D02*
X4338Y306D01*
X4315Y305D02*
X4338Y305D01*
X4315Y304D02*
X4338Y304D01*
X4315Y303D02*
X4338Y303D01*
X4315Y302D02*
X4338Y302D01*
X4315Y301D02*
X4338Y301D01*
X4315Y300D02*
X4338Y300D01*
X4315Y299D02*
X4338Y299D01*
X4315Y298D02*
X4338Y298D01*
X4315Y297D02*
X4338Y297D01*
X4315Y296D02*
X4338Y296D01*
X4315Y295D02*
X4338Y295D01*
X4315Y294D02*
X4338Y294D01*
X4315Y293D02*
X4338Y293D01*
X4315Y292D02*
X4338Y292D01*
X4315Y291D02*
X4338Y291D01*
X4315Y290D02*
X4338Y290D01*
X4315Y289D02*
X4338Y289D01*
X4315Y288D02*
X4338Y288D01*
X4315Y287D02*
X4338Y287D01*
X4315Y286D02*
X4338Y286D01*
X4315Y285D02*
X4338Y285D01*
X4315Y284D02*
X4338Y284D01*
X4315Y283D02*
X4338Y283D01*
X4315Y282D02*
X4338Y282D01*
X4315Y281D02*
X4338Y281D01*
X4315Y280D02*
X4338Y280D01*
X4315Y279D02*
X4338Y279D01*
X4315Y278D02*
X4337Y278D01*
X4314Y277D02*
X4337Y277D01*
X4314Y276D02*
X4337Y276D01*
X4314Y275D02*
X4337Y275D01*
X4314Y274D02*
X4337Y274D01*
X4314Y273D02*
X4337Y273D01*
X4314Y272D02*
X4337Y272D01*
X4314Y271D02*
X4337Y271D01*
X4314Y270D02*
X4337Y270D01*
X4314Y269D02*
X4337Y269D01*
X4314Y268D02*
X4337Y268D01*
X4314Y267D02*
X4337Y267D01*
X4314Y266D02*
X4337Y266D01*
X4314Y265D02*
X4337Y265D01*
X4314Y264D02*
X4337Y264D01*
X4314Y263D02*
X4337Y263D01*
X4314Y262D02*
X4337Y262D01*
X4314Y261D02*
X4337Y261D01*
X4314Y260D02*
X4337Y260D01*
X4314Y259D02*
X4337Y259D01*
X4314Y258D02*
X4337Y258D01*
X4314Y257D02*
X4337Y257D01*
X4314Y256D02*
X4337Y256D01*
X4314Y255D02*
X4337Y255D01*
X4314Y254D02*
X4337Y254D01*
X4314Y253D02*
X4337Y253D01*
X4314Y252D02*
X4337Y252D01*
X4314Y251D02*
X4337Y251D01*
X4314Y250D02*
X4337Y250D01*
X4314Y249D02*
X4337Y249D01*
X4314Y248D02*
X4337Y248D01*
X4314Y247D02*
X4337Y247D01*
X4314Y246D02*
X4337Y246D01*
X4314Y245D02*
X4337Y245D01*
X4314Y244D02*
X4337Y244D01*
X4314Y243D02*
X4337Y243D01*
X4314Y242D02*
X4337Y242D01*
X4314Y241D02*
X4337Y241D01*
X4314Y240D02*
X4337Y240D01*
X4314Y239D02*
X4337Y239D01*
X4314Y238D02*
X4337Y238D01*
X4314Y237D02*
X4337Y237D01*
X4314Y236D02*
X4337Y236D01*
X4314Y235D02*
X4337Y235D01*
X4314Y234D02*
X4337Y234D01*
X4314Y233D02*
X4337Y233D01*
X4314Y232D02*
X4337Y232D01*
X4314Y231D02*
X4337Y231D01*
X4314Y230D02*
X4337Y230D01*
X4314Y229D02*
X4337Y229D01*
X4314Y228D02*
X4337Y228D01*
X4314Y227D02*
X4337Y227D01*
X4314Y226D02*
X4337Y226D01*
X4314Y225D02*
X4337Y225D01*
X4314Y224D02*
X4337Y224D01*
X4314Y223D02*
X4337Y223D01*
X4314Y222D02*
X4337Y222D01*
X4314Y221D02*
X4337Y221D01*
X4314Y220D02*
X4337Y220D01*
X4314Y219D02*
X4337Y219D01*
X4314Y218D02*
X4337Y218D01*
X4314Y217D02*
X4337Y217D01*
X4314Y216D02*
X4337Y216D01*
X4314Y215D02*
X4337Y215D01*
X4314Y214D02*
X4337Y214D01*
X4314Y213D02*
X4337Y213D01*
X4314Y212D02*
X4337Y212D01*
X4314Y211D02*
X4337Y211D01*
X4314Y210D02*
X4337Y210D01*
X4314Y209D02*
X4337Y209D01*
X4314Y208D02*
X4337Y208D01*
X4314Y207D02*
X4337Y207D01*
X4314Y206D02*
X4337Y206D01*
X4314Y205D02*
X4337Y205D01*
X4314Y204D02*
X4337Y204D01*
X4314Y203D02*
X4337Y203D01*
X4314Y202D02*
X4337Y202D01*
X4314Y201D02*
X4337Y201D01*
X4314Y200D02*
X4337Y200D01*
X4314Y199D02*
X4337Y199D01*
X4314Y198D02*
X4337Y198D01*
X4314Y197D02*
X4337Y197D01*
X4314Y196D02*
X4337Y196D01*
X4314Y195D02*
X4337Y195D01*
X4314Y194D02*
X4337Y194D01*
X4314Y193D02*
X4337Y193D01*
X4314Y192D02*
X4337Y192D01*
X4314Y191D02*
X4337Y191D01*
X4314Y190D02*
X4337Y190D01*
X4314Y189D02*
X4337Y189D01*
X4314Y188D02*
X4337Y188D01*
X4314Y187D02*
X4337Y187D01*
X4314Y186D02*
X4337Y186D01*
X4314Y185D02*
X4337Y185D01*
X4314Y184D02*
X4337Y184D01*
X4314Y183D02*
X4337Y183D01*
X4314Y182D02*
X4337Y182D01*
X4314Y181D02*
X4337Y181D01*
X4314Y180D02*
X4337Y180D01*
X4314Y179D02*
X4337Y179D01*
X4314Y178D02*
X4337Y178D01*
X4314Y177D02*
X4337Y177D01*
X4314Y176D02*
X4337Y176D01*
X4314Y175D02*
X4337Y175D01*
X4314Y174D02*
X4337Y174D01*
X4314Y173D02*
X4337Y173D01*
X4314Y172D02*
X4337Y172D01*
X4314Y171D02*
X4337Y171D01*
X4314Y170D02*
X4337Y170D01*
X4314Y169D02*
X4337Y169D01*
X4314Y168D02*
X4337Y168D01*
X4314Y167D02*
X4337Y167D01*
X4314Y166D02*
X4337Y166D01*
X4314Y165D02*
X4337Y165D01*
X4314Y164D02*
X4337Y164D01*
X4314Y163D02*
X4337Y163D01*
X4314Y162D02*
X4337Y162D01*
X4314Y161D02*
X4337Y161D01*
X4314Y160D02*
X4337Y160D01*
X4314Y159D02*
X4337Y159D01*
X4314Y158D02*
X4337Y158D01*
X4314Y157D02*
X4337Y157D01*
X4314Y156D02*
X4337Y156D01*
X4314Y155D02*
X4337Y155D01*
X4314Y154D02*
X4337Y154D01*
X4314Y153D02*
X4337Y153D01*
X4314Y152D02*
X4337Y152D01*
X4314Y151D02*
X4337Y151D01*
X4315Y150D02*
X4336Y150D01*
X4315Y149D02*
X4336Y149D01*
X4315Y148D02*
X4336Y148D01*
X4316Y147D02*
X4335Y147D01*
X4317Y146D02*
X4334Y146D01*
X4318Y145D02*
X4334Y145D01*
X4319Y144D02*
X4332Y144D01*
X4320Y143D02*
X4331Y143D01*
X4323Y142D02*
X4328Y142D01*
D02*
G04 End of Copper0*
M02*