G04 MADE WITH FRITZING*
G04 WWW.FRITZING.ORG*
G04 SINGLE SIDED*
G04 HOLES NOT PLATED*
G04 CONTOUR ON CENTER OF CONTOUR VECTOR*
%ASAXBY*%
%FSLAX23Y23*%
%MOIN*%
%OFA0B0*%
%SFA1.0B1.0*%
%ADD10C,0.088000*%
%ADD11C,0.085000*%
%ADD12C,0.072992*%
%ADD13R,0.072992X0.072992*%
%ADD14R,0.072992X0.084803*%
%LNMASK0*%
G90*
G70*
G54D10*
X10476Y352D03*
X10576Y352D03*
X10676Y352D03*
X10776Y352D03*
X10876Y352D03*
X10976Y352D03*
X11076Y352D03*
X11176Y352D03*
X3626Y152D03*
X3726Y152D03*
X3826Y152D03*
X3926Y152D03*
X4026Y152D03*
X4126Y152D03*
X4226Y152D03*
X4326Y152D03*
X10976Y1902D03*
X11076Y1902D03*
X11176Y1902D03*
X11276Y1902D03*
X11376Y1902D03*
X11476Y1902D03*
X11576Y1902D03*
X11676Y1902D03*
X8076Y302D03*
X8176Y302D03*
X8276Y302D03*
X8376Y302D03*
X8476Y302D03*
X8576Y302D03*
X8676Y302D03*
X8776Y302D03*
X8776Y1902D03*
X8876Y1902D03*
X8976Y1902D03*
X9076Y1902D03*
X9176Y1902D03*
X9276Y1902D03*
X9376Y1902D03*
X9476Y1902D03*
X5476Y152D03*
X5576Y152D03*
X5676Y152D03*
X5776Y152D03*
X1326Y1902D03*
X1426Y1902D03*
X1526Y1902D03*
X1626Y1902D03*
X1726Y1902D03*
X1826Y1902D03*
X1926Y1902D03*
X2026Y1902D03*
X5576Y1902D03*
X5676Y1902D03*
X5776Y1902D03*
X5876Y1902D03*
X5976Y1902D03*
X6076Y1902D03*
X6176Y1902D03*
X6276Y1902D03*
X10486Y221D03*
X10586Y221D03*
X10686Y221D03*
X10786Y221D03*
X10886Y221D03*
X10986Y221D03*
X11086Y221D03*
X11186Y221D03*
X8786Y2021D03*
X8886Y2021D03*
X8986Y2021D03*
X9086Y2021D03*
X9186Y2021D03*
X9286Y2021D03*
X9386Y2021D03*
X9486Y2021D03*
X3336Y2021D03*
X3436Y2021D03*
X3536Y2021D03*
X3636Y2021D03*
X3736Y2021D03*
X3836Y2021D03*
X3936Y2021D03*
X4036Y2021D03*
X3336Y1921D03*
X3436Y1921D03*
X3536Y1921D03*
X3636Y1921D03*
X3736Y1921D03*
X3836Y1921D03*
X3936Y1921D03*
X4036Y1921D03*
X12176Y802D03*
X12176Y902D03*
X12176Y1002D03*
X12176Y1102D03*
X12176Y1202D03*
X12176Y1302D03*
X12176Y1402D03*
X12176Y1502D03*
X926Y802D03*
X926Y902D03*
X926Y1002D03*
X926Y1102D03*
X926Y1202D03*
X926Y1302D03*
X926Y1402D03*
X926Y1502D03*
G54D11*
X3726Y1102D03*
X3726Y1702D03*
X10576Y602D03*
X10576Y1402D03*
X10676Y602D03*
X10676Y1302D03*
X10776Y602D03*
X10776Y1202D03*
X10876Y602D03*
X10876Y1102D03*
X10476Y602D03*
X10476Y1502D03*
X8876Y1402D03*
X8876Y1702D03*
X9276Y1002D03*
X9276Y1702D03*
X9076Y1202D03*
X9076Y1702D03*
X9176Y1102D03*
X9176Y1702D03*
X11376Y1702D03*
X11376Y1102D03*
X10976Y602D03*
X10976Y1002D03*
X11476Y1702D03*
X11476Y1002D03*
X11676Y1702D03*
X11676Y802D03*
X11576Y1702D03*
X11576Y902D03*
X9376Y902D03*
X9376Y1702D03*
X11276Y1702D03*
X11276Y1202D03*
X11076Y602D03*
X11076Y902D03*
X11176Y1702D03*
X11176Y1302D03*
X11076Y1402D03*
X11076Y1702D03*
X8976Y1302D03*
X8976Y1702D03*
X5676Y602D03*
X5676Y1402D03*
X6276Y802D03*
X6276Y1702D03*
X5576Y602D03*
X5576Y1302D03*
X5476Y602D03*
X5476Y1202D03*
X6076Y1002D03*
X6076Y1702D03*
X3826Y1002D03*
X3826Y1702D03*
X6172Y910D03*
X6176Y1702D03*
X3922Y910D03*
X3926Y1702D03*
X5976Y1102D03*
X5976Y1702D03*
X4026Y802D03*
X4026Y1702D03*
X9476Y802D03*
X9476Y1702D03*
X8376Y602D03*
X8376Y1102D03*
X8276Y602D03*
X8276Y1002D03*
X8076Y602D03*
X8076Y802D03*
X8176Y602D03*
X8176Y902D03*
X5776Y602D03*
X5776Y1502D03*
X8676Y602D03*
X8676Y1402D03*
X8776Y602D03*
X8776Y1502D03*
X8576Y602D03*
X8576Y1302D03*
X8476Y602D03*
X8476Y1202D03*
X3626Y1202D03*
X3626Y1702D03*
X5876Y1202D03*
X5876Y1702D03*
X3526Y1302D03*
X3526Y1702D03*
X5776Y1302D03*
X5776Y1702D03*
X3426Y1402D03*
X3426Y1702D03*
X5676Y1402D03*
X5676Y1702D03*
X1326Y1202D03*
X1326Y1702D03*
X1726Y1202D03*
X1726Y1702D03*
X1426Y1302D03*
X1426Y1702D03*
X1826Y1302D03*
X1826Y1702D03*
X1526Y1402D03*
X1526Y1702D03*
X1926Y1402D03*
X1926Y1702D03*
X4226Y598D03*
X4226Y902D03*
X3626Y602D03*
X3626Y1502D03*
X3726Y602D03*
X3726Y1402D03*
X3826Y602D03*
X3826Y1302D03*
X4026Y602D03*
X4026Y1102D03*
X4126Y602D03*
X4126Y1002D03*
X3926Y602D03*
X3926Y1202D03*
G54D12*
X226Y852D03*
X128Y852D03*
X226Y1652D03*
X128Y1652D03*
X226Y652D03*
X128Y652D03*
X226Y452D03*
X128Y452D03*
X226Y1052D03*
X128Y1052D03*
X226Y1452D03*
X128Y1452D03*
X226Y1252D03*
X128Y1252D03*
X226Y1852D03*
X128Y1852D03*
G54D10*
X126Y252D03*
X126Y152D03*
G54D13*
X226Y852D03*
X226Y1652D03*
X226Y652D03*
X226Y452D03*
X226Y1052D03*
X226Y1452D03*
X226Y1252D03*
X226Y1852D03*
G54D14*
X354Y452D03*
X476Y452D03*
X354Y852D03*
X476Y852D03*
X354Y1252D03*
X476Y1252D03*
X354Y1652D03*
X476Y1652D03*
X354Y1852D03*
X476Y1852D03*
X354Y652D03*
X476Y652D03*
X354Y1452D03*
X476Y1452D03*
X354Y1052D03*
X476Y1052D03*
G04 End of Mask0*
M02*