G04 MADE WITH FRITZING*
G04 WWW.FRITZING.ORG*
G04 SINGLE SIDED*
G04 HOLES NOT PLATED*
G04 CONTOUR ON CENTER OF CONTOUR VECTOR*
%ASAXBY*%
%FSLAX23Y23*%
%MOIN*%
%OFA0B0*%
%SFA1.0B1.0*%
%ADD10R,12.401600X2.162500X12.385600X2.146500*%
%ADD11C,0.008000*%
%ADD12C,0.010000*%
%ADD13C,0.005000*%
%ADD14C,0.021000*%
%ADD15R,0.001000X0.001000*%
%LNSILK1*%
G90*
G70*
G54D11*
X4Y2159D02*
X12398Y2159D01*
X12398Y4D01*
X4Y4D01*
X4Y2159D01*
D02*
G54D12*
X10426Y302D02*
X11226Y302D01*
D02*
X11226Y302D02*
X11226Y402D01*
D02*
X11226Y402D02*
X10426Y402D01*
D02*
X10426Y402D02*
X10426Y302D01*
G54D13*
D02*
X10461Y302D02*
X10426Y337D01*
G54D12*
D02*
X3576Y102D02*
X4376Y102D01*
D02*
X4376Y102D02*
X4376Y202D01*
D02*
X4376Y202D02*
X3576Y202D01*
D02*
X3576Y202D02*
X3576Y102D01*
G54D13*
D02*
X3611Y102D02*
X3576Y137D01*
G54D12*
D02*
X10926Y1852D02*
X11726Y1852D01*
D02*
X11726Y1852D02*
X11726Y1952D01*
D02*
X11726Y1952D02*
X10926Y1952D01*
D02*
X10926Y1952D02*
X10926Y1852D01*
G54D13*
D02*
X10961Y1852D02*
X10926Y1887D01*
G54D12*
D02*
X8026Y252D02*
X8826Y252D01*
D02*
X8826Y252D02*
X8826Y352D01*
D02*
X8826Y352D02*
X8026Y352D01*
D02*
X8026Y352D02*
X8026Y252D01*
G54D13*
D02*
X8061Y252D02*
X8026Y287D01*
G54D12*
D02*
X8726Y1852D02*
X9526Y1852D01*
D02*
X9526Y1852D02*
X9526Y1952D01*
D02*
X9526Y1952D02*
X8726Y1952D01*
D02*
X8726Y1952D02*
X8726Y1852D01*
G54D13*
D02*
X8761Y1852D02*
X8726Y1887D01*
G54D12*
D02*
X5426Y102D02*
X5826Y102D01*
D02*
X5826Y102D02*
X5826Y202D01*
D02*
X5826Y202D02*
X5426Y202D01*
D02*
X5426Y202D02*
X5426Y102D01*
G54D13*
D02*
X5461Y102D02*
X5426Y137D01*
G54D12*
D02*
X1276Y1852D02*
X2076Y1852D01*
D02*
X2076Y1852D02*
X2076Y1952D01*
D02*
X2076Y1952D02*
X1276Y1952D01*
D02*
X1276Y1952D02*
X1276Y1852D01*
G54D13*
D02*
X1311Y1852D02*
X1276Y1887D01*
G54D12*
D02*
X5526Y1852D02*
X6326Y1852D01*
D02*
X6326Y1852D02*
X6326Y1952D01*
D02*
X6326Y1952D02*
X5526Y1952D01*
D02*
X5526Y1952D02*
X5526Y1852D01*
G54D13*
D02*
X5561Y1852D02*
X5526Y1887D01*
G54D12*
D02*
X10436Y171D02*
X11236Y171D01*
D02*
X11236Y171D02*
X11236Y271D01*
D02*
X11236Y271D02*
X10436Y271D01*
D02*
X10436Y271D02*
X10436Y171D01*
G54D13*
D02*
X10471Y171D02*
X10436Y206D01*
G54D12*
D02*
X8736Y1971D02*
X9536Y1971D01*
D02*
X9536Y1971D02*
X9536Y2071D01*
D02*
X9536Y2071D02*
X8736Y2071D01*
D02*
X8736Y2071D02*
X8736Y1971D01*
G54D13*
D02*
X8771Y1971D02*
X8736Y2006D01*
G54D12*
D02*
X3286Y1971D02*
X4086Y1971D01*
D02*
X4086Y1971D02*
X4086Y2071D01*
D02*
X4086Y2071D02*
X3286Y2071D01*
D02*
X3286Y2071D02*
X3286Y1971D01*
G54D13*
D02*
X3321Y1971D02*
X3286Y2006D01*
G54D12*
D02*
X3286Y1871D02*
X4086Y1871D01*
D02*
X4086Y1871D02*
X4086Y1971D01*
D02*
X4086Y1971D02*
X3286Y1971D01*
D02*
X3286Y1971D02*
X3286Y1871D01*
G54D13*
D02*
X3321Y1871D02*
X3286Y1906D01*
G54D12*
D02*
X12226Y752D02*
X12226Y1552D01*
D02*
X12226Y1552D02*
X12126Y1552D01*
D02*
X12126Y1552D02*
X12126Y752D01*
D02*
X12126Y752D02*
X12226Y752D01*
G54D13*
D02*
X12226Y787D02*
X12191Y752D01*
G54D12*
D02*
X976Y752D02*
X976Y1552D01*
D02*
X976Y1552D02*
X876Y1552D01*
D02*
X876Y1552D02*
X876Y752D01*
D02*
X876Y752D02*
X976Y752D01*
G54D13*
D02*
X976Y787D02*
X941Y752D01*
G54D14*
D02*
X3726Y1140D02*
X3726Y1665D01*
D02*
X10576Y640D02*
X10576Y1365D01*
D02*
X10676Y640D02*
X10676Y1265D01*
D02*
X10776Y640D02*
X10776Y1165D01*
D02*
X10876Y640D02*
X10876Y1065D01*
D02*
X10476Y640D02*
X10476Y1465D01*
D02*
X8876Y1440D02*
X8876Y1665D01*
D02*
X9276Y1040D02*
X9276Y1665D01*
D02*
X9076Y1240D02*
X9076Y1665D01*
D02*
X9176Y1140D02*
X9176Y1665D01*
D02*
X11376Y1665D02*
X11376Y1140D01*
D02*
X10976Y640D02*
X10976Y965D01*
D02*
X11476Y1665D02*
X11476Y1040D01*
D02*
X11676Y1665D02*
X11676Y840D01*
D02*
X11576Y1665D02*
X11576Y940D01*
D02*
X9376Y940D02*
X9376Y1665D01*
D02*
X11276Y1665D02*
X11276Y1240D01*
D02*
X11076Y640D02*
X11076Y865D01*
D02*
X11176Y1665D02*
X11176Y1340D01*
D02*
X11076Y1440D02*
X11076Y1665D01*
D02*
X8976Y1340D02*
X8976Y1665D01*
D02*
X5676Y640D02*
X5676Y1365D01*
D02*
X6276Y840D02*
X6276Y1665D01*
D02*
X5576Y640D02*
X5576Y1265D01*
D02*
X5476Y640D02*
X5476Y1165D01*
D02*
X6076Y1040D02*
X6076Y1665D01*
D02*
X3826Y1040D02*
X3826Y1665D01*
D02*
X6172Y947D02*
X6176Y1665D01*
D02*
X3922Y947D02*
X3926Y1665D01*
D02*
X5976Y1140D02*
X5976Y1665D01*
D02*
X4026Y840D02*
X4026Y1665D01*
D02*
X9476Y840D02*
X9476Y1665D01*
D02*
X8376Y640D02*
X8376Y1065D01*
D02*
X8276Y640D02*
X8276Y965D01*
D02*
X8076Y640D02*
X8076Y765D01*
D02*
X8176Y640D02*
X8176Y865D01*
D02*
X5776Y640D02*
X5776Y1465D01*
D02*
X8676Y640D02*
X8676Y1365D01*
D02*
X8776Y640D02*
X8776Y1465D01*
D02*
X8576Y640D02*
X8576Y1265D01*
D02*
X8476Y640D02*
X8476Y1165D01*
D02*
X3626Y1240D02*
X3626Y1665D01*
D02*
X5876Y1240D02*
X5876Y1665D01*
D02*
X3526Y1340D02*
X3526Y1665D01*
D02*
X5776Y1340D02*
X5776Y1665D01*
D02*
X3426Y1440D02*
X3426Y1665D01*
D02*
X5676Y1440D02*
X5676Y1665D01*
D02*
X1326Y1240D02*
X1326Y1665D01*
D02*
X1726Y1240D02*
X1726Y1665D01*
D02*
X1426Y1340D02*
X1426Y1665D01*
D02*
X1826Y1340D02*
X1826Y1665D01*
D02*
X1526Y1440D02*
X1526Y1665D01*
D02*
X1926Y1440D02*
X1926Y1665D01*
D02*
X4226Y635D02*
X4226Y865D01*
D02*
X3626Y640D02*
X3626Y1465D01*
D02*
X3726Y640D02*
X3726Y1365D01*
D02*
X3826Y640D02*
X3826Y1265D01*
D02*
X4026Y640D02*
X4026Y1065D01*
D02*
X4126Y640D02*
X4126Y965D01*
D02*
X3926Y640D02*
X3926Y1165D01*
G54D12*
D02*
X76Y302D02*
X76Y102D01*
D02*
X76Y102D02*
X176Y102D01*
D02*
X176Y102D02*
X176Y302D01*
D02*
X176Y302D02*
X76Y302D01*
G54D13*
D02*
X76Y267D02*
X111Y302D01*
G54D15*
X168Y1932D02*
X178Y1932D01*
X160Y1931D02*
X186Y1931D01*
X154Y1930D02*
X191Y1930D01*
X151Y1929D02*
X195Y1929D01*
X148Y1928D02*
X198Y1928D01*
X145Y1927D02*
X164Y1927D01*
X181Y1927D02*
X201Y1927D01*
X142Y1926D02*
X158Y1926D01*
X187Y1926D02*
X203Y1926D01*
X140Y1925D02*
X153Y1925D01*
X192Y1925D02*
X206Y1925D01*
X138Y1924D02*
X150Y1924D01*
X195Y1924D02*
X208Y1924D01*
X136Y1923D02*
X147Y1923D01*
X198Y1923D02*
X210Y1923D01*
X134Y1922D02*
X144Y1922D01*
X201Y1922D02*
X211Y1922D01*
X132Y1921D02*
X142Y1921D01*
X203Y1921D02*
X213Y1921D01*
X131Y1920D02*
X140Y1920D01*
X205Y1920D02*
X215Y1920D01*
X129Y1919D02*
X138Y1919D01*
X207Y1919D02*
X216Y1919D01*
X128Y1918D02*
X136Y1918D01*
X209Y1918D02*
X218Y1918D01*
X126Y1917D02*
X134Y1917D01*
X211Y1917D02*
X219Y1917D01*
X125Y1916D02*
X133Y1916D01*
X213Y1916D02*
X221Y1916D01*
X124Y1915D02*
X131Y1915D01*
X214Y1915D02*
X222Y1915D01*
X122Y1914D02*
X130Y1914D01*
X215Y1914D02*
X223Y1914D01*
X121Y1913D02*
X128Y1913D01*
X217Y1913D02*
X224Y1913D01*
X120Y1912D02*
X127Y1912D01*
X218Y1912D02*
X225Y1912D01*
X119Y1911D02*
X126Y1911D01*
X220Y1911D02*
X226Y1911D01*
X118Y1910D02*
X125Y1910D01*
X221Y1910D02*
X227Y1910D01*
X117Y1909D02*
X123Y1909D01*
X222Y1909D02*
X228Y1909D01*
X116Y1908D02*
X122Y1908D01*
X223Y1908D02*
X229Y1908D01*
X115Y1907D02*
X121Y1907D01*
X224Y1907D02*
X230Y1907D01*
X114Y1906D02*
X120Y1906D01*
X225Y1906D02*
X231Y1906D01*
X113Y1905D02*
X119Y1905D01*
X226Y1905D02*
X232Y1905D01*
X112Y1904D02*
X118Y1904D01*
X227Y1904D02*
X233Y1904D01*
X112Y1903D02*
X117Y1903D01*
X228Y1903D02*
X234Y1903D01*
X111Y1902D02*
X116Y1902D01*
X229Y1902D02*
X235Y1902D01*
X110Y1901D02*
X116Y1901D01*
X230Y1901D02*
X235Y1901D01*
X109Y1900D02*
X115Y1900D01*
X231Y1900D02*
X236Y1900D01*
X109Y1899D02*
X114Y1899D01*
X231Y1899D02*
X237Y1899D01*
X109Y1898D02*
X113Y1898D01*
X232Y1898D02*
X238Y1898D01*
X109Y1897D02*
X113Y1897D01*
X233Y1897D02*
X238Y1897D01*
X109Y1896D02*
X113Y1896D01*
X234Y1896D02*
X239Y1896D01*
X109Y1895D02*
X113Y1895D01*
X234Y1895D02*
X240Y1895D01*
X109Y1894D02*
X113Y1894D01*
X235Y1894D02*
X240Y1894D01*
X109Y1893D02*
X113Y1893D01*
X236Y1893D02*
X241Y1893D01*
X109Y1892D02*
X113Y1892D01*
X236Y1892D02*
X241Y1892D01*
X109Y1891D02*
X113Y1891D01*
X237Y1891D02*
X240Y1891D01*
X109Y1890D02*
X113Y1890D01*
X109Y1889D02*
X113Y1889D01*
X109Y1888D02*
X113Y1888D01*
X109Y1887D02*
X113Y1887D01*
X109Y1886D02*
X113Y1886D01*
X110Y1885D02*
X113Y1885D01*
X111Y1884D02*
X111Y1884D01*
X111Y1822D02*
X112Y1822D01*
X110Y1821D02*
X113Y1821D01*
X109Y1820D02*
X113Y1820D01*
X109Y1819D02*
X113Y1819D01*
X109Y1818D02*
X113Y1818D01*
X109Y1817D02*
X113Y1817D01*
X239Y1817D02*
X240Y1817D01*
X109Y1816D02*
X113Y1816D01*
X238Y1816D02*
X241Y1816D01*
X109Y1815D02*
X113Y1815D01*
X237Y1815D02*
X241Y1815D01*
X109Y1814D02*
X113Y1814D01*
X236Y1814D02*
X241Y1814D01*
X109Y1813D02*
X113Y1813D01*
X236Y1813D02*
X241Y1813D01*
X109Y1812D02*
X113Y1812D01*
X235Y1812D02*
X240Y1812D01*
X109Y1811D02*
X113Y1811D01*
X234Y1811D02*
X239Y1811D01*
X109Y1810D02*
X113Y1810D01*
X234Y1810D02*
X239Y1810D01*
X109Y1809D02*
X113Y1809D01*
X233Y1809D02*
X238Y1809D01*
X109Y1808D02*
X113Y1808D01*
X232Y1808D02*
X237Y1808D01*
X109Y1807D02*
X114Y1807D01*
X231Y1807D02*
X237Y1807D01*
X109Y1806D02*
X115Y1806D01*
X230Y1806D02*
X236Y1806D01*
X110Y1805D02*
X116Y1805D01*
X230Y1805D02*
X235Y1805D01*
X111Y1804D02*
X117Y1804D01*
X229Y1804D02*
X234Y1804D01*
X112Y1803D02*
X117Y1803D01*
X228Y1803D02*
X234Y1803D01*
X113Y1802D02*
X118Y1802D01*
X227Y1802D02*
X233Y1802D01*
X113Y1801D02*
X119Y1801D01*
X226Y1801D02*
X232Y1801D01*
X114Y1800D02*
X120Y1800D01*
X225Y1800D02*
X231Y1800D01*
X115Y1799D02*
X121Y1799D01*
X224Y1799D02*
X230Y1799D01*
X116Y1798D02*
X123Y1798D01*
X223Y1798D02*
X229Y1798D01*
X117Y1797D02*
X124Y1797D01*
X222Y1797D02*
X228Y1797D01*
X118Y1796D02*
X125Y1796D01*
X221Y1796D02*
X227Y1796D01*
X119Y1795D02*
X126Y1795D01*
X219Y1795D02*
X226Y1795D01*
X120Y1794D02*
X127Y1794D01*
X218Y1794D02*
X225Y1794D01*
X121Y1793D02*
X129Y1793D01*
X217Y1793D02*
X224Y1793D01*
X123Y1792D02*
X130Y1792D01*
X215Y1792D02*
X223Y1792D01*
X124Y1791D02*
X132Y1791D01*
X214Y1791D02*
X221Y1791D01*
X125Y1790D02*
X133Y1790D01*
X212Y1790D02*
X220Y1790D01*
X127Y1789D02*
X135Y1789D01*
X211Y1789D02*
X219Y1789D01*
X128Y1788D02*
X137Y1788D01*
X209Y1788D02*
X217Y1788D01*
X129Y1787D02*
X138Y1787D01*
X207Y1787D02*
X216Y1787D01*
X131Y1786D02*
X140Y1786D01*
X205Y1786D02*
X214Y1786D01*
X133Y1785D02*
X143Y1785D01*
X203Y1785D02*
X213Y1785D01*
X134Y1784D02*
X145Y1784D01*
X200Y1784D02*
X211Y1784D01*
X136Y1783D02*
X148Y1783D01*
X198Y1783D02*
X209Y1783D01*
X138Y1782D02*
X151Y1782D01*
X195Y1782D02*
X207Y1782D01*
X140Y1781D02*
X154Y1781D01*
X191Y1781D02*
X205Y1781D01*
X143Y1780D02*
X159Y1780D01*
X187Y1780D02*
X202Y1780D01*
X145Y1779D02*
X166Y1779D01*
X179Y1779D02*
X200Y1779D01*
X148Y1778D02*
X197Y1778D01*
X151Y1777D02*
X194Y1777D01*
X155Y1776D02*
X190Y1776D01*
X160Y1775D02*
X185Y1775D01*
X167Y1732D02*
X179Y1732D01*
X159Y1731D02*
X187Y1731D01*
X154Y1730D02*
X192Y1730D01*
X151Y1729D02*
X195Y1729D01*
X147Y1728D02*
X198Y1728D01*
X145Y1727D02*
X164Y1727D01*
X181Y1727D02*
X201Y1727D01*
X142Y1726D02*
X157Y1726D01*
X188Y1726D02*
X203Y1726D01*
X140Y1725D02*
X153Y1725D01*
X192Y1725D02*
X206Y1725D01*
X138Y1724D02*
X150Y1724D01*
X195Y1724D02*
X208Y1724D01*
X136Y1723D02*
X147Y1723D01*
X199Y1723D02*
X210Y1723D01*
X134Y1722D02*
X144Y1722D01*
X201Y1722D02*
X211Y1722D01*
X132Y1721D02*
X142Y1721D01*
X203Y1721D02*
X213Y1721D01*
X131Y1720D02*
X140Y1720D01*
X206Y1720D02*
X215Y1720D01*
X129Y1719D02*
X138Y1719D01*
X207Y1719D02*
X216Y1719D01*
X128Y1718D02*
X136Y1718D01*
X209Y1718D02*
X218Y1718D01*
X126Y1717D02*
X134Y1717D01*
X211Y1717D02*
X219Y1717D01*
X125Y1716D02*
X133Y1716D01*
X213Y1716D02*
X221Y1716D01*
X124Y1715D02*
X131Y1715D01*
X214Y1715D02*
X222Y1715D01*
X122Y1714D02*
X130Y1714D01*
X216Y1714D02*
X223Y1714D01*
X121Y1713D02*
X128Y1713D01*
X217Y1713D02*
X224Y1713D01*
X120Y1712D02*
X127Y1712D01*
X218Y1712D02*
X225Y1712D01*
X119Y1711D02*
X126Y1711D01*
X220Y1711D02*
X226Y1711D01*
X118Y1710D02*
X124Y1710D01*
X221Y1710D02*
X227Y1710D01*
X117Y1709D02*
X123Y1709D01*
X222Y1709D02*
X228Y1709D01*
X116Y1708D02*
X122Y1708D01*
X223Y1708D02*
X229Y1708D01*
X115Y1707D02*
X121Y1707D01*
X224Y1707D02*
X230Y1707D01*
X114Y1706D02*
X120Y1706D01*
X225Y1706D02*
X231Y1706D01*
X113Y1705D02*
X119Y1705D01*
X226Y1705D02*
X232Y1705D01*
X112Y1704D02*
X118Y1704D01*
X227Y1704D02*
X233Y1704D01*
X112Y1703D02*
X117Y1703D01*
X228Y1703D02*
X234Y1703D01*
X111Y1702D02*
X116Y1702D01*
X229Y1702D02*
X235Y1702D01*
X110Y1701D02*
X116Y1701D01*
X230Y1701D02*
X235Y1701D01*
X109Y1700D02*
X115Y1700D01*
X231Y1700D02*
X236Y1700D01*
X109Y1699D02*
X114Y1699D01*
X232Y1699D02*
X237Y1699D01*
X109Y1698D02*
X113Y1698D01*
X232Y1698D02*
X238Y1698D01*
X109Y1697D02*
X113Y1697D01*
X233Y1697D02*
X238Y1697D01*
X109Y1696D02*
X113Y1696D01*
X234Y1696D02*
X239Y1696D01*
X109Y1695D02*
X113Y1695D01*
X234Y1695D02*
X240Y1695D01*
X109Y1694D02*
X113Y1694D01*
X235Y1694D02*
X240Y1694D01*
X109Y1693D02*
X113Y1693D01*
X236Y1693D02*
X241Y1693D01*
X109Y1692D02*
X113Y1692D01*
X236Y1692D02*
X241Y1692D01*
X109Y1691D02*
X113Y1691D01*
X237Y1691D02*
X240Y1691D01*
X109Y1690D02*
X113Y1690D01*
X109Y1689D02*
X113Y1689D01*
X109Y1688D02*
X113Y1688D01*
X109Y1687D02*
X113Y1687D01*
X109Y1686D02*
X113Y1686D01*
X110Y1685D02*
X113Y1685D01*
X111Y1684D02*
X111Y1684D01*
X110Y1622D02*
X112Y1622D01*
X110Y1621D02*
X113Y1621D01*
X109Y1620D02*
X113Y1620D01*
X109Y1619D02*
X113Y1619D01*
X109Y1618D02*
X113Y1618D01*
X109Y1617D02*
X113Y1617D01*
X239Y1617D02*
X240Y1617D01*
X109Y1616D02*
X113Y1616D01*
X237Y1616D02*
X241Y1616D01*
X109Y1615D02*
X113Y1615D01*
X237Y1615D02*
X241Y1615D01*
X109Y1614D02*
X113Y1614D01*
X236Y1614D02*
X241Y1614D01*
X109Y1613D02*
X113Y1613D01*
X236Y1613D02*
X241Y1613D01*
X109Y1612D02*
X113Y1612D01*
X235Y1612D02*
X240Y1612D01*
X109Y1611D02*
X113Y1611D01*
X234Y1611D02*
X239Y1611D01*
X109Y1610D02*
X113Y1610D01*
X234Y1610D02*
X239Y1610D01*
X109Y1609D02*
X113Y1609D01*
X233Y1609D02*
X238Y1609D01*
X109Y1608D02*
X113Y1608D01*
X232Y1608D02*
X237Y1608D01*
X109Y1607D02*
X114Y1607D01*
X231Y1607D02*
X237Y1607D01*
X109Y1606D02*
X115Y1606D01*
X230Y1606D02*
X236Y1606D01*
X110Y1605D02*
X116Y1605D01*
X230Y1605D02*
X235Y1605D01*
X111Y1604D02*
X117Y1604D01*
X229Y1604D02*
X234Y1604D01*
X112Y1603D02*
X118Y1603D01*
X228Y1603D02*
X234Y1603D01*
X113Y1602D02*
X118Y1602D01*
X227Y1602D02*
X233Y1602D01*
X113Y1601D02*
X119Y1601D01*
X226Y1601D02*
X232Y1601D01*
X114Y1600D02*
X120Y1600D01*
X225Y1600D02*
X231Y1600D01*
X115Y1599D02*
X121Y1599D01*
X224Y1599D02*
X230Y1599D01*
X116Y1598D02*
X123Y1598D01*
X223Y1598D02*
X229Y1598D01*
X117Y1597D02*
X124Y1597D01*
X222Y1597D02*
X228Y1597D01*
X118Y1596D02*
X125Y1596D01*
X221Y1596D02*
X227Y1596D01*
X119Y1595D02*
X126Y1595D01*
X219Y1595D02*
X226Y1595D01*
X120Y1594D02*
X127Y1594D01*
X218Y1594D02*
X225Y1594D01*
X121Y1593D02*
X129Y1593D01*
X217Y1593D02*
X224Y1593D01*
X123Y1592D02*
X130Y1592D01*
X215Y1592D02*
X223Y1592D01*
X124Y1591D02*
X132Y1591D01*
X214Y1591D02*
X221Y1591D01*
X125Y1590D02*
X133Y1590D01*
X212Y1590D02*
X220Y1590D01*
X127Y1589D02*
X135Y1589D01*
X211Y1589D02*
X219Y1589D01*
X128Y1588D02*
X137Y1588D01*
X209Y1588D02*
X217Y1588D01*
X130Y1587D02*
X139Y1587D01*
X207Y1587D02*
X216Y1587D01*
X131Y1586D02*
X140Y1586D01*
X205Y1586D02*
X214Y1586D01*
X133Y1585D02*
X143Y1585D01*
X203Y1585D02*
X213Y1585D01*
X134Y1584D02*
X145Y1584D01*
X200Y1584D02*
X211Y1584D01*
X136Y1583D02*
X148Y1583D01*
X198Y1583D02*
X209Y1583D01*
X138Y1582D02*
X151Y1582D01*
X195Y1582D02*
X207Y1582D01*
X140Y1581D02*
X154Y1581D01*
X191Y1581D02*
X205Y1581D01*
X143Y1580D02*
X159Y1580D01*
X186Y1580D02*
X202Y1580D01*
X145Y1579D02*
X167Y1579D01*
X178Y1579D02*
X200Y1579D01*
X148Y1578D02*
X197Y1578D01*
X151Y1577D02*
X194Y1577D01*
X155Y1576D02*
X190Y1576D01*
X160Y1575D02*
X184Y1575D01*
X167Y1532D02*
X179Y1532D01*
X159Y1531D02*
X187Y1531D01*
X154Y1530D02*
X192Y1530D01*
X151Y1529D02*
X195Y1529D01*
X147Y1528D02*
X198Y1528D01*
X145Y1527D02*
X163Y1527D01*
X182Y1527D02*
X201Y1527D01*
X142Y1526D02*
X157Y1526D01*
X188Y1526D02*
X203Y1526D01*
X140Y1525D02*
X153Y1525D01*
X192Y1525D02*
X206Y1525D01*
X138Y1524D02*
X150Y1524D01*
X196Y1524D02*
X208Y1524D01*
X136Y1523D02*
X147Y1523D01*
X199Y1523D02*
X210Y1523D01*
X134Y1522D02*
X144Y1522D01*
X201Y1522D02*
X212Y1522D01*
X132Y1521D02*
X142Y1521D01*
X203Y1521D02*
X213Y1521D01*
X131Y1520D02*
X140Y1520D01*
X206Y1520D02*
X215Y1520D01*
X129Y1519D02*
X138Y1519D01*
X207Y1519D02*
X216Y1519D01*
X128Y1518D02*
X136Y1518D01*
X209Y1518D02*
X218Y1518D01*
X126Y1517D02*
X134Y1517D01*
X211Y1517D02*
X219Y1517D01*
X125Y1516D02*
X133Y1516D01*
X213Y1516D02*
X221Y1516D01*
X124Y1515D02*
X131Y1515D01*
X214Y1515D02*
X222Y1515D01*
X122Y1514D02*
X129Y1514D01*
X216Y1514D02*
X223Y1514D01*
X121Y1513D02*
X128Y1513D01*
X217Y1513D02*
X224Y1513D01*
X120Y1512D02*
X127Y1512D01*
X218Y1512D02*
X225Y1512D01*
X119Y1511D02*
X126Y1511D01*
X220Y1511D02*
X227Y1511D01*
X118Y1510D02*
X124Y1510D01*
X221Y1510D02*
X227Y1510D01*
X117Y1509D02*
X123Y1509D01*
X222Y1509D02*
X228Y1509D01*
X116Y1508D02*
X122Y1508D01*
X223Y1508D02*
X229Y1508D01*
X115Y1507D02*
X121Y1507D01*
X224Y1507D02*
X230Y1507D01*
X114Y1506D02*
X120Y1506D01*
X225Y1506D02*
X231Y1506D01*
X113Y1505D02*
X119Y1505D01*
X226Y1505D02*
X232Y1505D01*
X112Y1504D02*
X118Y1504D01*
X227Y1504D02*
X233Y1504D01*
X112Y1503D02*
X117Y1503D01*
X228Y1503D02*
X234Y1503D01*
X111Y1502D02*
X116Y1502D01*
X229Y1502D02*
X235Y1502D01*
X110Y1501D02*
X116Y1501D01*
X230Y1501D02*
X235Y1501D01*
X109Y1500D02*
X115Y1500D01*
X231Y1500D02*
X236Y1500D01*
X109Y1499D02*
X114Y1499D01*
X232Y1499D02*
X237Y1499D01*
X109Y1498D02*
X113Y1498D01*
X232Y1498D02*
X238Y1498D01*
X109Y1497D02*
X113Y1497D01*
X233Y1497D02*
X238Y1497D01*
X109Y1496D02*
X113Y1496D01*
X234Y1496D02*
X239Y1496D01*
X109Y1495D02*
X113Y1495D01*
X234Y1495D02*
X240Y1495D01*
X109Y1494D02*
X113Y1494D01*
X235Y1494D02*
X240Y1494D01*
X109Y1493D02*
X113Y1493D01*
X236Y1493D02*
X241Y1493D01*
X109Y1492D02*
X113Y1492D01*
X236Y1492D02*
X241Y1492D01*
X109Y1491D02*
X113Y1491D01*
X237Y1491D02*
X240Y1491D01*
X109Y1490D02*
X113Y1490D01*
X109Y1489D02*
X113Y1489D01*
X109Y1488D02*
X113Y1488D01*
X109Y1487D02*
X113Y1487D01*
X109Y1486D02*
X113Y1486D01*
X110Y1485D02*
X113Y1485D01*
X110Y1422D02*
X112Y1422D01*
X109Y1421D02*
X113Y1421D01*
X109Y1420D02*
X113Y1420D01*
X109Y1419D02*
X113Y1419D01*
X109Y1418D02*
X113Y1418D01*
X109Y1417D02*
X113Y1417D01*
X238Y1417D02*
X240Y1417D01*
X109Y1416D02*
X113Y1416D01*
X237Y1416D02*
X241Y1416D01*
X109Y1415D02*
X113Y1415D01*
X237Y1415D02*
X241Y1415D01*
X109Y1414D02*
X113Y1414D01*
X236Y1414D02*
X241Y1414D01*
X109Y1413D02*
X113Y1413D01*
X236Y1413D02*
X241Y1413D01*
X109Y1412D02*
X113Y1412D01*
X235Y1412D02*
X240Y1412D01*
X109Y1411D02*
X113Y1411D01*
X234Y1411D02*
X239Y1411D01*
X109Y1410D02*
X113Y1410D01*
X234Y1410D02*
X239Y1410D01*
X109Y1409D02*
X113Y1409D01*
X233Y1409D02*
X238Y1409D01*
X109Y1408D02*
X113Y1408D01*
X232Y1408D02*
X237Y1408D01*
X109Y1407D02*
X114Y1407D01*
X231Y1407D02*
X237Y1407D01*
X109Y1406D02*
X115Y1406D01*
X230Y1406D02*
X236Y1406D01*
X110Y1405D02*
X116Y1405D01*
X230Y1405D02*
X235Y1405D01*
X111Y1404D02*
X117Y1404D01*
X229Y1404D02*
X234Y1404D01*
X112Y1403D02*
X118Y1403D01*
X228Y1403D02*
X234Y1403D01*
X113Y1402D02*
X118Y1402D01*
X227Y1402D02*
X233Y1402D01*
X113Y1401D02*
X119Y1401D01*
X226Y1401D02*
X232Y1401D01*
X114Y1400D02*
X120Y1400D01*
X225Y1400D02*
X231Y1400D01*
X115Y1399D02*
X122Y1399D01*
X224Y1399D02*
X230Y1399D01*
X116Y1398D02*
X123Y1398D01*
X223Y1398D02*
X229Y1398D01*
X117Y1397D02*
X124Y1397D01*
X222Y1397D02*
X228Y1397D01*
X118Y1396D02*
X125Y1396D01*
X220Y1396D02*
X227Y1396D01*
X119Y1395D02*
X126Y1395D01*
X219Y1395D02*
X226Y1395D01*
X120Y1394D02*
X127Y1394D01*
X218Y1394D02*
X225Y1394D01*
X122Y1393D02*
X129Y1393D01*
X217Y1393D02*
X224Y1393D01*
X123Y1392D02*
X130Y1392D01*
X215Y1392D02*
X223Y1392D01*
X124Y1391D02*
X132Y1391D01*
X214Y1391D02*
X221Y1391D01*
X125Y1390D02*
X133Y1390D01*
X212Y1390D02*
X220Y1390D01*
X127Y1389D02*
X135Y1389D01*
X211Y1389D02*
X219Y1389D01*
X128Y1388D02*
X137Y1388D01*
X209Y1388D02*
X217Y1388D01*
X130Y1387D02*
X139Y1387D01*
X207Y1387D02*
X216Y1387D01*
X131Y1386D02*
X141Y1386D01*
X205Y1386D02*
X214Y1386D01*
X133Y1385D02*
X143Y1385D01*
X203Y1385D02*
X213Y1385D01*
X135Y1384D02*
X145Y1384D01*
X200Y1384D02*
X211Y1384D01*
X136Y1383D02*
X148Y1383D01*
X198Y1383D02*
X209Y1383D01*
X138Y1382D02*
X151Y1382D01*
X195Y1382D02*
X207Y1382D01*
X140Y1381D02*
X155Y1381D01*
X191Y1381D02*
X205Y1381D01*
X143Y1380D02*
X159Y1380D01*
X186Y1380D02*
X202Y1380D01*
X145Y1379D02*
X167Y1379D01*
X178Y1379D02*
X200Y1379D01*
X148Y1378D02*
X197Y1378D01*
X152Y1377D02*
X193Y1377D01*
X156Y1376D02*
X190Y1376D01*
X161Y1375D02*
X184Y1375D01*
X166Y1332D02*
X180Y1332D01*
X159Y1331D02*
X187Y1331D01*
X154Y1330D02*
X192Y1330D01*
X150Y1329D02*
X195Y1329D01*
X147Y1328D02*
X199Y1328D01*
X145Y1327D02*
X163Y1327D01*
X182Y1327D02*
X201Y1327D01*
X142Y1326D02*
X157Y1326D01*
X188Y1326D02*
X204Y1326D01*
X140Y1325D02*
X153Y1325D01*
X192Y1325D02*
X206Y1325D01*
X138Y1324D02*
X149Y1324D01*
X196Y1324D02*
X208Y1324D01*
X136Y1323D02*
X147Y1323D01*
X199Y1323D02*
X210Y1323D01*
X134Y1322D02*
X144Y1322D01*
X201Y1322D02*
X212Y1322D01*
X132Y1321D02*
X142Y1321D01*
X203Y1321D02*
X213Y1321D01*
X131Y1320D02*
X140Y1320D01*
X206Y1320D02*
X215Y1320D01*
X129Y1319D02*
X138Y1319D01*
X208Y1319D02*
X216Y1319D01*
X127Y1318D02*
X136Y1318D01*
X209Y1318D02*
X218Y1318D01*
X126Y1317D02*
X134Y1317D01*
X211Y1317D02*
X219Y1317D01*
X125Y1316D02*
X133Y1316D01*
X213Y1316D02*
X221Y1316D01*
X124Y1315D02*
X131Y1315D01*
X214Y1315D02*
X222Y1315D01*
X122Y1314D02*
X129Y1314D01*
X216Y1314D02*
X223Y1314D01*
X121Y1313D02*
X128Y1313D01*
X217Y1313D02*
X224Y1313D01*
X120Y1312D02*
X127Y1312D01*
X219Y1312D02*
X225Y1312D01*
X119Y1311D02*
X126Y1311D01*
X220Y1311D02*
X227Y1311D01*
X118Y1310D02*
X124Y1310D01*
X221Y1310D02*
X228Y1310D01*
X117Y1309D02*
X123Y1309D01*
X222Y1309D02*
X229Y1309D01*
X116Y1308D02*
X122Y1308D01*
X223Y1308D02*
X230Y1308D01*
X115Y1307D02*
X121Y1307D01*
X224Y1307D02*
X230Y1307D01*
X114Y1306D02*
X120Y1306D01*
X225Y1306D02*
X231Y1306D01*
X113Y1305D02*
X119Y1305D01*
X226Y1305D02*
X232Y1305D01*
X112Y1304D02*
X118Y1304D01*
X227Y1304D02*
X233Y1304D01*
X111Y1303D02*
X117Y1303D01*
X228Y1303D02*
X234Y1303D01*
X111Y1302D02*
X116Y1302D01*
X229Y1302D02*
X235Y1302D01*
X110Y1301D02*
X115Y1301D01*
X230Y1301D02*
X236Y1301D01*
X109Y1300D02*
X115Y1300D01*
X231Y1300D02*
X236Y1300D01*
X109Y1299D02*
X114Y1299D01*
X232Y1299D02*
X237Y1299D01*
X109Y1298D02*
X113Y1298D01*
X232Y1298D02*
X238Y1298D01*
X109Y1297D02*
X113Y1297D01*
X233Y1297D02*
X238Y1297D01*
X109Y1296D02*
X113Y1296D01*
X234Y1296D02*
X239Y1296D01*
X109Y1295D02*
X113Y1295D01*
X235Y1295D02*
X240Y1295D01*
X109Y1294D02*
X113Y1294D01*
X235Y1294D02*
X240Y1294D01*
X109Y1293D02*
X113Y1293D01*
X236Y1293D02*
X241Y1293D01*
X109Y1292D02*
X113Y1292D01*
X236Y1292D02*
X241Y1292D01*
X109Y1291D02*
X113Y1291D01*
X237Y1291D02*
X240Y1291D01*
X109Y1290D02*
X113Y1290D01*
X109Y1289D02*
X113Y1289D01*
X109Y1288D02*
X113Y1288D01*
X109Y1287D02*
X113Y1287D01*
X109Y1286D02*
X113Y1286D01*
X110Y1285D02*
X113Y1285D01*
X110Y1222D02*
X112Y1222D01*
X109Y1221D02*
X113Y1221D01*
X109Y1220D02*
X113Y1220D01*
X109Y1219D02*
X113Y1219D01*
X109Y1218D02*
X113Y1218D01*
X109Y1217D02*
X113Y1217D01*
X238Y1217D02*
X240Y1217D01*
X109Y1216D02*
X113Y1216D01*
X237Y1216D02*
X241Y1216D01*
X109Y1215D02*
X113Y1215D01*
X237Y1215D02*
X241Y1215D01*
X109Y1214D02*
X113Y1214D01*
X236Y1214D02*
X241Y1214D01*
X109Y1213D02*
X113Y1213D01*
X236Y1213D02*
X241Y1213D01*
X109Y1212D02*
X113Y1212D01*
X235Y1212D02*
X240Y1212D01*
X109Y1211D02*
X113Y1211D01*
X234Y1211D02*
X239Y1211D01*
X109Y1210D02*
X113Y1210D01*
X233Y1210D02*
X239Y1210D01*
X109Y1209D02*
X113Y1209D01*
X233Y1209D02*
X238Y1209D01*
X109Y1208D02*
X113Y1208D01*
X232Y1208D02*
X237Y1208D01*
X109Y1207D02*
X114Y1207D01*
X231Y1207D02*
X237Y1207D01*
X109Y1206D02*
X115Y1206D01*
X230Y1206D02*
X236Y1206D01*
X110Y1205D02*
X116Y1205D01*
X229Y1205D02*
X235Y1205D01*
X111Y1204D02*
X117Y1204D01*
X229Y1204D02*
X234Y1204D01*
X112Y1203D02*
X118Y1203D01*
X228Y1203D02*
X233Y1203D01*
X113Y1202D02*
X119Y1202D01*
X227Y1202D02*
X233Y1202D01*
X113Y1201D02*
X119Y1201D01*
X226Y1201D02*
X232Y1201D01*
X114Y1200D02*
X121Y1200D01*
X225Y1200D02*
X231Y1200D01*
X115Y1199D02*
X122Y1199D01*
X224Y1199D02*
X230Y1199D01*
X116Y1198D02*
X123Y1198D01*
X223Y1198D02*
X229Y1198D01*
X117Y1197D02*
X124Y1197D01*
X222Y1197D02*
X228Y1197D01*
X118Y1196D02*
X125Y1196D01*
X220Y1196D02*
X227Y1196D01*
X119Y1195D02*
X126Y1195D01*
X219Y1195D02*
X226Y1195D01*
X120Y1194D02*
X127Y1194D01*
X218Y1194D02*
X225Y1194D01*
X122Y1193D02*
X129Y1193D01*
X217Y1193D02*
X224Y1193D01*
X123Y1192D02*
X130Y1192D01*
X215Y1192D02*
X222Y1192D01*
X124Y1191D02*
X132Y1191D01*
X214Y1191D02*
X221Y1191D01*
X125Y1190D02*
X133Y1190D01*
X212Y1190D02*
X220Y1190D01*
X127Y1189D02*
X135Y1189D01*
X211Y1189D02*
X219Y1189D01*
X128Y1188D02*
X137Y1188D01*
X209Y1188D02*
X217Y1188D01*
X130Y1187D02*
X139Y1187D01*
X207Y1187D02*
X216Y1187D01*
X131Y1186D02*
X141Y1186D01*
X205Y1186D02*
X214Y1186D01*
X133Y1185D02*
X143Y1185D01*
X203Y1185D02*
X212Y1185D01*
X135Y1184D02*
X145Y1184D01*
X200Y1184D02*
X211Y1184D01*
X137Y1183D02*
X148Y1183D01*
X198Y1183D02*
X209Y1183D01*
X138Y1182D02*
X151Y1182D01*
X194Y1182D02*
X207Y1182D01*
X141Y1181D02*
X155Y1181D01*
X191Y1181D02*
X205Y1181D01*
X143Y1180D02*
X160Y1180D01*
X186Y1180D02*
X202Y1180D01*
X145Y1179D02*
X168Y1179D01*
X177Y1179D02*
X200Y1179D01*
X148Y1178D02*
X197Y1178D01*
X152Y1177D02*
X193Y1177D01*
X156Y1176D02*
X189Y1176D01*
X161Y1175D02*
X184Y1175D01*
X166Y1132D02*
X180Y1132D01*
X159Y1131D02*
X187Y1131D01*
X154Y1130D02*
X192Y1130D01*
X150Y1129D02*
X195Y1129D01*
X147Y1128D02*
X199Y1128D01*
X144Y1127D02*
X162Y1127D01*
X183Y1127D02*
X201Y1127D01*
X142Y1126D02*
X157Y1126D01*
X188Y1126D02*
X204Y1126D01*
X140Y1125D02*
X153Y1125D01*
X193Y1125D02*
X206Y1125D01*
X138Y1124D02*
X149Y1124D01*
X196Y1124D02*
X208Y1124D01*
X136Y1123D02*
X146Y1123D01*
X199Y1123D02*
X210Y1123D01*
X134Y1122D02*
X144Y1122D01*
X201Y1122D02*
X212Y1122D01*
X132Y1121D02*
X141Y1121D01*
X204Y1121D02*
X214Y1121D01*
X131Y1120D02*
X139Y1120D01*
X206Y1120D02*
X215Y1120D01*
X129Y1119D02*
X138Y1119D01*
X208Y1119D02*
X216Y1119D01*
X127Y1118D02*
X136Y1118D01*
X209Y1118D02*
X218Y1118D01*
X126Y1117D02*
X134Y1117D01*
X211Y1117D02*
X219Y1117D01*
X125Y1116D02*
X132Y1116D01*
X213Y1116D02*
X221Y1116D01*
X124Y1115D02*
X131Y1115D01*
X214Y1115D02*
X222Y1115D01*
X122Y1114D02*
X129Y1114D01*
X216Y1114D02*
X223Y1114D01*
X121Y1113D02*
X128Y1113D01*
X217Y1113D02*
X224Y1113D01*
X120Y1112D02*
X127Y1112D01*
X219Y1112D02*
X226Y1112D01*
X119Y1111D02*
X126Y1111D01*
X220Y1111D02*
X227Y1111D01*
X118Y1110D02*
X124Y1110D01*
X221Y1110D02*
X228Y1110D01*
X117Y1109D02*
X123Y1109D01*
X222Y1109D02*
X229Y1109D01*
X116Y1108D02*
X122Y1108D01*
X223Y1108D02*
X230Y1108D01*
X115Y1107D02*
X121Y1107D01*
X224Y1107D02*
X231Y1107D01*
X114Y1106D02*
X120Y1106D01*
X225Y1106D02*
X231Y1106D01*
X113Y1105D02*
X119Y1105D01*
X226Y1105D02*
X232Y1105D01*
X112Y1104D02*
X118Y1104D01*
X227Y1104D02*
X233Y1104D01*
X111Y1103D02*
X117Y1103D01*
X228Y1103D02*
X234Y1103D01*
X111Y1102D02*
X116Y1102D01*
X229Y1102D02*
X235Y1102D01*
X110Y1101D02*
X115Y1101D01*
X230Y1101D02*
X236Y1101D01*
X109Y1100D02*
X115Y1100D01*
X231Y1100D02*
X236Y1100D01*
X109Y1099D02*
X114Y1099D01*
X232Y1099D02*
X237Y1099D01*
X109Y1098D02*
X113Y1098D01*
X232Y1098D02*
X238Y1098D01*
X109Y1097D02*
X113Y1097D01*
X233Y1097D02*
X238Y1097D01*
X109Y1096D02*
X113Y1096D01*
X234Y1096D02*
X239Y1096D01*
X109Y1095D02*
X113Y1095D01*
X235Y1095D02*
X240Y1095D01*
X109Y1094D02*
X113Y1094D01*
X235Y1094D02*
X240Y1094D01*
X109Y1093D02*
X113Y1093D01*
X236Y1093D02*
X241Y1093D01*
X109Y1092D02*
X113Y1092D01*
X237Y1092D02*
X241Y1092D01*
X109Y1091D02*
X113Y1091D01*
X237Y1091D02*
X240Y1091D01*
X109Y1090D02*
X113Y1090D01*
X109Y1089D02*
X113Y1089D01*
X109Y1088D02*
X113Y1088D01*
X109Y1087D02*
X113Y1087D01*
X109Y1086D02*
X113Y1086D01*
X110Y1085D02*
X113Y1085D01*
X110Y1022D02*
X112Y1022D01*
X109Y1021D02*
X113Y1021D01*
X109Y1020D02*
X113Y1020D01*
X109Y1019D02*
X113Y1019D01*
X109Y1018D02*
X113Y1018D01*
X109Y1017D02*
X113Y1017D01*
X238Y1017D02*
X240Y1017D01*
X109Y1016D02*
X113Y1016D01*
X237Y1016D02*
X241Y1016D01*
X109Y1015D02*
X113Y1015D01*
X237Y1015D02*
X241Y1015D01*
X109Y1014D02*
X113Y1014D01*
X236Y1014D02*
X241Y1014D01*
X109Y1013D02*
X113Y1013D01*
X236Y1013D02*
X241Y1013D01*
X109Y1012D02*
X113Y1012D01*
X235Y1012D02*
X240Y1012D01*
X109Y1011D02*
X113Y1011D01*
X234Y1011D02*
X239Y1011D01*
X109Y1010D02*
X113Y1010D01*
X233Y1010D02*
X239Y1010D01*
X109Y1009D02*
X113Y1009D01*
X233Y1009D02*
X238Y1009D01*
X109Y1008D02*
X113Y1008D01*
X232Y1008D02*
X237Y1008D01*
X109Y1007D02*
X114Y1007D01*
X231Y1007D02*
X237Y1007D01*
X110Y1006D02*
X115Y1006D01*
X230Y1006D02*
X236Y1006D01*
X110Y1005D02*
X116Y1005D01*
X229Y1005D02*
X235Y1005D01*
X111Y1004D02*
X117Y1004D01*
X229Y1004D02*
X234Y1004D01*
X112Y1003D02*
X118Y1003D01*
X228Y1003D02*
X233Y1003D01*
X113Y1002D02*
X119Y1002D01*
X227Y1002D02*
X233Y1002D01*
X114Y1001D02*
X120Y1001D01*
X226Y1001D02*
X232Y1001D01*
X114Y1000D02*
X121Y1000D01*
X225Y1000D02*
X231Y1000D01*
X115Y999D02*
X122Y999D01*
X224Y999D02*
X230Y999D01*
X116Y998D02*
X123Y998D01*
X223Y998D02*
X229Y998D01*
X117Y997D02*
X124Y997D01*
X222Y997D02*
X228Y997D01*
X118Y996D02*
X125Y996D01*
X220Y996D02*
X227Y996D01*
X119Y995D02*
X126Y995D01*
X219Y995D02*
X226Y995D01*
X120Y994D02*
X128Y994D01*
X218Y994D02*
X225Y994D01*
X122Y993D02*
X129Y993D01*
X217Y993D02*
X224Y993D01*
X123Y992D02*
X130Y992D01*
X215Y992D02*
X222Y992D01*
X124Y991D02*
X132Y991D01*
X214Y991D02*
X221Y991D01*
X125Y990D02*
X133Y990D01*
X212Y990D02*
X220Y990D01*
X127Y989D02*
X135Y989D01*
X211Y989D02*
X219Y989D01*
X128Y988D02*
X137Y988D01*
X209Y988D02*
X217Y988D01*
X130Y987D02*
X139Y987D01*
X207Y987D02*
X216Y987D01*
X131Y986D02*
X141Y986D01*
X205Y986D02*
X214Y986D01*
X133Y985D02*
X143Y985D01*
X203Y985D02*
X212Y985D01*
X135Y984D02*
X146Y984D01*
X200Y984D02*
X211Y984D01*
X137Y983D02*
X148Y983D01*
X198Y983D02*
X209Y983D01*
X138Y982D02*
X151Y982D01*
X194Y982D02*
X207Y982D01*
X141Y981D02*
X155Y981D01*
X191Y981D02*
X205Y981D01*
X143Y980D02*
X160Y980D01*
X186Y980D02*
X202Y980D01*
X146Y979D02*
X168Y979D01*
X177Y979D02*
X199Y979D01*
X149Y978D02*
X197Y978D01*
X152Y977D02*
X193Y977D01*
X156Y976D02*
X189Y976D01*
X161Y975D02*
X184Y975D01*
X165Y932D02*
X181Y932D01*
X158Y931D02*
X187Y931D01*
X154Y930D02*
X192Y930D01*
X150Y929D02*
X196Y929D01*
X147Y928D02*
X199Y928D01*
X144Y927D02*
X162Y927D01*
X183Y927D02*
X201Y927D01*
X142Y926D02*
X156Y926D01*
X189Y926D02*
X204Y926D01*
X139Y925D02*
X153Y925D01*
X193Y925D02*
X206Y925D01*
X138Y924D02*
X149Y924D01*
X196Y924D02*
X208Y924D01*
X136Y923D02*
X146Y923D01*
X199Y923D02*
X210Y923D01*
X134Y922D02*
X144Y922D01*
X201Y922D02*
X212Y922D01*
X132Y921D02*
X141Y921D01*
X204Y921D02*
X214Y921D01*
X130Y920D02*
X139Y920D01*
X206Y920D02*
X215Y920D01*
X129Y919D02*
X137Y919D01*
X208Y919D02*
X217Y919D01*
X127Y918D02*
X136Y918D01*
X210Y918D02*
X218Y918D01*
X126Y917D02*
X134Y917D01*
X211Y917D02*
X220Y917D01*
X125Y916D02*
X132Y916D01*
X213Y916D02*
X221Y916D01*
X123Y915D02*
X131Y915D01*
X214Y915D02*
X222Y915D01*
X122Y914D02*
X129Y914D01*
X216Y914D02*
X223Y914D01*
X121Y913D02*
X128Y913D01*
X217Y913D02*
X224Y913D01*
X120Y912D02*
X127Y912D01*
X219Y912D02*
X226Y912D01*
X119Y911D02*
X125Y911D01*
X220Y911D02*
X227Y911D01*
X118Y910D02*
X124Y910D01*
X221Y910D02*
X228Y910D01*
X117Y909D02*
X123Y909D01*
X222Y909D02*
X229Y909D01*
X116Y908D02*
X122Y908D01*
X223Y908D02*
X230Y908D01*
X115Y907D02*
X121Y907D01*
X224Y907D02*
X231Y907D01*
X114Y906D02*
X120Y906D01*
X225Y906D02*
X232Y906D01*
X113Y905D02*
X119Y905D01*
X226Y905D02*
X232Y905D01*
X112Y904D02*
X118Y904D01*
X227Y904D02*
X233Y904D01*
X111Y903D02*
X117Y903D01*
X228Y903D02*
X234Y903D01*
X111Y902D02*
X116Y902D01*
X229Y902D02*
X235Y902D01*
X110Y901D02*
X115Y901D01*
X230Y901D02*
X236Y901D01*
X109Y900D02*
X115Y900D01*
X231Y900D02*
X236Y900D01*
X109Y899D02*
X114Y899D01*
X232Y899D02*
X237Y899D01*
X109Y898D02*
X113Y898D01*
X232Y898D02*
X238Y898D01*
X109Y897D02*
X113Y897D01*
X233Y897D02*
X238Y897D01*
X109Y896D02*
X113Y896D01*
X234Y896D02*
X239Y896D01*
X109Y895D02*
X113Y895D01*
X235Y895D02*
X240Y895D01*
X109Y894D02*
X113Y894D01*
X235Y894D02*
X240Y894D01*
X109Y893D02*
X113Y893D01*
X236Y893D02*
X241Y893D01*
X109Y892D02*
X113Y892D01*
X237Y892D02*
X240Y892D01*
X109Y891D02*
X113Y891D01*
X237Y891D02*
X240Y891D01*
X109Y890D02*
X113Y890D01*
X109Y889D02*
X113Y889D01*
X109Y888D02*
X113Y888D01*
X109Y887D02*
X113Y887D01*
X109Y886D02*
X113Y886D01*
X110Y885D02*
X113Y885D01*
X110Y822D02*
X112Y822D01*
X109Y821D02*
X113Y821D01*
X109Y820D02*
X113Y820D01*
X109Y819D02*
X113Y819D01*
X109Y818D02*
X113Y818D01*
X109Y817D02*
X113Y817D01*
X238Y817D02*
X240Y817D01*
X109Y816D02*
X113Y816D01*
X237Y816D02*
X241Y816D01*
X109Y815D02*
X113Y815D01*
X237Y815D02*
X241Y815D01*
X109Y814D02*
X113Y814D01*
X236Y814D02*
X241Y814D01*
X109Y813D02*
X113Y813D01*
X235Y813D02*
X241Y813D01*
X109Y812D02*
X113Y812D01*
X235Y812D02*
X240Y812D01*
X109Y811D02*
X113Y811D01*
X234Y811D02*
X239Y811D01*
X109Y810D02*
X113Y810D01*
X233Y810D02*
X239Y810D01*
X109Y809D02*
X113Y809D01*
X233Y809D02*
X238Y809D01*
X109Y808D02*
X113Y808D01*
X232Y808D02*
X237Y808D01*
X109Y807D02*
X114Y807D01*
X231Y807D02*
X237Y807D01*
X110Y806D02*
X115Y806D01*
X230Y806D02*
X236Y806D01*
X110Y805D02*
X116Y805D01*
X229Y805D02*
X235Y805D01*
X111Y804D02*
X117Y804D01*
X229Y804D02*
X234Y804D01*
X112Y803D02*
X118Y803D01*
X228Y803D02*
X233Y803D01*
X113Y802D02*
X119Y802D01*
X227Y802D02*
X233Y802D01*
X114Y801D02*
X120Y801D01*
X226Y801D02*
X232Y801D01*
X114Y800D02*
X121Y800D01*
X225Y800D02*
X231Y800D01*
X115Y799D02*
X122Y799D01*
X224Y799D02*
X230Y799D01*
X116Y798D02*
X123Y798D01*
X223Y798D02*
X229Y798D01*
X117Y797D02*
X124Y797D01*
X222Y797D02*
X228Y797D01*
X118Y796D02*
X125Y796D01*
X220Y796D02*
X227Y796D01*
X119Y795D02*
X126Y795D01*
X219Y795D02*
X226Y795D01*
X121Y794D02*
X128Y794D01*
X218Y794D02*
X225Y794D01*
X122Y793D02*
X129Y793D01*
X217Y793D02*
X224Y793D01*
X123Y792D02*
X131Y792D01*
X215Y792D02*
X222Y792D01*
X124Y791D02*
X132Y791D01*
X214Y791D02*
X221Y791D01*
X125Y790D02*
X133Y790D01*
X212Y790D02*
X220Y790D01*
X127Y789D02*
X135Y789D01*
X210Y789D02*
X219Y789D01*
X128Y788D02*
X137Y788D01*
X209Y788D02*
X217Y788D01*
X130Y787D02*
X139Y787D01*
X207Y787D02*
X215Y787D01*
X131Y786D02*
X141Y786D01*
X205Y786D02*
X214Y786D01*
X133Y785D02*
X143Y785D01*
X202Y785D02*
X212Y785D01*
X135Y784D02*
X146Y784D01*
X200Y784D02*
X210Y784D01*
X137Y783D02*
X148Y783D01*
X197Y783D02*
X209Y783D01*
X139Y782D02*
X152Y782D01*
X194Y782D02*
X207Y782D01*
X141Y781D02*
X155Y781D01*
X191Y781D02*
X204Y781D01*
X143Y780D02*
X160Y780D01*
X185Y780D02*
X202Y780D01*
X146Y779D02*
X174Y779D01*
X176Y779D02*
X199Y779D01*
X149Y778D02*
X196Y778D01*
X152Y777D02*
X193Y777D01*
X156Y776D02*
X189Y776D01*
X161Y775D02*
X183Y775D01*
X165Y732D02*
X181Y732D01*
X158Y731D02*
X188Y731D01*
X153Y730D02*
X192Y730D01*
X150Y729D02*
X196Y729D01*
X147Y728D02*
X199Y728D01*
X144Y727D02*
X162Y727D01*
X183Y727D02*
X201Y727D01*
X142Y726D02*
X156Y726D01*
X189Y726D02*
X204Y726D01*
X139Y725D02*
X152Y725D01*
X193Y725D02*
X206Y725D01*
X137Y724D02*
X149Y724D01*
X196Y724D02*
X208Y724D01*
X135Y723D02*
X146Y723D01*
X199Y723D02*
X210Y723D01*
X134Y722D02*
X144Y722D01*
X201Y722D02*
X212Y722D01*
X132Y721D02*
X141Y721D01*
X204Y721D02*
X214Y721D01*
X130Y720D02*
X139Y720D01*
X206Y720D02*
X215Y720D01*
X129Y719D02*
X137Y719D01*
X208Y719D02*
X217Y719D01*
X127Y718D02*
X135Y718D01*
X210Y718D02*
X218Y718D01*
X126Y717D02*
X134Y717D01*
X211Y717D02*
X220Y717D01*
X125Y716D02*
X132Y716D01*
X213Y716D02*
X221Y716D01*
X123Y715D02*
X131Y715D01*
X214Y715D02*
X222Y715D01*
X122Y714D02*
X129Y714D01*
X216Y714D02*
X223Y714D01*
X121Y713D02*
X128Y713D01*
X217Y713D02*
X224Y713D01*
X120Y712D02*
X127Y712D01*
X219Y712D02*
X226Y712D01*
X119Y711D02*
X125Y711D01*
X220Y711D02*
X227Y711D01*
X118Y710D02*
X124Y710D01*
X221Y710D02*
X228Y710D01*
X117Y709D02*
X123Y709D01*
X222Y709D02*
X229Y709D01*
X116Y708D02*
X122Y708D01*
X223Y708D02*
X230Y708D01*
X115Y707D02*
X121Y707D01*
X224Y707D02*
X231Y707D01*
X114Y706D02*
X120Y706D01*
X225Y706D02*
X232Y706D01*
X113Y705D02*
X119Y705D01*
X226Y705D02*
X232Y705D01*
X112Y704D02*
X118Y704D01*
X227Y704D02*
X233Y704D01*
X111Y703D02*
X117Y703D01*
X228Y703D02*
X234Y703D01*
X111Y702D02*
X116Y702D01*
X229Y702D02*
X235Y702D01*
X110Y701D02*
X115Y701D01*
X230Y701D02*
X236Y701D01*
X109Y700D02*
X115Y700D01*
X231Y700D02*
X236Y700D01*
X109Y699D02*
X114Y699D01*
X232Y699D02*
X237Y699D01*
X109Y698D02*
X113Y698D01*
X233Y698D02*
X238Y698D01*
X109Y697D02*
X113Y697D01*
X233Y697D02*
X238Y697D01*
X109Y696D02*
X113Y696D01*
X234Y696D02*
X239Y696D01*
X109Y695D02*
X113Y695D01*
X235Y695D02*
X240Y695D01*
X109Y694D02*
X113Y694D01*
X235Y694D02*
X240Y694D01*
X109Y693D02*
X113Y693D01*
X236Y693D02*
X241Y693D01*
X109Y692D02*
X113Y692D01*
X237Y692D02*
X240Y692D01*
X109Y691D02*
X113Y691D01*
X237Y691D02*
X240Y691D01*
X109Y690D02*
X113Y690D01*
X109Y689D02*
X113Y689D01*
X109Y688D02*
X113Y688D01*
X109Y687D02*
X113Y687D01*
X109Y686D02*
X113Y686D01*
X110Y685D02*
X113Y685D01*
X110Y622D02*
X112Y622D01*
X109Y621D02*
X113Y621D01*
X109Y620D02*
X113Y620D01*
X109Y619D02*
X113Y619D01*
X109Y618D02*
X113Y618D01*
X109Y617D02*
X113Y617D01*
X238Y617D02*
X240Y617D01*
X109Y616D02*
X113Y616D01*
X237Y616D02*
X241Y616D01*
X109Y615D02*
X113Y615D01*
X237Y615D02*
X241Y615D01*
X109Y614D02*
X113Y614D01*
X236Y614D02*
X241Y614D01*
X109Y613D02*
X113Y613D01*
X235Y613D02*
X240Y613D01*
X109Y612D02*
X113Y612D01*
X235Y612D02*
X240Y612D01*
X109Y611D02*
X113Y611D01*
X234Y611D02*
X239Y611D01*
X109Y610D02*
X113Y610D01*
X233Y610D02*
X239Y610D01*
X109Y609D02*
X113Y609D01*
X233Y609D02*
X238Y609D01*
X109Y608D02*
X113Y608D01*
X232Y608D02*
X237Y608D01*
X109Y607D02*
X114Y607D01*
X231Y607D02*
X237Y607D01*
X110Y606D02*
X115Y606D01*
X230Y606D02*
X236Y606D01*
X110Y605D02*
X116Y605D01*
X229Y605D02*
X235Y605D01*
X111Y604D02*
X117Y604D01*
X229Y604D02*
X234Y604D01*
X112Y603D02*
X118Y603D01*
X228Y603D02*
X233Y603D01*
X113Y602D02*
X119Y602D01*
X227Y602D02*
X233Y602D01*
X114Y601D02*
X120Y601D01*
X226Y601D02*
X232Y601D01*
X115Y600D02*
X121Y600D01*
X225Y600D02*
X231Y600D01*
X115Y599D02*
X122Y599D01*
X224Y599D02*
X230Y599D01*
X116Y598D02*
X123Y598D01*
X223Y598D02*
X229Y598D01*
X117Y597D02*
X124Y597D01*
X222Y597D02*
X228Y597D01*
X118Y596D02*
X125Y596D01*
X220Y596D02*
X227Y596D01*
X120Y595D02*
X126Y595D01*
X219Y595D02*
X226Y595D01*
X121Y594D02*
X128Y594D01*
X218Y594D02*
X225Y594D01*
X122Y593D02*
X129Y593D01*
X217Y593D02*
X224Y593D01*
X123Y592D02*
X131Y592D01*
X215Y592D02*
X222Y592D01*
X124Y591D02*
X132Y591D01*
X213Y591D02*
X221Y591D01*
X125Y590D02*
X134Y590D01*
X212Y590D02*
X220Y590D01*
X127Y589D02*
X135Y589D01*
X210Y589D02*
X218Y589D01*
X128Y588D02*
X137Y588D01*
X208Y588D02*
X217Y588D01*
X130Y587D02*
X139Y587D01*
X207Y587D02*
X215Y587D01*
X131Y586D02*
X141Y586D01*
X205Y586D02*
X214Y586D01*
X133Y585D02*
X143Y585D01*
X202Y585D02*
X212Y585D01*
X135Y584D02*
X146Y584D01*
X200Y584D02*
X210Y584D01*
X137Y583D02*
X148Y583D01*
X197Y583D02*
X208Y583D01*
X139Y582D02*
X152Y582D01*
X194Y582D02*
X206Y582D01*
X141Y581D02*
X155Y581D01*
X190Y581D02*
X204Y581D01*
X143Y580D02*
X160Y580D01*
X185Y580D02*
X202Y580D01*
X146Y579D02*
X199Y579D01*
X149Y578D02*
X196Y578D01*
X152Y577D02*
X193Y577D01*
X156Y576D02*
X189Y576D01*
X162Y575D02*
X183Y575D01*
X164Y532D02*
X181Y532D01*
X158Y531D02*
X188Y531D01*
X153Y530D02*
X193Y530D01*
X150Y529D02*
X196Y529D01*
X147Y528D02*
X199Y528D01*
X144Y527D02*
X161Y527D01*
X184Y527D02*
X202Y527D01*
X142Y526D02*
X156Y526D01*
X189Y526D02*
X204Y526D01*
X139Y525D02*
X152Y525D01*
X193Y525D02*
X206Y525D01*
X137Y524D02*
X149Y524D01*
X196Y524D02*
X208Y524D01*
X135Y523D02*
X146Y523D01*
X199Y523D02*
X210Y523D01*
X133Y522D02*
X144Y522D01*
X202Y522D02*
X212Y522D01*
X132Y521D02*
X141Y521D01*
X204Y521D02*
X214Y521D01*
X130Y520D02*
X139Y520D01*
X206Y520D02*
X215Y520D01*
X129Y519D02*
X137Y519D01*
X208Y519D02*
X217Y519D01*
X127Y518D02*
X135Y518D01*
X210Y518D02*
X218Y518D01*
X126Y517D02*
X134Y517D01*
X212Y517D02*
X220Y517D01*
X125Y516D02*
X132Y516D01*
X213Y516D02*
X221Y516D01*
X123Y515D02*
X131Y515D01*
X214Y515D02*
X222Y515D01*
X122Y514D02*
X129Y514D01*
X216Y514D02*
X223Y514D01*
X121Y513D02*
X128Y513D01*
X217Y513D02*
X225Y513D01*
X120Y512D02*
X127Y512D01*
X219Y512D02*
X226Y512D01*
X119Y511D02*
X125Y511D01*
X220Y511D02*
X227Y511D01*
X118Y510D02*
X124Y510D01*
X221Y510D02*
X228Y510D01*
X117Y509D02*
X123Y509D01*
X222Y509D02*
X229Y509D01*
X116Y508D02*
X122Y508D01*
X224Y508D02*
X230Y508D01*
X115Y507D02*
X121Y507D01*
X225Y507D02*
X231Y507D01*
X114Y506D02*
X120Y506D01*
X226Y506D02*
X232Y506D01*
X113Y505D02*
X119Y505D01*
X226Y505D02*
X232Y505D01*
X112Y504D02*
X118Y504D01*
X227Y504D02*
X233Y504D01*
X111Y503D02*
X117Y503D01*
X228Y503D02*
X234Y503D01*
X110Y502D02*
X116Y502D01*
X229Y502D02*
X235Y502D01*
X110Y501D02*
X115Y501D01*
X230Y501D02*
X236Y501D01*
X109Y500D02*
X114Y500D01*
X231Y500D02*
X236Y500D01*
X109Y499D02*
X114Y499D01*
X232Y499D02*
X237Y499D01*
X109Y498D02*
X113Y498D01*
X233Y498D02*
X238Y498D01*
X109Y497D02*
X113Y497D01*
X233Y497D02*
X238Y497D01*
X109Y496D02*
X113Y496D01*
X234Y496D02*
X239Y496D01*
X109Y495D02*
X113Y495D01*
X235Y495D02*
X240Y495D01*
X109Y494D02*
X113Y494D01*
X235Y494D02*
X240Y494D01*
X109Y493D02*
X113Y493D01*
X236Y493D02*
X241Y493D01*
X109Y492D02*
X113Y492D01*
X237Y492D02*
X240Y492D01*
X109Y491D02*
X113Y491D01*
X237Y491D02*
X240Y491D01*
X109Y490D02*
X113Y490D01*
X109Y489D02*
X113Y489D01*
X109Y488D02*
X113Y488D01*
X109Y487D02*
X113Y487D01*
X109Y486D02*
X113Y486D01*
X110Y485D02*
X112Y485D01*
X110Y422D02*
X112Y422D01*
X109Y421D02*
X113Y421D01*
X109Y420D02*
X113Y420D01*
X109Y419D02*
X113Y419D01*
X109Y418D02*
X113Y418D01*
X109Y417D02*
X113Y417D01*
X238Y417D02*
X240Y417D01*
X109Y416D02*
X113Y416D01*
X237Y416D02*
X241Y416D01*
X109Y415D02*
X113Y415D01*
X237Y415D02*
X241Y415D01*
X109Y414D02*
X113Y414D01*
X236Y414D02*
X241Y414D01*
X109Y413D02*
X113Y413D01*
X235Y413D02*
X240Y413D01*
X109Y412D02*
X113Y412D01*
X235Y412D02*
X240Y412D01*
X109Y411D02*
X113Y411D01*
X234Y411D02*
X239Y411D01*
X109Y410D02*
X113Y410D01*
X233Y410D02*
X239Y410D01*
X109Y409D02*
X113Y409D01*
X233Y409D02*
X238Y409D01*
X109Y408D02*
X113Y408D01*
X232Y408D02*
X237Y408D01*
X109Y407D02*
X114Y407D01*
X231Y407D02*
X237Y407D01*
X110Y406D02*
X115Y406D01*
X230Y406D02*
X236Y406D01*
X110Y405D02*
X116Y405D01*
X229Y405D02*
X235Y405D01*
X111Y404D02*
X117Y404D01*
X229Y404D02*
X234Y404D01*
X112Y403D02*
X118Y403D01*
X228Y403D02*
X233Y403D01*
X113Y402D02*
X119Y402D01*
X227Y402D02*
X232Y402D01*
X114Y401D02*
X120Y401D01*
X226Y401D02*
X232Y401D01*
X115Y400D02*
X121Y400D01*
X225Y400D02*
X231Y400D01*
X116Y399D02*
X122Y399D01*
X224Y399D02*
X230Y399D01*
X116Y398D02*
X123Y398D01*
X223Y398D02*
X229Y398D01*
X117Y397D02*
X124Y397D01*
X221Y397D02*
X228Y397D01*
X118Y396D02*
X125Y396D01*
X220Y396D02*
X227Y396D01*
X120Y395D02*
X126Y395D01*
X219Y395D02*
X226Y395D01*
X121Y394D02*
X128Y394D01*
X218Y394D02*
X225Y394D01*
X122Y393D02*
X129Y393D01*
X216Y393D02*
X223Y393D01*
X123Y392D02*
X131Y392D01*
X215Y392D02*
X222Y392D01*
X124Y391D02*
X132Y391D01*
X213Y391D02*
X221Y391D01*
X126Y390D02*
X134Y390D01*
X212Y390D02*
X220Y390D01*
X127Y389D02*
X135Y389D01*
X210Y389D02*
X218Y389D01*
X128Y388D02*
X137Y388D01*
X208Y388D02*
X217Y388D01*
X130Y387D02*
X139Y387D01*
X206Y387D02*
X215Y387D01*
X131Y386D02*
X141Y386D01*
X205Y386D02*
X214Y386D01*
X133Y385D02*
X143Y385D01*
X202Y385D02*
X212Y385D01*
X135Y384D02*
X146Y384D01*
X200Y384D02*
X210Y384D01*
X137Y383D02*
X149Y383D01*
X197Y383D02*
X208Y383D01*
X139Y382D02*
X152Y382D01*
X194Y382D02*
X206Y382D01*
X141Y381D02*
X156Y381D01*
X190Y381D02*
X204Y381D01*
X143Y380D02*
X161Y380D01*
X185Y380D02*
X202Y380D01*
X146Y379D02*
X199Y379D01*
X149Y378D02*
X196Y378D01*
X152Y377D02*
X193Y377D01*
X157Y376D02*
X188Y376D01*
X162Y375D02*
X183Y375D01*
D02*
G04 End of Silk1*
M02*