G04 MADE WITH FRITZING*
G04 WWW.FRITZING.ORG*
G04 SINGLE SIDED*
G04 HOLES NOT PLATED*
G04 CONTOUR ON CENTER OF CONTOUR VECTOR*
%ASAXBY*%
%FSLAX23Y23*%
%MOIN*%
%OFA0B0*%
%SFA1.0B1.0*%
%ADD10C,0.088000*%
%ADD11C,0.072992*%
%ADD12C,0.085000*%
%ADD13R,0.072992X0.072992*%
%ADD14R,0.084803X0.072992*%
%ADD15R,0.085000X0.085000*%
%LNMASK0*%
G90*
G70*
G54D10*
X2083Y1110D03*
X2183Y1110D03*
X2283Y1110D03*
X2633Y460D03*
X2733Y460D03*
X2833Y460D03*
X2933Y460D03*
X3033Y460D03*
X3133Y460D03*
X3233Y460D03*
X3333Y460D03*
X2633Y1110D03*
X2733Y1110D03*
X2833Y1110D03*
X2933Y1110D03*
X3033Y1110D03*
X3133Y1110D03*
X3233Y1110D03*
X3333Y1110D03*
X1033Y1110D03*
X1133Y1110D03*
X1233Y1110D03*
X1333Y1110D03*
X1433Y1110D03*
X1533Y1110D03*
X1633Y1110D03*
X1733Y1110D03*
X1033Y510D03*
X1133Y510D03*
X1233Y510D03*
X1333Y510D03*
X1433Y510D03*
X1533Y510D03*
X1633Y510D03*
X1733Y510D03*
G54D11*
X1083Y1460D03*
X1083Y1559D03*
X3483Y1559D03*
X3483Y1460D03*
X3083Y1460D03*
X3083Y1559D03*
X2283Y1559D03*
X2283Y1460D03*
X2483Y1460D03*
X2483Y1559D03*
X3283Y1559D03*
X3283Y1460D03*
X2683Y1559D03*
X2683Y1460D03*
X3683Y1559D03*
X3683Y1460D03*
X2883Y1460D03*
X2883Y1559D03*
X2083Y1559D03*
X2083Y1460D03*
X1883Y1559D03*
X1883Y1460D03*
X1683Y1559D03*
X1683Y1460D03*
X1483Y1563D03*
X1483Y1464D03*
X1283Y1559D03*
X1283Y1460D03*
X883Y1559D03*
X883Y1460D03*
X683Y1460D03*
X683Y1559D03*
G54D12*
X3583Y460D03*
X3583Y760D03*
X3683Y460D03*
X3683Y760D03*
X3783Y460D03*
X3783Y760D03*
X3883Y460D03*
X3883Y760D03*
X3983Y460D03*
X3983Y760D03*
X4083Y460D03*
X4083Y760D03*
X4183Y460D03*
X4183Y760D03*
X183Y510D03*
X183Y810D03*
X283Y510D03*
X283Y810D03*
X383Y510D03*
X383Y810D03*
X483Y510D03*
X483Y810D03*
X583Y510D03*
X583Y810D03*
X683Y510D03*
X683Y810D03*
X783Y510D03*
X783Y810D03*
X2033Y910D03*
X2333Y910D03*
X2033Y810D03*
X2333Y810D03*
X2033Y710D03*
X2333Y710D03*
X2033Y610D03*
X2333Y610D03*
X2033Y510D03*
X2333Y510D03*
X2033Y410D03*
X2333Y410D03*
X2033Y310D03*
X2333Y310D03*
X2433Y910D03*
X3233Y910D03*
X3383Y860D03*
X3883Y860D03*
X3133Y660D03*
X4083Y660D03*
X2633Y360D03*
X3583Y360D03*
X2833Y610D03*
X3883Y610D03*
X2833Y310D03*
X3783Y310D03*
X2633Y560D03*
X3683Y560D03*
X783Y1010D03*
X1733Y1010D03*
X583Y1260D03*
X1633Y1260D03*
X383Y1210D03*
X1533Y1210D03*
X683Y710D03*
X1133Y710D03*
X483Y660D03*
X1333Y660D03*
X283Y610D03*
X1433Y610D03*
X683Y910D03*
X1733Y910D03*
X483Y960D03*
X1633Y960D03*
X783Y410D03*
X1883Y410D03*
X2433Y660D03*
X2933Y660D03*
X1933Y210D03*
X2483Y210D03*
G54D13*
X1083Y1460D03*
X3483Y1559D03*
X3083Y1460D03*
X2283Y1559D03*
X2483Y1460D03*
X3283Y1559D03*
X2683Y1559D03*
X3683Y1559D03*
X2883Y1460D03*
X2083Y1559D03*
X1883Y1559D03*
X1683Y1559D03*
X1483Y1563D03*
X1283Y1559D03*
X883Y1559D03*
X683Y1460D03*
G54D14*
X3083Y1860D03*
X3083Y1738D03*
X3483Y1810D03*
X3483Y1688D03*
X3683Y1810D03*
X3683Y1688D03*
X3283Y1810D03*
X3283Y1688D03*
X2483Y1860D03*
X2483Y1738D03*
X2883Y1860D03*
X2883Y1738D03*
X2686Y1800D03*
X2686Y1678D03*
X2283Y1792D03*
X2283Y1670D03*
X2080Y1792D03*
X2080Y1670D03*
X1878Y1792D03*
X1878Y1670D03*
X1483Y1792D03*
X1483Y1670D03*
X1278Y1797D03*
X1278Y1675D03*
X1680Y1792D03*
X1680Y1670D03*
X1083Y1860D03*
X1083Y1738D03*
X886Y1794D03*
X886Y1672D03*
X683Y1860D03*
X683Y1738D03*
G54D15*
X3583Y460D03*
X183Y510D03*
X2033Y910D03*
G04 End of Mask0*
M02*