G04 MADE WITH FRITZING*
G04 WWW.FRITZING.ORG*
G04 SINGLE SIDED*
G04 HOLES NOT PLATED*
G04 CONTOUR ON CENTER OF CONTOUR VECTOR*
%ASAXBY*%
%FSLAX23Y23*%
%MOIN*%
%OFA0B0*%
%SFA1.0B1.0*%
%ADD10C,0.078000*%
%ADD11C,0.062992*%
%ADD12C,0.075000*%
%ADD13R,0.062992X0.062992*%
%ADD14R,0.074803X0.062992*%
%ADD15R,0.075000X0.075000*%
%ADD16C,0.024000*%
%LNCOPPER0*%
G90*
G70*
G54D10*
X2083Y1110D03*
X2183Y1110D03*
X2283Y1110D03*
X2633Y460D03*
X2733Y460D03*
X2833Y460D03*
X2933Y460D03*
X3033Y460D03*
X3133Y460D03*
X3233Y460D03*
X3333Y460D03*
X2633Y1110D03*
X2733Y1110D03*
X2833Y1110D03*
X2933Y1110D03*
X3033Y1110D03*
X3133Y1110D03*
X3233Y1110D03*
X3333Y1110D03*
X1033Y1110D03*
X1133Y1110D03*
X1233Y1110D03*
X1333Y1110D03*
X1433Y1110D03*
X1533Y1110D03*
X1633Y1110D03*
X1733Y1110D03*
X1033Y510D03*
X1133Y510D03*
X1233Y510D03*
X1333Y510D03*
X1433Y510D03*
X1533Y510D03*
X1633Y510D03*
X1733Y510D03*
G54D11*
X1083Y1460D03*
X1083Y1559D03*
X3483Y1559D03*
X3483Y1460D03*
X3083Y1460D03*
X3083Y1559D03*
X2283Y1559D03*
X2283Y1460D03*
X2483Y1460D03*
X2483Y1559D03*
X3283Y1559D03*
X3283Y1460D03*
X2683Y1559D03*
X2683Y1460D03*
X3683Y1559D03*
X3683Y1460D03*
X2883Y1460D03*
X2883Y1559D03*
X2083Y1559D03*
X2083Y1460D03*
X1883Y1559D03*
X1883Y1460D03*
X1683Y1559D03*
X1683Y1460D03*
X1483Y1563D03*
X1483Y1464D03*
X1283Y1559D03*
X1283Y1460D03*
X883Y1559D03*
X883Y1460D03*
X683Y1460D03*
X683Y1559D03*
G54D12*
X3583Y460D03*
X3583Y760D03*
X3683Y460D03*
X3683Y760D03*
X3783Y460D03*
X3783Y760D03*
X3883Y460D03*
X3883Y760D03*
X3983Y460D03*
X3983Y760D03*
X4083Y460D03*
X4083Y760D03*
X4183Y460D03*
X4183Y760D03*
X183Y510D03*
X183Y810D03*
X283Y510D03*
X283Y810D03*
X383Y510D03*
X383Y810D03*
X483Y510D03*
X483Y810D03*
X583Y510D03*
X583Y810D03*
X683Y510D03*
X683Y810D03*
X783Y510D03*
X783Y810D03*
X2033Y910D03*
X2333Y910D03*
X2033Y810D03*
X2333Y810D03*
X2033Y710D03*
X2333Y710D03*
X2033Y610D03*
X2333Y610D03*
X2033Y510D03*
X2333Y510D03*
X2033Y410D03*
X2333Y410D03*
X2033Y310D03*
X2333Y310D03*
X2433Y910D03*
X3233Y910D03*
X3383Y860D03*
X3883Y860D03*
X3133Y660D03*
X4083Y660D03*
X2633Y360D03*
X3583Y360D03*
X2833Y610D03*
X3883Y610D03*
X2833Y310D03*
X3783Y310D03*
X2633Y560D03*
X3683Y560D03*
X783Y1010D03*
X1733Y1010D03*
X583Y1260D03*
X1633Y1260D03*
X383Y1210D03*
X1533Y1210D03*
X683Y710D03*
X1133Y710D03*
X483Y660D03*
X1333Y660D03*
X283Y610D03*
X1433Y610D03*
X683Y910D03*
X1733Y910D03*
X483Y960D03*
X1633Y960D03*
X783Y410D03*
X1883Y410D03*
X2433Y660D03*
X2933Y660D03*
X1933Y210D03*
X2483Y210D03*
G54D13*
X1083Y1460D03*
X3483Y1559D03*
X3083Y1460D03*
X2283Y1559D03*
X2483Y1460D03*
X3283Y1559D03*
X2683Y1559D03*
X3683Y1559D03*
X2883Y1460D03*
X2083Y1559D03*
X1883Y1559D03*
X1683Y1559D03*
X1483Y1563D03*
X1283Y1559D03*
X883Y1559D03*
X683Y1460D03*
G54D14*
X3083Y1860D03*
X3083Y1738D03*
X3483Y1810D03*
X3483Y1688D03*
X3683Y1810D03*
X3683Y1688D03*
X3283Y1810D03*
X3283Y1688D03*
X2483Y1860D03*
X2483Y1738D03*
X2883Y1860D03*
X2883Y1738D03*
X2686Y1800D03*
X2686Y1678D03*
X2283Y1792D03*
X2283Y1670D03*
X2080Y1792D03*
X2080Y1670D03*
X1878Y1792D03*
X1878Y1670D03*
X1483Y1792D03*
X1483Y1670D03*
X1278Y1797D03*
X1278Y1675D03*
X1680Y1792D03*
X1680Y1670D03*
X1083Y1860D03*
X1083Y1738D03*
X886Y1794D03*
X886Y1672D03*
X683Y1860D03*
X683Y1738D03*
G54D15*
X3583Y460D03*
X183Y510D03*
X2033Y910D03*
G54D16*
X2933Y1140D02*
X2931Y1409D01*
D02*
X2931Y1409D02*
X2901Y1441D01*
D02*
X1333Y1140D02*
X1334Y1409D01*
D02*
X3032Y1409D02*
X3064Y1441D01*
D02*
X3033Y1140D02*
X3032Y1409D01*
D02*
X1433Y1140D02*
X1433Y1409D01*
D02*
X1533Y1360D02*
X1633Y1461D01*
D02*
X1633Y1461D02*
X1656Y1461D01*
D02*
X1533Y1239D02*
X1533Y1360D01*
D02*
X3133Y1140D02*
X3134Y1259D01*
D02*
X1533Y1140D02*
X1533Y1181D01*
D02*
X3383Y1461D02*
X3232Y1260D01*
D02*
X3232Y1260D02*
X3233Y1140D01*
D02*
X1731Y1259D02*
X1662Y1260D01*
D02*
X1882Y1409D02*
X1731Y1259D01*
D02*
X2084Y1359D02*
X1833Y1112D01*
D02*
X3382Y1111D02*
X3333Y1110D01*
D02*
X1833Y1112D02*
X1763Y1111D01*
D02*
X1133Y1460D02*
X1233Y1360D01*
D02*
X2832Y1259D02*
X2833Y1140D01*
D02*
X1233Y1360D02*
X1233Y1140D01*
D02*
X1110Y1460D02*
X1133Y1460D01*
D02*
X932Y1461D02*
X1133Y1260D01*
D02*
X1133Y1260D02*
X1133Y1140D01*
D02*
X2732Y1260D02*
X2733Y1140D01*
D02*
X2582Y1460D02*
X2732Y1260D01*
D02*
X2510Y1460D02*
X2582Y1460D01*
D02*
X733Y1460D02*
X1033Y1159D01*
D02*
X2532Y1112D02*
X2585Y1111D01*
D02*
X2283Y1359D02*
X2532Y1112D01*
D02*
X2585Y1111D02*
X2603Y1111D01*
D02*
X1033Y1159D02*
X1033Y1140D01*
D02*
X710Y1460D02*
X733Y1460D01*
D02*
X1033Y1080D02*
X1033Y540D01*
D02*
X1233Y1080D02*
X1233Y540D01*
D02*
X683Y1585D02*
X683Y1712D01*
D02*
X2483Y1585D02*
X2483Y1712D01*
D02*
X1083Y1585D02*
X1083Y1712D01*
D02*
X2883Y1585D02*
X2883Y1712D01*
D02*
X3083Y1585D02*
X3083Y1712D01*
D02*
X2915Y1860D02*
X3051Y1860D01*
D02*
X1515Y1792D02*
X1649Y1792D01*
D02*
X3315Y1810D02*
X3451Y1810D01*
D02*
X1712Y1792D02*
X1846Y1792D01*
D02*
X1910Y1792D02*
X2049Y1792D01*
D02*
X2184Y1710D02*
X2252Y1766D01*
D02*
X2112Y1766D02*
X2184Y1710D01*
D02*
X2733Y1080D02*
X2733Y490D01*
D02*
X3033Y1080D02*
X3033Y490D01*
D02*
X2084Y1059D02*
X2084Y1080D01*
D02*
X2134Y959D02*
X2084Y1059D01*
D02*
X2132Y360D02*
X2134Y959D01*
D02*
X2083Y311D02*
X2132Y360D01*
D02*
X2062Y310D02*
X2083Y311D01*
D02*
X1934Y311D02*
X1896Y385D01*
D02*
X783Y439D02*
X783Y481D01*
D02*
X2004Y310D02*
X1934Y311D01*
D02*
X2933Y1080D02*
X2933Y689D01*
D02*
X2234Y959D02*
X2234Y912D01*
D02*
X2184Y1059D02*
X2234Y959D01*
D02*
X2234Y912D02*
X2304Y910D01*
D02*
X2184Y1080D02*
X2184Y1059D01*
D02*
X2483Y810D02*
X2362Y810D01*
D02*
X2384Y1109D02*
X2532Y959D01*
D02*
X2532Y959D02*
X2532Y859D01*
D02*
X2532Y859D02*
X2483Y810D01*
D02*
X2313Y1110D02*
X2384Y1109D01*
D02*
X182Y760D02*
X182Y781D01*
D02*
X34Y409D02*
X34Y609D01*
D02*
X2234Y360D02*
X1984Y111D01*
D02*
X34Y609D02*
X182Y760D01*
D02*
X333Y111D02*
X34Y409D01*
D02*
X1984Y111D02*
X333Y111D01*
D02*
X2234Y912D02*
X2234Y360D01*
D02*
X1134Y458D02*
X983Y311D01*
D02*
X983Y311D02*
X734Y311D01*
D02*
X1134Y480D02*
X1134Y458D01*
D02*
X582Y458D02*
X583Y481D01*
D02*
X734Y311D02*
X582Y458D01*
D02*
X1334Y458D02*
X1334Y480D01*
D02*
X382Y458D02*
X582Y262D01*
D02*
X1134Y262D02*
X1334Y458D01*
D02*
X582Y262D02*
X1134Y262D01*
D02*
X383Y481D02*
X382Y458D01*
D02*
X1433Y458D02*
X1433Y480D01*
D02*
X182Y458D02*
X431Y209D01*
D02*
X1183Y209D02*
X1433Y458D01*
D02*
X431Y209D02*
X1183Y209D01*
D02*
X182Y481D02*
X182Y458D01*
D02*
X284Y760D02*
X283Y781D01*
D02*
X1535Y458D02*
X1232Y160D01*
D02*
X84Y458D02*
X84Y560D01*
D02*
X1232Y160D02*
X382Y160D01*
D02*
X382Y160D02*
X84Y458D01*
D02*
X84Y560D02*
X284Y760D01*
D02*
X1534Y480D02*
X1535Y458D01*
D02*
X1633Y540D02*
X1633Y931D01*
D02*
X483Y839D02*
X483Y931D01*
D02*
X683Y839D02*
X683Y881D01*
D02*
X1733Y540D02*
X1733Y881D01*
D02*
X283Y581D02*
X283Y539D01*
D02*
X483Y631D02*
X483Y539D01*
D02*
X1333Y1080D02*
X1333Y689D01*
D02*
X683Y681D02*
X683Y539D01*
D02*
X383Y1181D02*
X383Y839D01*
D02*
X583Y1231D02*
X583Y839D01*
D02*
X1633Y1140D02*
X1633Y1231D01*
D02*
X1733Y1080D02*
X1733Y1039D01*
D02*
X783Y839D02*
X783Y981D01*
D02*
X2633Y389D02*
X2633Y430D01*
D02*
X3583Y431D02*
X3583Y389D01*
D02*
X3683Y531D02*
X3683Y489D01*
D02*
X2633Y1080D02*
X2633Y589D01*
D02*
X2833Y430D02*
X2833Y339D01*
D02*
X3783Y431D02*
X3783Y339D01*
D02*
X3883Y489D02*
X3883Y581D01*
D02*
X2833Y1080D02*
X2833Y639D01*
D02*
X3983Y360D02*
X3832Y209D01*
D02*
X3133Y409D02*
X3133Y430D01*
D02*
X3333Y209D02*
X3133Y409D01*
D02*
X3832Y209D02*
X3333Y209D01*
D02*
X3983Y431D02*
X3983Y360D01*
D02*
X4083Y489D02*
X4083Y631D01*
D02*
X3133Y1080D02*
X3133Y689D01*
D02*
X3484Y458D02*
X3382Y360D01*
D02*
X3484Y560D02*
X3484Y458D01*
D02*
X3382Y360D02*
X3284Y360D01*
D02*
X3231Y409D02*
X3232Y430D01*
D02*
X3284Y360D02*
X3231Y409D01*
D02*
X3685Y711D02*
X3484Y560D01*
D02*
X3684Y731D02*
X3685Y711D01*
D02*
X3783Y810D02*
X3783Y789D01*
D02*
X3231Y1059D02*
X3284Y1010D01*
D02*
X3583Y1010D02*
X3783Y810D01*
D02*
X3284Y1010D02*
X3583Y1010D01*
D02*
X3232Y1080D02*
X3231Y1059D01*
D02*
X3733Y1111D02*
X3983Y859D01*
D02*
X3983Y859D02*
X3983Y789D01*
D02*
X3363Y1110D02*
X3733Y1111D01*
D02*
X3883Y789D02*
X3883Y831D01*
D02*
X3333Y810D02*
X3363Y840D01*
D02*
X3333Y490D02*
X3333Y810D01*
D02*
X2362Y910D02*
X2404Y910D01*
D02*
X3583Y912D02*
X3583Y789D01*
D02*
X3284Y961D02*
X3533Y961D01*
D02*
X3533Y961D02*
X3583Y912D01*
D02*
X3253Y930D02*
X3284Y961D01*
D02*
X1433Y1080D02*
X1433Y639D01*
D02*
X2483Y760D02*
X2532Y711D01*
D02*
X2933Y262D02*
X2933Y430D01*
D02*
X2532Y311D02*
X2634Y209D01*
D02*
X2385Y711D02*
X2434Y760D01*
D02*
X2434Y760D02*
X2483Y760D01*
D02*
X2532Y711D02*
X2532Y311D01*
D02*
X2634Y209D02*
X2884Y209D01*
D02*
X2884Y209D02*
X2933Y262D01*
D02*
X2362Y711D02*
X2385Y711D01*
D02*
X2385Y609D02*
X2362Y610D01*
D02*
X2413Y639D02*
X2385Y609D01*
D02*
X1934Y311D02*
X1933Y239D01*
D02*
X2532Y161D02*
X2503Y190D01*
D02*
X3983Y161D02*
X2532Y161D01*
D02*
X4183Y361D02*
X3983Y161D01*
D02*
X4183Y431D02*
X4183Y361D01*
D02*
X1133Y739D02*
X1133Y1080D01*
D02*
X3733Y1911D02*
X3132Y1911D01*
D02*
X3132Y1911D02*
X3108Y1886D01*
D02*
X3784Y1860D02*
X3733Y1911D01*
D02*
X3783Y1462D02*
X3784Y1860D01*
D02*
X4283Y908D02*
X3783Y1462D01*
D02*
X4283Y709D02*
X4283Y908D01*
D02*
X4181Y612D02*
X4283Y709D01*
D02*
X4183Y489D02*
X4181Y612D01*
D02*
X932Y1461D02*
X910Y1461D01*
D02*
X884Y1585D02*
X885Y1646D01*
D02*
X1279Y1649D02*
X1282Y1585D01*
D02*
X1334Y1409D02*
X1302Y1441D01*
D02*
X1433Y1409D02*
X1465Y1444D01*
D02*
X1483Y1644D02*
X1483Y1590D01*
D02*
X1451Y1793D02*
X1310Y1796D01*
D02*
X1681Y1644D02*
X1682Y1585D01*
D02*
X1879Y1644D02*
X1882Y1585D01*
D02*
X2081Y1644D02*
X2082Y1585D01*
D02*
X2283Y1644D02*
X2283Y1585D01*
D02*
X2832Y1259D02*
X2699Y1438D01*
D02*
X2685Y1652D02*
X2684Y1585D01*
D02*
X3383Y1461D02*
X3456Y1460D01*
D02*
X3134Y1259D02*
X3267Y1439D01*
D02*
X3483Y1662D02*
X3483Y1585D01*
D02*
X3283Y1662D02*
X3283Y1585D01*
D02*
X2834Y1911D02*
X2533Y1911D01*
D02*
X2858Y1886D02*
X2834Y1911D01*
D02*
X2533Y1911D02*
X2508Y1886D01*
D02*
X2315Y1792D02*
X2654Y1799D01*
D02*
X3180Y1796D02*
X3251Y1806D01*
D02*
X2717Y1799D02*
X3180Y1796D01*
D02*
X734Y1911D02*
X709Y1886D01*
D02*
X1032Y1911D02*
X734Y1911D01*
D02*
X1057Y1886D02*
X1032Y1911D01*
D02*
X1246Y1797D02*
X917Y1795D01*
D02*
X2458Y1886D02*
X2434Y1911D01*
D02*
X1134Y1911D02*
X1109Y1886D01*
D02*
X2434Y1911D02*
X1134Y1911D01*
D02*
X2283Y1359D02*
X2283Y1433D01*
D02*
X2084Y1359D02*
X2083Y1433D01*
D02*
X1882Y1409D02*
X1883Y1433D01*
D02*
X2184Y1710D02*
X2183Y1140D01*
D02*
X3683Y1585D02*
X3683Y1662D01*
D02*
X3515Y1810D02*
X3651Y1810D01*
D02*
X3733Y1111D02*
X3733Y1409D01*
D02*
X3733Y1409D02*
X3702Y1441D01*
G04 End of Copper0*
M02*