; NON-PLATED HOLES START AT T1
; THROUGH (PLATED) HOLES START AT T100
M48
INCH,LZ
T100C0.035000
T101C0.031497
T102C0.038000
%
T100
X014329Y006100
X015329Y012100
X006829Y005100
X003829Y005100
X007829Y005100
X041829Y007600
X040829Y007600
X023329Y006100
X020329Y006100
X003829Y008100
X006829Y008100
X024329Y009100
X028329Y003100
X029329Y006600
X036829Y005600
X004829Y006600
X006829Y007100
X016329Y009600
X006829Y009100
X007829Y008100
X004829Y008100
X020329Y003100
X002829Y008100
X011329Y007100
X038829Y007600
X023329Y008100
X035829Y007600
X037829Y007600
X023329Y005100
X020329Y005100
X020329Y007100
X005829Y005100
X020329Y004100
X033829Y008600
X031329Y006600
X005829Y012600
X041829Y004600
X016329Y012600
X023329Y004100
X001829Y008100
X036829Y004600
X026329Y003600
X001829Y005100
X002829Y005100
X035829Y003600
X024329Y006600
X032329Y009100
X023329Y009100
X036829Y007600
X023329Y003100
X039829Y004600
X020329Y009100
X017329Y009100
X005829Y008100
X007829Y010100
X019329Y002100
X013329Y006600
X028329Y006100
X020329Y008100
X040829Y004600
X038829Y004600
X018829Y004100
X039829Y007600
X003829Y012100
X040829Y006600
X023329Y007100
X007829Y004100
X037829Y004600
X002829Y006100
X017329Y010100
X035829Y004600
X037829Y003100
X004829Y009600
X038829Y008600
X024829Y002100
X038829Y006100
X004829Y005100
X026329Y005600
T101
X010829Y014600
X036829Y015585
X014830Y015629
X006829Y014600
X006829Y015585
X016829Y015585
X032829Y015585
X028829Y014600
X026829Y015585
X010829Y015585
X008829Y014600
X018829Y015585
X014830Y014644
X034829Y014600
X016829Y014600
X024829Y014600
X028829Y015585
X034829Y015585
X018829Y014600
X026829Y014600
X020829Y014600
X020829Y015585
X012829Y015585
X030829Y015585
X032829Y014600
X022829Y014600
X022829Y015585
X008829Y015585
X024829Y015585
X030829Y014600
X036829Y014600
X012829Y014600
T102
X032329Y004600
X020829Y011100
X014329Y011100
X030329Y004600
X010329Y005100
X011329Y005100
X015329Y011100
X029329Y011100
X022829Y011100
X013329Y011100
X012329Y005100
X033329Y011100
X028329Y011100
X016329Y005100
X013329Y005100
X033329Y004600
X016329Y011100
X027329Y004600
X012329Y011100
X010329Y011100
X026329Y011100
X030329Y011100
X017329Y005100
X028329Y004600
X031329Y011100
X027329Y011100
X017329Y011100
X021829Y011100
X015329Y005100
X029329Y004600
X011329Y011100
X032329Y011100
X031329Y004600
X014329Y005100
X026329Y004600
T00
M30
